                                                                        S      1
,,18H1593P Endplate.ipt,27HNo Iges File Name specified,21HAutoDesk InvenG      1
tor R10,35HAutoDesk Inventor Iges Exporter R10,32,38,6,99,15,18H1593P EnG      2
dplate.ipt,1.0D0,2,2HMM,1,.08D0,15H20051117.101949,.01D0,10000.0D0,19HNoG      3
 Author specified,25HNo Organization specified,11,0,,33HNo Application PG      4
rotocol specified;                                                      G      5
     116       1       0       0       0       0       0       000010000D      1
     116       0       0       1       0                               0D      2
     123       2       0       0       0       0       0       000010200D      3
     123       0       0       1       0                               0D      4
     190       3       0       0       0       0       0       000010000D      5
     190       0       0       1       1                               0D      6
     123       4       0       0       0       0       0       000010200D      7
     123       0       0       1       0                               0D      8
     502       5       0       0       0       0       0       000010000D      9
     502       0       0       8       1                               0D     10
     110      13       0       0       0       0       0       000010000D     11
     110       0       0       1       0                               0D     12
     504      14       0       0       0       0       0       000010001D     13
     504       0       0       5       1                               0D     14
     100      19       0       0       0       0      17       000010000D     15
     100       0       0       2       0                               0D     16
     124      21       0       0       0       0       0       000000000D     17
     124       0       0       2       0                               0D     18
     110      23       0       0       0       0       0       000010000D     19
     110       0       0       1       0                               0D     20
     100      24       0       0       0       0      23       000010000D     21
     100       0       0       1       0                               0D     22
     124      25       0       0       0       0       0       000000000D     23
     124       0       0       2       0                               0D     24
     110      27       0       0       0       0       0       000010000D     25
     110       0       0       1       0                               0D     26
     100      28       0       0       0       0      29       000010000D     27
     100       0       0       1       0                               0D     28
     124      29       0       0       0       0       0       000000000D     29
     124       0       0       2       0                               0D     30
     110      31       0       0       0       0       0       000010000D     31
     110       0       0       1       0                               0D     32
     100      32       0       0       0       0      35       000010000D     33
     100       0       0       2       0                               0D     34
     124      34       0       0       0       0       0       000000000D     35
     124       0       0       2       0                               0D     36
     508      36       0       0       0       0       0       000010000D     37
     508       0       0       2       1                               0D     38
     510      38       0       0       0       0       0       000010001D     39
     510       0       0       1       1                               0D     40
     116      39       0       0       0       0       0       000010000D     41
     116       0       0       1       0                               0D     42
     123      40       0       0       0       0       0       000010200D     43
     123       0       0       1       0                               0D     44
     190      41       0       0       0       0       0       000010000D     45
     190       0       0       1       1                               0D     46
     123      42       0       0       0       0       0       000010200D     47
     123       0       0       1       0                               0D     48
     110      43       0       0       0       0       0       000010000D     49
     110       0       0       1       0                               0D     50
     110      44       0       0       0       0       0       000010000D     51
     110       0       0       1       0                               0D     52
     110      45       0       0       0       0       0       000010000D     53
     110       0       0       1       0                               0D     54
     508      46       0       0       0       0       0       000010000D     55
     508       0       0       1       1                               0D     56
     510      47       0       0       0       0       0       000010001D     57
     510       0       0       1       1                               0D     58
     116      48       0       0       0       0       0       000010000D     59
     116       0       0       1       0                               0D     60
     123      49       0       0       0       0       0       000010200D     61
     123       0       0       1       0                               0D     62
     192      50       0       0       0       0       0       000010000D     63
     192       0       0       1       1                               0D     64
     123      51       0       0       0       0       0       000010200D     65
     123       0       0       1       0                               0D     66
     100      52       0       0       0       0      69       000010000D     67
     100       0       0       2       0                               0D     68
     124      54       0       0       0       0       0       000000000D     69
     124       0       0       2       0                               0D     70
     110      56       0       0       0       0       0       000010000D     71
     110       0       0       1       0                               0D     72
     508      57       0       0       0       0       0       000010000D     73
     508       0       0       1       1                               0D     74
     510      58       0       0       0       0       0       000010001D     75
     510       0       0       1       1                               0D     76
     116      59       0       0       0       0       0       000010000D     77
     116       0       0       1       0                               0D     78
     123      60       0       0       0       0       0       000010200D     79
     123       0       0       1       0                               0D     80
     190      61       0       0       0       0       0       000010000D     81
     190       0       0       1       1                               0D     82
     123      62       0       0       0       0       0       000010200D     83
     123       0       0       1       0                               0D     84
     110      63       0       0       0       0       0       000010000D     85
     110       0       0       1       0                               0D     86
     110      64       0       0       0       0       0       000010000D     87
     110       0       0       2       0                               0D     88
     508      66       0       0       0       0       0       000010000D     89
     508       0       0       1       1                               0D     90
     510      67       0       0       0       0       0       000010001D     91
     510       0       0       1       1                               0D     92
     116      68       0       0       0       0       0       000010000D     93
     116       0       0       1       0                               0D     94
     123      69       0       0       0       0       0       000010200D     95
     123       0       0       1       0                               0D     96
     192      70       0       0       0       0       0       000010000D     97
     192       0       0       1       1                               0D     98
     123      71       0       0       0       0       0       000010200D     99
     123       0       0       1       0                               0D    100
     100      72       0       0       0       0     103       000010000D    101
     100       0       0       2       0                               0D    102
     124      74       0       0       0       0       0       000000000D    103
     124       0       0       2       0                               0D    104
     110      76       0       0       0       0       0       000010000D    105
     110       0       0       1       0                               0D    106
     508      77       0       0       0       0       0       000010000D    107
     508       0       0       1       1                               0D    108
     510      78       0       0       0       0       0       000010001D    109
     510       0       0       1       1                               0D    110
     116      79       0       0       0       0       0       000010000D    111
     116       0       0       1       0                               0D    112
     123      80       0       0       0       0       0       000010200D    113
     123       0       0       1       0                               0D    114
     190      81       0       0       0       0       0       000010000D    115
     190       0       0       1       1                               0D    116
     123      82       0       0       0       0       0       000010200D    117
     123       0       0       1       0                               0D    118
     110      83       0       0       0       0       0       000010000D    119
     110       0       0       1       0                               0D    120
     110      84       0       0       0       0       0       000010000D    121
     110       0       0       1       0                               0D    122
     508      85       0       0       0       0       0       000010000D    123
     508       0       0       1       1                               0D    124
     510      86       0       0       0       0       0       000010001D    125
     510       0       0       1       1                               0D    126
     116      87       0       0       0       0       0       000010000D    127
     116       0       0       1       0                               0D    128
     123      88       0       0       0       0       0       000010200D    129
     123       0       0       1       0                               0D    130
     192      89       0       0       0       0       0       000010000D    131
     192       0       0       1       1                               0D    132
     123      90       0       0       0       0       0       000010200D    133
     123       0       0       1       0                               0D    134
     100      91       0       0       0       0     137       000010000D    135
     100       0       0       2       0                               0D    136
     124      93       0       0       0       0       0       000000000D    137
     124       0       0       2       0                               0D    138
     110      95       0       0       0       0       0       000010000D    139
     110       0       0       2       0                               0D    140
     508      97       0       0       0       0       0       000010000D    141
     508       0       0       1       1                               0D    142
     510      98       0       0       0       0       0       000010001D    143
     510       0       0       1       1                               0D    144
     116      99       0       0       0       0       0       000010000D    145
     116       0       0       1       0                               0D    146
     123     100       0       0       0       0       0       000010200D    147
     123       0       0       1       0                               0D    148
     190     101       0       0       0       0       0       000010000D    149
     190       0       0       1       1                               0D    150
     123     102       0       0       0       0       0       000010200D    151
     123       0       0       1       0                               0D    152
     110     103       0       0       0       0       0       000010000D    153
     110       0       0       1       0                               0D    154
     110     104       0       0       0       0       0       000010000D    155
     110       0       0       1       0                               0D    156
     508     105       0       0       0       0       0       000010000D    157
     508       0       0       1       1                               0D    158
     510     106       0       0       0       0       0       000010001D    159
     510       0       0       1       1                               0D    160
     116     107       0       0       0       0       0       000010000D    161
     116       0       0       1       0                               0D    162
     123     108       0       0       0       0       0       000010200D    163
     123       0       0       1       0                               0D    164
     192     109       0       0       0       0       0       000010000D    165
     192       0       0       1       1                               0D    166
     123     110       0       0       0       0       0       000010200D    167
     123       0       0       1       0                               0D    168
     100     111       0       0       0       0     171       000010000D    169
     100       0       0       2       0                               0D    170
     124     113       0       0       0       0       0       000000000D    171
     124       0       0       2       0                               0D    172
     508     115       0       0       0       0       0       000010000D    173
     508       0       0       1       1                               0D    174
     510     116       0       0       0       0       0       000010001D    175
     510       0       0       1       1                               0D    176
     116     117       0       0       0       0       0       000010000D    177
     116       0       0       1       0                               0D    178
     123     118       0       0       0       0       0       000010200D    179
     123       0       0       1       0                               0D    180
     190     119       0       0       0       0       0       000010000D    181
     190       0       0       1       1                               0D    182
     123     120       0       0       0       0       0       000010200D    183
     123       0       0       1       0                               0D    184
     508     121       0       0       0       0       0       000010000D    185
     508       0       0       2       1                               0D    186
     510     123       0       0       0       0       0       000010001D    187
     510       0       0       1       1                               0D    188
     514     124       0       0       0       0       0       000010000D    189
     514       0       0       1       1                               0D    190
     186     125       0       0       1       0       0       000000000D    191
     186       0    -193       1       0                               0D    192
     314     126       0       0       0       0       0       000000200D    193
     314       0       0       2       0                               0D    194
116,4.44089209850063D-15,-3.74929297980026D-15,-.85D0,0;               1P      1
123,0.0D0,0.0D0,-1.0D0;                                                3P      2
190,1,3,7;                                                             5P      3
123,-1.0D0,0.0D0,0.0D0;                                                7P      4
502,16,-29.75D0,9.75D0,-.85D0,-29.75D0,-9.74999999999999D0,            9P      5
-.85D0,-28.25D0,11.25D0,-.85D0,28.25D0,11.25D0,-.85D0,29.75D0,         9P      6
9.75D0,-.85D0,29.75D0,-9.74999999999999D0,-.85D0,28.25D0,              9P      7
-11.25D0,-.85D0,-28.25D0,-11.25D0,-.85D0,-28.25D0,11.25D0,.85D0,       9P      8
28.25D0,11.25D0,.85D0,29.75D0,9.75D0,.85D0,29.75D0,                    9P      9
-9.74999999999999D0,.85D0,28.25D0,-11.25D0,.85D0,-28.25D0,             9P     10
-11.25D0,.85D0,-29.75D0,-9.74999999999999D0,.85D0,-29.75D0,            9P     11
9.75D0,.85D0;                                                          9P     12
110,-29.75D0,9.75D0,-.85D0,-29.75D0,-9.74999999999999D0,-.85D0;       11P     13
504,24,11,9,1,9,2,15,9,3,9,1,19,9,4,9,3,21,9,5,9,4,25,9,6,9,5,        13P     14
27,9,7,9,6,31,9,8,9,7,33,9,2,9,8,49,9,9,9,10,51,9,4,9,10,53,9,9,      13P     15
9,3,67,9,10,9,11,71,9,5,9,11,85,9,11,9,12,87,9,6,9,12,101,9,12,       13P     16
9,13,105,9,7,9,13,119,9,13,9,14,121,9,8,9,14,135,9,14,9,15,139,       13P     17
9,2,9,15,153,9,15,9,16,155,9,1,9,16,169,9,16,9,9;                     13P     18
100,0.0D0,0.0D0,0.0D0,1.49999999999999D0,0.0D0,                       15P     19
9.18454765366775D-17,1.49999999999999D0;                              15P     20
124,0.0D0,-1.0D0,0.0D0,-28.25D0,1.0D0,0.0D0,0.0D0,9.75D0,0.0D0,       17P     21
0.0D0,1.0D0,-.85D0;                                                   17P     22
110,28.25D0,11.25D0,-.85D0,-28.25D0,11.25D0,-.85D0;                   19P     23
100,0.0D0,0.0D0,0.0D0,1.5D0,0.0D0,9.18454765366786D-17,1.5D0;         21P     24
124,1.0D0,0.0D0,0.0D0,28.25D0,0.0D0,1.0D0,0.0D0,9.75D0,0.0D0,         23P     25
0.0D0,1.0D0,-.85D0;                                                   23P     26
110,29.75D0,-9.74999999999999D0,-.85D0,29.75D0,9.75D0,-.85D0;         25P     27
100,0.0D0,0.0D0,0.0D0,1.5D0,0.0D0,-8.90096102292711D-15,1.5D0;        27P     28
124,0.0D0,1.0D0,0.0D0,28.25D0,-1.0D0,0.0D0,0.0D0,-9.75D0,0.0D0,       29P     29
0.0D0,1.0D0,-.85D0;                                                   29P     30
110,-28.25D0,-11.25D0,-.85D0,28.25D0,-11.25D0,-.85D0;                 31P     31
100,0.0D0,0.0D0,0.0D0,1.50000000000001D0,-9.69325531299807D-15,       33P     32
4.59227382683393D-16,1.50000000000001D0;                              33P     33
124,-1.0D0,0.0D0,0.0D0,-28.25D0,0.0D0,-1.0D0,0.0D0,-9.75D0,           35P     34
0.0D0,0.0D0,1.0D0,-.85D0;                                             35P     35
508,8,0,13,1,0,0,0,13,2,0,0,0,13,3,0,0,0,13,4,0,0,0,13,5,0,0,0,       37P     36
13,6,0,0,0,13,7,0,0,0,13,8,0,0;                                       37P     37
510,5,1,1,37;                                                         39P     38
116,-28.25D0,11.25D0,0.0D0,0;                                         41P     39
123,0.0D0,1.0D0,0.0D0;                                                43P     40
190,41,43,47;                                                         45P     41
123,0.0D0,0.0D0,1.0D0;                                                47P     42
110,-28.25D0,11.25D0,.85D0,28.25D0,11.25D0,.85D0;                     49P     43
110,28.25D0,11.25D0,-.85D0,28.25D0,11.25D0,.85D0;                     51P     44
110,-28.25D0,11.25D0,.85D0,-28.25D0,11.25D0,-.85D0;                   53P     45
508,4,0,13,9,1,0,0,13,10,0,0,0,13,3,1,0,0,13,11,0,0;                  55P     46
510,45,1,1,55;                                                        57P     47
116,28.25D0,9.75D0,0.0D0,0;                                           59P     48
123,0.0D0,0.0D0,1.0D0;                                                61P     49
192,59,61,1.5D0,65;                                                   63P     50
123,1.0D0,0.0D0,0.0D0;                                                65P     51
100,0.0D0,0.0D0,0.0D0,-2.75536429610036D-16,-1.5D0,1.5D0,             67P     52
-3.67381906146714D-16;                                                67P     53
124,1.0D0,0.0D0,0.0D0,28.25D0,0.0D0,-1.0D0,0.0D0,9.75D0,0.0D0,        69P     54
0.0D0,-1.0D0,.85D0;                                                   69P     55
110,29.75D0,9.75D0,-.85D0,29.75D0,9.75D0,.85D0;                       71P     56
508,4,0,13,12,1,0,0,13,13,0,0,0,13,4,1,0,0,13,10,1,0;                 73P     57
510,63,1,1,73;                                                        75P     58
116,29.75D0,9.75D0,0.0D0,0;                                           77P     59
123,1.0D0,0.0D0,0.0D0;                                                79P     60
190,77,79,83;                                                         81P     61
123,0.0D0,0.0D0,-1.0D0;                                               83P     62
110,29.75D0,9.75D0,.85D0,29.75D0,-9.74999999999999D0,.85D0;           85P     63
110,29.75D0,-9.74999999999999D0,-.85D0,29.75D0,                       87P     64
-9.74999999999999D0,.85D0;                                            87P     65
508,4,0,13,14,1,0,0,13,15,0,0,0,13,5,1,0,0,13,13,1,0;                 89P     66
510,81,1,1,89;                                                        91P     67
116,28.25D0,-9.75D0,0.0D0,0;                                          93P     68
123,0.0D0,0.0D0,1.0D0;                                                95P     69
192,93,95,1.5D0,99;                                                   97P     70
123,0.0D0,-1.0D0,0.0D0;                                               99P     71
100,0.0D0,0.0D0,0.0D0,-9.60140983646138D-15,-1.5D0,1.5D0,            101P     72
-3.67381906146714D-16;                                               101P     73
124,0.0D0,-1.0D0,0.0D0,28.25D0,-1.0D0,0.0D0,0.0D0,-9.75D0,0.0D0,     103P     74
0.0D0,-1.0D0,.85D0;                                                  103P     75
110,28.25D0,-11.25D0,-.85D0,28.25D0,-11.25D0,.85D0;                  105P     76
508,4,0,13,16,1,0,0,13,17,0,0,0,13,6,1,0,0,13,15,1,0;                107P     77
510,97,1,1,107;                                                      109P     78
116,28.25D0,-11.25D0,0.0D0,0;                                        111P     79
123,0.0D0,-1.0D0,0.0D0;                                              113P     80
190,111,113,117;                                                     115P     81
123,0.0D0,0.0D0,-1.0D0;                                              117P     82
110,28.25D0,-11.25D0,.85D0,-28.25D0,-11.25D0,.85D0;                  119P     83
110,-28.25D0,-11.25D0,-.85D0,-28.25D0,-11.25D0,.85D0;                121P     84
508,4,0,13,18,1,0,0,13,19,0,0,0,13,7,1,0,0,13,17,1,0;                123P     85
510,115,1,1,123;                                                     125P     86
116,-28.25D0,-9.75D0,0.0D0,0;                                        127P     87
123,0.0D0,0.0D0,1.0D0;                                               129P     88
192,127,129,1.50000000000001D0,133;                                  131P     89
123,-1.0D0,0.0D0,0.0D0;                                              133P     90
100,0.0D0,0.0D0,0.0D0,-2.75536429610036D-16,-1.50000000000001D0,     135P     91
1.50000000000001D0,8.95849150070464D-15;                             135P     92
124,-1.0D0,0.0D0,0.0D0,-28.25D0,0.0D0,1.0D0,0.0D0,-9.75D0,0.0D0,     137P     93
0.0D0,-1.0D0,.85D0;                                                  137P     94
110,-29.75D0,-9.74999999999999D0,-.85D0,-29.75D0,                    139P     95
-9.74999999999999D0,.85D0;                                           139P     96
508,4,0,13,20,1,0,0,13,21,0,0,0,13,8,1,0,0,13,19,1,0;                141P     97
510,131,1,1,141;                                                     143P     98
116,-29.75D0,-9.74999999999999D0,0.0D0,0;                            145P     99
123,-1.0D0,0.0D0,0.0D0;                                              147P    100
190,145,147,151;                                                     149P    101
123,0.0D0,0.0D0,1.0D0;                                               151P    102
110,-29.75D0,-9.74999999999999D0,.85D0,-29.75D0,9.75D0,.85D0;        153P    103
110,-29.75D0,9.75D0,-.85D0,-29.75D0,9.75D0,.85D0;                    155P    104
508,4,0,13,22,1,0,0,13,23,0,0,0,13,1,1,0,0,13,21,1,0;                157P    105
510,149,1,1,157;                                                     159P    106
116,-28.25D0,9.75D0,0.0D0,0;                                         161P    107
123,0.0D0,0.0D0,1.0D0;                                               163P    108
192,161,163,1.49999999999999D0,167;                                  165P    109
123,0.0D0,1.0D0,0.0D0;                                               167P    110
100,0.0D0,0.0D0,0.0D0,-2.75536429610033D-16,-1.49999999999999D0,     169P    111
1.49999999999999D0,-3.6738190614671D-16;                             169P    112
124,0.0D0,1.0D0,0.0D0,-28.25D0,1.0D0,0.0D0,0.0D0,9.75D0,0.0D0,       171P    113
0.0D0,-1.0D0,.85D0;                                                  171P    114
508,4,0,13,24,1,0,0,13,11,1,0,0,13,2,1,0,0,13,23,1,0;                173P    115
510,165,1,1,173;                                                     175P    116
116,4.23272528138341D-15,-3.88578058618805D-15,.85D0,0;              177P    117
123,0.0D0,0.0D0,1.0D0;                                               179P    118
190,177,179,183;                                                     181P    119
123,1.0D0,0.0D0,0.0D0;                                               183P    120
508,8,0,13,9,0,0,0,13,24,0,0,0,13,22,0,0,0,13,20,0,0,0,13,18,0,      185P    121
0,0,13,16,0,0,0,13,14,0,0,0,13,12,0,0;                               185P    122
510,181,1,1,185;                                                     187P    123
514,10,39,1,57,1,75,1,91,1,109,1,125,1,143,1,159,1,175,1,187,1;      189P    124
186,189,1,0;                                                         191P    125
314,75.2941012382507D0,75.2941012382507D0,75.2941012382507D0,7HD     193P    126
efault;                                                              193P    127
S      1G      5D    194P    127                                        T      1
