G04 #@! TF.FileFunction,Copper,L1,Top,Signal*
%FSLAX46Y46*%
G04 Gerber Fmt 4.6, Leading zero omitted, Abs format (unit mm)*
G04 Created by KiCad (PCBNEW no-vcs-found-product) date Mi 14 Okt 2015 21:54:47 CEST*
%MOMM*%
G01*
G04 APERTURE LIST*
%ADD10C,0.100000*%
%ADD11R,2.999740X1.600200*%
%ADD12R,1.000000X1.250000*%
%ADD13R,1.250000X1.000000*%
%ADD14C,1.501140*%
%ADD15C,3.500120*%
%ADD16R,1.998980X1.524000*%
%ADD17O,1.998980X1.524000*%
%ADD18R,0.700000X1.300000*%
%ADD19R,1.300000X0.700000*%
%ADD20R,0.800000X0.350000*%
%ADD21R,0.350000X0.800000*%
%ADD22R,1.250000X1.250000*%
%ADD23R,1.500000X0.600000*%
%ADD24R,0.600000X1.500000*%
%ADD25R,1.950000X0.600000*%
%ADD26R,2.500000X0.900000*%
%ADD27R,1.524000X1.998980*%
%ADD28O,1.524000X1.998980*%
%ADD29R,1.600200X2.999740*%
%ADD30C,0.600000*%
%ADD31C,0.250000*%
%ADD32C,0.800000*%
%ADD33C,0.254000*%
G04 APERTURE END LIST*
D10*
D11*
X135599640Y-110350000D03*
X131200360Y-110350000D03*
D12*
X127600000Y-106950000D03*
X129600000Y-106950000D03*
X155320000Y-111710000D03*
X157320000Y-111710000D03*
X166960000Y-77620000D03*
X164960000Y-77620000D03*
D13*
X133830000Y-100760000D03*
X133830000Y-102760000D03*
X136180000Y-100650000D03*
X136180000Y-102650000D03*
X136910000Y-84390000D03*
X136910000Y-82390000D03*
X147415000Y-110595000D03*
X147415000Y-112595000D03*
X143965000Y-110445000D03*
X143965000Y-112445000D03*
X140215000Y-110495000D03*
X140215000Y-112495000D03*
D14*
X119017800Y-90935600D03*
X119017800Y-93424800D03*
X121024400Y-93424800D03*
X121024400Y-90935600D03*
D15*
X116300000Y-86160400D03*
X116300000Y-98200000D03*
D16*
X178301080Y-80100000D03*
D17*
X181338920Y-80100000D03*
X178301080Y-82640000D03*
X181338920Y-82640000D03*
X178301080Y-85180000D03*
X181338920Y-85180000D03*
X178301080Y-87720000D03*
X181338920Y-87720000D03*
X178301080Y-90260000D03*
X181338920Y-90260000D03*
X178301080Y-92800000D03*
X181338920Y-92800000D03*
X178301080Y-95340000D03*
X181338920Y-95340000D03*
X178301080Y-97880000D03*
X181338920Y-97880000D03*
X178301080Y-100420000D03*
X181338920Y-100420000D03*
X178301080Y-102960000D03*
X181338920Y-102960000D03*
X178301080Y-105500000D03*
X181338920Y-105500000D03*
X178301080Y-108040000D03*
X181338920Y-108040000D03*
D18*
X126200000Y-109900000D03*
X124300000Y-109900000D03*
X115800000Y-106600000D03*
X117700000Y-106600000D03*
X115700000Y-103150000D03*
X117600000Y-103150000D03*
X127800000Y-100700000D03*
X125900000Y-100700000D03*
X127800000Y-98450000D03*
X125900000Y-98450000D03*
X127800000Y-93850000D03*
X125900000Y-93850000D03*
X127800000Y-96100000D03*
X125900000Y-96100000D03*
D19*
X147415000Y-107045000D03*
X147415000Y-108945000D03*
X143965000Y-106995000D03*
X143965000Y-108895000D03*
X140215000Y-107045000D03*
X140215000Y-108945000D03*
X141050000Y-81600000D03*
X141050000Y-79700000D03*
D20*
X121325000Y-103800000D03*
X121325000Y-104450000D03*
X121325000Y-105100000D03*
X121325000Y-105750000D03*
D21*
X122350000Y-106775000D03*
X123000000Y-106775000D03*
X123650000Y-106775000D03*
X124300000Y-106775000D03*
D20*
X125325000Y-105750000D03*
X125325000Y-105100000D03*
X125325000Y-104450000D03*
X125325000Y-103800000D03*
D21*
X124300000Y-102775000D03*
X123650000Y-102775000D03*
X123000000Y-102775000D03*
X122350000Y-102775000D03*
D22*
X123950000Y-105400000D03*
X123950000Y-104150000D03*
X122700000Y-105400000D03*
X122700000Y-104150000D03*
D23*
X138850000Y-87150000D03*
X138850000Y-87950000D03*
X138850000Y-88750000D03*
X138850000Y-89550000D03*
X138850000Y-90350000D03*
X138850000Y-91150000D03*
X138850000Y-91950000D03*
X138850000Y-92750000D03*
X138850000Y-93550000D03*
X138850000Y-94350000D03*
X138850000Y-95150000D03*
X138850000Y-95950000D03*
X138850000Y-96750000D03*
X138850000Y-97550000D03*
X138850000Y-98350000D03*
X138850000Y-99150000D03*
D24*
X140750000Y-101050000D03*
X141550000Y-101050000D03*
X142350000Y-101050000D03*
X143150000Y-101050000D03*
X143950000Y-101050000D03*
X144750000Y-101050000D03*
X145550000Y-101050000D03*
X146350000Y-101050000D03*
X147150000Y-101050000D03*
X147950000Y-101050000D03*
X148750000Y-101050000D03*
X149550000Y-101050000D03*
X150350000Y-101050000D03*
X151150000Y-101050000D03*
X151950000Y-101050000D03*
X152750000Y-101050000D03*
D23*
X154650000Y-99150000D03*
X154650000Y-98350000D03*
X154650000Y-97550000D03*
X154650000Y-96750000D03*
X154650000Y-95950000D03*
X154650000Y-95150000D03*
X154650000Y-94350000D03*
X154650000Y-93550000D03*
X154650000Y-92750000D03*
X154650000Y-91950000D03*
X154650000Y-91150000D03*
X154650000Y-90350000D03*
X154650000Y-89550000D03*
X154650000Y-88750000D03*
X154650000Y-87950000D03*
X154650000Y-87150000D03*
D24*
X152750000Y-85250000D03*
X151950000Y-85250000D03*
X151150000Y-85250000D03*
X150350000Y-85250000D03*
X149550000Y-85250000D03*
X148750000Y-85250000D03*
X147950000Y-85250000D03*
X147150000Y-85250000D03*
X146350000Y-85250000D03*
X145550000Y-85250000D03*
X144750000Y-85250000D03*
X143950000Y-85250000D03*
X143150000Y-85250000D03*
X142350000Y-85250000D03*
X141550000Y-85250000D03*
X140750000Y-85250000D03*
D25*
X170940000Y-91715000D03*
X170940000Y-90445000D03*
X170940000Y-89175000D03*
X170940000Y-87905000D03*
X170940000Y-86635000D03*
X170940000Y-85365000D03*
X170940000Y-84095000D03*
X170940000Y-82825000D03*
X170940000Y-81555000D03*
X170940000Y-80285000D03*
X161540000Y-80285000D03*
X161540000Y-81555000D03*
X161540000Y-82825000D03*
X161540000Y-84095000D03*
X161540000Y-85365000D03*
X161540000Y-86635000D03*
X161540000Y-87905000D03*
X161540000Y-89175000D03*
X161540000Y-90445000D03*
X161540000Y-91715000D03*
X170800000Y-106615000D03*
X170800000Y-105345000D03*
X170800000Y-104075000D03*
X170800000Y-102805000D03*
X170800000Y-101535000D03*
X170800000Y-100265000D03*
X170800000Y-98995000D03*
X170800000Y-97725000D03*
X170800000Y-96455000D03*
X170800000Y-95185000D03*
X161400000Y-95185000D03*
X161400000Y-96455000D03*
X161400000Y-97725000D03*
X161400000Y-98995000D03*
X161400000Y-100265000D03*
X161400000Y-101535000D03*
X161400000Y-102805000D03*
X161400000Y-104075000D03*
X161400000Y-105345000D03*
X161400000Y-106615000D03*
D16*
X131281080Y-89760000D03*
D17*
X134318920Y-89760000D03*
X131281080Y-92300000D03*
X134318920Y-92300000D03*
X131281080Y-94840000D03*
X134318920Y-94840000D03*
D19*
X151850000Y-111050000D03*
X151850000Y-109150000D03*
D26*
X125550000Y-87750000D03*
X125550000Y-84850000D03*
D27*
X144120000Y-80218920D03*
D28*
X144120000Y-77181080D03*
X146660000Y-80218920D03*
X146660000Y-77181080D03*
X149200000Y-80218920D03*
X149200000Y-77181080D03*
X151740000Y-80218920D03*
X151740000Y-77181080D03*
X154280000Y-80218920D03*
X154280000Y-77181080D03*
D12*
X165120000Y-110030000D03*
X167120000Y-110030000D03*
D29*
X131220000Y-78610360D03*
X131220000Y-83009640D03*
D30*
X170900000Y-79280000D03*
X120340000Y-105050000D03*
X170810000Y-94560000D03*
X149550000Y-86450000D03*
X163730000Y-77670000D03*
X144770000Y-102370000D03*
X130570000Y-106900000D03*
X129080000Y-110340000D03*
X134900000Y-102750000D03*
X146030000Y-112530000D03*
X158640000Y-111740000D03*
X168440000Y-110070000D03*
X131190000Y-85460000D03*
X136930000Y-81150000D03*
X141540000Y-86720000D03*
X142115000Y-112495000D03*
X137550000Y-88750000D03*
X140540000Y-90780000D03*
X150437500Y-110928500D03*
X137200000Y-96650000D03*
X143179000Y-102664200D03*
X128770000Y-98500000D03*
X149390000Y-99160000D03*
X148740000Y-99785020D03*
X128870000Y-100580000D03*
X172250000Y-96400000D03*
X172250000Y-97650000D03*
X172820000Y-86620000D03*
X172680000Y-87920000D03*
X172570000Y-89180000D03*
X172640000Y-90450000D03*
X125207500Y-106858400D03*
X121234600Y-102359600D03*
X168650000Y-96501928D03*
X151760000Y-97130000D03*
X163480000Y-89830000D03*
X152850000Y-94750000D03*
X163130000Y-95260000D03*
X152830000Y-96360000D03*
X127800000Y-92750000D03*
X137550000Y-89550000D03*
X128650000Y-96050000D03*
X137700000Y-90350000D03*
X147150000Y-83600000D03*
X148740000Y-83780000D03*
D31*
X143950000Y-99600000D02*
X144080000Y-99470000D01*
X143950000Y-101050000D02*
X143950000Y-99600000D01*
X150350000Y-85250000D02*
X150350000Y-86860000D01*
X140750000Y-88020000D02*
X140750000Y-85250000D01*
X141770000Y-89040000D02*
X140750000Y-88020000D01*
X148170000Y-89040000D02*
X141770000Y-89040000D01*
X150350000Y-86860000D02*
X148170000Y-89040000D01*
X150350000Y-83120000D02*
X150350000Y-85250000D01*
X125325000Y-105100000D02*
X126240000Y-105100000D01*
X126240000Y-105100000D02*
X126290000Y-105050000D01*
X146660000Y-77418570D02*
X146660000Y-77181080D01*
X170940000Y-80285000D02*
X170940000Y-79320000D01*
X170940000Y-79320000D02*
X170900000Y-79280000D01*
X121325000Y-105100000D02*
X120390000Y-105100000D01*
X120390000Y-105100000D02*
X120340000Y-105050000D01*
X170800000Y-95185000D02*
X170800000Y-94570000D01*
X170800000Y-94570000D02*
X170810000Y-94560000D01*
X149550000Y-85250000D02*
X149550000Y-86450000D01*
X164960000Y-77620000D02*
X163730000Y-77670000D01*
X144750000Y-101050000D02*
X144750000Y-102350000D01*
X144750000Y-102350000D02*
X144770000Y-102370000D01*
X129600000Y-106950000D02*
X130520000Y-106950000D01*
X130520000Y-106950000D02*
X130570000Y-106900000D01*
X131200360Y-110350000D02*
X129090000Y-110350000D01*
X129090000Y-110350000D02*
X129080000Y-110340000D01*
X136180000Y-102650000D02*
X135000000Y-102650000D01*
X135000000Y-102650000D02*
X134900000Y-102750000D01*
X133830000Y-102760000D02*
X134890000Y-102760000D01*
X134890000Y-102760000D02*
X134900000Y-102750000D01*
X143965000Y-112445000D02*
X145945000Y-112445000D01*
X145945000Y-112445000D02*
X146030000Y-112530000D01*
X147415000Y-112595000D02*
X146095000Y-112595000D01*
X146095000Y-112595000D02*
X146030000Y-112530000D01*
X157320000Y-111710000D02*
X158610000Y-111710000D01*
X158610000Y-111710000D02*
X158640000Y-111740000D01*
X167120000Y-110030000D02*
X168400000Y-110030000D01*
X168400000Y-110030000D02*
X168440000Y-110070000D01*
X131220000Y-83009640D02*
X131220000Y-85430000D01*
X131220000Y-85430000D02*
X131190000Y-85460000D01*
X136910000Y-82390000D02*
X136910000Y-81170000D01*
X136910000Y-81170000D02*
X136930000Y-81150000D01*
X141550000Y-85250000D02*
X141550000Y-86710000D01*
X141550000Y-86710000D02*
X141540000Y-86720000D01*
X147265000Y-112445000D02*
X147415000Y-112595000D01*
X140215000Y-112495000D02*
X142115000Y-112495000D01*
X142115000Y-112495000D02*
X143915000Y-112495000D01*
X143915000Y-112495000D02*
X143965000Y-112445000D01*
X122700000Y-105400000D02*
X123950000Y-105400000D01*
X123950000Y-104150000D02*
X122700000Y-104150000D01*
X121325000Y-105100000D02*
X122700000Y-105100000D01*
X122700000Y-105400000D02*
X122700000Y-105100000D01*
X122700000Y-105100000D02*
X122700000Y-104150000D01*
X124375000Y-103725000D02*
X124375000Y-102950000D01*
X123950000Y-104150000D02*
X124375000Y-103725000D01*
X124375000Y-102850000D02*
X124300000Y-102775000D01*
X124375000Y-102950000D02*
X124375000Y-102850000D01*
X127600000Y-106950000D02*
X126210000Y-106950000D01*
X126210000Y-106950000D02*
X126200000Y-106940000D01*
X126200000Y-106625000D02*
X125325000Y-105750000D01*
X126200000Y-109900000D02*
X126200000Y-106940000D01*
X126200000Y-106940000D02*
X126200000Y-106625000D01*
X147415000Y-108945000D02*
X147415000Y-110595000D01*
X143965000Y-110445000D02*
X143965000Y-108895000D01*
X140215000Y-108945000D02*
X140215000Y-110495000D01*
X138850000Y-88750000D02*
X137550000Y-88750000D01*
X131350000Y-92300000D02*
X131530000Y-92480000D01*
X131281000Y-92300000D02*
X131350000Y-92300000D01*
X137500000Y-95150000D02*
X138850000Y-95150000D01*
X135950000Y-93600000D02*
X137500000Y-95150000D01*
X132650000Y-93600000D02*
X135950000Y-93600000D01*
X131530000Y-92480000D02*
X132650000Y-93600000D01*
X131530000Y-92480000D02*
X131530000Y-92300000D01*
X135600000Y-92300000D02*
X134319000Y-92300000D01*
X136550000Y-91350000D02*
X135600000Y-92300000D01*
X136550000Y-88600000D02*
X136550000Y-91350000D01*
X137200000Y-87950000D02*
X136550000Y-88600000D01*
X138850000Y-87950000D02*
X137200000Y-87950000D01*
X134319000Y-92300000D02*
X134070000Y-92300000D01*
X155320000Y-111710000D02*
X152510000Y-111710000D01*
X152510000Y-111710000D02*
X151850000Y-111050000D01*
X143150000Y-101050000D02*
X143150000Y-93390000D01*
X143150000Y-93390000D02*
X140540000Y-90780000D01*
X150437500Y-110928500D02*
X150753200Y-110928500D01*
X131530000Y-94840000D02*
X131530000Y-95030000D01*
X131530000Y-95030000D02*
X133150000Y-96650000D01*
X133150000Y-96650000D02*
X137200000Y-96650000D01*
X150753200Y-110928500D02*
X150874700Y-111050000D01*
X151850000Y-111050000D02*
X150874700Y-111050000D01*
X143150000Y-102635200D02*
X143150000Y-101050000D01*
X143179000Y-102664200D02*
X143150000Y-102635200D01*
X128770000Y-98500000D02*
X127850000Y-98500000D01*
X127850000Y-98500000D02*
X127800000Y-98450000D01*
X149550000Y-101050000D02*
X149550000Y-99320000D01*
X149550000Y-99320000D02*
X149390000Y-99160000D01*
X148750000Y-99795020D02*
X148740000Y-99785020D01*
X148750000Y-101050000D02*
X148750000Y-99795020D01*
X128870000Y-100580000D02*
X127920000Y-100580000D01*
X127920000Y-100580000D02*
X127800000Y-100700000D01*
X170940000Y-81555000D02*
X172855000Y-81555000D01*
X174310000Y-80100000D02*
X178550000Y-80100000D01*
X172855000Y-81555000D02*
X174310000Y-80100000D01*
X170940000Y-82825000D02*
X178365000Y-82825000D01*
X178365000Y-82825000D02*
X178550000Y-82640000D01*
X170940000Y-84095000D02*
X175475000Y-84095000D01*
X176560000Y-85180000D02*
X178550000Y-85180000D01*
X175475000Y-84095000D02*
X176560000Y-85180000D01*
X178266000Y-85145000D02*
X178284000Y-85162500D01*
X178284000Y-85162500D02*
X178301000Y-85180000D01*
X178532000Y-85162500D02*
X178550000Y-85180000D01*
X178284000Y-85162500D02*
X178532000Y-85162500D01*
X170940000Y-85365000D02*
X175115000Y-85365000D01*
X175115000Y-85365000D02*
X177470000Y-87720000D01*
X177470000Y-87720000D02*
X178550000Y-87720000D01*
X178064000Y-90260000D02*
X178550000Y-90260000D01*
X174250000Y-94073600D02*
X178064000Y-90260000D01*
X174250000Y-96770000D02*
X174250000Y-94073600D01*
X172025000Y-98995000D02*
X174250000Y-96770000D01*
X170800000Y-98995000D02*
X172025000Y-98995000D01*
X177050000Y-92800000D02*
X178550000Y-92800000D01*
X174950000Y-94900000D02*
X177050000Y-92800000D01*
X174950000Y-97340000D02*
X174950000Y-94900000D01*
X172025000Y-100265000D02*
X174950000Y-97340000D01*
X170800000Y-100265000D02*
X172025000Y-100265000D01*
X176960000Y-95340000D02*
X178550000Y-95340000D01*
X175850000Y-96450000D02*
X176960000Y-95340000D01*
X175850000Y-98200000D02*
X175850000Y-96450000D01*
X172515000Y-101535000D02*
X175850000Y-98200000D01*
X170800000Y-101535000D02*
X172515000Y-101535000D01*
X178064000Y-97880000D02*
X178550000Y-97880000D01*
X173144000Y-102800000D02*
X178064000Y-97880000D01*
X171480000Y-102800000D02*
X173144000Y-102800000D01*
X171475000Y-102805000D02*
X171480000Y-102800000D01*
X170800000Y-102805000D02*
X171475000Y-102805000D01*
X178064000Y-100420000D02*
X178550000Y-100420000D01*
X174409000Y-104075000D02*
X178064000Y-100420000D01*
X170800000Y-104075000D02*
X174409000Y-104075000D01*
X172195000Y-96455000D02*
X172250000Y-96400000D01*
X170800000Y-96455000D02*
X172195000Y-96455000D01*
X172175000Y-97725000D02*
X172250000Y-97650000D01*
X170800000Y-97725000D02*
X172175000Y-97725000D01*
X170940000Y-86635000D02*
X172805000Y-86635000D01*
X172805000Y-86635000D02*
X172820000Y-86620000D01*
X170940000Y-87905000D02*
X172665000Y-87905000D01*
X172665000Y-87905000D02*
X172680000Y-87920000D01*
X170940000Y-89175000D02*
X172565000Y-89175000D01*
X172565000Y-89175000D02*
X172570000Y-89180000D01*
X170940000Y-90445000D02*
X172635000Y-90445000D01*
X172635000Y-90445000D02*
X172640000Y-90450000D01*
X181280000Y-87720000D02*
X181339000Y-87720000D01*
X181090000Y-87910000D02*
X181280000Y-87720000D01*
X181090000Y-87910000D02*
X181090000Y-87720000D01*
X181220000Y-90260000D02*
X181090000Y-90260000D01*
X181101000Y-90260000D02*
X181220000Y-90260000D01*
X179900000Y-91461400D02*
X181101000Y-90260000D01*
X179900000Y-103450000D02*
X179900000Y-91461400D01*
X179050000Y-104300000D02*
X179900000Y-103450000D01*
X175800000Y-104300000D02*
X179050000Y-104300000D01*
X174750000Y-105350000D02*
X175800000Y-104300000D01*
X172030000Y-105350000D02*
X174750000Y-105350000D01*
X172025000Y-105345000D02*
X172030000Y-105350000D01*
X170800000Y-105345000D02*
X172025000Y-105345000D01*
X181220000Y-90260000D02*
X181339000Y-90260000D01*
X121325000Y-103800000D02*
X121325000Y-102450000D01*
X121325000Y-102450000D02*
X121234600Y-102359600D01*
X124300000Y-107138000D02*
X124300000Y-109900000D01*
X124300000Y-106956500D02*
X124300000Y-107138000D01*
X124300000Y-106956500D02*
X124300000Y-107138000D01*
X124300000Y-106775000D02*
X124300000Y-106865700D01*
X124300000Y-106865700D02*
X124300000Y-106956500D01*
X124300000Y-106865700D02*
X124300000Y-106956500D01*
X125200200Y-106865700D02*
X125207500Y-106858400D01*
X124300000Y-106865700D02*
X125200200Y-106865700D01*
X123900000Y-100700000D02*
X125900000Y-100700000D01*
X123000000Y-101600000D02*
X123900000Y-100700000D01*
X123000000Y-102775000D02*
X123000000Y-101600000D01*
X120550000Y-104450000D02*
X121325000Y-104450000D01*
X120100000Y-104000000D02*
X120550000Y-104450000D01*
X120100000Y-101350000D02*
X120100000Y-104000000D01*
X123000000Y-98450000D02*
X120100000Y-101350000D01*
X125900000Y-98450000D02*
X123000000Y-98450000D01*
X122350000Y-101000000D02*
X122350000Y-102775000D01*
X123800000Y-99550000D02*
X122350000Y-101000000D01*
X126550000Y-99550000D02*
X123800000Y-99550000D01*
X126850000Y-99250000D02*
X126550000Y-99550000D01*
X126850000Y-94450000D02*
X126850000Y-99250000D01*
X126250000Y-93850000D02*
X126850000Y-94450000D01*
X125900000Y-93850000D02*
X126250000Y-93850000D01*
X123600000Y-96100000D02*
X125900000Y-96100000D01*
X119450000Y-105085002D02*
X119450000Y-100250000D01*
X119450000Y-100250000D02*
X123600000Y-96100000D01*
X120114998Y-105750000D02*
X119450000Y-105085002D01*
X121325000Y-105750000D02*
X120114998Y-105750000D01*
X142350000Y-83250000D02*
X142350000Y-85250000D01*
X141050000Y-81950000D02*
X142350000Y-83250000D01*
X141050000Y-81600000D02*
X141050000Y-81950000D01*
X168650000Y-96501928D02*
X168650000Y-92780000D01*
X168650000Y-92780000D02*
X169715000Y-91715000D01*
X169715000Y-91715000D02*
X170940000Y-91715000D01*
X168650000Y-105690000D02*
X168650000Y-96501928D01*
X150350000Y-101050000D02*
X150350000Y-98540000D01*
X150350000Y-98540000D02*
X151760000Y-97130000D01*
X170800000Y-106615000D02*
X169575000Y-106615000D01*
X169575000Y-106615000D02*
X168650000Y-105690000D01*
X151150000Y-85250000D02*
X151150000Y-84110000D01*
X159515000Y-81555000D02*
X161540000Y-81555000D01*
X158790000Y-82280000D02*
X159515000Y-81555000D01*
X156750000Y-82280000D02*
X158790000Y-82280000D01*
X155820000Y-83210000D02*
X156750000Y-82280000D01*
X152050000Y-83210000D02*
X155820000Y-83210000D01*
X151150000Y-84110000D02*
X152050000Y-83210000D01*
X151950000Y-85250000D02*
X151950000Y-84230000D01*
X157075000Y-82825000D02*
X161540000Y-82825000D01*
X156160000Y-83740000D02*
X157075000Y-82825000D01*
X152440000Y-83740000D02*
X156160000Y-83740000D01*
X151950000Y-84230000D02*
X152440000Y-83740000D01*
X152750000Y-85250000D02*
X155720000Y-85250000D01*
X156875000Y-84095000D02*
X161540000Y-84095000D01*
X155720000Y-85250000D02*
X156875000Y-84095000D01*
X152855000Y-85145000D02*
X152750000Y-85250000D01*
X154650000Y-87150000D02*
X155750000Y-87150000D01*
X157535000Y-85365000D02*
X161540000Y-85365000D01*
X155750000Y-87150000D02*
X157535000Y-85365000D01*
X161395000Y-85300000D02*
X161550000Y-85145000D01*
X154650000Y-87950000D02*
X156230000Y-87950000D01*
X157545000Y-86635000D02*
X161540000Y-86635000D01*
X156230000Y-87950000D02*
X157545000Y-86635000D01*
X154650000Y-88750000D02*
X157100000Y-88750000D01*
X157945000Y-87905000D02*
X161540000Y-87905000D01*
X157100000Y-88750000D02*
X157945000Y-87905000D01*
X154650000Y-89550000D02*
X157630000Y-89550000D01*
X158005000Y-89175000D02*
X161540000Y-89175000D01*
X157630000Y-89550000D02*
X158005000Y-89175000D01*
X154650000Y-90350000D02*
X161445000Y-90350000D01*
X161445000Y-90350000D02*
X161540000Y-90445000D01*
X163480000Y-80970000D02*
X162795000Y-80285000D01*
X162795000Y-80285000D02*
X161540000Y-80285000D01*
X163480000Y-89830000D02*
X163480000Y-80970000D01*
X147950000Y-99190000D02*
X152390000Y-94750000D01*
X152390000Y-94750000D02*
X152850000Y-94750000D01*
X147950000Y-101050000D02*
X147950000Y-99190000D01*
X157845000Y-105345000D02*
X161400000Y-105345000D01*
X156100000Y-103600000D02*
X157845000Y-105345000D01*
X156100000Y-98000000D02*
X156100000Y-103600000D01*
X155650000Y-97550000D02*
X156100000Y-98000000D01*
X154650000Y-97550000D02*
X155650000Y-97550000D01*
X156000000Y-96750000D02*
X154650000Y-96750000D01*
X156600000Y-97350000D02*
X156000000Y-96750000D01*
X156600000Y-102500000D02*
X156600000Y-97350000D01*
X158175000Y-104075000D02*
X156600000Y-102500000D01*
X161400000Y-104075000D02*
X158175000Y-104075000D01*
X156600000Y-95950000D02*
X154650000Y-95950000D01*
X157300000Y-96650000D02*
X156600000Y-95950000D01*
X157300000Y-101850000D02*
X157300000Y-96650000D01*
X158255000Y-102805000D02*
X157300000Y-101850000D01*
X161400000Y-102805000D02*
X158255000Y-102805000D01*
X156800000Y-95150000D02*
X154650000Y-95150000D01*
X157900000Y-96250000D02*
X156800000Y-95150000D01*
X157900000Y-100850000D02*
X157900000Y-96250000D01*
X158585000Y-101535000D02*
X157900000Y-100850000D01*
X161400000Y-101535000D02*
X158585000Y-101535000D01*
X157000000Y-94350000D02*
X154650000Y-94350000D01*
X158400000Y-95750000D02*
X157000000Y-94350000D01*
X158400000Y-99800000D02*
X158400000Y-95750000D01*
X158865000Y-100265000D02*
X158400000Y-99800000D01*
X161400000Y-100265000D02*
X158865000Y-100265000D01*
X157150000Y-93550000D02*
X154650000Y-93550000D01*
X158950000Y-95350000D02*
X157150000Y-93550000D01*
X158950000Y-98450000D02*
X158950000Y-95350000D01*
X159495000Y-98995000D02*
X158950000Y-98450000D01*
X161400000Y-98995000D02*
X159495000Y-98995000D01*
X157650000Y-92750000D02*
X154650000Y-92750000D01*
X159450000Y-94550000D02*
X157650000Y-92750000D01*
X159450000Y-97000000D02*
X159450000Y-94550000D01*
X160175000Y-97725000D02*
X159450000Y-97000000D01*
X161400000Y-97725000D02*
X160175000Y-97725000D01*
X147150000Y-99174700D02*
X147150000Y-101050000D01*
X153574700Y-92750000D02*
X147150000Y-99174700D01*
X154650000Y-92750000D02*
X153574700Y-92750000D01*
X157550000Y-91950000D02*
X154650000Y-91950000D01*
X159950000Y-94350000D02*
X157550000Y-91950000D01*
X159950000Y-96230000D02*
X159950000Y-94350000D01*
X160175000Y-96455000D02*
X159950000Y-96230000D01*
X161400000Y-96455000D02*
X160175000Y-96455000D01*
X152830000Y-96985002D02*
X152830000Y-96360000D01*
X151150000Y-101050000D02*
X151150000Y-98665002D01*
X151150000Y-98665002D02*
X152830000Y-96985002D01*
X163055000Y-95185000D02*
X161400000Y-95185000D01*
X163130000Y-95260000D02*
X163055000Y-95185000D01*
X127800000Y-92750000D02*
X127800000Y-93850000D01*
X138850000Y-89550000D02*
X137550000Y-89550000D01*
X127850000Y-96050000D02*
X127800000Y-96100000D01*
X128650000Y-96050000D02*
X127850000Y-96050000D01*
X138850000Y-90350000D02*
X137700000Y-90350000D01*
X114950000Y-103150000D02*
X115700000Y-103150000D01*
X114100000Y-102300000D02*
X114950000Y-103150000D01*
X114100000Y-94800000D02*
X114100000Y-102300000D01*
X117550000Y-91350000D02*
X114100000Y-94800000D01*
X117550000Y-91341900D02*
X117550000Y-91350000D01*
X117956000Y-90935600D02*
X117550000Y-91341900D01*
X119017800Y-90935600D02*
X117956000Y-90935600D01*
X119018000Y-90935600D02*
X119017800Y-90935600D01*
D32*
X121024400Y-93424800D02*
X121024200Y-93424600D01*
X125550000Y-88899200D02*
X121024200Y-93424600D01*
X125550000Y-87750000D02*
X125550000Y-88899200D01*
X121024200Y-93424600D02*
X121024000Y-93424800D01*
D31*
X121024000Y-89874100D02*
X121024000Y-90404800D01*
X120700000Y-89550000D02*
X121024000Y-89874100D01*
X118050000Y-89550000D02*
X120700000Y-89550000D01*
X113600000Y-94000000D02*
X118050000Y-89550000D01*
X113600000Y-105000000D02*
X113600000Y-94000000D01*
X115200000Y-106600000D02*
X113600000Y-105000000D01*
X115800000Y-106600000D02*
X115200000Y-106600000D01*
X121024000Y-90404800D02*
X121024000Y-90935600D01*
X121024400Y-90405200D02*
X121024400Y-90935600D01*
X121024000Y-90404800D02*
X121024400Y-90405200D01*
X123650000Y-106775000D02*
X123650000Y-107950000D01*
X117700000Y-108150000D02*
X117700000Y-106600000D01*
X118450000Y-108900000D02*
X117700000Y-108150000D01*
X122700000Y-108900000D02*
X118450000Y-108900000D01*
X123650000Y-107950000D02*
X122700000Y-108900000D01*
X123000000Y-106775000D02*
X123000000Y-107750000D01*
X117600000Y-104350000D02*
X117600000Y-103150000D01*
X118750000Y-105500000D02*
X117600000Y-104350000D01*
X118750000Y-106200000D02*
X118750000Y-105500000D01*
X120650000Y-108100000D02*
X118750000Y-106200000D01*
X122650000Y-108100000D02*
X120650000Y-108100000D01*
X123000000Y-107750000D02*
X122650000Y-108100000D01*
X144120000Y-81470000D02*
X144120000Y-79970000D01*
X146350000Y-83700000D02*
X144120000Y-81470000D01*
X146350000Y-85250000D02*
X146350000Y-83700000D01*
X147950000Y-83250000D02*
X147950000Y-85250000D01*
X146660000Y-81960000D02*
X147950000Y-83250000D01*
X146660000Y-79970000D02*
X146660000Y-81960000D01*
X149200000Y-79820000D02*
X149061430Y-79820000D01*
X149200000Y-80218920D02*
X149200000Y-79820000D01*
X147150000Y-85250000D02*
X147150000Y-83600000D01*
X148750000Y-85250000D02*
X148750000Y-83790000D01*
X148750000Y-83790000D02*
X148740000Y-83780000D01*
X154280000Y-80456410D02*
X154280000Y-80218920D01*
X140215000Y-107045000D02*
X140215000Y-104465000D01*
X137900000Y-98350000D02*
X138850000Y-98350000D01*
X137390000Y-98860000D02*
X137900000Y-98350000D01*
X137390000Y-101640000D02*
X137390000Y-98860000D01*
X140215000Y-104465000D02*
X137390000Y-101640000D01*
X143965000Y-106995000D02*
X143965000Y-106675000D01*
X143965000Y-106675000D02*
X138850000Y-101560000D01*
X138850000Y-101560000D02*
X138850000Y-99150000D01*
X140750000Y-101050000D02*
X140750000Y-102420000D01*
X147415000Y-105385000D02*
X147415000Y-107045000D01*
X146130000Y-104100000D02*
X147415000Y-105385000D01*
X142430000Y-104100000D02*
X146130000Y-104100000D01*
X140750000Y-102420000D02*
X142430000Y-104100000D01*
D33*
G36*
X183690000Y-75026451D02*
X183690000Y-114490000D01*
X112226883Y-114490000D01*
X112219192Y-94000000D01*
X112840000Y-94000000D01*
X112840000Y-105000000D01*
X112897852Y-105290839D01*
X113062599Y-105537401D01*
X114662599Y-107137401D01*
X114802560Y-107230920D01*
X114802560Y-107250000D01*
X114849537Y-107492123D01*
X114989327Y-107704927D01*
X115200360Y-107847377D01*
X115450000Y-107897440D01*
X116150000Y-107897440D01*
X116392123Y-107850463D01*
X116604927Y-107710673D01*
X116747377Y-107499640D01*
X116749216Y-107490469D01*
X116749537Y-107492123D01*
X116889327Y-107704927D01*
X116940000Y-107739132D01*
X116940000Y-108150000D01*
X116997852Y-108440839D01*
X117162599Y-108687401D01*
X117912599Y-109437401D01*
X118159160Y-109602148D01*
X118450000Y-109660000D01*
X122700000Y-109660000D01*
X122990839Y-109602148D01*
X123237401Y-109437401D01*
X123302560Y-109372242D01*
X123302560Y-110550000D01*
X123349537Y-110792123D01*
X123489327Y-111004927D01*
X123700360Y-111147377D01*
X123950000Y-111197440D01*
X124650000Y-111197440D01*
X124892123Y-111150463D01*
X125104927Y-111010673D01*
X125247377Y-110799640D01*
X125249216Y-110790469D01*
X125249537Y-110792123D01*
X125389327Y-111004927D01*
X125600360Y-111147377D01*
X125850000Y-111197440D01*
X126550000Y-111197440D01*
X126792123Y-111150463D01*
X127004927Y-111010673D01*
X127147377Y-110799640D01*
X127197440Y-110550000D01*
X127197440Y-110525167D01*
X128144838Y-110525167D01*
X128286883Y-110868943D01*
X128549673Y-111132192D01*
X128893201Y-111274838D01*
X129077283Y-111274998D01*
X129100027Y-111392223D01*
X129239817Y-111605027D01*
X129450850Y-111747477D01*
X129700490Y-111797540D01*
X132700230Y-111797540D01*
X132942353Y-111750563D01*
X133155157Y-111610773D01*
X133297607Y-111399740D01*
X133347670Y-111150100D01*
X133347670Y-110635750D01*
X133464770Y-110635750D01*
X133464770Y-111276410D01*
X133561443Y-111509799D01*
X133740072Y-111688427D01*
X133973461Y-111785100D01*
X135313890Y-111785100D01*
X135472640Y-111626350D01*
X135472640Y-110477000D01*
X135726640Y-110477000D01*
X135726640Y-111626350D01*
X135885390Y-111785100D01*
X137225819Y-111785100D01*
X137459208Y-111688427D01*
X137637837Y-111509799D01*
X137734510Y-111276410D01*
X137734510Y-110635750D01*
X137575760Y-110477000D01*
X135726640Y-110477000D01*
X135472640Y-110477000D01*
X135472640Y-110477000D01*
X133623520Y-110477000D01*
X133464770Y-110635750D01*
X133347670Y-110635750D01*
X133347670Y-109549900D01*
X133323164Y-109423590D01*
X133464770Y-109423590D01*
X133464770Y-110064250D01*
X133623520Y-110223000D01*
X135472640Y-110223000D01*
X135472640Y-109073650D01*
X135726640Y-109073650D01*
X135726640Y-110223000D01*
X137575760Y-110223000D01*
X137734510Y-110064250D01*
X137734510Y-109423590D01*
X137637837Y-109190201D01*
X137459208Y-109011573D01*
X137225819Y-108914900D01*
X135885390Y-108914900D01*
X135726640Y-109073650D01*
X135472640Y-109073650D01*
X135472640Y-109073650D01*
X135313890Y-108914900D01*
X133973461Y-108914900D01*
X133740072Y-109011573D01*
X133561443Y-109190201D01*
X133464770Y-109423590D01*
X133323164Y-109423590D01*
X133300693Y-109307777D01*
X133160903Y-109094973D01*
X132949870Y-108952523D01*
X132700230Y-108902460D01*
X129700490Y-108902460D01*
X129458367Y-108949437D01*
X129245563Y-109089227D01*
X129103113Y-109300260D01*
X129082108Y-109405001D01*
X128894833Y-109404838D01*
X128551057Y-109546883D01*
X128287808Y-109809673D01*
X128145162Y-110153201D01*
X128144838Y-110525167D01*
X127197440Y-110525167D01*
X127197440Y-109250000D01*
X127150463Y-109007877D01*
X127010673Y-108795073D01*
X126960000Y-108760868D01*
X126960000Y-108194364D01*
X127100000Y-108222440D01*
X128100000Y-108222440D01*
X128342123Y-108175463D01*
X128554927Y-108035673D01*
X128599614Y-107969471D01*
X128639327Y-108029927D01*
X128850360Y-108172377D01*
X129100000Y-108222440D01*
X130100000Y-108222440D01*
X130342123Y-108175463D01*
X130554927Y-108035673D01*
X130690313Y-107835106D01*
X130755167Y-107835162D01*
X131098943Y-107693117D01*
X131362192Y-107430327D01*
X131504838Y-107086799D01*
X131505162Y-106714833D01*
X131363117Y-106371057D01*
X131100327Y-106107808D01*
X130756799Y-105965162D01*
X130623060Y-105965046D01*
X130560673Y-105870073D01*
X130349640Y-105727623D01*
X130100000Y-105677560D01*
X129100000Y-105677560D01*
X128857877Y-105724537D01*
X128645073Y-105864327D01*
X128600386Y-105930529D01*
X128560673Y-105870073D01*
X128349640Y-105727623D01*
X128100000Y-105677560D01*
X127100000Y-105677560D01*
X126857877Y-105724537D01*
X126645073Y-105864327D01*
X126592304Y-105942502D01*
X126372440Y-105722638D01*
X126372440Y-105575000D01*
X126345522Y-105436263D01*
X126360000Y-105401310D01*
X126360000Y-105346250D01*
X126284943Y-105271193D01*
X126185673Y-105120073D01*
X126157011Y-105100726D01*
X126179927Y-105085673D01*
X126287622Y-104926128D01*
X126360000Y-104853750D01*
X126360000Y-104798690D01*
X126344913Y-104762266D01*
X126372440Y-104625000D01*
X126372440Y-104275000D01*
X126342856Y-104122521D01*
X126372440Y-103975000D01*
X126372440Y-103625000D01*
X126325463Y-103382877D01*
X126185673Y-103170073D01*
X125974640Y-103027623D01*
X125725000Y-102977560D01*
X125135000Y-102977560D01*
X125135000Y-102850000D01*
X125122440Y-102786857D01*
X125122440Y-102375000D01*
X125075463Y-102132877D01*
X124935673Y-101920073D01*
X124724640Y-101777623D01*
X124475000Y-101727560D01*
X124125000Y-101727560D01*
X123972521Y-101757144D01*
X123926822Y-101747980D01*
X124214802Y-101460000D01*
X124923902Y-101460000D01*
X124949537Y-101592123D01*
X125089327Y-101804927D01*
X125300360Y-101947377D01*
X125550000Y-101997440D01*
X126250000Y-101997440D01*
X126492123Y-101950463D01*
X126704927Y-101810673D01*
X126847377Y-101599640D01*
X126849216Y-101590469D01*
X126849537Y-101592123D01*
X126989327Y-101804927D01*
X127200360Y-101947377D01*
X127450000Y-101997440D01*
X128150000Y-101997440D01*
X128392123Y-101950463D01*
X128604927Y-101810673D01*
X128747377Y-101599640D01*
X128764369Y-101514909D01*
X129055167Y-101515162D01*
X129398943Y-101373117D01*
X129662192Y-101110327D01*
X129804838Y-100766799D01*
X129805162Y-100394833D01*
X129697261Y-100133691D01*
X132570000Y-100133691D01*
X132570000Y-100474250D01*
X132728750Y-100633000D01*
X133703000Y-100633000D01*
X133703000Y-99783750D01*
X133957000Y-99783750D01*
X133957000Y-100633000D01*
X134931250Y-100633000D01*
X135060000Y-100504250D01*
X135078750Y-100523000D01*
X136053000Y-100523000D01*
X136053000Y-99673750D01*
X135894250Y-99515000D01*
X135428690Y-99515000D01*
X135195301Y-99611673D01*
X135016673Y-99790302D01*
X134977617Y-99884592D01*
X134814699Y-99721673D01*
X134581310Y-99625000D01*
X134115750Y-99625000D01*
X133957000Y-99783750D01*
X133703000Y-99783750D01*
X133703000Y-99783750D01*
X133544250Y-99625000D01*
X133078690Y-99625000D01*
X132845301Y-99721673D01*
X132666673Y-99900302D01*
X132570000Y-100133691D01*
X129697261Y-100133691D01*
X129663117Y-100051057D01*
X129400327Y-99787808D01*
X129056799Y-99645162D01*
X128684833Y-99644838D01*
X128652216Y-99658315D01*
X128610673Y-99595073D01*
X128582011Y-99575726D01*
X128604927Y-99560673D01*
X128689805Y-99434931D01*
X128955167Y-99435162D01*
X129298943Y-99293117D01*
X129562192Y-99030327D01*
X129704838Y-98686799D01*
X129705162Y-98314833D01*
X129563117Y-97971057D01*
X129300327Y-97707808D01*
X128956799Y-97565162D01*
X128751842Y-97564983D01*
X128750463Y-97557877D01*
X128610673Y-97345073D01*
X128506931Y-97275046D01*
X128604927Y-97210673D01*
X128747377Y-96999640D01*
X128750295Y-96985088D01*
X128835167Y-96985162D01*
X129178943Y-96843117D01*
X129442192Y-96580327D01*
X129584838Y-96236799D01*
X129585162Y-95864833D01*
X129443117Y-95521057D01*
X129180327Y-95257808D01*
X128836799Y-95115162D01*
X128689475Y-95115034D01*
X128610673Y-94995073D01*
X128582011Y-94975726D01*
X128604927Y-94960673D01*
X128747377Y-94749640D01*
X128797440Y-94500000D01*
X128797440Y-93200000D01*
X128750463Y-92957877D01*
X128734840Y-92934094D01*
X128735162Y-92564833D01*
X128625736Y-92300000D01*
X129614568Y-92300000D01*
X129720908Y-92834609D01*
X130023740Y-93287828D01*
X130446039Y-93570000D01*
X130023740Y-93852172D01*
X129720908Y-94305391D01*
X129614568Y-94840000D01*
X129720908Y-95374609D01*
X130023740Y-95827828D01*
X130476959Y-96130660D01*
X131011568Y-96237000D01*
X131550592Y-96237000D01*
X131643681Y-96218483D01*
X132612599Y-97187401D01*
X132859161Y-97352148D01*
X133150000Y-97410000D01*
X136637537Y-97410000D01*
X136669673Y-97442192D01*
X137013201Y-97584838D01*
X137385167Y-97585162D01*
X137452560Y-97557316D01*
X137452560Y-97752489D01*
X137362599Y-97812599D01*
X136852599Y-98322599D01*
X136687852Y-98569161D01*
X136630000Y-98860000D01*
X136630000Y-99515000D01*
X136465750Y-99515000D01*
X136307000Y-99673750D01*
X136307000Y-100523000D01*
X136327000Y-100523000D01*
X136327000Y-100777000D01*
X136307000Y-100777000D01*
X136307000Y-100797000D01*
X136053000Y-100797000D01*
X136053000Y-100777000D01*
X135078750Y-100777000D01*
X134950000Y-100905750D01*
X134931250Y-100887000D01*
X133957000Y-100887000D01*
X133957000Y-100907000D01*
X133703000Y-100907000D01*
X133703000Y-100887000D01*
X132728750Y-100887000D01*
X132570000Y-101045750D01*
X132570000Y-101386309D01*
X132666673Y-101619698D01*
X132808150Y-101761176D01*
X132750073Y-101799327D01*
X132607623Y-102010360D01*
X132557560Y-102260000D01*
X132557560Y-103260000D01*
X132604537Y-103502123D01*
X132744327Y-103714927D01*
X132955360Y-103857377D01*
X133205000Y-103907440D01*
X134455000Y-103907440D01*
X134697123Y-103860463D01*
X134909927Y-103720673D01*
X134933986Y-103685030D01*
X135085167Y-103685162D01*
X135164581Y-103652349D01*
X135305360Y-103747377D01*
X135555000Y-103797440D01*
X136805000Y-103797440D01*
X137047123Y-103750463D01*
X137259927Y-103610673D01*
X137402377Y-103399640D01*
X137452440Y-103150000D01*
X137452440Y-102777242D01*
X139455000Y-104779802D01*
X139455000Y-106068902D01*
X139322877Y-106094537D01*
X139110073Y-106234327D01*
X138967623Y-106445360D01*
X138917560Y-106695000D01*
X138917560Y-107395000D01*
X138964537Y-107637123D01*
X139104327Y-107849927D01*
X139315360Y-107992377D01*
X139324531Y-107994216D01*
X139322877Y-107994537D01*
X139110073Y-108134327D01*
X138967623Y-108345360D01*
X138917560Y-108595000D01*
X138917560Y-109295000D01*
X138964537Y-109537123D01*
X139047714Y-109663745D01*
X138992623Y-109745360D01*
X138942560Y-109995000D01*
X138942560Y-110995000D01*
X138989537Y-111237123D01*
X139129327Y-111449927D01*
X139195529Y-111494614D01*
X139135073Y-111534327D01*
X138992623Y-111745360D01*
X138942560Y-111995000D01*
X138942560Y-112995000D01*
X138989537Y-113237123D01*
X139129327Y-113449927D01*
X139340360Y-113592377D01*
X139590000Y-113642440D01*
X140840000Y-113642440D01*
X141082123Y-113595463D01*
X141294927Y-113455673D01*
X141430384Y-113255000D01*
X141552537Y-113255000D01*
X141584673Y-113287192D01*
X141928201Y-113429838D01*
X142300167Y-113430162D01*
X142643943Y-113288117D01*
X142677118Y-113255000D01*
X142784125Y-113255000D01*
X142879327Y-113399927D01*
X143090360Y-113542377D01*
X143340000Y-113592440D01*
X144590000Y-113592440D01*
X144832123Y-113545463D01*
X145044927Y-113405673D01*
X145180384Y-113205000D01*
X145382685Y-113205000D01*
X145499673Y-113322192D01*
X145843201Y-113464838D01*
X146215167Y-113465162D01*
X146261161Y-113446158D01*
X146329327Y-113549927D01*
X146540360Y-113692377D01*
X146790000Y-113742440D01*
X148040000Y-113742440D01*
X148282123Y-113695463D01*
X148494927Y-113555673D01*
X148637377Y-113344640D01*
X148687440Y-113095000D01*
X148687440Y-112095000D01*
X148640463Y-111852877D01*
X148500673Y-111640073D01*
X148434471Y-111595386D01*
X148494927Y-111555673D01*
X148637377Y-111344640D01*
X148683696Y-111113667D01*
X149502338Y-111113667D01*
X149644383Y-111457443D01*
X149907173Y-111720692D01*
X150250701Y-111863338D01*
X150622667Y-111863662D01*
X150718935Y-111823885D01*
X150739327Y-111854927D01*
X150950360Y-111997377D01*
X151200000Y-112047440D01*
X151772638Y-112047440D01*
X151972599Y-112247401D01*
X152219161Y-112412148D01*
X152510000Y-112470000D01*
X154198753Y-112470000D01*
X154219537Y-112577123D01*
X154359327Y-112789927D01*
X154570360Y-112932377D01*
X154820000Y-112982440D01*
X155820000Y-112982440D01*
X156062123Y-112935463D01*
X156274927Y-112795673D01*
X156319614Y-112729471D01*
X156359327Y-112789927D01*
X156570360Y-112932377D01*
X156820000Y-112982440D01*
X157820000Y-112982440D01*
X158062123Y-112935463D01*
X158274927Y-112795673D01*
X158377664Y-112643472D01*
X158453201Y-112674838D01*
X158825167Y-112675162D01*
X159168943Y-112533117D01*
X159432192Y-112270327D01*
X159574838Y-111926799D01*
X159575162Y-111554833D01*
X159433117Y-111211057D01*
X159170327Y-110947808D01*
X158826799Y-110805162D01*
X158454833Y-110804838D01*
X158408147Y-110824128D01*
X158280673Y-110630073D01*
X158069640Y-110487623D01*
X157820000Y-110437560D01*
X156820000Y-110437560D01*
X156577877Y-110484537D01*
X156365073Y-110624327D01*
X156320386Y-110690529D01*
X156280673Y-110630073D01*
X156069640Y-110487623D01*
X155820000Y-110437560D01*
X154820000Y-110437560D01*
X154577877Y-110484537D01*
X154365073Y-110624327D01*
X154222623Y-110835360D01*
X154199633Y-110950000D01*
X153147440Y-110950000D01*
X153147440Y-110700000D01*
X153100463Y-110457877D01*
X153007101Y-110315750D01*
X163985000Y-110315750D01*
X163985000Y-110781310D01*
X164081673Y-111014699D01*
X164260302Y-111193327D01*
X164493691Y-111290000D01*
X164834250Y-111290000D01*
X164993000Y-111131250D01*
X164993000Y-110157000D01*
X164143750Y-110157000D01*
X163985000Y-110315750D01*
X153007101Y-110315750D01*
X152960673Y-110245073D01*
X152749640Y-110102623D01*
X152719208Y-110096520D01*
X152859699Y-110038327D01*
X153038327Y-109859698D01*
X153135000Y-109626309D01*
X153135000Y-109435750D01*
X152977940Y-109278690D01*
X163985000Y-109278690D01*
X163985000Y-109744250D01*
X164143750Y-109903000D01*
X164993000Y-109903000D01*
X164993000Y-108928750D01*
X165247000Y-108928750D01*
X165247000Y-109903000D01*
X165267000Y-109903000D01*
X165267000Y-110157000D01*
X165247000Y-110157000D01*
X165247000Y-111131250D01*
X165405750Y-111290000D01*
X165746309Y-111290000D01*
X165979698Y-111193327D01*
X166121176Y-111051850D01*
X166159327Y-111109927D01*
X166370360Y-111252377D01*
X166620000Y-111302440D01*
X167620000Y-111302440D01*
X167862123Y-111255463D01*
X168074927Y-111115673D01*
X168172392Y-110971283D01*
X168253201Y-111004838D01*
X168625167Y-111005162D01*
X168968943Y-110863117D01*
X169232192Y-110600327D01*
X169374838Y-110256799D01*
X169375162Y-109884833D01*
X169233117Y-109541057D01*
X168970327Y-109277808D01*
X168626799Y-109135162D01*
X168254833Y-109134838D01*
X168213314Y-109151993D01*
X168080673Y-108950073D01*
X167869640Y-108807623D01*
X167620000Y-108757560D01*
X166620000Y-108757560D01*
X166377877Y-108804537D01*
X166165073Y-108944327D01*
X166121663Y-109008637D01*
X165979698Y-108866673D01*
X165746309Y-108770000D01*
X165405750Y-108770000D01*
X165247000Y-108928750D01*
X164993000Y-108928750D01*
X164993000Y-108928750D01*
X164834250Y-108770000D01*
X164493691Y-108770000D01*
X164260302Y-108866673D01*
X164081673Y-109045301D01*
X163985000Y-109278690D01*
X152977940Y-109278690D01*
X152976250Y-109277000D01*
X151977000Y-109277000D01*
X151977000Y-109297000D01*
X151723000Y-109297000D01*
X151723000Y-109277000D01*
X150723750Y-109277000D01*
X150565000Y-109435750D01*
X150565000Y-109626309D01*
X150661673Y-109859698D01*
X150840301Y-110038327D01*
X150978442Y-110095547D01*
X150957877Y-110099537D01*
X150927434Y-110119535D01*
X150624299Y-109993662D01*
X150252333Y-109993338D01*
X149908557Y-110135383D01*
X149645308Y-110398173D01*
X149502662Y-110741701D01*
X149502338Y-111113667D01*
X148683696Y-111113667D01*
X148687440Y-111095000D01*
X148687440Y-110095000D01*
X148640463Y-109852877D01*
X148548654Y-109713115D01*
X148662377Y-109544640D01*
X148712440Y-109295000D01*
X148712440Y-108673691D01*
X150565000Y-108673691D01*
X150565000Y-108864250D01*
X150723750Y-109023000D01*
X151723000Y-109023000D01*
X151723000Y-108323750D01*
X151977000Y-108323750D01*
X151977000Y-109023000D01*
X152976250Y-109023000D01*
X153135000Y-108864250D01*
X153135000Y-108673691D01*
X153038327Y-108440302D01*
X152859699Y-108261673D01*
X152626310Y-108165000D01*
X152135750Y-108165000D01*
X151977000Y-108323750D01*
X151723000Y-108323750D01*
X151723000Y-108323750D01*
X151564250Y-108165000D01*
X151073690Y-108165000D01*
X150840301Y-108261673D01*
X150661673Y-108440302D01*
X150565000Y-108673691D01*
X148712440Y-108673691D01*
X148712440Y-108595000D01*
X148665463Y-108352877D01*
X148525673Y-108140073D01*
X148314640Y-107997623D01*
X148305469Y-107995784D01*
X148307123Y-107995463D01*
X148519927Y-107855673D01*
X148662377Y-107644640D01*
X148712440Y-107395000D01*
X148712440Y-106900750D01*
X159790000Y-106900750D01*
X159790000Y-107041310D01*
X159886673Y-107274699D01*
X160065302Y-107453327D01*
X160298691Y-107550000D01*
X161114250Y-107550000D01*
X161273000Y-107391250D01*
X161273000Y-106742000D01*
X161527000Y-106742000D01*
X161527000Y-107391250D01*
X161685750Y-107550000D01*
X162501309Y-107550000D01*
X162734698Y-107453327D01*
X162913327Y-107274699D01*
X163010000Y-107041310D01*
X163010000Y-106900750D01*
X162851250Y-106742000D01*
X161527000Y-106742000D01*
X161273000Y-106742000D01*
X161273000Y-106742000D01*
X159948750Y-106742000D01*
X159790000Y-106900750D01*
X148712440Y-106900750D01*
X148712440Y-106695000D01*
X148665463Y-106452877D01*
X148525673Y-106240073D01*
X148314640Y-106097623D01*
X148175000Y-106069619D01*
X148175000Y-105385000D01*
X148120132Y-105109161D01*
X148117148Y-105094160D01*
X147952401Y-104847599D01*
X146667401Y-103562599D01*
X146420839Y-103397852D01*
X146130000Y-103340000D01*
X143825465Y-103340000D01*
X143971192Y-103194527D01*
X144059545Y-102981750D01*
X144239673Y-103162192D01*
X144583201Y-103304838D01*
X144955167Y-103305162D01*
X145298943Y-103163117D01*
X145562192Y-102900327D01*
X145704838Y-102556799D01*
X145704933Y-102447440D01*
X145850000Y-102447440D01*
X145951652Y-102427717D01*
X146050000Y-102447440D01*
X146650000Y-102447440D01*
X146751652Y-102427717D01*
X146850000Y-102447440D01*
X147450000Y-102447440D01*
X147551652Y-102427717D01*
X147650000Y-102447440D01*
X148250000Y-102447440D01*
X148351652Y-102427717D01*
X148450000Y-102447440D01*
X149050000Y-102447440D01*
X149151652Y-102427717D01*
X149250000Y-102447440D01*
X149850000Y-102447440D01*
X149951652Y-102427717D01*
X150050000Y-102447440D01*
X150650000Y-102447440D01*
X150751652Y-102427717D01*
X150850000Y-102447440D01*
X151450000Y-102447440D01*
X151551652Y-102427717D01*
X151650000Y-102447440D01*
X152250000Y-102447440D01*
X152351652Y-102427717D01*
X152450000Y-102447440D01*
X153050000Y-102447440D01*
X153292123Y-102400463D01*
X153504927Y-102260673D01*
X153647377Y-102049640D01*
X153697440Y-101800000D01*
X153697440Y-100300000D01*
X153650463Y-100057877D01*
X153638153Y-100039137D01*
X153650360Y-100047377D01*
X153900000Y-100097440D01*
X155340000Y-100097440D01*
X155340000Y-103600000D01*
X155397852Y-103890839D01*
X155562599Y-104137401D01*
X157307599Y-105882401D01*
X157554161Y-106047148D01*
X157845000Y-106105000D01*
X159824666Y-106105000D01*
X159790000Y-106188690D01*
X159790000Y-106329250D01*
X159948750Y-106488000D01*
X161273000Y-106488000D01*
X161273000Y-106468000D01*
X161527000Y-106468000D01*
X161527000Y-106488000D01*
X162851250Y-106488000D01*
X163010000Y-106329250D01*
X163010000Y-106188690D01*
X162920211Y-105971921D01*
X162972377Y-105894640D01*
X163022440Y-105645000D01*
X163022440Y-105045000D01*
X162975463Y-104802877D01*
X162914603Y-104710229D01*
X162972377Y-104624640D01*
X163022440Y-104375000D01*
X163022440Y-103775000D01*
X162975463Y-103532877D01*
X162914603Y-103440229D01*
X162972377Y-103354640D01*
X163022440Y-103105000D01*
X163022440Y-102505000D01*
X162975463Y-102262877D01*
X162914603Y-102170229D01*
X162972377Y-102084640D01*
X163022440Y-101835000D01*
X163022440Y-101235000D01*
X162975463Y-100992877D01*
X162914603Y-100900229D01*
X162972377Y-100814640D01*
X163022440Y-100565000D01*
X163022440Y-99965000D01*
X162975463Y-99722877D01*
X162914603Y-99630229D01*
X162972377Y-99544640D01*
X163022440Y-99295000D01*
X163022440Y-98695000D01*
X162975463Y-98452877D01*
X162914603Y-98360229D01*
X162972377Y-98274640D01*
X163022440Y-98025000D01*
X163022440Y-97425000D01*
X162975463Y-97182877D01*
X162914603Y-97090229D01*
X162972377Y-97004640D01*
X163022440Y-96755000D01*
X163022440Y-96687095D01*
X167714838Y-96687095D01*
X167856883Y-97030871D01*
X167890000Y-97064046D01*
X167890000Y-105690000D01*
X167947852Y-105980839D01*
X168112599Y-106227401D01*
X169037599Y-107152401D01*
X169284161Y-107317148D01*
X169336495Y-107327558D01*
X169364327Y-107369927D01*
X169575360Y-107512377D01*
X169825000Y-107562440D01*
X171775000Y-107562440D01*
X172017123Y-107515463D01*
X172229927Y-107375673D01*
X172372377Y-107164640D01*
X172422440Y-106915000D01*
X172422440Y-106315000D01*
X172382666Y-106110000D01*
X174750000Y-106110000D01*
X175040839Y-106052148D01*
X175287401Y-105887401D01*
X176114802Y-105060000D01*
X176722089Y-105060000D01*
X176634568Y-105500000D01*
X176740908Y-106034609D01*
X177043740Y-106487828D01*
X177466039Y-106770000D01*
X177043740Y-107052172D01*
X176740908Y-107505391D01*
X176634568Y-108040000D01*
X176740908Y-108574609D01*
X177043740Y-109027828D01*
X177496959Y-109330660D01*
X178031568Y-109437000D01*
X178570592Y-109437000D01*
X179105201Y-109330660D01*
X179558420Y-109027828D01*
X179820000Y-108636347D01*
X180081580Y-109027828D01*
X180534799Y-109330660D01*
X181069408Y-109437000D01*
X181608432Y-109437000D01*
X182143041Y-109330660D01*
X182596260Y-109027828D01*
X182899092Y-108574609D01*
X183005432Y-108040000D01*
X182899092Y-107505391D01*
X182596260Y-107052172D01*
X182173961Y-106770000D01*
X182596260Y-106487828D01*
X182899092Y-106034609D01*
X183005432Y-105500000D01*
X182899092Y-104965391D01*
X182596260Y-104512172D01*
X182173961Y-104230000D01*
X182596260Y-103947828D01*
X182899092Y-103494609D01*
X183005432Y-102960000D01*
X182899092Y-102425391D01*
X182596260Y-101972172D01*
X182173961Y-101690000D01*
X182596260Y-101407828D01*
X182899092Y-100954609D01*
X183005432Y-100420000D01*
X182899092Y-99885391D01*
X182596260Y-99432172D01*
X182173961Y-99150000D01*
X182596260Y-98867828D01*
X182899092Y-98414609D01*
X183005432Y-97880000D01*
X182899092Y-97345391D01*
X182596260Y-96892172D01*
X182173961Y-96610000D01*
X182596260Y-96327828D01*
X182899092Y-95874609D01*
X183005432Y-95340000D01*
X182899092Y-94805391D01*
X182596260Y-94352172D01*
X182173961Y-94070000D01*
X182596260Y-93787828D01*
X182899092Y-93334609D01*
X183005432Y-92800000D01*
X182899092Y-92265391D01*
X182596260Y-91812172D01*
X182173961Y-91530000D01*
X182596260Y-91247828D01*
X182899092Y-90794609D01*
X183005432Y-90260000D01*
X182899092Y-89725391D01*
X182596260Y-89272172D01*
X182173961Y-88990000D01*
X182596260Y-88707828D01*
X182899092Y-88254609D01*
X183005432Y-87720000D01*
X182899092Y-87185391D01*
X182596260Y-86732172D01*
X182173961Y-86450000D01*
X182596260Y-86167828D01*
X182899092Y-85714609D01*
X183005432Y-85180000D01*
X182899092Y-84645391D01*
X182596260Y-84192172D01*
X182173961Y-83910000D01*
X182596260Y-83627828D01*
X182899092Y-83174609D01*
X183005432Y-82640000D01*
X182899092Y-82105391D01*
X182596260Y-81652172D01*
X182173961Y-81370000D01*
X182596260Y-81087828D01*
X182899092Y-80634609D01*
X183005432Y-80100000D01*
X182899092Y-79565391D01*
X182596260Y-79112172D01*
X182143041Y-78809340D01*
X181608432Y-78703000D01*
X181069408Y-78703000D01*
X180534799Y-78809340D01*
X180081580Y-79112172D01*
X179944112Y-79317907D01*
X179901033Y-79095877D01*
X179761243Y-78883073D01*
X179550210Y-78740623D01*
X179300570Y-78690560D01*
X177301590Y-78690560D01*
X177059467Y-78737537D01*
X176846663Y-78877327D01*
X176704213Y-79088360D01*
X176654150Y-79338000D01*
X176654150Y-79340000D01*
X174310000Y-79340000D01*
X174019161Y-79397852D01*
X173772599Y-79562599D01*
X172540198Y-80795000D01*
X172520326Y-80795000D01*
X172562440Y-80585000D01*
X172562440Y-79985000D01*
X172515463Y-79742877D01*
X172375673Y-79530073D01*
X172164640Y-79387623D01*
X171915000Y-79337560D01*
X171834951Y-79337560D01*
X171835162Y-79094833D01*
X171693117Y-78751057D01*
X171430327Y-78487808D01*
X171086799Y-78345162D01*
X170714833Y-78344838D01*
X170371057Y-78486883D01*
X170107808Y-78749673D01*
X169965162Y-79093201D01*
X169964949Y-79337570D01*
X169722877Y-79384537D01*
X169510073Y-79524327D01*
X169367623Y-79735360D01*
X169317560Y-79985000D01*
X169317560Y-80585000D01*
X169364537Y-80827123D01*
X169425397Y-80919771D01*
X169367623Y-81005360D01*
X169317560Y-81255000D01*
X169317560Y-81855000D01*
X169364537Y-82097123D01*
X169425397Y-82189771D01*
X169367623Y-82275360D01*
X169317560Y-82525000D01*
X169317560Y-83125000D01*
X169364537Y-83367123D01*
X169425397Y-83459771D01*
X169367623Y-83545360D01*
X169317560Y-83795000D01*
X169317560Y-84395000D01*
X169364537Y-84637123D01*
X169425397Y-84729771D01*
X169367623Y-84815360D01*
X169317560Y-85065000D01*
X169317560Y-85665000D01*
X169364537Y-85907123D01*
X169425397Y-85999771D01*
X169367623Y-86085360D01*
X169317560Y-86335000D01*
X169317560Y-86935000D01*
X169364537Y-87177123D01*
X169425397Y-87269771D01*
X169367623Y-87355360D01*
X169317560Y-87605000D01*
X169317560Y-88205000D01*
X169364537Y-88447123D01*
X169425397Y-88539771D01*
X169367623Y-88625360D01*
X169317560Y-88875000D01*
X169317560Y-89475000D01*
X169364537Y-89717123D01*
X169425397Y-89809771D01*
X169367623Y-89895360D01*
X169317560Y-90145000D01*
X169317560Y-90745000D01*
X169364537Y-90987123D01*
X169394470Y-91032690D01*
X169177599Y-91177599D01*
X168112599Y-92242599D01*
X167947852Y-92489161D01*
X167890000Y-92780000D01*
X167890000Y-95939465D01*
X167857808Y-95971601D01*
X167715162Y-96315129D01*
X167714838Y-96687095D01*
X163022440Y-96687095D01*
X163022440Y-96194907D01*
X163315167Y-96195162D01*
X163658943Y-96053117D01*
X163922192Y-95790327D01*
X164064838Y-95446799D01*
X164065162Y-95074833D01*
X163923117Y-94731057D01*
X163660327Y-94467808D01*
X163316799Y-94325162D01*
X162944833Y-94324838D01*
X162780416Y-94392774D01*
X162624640Y-94287623D01*
X162375000Y-94237560D01*
X160687634Y-94237560D01*
X160652148Y-94059161D01*
X160487401Y-93812599D01*
X158675552Y-92000750D01*
X159930000Y-92000750D01*
X159930000Y-92141310D01*
X160026673Y-92374699D01*
X160205302Y-92553327D01*
X160438691Y-92650000D01*
X161254250Y-92650000D01*
X161413000Y-92491250D01*
X161413000Y-91842000D01*
X161667000Y-91842000D01*
X161667000Y-92491250D01*
X161825750Y-92650000D01*
X162641309Y-92650000D01*
X162874698Y-92553327D01*
X163053327Y-92374699D01*
X163150000Y-92141310D01*
X163150000Y-92000750D01*
X162991250Y-91842000D01*
X161667000Y-91842000D01*
X161413000Y-91842000D01*
X161413000Y-91842000D01*
X160088750Y-91842000D01*
X159930000Y-92000750D01*
X158675552Y-92000750D01*
X158087401Y-91412599D01*
X157840839Y-91247852D01*
X157550000Y-91190000D01*
X156047440Y-91190000D01*
X156047440Y-91110000D01*
X160004016Y-91110000D01*
X159930000Y-91288690D01*
X159930000Y-91429250D01*
X160088750Y-91588000D01*
X161413000Y-91588000D01*
X161413000Y-91568000D01*
X161667000Y-91568000D01*
X161667000Y-91588000D01*
X162991250Y-91588000D01*
X163150000Y-91429250D01*
X163150000Y-91288690D01*
X163060211Y-91071921D01*
X163112377Y-90994640D01*
X163162440Y-90745000D01*
X163162440Y-90710541D01*
X163293201Y-90764838D01*
X163665167Y-90765162D01*
X164008943Y-90623117D01*
X164272192Y-90360327D01*
X164414838Y-90016799D01*
X164415162Y-89644833D01*
X164273117Y-89301057D01*
X164240000Y-89267882D01*
X164240000Y-80970000D01*
X164218517Y-80862000D01*
X164182148Y-80679160D01*
X164017401Y-80432599D01*
X163332401Y-79747599D01*
X163085839Y-79582852D01*
X162998996Y-79565578D01*
X162975673Y-79530073D01*
X162764640Y-79387623D01*
X162515000Y-79337560D01*
X160565000Y-79337560D01*
X160322877Y-79384537D01*
X160110073Y-79524327D01*
X159967623Y-79735360D01*
X159917560Y-79985000D01*
X159917560Y-80585000D01*
X159958304Y-80795000D01*
X159515000Y-80795000D01*
X159224161Y-80852852D01*
X158977599Y-81017599D01*
X158475198Y-81520000D01*
X156750000Y-81520000D01*
X156459161Y-81577852D01*
X156212599Y-81742599D01*
X155505198Y-82450000D01*
X152050000Y-82450000D01*
X151759160Y-82507852D01*
X151512599Y-82672599D01*
X150612599Y-83572599D01*
X150447852Y-83819161D01*
X150405408Y-84032538D01*
X150395073Y-84039327D01*
X150350386Y-84105529D01*
X150310673Y-84045073D01*
X150106511Y-83907261D01*
X150064250Y-83865000D01*
X149923690Y-83865000D01*
X149919887Y-83866575D01*
X149850000Y-83852560D01*
X149674938Y-83852560D01*
X149675162Y-83594833D01*
X149533117Y-83251057D01*
X149270327Y-82987808D01*
X148926799Y-82845162D01*
X148575772Y-82844856D01*
X148575760Y-82844838D01*
X148487401Y-82712598D01*
X147420000Y-81645198D01*
X147420000Y-81628490D01*
X147647828Y-81476260D01*
X147930000Y-81053961D01*
X148212172Y-81476260D01*
X148665391Y-81779092D01*
X149200000Y-81885432D01*
X149734609Y-81779092D01*
X150187828Y-81476260D01*
X150470000Y-81053961D01*
X150752172Y-81476260D01*
X151205391Y-81779092D01*
X151740000Y-81885432D01*
X152274609Y-81779092D01*
X152727828Y-81476260D01*
X153010000Y-81053961D01*
X153292172Y-81476260D01*
X153745391Y-81779092D01*
X154280000Y-81885432D01*
X154814609Y-81779092D01*
X155267828Y-81476260D01*
X155570660Y-81023041D01*
X155677000Y-80488432D01*
X155677000Y-79949408D01*
X155570660Y-79414799D01*
X155267828Y-78961580D01*
X154876347Y-78700000D01*
X155267828Y-78438420D01*
X155570660Y-77985201D01*
X155596525Y-77855167D01*
X162794838Y-77855167D01*
X162936883Y-78198943D01*
X163199673Y-78462192D01*
X163543201Y-78604838D01*
X163915167Y-78605162D01*
X163932399Y-78598042D01*
X163999327Y-78699927D01*
X164210360Y-78842377D01*
X164460000Y-78892440D01*
X165460000Y-78892440D01*
X165702123Y-78845463D01*
X165914927Y-78705673D01*
X165958337Y-78641363D01*
X166100302Y-78783327D01*
X166333691Y-78880000D01*
X166674250Y-78880000D01*
X166833000Y-78721250D01*
X166833000Y-77747000D01*
X167087000Y-77747000D01*
X167087000Y-78721250D01*
X167245750Y-78880000D01*
X167586309Y-78880000D01*
X167819698Y-78783327D01*
X167998327Y-78604699D01*
X168095000Y-78371310D01*
X168095000Y-77905750D01*
X167936250Y-77747000D01*
X167087000Y-77747000D01*
X166833000Y-77747000D01*
X166833000Y-77747000D01*
X166813000Y-77747000D01*
X166813000Y-77493000D01*
X166833000Y-77493000D01*
X166833000Y-76518750D01*
X167087000Y-76518750D01*
X167087000Y-77493000D01*
X167936250Y-77493000D01*
X168095000Y-77334250D01*
X168095000Y-76868690D01*
X167998327Y-76635301D01*
X167819698Y-76456673D01*
X167586309Y-76360000D01*
X167245750Y-76360000D01*
X167087000Y-76518750D01*
X166833000Y-76518750D01*
X166833000Y-76518750D01*
X166674250Y-76360000D01*
X166333691Y-76360000D01*
X166100302Y-76456673D01*
X165958824Y-76598150D01*
X165920673Y-76540073D01*
X165709640Y-76397623D01*
X165460000Y-76347560D01*
X164460000Y-76347560D01*
X164217877Y-76394537D01*
X164005073Y-76534327D01*
X163869535Y-76735121D01*
X163544833Y-76734838D01*
X163201057Y-76876883D01*
X162937808Y-77139673D01*
X162795162Y-77483201D01*
X162794838Y-77855167D01*
X155596525Y-77855167D01*
X155677000Y-77450592D01*
X155677000Y-76911568D01*
X155570660Y-76376959D01*
X155267828Y-75923740D01*
X154814609Y-75620908D01*
X154280000Y-75514568D01*
X153745391Y-75620908D01*
X153292172Y-75923740D01*
X153010000Y-76346039D01*
X152727828Y-75923740D01*
X152274609Y-75620908D01*
X151740000Y-75514568D01*
X151205391Y-75620908D01*
X150752172Y-75923740D01*
X150470000Y-76346039D01*
X150187828Y-75923740D01*
X149734609Y-75620908D01*
X149200000Y-75514568D01*
X148665391Y-75620908D01*
X148212172Y-75923740D01*
X147926226Y-76351688D01*
X147913135Y-76305253D01*
X147573465Y-75874290D01*
X147094728Y-75606118D01*
X147003070Y-75589370D01*
X146787000Y-75711870D01*
X146787000Y-77054080D01*
X146807000Y-77054080D01*
X146807000Y-77308080D01*
X146787000Y-77308080D01*
X146787000Y-77328080D01*
X146533000Y-77328080D01*
X146533000Y-77308080D01*
X146513000Y-77308080D01*
X146513000Y-77054080D01*
X146533000Y-77054080D01*
X146533000Y-75711870D01*
X146316930Y-75589370D01*
X146225272Y-75606118D01*
X145746535Y-75874290D01*
X145406865Y-76305253D01*
X145393774Y-76351688D01*
X145107828Y-75923740D01*
X144654609Y-75620908D01*
X144120000Y-75514568D01*
X143585391Y-75620908D01*
X143132172Y-75923740D01*
X142829340Y-76376959D01*
X142723000Y-76911568D01*
X142723000Y-77450592D01*
X142829340Y-77985201D01*
X143132172Y-78438420D01*
X143337907Y-78575888D01*
X143115877Y-78618967D01*
X142903073Y-78758757D01*
X142760623Y-78969790D01*
X142710560Y-79219430D01*
X142710560Y-81218410D01*
X142757537Y-81460533D01*
X142897327Y-81673337D01*
X143108360Y-81815787D01*
X143358000Y-81865850D01*
X143488018Y-81865850D01*
X143582599Y-82007401D01*
X145427758Y-83852560D01*
X145250000Y-83852560D01*
X145148348Y-83872283D01*
X145050000Y-83852560D01*
X144450000Y-83852560D01*
X144348348Y-83872283D01*
X144250000Y-83852560D01*
X143650000Y-83852560D01*
X143548348Y-83872283D01*
X143450000Y-83852560D01*
X143110000Y-83852560D01*
X143110000Y-83250000D01*
X143052148Y-82959161D01*
X142887401Y-82712599D01*
X142310250Y-82135448D01*
X142347440Y-81950000D01*
X142347440Y-81250000D01*
X142300463Y-81007877D01*
X142160673Y-80795073D01*
X141949640Y-80652623D01*
X141919208Y-80646520D01*
X142059699Y-80588327D01*
X142238327Y-80409698D01*
X142335000Y-80176309D01*
X142335000Y-79985750D01*
X142176250Y-79827000D01*
X141177000Y-79827000D01*
X141177000Y-79847000D01*
X140923000Y-79847000D01*
X140923000Y-79827000D01*
X139923750Y-79827000D01*
X139765000Y-79985750D01*
X139765000Y-80176309D01*
X139861673Y-80409698D01*
X140040301Y-80588327D01*
X140178442Y-80645547D01*
X140157877Y-80649537D01*
X139945073Y-80789327D01*
X139802623Y-81000360D01*
X139752560Y-81250000D01*
X139752560Y-81950000D01*
X139799537Y-82192123D01*
X139939327Y-82404927D01*
X140150360Y-82547377D01*
X140400000Y-82597440D01*
X140622638Y-82597440D01*
X141590000Y-83564802D01*
X141590000Y-83852560D01*
X141250000Y-83852560D01*
X141179364Y-83866265D01*
X141176310Y-83865000D01*
X141035750Y-83865000D01*
X140988454Y-83912296D01*
X140795073Y-84039327D01*
X140652623Y-84250360D01*
X140623000Y-84398076D01*
X140623000Y-84023750D01*
X140464250Y-83865000D01*
X140323690Y-83865000D01*
X140090301Y-83961673D01*
X139911673Y-84140302D01*
X139815000Y-84373691D01*
X139815000Y-84964250D01*
X139973750Y-85123000D01*
X140602560Y-85123000D01*
X140602560Y-85377000D01*
X139973750Y-85377000D01*
X139815000Y-85535750D01*
X139815000Y-86126309D01*
X139874183Y-86269190D01*
X139849640Y-86252623D01*
X139600000Y-86202560D01*
X138100000Y-86202560D01*
X137857877Y-86249537D01*
X137645073Y-86389327D01*
X137502623Y-86600360D01*
X137452560Y-86850000D01*
X137452560Y-87190000D01*
X137200000Y-87190000D01*
X136909161Y-87247852D01*
X136662599Y-87412599D01*
X136012599Y-88062599D01*
X135847852Y-88309161D01*
X135790000Y-88600000D01*
X135790000Y-89139823D01*
X135625710Y-88846535D01*
X135194747Y-88506865D01*
X134666602Y-88357973D01*
X134445920Y-88516746D01*
X134445920Y-89633000D01*
X134465920Y-89633000D01*
X134465920Y-89887000D01*
X134445920Y-89887000D01*
X134445920Y-89907000D01*
X134191920Y-89907000D01*
X134191920Y-89887000D01*
X134171920Y-89887000D01*
X134171920Y-89633000D01*
X134191920Y-89633000D01*
X134191920Y-88516746D01*
X133971238Y-88357973D01*
X133443093Y-88506865D01*
X133012130Y-88846535D01*
X132927823Y-88997038D01*
X132881033Y-88755877D01*
X132741243Y-88543073D01*
X132530210Y-88400623D01*
X132280570Y-88350560D01*
X130281590Y-88350560D01*
X130039467Y-88397537D01*
X129826663Y-88537327D01*
X129684213Y-88748360D01*
X129634150Y-88998000D01*
X129634150Y-90522000D01*
X129681127Y-90764123D01*
X129820917Y-90976927D01*
X130031950Y-91119377D01*
X130247565Y-91162617D01*
X130023740Y-91312172D01*
X129720908Y-91765391D01*
X129614568Y-92300000D01*
X128625736Y-92300000D01*
X128593117Y-92221057D01*
X128330327Y-91957808D01*
X127986799Y-91815162D01*
X127614833Y-91814838D01*
X127271057Y-91956883D01*
X127007808Y-92219673D01*
X126865162Y-92563201D01*
X126864841Y-92932260D01*
X126852623Y-92950360D01*
X126850784Y-92959531D01*
X126850463Y-92957877D01*
X126710673Y-92745073D01*
X126499640Y-92602623D01*
X126250000Y-92552560D01*
X125550000Y-92552560D01*
X125307877Y-92599537D01*
X125095073Y-92739327D01*
X124952623Y-92950360D01*
X124902560Y-93200000D01*
X124902560Y-94500000D01*
X124949537Y-94742123D01*
X125089327Y-94954927D01*
X125117989Y-94974274D01*
X125095073Y-94989327D01*
X124952623Y-95200360D01*
X124924619Y-95340000D01*
X123600000Y-95340000D01*
X123309160Y-95397852D01*
X123062599Y-95562599D01*
X118912599Y-99712599D01*
X118747852Y-99959161D01*
X118690000Y-100250000D01*
X118690000Y-104365198D01*
X118477686Y-104152884D01*
X118547377Y-104049640D01*
X118597440Y-103800000D01*
X118597440Y-102500000D01*
X118550463Y-102257877D01*
X118410673Y-102045073D01*
X118199640Y-101902623D01*
X117950000Y-101852560D01*
X117250000Y-101852560D01*
X117007877Y-101899537D01*
X116795073Y-102039327D01*
X116652623Y-102250360D01*
X116650784Y-102259531D01*
X116650463Y-102257877D01*
X116510673Y-102045073D01*
X116299640Y-101902623D01*
X116050000Y-101852560D01*
X115350000Y-101852560D01*
X115107877Y-101899537D01*
X114906574Y-102031772D01*
X114860000Y-101985198D01*
X114860000Y-100133416D01*
X114947208Y-100220776D01*
X115823501Y-100584645D01*
X116772336Y-100585473D01*
X117649263Y-100223134D01*
X118320776Y-99552792D01*
X118684645Y-98676499D01*
X118685473Y-97727664D01*
X118323134Y-96850737D01*
X117652792Y-96179224D01*
X116776499Y-95815355D01*
X115827664Y-95814527D01*
X114950737Y-96176866D01*
X114860000Y-96267445D01*
X114860000Y-95114802D01*
X118048745Y-91926057D01*
X118231913Y-92109544D01*
X118401860Y-92180112D01*
X118233963Y-92249486D01*
X117843856Y-92638913D01*
X117632471Y-93147984D01*
X117631990Y-93699198D01*
X117842486Y-94208637D01*
X118231913Y-94598744D01*
X118740984Y-94810129D01*
X119292198Y-94810610D01*
X119801637Y-94600114D01*
X120021141Y-94380993D01*
X120238513Y-94598744D01*
X120747584Y-94810129D01*
X121298798Y-94810610D01*
X121808237Y-94600114D01*
X122198344Y-94210687D01*
X122409729Y-93701616D01*
X122409903Y-93502666D01*
X126281823Y-89631088D01*
X126281835Y-89631070D01*
X126281856Y-89631056D01*
X126398462Y-89456542D01*
X126506197Y-89295320D01*
X126506202Y-89295297D01*
X126506215Y-89295277D01*
X126544185Y-89104390D01*
X126585001Y-88899246D01*
X126584996Y-88899220D01*
X126585000Y-88899200D01*
X126585000Y-88847440D01*
X126800000Y-88847440D01*
X127042123Y-88800463D01*
X127254927Y-88660673D01*
X127397377Y-88449640D01*
X127447440Y-88200000D01*
X127447440Y-87300000D01*
X127400463Y-87057877D01*
X127260673Y-86845073D01*
X127049640Y-86702623D01*
X126800000Y-86652560D01*
X124300000Y-86652560D01*
X124057877Y-86699537D01*
X123845073Y-86839327D01*
X123702623Y-87050360D01*
X123652560Y-87300000D01*
X123652560Y-88200000D01*
X123699537Y-88442123D01*
X123839327Y-88654927D01*
X124050360Y-88797377D01*
X124165054Y-88820378D01*
X122385025Y-90600249D01*
X122199714Y-90151763D01*
X121810287Y-89761656D01*
X121757253Y-89739634D01*
X121754420Y-89725391D01*
X121726193Y-89583369D01*
X121726160Y-89583319D01*
X121726148Y-89583261D01*
X121644408Y-89460928D01*
X121561484Y-89336782D01*
X121237484Y-89012682D01*
X121237434Y-89012649D01*
X121237401Y-89012599D01*
X121114861Y-88930721D01*
X120990948Y-88847897D01*
X120990889Y-88847885D01*
X120990839Y-88847852D01*
X120845391Y-88818920D01*
X120700117Y-88790000D01*
X120700058Y-88790012D01*
X120700000Y-88790000D01*
X118050000Y-88790000D01*
X117759160Y-88847852D01*
X117512599Y-89012599D01*
X113062599Y-93462599D01*
X112897852Y-93709161D01*
X112840000Y-94000000D01*
X112219192Y-94000000D01*
X112216427Y-86632736D01*
X113914527Y-86632736D01*
X114276866Y-87509663D01*
X114947208Y-88181176D01*
X115823501Y-88545045D01*
X116772336Y-88545873D01*
X117649263Y-88183534D01*
X118320776Y-87513192D01*
X118684645Y-86636899D01*
X118685473Y-85688064D01*
X118457262Y-85135750D01*
X123665000Y-85135750D01*
X123665000Y-85426309D01*
X123761673Y-85659698D01*
X123940301Y-85838327D01*
X124173690Y-85935000D01*
X125264250Y-85935000D01*
X125423000Y-85776250D01*
X125423000Y-84977000D01*
X125677000Y-84977000D01*
X125677000Y-85776250D01*
X125835750Y-85935000D01*
X126926310Y-85935000D01*
X127159699Y-85838327D01*
X127338327Y-85659698D01*
X127435000Y-85426309D01*
X127435000Y-85135750D01*
X127276250Y-84977000D01*
X125677000Y-84977000D01*
X125423000Y-84977000D01*
X125423000Y-84977000D01*
X123823750Y-84977000D01*
X123665000Y-85135750D01*
X118457262Y-85135750D01*
X118323134Y-84811137D01*
X117786626Y-84273691D01*
X123665000Y-84273691D01*
X123665000Y-84564250D01*
X123823750Y-84723000D01*
X125423000Y-84723000D01*
X125423000Y-83923750D01*
X125677000Y-83923750D01*
X125677000Y-84723000D01*
X127276250Y-84723000D01*
X127435000Y-84564250D01*
X127435000Y-84273691D01*
X127338327Y-84040302D01*
X127159699Y-83861673D01*
X126926310Y-83765000D01*
X125835750Y-83765000D01*
X125677000Y-83923750D01*
X125423000Y-83923750D01*
X125423000Y-83923750D01*
X125264250Y-83765000D01*
X124173690Y-83765000D01*
X123940301Y-83861673D01*
X123761673Y-84040302D01*
X123665000Y-84273691D01*
X117786626Y-84273691D01*
X117652792Y-84139624D01*
X116776499Y-83775755D01*
X115827664Y-83774927D01*
X114950737Y-84137266D01*
X114279224Y-84807608D01*
X113915355Y-85683901D01*
X113914527Y-86632736D01*
X112216427Y-86632736D01*
X112214504Y-81509770D01*
X129772460Y-81509770D01*
X129772460Y-84509510D01*
X129819437Y-84751633D01*
X129959227Y-84964437D01*
X130170260Y-85106887D01*
X130312387Y-85135389D01*
X130255162Y-85273201D01*
X130254838Y-85645167D01*
X130396883Y-85988943D01*
X130659673Y-86252192D01*
X131003201Y-86394838D01*
X131375167Y-86395162D01*
X131718943Y-86253117D01*
X131982192Y-85990327D01*
X132124838Y-85646799D01*
X132125162Y-85274833D01*
X132072271Y-85146828D01*
X132262223Y-85109973D01*
X132475027Y-84970183D01*
X132617477Y-84759150D01*
X132634202Y-84675750D01*
X135650000Y-84675750D01*
X135650000Y-85016309D01*
X135746673Y-85249698D01*
X135925301Y-85428327D01*
X136158690Y-85525000D01*
X136624250Y-85525000D01*
X136783000Y-85366250D01*
X136783000Y-84517000D01*
X137037000Y-84517000D01*
X137037000Y-85366250D01*
X137195750Y-85525000D01*
X137661310Y-85525000D01*
X137894699Y-85428327D01*
X138073327Y-85249698D01*
X138170000Y-85016309D01*
X138170000Y-84675750D01*
X138011250Y-84517000D01*
X137037000Y-84517000D01*
X136783000Y-84517000D01*
X136783000Y-84517000D01*
X135808750Y-84517000D01*
X135650000Y-84675750D01*
X132634202Y-84675750D01*
X132667540Y-84509510D01*
X132667540Y-81890000D01*
X135637560Y-81890000D01*
X135637560Y-82890000D01*
X135684537Y-83132123D01*
X135824327Y-83344927D01*
X135888637Y-83388337D01*
X135746673Y-83530302D01*
X135650000Y-83763691D01*
X135650000Y-84104250D01*
X135808750Y-84263000D01*
X136783000Y-84263000D01*
X136783000Y-84243000D01*
X137037000Y-84243000D01*
X137037000Y-84263000D01*
X138011250Y-84263000D01*
X138170000Y-84104250D01*
X138170000Y-83763691D01*
X138073327Y-83530302D01*
X137931850Y-83388824D01*
X137989927Y-83350673D01*
X138132377Y-83139640D01*
X138182440Y-82890000D01*
X138182440Y-81890000D01*
X138135463Y-81647877D01*
X137995673Y-81435073D01*
X137861608Y-81344577D01*
X137864838Y-81336799D01*
X137865162Y-80964833D01*
X137723117Y-80621057D01*
X137460327Y-80357808D01*
X137116799Y-80215162D01*
X136744833Y-80214838D01*
X136401057Y-80356883D01*
X136137808Y-80619673D01*
X135995162Y-80963201D01*
X135994850Y-81321086D01*
X135830073Y-81429327D01*
X135687623Y-81640360D01*
X135637560Y-81890000D01*
X132667540Y-81890000D01*
X132667540Y-81509770D01*
X132620563Y-81267647D01*
X132480773Y-81054843D01*
X132269740Y-80912393D01*
X132020100Y-80862330D01*
X130419900Y-80862330D01*
X130177777Y-80909307D01*
X129964973Y-81049097D01*
X129822523Y-81260130D01*
X129772460Y-81509770D01*
X112214504Y-81509770D01*
X112213523Y-78896110D01*
X129784900Y-78896110D01*
X129784900Y-80236539D01*
X129881573Y-80469928D01*
X130060201Y-80648557D01*
X130293590Y-80745230D01*
X130934250Y-80745230D01*
X131093000Y-80586480D01*
X131093000Y-78737360D01*
X131347000Y-78737360D01*
X131347000Y-80586480D01*
X131505750Y-80745230D01*
X132146410Y-80745230D01*
X132379799Y-80648557D01*
X132558427Y-80469928D01*
X132655100Y-80236539D01*
X132655100Y-79223691D01*
X139765000Y-79223691D01*
X139765000Y-79414250D01*
X139923750Y-79573000D01*
X140923000Y-79573000D01*
X140923000Y-78873750D01*
X141177000Y-78873750D01*
X141177000Y-79573000D01*
X142176250Y-79573000D01*
X142335000Y-79414250D01*
X142335000Y-79223691D01*
X142238327Y-78990302D01*
X142059699Y-78811673D01*
X141826310Y-78715000D01*
X141335750Y-78715000D01*
X141177000Y-78873750D01*
X140923000Y-78873750D01*
X140923000Y-78873750D01*
X140764250Y-78715000D01*
X140273690Y-78715000D01*
X140040301Y-78811673D01*
X139861673Y-78990302D01*
X139765000Y-79223691D01*
X132655100Y-79223691D01*
X132655100Y-78896110D01*
X132496350Y-78737360D01*
X131347000Y-78737360D01*
X131093000Y-78737360D01*
X131093000Y-78737360D01*
X129943650Y-78737360D01*
X129784900Y-78896110D01*
X112213523Y-78896110D01*
X112212805Y-76984181D01*
X129784900Y-76984181D01*
X129784900Y-78324610D01*
X129943650Y-78483360D01*
X131093000Y-78483360D01*
X131093000Y-76634240D01*
X131347000Y-76634240D01*
X131347000Y-78483360D01*
X132496350Y-78483360D01*
X132655100Y-78324610D01*
X132655100Y-76984181D01*
X132558427Y-76750792D01*
X132379799Y-76572163D01*
X132146410Y-76475490D01*
X131505750Y-76475490D01*
X131347000Y-76634240D01*
X131093000Y-76634240D01*
X131093000Y-76634240D01*
X130934250Y-76475490D01*
X130293590Y-76475490D01*
X130060201Y-76572163D01*
X129881573Y-76750792D01*
X129784900Y-76984181D01*
X112212805Y-76984181D01*
X112212032Y-74927176D01*
X183690000Y-75026451D01*
X183690000Y-75026451D01*
G37*
X183690000Y-75026451D02*
X183690000Y-114490000D01*
X112226883Y-114490000D01*
X112219192Y-94000000D01*
X112840000Y-94000000D01*
X112840000Y-105000000D01*
X112897852Y-105290839D01*
X113062599Y-105537401D01*
X114662599Y-107137401D01*
X114802560Y-107230920D01*
X114802560Y-107250000D01*
X114849537Y-107492123D01*
X114989327Y-107704927D01*
X115200360Y-107847377D01*
X115450000Y-107897440D01*
X116150000Y-107897440D01*
X116392123Y-107850463D01*
X116604927Y-107710673D01*
X116747377Y-107499640D01*
X116749216Y-107490469D01*
X116749537Y-107492123D01*
X116889327Y-107704927D01*
X116940000Y-107739132D01*
X116940000Y-108150000D01*
X116997852Y-108440839D01*
X117162599Y-108687401D01*
X117912599Y-109437401D01*
X118159160Y-109602148D01*
X118450000Y-109660000D01*
X122700000Y-109660000D01*
X122990839Y-109602148D01*
X123237401Y-109437401D01*
X123302560Y-109372242D01*
X123302560Y-110550000D01*
X123349537Y-110792123D01*
X123489327Y-111004927D01*
X123700360Y-111147377D01*
X123950000Y-111197440D01*
X124650000Y-111197440D01*
X124892123Y-111150463D01*
X125104927Y-111010673D01*
X125247377Y-110799640D01*
X125249216Y-110790469D01*
X125249537Y-110792123D01*
X125389327Y-111004927D01*
X125600360Y-111147377D01*
X125850000Y-111197440D01*
X126550000Y-111197440D01*
X126792123Y-111150463D01*
X127004927Y-111010673D01*
X127147377Y-110799640D01*
X127197440Y-110550000D01*
X127197440Y-110525167D01*
X128144838Y-110525167D01*
X128286883Y-110868943D01*
X128549673Y-111132192D01*
X128893201Y-111274838D01*
X129077283Y-111274998D01*
X129100027Y-111392223D01*
X129239817Y-111605027D01*
X129450850Y-111747477D01*
X129700490Y-111797540D01*
X132700230Y-111797540D01*
X132942353Y-111750563D01*
X133155157Y-111610773D01*
X133297607Y-111399740D01*
X133347670Y-111150100D01*
X133347670Y-110635750D01*
X133464770Y-110635750D01*
X133464770Y-111276410D01*
X133561443Y-111509799D01*
X133740072Y-111688427D01*
X133973461Y-111785100D01*
X135313890Y-111785100D01*
X135472640Y-111626350D01*
X135472640Y-110477000D01*
X135726640Y-110477000D01*
X135726640Y-111626350D01*
X135885390Y-111785100D01*
X137225819Y-111785100D01*
X137459208Y-111688427D01*
X137637837Y-111509799D01*
X137734510Y-111276410D01*
X137734510Y-110635750D01*
X137575760Y-110477000D01*
X135726640Y-110477000D01*
X135472640Y-110477000D01*
X135472640Y-110477000D01*
X133623520Y-110477000D01*
X133464770Y-110635750D01*
X133347670Y-110635750D01*
X133347670Y-109549900D01*
X133323164Y-109423590D01*
X133464770Y-109423590D01*
X133464770Y-110064250D01*
X133623520Y-110223000D01*
X135472640Y-110223000D01*
X135472640Y-109073650D01*
X135726640Y-109073650D01*
X135726640Y-110223000D01*
X137575760Y-110223000D01*
X137734510Y-110064250D01*
X137734510Y-109423590D01*
X137637837Y-109190201D01*
X137459208Y-109011573D01*
X137225819Y-108914900D01*
X135885390Y-108914900D01*
X135726640Y-109073650D01*
X135472640Y-109073650D01*
X135472640Y-109073650D01*
X135313890Y-108914900D01*
X133973461Y-108914900D01*
X133740072Y-109011573D01*
X133561443Y-109190201D01*
X133464770Y-109423590D01*
X133323164Y-109423590D01*
X133300693Y-109307777D01*
X133160903Y-109094973D01*
X132949870Y-108952523D01*
X132700230Y-108902460D01*
X129700490Y-108902460D01*
X129458367Y-108949437D01*
X129245563Y-109089227D01*
X129103113Y-109300260D01*
X129082108Y-109405001D01*
X128894833Y-109404838D01*
X128551057Y-109546883D01*
X128287808Y-109809673D01*
X128145162Y-110153201D01*
X128144838Y-110525167D01*
X127197440Y-110525167D01*
X127197440Y-109250000D01*
X127150463Y-109007877D01*
X127010673Y-108795073D01*
X126960000Y-108760868D01*
X126960000Y-108194364D01*
X127100000Y-108222440D01*
X128100000Y-108222440D01*
X128342123Y-108175463D01*
X128554927Y-108035673D01*
X128599614Y-107969471D01*
X128639327Y-108029927D01*
X128850360Y-108172377D01*
X129100000Y-108222440D01*
X130100000Y-108222440D01*
X130342123Y-108175463D01*
X130554927Y-108035673D01*
X130690313Y-107835106D01*
X130755167Y-107835162D01*
X131098943Y-107693117D01*
X131362192Y-107430327D01*
X131504838Y-107086799D01*
X131505162Y-106714833D01*
X131363117Y-106371057D01*
X131100327Y-106107808D01*
X130756799Y-105965162D01*
X130623060Y-105965046D01*
X130560673Y-105870073D01*
X130349640Y-105727623D01*
X130100000Y-105677560D01*
X129100000Y-105677560D01*
X128857877Y-105724537D01*
X128645073Y-105864327D01*
X128600386Y-105930529D01*
X128560673Y-105870073D01*
X128349640Y-105727623D01*
X128100000Y-105677560D01*
X127100000Y-105677560D01*
X126857877Y-105724537D01*
X126645073Y-105864327D01*
X126592304Y-105942502D01*
X126372440Y-105722638D01*
X126372440Y-105575000D01*
X126345522Y-105436263D01*
X126360000Y-105401310D01*
X126360000Y-105346250D01*
X126284943Y-105271193D01*
X126185673Y-105120073D01*
X126157011Y-105100726D01*
X126179927Y-105085673D01*
X126287622Y-104926128D01*
X126360000Y-104853750D01*
X126360000Y-104798690D01*
X126344913Y-104762266D01*
X126372440Y-104625000D01*
X126372440Y-104275000D01*
X126342856Y-104122521D01*
X126372440Y-103975000D01*
X126372440Y-103625000D01*
X126325463Y-103382877D01*
X126185673Y-103170073D01*
X125974640Y-103027623D01*
X125725000Y-102977560D01*
X125135000Y-102977560D01*
X125135000Y-102850000D01*
X125122440Y-102786857D01*
X125122440Y-102375000D01*
X125075463Y-102132877D01*
X124935673Y-101920073D01*
X124724640Y-101777623D01*
X124475000Y-101727560D01*
X124125000Y-101727560D01*
X123972521Y-101757144D01*
X123926822Y-101747980D01*
X124214802Y-101460000D01*
X124923902Y-101460000D01*
X124949537Y-101592123D01*
X125089327Y-101804927D01*
X125300360Y-101947377D01*
X125550000Y-101997440D01*
X126250000Y-101997440D01*
X126492123Y-101950463D01*
X126704927Y-101810673D01*
X126847377Y-101599640D01*
X126849216Y-101590469D01*
X126849537Y-101592123D01*
X126989327Y-101804927D01*
X127200360Y-101947377D01*
X127450000Y-101997440D01*
X128150000Y-101997440D01*
X128392123Y-101950463D01*
X128604927Y-101810673D01*
X128747377Y-101599640D01*
X128764369Y-101514909D01*
X129055167Y-101515162D01*
X129398943Y-101373117D01*
X129662192Y-101110327D01*
X129804838Y-100766799D01*
X129805162Y-100394833D01*
X129697261Y-100133691D01*
X132570000Y-100133691D01*
X132570000Y-100474250D01*
X132728750Y-100633000D01*
X133703000Y-100633000D01*
X133703000Y-99783750D01*
X133957000Y-99783750D01*
X133957000Y-100633000D01*
X134931250Y-100633000D01*
X135060000Y-100504250D01*
X135078750Y-100523000D01*
X136053000Y-100523000D01*
X136053000Y-99673750D01*
X135894250Y-99515000D01*
X135428690Y-99515000D01*
X135195301Y-99611673D01*
X135016673Y-99790302D01*
X134977617Y-99884592D01*
X134814699Y-99721673D01*
X134581310Y-99625000D01*
X134115750Y-99625000D01*
X133957000Y-99783750D01*
X133703000Y-99783750D01*
X133703000Y-99783750D01*
X133544250Y-99625000D01*
X133078690Y-99625000D01*
X132845301Y-99721673D01*
X132666673Y-99900302D01*
X132570000Y-100133691D01*
X129697261Y-100133691D01*
X129663117Y-100051057D01*
X129400327Y-99787808D01*
X129056799Y-99645162D01*
X128684833Y-99644838D01*
X128652216Y-99658315D01*
X128610673Y-99595073D01*
X128582011Y-99575726D01*
X128604927Y-99560673D01*
X128689805Y-99434931D01*
X128955167Y-99435162D01*
X129298943Y-99293117D01*
X129562192Y-99030327D01*
X129704838Y-98686799D01*
X129705162Y-98314833D01*
X129563117Y-97971057D01*
X129300327Y-97707808D01*
X128956799Y-97565162D01*
X128751842Y-97564983D01*
X128750463Y-97557877D01*
X128610673Y-97345073D01*
X128506931Y-97275046D01*
X128604927Y-97210673D01*
X128747377Y-96999640D01*
X128750295Y-96985088D01*
X128835167Y-96985162D01*
X129178943Y-96843117D01*
X129442192Y-96580327D01*
X129584838Y-96236799D01*
X129585162Y-95864833D01*
X129443117Y-95521057D01*
X129180327Y-95257808D01*
X128836799Y-95115162D01*
X128689475Y-95115034D01*
X128610673Y-94995073D01*
X128582011Y-94975726D01*
X128604927Y-94960673D01*
X128747377Y-94749640D01*
X128797440Y-94500000D01*
X128797440Y-93200000D01*
X128750463Y-92957877D01*
X128734840Y-92934094D01*
X128735162Y-92564833D01*
X128625736Y-92300000D01*
X129614568Y-92300000D01*
X129720908Y-92834609D01*
X130023740Y-93287828D01*
X130446039Y-93570000D01*
X130023740Y-93852172D01*
X129720908Y-94305391D01*
X129614568Y-94840000D01*
X129720908Y-95374609D01*
X130023740Y-95827828D01*
X130476959Y-96130660D01*
X131011568Y-96237000D01*
X131550592Y-96237000D01*
X131643681Y-96218483D01*
X132612599Y-97187401D01*
X132859161Y-97352148D01*
X133150000Y-97410000D01*
X136637537Y-97410000D01*
X136669673Y-97442192D01*
X137013201Y-97584838D01*
X137385167Y-97585162D01*
X137452560Y-97557316D01*
X137452560Y-97752489D01*
X137362599Y-97812599D01*
X136852599Y-98322599D01*
X136687852Y-98569161D01*
X136630000Y-98860000D01*
X136630000Y-99515000D01*
X136465750Y-99515000D01*
X136307000Y-99673750D01*
X136307000Y-100523000D01*
X136327000Y-100523000D01*
X136327000Y-100777000D01*
X136307000Y-100777000D01*
X136307000Y-100797000D01*
X136053000Y-100797000D01*
X136053000Y-100777000D01*
X135078750Y-100777000D01*
X134950000Y-100905750D01*
X134931250Y-100887000D01*
X133957000Y-100887000D01*
X133957000Y-100907000D01*
X133703000Y-100907000D01*
X133703000Y-100887000D01*
X132728750Y-100887000D01*
X132570000Y-101045750D01*
X132570000Y-101386309D01*
X132666673Y-101619698D01*
X132808150Y-101761176D01*
X132750073Y-101799327D01*
X132607623Y-102010360D01*
X132557560Y-102260000D01*
X132557560Y-103260000D01*
X132604537Y-103502123D01*
X132744327Y-103714927D01*
X132955360Y-103857377D01*
X133205000Y-103907440D01*
X134455000Y-103907440D01*
X134697123Y-103860463D01*
X134909927Y-103720673D01*
X134933986Y-103685030D01*
X135085167Y-103685162D01*
X135164581Y-103652349D01*
X135305360Y-103747377D01*
X135555000Y-103797440D01*
X136805000Y-103797440D01*
X137047123Y-103750463D01*
X137259927Y-103610673D01*
X137402377Y-103399640D01*
X137452440Y-103150000D01*
X137452440Y-102777242D01*
X139455000Y-104779802D01*
X139455000Y-106068902D01*
X139322877Y-106094537D01*
X139110073Y-106234327D01*
X138967623Y-106445360D01*
X138917560Y-106695000D01*
X138917560Y-107395000D01*
X138964537Y-107637123D01*
X139104327Y-107849927D01*
X139315360Y-107992377D01*
X139324531Y-107994216D01*
X139322877Y-107994537D01*
X139110073Y-108134327D01*
X138967623Y-108345360D01*
X138917560Y-108595000D01*
X138917560Y-109295000D01*
X138964537Y-109537123D01*
X139047714Y-109663745D01*
X138992623Y-109745360D01*
X138942560Y-109995000D01*
X138942560Y-110995000D01*
X138989537Y-111237123D01*
X139129327Y-111449927D01*
X139195529Y-111494614D01*
X139135073Y-111534327D01*
X138992623Y-111745360D01*
X138942560Y-111995000D01*
X138942560Y-112995000D01*
X138989537Y-113237123D01*
X139129327Y-113449927D01*
X139340360Y-113592377D01*
X139590000Y-113642440D01*
X140840000Y-113642440D01*
X141082123Y-113595463D01*
X141294927Y-113455673D01*
X141430384Y-113255000D01*
X141552537Y-113255000D01*
X141584673Y-113287192D01*
X141928201Y-113429838D01*
X142300167Y-113430162D01*
X142643943Y-113288117D01*
X142677118Y-113255000D01*
X142784125Y-113255000D01*
X142879327Y-113399927D01*
X143090360Y-113542377D01*
X143340000Y-113592440D01*
X144590000Y-113592440D01*
X144832123Y-113545463D01*
X145044927Y-113405673D01*
X145180384Y-113205000D01*
X145382685Y-113205000D01*
X145499673Y-113322192D01*
X145843201Y-113464838D01*
X146215167Y-113465162D01*
X146261161Y-113446158D01*
X146329327Y-113549927D01*
X146540360Y-113692377D01*
X146790000Y-113742440D01*
X148040000Y-113742440D01*
X148282123Y-113695463D01*
X148494927Y-113555673D01*
X148637377Y-113344640D01*
X148687440Y-113095000D01*
X148687440Y-112095000D01*
X148640463Y-111852877D01*
X148500673Y-111640073D01*
X148434471Y-111595386D01*
X148494927Y-111555673D01*
X148637377Y-111344640D01*
X148683696Y-111113667D01*
X149502338Y-111113667D01*
X149644383Y-111457443D01*
X149907173Y-111720692D01*
X150250701Y-111863338D01*
X150622667Y-111863662D01*
X150718935Y-111823885D01*
X150739327Y-111854927D01*
X150950360Y-111997377D01*
X151200000Y-112047440D01*
X151772638Y-112047440D01*
X151972599Y-112247401D01*
X152219161Y-112412148D01*
X152510000Y-112470000D01*
X154198753Y-112470000D01*
X154219537Y-112577123D01*
X154359327Y-112789927D01*
X154570360Y-112932377D01*
X154820000Y-112982440D01*
X155820000Y-112982440D01*
X156062123Y-112935463D01*
X156274927Y-112795673D01*
X156319614Y-112729471D01*
X156359327Y-112789927D01*
X156570360Y-112932377D01*
X156820000Y-112982440D01*
X157820000Y-112982440D01*
X158062123Y-112935463D01*
X158274927Y-112795673D01*
X158377664Y-112643472D01*
X158453201Y-112674838D01*
X158825167Y-112675162D01*
X159168943Y-112533117D01*
X159432192Y-112270327D01*
X159574838Y-111926799D01*
X159575162Y-111554833D01*
X159433117Y-111211057D01*
X159170327Y-110947808D01*
X158826799Y-110805162D01*
X158454833Y-110804838D01*
X158408147Y-110824128D01*
X158280673Y-110630073D01*
X158069640Y-110487623D01*
X157820000Y-110437560D01*
X156820000Y-110437560D01*
X156577877Y-110484537D01*
X156365073Y-110624327D01*
X156320386Y-110690529D01*
X156280673Y-110630073D01*
X156069640Y-110487623D01*
X155820000Y-110437560D01*
X154820000Y-110437560D01*
X154577877Y-110484537D01*
X154365073Y-110624327D01*
X154222623Y-110835360D01*
X154199633Y-110950000D01*
X153147440Y-110950000D01*
X153147440Y-110700000D01*
X153100463Y-110457877D01*
X153007101Y-110315750D01*
X163985000Y-110315750D01*
X163985000Y-110781310D01*
X164081673Y-111014699D01*
X164260302Y-111193327D01*
X164493691Y-111290000D01*
X164834250Y-111290000D01*
X164993000Y-111131250D01*
X164993000Y-110157000D01*
X164143750Y-110157000D01*
X163985000Y-110315750D01*
X153007101Y-110315750D01*
X152960673Y-110245073D01*
X152749640Y-110102623D01*
X152719208Y-110096520D01*
X152859699Y-110038327D01*
X153038327Y-109859698D01*
X153135000Y-109626309D01*
X153135000Y-109435750D01*
X152977940Y-109278690D01*
X163985000Y-109278690D01*
X163985000Y-109744250D01*
X164143750Y-109903000D01*
X164993000Y-109903000D01*
X164993000Y-108928750D01*
X165247000Y-108928750D01*
X165247000Y-109903000D01*
X165267000Y-109903000D01*
X165267000Y-110157000D01*
X165247000Y-110157000D01*
X165247000Y-111131250D01*
X165405750Y-111290000D01*
X165746309Y-111290000D01*
X165979698Y-111193327D01*
X166121176Y-111051850D01*
X166159327Y-111109927D01*
X166370360Y-111252377D01*
X166620000Y-111302440D01*
X167620000Y-111302440D01*
X167862123Y-111255463D01*
X168074927Y-111115673D01*
X168172392Y-110971283D01*
X168253201Y-111004838D01*
X168625167Y-111005162D01*
X168968943Y-110863117D01*
X169232192Y-110600327D01*
X169374838Y-110256799D01*
X169375162Y-109884833D01*
X169233117Y-109541057D01*
X168970327Y-109277808D01*
X168626799Y-109135162D01*
X168254833Y-109134838D01*
X168213314Y-109151993D01*
X168080673Y-108950073D01*
X167869640Y-108807623D01*
X167620000Y-108757560D01*
X166620000Y-108757560D01*
X166377877Y-108804537D01*
X166165073Y-108944327D01*
X166121663Y-109008637D01*
X165979698Y-108866673D01*
X165746309Y-108770000D01*
X165405750Y-108770000D01*
X165247000Y-108928750D01*
X164993000Y-108928750D01*
X164993000Y-108928750D01*
X164834250Y-108770000D01*
X164493691Y-108770000D01*
X164260302Y-108866673D01*
X164081673Y-109045301D01*
X163985000Y-109278690D01*
X152977940Y-109278690D01*
X152976250Y-109277000D01*
X151977000Y-109277000D01*
X151977000Y-109297000D01*
X151723000Y-109297000D01*
X151723000Y-109277000D01*
X150723750Y-109277000D01*
X150565000Y-109435750D01*
X150565000Y-109626309D01*
X150661673Y-109859698D01*
X150840301Y-110038327D01*
X150978442Y-110095547D01*
X150957877Y-110099537D01*
X150927434Y-110119535D01*
X150624299Y-109993662D01*
X150252333Y-109993338D01*
X149908557Y-110135383D01*
X149645308Y-110398173D01*
X149502662Y-110741701D01*
X149502338Y-111113667D01*
X148683696Y-111113667D01*
X148687440Y-111095000D01*
X148687440Y-110095000D01*
X148640463Y-109852877D01*
X148548654Y-109713115D01*
X148662377Y-109544640D01*
X148712440Y-109295000D01*
X148712440Y-108673691D01*
X150565000Y-108673691D01*
X150565000Y-108864250D01*
X150723750Y-109023000D01*
X151723000Y-109023000D01*
X151723000Y-108323750D01*
X151977000Y-108323750D01*
X151977000Y-109023000D01*
X152976250Y-109023000D01*
X153135000Y-108864250D01*
X153135000Y-108673691D01*
X153038327Y-108440302D01*
X152859699Y-108261673D01*
X152626310Y-108165000D01*
X152135750Y-108165000D01*
X151977000Y-108323750D01*
X151723000Y-108323750D01*
X151723000Y-108323750D01*
X151564250Y-108165000D01*
X151073690Y-108165000D01*
X150840301Y-108261673D01*
X150661673Y-108440302D01*
X150565000Y-108673691D01*
X148712440Y-108673691D01*
X148712440Y-108595000D01*
X148665463Y-108352877D01*
X148525673Y-108140073D01*
X148314640Y-107997623D01*
X148305469Y-107995784D01*
X148307123Y-107995463D01*
X148519927Y-107855673D01*
X148662377Y-107644640D01*
X148712440Y-107395000D01*
X148712440Y-106900750D01*
X159790000Y-106900750D01*
X159790000Y-107041310D01*
X159886673Y-107274699D01*
X160065302Y-107453327D01*
X160298691Y-107550000D01*
X161114250Y-107550000D01*
X161273000Y-107391250D01*
X161273000Y-106742000D01*
X161527000Y-106742000D01*
X161527000Y-107391250D01*
X161685750Y-107550000D01*
X162501309Y-107550000D01*
X162734698Y-107453327D01*
X162913327Y-107274699D01*
X163010000Y-107041310D01*
X163010000Y-106900750D01*
X162851250Y-106742000D01*
X161527000Y-106742000D01*
X161273000Y-106742000D01*
X161273000Y-106742000D01*
X159948750Y-106742000D01*
X159790000Y-106900750D01*
X148712440Y-106900750D01*
X148712440Y-106695000D01*
X148665463Y-106452877D01*
X148525673Y-106240073D01*
X148314640Y-106097623D01*
X148175000Y-106069619D01*
X148175000Y-105385000D01*
X148120132Y-105109161D01*
X148117148Y-105094160D01*
X147952401Y-104847599D01*
X146667401Y-103562599D01*
X146420839Y-103397852D01*
X146130000Y-103340000D01*
X143825465Y-103340000D01*
X143971192Y-103194527D01*
X144059545Y-102981750D01*
X144239673Y-103162192D01*
X144583201Y-103304838D01*
X144955167Y-103305162D01*
X145298943Y-103163117D01*
X145562192Y-102900327D01*
X145704838Y-102556799D01*
X145704933Y-102447440D01*
X145850000Y-102447440D01*
X145951652Y-102427717D01*
X146050000Y-102447440D01*
X146650000Y-102447440D01*
X146751652Y-102427717D01*
X146850000Y-102447440D01*
X147450000Y-102447440D01*
X147551652Y-102427717D01*
X147650000Y-102447440D01*
X148250000Y-102447440D01*
X148351652Y-102427717D01*
X148450000Y-102447440D01*
X149050000Y-102447440D01*
X149151652Y-102427717D01*
X149250000Y-102447440D01*
X149850000Y-102447440D01*
X149951652Y-102427717D01*
X150050000Y-102447440D01*
X150650000Y-102447440D01*
X150751652Y-102427717D01*
X150850000Y-102447440D01*
X151450000Y-102447440D01*
X151551652Y-102427717D01*
X151650000Y-102447440D01*
X152250000Y-102447440D01*
X152351652Y-102427717D01*
X152450000Y-102447440D01*
X153050000Y-102447440D01*
X153292123Y-102400463D01*
X153504927Y-102260673D01*
X153647377Y-102049640D01*
X153697440Y-101800000D01*
X153697440Y-100300000D01*
X153650463Y-100057877D01*
X153638153Y-100039137D01*
X153650360Y-100047377D01*
X153900000Y-100097440D01*
X155340000Y-100097440D01*
X155340000Y-103600000D01*
X155397852Y-103890839D01*
X155562599Y-104137401D01*
X157307599Y-105882401D01*
X157554161Y-106047148D01*
X157845000Y-106105000D01*
X159824666Y-106105000D01*
X159790000Y-106188690D01*
X159790000Y-106329250D01*
X159948750Y-106488000D01*
X161273000Y-106488000D01*
X161273000Y-106468000D01*
X161527000Y-106468000D01*
X161527000Y-106488000D01*
X162851250Y-106488000D01*
X163010000Y-106329250D01*
X163010000Y-106188690D01*
X162920211Y-105971921D01*
X162972377Y-105894640D01*
X163022440Y-105645000D01*
X163022440Y-105045000D01*
X162975463Y-104802877D01*
X162914603Y-104710229D01*
X162972377Y-104624640D01*
X163022440Y-104375000D01*
X163022440Y-103775000D01*
X162975463Y-103532877D01*
X162914603Y-103440229D01*
X162972377Y-103354640D01*
X163022440Y-103105000D01*
X163022440Y-102505000D01*
X162975463Y-102262877D01*
X162914603Y-102170229D01*
X162972377Y-102084640D01*
X163022440Y-101835000D01*
X163022440Y-101235000D01*
X162975463Y-100992877D01*
X162914603Y-100900229D01*
X162972377Y-100814640D01*
X163022440Y-100565000D01*
X163022440Y-99965000D01*
X162975463Y-99722877D01*
X162914603Y-99630229D01*
X162972377Y-99544640D01*
X163022440Y-99295000D01*
X163022440Y-98695000D01*
X162975463Y-98452877D01*
X162914603Y-98360229D01*
X162972377Y-98274640D01*
X163022440Y-98025000D01*
X163022440Y-97425000D01*
X162975463Y-97182877D01*
X162914603Y-97090229D01*
X162972377Y-97004640D01*
X163022440Y-96755000D01*
X163022440Y-96687095D01*
X167714838Y-96687095D01*
X167856883Y-97030871D01*
X167890000Y-97064046D01*
X167890000Y-105690000D01*
X167947852Y-105980839D01*
X168112599Y-106227401D01*
X169037599Y-107152401D01*
X169284161Y-107317148D01*
X169336495Y-107327558D01*
X169364327Y-107369927D01*
X169575360Y-107512377D01*
X169825000Y-107562440D01*
X171775000Y-107562440D01*
X172017123Y-107515463D01*
X172229927Y-107375673D01*
X172372377Y-107164640D01*
X172422440Y-106915000D01*
X172422440Y-106315000D01*
X172382666Y-106110000D01*
X174750000Y-106110000D01*
X175040839Y-106052148D01*
X175287401Y-105887401D01*
X176114802Y-105060000D01*
X176722089Y-105060000D01*
X176634568Y-105500000D01*
X176740908Y-106034609D01*
X177043740Y-106487828D01*
X177466039Y-106770000D01*
X177043740Y-107052172D01*
X176740908Y-107505391D01*
X176634568Y-108040000D01*
X176740908Y-108574609D01*
X177043740Y-109027828D01*
X177496959Y-109330660D01*
X178031568Y-109437000D01*
X178570592Y-109437000D01*
X179105201Y-109330660D01*
X179558420Y-109027828D01*
X179820000Y-108636347D01*
X180081580Y-109027828D01*
X180534799Y-109330660D01*
X181069408Y-109437000D01*
X181608432Y-109437000D01*
X182143041Y-109330660D01*
X182596260Y-109027828D01*
X182899092Y-108574609D01*
X183005432Y-108040000D01*
X182899092Y-107505391D01*
X182596260Y-107052172D01*
X182173961Y-106770000D01*
X182596260Y-106487828D01*
X182899092Y-106034609D01*
X183005432Y-105500000D01*
X182899092Y-104965391D01*
X182596260Y-104512172D01*
X182173961Y-104230000D01*
X182596260Y-103947828D01*
X182899092Y-103494609D01*
X183005432Y-102960000D01*
X182899092Y-102425391D01*
X182596260Y-101972172D01*
X182173961Y-101690000D01*
X182596260Y-101407828D01*
X182899092Y-100954609D01*
X183005432Y-100420000D01*
X182899092Y-99885391D01*
X182596260Y-99432172D01*
X182173961Y-99150000D01*
X182596260Y-98867828D01*
X182899092Y-98414609D01*
X183005432Y-97880000D01*
X182899092Y-97345391D01*
X182596260Y-96892172D01*
X182173961Y-96610000D01*
X182596260Y-96327828D01*
X182899092Y-95874609D01*
X183005432Y-95340000D01*
X182899092Y-94805391D01*
X182596260Y-94352172D01*
X182173961Y-94070000D01*
X182596260Y-93787828D01*
X182899092Y-93334609D01*
X183005432Y-92800000D01*
X182899092Y-92265391D01*
X182596260Y-91812172D01*
X182173961Y-91530000D01*
X182596260Y-91247828D01*
X182899092Y-90794609D01*
X183005432Y-90260000D01*
X182899092Y-89725391D01*
X182596260Y-89272172D01*
X182173961Y-88990000D01*
X182596260Y-88707828D01*
X182899092Y-88254609D01*
X183005432Y-87720000D01*
X182899092Y-87185391D01*
X182596260Y-86732172D01*
X182173961Y-86450000D01*
X182596260Y-86167828D01*
X182899092Y-85714609D01*
X183005432Y-85180000D01*
X182899092Y-84645391D01*
X182596260Y-84192172D01*
X182173961Y-83910000D01*
X182596260Y-83627828D01*
X182899092Y-83174609D01*
X183005432Y-82640000D01*
X182899092Y-82105391D01*
X182596260Y-81652172D01*
X182173961Y-81370000D01*
X182596260Y-81087828D01*
X182899092Y-80634609D01*
X183005432Y-80100000D01*
X182899092Y-79565391D01*
X182596260Y-79112172D01*
X182143041Y-78809340D01*
X181608432Y-78703000D01*
X181069408Y-78703000D01*
X180534799Y-78809340D01*
X180081580Y-79112172D01*
X179944112Y-79317907D01*
X179901033Y-79095877D01*
X179761243Y-78883073D01*
X179550210Y-78740623D01*
X179300570Y-78690560D01*
X177301590Y-78690560D01*
X177059467Y-78737537D01*
X176846663Y-78877327D01*
X176704213Y-79088360D01*
X176654150Y-79338000D01*
X176654150Y-79340000D01*
X174310000Y-79340000D01*
X174019161Y-79397852D01*
X173772599Y-79562599D01*
X172540198Y-80795000D01*
X172520326Y-80795000D01*
X172562440Y-80585000D01*
X172562440Y-79985000D01*
X172515463Y-79742877D01*
X172375673Y-79530073D01*
X172164640Y-79387623D01*
X171915000Y-79337560D01*
X171834951Y-79337560D01*
X171835162Y-79094833D01*
X171693117Y-78751057D01*
X171430327Y-78487808D01*
X171086799Y-78345162D01*
X170714833Y-78344838D01*
X170371057Y-78486883D01*
X170107808Y-78749673D01*
X169965162Y-79093201D01*
X169964949Y-79337570D01*
X169722877Y-79384537D01*
X169510073Y-79524327D01*
X169367623Y-79735360D01*
X169317560Y-79985000D01*
X169317560Y-80585000D01*
X169364537Y-80827123D01*
X169425397Y-80919771D01*
X169367623Y-81005360D01*
X169317560Y-81255000D01*
X169317560Y-81855000D01*
X169364537Y-82097123D01*
X169425397Y-82189771D01*
X169367623Y-82275360D01*
X169317560Y-82525000D01*
X169317560Y-83125000D01*
X169364537Y-83367123D01*
X169425397Y-83459771D01*
X169367623Y-83545360D01*
X169317560Y-83795000D01*
X169317560Y-84395000D01*
X169364537Y-84637123D01*
X169425397Y-84729771D01*
X169367623Y-84815360D01*
X169317560Y-85065000D01*
X169317560Y-85665000D01*
X169364537Y-85907123D01*
X169425397Y-85999771D01*
X169367623Y-86085360D01*
X169317560Y-86335000D01*
X169317560Y-86935000D01*
X169364537Y-87177123D01*
X169425397Y-87269771D01*
X169367623Y-87355360D01*
X169317560Y-87605000D01*
X169317560Y-88205000D01*
X169364537Y-88447123D01*
X169425397Y-88539771D01*
X169367623Y-88625360D01*
X169317560Y-88875000D01*
X169317560Y-89475000D01*
X169364537Y-89717123D01*
X169425397Y-89809771D01*
X169367623Y-89895360D01*
X169317560Y-90145000D01*
X169317560Y-90745000D01*
X169364537Y-90987123D01*
X169394470Y-91032690D01*
X169177599Y-91177599D01*
X168112599Y-92242599D01*
X167947852Y-92489161D01*
X167890000Y-92780000D01*
X167890000Y-95939465D01*
X167857808Y-95971601D01*
X167715162Y-96315129D01*
X167714838Y-96687095D01*
X163022440Y-96687095D01*
X163022440Y-96194907D01*
X163315167Y-96195162D01*
X163658943Y-96053117D01*
X163922192Y-95790327D01*
X164064838Y-95446799D01*
X164065162Y-95074833D01*
X163923117Y-94731057D01*
X163660327Y-94467808D01*
X163316799Y-94325162D01*
X162944833Y-94324838D01*
X162780416Y-94392774D01*
X162624640Y-94287623D01*
X162375000Y-94237560D01*
X160687634Y-94237560D01*
X160652148Y-94059161D01*
X160487401Y-93812599D01*
X158675552Y-92000750D01*
X159930000Y-92000750D01*
X159930000Y-92141310D01*
X160026673Y-92374699D01*
X160205302Y-92553327D01*
X160438691Y-92650000D01*
X161254250Y-92650000D01*
X161413000Y-92491250D01*
X161413000Y-91842000D01*
X161667000Y-91842000D01*
X161667000Y-92491250D01*
X161825750Y-92650000D01*
X162641309Y-92650000D01*
X162874698Y-92553327D01*
X163053327Y-92374699D01*
X163150000Y-92141310D01*
X163150000Y-92000750D01*
X162991250Y-91842000D01*
X161667000Y-91842000D01*
X161413000Y-91842000D01*
X161413000Y-91842000D01*
X160088750Y-91842000D01*
X159930000Y-92000750D01*
X158675552Y-92000750D01*
X158087401Y-91412599D01*
X157840839Y-91247852D01*
X157550000Y-91190000D01*
X156047440Y-91190000D01*
X156047440Y-91110000D01*
X160004016Y-91110000D01*
X159930000Y-91288690D01*
X159930000Y-91429250D01*
X160088750Y-91588000D01*
X161413000Y-91588000D01*
X161413000Y-91568000D01*
X161667000Y-91568000D01*
X161667000Y-91588000D01*
X162991250Y-91588000D01*
X163150000Y-91429250D01*
X163150000Y-91288690D01*
X163060211Y-91071921D01*
X163112377Y-90994640D01*
X163162440Y-90745000D01*
X163162440Y-90710541D01*
X163293201Y-90764838D01*
X163665167Y-90765162D01*
X164008943Y-90623117D01*
X164272192Y-90360327D01*
X164414838Y-90016799D01*
X164415162Y-89644833D01*
X164273117Y-89301057D01*
X164240000Y-89267882D01*
X164240000Y-80970000D01*
X164218517Y-80862000D01*
X164182148Y-80679160D01*
X164017401Y-80432599D01*
X163332401Y-79747599D01*
X163085839Y-79582852D01*
X162998996Y-79565578D01*
X162975673Y-79530073D01*
X162764640Y-79387623D01*
X162515000Y-79337560D01*
X160565000Y-79337560D01*
X160322877Y-79384537D01*
X160110073Y-79524327D01*
X159967623Y-79735360D01*
X159917560Y-79985000D01*
X159917560Y-80585000D01*
X159958304Y-80795000D01*
X159515000Y-80795000D01*
X159224161Y-80852852D01*
X158977599Y-81017599D01*
X158475198Y-81520000D01*
X156750000Y-81520000D01*
X156459161Y-81577852D01*
X156212599Y-81742599D01*
X155505198Y-82450000D01*
X152050000Y-82450000D01*
X151759160Y-82507852D01*
X151512599Y-82672599D01*
X150612599Y-83572599D01*
X150447852Y-83819161D01*
X150405408Y-84032538D01*
X150395073Y-84039327D01*
X150350386Y-84105529D01*
X150310673Y-84045073D01*
X150106511Y-83907261D01*
X150064250Y-83865000D01*
X149923690Y-83865000D01*
X149919887Y-83866575D01*
X149850000Y-83852560D01*
X149674938Y-83852560D01*
X149675162Y-83594833D01*
X149533117Y-83251057D01*
X149270327Y-82987808D01*
X148926799Y-82845162D01*
X148575772Y-82844856D01*
X148575760Y-82844838D01*
X148487401Y-82712598D01*
X147420000Y-81645198D01*
X147420000Y-81628490D01*
X147647828Y-81476260D01*
X147930000Y-81053961D01*
X148212172Y-81476260D01*
X148665391Y-81779092D01*
X149200000Y-81885432D01*
X149734609Y-81779092D01*
X150187828Y-81476260D01*
X150470000Y-81053961D01*
X150752172Y-81476260D01*
X151205391Y-81779092D01*
X151740000Y-81885432D01*
X152274609Y-81779092D01*
X152727828Y-81476260D01*
X153010000Y-81053961D01*
X153292172Y-81476260D01*
X153745391Y-81779092D01*
X154280000Y-81885432D01*
X154814609Y-81779092D01*
X155267828Y-81476260D01*
X155570660Y-81023041D01*
X155677000Y-80488432D01*
X155677000Y-79949408D01*
X155570660Y-79414799D01*
X155267828Y-78961580D01*
X154876347Y-78700000D01*
X155267828Y-78438420D01*
X155570660Y-77985201D01*
X155596525Y-77855167D01*
X162794838Y-77855167D01*
X162936883Y-78198943D01*
X163199673Y-78462192D01*
X163543201Y-78604838D01*
X163915167Y-78605162D01*
X163932399Y-78598042D01*
X163999327Y-78699927D01*
X164210360Y-78842377D01*
X164460000Y-78892440D01*
X165460000Y-78892440D01*
X165702123Y-78845463D01*
X165914927Y-78705673D01*
X165958337Y-78641363D01*
X166100302Y-78783327D01*
X166333691Y-78880000D01*
X166674250Y-78880000D01*
X166833000Y-78721250D01*
X166833000Y-77747000D01*
X167087000Y-77747000D01*
X167087000Y-78721250D01*
X167245750Y-78880000D01*
X167586309Y-78880000D01*
X167819698Y-78783327D01*
X167998327Y-78604699D01*
X168095000Y-78371310D01*
X168095000Y-77905750D01*
X167936250Y-77747000D01*
X167087000Y-77747000D01*
X166833000Y-77747000D01*
X166833000Y-77747000D01*
X166813000Y-77747000D01*
X166813000Y-77493000D01*
X166833000Y-77493000D01*
X166833000Y-76518750D01*
X167087000Y-76518750D01*
X167087000Y-77493000D01*
X167936250Y-77493000D01*
X168095000Y-77334250D01*
X168095000Y-76868690D01*
X167998327Y-76635301D01*
X167819698Y-76456673D01*
X167586309Y-76360000D01*
X167245750Y-76360000D01*
X167087000Y-76518750D01*
X166833000Y-76518750D01*
X166833000Y-76518750D01*
X166674250Y-76360000D01*
X166333691Y-76360000D01*
X166100302Y-76456673D01*
X165958824Y-76598150D01*
X165920673Y-76540073D01*
X165709640Y-76397623D01*
X165460000Y-76347560D01*
X164460000Y-76347560D01*
X164217877Y-76394537D01*
X164005073Y-76534327D01*
X163869535Y-76735121D01*
X163544833Y-76734838D01*
X163201057Y-76876883D01*
X162937808Y-77139673D01*
X162795162Y-77483201D01*
X162794838Y-77855167D01*
X155596525Y-77855167D01*
X155677000Y-77450592D01*
X155677000Y-76911568D01*
X155570660Y-76376959D01*
X155267828Y-75923740D01*
X154814609Y-75620908D01*
X154280000Y-75514568D01*
X153745391Y-75620908D01*
X153292172Y-75923740D01*
X153010000Y-76346039D01*
X152727828Y-75923740D01*
X152274609Y-75620908D01*
X151740000Y-75514568D01*
X151205391Y-75620908D01*
X150752172Y-75923740D01*
X150470000Y-76346039D01*
X150187828Y-75923740D01*
X149734609Y-75620908D01*
X149200000Y-75514568D01*
X148665391Y-75620908D01*
X148212172Y-75923740D01*
X147926226Y-76351688D01*
X147913135Y-76305253D01*
X147573465Y-75874290D01*
X147094728Y-75606118D01*
X147003070Y-75589370D01*
X146787000Y-75711870D01*
X146787000Y-77054080D01*
X146807000Y-77054080D01*
X146807000Y-77308080D01*
X146787000Y-77308080D01*
X146787000Y-77328080D01*
X146533000Y-77328080D01*
X146533000Y-77308080D01*
X146513000Y-77308080D01*
X146513000Y-77054080D01*
X146533000Y-77054080D01*
X146533000Y-75711870D01*
X146316930Y-75589370D01*
X146225272Y-75606118D01*
X145746535Y-75874290D01*
X145406865Y-76305253D01*
X145393774Y-76351688D01*
X145107828Y-75923740D01*
X144654609Y-75620908D01*
X144120000Y-75514568D01*
X143585391Y-75620908D01*
X143132172Y-75923740D01*
X142829340Y-76376959D01*
X142723000Y-76911568D01*
X142723000Y-77450592D01*
X142829340Y-77985201D01*
X143132172Y-78438420D01*
X143337907Y-78575888D01*
X143115877Y-78618967D01*
X142903073Y-78758757D01*
X142760623Y-78969790D01*
X142710560Y-79219430D01*
X142710560Y-81218410D01*
X142757537Y-81460533D01*
X142897327Y-81673337D01*
X143108360Y-81815787D01*
X143358000Y-81865850D01*
X143488018Y-81865850D01*
X143582599Y-82007401D01*
X145427758Y-83852560D01*
X145250000Y-83852560D01*
X145148348Y-83872283D01*
X145050000Y-83852560D01*
X144450000Y-83852560D01*
X144348348Y-83872283D01*
X144250000Y-83852560D01*
X143650000Y-83852560D01*
X143548348Y-83872283D01*
X143450000Y-83852560D01*
X143110000Y-83852560D01*
X143110000Y-83250000D01*
X143052148Y-82959161D01*
X142887401Y-82712599D01*
X142310250Y-82135448D01*
X142347440Y-81950000D01*
X142347440Y-81250000D01*
X142300463Y-81007877D01*
X142160673Y-80795073D01*
X141949640Y-80652623D01*
X141919208Y-80646520D01*
X142059699Y-80588327D01*
X142238327Y-80409698D01*
X142335000Y-80176309D01*
X142335000Y-79985750D01*
X142176250Y-79827000D01*
X141177000Y-79827000D01*
X141177000Y-79847000D01*
X140923000Y-79847000D01*
X140923000Y-79827000D01*
X139923750Y-79827000D01*
X139765000Y-79985750D01*
X139765000Y-80176309D01*
X139861673Y-80409698D01*
X140040301Y-80588327D01*
X140178442Y-80645547D01*
X140157877Y-80649537D01*
X139945073Y-80789327D01*
X139802623Y-81000360D01*
X139752560Y-81250000D01*
X139752560Y-81950000D01*
X139799537Y-82192123D01*
X139939327Y-82404927D01*
X140150360Y-82547377D01*
X140400000Y-82597440D01*
X140622638Y-82597440D01*
X141590000Y-83564802D01*
X141590000Y-83852560D01*
X141250000Y-83852560D01*
X141179364Y-83866265D01*
X141176310Y-83865000D01*
X141035750Y-83865000D01*
X140988454Y-83912296D01*
X140795073Y-84039327D01*
X140652623Y-84250360D01*
X140623000Y-84398076D01*
X140623000Y-84023750D01*
X140464250Y-83865000D01*
X140323690Y-83865000D01*
X140090301Y-83961673D01*
X139911673Y-84140302D01*
X139815000Y-84373691D01*
X139815000Y-84964250D01*
X139973750Y-85123000D01*
X140602560Y-85123000D01*
X140602560Y-85377000D01*
X139973750Y-85377000D01*
X139815000Y-85535750D01*
X139815000Y-86126309D01*
X139874183Y-86269190D01*
X139849640Y-86252623D01*
X139600000Y-86202560D01*
X138100000Y-86202560D01*
X137857877Y-86249537D01*
X137645073Y-86389327D01*
X137502623Y-86600360D01*
X137452560Y-86850000D01*
X137452560Y-87190000D01*
X137200000Y-87190000D01*
X136909161Y-87247852D01*
X136662599Y-87412599D01*
X136012599Y-88062599D01*
X135847852Y-88309161D01*
X135790000Y-88600000D01*
X135790000Y-89139823D01*
X135625710Y-88846535D01*
X135194747Y-88506865D01*
X134666602Y-88357973D01*
X134445920Y-88516746D01*
X134445920Y-89633000D01*
X134465920Y-89633000D01*
X134465920Y-89887000D01*
X134445920Y-89887000D01*
X134445920Y-89907000D01*
X134191920Y-89907000D01*
X134191920Y-89887000D01*
X134171920Y-89887000D01*
X134171920Y-89633000D01*
X134191920Y-89633000D01*
X134191920Y-88516746D01*
X133971238Y-88357973D01*
X133443093Y-88506865D01*
X133012130Y-88846535D01*
X132927823Y-88997038D01*
X132881033Y-88755877D01*
X132741243Y-88543073D01*
X132530210Y-88400623D01*
X132280570Y-88350560D01*
X130281590Y-88350560D01*
X130039467Y-88397537D01*
X129826663Y-88537327D01*
X129684213Y-88748360D01*
X129634150Y-88998000D01*
X129634150Y-90522000D01*
X129681127Y-90764123D01*
X129820917Y-90976927D01*
X130031950Y-91119377D01*
X130247565Y-91162617D01*
X130023740Y-91312172D01*
X129720908Y-91765391D01*
X129614568Y-92300000D01*
X128625736Y-92300000D01*
X128593117Y-92221057D01*
X128330327Y-91957808D01*
X127986799Y-91815162D01*
X127614833Y-91814838D01*
X127271057Y-91956883D01*
X127007808Y-92219673D01*
X126865162Y-92563201D01*
X126864841Y-92932260D01*
X126852623Y-92950360D01*
X126850784Y-92959531D01*
X126850463Y-92957877D01*
X126710673Y-92745073D01*
X126499640Y-92602623D01*
X126250000Y-92552560D01*
X125550000Y-92552560D01*
X125307877Y-92599537D01*
X125095073Y-92739327D01*
X124952623Y-92950360D01*
X124902560Y-93200000D01*
X124902560Y-94500000D01*
X124949537Y-94742123D01*
X125089327Y-94954927D01*
X125117989Y-94974274D01*
X125095073Y-94989327D01*
X124952623Y-95200360D01*
X124924619Y-95340000D01*
X123600000Y-95340000D01*
X123309160Y-95397852D01*
X123062599Y-95562599D01*
X118912599Y-99712599D01*
X118747852Y-99959161D01*
X118690000Y-100250000D01*
X118690000Y-104365198D01*
X118477686Y-104152884D01*
X118547377Y-104049640D01*
X118597440Y-103800000D01*
X118597440Y-102500000D01*
X118550463Y-102257877D01*
X118410673Y-102045073D01*
X118199640Y-101902623D01*
X117950000Y-101852560D01*
X117250000Y-101852560D01*
X117007877Y-101899537D01*
X116795073Y-102039327D01*
X116652623Y-102250360D01*
X116650784Y-102259531D01*
X116650463Y-102257877D01*
X116510673Y-102045073D01*
X116299640Y-101902623D01*
X116050000Y-101852560D01*
X115350000Y-101852560D01*
X115107877Y-101899537D01*
X114906574Y-102031772D01*
X114860000Y-101985198D01*
X114860000Y-100133416D01*
X114947208Y-100220776D01*
X115823501Y-100584645D01*
X116772336Y-100585473D01*
X117649263Y-100223134D01*
X118320776Y-99552792D01*
X118684645Y-98676499D01*
X118685473Y-97727664D01*
X118323134Y-96850737D01*
X117652792Y-96179224D01*
X116776499Y-95815355D01*
X115827664Y-95814527D01*
X114950737Y-96176866D01*
X114860000Y-96267445D01*
X114860000Y-95114802D01*
X118048745Y-91926057D01*
X118231913Y-92109544D01*
X118401860Y-92180112D01*
X118233963Y-92249486D01*
X117843856Y-92638913D01*
X117632471Y-93147984D01*
X117631990Y-93699198D01*
X117842486Y-94208637D01*
X118231913Y-94598744D01*
X118740984Y-94810129D01*
X119292198Y-94810610D01*
X119801637Y-94600114D01*
X120021141Y-94380993D01*
X120238513Y-94598744D01*
X120747584Y-94810129D01*
X121298798Y-94810610D01*
X121808237Y-94600114D01*
X122198344Y-94210687D01*
X122409729Y-93701616D01*
X122409903Y-93502666D01*
X126281823Y-89631088D01*
X126281835Y-89631070D01*
X126281856Y-89631056D01*
X126398462Y-89456542D01*
X126506197Y-89295320D01*
X126506202Y-89295297D01*
X126506215Y-89295277D01*
X126544185Y-89104390D01*
X126585001Y-88899246D01*
X126584996Y-88899220D01*
X126585000Y-88899200D01*
X126585000Y-88847440D01*
X126800000Y-88847440D01*
X127042123Y-88800463D01*
X127254927Y-88660673D01*
X127397377Y-88449640D01*
X127447440Y-88200000D01*
X127447440Y-87300000D01*
X127400463Y-87057877D01*
X127260673Y-86845073D01*
X127049640Y-86702623D01*
X126800000Y-86652560D01*
X124300000Y-86652560D01*
X124057877Y-86699537D01*
X123845073Y-86839327D01*
X123702623Y-87050360D01*
X123652560Y-87300000D01*
X123652560Y-88200000D01*
X123699537Y-88442123D01*
X123839327Y-88654927D01*
X124050360Y-88797377D01*
X124165054Y-88820378D01*
X122385025Y-90600249D01*
X122199714Y-90151763D01*
X121810287Y-89761656D01*
X121757253Y-89739634D01*
X121754420Y-89725391D01*
X121726193Y-89583369D01*
X121726160Y-89583319D01*
X121726148Y-89583261D01*
X121644408Y-89460928D01*
X121561484Y-89336782D01*
X121237484Y-89012682D01*
X121237434Y-89012649D01*
X121237401Y-89012599D01*
X121114861Y-88930721D01*
X120990948Y-88847897D01*
X120990889Y-88847885D01*
X120990839Y-88847852D01*
X120845391Y-88818920D01*
X120700117Y-88790000D01*
X120700058Y-88790012D01*
X120700000Y-88790000D01*
X118050000Y-88790000D01*
X117759160Y-88847852D01*
X117512599Y-89012599D01*
X113062599Y-93462599D01*
X112897852Y-93709161D01*
X112840000Y-94000000D01*
X112219192Y-94000000D01*
X112216427Y-86632736D01*
X113914527Y-86632736D01*
X114276866Y-87509663D01*
X114947208Y-88181176D01*
X115823501Y-88545045D01*
X116772336Y-88545873D01*
X117649263Y-88183534D01*
X118320776Y-87513192D01*
X118684645Y-86636899D01*
X118685473Y-85688064D01*
X118457262Y-85135750D01*
X123665000Y-85135750D01*
X123665000Y-85426309D01*
X123761673Y-85659698D01*
X123940301Y-85838327D01*
X124173690Y-85935000D01*
X125264250Y-85935000D01*
X125423000Y-85776250D01*
X125423000Y-84977000D01*
X125677000Y-84977000D01*
X125677000Y-85776250D01*
X125835750Y-85935000D01*
X126926310Y-85935000D01*
X127159699Y-85838327D01*
X127338327Y-85659698D01*
X127435000Y-85426309D01*
X127435000Y-85135750D01*
X127276250Y-84977000D01*
X125677000Y-84977000D01*
X125423000Y-84977000D01*
X125423000Y-84977000D01*
X123823750Y-84977000D01*
X123665000Y-85135750D01*
X118457262Y-85135750D01*
X118323134Y-84811137D01*
X117786626Y-84273691D01*
X123665000Y-84273691D01*
X123665000Y-84564250D01*
X123823750Y-84723000D01*
X125423000Y-84723000D01*
X125423000Y-83923750D01*
X125677000Y-83923750D01*
X125677000Y-84723000D01*
X127276250Y-84723000D01*
X127435000Y-84564250D01*
X127435000Y-84273691D01*
X127338327Y-84040302D01*
X127159699Y-83861673D01*
X126926310Y-83765000D01*
X125835750Y-83765000D01*
X125677000Y-83923750D01*
X125423000Y-83923750D01*
X125423000Y-83923750D01*
X125264250Y-83765000D01*
X124173690Y-83765000D01*
X123940301Y-83861673D01*
X123761673Y-84040302D01*
X123665000Y-84273691D01*
X117786626Y-84273691D01*
X117652792Y-84139624D01*
X116776499Y-83775755D01*
X115827664Y-83774927D01*
X114950737Y-84137266D01*
X114279224Y-84807608D01*
X113915355Y-85683901D01*
X113914527Y-86632736D01*
X112216427Y-86632736D01*
X112214504Y-81509770D01*
X129772460Y-81509770D01*
X129772460Y-84509510D01*
X129819437Y-84751633D01*
X129959227Y-84964437D01*
X130170260Y-85106887D01*
X130312387Y-85135389D01*
X130255162Y-85273201D01*
X130254838Y-85645167D01*
X130396883Y-85988943D01*
X130659673Y-86252192D01*
X131003201Y-86394838D01*
X131375167Y-86395162D01*
X131718943Y-86253117D01*
X131982192Y-85990327D01*
X132124838Y-85646799D01*
X132125162Y-85274833D01*
X132072271Y-85146828D01*
X132262223Y-85109973D01*
X132475027Y-84970183D01*
X132617477Y-84759150D01*
X132634202Y-84675750D01*
X135650000Y-84675750D01*
X135650000Y-85016309D01*
X135746673Y-85249698D01*
X135925301Y-85428327D01*
X136158690Y-85525000D01*
X136624250Y-85525000D01*
X136783000Y-85366250D01*
X136783000Y-84517000D01*
X137037000Y-84517000D01*
X137037000Y-85366250D01*
X137195750Y-85525000D01*
X137661310Y-85525000D01*
X137894699Y-85428327D01*
X138073327Y-85249698D01*
X138170000Y-85016309D01*
X138170000Y-84675750D01*
X138011250Y-84517000D01*
X137037000Y-84517000D01*
X136783000Y-84517000D01*
X136783000Y-84517000D01*
X135808750Y-84517000D01*
X135650000Y-84675750D01*
X132634202Y-84675750D01*
X132667540Y-84509510D01*
X132667540Y-81890000D01*
X135637560Y-81890000D01*
X135637560Y-82890000D01*
X135684537Y-83132123D01*
X135824327Y-83344927D01*
X135888637Y-83388337D01*
X135746673Y-83530302D01*
X135650000Y-83763691D01*
X135650000Y-84104250D01*
X135808750Y-84263000D01*
X136783000Y-84263000D01*
X136783000Y-84243000D01*
X137037000Y-84243000D01*
X137037000Y-84263000D01*
X138011250Y-84263000D01*
X138170000Y-84104250D01*
X138170000Y-83763691D01*
X138073327Y-83530302D01*
X137931850Y-83388824D01*
X137989927Y-83350673D01*
X138132377Y-83139640D01*
X138182440Y-82890000D01*
X138182440Y-81890000D01*
X138135463Y-81647877D01*
X137995673Y-81435073D01*
X137861608Y-81344577D01*
X137864838Y-81336799D01*
X137865162Y-80964833D01*
X137723117Y-80621057D01*
X137460327Y-80357808D01*
X137116799Y-80215162D01*
X136744833Y-80214838D01*
X136401057Y-80356883D01*
X136137808Y-80619673D01*
X135995162Y-80963201D01*
X135994850Y-81321086D01*
X135830073Y-81429327D01*
X135687623Y-81640360D01*
X135637560Y-81890000D01*
X132667540Y-81890000D01*
X132667540Y-81509770D01*
X132620563Y-81267647D01*
X132480773Y-81054843D01*
X132269740Y-80912393D01*
X132020100Y-80862330D01*
X130419900Y-80862330D01*
X130177777Y-80909307D01*
X129964973Y-81049097D01*
X129822523Y-81260130D01*
X129772460Y-81509770D01*
X112214504Y-81509770D01*
X112213523Y-78896110D01*
X129784900Y-78896110D01*
X129784900Y-80236539D01*
X129881573Y-80469928D01*
X130060201Y-80648557D01*
X130293590Y-80745230D01*
X130934250Y-80745230D01*
X131093000Y-80586480D01*
X131093000Y-78737360D01*
X131347000Y-78737360D01*
X131347000Y-80586480D01*
X131505750Y-80745230D01*
X132146410Y-80745230D01*
X132379799Y-80648557D01*
X132558427Y-80469928D01*
X132655100Y-80236539D01*
X132655100Y-79223691D01*
X139765000Y-79223691D01*
X139765000Y-79414250D01*
X139923750Y-79573000D01*
X140923000Y-79573000D01*
X140923000Y-78873750D01*
X141177000Y-78873750D01*
X141177000Y-79573000D01*
X142176250Y-79573000D01*
X142335000Y-79414250D01*
X142335000Y-79223691D01*
X142238327Y-78990302D01*
X142059699Y-78811673D01*
X141826310Y-78715000D01*
X141335750Y-78715000D01*
X141177000Y-78873750D01*
X140923000Y-78873750D01*
X140923000Y-78873750D01*
X140764250Y-78715000D01*
X140273690Y-78715000D01*
X140040301Y-78811673D01*
X139861673Y-78990302D01*
X139765000Y-79223691D01*
X132655100Y-79223691D01*
X132655100Y-78896110D01*
X132496350Y-78737360D01*
X131347000Y-78737360D01*
X131093000Y-78737360D01*
X131093000Y-78737360D01*
X129943650Y-78737360D01*
X129784900Y-78896110D01*
X112213523Y-78896110D01*
X112212805Y-76984181D01*
X129784900Y-76984181D01*
X129784900Y-78324610D01*
X129943650Y-78483360D01*
X131093000Y-78483360D01*
X131093000Y-76634240D01*
X131347000Y-76634240D01*
X131347000Y-78483360D01*
X132496350Y-78483360D01*
X132655100Y-78324610D01*
X132655100Y-76984181D01*
X132558427Y-76750792D01*
X132379799Y-76572163D01*
X132146410Y-76475490D01*
X131505750Y-76475490D01*
X131347000Y-76634240D01*
X131093000Y-76634240D01*
X131093000Y-76634240D01*
X130934250Y-76475490D01*
X130293590Y-76475490D01*
X130060201Y-76572163D01*
X129881573Y-76750792D01*
X129784900Y-76984181D01*
X112212805Y-76984181D01*
X112212032Y-74927176D01*
X183690000Y-75026451D01*
G36*
X140622998Y-86490247D02*
X140605162Y-86533201D01*
X140604838Y-86905167D01*
X140746883Y-87248943D01*
X141009673Y-87512192D01*
X141353201Y-87654838D01*
X141725167Y-87655162D01*
X142068943Y-87513117D01*
X142332192Y-87250327D01*
X142474838Y-86906799D01*
X142475064Y-86647440D01*
X142650000Y-86647440D01*
X142751652Y-86627717D01*
X142850000Y-86647440D01*
X143450000Y-86647440D01*
X143551652Y-86627717D01*
X143650000Y-86647440D01*
X144250000Y-86647440D01*
X144351652Y-86627717D01*
X144450000Y-86647440D01*
X145050000Y-86647440D01*
X145151652Y-86627717D01*
X145250000Y-86647440D01*
X145850000Y-86647440D01*
X145951652Y-86627717D01*
X146050000Y-86647440D01*
X146650000Y-86647440D01*
X146751652Y-86627717D01*
X146850000Y-86647440D01*
X147450000Y-86647440D01*
X147551652Y-86627717D01*
X147650000Y-86647440D01*
X148250000Y-86647440D01*
X148351652Y-86627717D01*
X148450000Y-86647440D01*
X148619909Y-86647440D01*
X148756883Y-86978943D01*
X149019673Y-87242192D01*
X149363201Y-87384838D01*
X149735167Y-87385162D01*
X150078943Y-87243117D01*
X150342192Y-86980327D01*
X150484838Y-86636799D01*
X150484940Y-86519467D01*
X150593489Y-86592739D01*
X150635750Y-86635000D01*
X150776310Y-86635000D01*
X150780113Y-86633425D01*
X150850000Y-86647440D01*
X151450000Y-86647440D01*
X151551652Y-86627717D01*
X151650000Y-86647440D01*
X152250000Y-86647440D01*
X152351652Y-86627717D01*
X152450000Y-86647440D01*
X153050000Y-86647440D01*
X153292123Y-86600463D01*
X153310863Y-86588153D01*
X153302623Y-86600360D01*
X153252560Y-86850000D01*
X153252560Y-87450000D01*
X153272283Y-87551652D01*
X153252560Y-87650000D01*
X153252560Y-88250000D01*
X153272283Y-88351652D01*
X153252560Y-88450000D01*
X153252560Y-89050000D01*
X153272283Y-89151652D01*
X153252560Y-89250000D01*
X153252560Y-89850000D01*
X153272283Y-89951652D01*
X153252560Y-90050000D01*
X153252560Y-90650000D01*
X153272283Y-90751652D01*
X153252560Y-90850000D01*
X153252560Y-91450000D01*
X153272283Y-91551652D01*
X153252560Y-91650000D01*
X153252560Y-92068767D01*
X153037299Y-92212599D01*
X146612599Y-98637299D01*
X146447852Y-98883861D01*
X146390000Y-99174700D01*
X146390000Y-99652560D01*
X146050000Y-99652560D01*
X145948348Y-99672283D01*
X145850000Y-99652560D01*
X145250000Y-99652560D01*
X145148348Y-99672283D01*
X145050000Y-99652560D01*
X144450000Y-99652560D01*
X144379364Y-99666265D01*
X144376310Y-99665000D01*
X144235750Y-99665000D01*
X144188454Y-99712296D01*
X143995073Y-99839327D01*
X143950386Y-99905529D01*
X143910673Y-99845073D01*
X143910000Y-99844619D01*
X143910000Y-93390000D01*
X143892026Y-93299640D01*
X143852148Y-93099160D01*
X143687401Y-92852599D01*
X141475122Y-90640320D01*
X141475162Y-90594833D01*
X141333117Y-90251057D01*
X141070327Y-89987808D01*
X140726799Y-89845162D01*
X140354833Y-89844838D01*
X140238866Y-89892754D01*
X140247440Y-89850000D01*
X140247440Y-89250000D01*
X140227717Y-89148348D01*
X140247440Y-89050000D01*
X140247440Y-88450000D01*
X140227717Y-88348348D01*
X140247440Y-88250000D01*
X140247440Y-87650000D01*
X140227717Y-87548348D01*
X140247440Y-87450000D01*
X140247440Y-86850000D01*
X140200463Y-86607877D01*
X140178877Y-86575016D01*
X140323690Y-86635000D01*
X140464250Y-86635000D01*
X140622998Y-86476252D01*
X140622998Y-86490247D01*
X140622998Y-86490247D01*
G37*
X140622998Y-86490247D02*
X140605162Y-86533201D01*
X140604838Y-86905167D01*
X140746883Y-87248943D01*
X141009673Y-87512192D01*
X141353201Y-87654838D01*
X141725167Y-87655162D01*
X142068943Y-87513117D01*
X142332192Y-87250327D01*
X142474838Y-86906799D01*
X142475064Y-86647440D01*
X142650000Y-86647440D01*
X142751652Y-86627717D01*
X142850000Y-86647440D01*
X143450000Y-86647440D01*
X143551652Y-86627717D01*
X143650000Y-86647440D01*
X144250000Y-86647440D01*
X144351652Y-86627717D01*
X144450000Y-86647440D01*
X145050000Y-86647440D01*
X145151652Y-86627717D01*
X145250000Y-86647440D01*
X145850000Y-86647440D01*
X145951652Y-86627717D01*
X146050000Y-86647440D01*
X146650000Y-86647440D01*
X146751652Y-86627717D01*
X146850000Y-86647440D01*
X147450000Y-86647440D01*
X147551652Y-86627717D01*
X147650000Y-86647440D01*
X148250000Y-86647440D01*
X148351652Y-86627717D01*
X148450000Y-86647440D01*
X148619909Y-86647440D01*
X148756883Y-86978943D01*
X149019673Y-87242192D01*
X149363201Y-87384838D01*
X149735167Y-87385162D01*
X150078943Y-87243117D01*
X150342192Y-86980327D01*
X150484838Y-86636799D01*
X150484940Y-86519467D01*
X150593489Y-86592739D01*
X150635750Y-86635000D01*
X150776310Y-86635000D01*
X150780113Y-86633425D01*
X150850000Y-86647440D01*
X151450000Y-86647440D01*
X151551652Y-86627717D01*
X151650000Y-86647440D01*
X152250000Y-86647440D01*
X152351652Y-86627717D01*
X152450000Y-86647440D01*
X153050000Y-86647440D01*
X153292123Y-86600463D01*
X153310863Y-86588153D01*
X153302623Y-86600360D01*
X153252560Y-86850000D01*
X153252560Y-87450000D01*
X153272283Y-87551652D01*
X153252560Y-87650000D01*
X153252560Y-88250000D01*
X153272283Y-88351652D01*
X153252560Y-88450000D01*
X153252560Y-89050000D01*
X153272283Y-89151652D01*
X153252560Y-89250000D01*
X153252560Y-89850000D01*
X153272283Y-89951652D01*
X153252560Y-90050000D01*
X153252560Y-90650000D01*
X153272283Y-90751652D01*
X153252560Y-90850000D01*
X153252560Y-91450000D01*
X153272283Y-91551652D01*
X153252560Y-91650000D01*
X153252560Y-92068767D01*
X153037299Y-92212599D01*
X146612599Y-98637299D01*
X146447852Y-98883861D01*
X146390000Y-99174700D01*
X146390000Y-99652560D01*
X146050000Y-99652560D01*
X145948348Y-99672283D01*
X145850000Y-99652560D01*
X145250000Y-99652560D01*
X145148348Y-99672283D01*
X145050000Y-99652560D01*
X144450000Y-99652560D01*
X144379364Y-99666265D01*
X144376310Y-99665000D01*
X144235750Y-99665000D01*
X144188454Y-99712296D01*
X143995073Y-99839327D01*
X143950386Y-99905529D01*
X143910673Y-99845073D01*
X143910000Y-99844619D01*
X143910000Y-93390000D01*
X143892026Y-93299640D01*
X143852148Y-93099160D01*
X143687401Y-92852599D01*
X141475122Y-90640320D01*
X141475162Y-90594833D01*
X141333117Y-90251057D01*
X141070327Y-89987808D01*
X140726799Y-89845162D01*
X140354833Y-89844838D01*
X140238866Y-89892754D01*
X140247440Y-89850000D01*
X140247440Y-89250000D01*
X140227717Y-89148348D01*
X140247440Y-89050000D01*
X140247440Y-88450000D01*
X140227717Y-88348348D01*
X140247440Y-88250000D01*
X140247440Y-87650000D01*
X140227717Y-87548348D01*
X140247440Y-87450000D01*
X140247440Y-86850000D01*
X140200463Y-86607877D01*
X140178877Y-86575016D01*
X140323690Y-86635000D01*
X140464250Y-86635000D01*
X140622998Y-86476252D01*
X140622998Y-86490247D01*
M02*
