M48
;DRILL file {KiCad 4.1.0-alpha+201606210816+6944~45~ubuntu16.04.1-product} date Sat Jun 25 00:11:47 2016
;FORMAT={-:-/ absolute / inch / decimal}
FMAT,2
INCH,TZ
T1C0.016
T2C0.032
T3C0.039
T4C0.040
T5C0.091
T6C0.126
%
G90
G05
M72
T1
X4.8875Y-3.495
X4.9Y-3.665
X4.9475Y-3.7425
X5.15Y-3.6075
X5.15Y-3.985
X5.205Y-4.26
X5.3663Y-4.565
X5.405Y-4.845
X5.4545Y-4.2825
X5.6025Y-4.84
X5.605Y-4.72
X5.62Y-4.3825
X5.685Y-4.895
X5.715Y-3.775
X5.7685Y-4.525
X5.79Y-3.955
X5.8Y-4.175
X5.8Y-4.525
X5.8146Y-3.989
X5.8335Y-4.525
X5.865Y-4.525
X5.9075Y-3.7025
X5.95Y-3.5
X5.95Y-3.865
X5.9775Y-4.3525
X5.995Y-4.1325
X6.Y-3.985
X6.05Y-3.985
X6.08Y-4.2825
X6.1Y-3.985
X6.15Y-3.985
X6.225Y-4.1475
X6.575Y-3.875
T2
X6.2862Y-4.695
X6.2862Y-4.7737
X6.3862Y-4.695
X6.3862Y-4.7737
T3
X4.745Y-4.035
X4.75Y-4.375
X4.76Y-4.72
X4.845Y-4.035
X4.85Y-4.375
X4.86Y-4.72
T4
X5.2075Y-2.953
X5.2075Y-3.122
X5.2925Y-2.953
X5.2925Y-3.122
X5.3775Y-2.953
X5.3775Y-3.122
X5.4625Y-2.953
X5.4625Y-3.122
X5.5475Y-2.953
X5.5475Y-3.122
X5.6325Y-2.953
X5.6325Y-3.122
X5.7175Y-2.953
X5.7175Y-3.122
X5.8025Y-2.953
X5.8025Y-3.122
X5.8875Y-2.953
X5.8875Y-3.122
X5.9725Y-2.953
X5.9725Y-3.122
X6.0575Y-2.953
X6.0575Y-3.122
X6.1425Y-2.953
X6.1425Y-3.122
T5
X6.1Y-4.88
X6.5724Y-4.88
T6
X4.7535Y-3.0375
X6.5965Y-3.0375
T0
M30
