M48
;DRILL file {KiCad no-vcs-found-product} date Sa 10 Okt 2015 23:31:46 CEST
;FORMAT={-:-/ absolute / inch / decimal}
FMAT,2
INCH,TZ
T1C0.016
T2C0.037
T3C0.039
T4C0.091
%
G90
G05
M72
T1
X4.5787Y-4.2835
X4.7234Y-3.9538
X4.752Y-3.8307
X4.764Y-3.9833
X4.878Y-3.7362
X4.9331Y-4.0866
X4.937Y-3.5591
X5.0318Y-3.5797
X5.1024Y-3.126
X5.1145Y-3.8471
X5.1969Y-3.4016
X5.315Y-3.4961
X5.3425Y-3.4646
X5.5039Y-3.4094
X5.5236Y-3.0039
X5.6339Y-3.0039
X5.6339Y-3.9291
X5.7047Y-4.0945
X5.7835Y-3.5079
X5.7874Y-3.9016
X5.7992Y-3.2559
X5.7992Y-3.8661
X5.815Y-3.5276
X5.8465Y-3.4961
X5.874Y-3.4646
X5.9055Y-3.4331
X5.9665Y-4.128
X6.0453Y-4.1516
X6.0767Y-3.938
X6.2795Y-4.3622
X6.2933Y-3.75
X6.3425Y-3.6457
X6.3504Y-4.2362
X6.6063Y-3.0276
X6.6132Y-3.6073
X6.6457Y-4.3543
X6.7835Y-3.5079
X6.7835Y-4.
X6.7874Y-3.4055
X6.7874Y-3.4567
T2
X4.6809Y-3.4217
X4.6809Y-3.5197
X4.7599Y-3.4217
X4.7599Y-3.5197
T3
X5.6071Y-4.2701
X5.6071Y-4.3701
X5.7071Y-4.2701
X5.7071Y-4.3701
X5.8071Y-4.2701
X5.8071Y-4.3701
X5.8921Y-3.0346
X5.8921Y-3.1346
X5.9921Y-3.0346
X5.9921Y-3.1346
X6.0921Y-3.0346
X6.0921Y-3.1346
X7.0583Y-3.1134
X7.0583Y-3.2134
X7.0583Y-3.3134
X7.0583Y-3.4134
X7.0583Y-3.5134
X7.0583Y-3.6134
X7.0583Y-3.7134
X7.0583Y-3.8134
X7.0583Y-3.9134
X7.0583Y-4.0134
X7.0583Y-4.1134
X7.0583Y-4.2134
X7.1583Y-3.1134
X7.1583Y-3.2134
X7.1583Y-3.3134
X7.1583Y-3.4134
X7.1583Y-3.5134
X7.1583Y-3.6134
X7.1583Y-3.7134
X7.1583Y-3.8134
X7.1583Y-3.9134
X7.1583Y-4.0134
X7.1583Y-4.1134
X7.1583Y-4.2134
T4
X4.5739Y-3.2337
X4.5739Y-3.7077
T0
M30
