G04 #@! TF.FileFunction,Copper,L2,Bot,Signal*
%FSLAX46Y46*%
G04 Gerber Fmt 4.6, Leading zero omitted, Abs format (unit mm)*
G04 Created by KiCad (PCBNEW no-vcs-found-product) date Mi 14 Okt 2015 21:54:47 CEST*
%MOMM*%
G01*
G04 APERTURE LIST*
%ADD10C,0.100000*%
%ADD11C,1.501140*%
%ADD12C,3.500120*%
%ADD13R,1.998980X1.524000*%
%ADD14O,1.998980X1.524000*%
%ADD15R,1.524000X1.998980*%
%ADD16O,1.524000X1.998980*%
%ADD17C,0.600000*%
%ADD18C,0.250000*%
%ADD19C,0.254000*%
G04 APERTURE END LIST*
D10*
D11*
X119017800Y-90935600D03*
X119017800Y-93424800D03*
X121024400Y-93424800D03*
X121024400Y-90935600D03*
D12*
X116300000Y-86160400D03*
X116300000Y-98200000D03*
D13*
X178301080Y-80100000D03*
D14*
X181338920Y-80100000D03*
X178301080Y-82640000D03*
X181338920Y-82640000D03*
X178301080Y-85180000D03*
X181338920Y-85180000D03*
X178301080Y-87720000D03*
X181338920Y-87720000D03*
X178301080Y-90260000D03*
X181338920Y-90260000D03*
X178301080Y-92800000D03*
X181338920Y-92800000D03*
X178301080Y-95340000D03*
X181338920Y-95340000D03*
X178301080Y-97880000D03*
X181338920Y-97880000D03*
X178301080Y-100420000D03*
X181338920Y-100420000D03*
X178301080Y-102960000D03*
X181338920Y-102960000D03*
X178301080Y-105500000D03*
X181338920Y-105500000D03*
X178301080Y-108040000D03*
X181338920Y-108040000D03*
D13*
X131281080Y-89760000D03*
D14*
X134318920Y-89760000D03*
X131281080Y-92300000D03*
X134318920Y-92300000D03*
X131281080Y-94840000D03*
X134318920Y-94840000D03*
D15*
X144120000Y-80218920D03*
D16*
X144120000Y-77181080D03*
X146660000Y-80218920D03*
X146660000Y-77181080D03*
X149200000Y-80218920D03*
X149200000Y-77181080D03*
X151740000Y-80218920D03*
X151740000Y-77181080D03*
X154280000Y-80218920D03*
X154280000Y-77181080D03*
D17*
X170900000Y-79280000D03*
X120340000Y-105050000D03*
X170810000Y-94560000D03*
X149550000Y-86450000D03*
X163730000Y-77670000D03*
X144770000Y-102370000D03*
X130570000Y-106900000D03*
X129080000Y-110340000D03*
X134900000Y-102750000D03*
X146030000Y-112530000D03*
X158640000Y-111740000D03*
X168440000Y-110070000D03*
X131190000Y-85460000D03*
X136930000Y-81150000D03*
X141540000Y-86720000D03*
X142115000Y-112495000D03*
X137550000Y-88750000D03*
X140540000Y-90780000D03*
X150437500Y-110928500D03*
X137200000Y-96650000D03*
X143179000Y-102664200D03*
X128770000Y-98500000D03*
X149390000Y-99160000D03*
X148740000Y-99785020D03*
X128870000Y-100580000D03*
X172250000Y-96400000D03*
X172250000Y-97650000D03*
X172820000Y-86620000D03*
X172680000Y-87920000D03*
X172570000Y-89180000D03*
X172640000Y-90450000D03*
X125207500Y-106858400D03*
X121234600Y-102359600D03*
X168650000Y-96501928D03*
X151760000Y-97130000D03*
X163480000Y-89830000D03*
X152850000Y-94750000D03*
X163130000Y-95260000D03*
X152830000Y-96360000D03*
X127800000Y-92750000D03*
X137550000Y-89550000D03*
X128650000Y-96050000D03*
X137700000Y-90350000D03*
X147150000Y-83600000D03*
X148740000Y-83780000D03*
D18*
X146030000Y-112530000D02*
X146030000Y-112550000D01*
X158640000Y-111740000D02*
X158540000Y-111740000D01*
X141540000Y-86720000D02*
X141530000Y-86720000D01*
X131281000Y-89568900D02*
X131281000Y-89664400D01*
X132300000Y-88550000D02*
X131281000Y-89568900D01*
X136926000Y-88550000D02*
X132300000Y-88550000D01*
X137126000Y-88750000D02*
X136926000Y-88550000D01*
X137550000Y-88750000D02*
X137126000Y-88750000D01*
X131281000Y-89664400D02*
X131281000Y-89760000D01*
X131434400Y-89664400D02*
X131530000Y-89760000D01*
X131281000Y-89664400D02*
X131434400Y-89664400D01*
X149200000Y-77420000D02*
X147930000Y-78690000D01*
X147930000Y-78690000D02*
X147930000Y-80971000D01*
X149200000Y-77181080D02*
X149200000Y-77420000D01*
X140540000Y-90780000D02*
X140540000Y-90757100D01*
X150437500Y-110928500D02*
X143179000Y-103670000D01*
X137200000Y-96650000D02*
X137184900Y-96650000D01*
X137184900Y-96650000D02*
X137184900Y-94112200D01*
X145271900Y-86025200D02*
X140540000Y-90757100D01*
X140540000Y-90757100D02*
X137184900Y-94112200D01*
X145271900Y-83629100D02*
X145271900Y-86025200D01*
X147930000Y-80971000D02*
X145271900Y-83629100D01*
X143179000Y-103670000D02*
X143179000Y-102664200D01*
X149390000Y-99160000D02*
X129430000Y-99160000D01*
X129430000Y-99160000D02*
X128770000Y-98500000D01*
X129664980Y-99785020D02*
X148740000Y-99785020D01*
X128870000Y-100580000D02*
X129664980Y-99785020D01*
X176960000Y-102960000D02*
X178550000Y-102960000D01*
X173050000Y-99050000D02*
X176960000Y-102960000D01*
X173050000Y-97200000D02*
X173050000Y-99050000D01*
X172250000Y-96400000D02*
X173050000Y-97200000D01*
X178064000Y-105500000D02*
X178550000Y-105500000D01*
X172250000Y-99686400D02*
X178064000Y-105500000D01*
X172250000Y-97650000D02*
X172250000Y-99686400D01*
X179930000Y-81370000D02*
X181090000Y-80210000D01*
X175480000Y-81370000D02*
X179930000Y-81370000D01*
X173510000Y-83340000D02*
X175480000Y-81370000D01*
X173510000Y-85930000D02*
X173510000Y-83340000D01*
X172820000Y-86620000D02*
X173510000Y-85930000D01*
X181090000Y-80210000D02*
X181090000Y-80100000D01*
X181101000Y-80100000D02*
X181339000Y-80100000D01*
X181090000Y-80111000D02*
X181101000Y-80100000D01*
X181090000Y-80111000D02*
X181090000Y-80100000D01*
X172680000Y-87920000D02*
X174240000Y-86360000D01*
X174240000Y-86360000D02*
X174240000Y-84750000D01*
X174240000Y-84750000D02*
X175050000Y-83940000D01*
X175050000Y-83940000D02*
X179801430Y-83940000D01*
X179801430Y-83940000D02*
X181101430Y-82640000D01*
X181101430Y-82640000D02*
X181338920Y-82640000D01*
X181101000Y-82640000D02*
X181339000Y-82640000D01*
X181090000Y-82651000D02*
X181101000Y-82640000D01*
X181090000Y-82651000D02*
X181090000Y-82640000D01*
X172570000Y-89180000D02*
X173070000Y-89180000D01*
X173070000Y-89180000D02*
X175800000Y-86450000D01*
X175800000Y-86450000D02*
X180000000Y-86450000D01*
X180000000Y-86450000D02*
X181270000Y-85180000D01*
X181270000Y-85180000D02*
X181338920Y-85180000D01*
X181101000Y-85180000D02*
X181339000Y-85180000D01*
X181090000Y-85191000D02*
X181101000Y-85180000D01*
X181090000Y-85191000D02*
X181090000Y-85180000D01*
X172640000Y-90450000D02*
X174030000Y-90450000D01*
X174030000Y-90450000D02*
X175460000Y-89020000D01*
X175460000Y-89020000D02*
X179801430Y-89020000D01*
X179801430Y-89020000D02*
X181101430Y-87720000D01*
X181101430Y-87720000D02*
X181338920Y-87720000D01*
X121234600Y-102885500D02*
X121234600Y-102359600D01*
X125207500Y-106858400D02*
X121234600Y-102885500D01*
X154328072Y-96501928D02*
X168650000Y-96501928D01*
X151760000Y-97130000D02*
X153700000Y-97130000D01*
X153700000Y-97130000D02*
X154328072Y-96501928D01*
X161199999Y-94450001D02*
X163480000Y-92170000D01*
X163480000Y-92170000D02*
X163480000Y-89830000D01*
X152850000Y-94750000D02*
X153149999Y-94450001D01*
X153149999Y-94450001D02*
X161199999Y-94450001D01*
X162500000Y-95890000D02*
X163130000Y-95260000D01*
X153300000Y-95890000D02*
X162500000Y-95890000D01*
X152830000Y-96360000D02*
X153300000Y-95890000D01*
X129550000Y-91000000D02*
X127800000Y-92750000D01*
X135676000Y-91000000D02*
X129550000Y-91000000D01*
X137126000Y-89550000D02*
X135676000Y-91000000D01*
X137550000Y-89550000D02*
X137126000Y-89550000D01*
X128650000Y-95350000D02*
X128650000Y-96050000D01*
X130350000Y-93650000D02*
X128650000Y-95350000D01*
X135300000Y-93650000D02*
X130350000Y-93650000D01*
X136050000Y-92900000D02*
X135300000Y-93650000D01*
X136050000Y-91575700D02*
X136050000Y-92900000D01*
X137276000Y-90350000D02*
X136050000Y-91575700D01*
X137700000Y-90350000D02*
X137276000Y-90350000D01*
X148500000Y-82250000D02*
X149200000Y-81550000D01*
X149200000Y-81550000D02*
X149200000Y-80218920D01*
X147150000Y-83600000D02*
X148500000Y-82250000D01*
X151730000Y-83760000D02*
X154280000Y-81210000D01*
X148720000Y-83760000D02*
X151730000Y-83760000D01*
X148740000Y-83780000D02*
X148720000Y-83760000D01*
X154280000Y-81210000D02*
X154280000Y-79970000D01*
D19*
G36*
X183690000Y-114490000D02*
X112110000Y-114490000D01*
X112110000Y-102544767D01*
X120299438Y-102544767D01*
X120441483Y-102888543D01*
X120483597Y-102930731D01*
X120532452Y-103176339D01*
X120697199Y-103422901D01*
X124272378Y-106998080D01*
X124272338Y-107043567D01*
X124414383Y-107387343D01*
X124677173Y-107650592D01*
X125020701Y-107793238D01*
X125392667Y-107793562D01*
X125736443Y-107651517D01*
X125999692Y-107388727D01*
X126142338Y-107045199D01*
X126142662Y-106673233D01*
X126000617Y-106329457D01*
X125737827Y-106066208D01*
X125394299Y-105923562D01*
X125347423Y-105923521D01*
X122273269Y-102849367D01*
X142243838Y-102849367D01*
X142385883Y-103193143D01*
X142419000Y-103226318D01*
X142419000Y-103670000D01*
X142476852Y-103960839D01*
X142641599Y-104207401D01*
X149502378Y-111068180D01*
X149502338Y-111113667D01*
X149644383Y-111457443D01*
X149907173Y-111720692D01*
X150250701Y-111863338D01*
X150622667Y-111863662D01*
X150966443Y-111721617D01*
X151229692Y-111458827D01*
X151372338Y-111115299D01*
X151372662Y-110743333D01*
X151230617Y-110399557D01*
X150967827Y-110136308D01*
X150624299Y-109993662D01*
X150577423Y-109993621D01*
X148966872Y-108383070D01*
X176709370Y-108383070D01*
X176726118Y-108474728D01*
X176994290Y-108953465D01*
X177425253Y-109293135D01*
X177953398Y-109442027D01*
X178174080Y-109283254D01*
X178174080Y-108167000D01*
X178428080Y-108167000D01*
X178428080Y-109283254D01*
X178648762Y-109442027D01*
X179176907Y-109293135D01*
X179607870Y-108953465D01*
X179820000Y-108574773D01*
X180032130Y-108953465D01*
X180463093Y-109293135D01*
X180991238Y-109442027D01*
X181211920Y-109283254D01*
X181211920Y-108167000D01*
X181465920Y-108167000D01*
X181465920Y-109283254D01*
X181686602Y-109442027D01*
X182214747Y-109293135D01*
X182645710Y-108953465D01*
X182913882Y-108474728D01*
X182930630Y-108383070D01*
X182808130Y-108167000D01*
X181465920Y-108167000D01*
X181211920Y-108167000D01*
X181211920Y-108167000D01*
X179869710Y-108167000D01*
X179820000Y-108254680D01*
X179770290Y-108167000D01*
X178428080Y-108167000D01*
X178174080Y-108167000D01*
X178174080Y-108167000D01*
X176831870Y-108167000D01*
X176709370Y-108383070D01*
X148966872Y-108383070D01*
X143939000Y-103355198D01*
X143939000Y-103226663D01*
X143971192Y-103194527D01*
X144113838Y-102850999D01*
X144114162Y-102479033D01*
X143972117Y-102135257D01*
X143709327Y-101872008D01*
X143365799Y-101729362D01*
X142993833Y-101729038D01*
X142650057Y-101871083D01*
X142386808Y-102133873D01*
X142244162Y-102477401D01*
X142243838Y-102849367D01*
X122273269Y-102849367D01*
X122111010Y-102687108D01*
X122169438Y-102546399D01*
X122169762Y-102174433D01*
X122027717Y-101830657D01*
X121764927Y-101567408D01*
X121421399Y-101424762D01*
X121049433Y-101424438D01*
X120705657Y-101566483D01*
X120442408Y-101829273D01*
X120299762Y-102172801D01*
X120299438Y-102544767D01*
X112110000Y-102544767D01*
X112110000Y-98672336D01*
X113914527Y-98672336D01*
X114276866Y-99549263D01*
X114947208Y-100220776D01*
X115823501Y-100584645D01*
X116772336Y-100585473D01*
X117649263Y-100223134D01*
X118320776Y-99552792D01*
X118681045Y-98685167D01*
X127834838Y-98685167D01*
X127976883Y-99028943D01*
X128239673Y-99292192D01*
X128583201Y-99434838D01*
X128630077Y-99434879D01*
X128785198Y-99590000D01*
X128730320Y-99644878D01*
X128684833Y-99644838D01*
X128341057Y-99786883D01*
X128077808Y-100049673D01*
X127935162Y-100393201D01*
X127934838Y-100765167D01*
X128076883Y-101108943D01*
X128339673Y-101372192D01*
X128683201Y-101514838D01*
X129055167Y-101515162D01*
X129398943Y-101373117D01*
X129662192Y-101110327D01*
X129804838Y-100766799D01*
X129804879Y-100719924D01*
X129979783Y-100545020D01*
X148177537Y-100545020D01*
X148209673Y-100577212D01*
X148553201Y-100719858D01*
X148925167Y-100720182D01*
X149268943Y-100578137D01*
X149532192Y-100315347D01*
X149633656Y-100070995D01*
X149918943Y-99953117D01*
X150182192Y-99690327D01*
X150324838Y-99346799D01*
X150325162Y-98974833D01*
X150183117Y-98631057D01*
X149920327Y-98367808D01*
X149576799Y-98225162D01*
X149204833Y-98224838D01*
X148861057Y-98366883D01*
X148827882Y-98400000D01*
X129744802Y-98400000D01*
X129705122Y-98360320D01*
X129705162Y-98314833D01*
X129563117Y-97971057D01*
X129300327Y-97707808D01*
X128956799Y-97565162D01*
X128584833Y-97564838D01*
X128241057Y-97706883D01*
X127977808Y-97969673D01*
X127835162Y-98313201D01*
X127834838Y-98685167D01*
X118681045Y-98685167D01*
X118684645Y-98676499D01*
X118685473Y-97727664D01*
X118323134Y-96850737D01*
X117652792Y-96179224D01*
X116776499Y-95815355D01*
X115827664Y-95814527D01*
X114950737Y-96176866D01*
X114279224Y-96847208D01*
X113915355Y-97723501D01*
X113914527Y-98672336D01*
X112110000Y-98672336D01*
X112110000Y-94396730D01*
X118225475Y-94396730D01*
X118293535Y-94637731D01*
X118812834Y-94822567D01*
X119363338Y-94794605D01*
X119742065Y-94637731D01*
X119810125Y-94396730D01*
X119017800Y-93604405D01*
X118225475Y-94396730D01*
X112110000Y-94396730D01*
X112110000Y-93219834D01*
X117620033Y-93219834D01*
X117647995Y-93770338D01*
X117804869Y-94149065D01*
X118045870Y-94217125D01*
X118838195Y-93424800D01*
X118045870Y-92632475D01*
X117804869Y-92700535D01*
X117620033Y-93219834D01*
X112110000Y-93219834D01*
X112110000Y-91209998D01*
X117631990Y-91209998D01*
X117842486Y-91719437D01*
X118231913Y-92109544D01*
X118386051Y-92173548D01*
X118293535Y-92211869D01*
X118225475Y-92452870D01*
X119017800Y-93245195D01*
X119810125Y-92452870D01*
X119742065Y-92211869D01*
X119642809Y-92176540D01*
X119801637Y-92110914D01*
X120021141Y-91891793D01*
X120238513Y-92109544D01*
X120408460Y-92180112D01*
X120240563Y-92249486D01*
X119850456Y-92638913D01*
X119756130Y-92866075D01*
X119197405Y-93424800D01*
X119756030Y-93983425D01*
X119849086Y-94208637D01*
X120238513Y-94598744D01*
X120747584Y-94810129D01*
X121298798Y-94810610D01*
X121808237Y-94600114D01*
X122198344Y-94210687D01*
X122409729Y-93701616D01*
X122410210Y-93150402D01*
X122321277Y-92935167D01*
X126864838Y-92935167D01*
X127006883Y-93278943D01*
X127269673Y-93542192D01*
X127613201Y-93684838D01*
X127985167Y-93685162D01*
X128328943Y-93543117D01*
X128592192Y-93280327D01*
X128734838Y-92936799D01*
X128734879Y-92889923D01*
X129686517Y-91938285D01*
X129614568Y-92300000D01*
X129720908Y-92834609D01*
X129877624Y-93069151D01*
X129812599Y-93112599D01*
X128112599Y-94812599D01*
X127947852Y-95059161D01*
X127890000Y-95350000D01*
X127890000Y-95487537D01*
X127857808Y-95519673D01*
X127715162Y-95863201D01*
X127714838Y-96235167D01*
X127856883Y-96578943D01*
X128119673Y-96842192D01*
X128463201Y-96984838D01*
X128835167Y-96985162D01*
X129178943Y-96843117D01*
X129186906Y-96835167D01*
X136264838Y-96835167D01*
X136406883Y-97178943D01*
X136669673Y-97442192D01*
X137013201Y-97584838D01*
X137385167Y-97585162D01*
X137728943Y-97443117D01*
X137857116Y-97315167D01*
X150824838Y-97315167D01*
X150966883Y-97658943D01*
X151229673Y-97922192D01*
X151573201Y-98064838D01*
X151945167Y-98065162D01*
X152288943Y-97923117D01*
X152322118Y-97890000D01*
X153700000Y-97890000D01*
X153990839Y-97832148D01*
X154237401Y-97667401D01*
X154642874Y-97261928D01*
X168087537Y-97261928D01*
X168119673Y-97294120D01*
X168463201Y-97436766D01*
X168835167Y-97437090D01*
X169178943Y-97295045D01*
X169442192Y-97032255D01*
X169584838Y-96688727D01*
X169584928Y-96585167D01*
X171314838Y-96585167D01*
X171456883Y-96928943D01*
X171552710Y-97024937D01*
X171457808Y-97119673D01*
X171315162Y-97463201D01*
X171314838Y-97835167D01*
X171456883Y-98178943D01*
X171490000Y-98212118D01*
X171490000Y-99686400D01*
X171490003Y-99686413D01*
X171490000Y-99686426D01*
X171519341Y-99833907D01*
X171547852Y-99977239D01*
X171547859Y-99977250D01*
X171547862Y-99977264D01*
X171639841Y-100114911D01*
X171712599Y-100223801D01*
X171712609Y-100223807D01*
X171712617Y-100223820D01*
X176693395Y-105204255D01*
X176634568Y-105500000D01*
X176740908Y-106034609D01*
X177043740Y-106487828D01*
X177471688Y-106773774D01*
X177425253Y-106786865D01*
X176994290Y-107126535D01*
X176726118Y-107605272D01*
X176709370Y-107696930D01*
X176831870Y-107913000D01*
X178174080Y-107913000D01*
X178174080Y-107893000D01*
X178428080Y-107893000D01*
X178428080Y-107913000D01*
X179770290Y-107913000D01*
X179820000Y-107825320D01*
X179869710Y-107913000D01*
X181211920Y-107913000D01*
X181211920Y-106796746D01*
X181174745Y-106770000D01*
X181211920Y-106743254D01*
X181211920Y-105627000D01*
X181465920Y-105627000D01*
X181465920Y-106743254D01*
X181503095Y-106770000D01*
X181465920Y-106796746D01*
X181465920Y-107913000D01*
X182808130Y-107913000D01*
X182930630Y-107696930D01*
X182913882Y-107605272D01*
X182645710Y-107126535D01*
X182214747Y-106786865D01*
X182154924Y-106770000D01*
X182214747Y-106753135D01*
X182645710Y-106413465D01*
X182913882Y-105934728D01*
X182930630Y-105843070D01*
X182808130Y-105627000D01*
X181465920Y-105627000D01*
X181211920Y-105627000D01*
X181211920Y-105627000D01*
X181191920Y-105627000D01*
X181191920Y-105373000D01*
X181211920Y-105373000D01*
X181211920Y-104256746D01*
X181174745Y-104230000D01*
X181211920Y-104203254D01*
X181211920Y-103087000D01*
X181465920Y-103087000D01*
X181465920Y-104203254D01*
X181503095Y-104230000D01*
X181465920Y-104256746D01*
X181465920Y-105373000D01*
X182808130Y-105373000D01*
X182930630Y-105156930D01*
X182913882Y-105065272D01*
X182645710Y-104586535D01*
X182214747Y-104246865D01*
X182154924Y-104230000D01*
X182214747Y-104213135D01*
X182645710Y-103873465D01*
X182913882Y-103394728D01*
X182930630Y-103303070D01*
X182808130Y-103087000D01*
X181465920Y-103087000D01*
X181211920Y-103087000D01*
X181211920Y-103087000D01*
X181191920Y-103087000D01*
X181191920Y-102833000D01*
X181211920Y-102833000D01*
X181211920Y-101716746D01*
X181174745Y-101690000D01*
X181211920Y-101663254D01*
X181211920Y-100547000D01*
X181465920Y-100547000D01*
X181465920Y-101663254D01*
X181503095Y-101690000D01*
X181465920Y-101716746D01*
X181465920Y-102833000D01*
X182808130Y-102833000D01*
X182930630Y-102616930D01*
X182913882Y-102525272D01*
X182645710Y-102046535D01*
X182214747Y-101706865D01*
X182154924Y-101690000D01*
X182214747Y-101673135D01*
X182645710Y-101333465D01*
X182913882Y-100854728D01*
X182930630Y-100763070D01*
X182808130Y-100547000D01*
X181465920Y-100547000D01*
X181211920Y-100547000D01*
X181211920Y-100547000D01*
X181191920Y-100547000D01*
X181191920Y-100293000D01*
X181211920Y-100293000D01*
X181211920Y-99176746D01*
X181174745Y-99150000D01*
X181211920Y-99123254D01*
X181211920Y-98007000D01*
X181465920Y-98007000D01*
X181465920Y-99123254D01*
X181503095Y-99150000D01*
X181465920Y-99176746D01*
X181465920Y-100293000D01*
X182808130Y-100293000D01*
X182930630Y-100076930D01*
X182913882Y-99985272D01*
X182645710Y-99506535D01*
X182214747Y-99166865D01*
X182154924Y-99150000D01*
X182214747Y-99133135D01*
X182645710Y-98793465D01*
X182913882Y-98314728D01*
X182930630Y-98223070D01*
X182808130Y-98007000D01*
X181465920Y-98007000D01*
X181211920Y-98007000D01*
X181211920Y-98007000D01*
X181191920Y-98007000D01*
X181191920Y-97753000D01*
X181211920Y-97753000D01*
X181211920Y-96636746D01*
X181174745Y-96610000D01*
X181211920Y-96583254D01*
X181211920Y-95467000D01*
X181465920Y-95467000D01*
X181465920Y-96583254D01*
X181503095Y-96610000D01*
X181465920Y-96636746D01*
X181465920Y-97753000D01*
X182808130Y-97753000D01*
X182930630Y-97536930D01*
X182913882Y-97445272D01*
X182645710Y-96966535D01*
X182214747Y-96626865D01*
X182154924Y-96610000D01*
X182214747Y-96593135D01*
X182645710Y-96253465D01*
X182913882Y-95774728D01*
X182930630Y-95683070D01*
X182808130Y-95467000D01*
X181465920Y-95467000D01*
X181211920Y-95467000D01*
X181211920Y-95467000D01*
X181191920Y-95467000D01*
X181191920Y-95213000D01*
X181211920Y-95213000D01*
X181211920Y-94096746D01*
X181174745Y-94070000D01*
X181211920Y-94043254D01*
X181211920Y-92927000D01*
X181465920Y-92927000D01*
X181465920Y-94043254D01*
X181503095Y-94070000D01*
X181465920Y-94096746D01*
X181465920Y-95213000D01*
X182808130Y-95213000D01*
X182930630Y-94996930D01*
X182913882Y-94905272D01*
X182645710Y-94426535D01*
X182214747Y-94086865D01*
X182154924Y-94070000D01*
X182214747Y-94053135D01*
X182645710Y-93713465D01*
X182913882Y-93234728D01*
X182930630Y-93143070D01*
X182808130Y-92927000D01*
X181465920Y-92927000D01*
X181211920Y-92927000D01*
X181211920Y-92927000D01*
X181191920Y-92927000D01*
X181191920Y-92673000D01*
X181211920Y-92673000D01*
X181211920Y-92653000D01*
X181465920Y-92653000D01*
X181465920Y-92673000D01*
X182808130Y-92673000D01*
X182930630Y-92456930D01*
X182913882Y-92365272D01*
X182645710Y-91886535D01*
X182214747Y-91546865D01*
X182168312Y-91533774D01*
X182596260Y-91247828D01*
X182899092Y-90794609D01*
X183005432Y-90260000D01*
X182899092Y-89725391D01*
X182596260Y-89272172D01*
X182173961Y-88990000D01*
X182596260Y-88707828D01*
X182899092Y-88254609D01*
X183005432Y-87720000D01*
X182899092Y-87185391D01*
X182596260Y-86732172D01*
X182173961Y-86450000D01*
X182596260Y-86167828D01*
X182899092Y-85714609D01*
X183005432Y-85180000D01*
X182899092Y-84645391D01*
X182596260Y-84192172D01*
X182173961Y-83910000D01*
X182596260Y-83627828D01*
X182899092Y-83174609D01*
X183005432Y-82640000D01*
X182899092Y-82105391D01*
X182596260Y-81652172D01*
X182173961Y-81370000D01*
X182596260Y-81087828D01*
X182899092Y-80634609D01*
X183005432Y-80100000D01*
X182899092Y-79565391D01*
X182596260Y-79112172D01*
X182143041Y-78809340D01*
X181608432Y-78703000D01*
X181069408Y-78703000D01*
X180534799Y-78809340D01*
X180081580Y-79112172D01*
X179944112Y-79317907D01*
X179901033Y-79095877D01*
X179761243Y-78883073D01*
X179550210Y-78740623D01*
X179300570Y-78690560D01*
X177301590Y-78690560D01*
X177059467Y-78737537D01*
X176846663Y-78877327D01*
X176704213Y-79088360D01*
X176654150Y-79338000D01*
X176654150Y-80610000D01*
X175480000Y-80610000D01*
X175189161Y-80667852D01*
X174942599Y-80832599D01*
X172972599Y-82802599D01*
X172807852Y-83049161D01*
X172750000Y-83340000D01*
X172750000Y-85615198D01*
X172680320Y-85684878D01*
X172634833Y-85684838D01*
X172291057Y-85826883D01*
X172027808Y-86089673D01*
X171885162Y-86433201D01*
X171884838Y-86805167D01*
X172026883Y-87148943D01*
X172077832Y-87199981D01*
X171887808Y-87389673D01*
X171745162Y-87733201D01*
X171744838Y-88105167D01*
X171886883Y-88448943D01*
X171932806Y-88494946D01*
X171777808Y-88649673D01*
X171635162Y-88993201D01*
X171634838Y-89365167D01*
X171776883Y-89708943D01*
X171917648Y-89849954D01*
X171847808Y-89919673D01*
X171705162Y-90263201D01*
X171704838Y-90635167D01*
X171846883Y-90978943D01*
X172109673Y-91242192D01*
X172453201Y-91384838D01*
X172825167Y-91385162D01*
X173168943Y-91243117D01*
X173202118Y-91210000D01*
X174030000Y-91210000D01*
X174320839Y-91152148D01*
X174567401Y-90987401D01*
X175774802Y-89780000D01*
X176730046Y-89780000D01*
X176634568Y-90260000D01*
X176740908Y-90794609D01*
X177043740Y-91247828D01*
X177466039Y-91530000D01*
X177043740Y-91812172D01*
X176740908Y-92265391D01*
X176634568Y-92800000D01*
X176740908Y-93334609D01*
X177043740Y-93787828D01*
X177466039Y-94070000D01*
X177043740Y-94352172D01*
X176740908Y-94805391D01*
X176634568Y-95340000D01*
X176740908Y-95874609D01*
X177043740Y-96327828D01*
X177466039Y-96610000D01*
X177043740Y-96892172D01*
X176740908Y-97345391D01*
X176634568Y-97880000D01*
X176740908Y-98414609D01*
X177043740Y-98867828D01*
X177466039Y-99150000D01*
X177043740Y-99432172D01*
X176740908Y-99885391D01*
X176634568Y-100420000D01*
X176740908Y-100954609D01*
X177043740Y-101407828D01*
X177466039Y-101690000D01*
X177045679Y-101970877D01*
X173810000Y-98735198D01*
X173810000Y-97200000D01*
X173752148Y-96909161D01*
X173587401Y-96662599D01*
X173185122Y-96260320D01*
X173185162Y-96214833D01*
X173043117Y-95871057D01*
X172780327Y-95607808D01*
X172436799Y-95465162D01*
X172064833Y-95464838D01*
X171721057Y-95606883D01*
X171457808Y-95869673D01*
X171315162Y-96213201D01*
X171314838Y-96585167D01*
X169584928Y-96585167D01*
X169585162Y-96316761D01*
X169443117Y-95972985D01*
X169180327Y-95709736D01*
X168836799Y-95567090D01*
X168464833Y-95566766D01*
X168121057Y-95708811D01*
X168087882Y-95741928D01*
X163942289Y-95741928D01*
X164064838Y-95446799D01*
X164065162Y-95074833D01*
X163923117Y-94731057D01*
X163660327Y-94467808D01*
X163316799Y-94325162D01*
X162944833Y-94324838D01*
X162601057Y-94466883D01*
X162337808Y-94729673D01*
X162195162Y-95073201D01*
X162195121Y-95120077D01*
X162185198Y-95130000D01*
X161523986Y-95130000D01*
X161737400Y-94987402D01*
X164017401Y-92707401D01*
X164182148Y-92460840D01*
X164240000Y-92170000D01*
X164240000Y-90392463D01*
X164272192Y-90360327D01*
X164414838Y-90016799D01*
X164415162Y-89644833D01*
X164273117Y-89301057D01*
X164010327Y-89037808D01*
X163666799Y-88895162D01*
X163294833Y-88894838D01*
X162951057Y-89036883D01*
X162687808Y-89299673D01*
X162545162Y-89643201D01*
X162544838Y-90015167D01*
X162686883Y-90358943D01*
X162720000Y-90392118D01*
X162720000Y-91855198D01*
X160885197Y-93690001D01*
X153149999Y-93690001D01*
X152859160Y-93747853D01*
X152758787Y-93814920D01*
X152664833Y-93814838D01*
X152321057Y-93956883D01*
X152057808Y-94219673D01*
X151915162Y-94563201D01*
X151914838Y-94935167D01*
X152056883Y-95278943D01*
X152319673Y-95542192D01*
X152340193Y-95550713D01*
X152301057Y-95566883D01*
X152037808Y-95829673D01*
X151895162Y-96173201D01*
X151895143Y-96195117D01*
X151574833Y-96194838D01*
X151231057Y-96336883D01*
X150967808Y-96599673D01*
X150825162Y-96943201D01*
X150824838Y-97315167D01*
X137857116Y-97315167D01*
X137992192Y-97180327D01*
X138134838Y-96836799D01*
X138135162Y-96464833D01*
X137993117Y-96121057D01*
X137944900Y-96072756D01*
X137944900Y-94427002D01*
X140656800Y-91715102D01*
X140725167Y-91715162D01*
X141068943Y-91573117D01*
X141332192Y-91310327D01*
X141474838Y-90966799D01*
X141474899Y-90897003D01*
X145809301Y-86562601D01*
X145974048Y-86316039D01*
X146031900Y-86025200D01*
X146031900Y-83943902D01*
X146214859Y-83760943D01*
X146214838Y-83785167D01*
X146356883Y-84128943D01*
X146619673Y-84392192D01*
X146963201Y-84534838D01*
X147335167Y-84535162D01*
X147678943Y-84393117D01*
X147893263Y-84179171D01*
X147946883Y-84308943D01*
X148209673Y-84572192D01*
X148553201Y-84714838D01*
X148925167Y-84715162D01*
X149268943Y-84573117D01*
X149322153Y-84520000D01*
X151730000Y-84520000D01*
X152020839Y-84462148D01*
X152267401Y-84297401D01*
X154778534Y-81786268D01*
X154814609Y-81779092D01*
X155267828Y-81476260D01*
X155570660Y-81023041D01*
X155677000Y-80488432D01*
X155677000Y-79949408D01*
X155570660Y-79414799D01*
X155267828Y-78961580D01*
X154848267Y-78681238D01*
X155193465Y-78487870D01*
X155533135Y-78056907D01*
X155682027Y-77528762D01*
X155523254Y-77308080D01*
X154407000Y-77308080D01*
X154407000Y-77328080D01*
X154153000Y-77328080D01*
X154153000Y-77308080D01*
X154133000Y-77308080D01*
X154133000Y-77054080D01*
X154153000Y-77054080D01*
X154153000Y-75711870D01*
X154407000Y-75711870D01*
X154407000Y-77054080D01*
X155523254Y-77054080D01*
X155682027Y-76833398D01*
X155533135Y-76305253D01*
X155193465Y-75874290D01*
X154714728Y-75606118D01*
X154623070Y-75589370D01*
X154407000Y-75711870D01*
X154153000Y-75711870D01*
X154153000Y-75711870D01*
X153936930Y-75589370D01*
X153845272Y-75606118D01*
X153366535Y-75874290D01*
X153026865Y-76305253D01*
X153013774Y-76351688D01*
X152727828Y-75923740D01*
X152274609Y-75620908D01*
X151740000Y-75514568D01*
X151205391Y-75620908D01*
X150752172Y-75923740D01*
X150470000Y-76346039D01*
X150187828Y-75923740D01*
X149734609Y-75620908D01*
X149200000Y-75514568D01*
X148665391Y-75620908D01*
X148212172Y-75923740D01*
X147930000Y-76346039D01*
X147647828Y-75923740D01*
X147194609Y-75620908D01*
X146660000Y-75514568D01*
X146125391Y-75620908D01*
X145672172Y-75923740D01*
X145386226Y-76351688D01*
X145373135Y-76305253D01*
X145033465Y-75874290D01*
X144554728Y-75606118D01*
X144463070Y-75589370D01*
X144247000Y-75711870D01*
X144247000Y-77054080D01*
X144267000Y-77054080D01*
X144267000Y-77308080D01*
X144247000Y-77308080D01*
X144247000Y-77328080D01*
X143993000Y-77328080D01*
X143993000Y-77308080D01*
X142876746Y-77308080D01*
X142717973Y-77528762D01*
X142866865Y-78056907D01*
X143206535Y-78487870D01*
X143357038Y-78572177D01*
X143115877Y-78618967D01*
X142903073Y-78758757D01*
X142760623Y-78969790D01*
X142710560Y-79219430D01*
X142710560Y-81218410D01*
X142757537Y-81460533D01*
X142897327Y-81673337D01*
X143108360Y-81815787D01*
X143358000Y-81865850D01*
X144882000Y-81865850D01*
X145124123Y-81818873D01*
X145336927Y-81679083D01*
X145479377Y-81468050D01*
X145522617Y-81252435D01*
X145672172Y-81476260D01*
X146078463Y-81747735D01*
X144734499Y-83091699D01*
X144569752Y-83338261D01*
X144511900Y-83629100D01*
X144511900Y-85710398D01*
X140377440Y-89844858D01*
X140354833Y-89844838D01*
X140011057Y-89986883D01*
X139747808Y-90249673D01*
X139605162Y-90593201D01*
X139605141Y-90617157D01*
X136647499Y-93574799D01*
X136482752Y-93821361D01*
X136424900Y-94112200D01*
X136424900Y-96102611D01*
X136407808Y-96119673D01*
X136265162Y-96463201D01*
X136264838Y-96835167D01*
X129186906Y-96835167D01*
X129442192Y-96580327D01*
X129584838Y-96236799D01*
X129585162Y-95864833D01*
X129475463Y-95599339D01*
X129717471Y-95357331D01*
X129720908Y-95374609D01*
X130023740Y-95827828D01*
X130476959Y-96130660D01*
X131011568Y-96237000D01*
X131550592Y-96237000D01*
X132085201Y-96130660D01*
X132538420Y-95827828D01*
X132818762Y-95408267D01*
X133012130Y-95753465D01*
X133443093Y-96093135D01*
X133971238Y-96242027D01*
X134191920Y-96083254D01*
X134191920Y-94967000D01*
X134445920Y-94967000D01*
X134445920Y-96083254D01*
X134666602Y-96242027D01*
X135194747Y-96093135D01*
X135625710Y-95753465D01*
X135893882Y-95274728D01*
X135910630Y-95183070D01*
X135788130Y-94967000D01*
X134445920Y-94967000D01*
X134191920Y-94967000D01*
X134191920Y-94967000D01*
X134171920Y-94967000D01*
X134171920Y-94713000D01*
X134191920Y-94713000D01*
X134191920Y-94693000D01*
X134445920Y-94693000D01*
X134445920Y-94713000D01*
X135788130Y-94713000D01*
X135910630Y-94496930D01*
X135893882Y-94405272D01*
X135789694Y-94219278D01*
X135837401Y-94187401D01*
X136587401Y-93437401D01*
X136752148Y-93190840D01*
X136810000Y-92900000D01*
X136810000Y-91890557D01*
X137444431Y-91256282D01*
X137513201Y-91284838D01*
X137885167Y-91285162D01*
X138228943Y-91143117D01*
X138492192Y-90880327D01*
X138634838Y-90536799D01*
X138635162Y-90164833D01*
X138493117Y-89821057D01*
X138462561Y-89790448D01*
X138484838Y-89736799D01*
X138485162Y-89364833D01*
X138396352Y-89149896D01*
X138484838Y-88936799D01*
X138485162Y-88564833D01*
X138343117Y-88221057D01*
X138080327Y-87957808D01*
X137736799Y-87815162D01*
X137364833Y-87814838D01*
X137242858Y-87865237D01*
X137216839Y-87847852D01*
X136926000Y-87790000D01*
X132300000Y-87790000D01*
X132153392Y-87819163D01*
X132009195Y-87847838D01*
X132009180Y-87847848D01*
X132009161Y-87847852D01*
X131892021Y-87926122D01*
X131762625Y-88012572D01*
X131424604Y-88350560D01*
X130281590Y-88350560D01*
X130039467Y-88397537D01*
X129826663Y-88537327D01*
X129684213Y-88748360D01*
X129634150Y-88998000D01*
X129634150Y-90240000D01*
X129550000Y-90240000D01*
X129259161Y-90297852D01*
X129012599Y-90462599D01*
X127660320Y-91814878D01*
X127614833Y-91814838D01*
X127271057Y-91956883D01*
X127007808Y-92219673D01*
X126865162Y-92563201D01*
X126864838Y-92935167D01*
X122321277Y-92935167D01*
X122199714Y-92640963D01*
X121810287Y-92250856D01*
X121640340Y-92180288D01*
X121808237Y-92110914D01*
X122198344Y-91721487D01*
X122409729Y-91212416D01*
X122410210Y-90661202D01*
X122199714Y-90151763D01*
X121810287Y-89761656D01*
X121301216Y-89550271D01*
X120750002Y-89549790D01*
X120240563Y-89760286D01*
X120021059Y-89979407D01*
X119803687Y-89761656D01*
X119294616Y-89550271D01*
X118743402Y-89549790D01*
X118233963Y-89760286D01*
X117843856Y-90149713D01*
X117632471Y-90658784D01*
X117631990Y-91209998D01*
X112110000Y-91209998D01*
X112110000Y-87854971D01*
X114785034Y-87854971D01*
X114975328Y-88199719D01*
X115856576Y-88551415D01*
X116805332Y-88539101D01*
X117624672Y-88199719D01*
X117814966Y-87854971D01*
X116300000Y-86340005D01*
X114785034Y-87854971D01*
X112110000Y-87854971D01*
X112110000Y-85716976D01*
X113908985Y-85716976D01*
X113921299Y-86665732D01*
X114260681Y-87485072D01*
X114605429Y-87675366D01*
X116120395Y-86160400D01*
X116479605Y-86160400D01*
X117994571Y-87675366D01*
X118339319Y-87485072D01*
X118691015Y-86603824D01*
X118678701Y-85655068D01*
X118339319Y-84835728D01*
X117994571Y-84645434D01*
X116479605Y-86160400D01*
X116120395Y-86160400D01*
X116120395Y-86160400D01*
X114605429Y-84645434D01*
X114260681Y-84835728D01*
X113908985Y-85716976D01*
X112110000Y-85716976D01*
X112110000Y-84465829D01*
X114785034Y-84465829D01*
X116300000Y-85980795D01*
X117814966Y-84465829D01*
X117624672Y-84121081D01*
X116743424Y-83769385D01*
X115794668Y-83781699D01*
X114975328Y-84121081D01*
X114785034Y-84465829D01*
X112110000Y-84465829D01*
X112110000Y-76833398D01*
X142717973Y-76833398D01*
X142876746Y-77054080D01*
X143993000Y-77054080D01*
X143993000Y-75711870D01*
X143776930Y-75589370D01*
X143685272Y-75606118D01*
X143206535Y-75874290D01*
X142866865Y-76305253D01*
X142717973Y-76833398D01*
X112110000Y-76833398D01*
X112110000Y-74910000D01*
X183690000Y-74910000D01*
X183690000Y-114490000D01*
X183690000Y-114490000D01*
G37*
X183690000Y-114490000D02*
X112110000Y-114490000D01*
X112110000Y-102544767D01*
X120299438Y-102544767D01*
X120441483Y-102888543D01*
X120483597Y-102930731D01*
X120532452Y-103176339D01*
X120697199Y-103422901D01*
X124272378Y-106998080D01*
X124272338Y-107043567D01*
X124414383Y-107387343D01*
X124677173Y-107650592D01*
X125020701Y-107793238D01*
X125392667Y-107793562D01*
X125736443Y-107651517D01*
X125999692Y-107388727D01*
X126142338Y-107045199D01*
X126142662Y-106673233D01*
X126000617Y-106329457D01*
X125737827Y-106066208D01*
X125394299Y-105923562D01*
X125347423Y-105923521D01*
X122273269Y-102849367D01*
X142243838Y-102849367D01*
X142385883Y-103193143D01*
X142419000Y-103226318D01*
X142419000Y-103670000D01*
X142476852Y-103960839D01*
X142641599Y-104207401D01*
X149502378Y-111068180D01*
X149502338Y-111113667D01*
X149644383Y-111457443D01*
X149907173Y-111720692D01*
X150250701Y-111863338D01*
X150622667Y-111863662D01*
X150966443Y-111721617D01*
X151229692Y-111458827D01*
X151372338Y-111115299D01*
X151372662Y-110743333D01*
X151230617Y-110399557D01*
X150967827Y-110136308D01*
X150624299Y-109993662D01*
X150577423Y-109993621D01*
X148966872Y-108383070D01*
X176709370Y-108383070D01*
X176726118Y-108474728D01*
X176994290Y-108953465D01*
X177425253Y-109293135D01*
X177953398Y-109442027D01*
X178174080Y-109283254D01*
X178174080Y-108167000D01*
X178428080Y-108167000D01*
X178428080Y-109283254D01*
X178648762Y-109442027D01*
X179176907Y-109293135D01*
X179607870Y-108953465D01*
X179820000Y-108574773D01*
X180032130Y-108953465D01*
X180463093Y-109293135D01*
X180991238Y-109442027D01*
X181211920Y-109283254D01*
X181211920Y-108167000D01*
X181465920Y-108167000D01*
X181465920Y-109283254D01*
X181686602Y-109442027D01*
X182214747Y-109293135D01*
X182645710Y-108953465D01*
X182913882Y-108474728D01*
X182930630Y-108383070D01*
X182808130Y-108167000D01*
X181465920Y-108167000D01*
X181211920Y-108167000D01*
X181211920Y-108167000D01*
X179869710Y-108167000D01*
X179820000Y-108254680D01*
X179770290Y-108167000D01*
X178428080Y-108167000D01*
X178174080Y-108167000D01*
X178174080Y-108167000D01*
X176831870Y-108167000D01*
X176709370Y-108383070D01*
X148966872Y-108383070D01*
X143939000Y-103355198D01*
X143939000Y-103226663D01*
X143971192Y-103194527D01*
X144113838Y-102850999D01*
X144114162Y-102479033D01*
X143972117Y-102135257D01*
X143709327Y-101872008D01*
X143365799Y-101729362D01*
X142993833Y-101729038D01*
X142650057Y-101871083D01*
X142386808Y-102133873D01*
X142244162Y-102477401D01*
X142243838Y-102849367D01*
X122273269Y-102849367D01*
X122111010Y-102687108D01*
X122169438Y-102546399D01*
X122169762Y-102174433D01*
X122027717Y-101830657D01*
X121764927Y-101567408D01*
X121421399Y-101424762D01*
X121049433Y-101424438D01*
X120705657Y-101566483D01*
X120442408Y-101829273D01*
X120299762Y-102172801D01*
X120299438Y-102544767D01*
X112110000Y-102544767D01*
X112110000Y-98672336D01*
X113914527Y-98672336D01*
X114276866Y-99549263D01*
X114947208Y-100220776D01*
X115823501Y-100584645D01*
X116772336Y-100585473D01*
X117649263Y-100223134D01*
X118320776Y-99552792D01*
X118681045Y-98685167D01*
X127834838Y-98685167D01*
X127976883Y-99028943D01*
X128239673Y-99292192D01*
X128583201Y-99434838D01*
X128630077Y-99434879D01*
X128785198Y-99590000D01*
X128730320Y-99644878D01*
X128684833Y-99644838D01*
X128341057Y-99786883D01*
X128077808Y-100049673D01*
X127935162Y-100393201D01*
X127934838Y-100765167D01*
X128076883Y-101108943D01*
X128339673Y-101372192D01*
X128683201Y-101514838D01*
X129055167Y-101515162D01*
X129398943Y-101373117D01*
X129662192Y-101110327D01*
X129804838Y-100766799D01*
X129804879Y-100719924D01*
X129979783Y-100545020D01*
X148177537Y-100545020D01*
X148209673Y-100577212D01*
X148553201Y-100719858D01*
X148925167Y-100720182D01*
X149268943Y-100578137D01*
X149532192Y-100315347D01*
X149633656Y-100070995D01*
X149918943Y-99953117D01*
X150182192Y-99690327D01*
X150324838Y-99346799D01*
X150325162Y-98974833D01*
X150183117Y-98631057D01*
X149920327Y-98367808D01*
X149576799Y-98225162D01*
X149204833Y-98224838D01*
X148861057Y-98366883D01*
X148827882Y-98400000D01*
X129744802Y-98400000D01*
X129705122Y-98360320D01*
X129705162Y-98314833D01*
X129563117Y-97971057D01*
X129300327Y-97707808D01*
X128956799Y-97565162D01*
X128584833Y-97564838D01*
X128241057Y-97706883D01*
X127977808Y-97969673D01*
X127835162Y-98313201D01*
X127834838Y-98685167D01*
X118681045Y-98685167D01*
X118684645Y-98676499D01*
X118685473Y-97727664D01*
X118323134Y-96850737D01*
X117652792Y-96179224D01*
X116776499Y-95815355D01*
X115827664Y-95814527D01*
X114950737Y-96176866D01*
X114279224Y-96847208D01*
X113915355Y-97723501D01*
X113914527Y-98672336D01*
X112110000Y-98672336D01*
X112110000Y-94396730D01*
X118225475Y-94396730D01*
X118293535Y-94637731D01*
X118812834Y-94822567D01*
X119363338Y-94794605D01*
X119742065Y-94637731D01*
X119810125Y-94396730D01*
X119017800Y-93604405D01*
X118225475Y-94396730D01*
X112110000Y-94396730D01*
X112110000Y-93219834D01*
X117620033Y-93219834D01*
X117647995Y-93770338D01*
X117804869Y-94149065D01*
X118045870Y-94217125D01*
X118838195Y-93424800D01*
X118045870Y-92632475D01*
X117804869Y-92700535D01*
X117620033Y-93219834D01*
X112110000Y-93219834D01*
X112110000Y-91209998D01*
X117631990Y-91209998D01*
X117842486Y-91719437D01*
X118231913Y-92109544D01*
X118386051Y-92173548D01*
X118293535Y-92211869D01*
X118225475Y-92452870D01*
X119017800Y-93245195D01*
X119810125Y-92452870D01*
X119742065Y-92211869D01*
X119642809Y-92176540D01*
X119801637Y-92110914D01*
X120021141Y-91891793D01*
X120238513Y-92109544D01*
X120408460Y-92180112D01*
X120240563Y-92249486D01*
X119850456Y-92638913D01*
X119756130Y-92866075D01*
X119197405Y-93424800D01*
X119756030Y-93983425D01*
X119849086Y-94208637D01*
X120238513Y-94598744D01*
X120747584Y-94810129D01*
X121298798Y-94810610D01*
X121808237Y-94600114D01*
X122198344Y-94210687D01*
X122409729Y-93701616D01*
X122410210Y-93150402D01*
X122321277Y-92935167D01*
X126864838Y-92935167D01*
X127006883Y-93278943D01*
X127269673Y-93542192D01*
X127613201Y-93684838D01*
X127985167Y-93685162D01*
X128328943Y-93543117D01*
X128592192Y-93280327D01*
X128734838Y-92936799D01*
X128734879Y-92889923D01*
X129686517Y-91938285D01*
X129614568Y-92300000D01*
X129720908Y-92834609D01*
X129877624Y-93069151D01*
X129812599Y-93112599D01*
X128112599Y-94812599D01*
X127947852Y-95059161D01*
X127890000Y-95350000D01*
X127890000Y-95487537D01*
X127857808Y-95519673D01*
X127715162Y-95863201D01*
X127714838Y-96235167D01*
X127856883Y-96578943D01*
X128119673Y-96842192D01*
X128463201Y-96984838D01*
X128835167Y-96985162D01*
X129178943Y-96843117D01*
X129186906Y-96835167D01*
X136264838Y-96835167D01*
X136406883Y-97178943D01*
X136669673Y-97442192D01*
X137013201Y-97584838D01*
X137385167Y-97585162D01*
X137728943Y-97443117D01*
X137857116Y-97315167D01*
X150824838Y-97315167D01*
X150966883Y-97658943D01*
X151229673Y-97922192D01*
X151573201Y-98064838D01*
X151945167Y-98065162D01*
X152288943Y-97923117D01*
X152322118Y-97890000D01*
X153700000Y-97890000D01*
X153990839Y-97832148D01*
X154237401Y-97667401D01*
X154642874Y-97261928D01*
X168087537Y-97261928D01*
X168119673Y-97294120D01*
X168463201Y-97436766D01*
X168835167Y-97437090D01*
X169178943Y-97295045D01*
X169442192Y-97032255D01*
X169584838Y-96688727D01*
X169584928Y-96585167D01*
X171314838Y-96585167D01*
X171456883Y-96928943D01*
X171552710Y-97024937D01*
X171457808Y-97119673D01*
X171315162Y-97463201D01*
X171314838Y-97835167D01*
X171456883Y-98178943D01*
X171490000Y-98212118D01*
X171490000Y-99686400D01*
X171490003Y-99686413D01*
X171490000Y-99686426D01*
X171519341Y-99833907D01*
X171547852Y-99977239D01*
X171547859Y-99977250D01*
X171547862Y-99977264D01*
X171639841Y-100114911D01*
X171712599Y-100223801D01*
X171712609Y-100223807D01*
X171712617Y-100223820D01*
X176693395Y-105204255D01*
X176634568Y-105500000D01*
X176740908Y-106034609D01*
X177043740Y-106487828D01*
X177471688Y-106773774D01*
X177425253Y-106786865D01*
X176994290Y-107126535D01*
X176726118Y-107605272D01*
X176709370Y-107696930D01*
X176831870Y-107913000D01*
X178174080Y-107913000D01*
X178174080Y-107893000D01*
X178428080Y-107893000D01*
X178428080Y-107913000D01*
X179770290Y-107913000D01*
X179820000Y-107825320D01*
X179869710Y-107913000D01*
X181211920Y-107913000D01*
X181211920Y-106796746D01*
X181174745Y-106770000D01*
X181211920Y-106743254D01*
X181211920Y-105627000D01*
X181465920Y-105627000D01*
X181465920Y-106743254D01*
X181503095Y-106770000D01*
X181465920Y-106796746D01*
X181465920Y-107913000D01*
X182808130Y-107913000D01*
X182930630Y-107696930D01*
X182913882Y-107605272D01*
X182645710Y-107126535D01*
X182214747Y-106786865D01*
X182154924Y-106770000D01*
X182214747Y-106753135D01*
X182645710Y-106413465D01*
X182913882Y-105934728D01*
X182930630Y-105843070D01*
X182808130Y-105627000D01*
X181465920Y-105627000D01*
X181211920Y-105627000D01*
X181211920Y-105627000D01*
X181191920Y-105627000D01*
X181191920Y-105373000D01*
X181211920Y-105373000D01*
X181211920Y-104256746D01*
X181174745Y-104230000D01*
X181211920Y-104203254D01*
X181211920Y-103087000D01*
X181465920Y-103087000D01*
X181465920Y-104203254D01*
X181503095Y-104230000D01*
X181465920Y-104256746D01*
X181465920Y-105373000D01*
X182808130Y-105373000D01*
X182930630Y-105156930D01*
X182913882Y-105065272D01*
X182645710Y-104586535D01*
X182214747Y-104246865D01*
X182154924Y-104230000D01*
X182214747Y-104213135D01*
X182645710Y-103873465D01*
X182913882Y-103394728D01*
X182930630Y-103303070D01*
X182808130Y-103087000D01*
X181465920Y-103087000D01*
X181211920Y-103087000D01*
X181211920Y-103087000D01*
X181191920Y-103087000D01*
X181191920Y-102833000D01*
X181211920Y-102833000D01*
X181211920Y-101716746D01*
X181174745Y-101690000D01*
X181211920Y-101663254D01*
X181211920Y-100547000D01*
X181465920Y-100547000D01*
X181465920Y-101663254D01*
X181503095Y-101690000D01*
X181465920Y-101716746D01*
X181465920Y-102833000D01*
X182808130Y-102833000D01*
X182930630Y-102616930D01*
X182913882Y-102525272D01*
X182645710Y-102046535D01*
X182214747Y-101706865D01*
X182154924Y-101690000D01*
X182214747Y-101673135D01*
X182645710Y-101333465D01*
X182913882Y-100854728D01*
X182930630Y-100763070D01*
X182808130Y-100547000D01*
X181465920Y-100547000D01*
X181211920Y-100547000D01*
X181211920Y-100547000D01*
X181191920Y-100547000D01*
X181191920Y-100293000D01*
X181211920Y-100293000D01*
X181211920Y-99176746D01*
X181174745Y-99150000D01*
X181211920Y-99123254D01*
X181211920Y-98007000D01*
X181465920Y-98007000D01*
X181465920Y-99123254D01*
X181503095Y-99150000D01*
X181465920Y-99176746D01*
X181465920Y-100293000D01*
X182808130Y-100293000D01*
X182930630Y-100076930D01*
X182913882Y-99985272D01*
X182645710Y-99506535D01*
X182214747Y-99166865D01*
X182154924Y-99150000D01*
X182214747Y-99133135D01*
X182645710Y-98793465D01*
X182913882Y-98314728D01*
X182930630Y-98223070D01*
X182808130Y-98007000D01*
X181465920Y-98007000D01*
X181211920Y-98007000D01*
X181211920Y-98007000D01*
X181191920Y-98007000D01*
X181191920Y-97753000D01*
X181211920Y-97753000D01*
X181211920Y-96636746D01*
X181174745Y-96610000D01*
X181211920Y-96583254D01*
X181211920Y-95467000D01*
X181465920Y-95467000D01*
X181465920Y-96583254D01*
X181503095Y-96610000D01*
X181465920Y-96636746D01*
X181465920Y-97753000D01*
X182808130Y-97753000D01*
X182930630Y-97536930D01*
X182913882Y-97445272D01*
X182645710Y-96966535D01*
X182214747Y-96626865D01*
X182154924Y-96610000D01*
X182214747Y-96593135D01*
X182645710Y-96253465D01*
X182913882Y-95774728D01*
X182930630Y-95683070D01*
X182808130Y-95467000D01*
X181465920Y-95467000D01*
X181211920Y-95467000D01*
X181211920Y-95467000D01*
X181191920Y-95467000D01*
X181191920Y-95213000D01*
X181211920Y-95213000D01*
X181211920Y-94096746D01*
X181174745Y-94070000D01*
X181211920Y-94043254D01*
X181211920Y-92927000D01*
X181465920Y-92927000D01*
X181465920Y-94043254D01*
X181503095Y-94070000D01*
X181465920Y-94096746D01*
X181465920Y-95213000D01*
X182808130Y-95213000D01*
X182930630Y-94996930D01*
X182913882Y-94905272D01*
X182645710Y-94426535D01*
X182214747Y-94086865D01*
X182154924Y-94070000D01*
X182214747Y-94053135D01*
X182645710Y-93713465D01*
X182913882Y-93234728D01*
X182930630Y-93143070D01*
X182808130Y-92927000D01*
X181465920Y-92927000D01*
X181211920Y-92927000D01*
X181211920Y-92927000D01*
X181191920Y-92927000D01*
X181191920Y-92673000D01*
X181211920Y-92673000D01*
X181211920Y-92653000D01*
X181465920Y-92653000D01*
X181465920Y-92673000D01*
X182808130Y-92673000D01*
X182930630Y-92456930D01*
X182913882Y-92365272D01*
X182645710Y-91886535D01*
X182214747Y-91546865D01*
X182168312Y-91533774D01*
X182596260Y-91247828D01*
X182899092Y-90794609D01*
X183005432Y-90260000D01*
X182899092Y-89725391D01*
X182596260Y-89272172D01*
X182173961Y-88990000D01*
X182596260Y-88707828D01*
X182899092Y-88254609D01*
X183005432Y-87720000D01*
X182899092Y-87185391D01*
X182596260Y-86732172D01*
X182173961Y-86450000D01*
X182596260Y-86167828D01*
X182899092Y-85714609D01*
X183005432Y-85180000D01*
X182899092Y-84645391D01*
X182596260Y-84192172D01*
X182173961Y-83910000D01*
X182596260Y-83627828D01*
X182899092Y-83174609D01*
X183005432Y-82640000D01*
X182899092Y-82105391D01*
X182596260Y-81652172D01*
X182173961Y-81370000D01*
X182596260Y-81087828D01*
X182899092Y-80634609D01*
X183005432Y-80100000D01*
X182899092Y-79565391D01*
X182596260Y-79112172D01*
X182143041Y-78809340D01*
X181608432Y-78703000D01*
X181069408Y-78703000D01*
X180534799Y-78809340D01*
X180081580Y-79112172D01*
X179944112Y-79317907D01*
X179901033Y-79095877D01*
X179761243Y-78883073D01*
X179550210Y-78740623D01*
X179300570Y-78690560D01*
X177301590Y-78690560D01*
X177059467Y-78737537D01*
X176846663Y-78877327D01*
X176704213Y-79088360D01*
X176654150Y-79338000D01*
X176654150Y-80610000D01*
X175480000Y-80610000D01*
X175189161Y-80667852D01*
X174942599Y-80832599D01*
X172972599Y-82802599D01*
X172807852Y-83049161D01*
X172750000Y-83340000D01*
X172750000Y-85615198D01*
X172680320Y-85684878D01*
X172634833Y-85684838D01*
X172291057Y-85826883D01*
X172027808Y-86089673D01*
X171885162Y-86433201D01*
X171884838Y-86805167D01*
X172026883Y-87148943D01*
X172077832Y-87199981D01*
X171887808Y-87389673D01*
X171745162Y-87733201D01*
X171744838Y-88105167D01*
X171886883Y-88448943D01*
X171932806Y-88494946D01*
X171777808Y-88649673D01*
X171635162Y-88993201D01*
X171634838Y-89365167D01*
X171776883Y-89708943D01*
X171917648Y-89849954D01*
X171847808Y-89919673D01*
X171705162Y-90263201D01*
X171704838Y-90635167D01*
X171846883Y-90978943D01*
X172109673Y-91242192D01*
X172453201Y-91384838D01*
X172825167Y-91385162D01*
X173168943Y-91243117D01*
X173202118Y-91210000D01*
X174030000Y-91210000D01*
X174320839Y-91152148D01*
X174567401Y-90987401D01*
X175774802Y-89780000D01*
X176730046Y-89780000D01*
X176634568Y-90260000D01*
X176740908Y-90794609D01*
X177043740Y-91247828D01*
X177466039Y-91530000D01*
X177043740Y-91812172D01*
X176740908Y-92265391D01*
X176634568Y-92800000D01*
X176740908Y-93334609D01*
X177043740Y-93787828D01*
X177466039Y-94070000D01*
X177043740Y-94352172D01*
X176740908Y-94805391D01*
X176634568Y-95340000D01*
X176740908Y-95874609D01*
X177043740Y-96327828D01*
X177466039Y-96610000D01*
X177043740Y-96892172D01*
X176740908Y-97345391D01*
X176634568Y-97880000D01*
X176740908Y-98414609D01*
X177043740Y-98867828D01*
X177466039Y-99150000D01*
X177043740Y-99432172D01*
X176740908Y-99885391D01*
X176634568Y-100420000D01*
X176740908Y-100954609D01*
X177043740Y-101407828D01*
X177466039Y-101690000D01*
X177045679Y-101970877D01*
X173810000Y-98735198D01*
X173810000Y-97200000D01*
X173752148Y-96909161D01*
X173587401Y-96662599D01*
X173185122Y-96260320D01*
X173185162Y-96214833D01*
X173043117Y-95871057D01*
X172780327Y-95607808D01*
X172436799Y-95465162D01*
X172064833Y-95464838D01*
X171721057Y-95606883D01*
X171457808Y-95869673D01*
X171315162Y-96213201D01*
X171314838Y-96585167D01*
X169584928Y-96585167D01*
X169585162Y-96316761D01*
X169443117Y-95972985D01*
X169180327Y-95709736D01*
X168836799Y-95567090D01*
X168464833Y-95566766D01*
X168121057Y-95708811D01*
X168087882Y-95741928D01*
X163942289Y-95741928D01*
X164064838Y-95446799D01*
X164065162Y-95074833D01*
X163923117Y-94731057D01*
X163660327Y-94467808D01*
X163316799Y-94325162D01*
X162944833Y-94324838D01*
X162601057Y-94466883D01*
X162337808Y-94729673D01*
X162195162Y-95073201D01*
X162195121Y-95120077D01*
X162185198Y-95130000D01*
X161523986Y-95130000D01*
X161737400Y-94987402D01*
X164017401Y-92707401D01*
X164182148Y-92460840D01*
X164240000Y-92170000D01*
X164240000Y-90392463D01*
X164272192Y-90360327D01*
X164414838Y-90016799D01*
X164415162Y-89644833D01*
X164273117Y-89301057D01*
X164010327Y-89037808D01*
X163666799Y-88895162D01*
X163294833Y-88894838D01*
X162951057Y-89036883D01*
X162687808Y-89299673D01*
X162545162Y-89643201D01*
X162544838Y-90015167D01*
X162686883Y-90358943D01*
X162720000Y-90392118D01*
X162720000Y-91855198D01*
X160885197Y-93690001D01*
X153149999Y-93690001D01*
X152859160Y-93747853D01*
X152758787Y-93814920D01*
X152664833Y-93814838D01*
X152321057Y-93956883D01*
X152057808Y-94219673D01*
X151915162Y-94563201D01*
X151914838Y-94935167D01*
X152056883Y-95278943D01*
X152319673Y-95542192D01*
X152340193Y-95550713D01*
X152301057Y-95566883D01*
X152037808Y-95829673D01*
X151895162Y-96173201D01*
X151895143Y-96195117D01*
X151574833Y-96194838D01*
X151231057Y-96336883D01*
X150967808Y-96599673D01*
X150825162Y-96943201D01*
X150824838Y-97315167D01*
X137857116Y-97315167D01*
X137992192Y-97180327D01*
X138134838Y-96836799D01*
X138135162Y-96464833D01*
X137993117Y-96121057D01*
X137944900Y-96072756D01*
X137944900Y-94427002D01*
X140656800Y-91715102D01*
X140725167Y-91715162D01*
X141068943Y-91573117D01*
X141332192Y-91310327D01*
X141474838Y-90966799D01*
X141474899Y-90897003D01*
X145809301Y-86562601D01*
X145974048Y-86316039D01*
X146031900Y-86025200D01*
X146031900Y-83943902D01*
X146214859Y-83760943D01*
X146214838Y-83785167D01*
X146356883Y-84128943D01*
X146619673Y-84392192D01*
X146963201Y-84534838D01*
X147335167Y-84535162D01*
X147678943Y-84393117D01*
X147893263Y-84179171D01*
X147946883Y-84308943D01*
X148209673Y-84572192D01*
X148553201Y-84714838D01*
X148925167Y-84715162D01*
X149268943Y-84573117D01*
X149322153Y-84520000D01*
X151730000Y-84520000D01*
X152020839Y-84462148D01*
X152267401Y-84297401D01*
X154778534Y-81786268D01*
X154814609Y-81779092D01*
X155267828Y-81476260D01*
X155570660Y-81023041D01*
X155677000Y-80488432D01*
X155677000Y-79949408D01*
X155570660Y-79414799D01*
X155267828Y-78961580D01*
X154848267Y-78681238D01*
X155193465Y-78487870D01*
X155533135Y-78056907D01*
X155682027Y-77528762D01*
X155523254Y-77308080D01*
X154407000Y-77308080D01*
X154407000Y-77328080D01*
X154153000Y-77328080D01*
X154153000Y-77308080D01*
X154133000Y-77308080D01*
X154133000Y-77054080D01*
X154153000Y-77054080D01*
X154153000Y-75711870D01*
X154407000Y-75711870D01*
X154407000Y-77054080D01*
X155523254Y-77054080D01*
X155682027Y-76833398D01*
X155533135Y-76305253D01*
X155193465Y-75874290D01*
X154714728Y-75606118D01*
X154623070Y-75589370D01*
X154407000Y-75711870D01*
X154153000Y-75711870D01*
X154153000Y-75711870D01*
X153936930Y-75589370D01*
X153845272Y-75606118D01*
X153366535Y-75874290D01*
X153026865Y-76305253D01*
X153013774Y-76351688D01*
X152727828Y-75923740D01*
X152274609Y-75620908D01*
X151740000Y-75514568D01*
X151205391Y-75620908D01*
X150752172Y-75923740D01*
X150470000Y-76346039D01*
X150187828Y-75923740D01*
X149734609Y-75620908D01*
X149200000Y-75514568D01*
X148665391Y-75620908D01*
X148212172Y-75923740D01*
X147930000Y-76346039D01*
X147647828Y-75923740D01*
X147194609Y-75620908D01*
X146660000Y-75514568D01*
X146125391Y-75620908D01*
X145672172Y-75923740D01*
X145386226Y-76351688D01*
X145373135Y-76305253D01*
X145033465Y-75874290D01*
X144554728Y-75606118D01*
X144463070Y-75589370D01*
X144247000Y-75711870D01*
X144247000Y-77054080D01*
X144267000Y-77054080D01*
X144267000Y-77308080D01*
X144247000Y-77308080D01*
X144247000Y-77328080D01*
X143993000Y-77328080D01*
X143993000Y-77308080D01*
X142876746Y-77308080D01*
X142717973Y-77528762D01*
X142866865Y-78056907D01*
X143206535Y-78487870D01*
X143357038Y-78572177D01*
X143115877Y-78618967D01*
X142903073Y-78758757D01*
X142760623Y-78969790D01*
X142710560Y-79219430D01*
X142710560Y-81218410D01*
X142757537Y-81460533D01*
X142897327Y-81673337D01*
X143108360Y-81815787D01*
X143358000Y-81865850D01*
X144882000Y-81865850D01*
X145124123Y-81818873D01*
X145336927Y-81679083D01*
X145479377Y-81468050D01*
X145522617Y-81252435D01*
X145672172Y-81476260D01*
X146078463Y-81747735D01*
X144734499Y-83091699D01*
X144569752Y-83338261D01*
X144511900Y-83629100D01*
X144511900Y-85710398D01*
X140377440Y-89844858D01*
X140354833Y-89844838D01*
X140011057Y-89986883D01*
X139747808Y-90249673D01*
X139605162Y-90593201D01*
X139605141Y-90617157D01*
X136647499Y-93574799D01*
X136482752Y-93821361D01*
X136424900Y-94112200D01*
X136424900Y-96102611D01*
X136407808Y-96119673D01*
X136265162Y-96463201D01*
X136264838Y-96835167D01*
X129186906Y-96835167D01*
X129442192Y-96580327D01*
X129584838Y-96236799D01*
X129585162Y-95864833D01*
X129475463Y-95599339D01*
X129717471Y-95357331D01*
X129720908Y-95374609D01*
X130023740Y-95827828D01*
X130476959Y-96130660D01*
X131011568Y-96237000D01*
X131550592Y-96237000D01*
X132085201Y-96130660D01*
X132538420Y-95827828D01*
X132818762Y-95408267D01*
X133012130Y-95753465D01*
X133443093Y-96093135D01*
X133971238Y-96242027D01*
X134191920Y-96083254D01*
X134191920Y-94967000D01*
X134445920Y-94967000D01*
X134445920Y-96083254D01*
X134666602Y-96242027D01*
X135194747Y-96093135D01*
X135625710Y-95753465D01*
X135893882Y-95274728D01*
X135910630Y-95183070D01*
X135788130Y-94967000D01*
X134445920Y-94967000D01*
X134191920Y-94967000D01*
X134191920Y-94967000D01*
X134171920Y-94967000D01*
X134171920Y-94713000D01*
X134191920Y-94713000D01*
X134191920Y-94693000D01*
X134445920Y-94693000D01*
X134445920Y-94713000D01*
X135788130Y-94713000D01*
X135910630Y-94496930D01*
X135893882Y-94405272D01*
X135789694Y-94219278D01*
X135837401Y-94187401D01*
X136587401Y-93437401D01*
X136752148Y-93190840D01*
X136810000Y-92900000D01*
X136810000Y-91890557D01*
X137444431Y-91256282D01*
X137513201Y-91284838D01*
X137885167Y-91285162D01*
X138228943Y-91143117D01*
X138492192Y-90880327D01*
X138634838Y-90536799D01*
X138635162Y-90164833D01*
X138493117Y-89821057D01*
X138462561Y-89790448D01*
X138484838Y-89736799D01*
X138485162Y-89364833D01*
X138396352Y-89149896D01*
X138484838Y-88936799D01*
X138485162Y-88564833D01*
X138343117Y-88221057D01*
X138080327Y-87957808D01*
X137736799Y-87815162D01*
X137364833Y-87814838D01*
X137242858Y-87865237D01*
X137216839Y-87847852D01*
X136926000Y-87790000D01*
X132300000Y-87790000D01*
X132153392Y-87819163D01*
X132009195Y-87847838D01*
X132009180Y-87847848D01*
X132009161Y-87847852D01*
X131892021Y-87926122D01*
X131762625Y-88012572D01*
X131424604Y-88350560D01*
X130281590Y-88350560D01*
X130039467Y-88397537D01*
X129826663Y-88537327D01*
X129684213Y-88748360D01*
X129634150Y-88998000D01*
X129634150Y-90240000D01*
X129550000Y-90240000D01*
X129259161Y-90297852D01*
X129012599Y-90462599D01*
X127660320Y-91814878D01*
X127614833Y-91814838D01*
X127271057Y-91956883D01*
X127007808Y-92219673D01*
X126865162Y-92563201D01*
X126864838Y-92935167D01*
X122321277Y-92935167D01*
X122199714Y-92640963D01*
X121810287Y-92250856D01*
X121640340Y-92180288D01*
X121808237Y-92110914D01*
X122198344Y-91721487D01*
X122409729Y-91212416D01*
X122410210Y-90661202D01*
X122199714Y-90151763D01*
X121810287Y-89761656D01*
X121301216Y-89550271D01*
X120750002Y-89549790D01*
X120240563Y-89760286D01*
X120021059Y-89979407D01*
X119803687Y-89761656D01*
X119294616Y-89550271D01*
X118743402Y-89549790D01*
X118233963Y-89760286D01*
X117843856Y-90149713D01*
X117632471Y-90658784D01*
X117631990Y-91209998D01*
X112110000Y-91209998D01*
X112110000Y-87854971D01*
X114785034Y-87854971D01*
X114975328Y-88199719D01*
X115856576Y-88551415D01*
X116805332Y-88539101D01*
X117624672Y-88199719D01*
X117814966Y-87854971D01*
X116300000Y-86340005D01*
X114785034Y-87854971D01*
X112110000Y-87854971D01*
X112110000Y-85716976D01*
X113908985Y-85716976D01*
X113921299Y-86665732D01*
X114260681Y-87485072D01*
X114605429Y-87675366D01*
X116120395Y-86160400D01*
X116479605Y-86160400D01*
X117994571Y-87675366D01*
X118339319Y-87485072D01*
X118691015Y-86603824D01*
X118678701Y-85655068D01*
X118339319Y-84835728D01*
X117994571Y-84645434D01*
X116479605Y-86160400D01*
X116120395Y-86160400D01*
X116120395Y-86160400D01*
X114605429Y-84645434D01*
X114260681Y-84835728D01*
X113908985Y-85716976D01*
X112110000Y-85716976D01*
X112110000Y-84465829D01*
X114785034Y-84465829D01*
X116300000Y-85980795D01*
X117814966Y-84465829D01*
X117624672Y-84121081D01*
X116743424Y-83769385D01*
X115794668Y-83781699D01*
X114975328Y-84121081D01*
X114785034Y-84465829D01*
X112110000Y-84465829D01*
X112110000Y-76833398D01*
X142717973Y-76833398D01*
X142876746Y-77054080D01*
X143993000Y-77054080D01*
X143993000Y-75711870D01*
X143776930Y-75589370D01*
X143685272Y-75606118D01*
X143206535Y-75874290D01*
X142866865Y-76305253D01*
X142717973Y-76833398D01*
X112110000Y-76833398D01*
X112110000Y-74910000D01*
X183690000Y-74910000D01*
X183690000Y-114490000D01*
M02*
