G04 #@! TF.FileFunction,Soldermask,Bot*
%FSLAX46Y46*%
G04 Gerber Fmt 4.6, Leading zero omitted, Abs format (unit mm)*
G04 Created by KiCad (PCBNEW no-vcs-found-product) date Mi 14 Okt 2015 21:54:47 CEST*
%MOMM*%
G01*
G04 APERTURE LIST*
%ADD10C,0.100000*%
%ADD11C,1.901140*%
%ADD12C,3.900120*%
%ADD13R,2.398980X1.924000*%
%ADD14O,2.398980X1.924000*%
%ADD15R,1.924000X2.398980*%
%ADD16O,1.924000X2.398980*%
G04 APERTURE END LIST*
D10*
D11*
X119017800Y-90935600D03*
X119017800Y-93424800D03*
X121024400Y-93424800D03*
X121024400Y-90935600D03*
D12*
X116300000Y-86160400D03*
X116300000Y-98200000D03*
D13*
X178301080Y-80100000D03*
D14*
X181338920Y-80100000D03*
X178301080Y-82640000D03*
X181338920Y-82640000D03*
X178301080Y-85180000D03*
X181338920Y-85180000D03*
X178301080Y-87720000D03*
X181338920Y-87720000D03*
X178301080Y-90260000D03*
X181338920Y-90260000D03*
X178301080Y-92800000D03*
X181338920Y-92800000D03*
X178301080Y-95340000D03*
X181338920Y-95340000D03*
X178301080Y-97880000D03*
X181338920Y-97880000D03*
X178301080Y-100420000D03*
X181338920Y-100420000D03*
X178301080Y-102960000D03*
X181338920Y-102960000D03*
X178301080Y-105500000D03*
X181338920Y-105500000D03*
X178301080Y-108040000D03*
X181338920Y-108040000D03*
D13*
X131281080Y-89760000D03*
D14*
X134318920Y-89760000D03*
X131281080Y-92300000D03*
X134318920Y-92300000D03*
X131281080Y-94840000D03*
X134318920Y-94840000D03*
D15*
X144120000Y-80218920D03*
D16*
X144120000Y-77181080D03*
X146660000Y-80218920D03*
X146660000Y-77181080D03*
X149200000Y-80218920D03*
X149200000Y-77181080D03*
X151740000Y-80218920D03*
X151740000Y-77181080D03*
X154280000Y-80218920D03*
X154280000Y-77181080D03*
M02*
