G04 #@! TF.FileFunction,Soldermask,Top*
%FSLAX46Y46*%
G04 Gerber Fmt 4.6, Leading zero omitted, Abs format (unit mm)*
G04 Created by KiCad (PCBNEW no-vcs-found-product) date Sa 10 Okt 2015 23:31:38 CEST*
%MOMM*%
G01*
G04 APERTURE LIST*
%ADD10C,0.100000*%
%ADD11R,3.399740X2.000200*%
%ADD12R,1.400000X1.650000*%
%ADD13R,1.400000X2.000000*%
%ADD14R,1.650000X1.400000*%
%ADD15C,1.901140*%
%ADD16C,3.900120*%
%ADD17R,1.924000X2.398980*%
%ADD18O,1.924000X2.398980*%
%ADD19R,2.398980X1.924000*%
%ADD20O,2.398980X1.924000*%
%ADD21R,1.100000X1.700000*%
%ADD22R,1.700000X1.100000*%
%ADD23R,1.200000X0.750000*%
%ADD24R,0.750000X1.200000*%
%ADD25R,1.650000X1.650000*%
%ADD26R,1.900000X1.000000*%
%ADD27R,1.000000X1.900000*%
%ADD28R,2.350000X1.000000*%
%ADD29R,2.900000X1.300000*%
G04 APERTURE END LIST*
D10*
D11*
X122899640Y-108800000D03*
X118500360Y-108800000D03*
D12*
X131250000Y-106000000D03*
X129250000Y-106000000D03*
X165700000Y-110700000D03*
X167700000Y-110700000D03*
D13*
X155500000Y-110800000D03*
X158500000Y-110800000D03*
D12*
X164700000Y-76900000D03*
X166700000Y-76900000D03*
X126650000Y-79400000D03*
X128650000Y-79400000D03*
X141800000Y-104100000D03*
X143800000Y-104100000D03*
D14*
X154900000Y-107450000D03*
X154900000Y-105450000D03*
X139050000Y-78300000D03*
X139050000Y-76300000D03*
X141650000Y-78350000D03*
X141650000Y-76350000D03*
X144850000Y-78350000D03*
X144850000Y-76350000D03*
D15*
X118893800Y-86910800D03*
X118893800Y-89400000D03*
X120900400Y-89400000D03*
X120900400Y-86910800D03*
D16*
X116176000Y-82135600D03*
X116176000Y-94175200D03*
D17*
X149660000Y-79868920D03*
D18*
X149660000Y-76831080D03*
X152200000Y-79868920D03*
X152200000Y-76831080D03*
X154740000Y-79868920D03*
X154740000Y-76831080D03*
D19*
X179031080Y-79080000D03*
D20*
X182068920Y-79080000D03*
X179031080Y-81620000D03*
X182068920Y-81620000D03*
X179031080Y-84160000D03*
X182068920Y-84160000D03*
X179031080Y-86700000D03*
X182068920Y-86700000D03*
X179031080Y-89240000D03*
X182068920Y-89240000D03*
X179031080Y-91780000D03*
X182068920Y-91780000D03*
X179031080Y-94320000D03*
X182068920Y-94320000D03*
X179031080Y-96860000D03*
X182068920Y-96860000D03*
X179031080Y-99400000D03*
X182068920Y-99400000D03*
X179031080Y-101940000D03*
X182068920Y-101940000D03*
X179031080Y-104480000D03*
X182068920Y-104480000D03*
X179031080Y-107020000D03*
X182068920Y-107020000D03*
D21*
X131200000Y-103800000D03*
X129300000Y-103800000D03*
X115800000Y-103900000D03*
X117700000Y-103900000D03*
X115800000Y-101700000D03*
X117700000Y-101700000D03*
D22*
X123900000Y-90400000D03*
X123900000Y-92300000D03*
D21*
X130967000Y-86978400D03*
X129067000Y-86978400D03*
X131000000Y-89100000D03*
X129100000Y-89100000D03*
X130967000Y-91278400D03*
X129067000Y-91278400D03*
X130971000Y-93386100D03*
X129071000Y-93386100D03*
X130971000Y-95536100D03*
X129071000Y-95536100D03*
X130955000Y-97664200D03*
X129055000Y-97664200D03*
X130955000Y-99814200D03*
X129055000Y-99814200D03*
D22*
X139050000Y-81850000D03*
X139050000Y-79950000D03*
X141650000Y-81850000D03*
X141650000Y-79950000D03*
X144850000Y-81800000D03*
X144850000Y-79900000D03*
X136950000Y-81800000D03*
X136950000Y-79900000D03*
D23*
X120675000Y-98200000D03*
X120675000Y-98850000D03*
X120675000Y-99500000D03*
X120675000Y-100150000D03*
D24*
X121700000Y-101175000D03*
X122350000Y-101175000D03*
X123000000Y-101175000D03*
X123650000Y-101175000D03*
D23*
X124675000Y-100150000D03*
X124675000Y-99500000D03*
X124675000Y-98850000D03*
X124675000Y-98200000D03*
D24*
X123650000Y-97175000D03*
X123000000Y-97175000D03*
X122350000Y-97175000D03*
X121700000Y-97175000D03*
D25*
X123300000Y-99800000D03*
X123300000Y-98550000D03*
X122050000Y-99800000D03*
X122050000Y-98550000D03*
D26*
X137150000Y-87200000D03*
X137150000Y-88000000D03*
X137150000Y-88800000D03*
X137150000Y-89600000D03*
X137150000Y-90400000D03*
X137150000Y-91200000D03*
X137150000Y-92000000D03*
X137150000Y-92800000D03*
X137150000Y-93600000D03*
X137150000Y-94400000D03*
X137150000Y-95200000D03*
X137150000Y-96000000D03*
X137150000Y-96800000D03*
X137150000Y-97600000D03*
X137150000Y-98400000D03*
X137150000Y-99200000D03*
D27*
X139050000Y-101100000D03*
X139850000Y-101100000D03*
X140650000Y-101100000D03*
X141450000Y-101100000D03*
X142250000Y-101100000D03*
X143050000Y-101100000D03*
X143850000Y-101100000D03*
X144650000Y-101100000D03*
X145450000Y-101100000D03*
X146250000Y-101100000D03*
X147050000Y-101100000D03*
X147850000Y-101100000D03*
X148650000Y-101100000D03*
X149450000Y-101100000D03*
X150250000Y-101100000D03*
X151050000Y-101100000D03*
D26*
X152950000Y-99200000D03*
X152950000Y-98400000D03*
X152950000Y-97600000D03*
X152950000Y-96800000D03*
X152950000Y-96000000D03*
X152950000Y-95200000D03*
X152950000Y-94400000D03*
X152950000Y-93600000D03*
X152950000Y-92800000D03*
X152950000Y-92000000D03*
X152950000Y-91200000D03*
X152950000Y-90400000D03*
X152950000Y-89600000D03*
X152950000Y-88800000D03*
X152950000Y-88000000D03*
X152950000Y-87200000D03*
D27*
X151050000Y-85300000D03*
X150250000Y-85300000D03*
X149450000Y-85300000D03*
X148650000Y-85300000D03*
X147850000Y-85300000D03*
X147050000Y-85300000D03*
X146250000Y-85300000D03*
X145450000Y-85300000D03*
X144650000Y-85300000D03*
X143850000Y-85300000D03*
X143050000Y-85300000D03*
X142250000Y-85300000D03*
X141450000Y-85300000D03*
X140650000Y-85300000D03*
X139850000Y-85300000D03*
X139050000Y-85300000D03*
D28*
X161150000Y-80235000D03*
X161150000Y-81505000D03*
X161150000Y-82775000D03*
X161150000Y-84045000D03*
X161150000Y-85315000D03*
X161150000Y-86585000D03*
X161150000Y-87855000D03*
X161150000Y-89125000D03*
X161150000Y-90395000D03*
X161150000Y-91665000D03*
X170550000Y-91665000D03*
X170550000Y-90395000D03*
X170550000Y-89125000D03*
X170550000Y-87855000D03*
X170550000Y-86585000D03*
X170550000Y-85315000D03*
X170550000Y-84045000D03*
X170550000Y-82775000D03*
X170550000Y-81505000D03*
X170550000Y-80235000D03*
X161300000Y-95235000D03*
X161300000Y-96505000D03*
X161300000Y-97775000D03*
X161300000Y-99045000D03*
X161300000Y-100315000D03*
X161300000Y-101585000D03*
X161300000Y-102855000D03*
X161300000Y-104125000D03*
X161300000Y-105395000D03*
X161300000Y-106665000D03*
X170700000Y-106665000D03*
X170700000Y-105395000D03*
X170700000Y-104125000D03*
X170700000Y-102855000D03*
X170700000Y-101585000D03*
X170700000Y-100315000D03*
X170700000Y-99045000D03*
X170700000Y-97775000D03*
X170700000Y-96505000D03*
X170700000Y-95235000D03*
D17*
X142420000Y-111248920D03*
D18*
X142420000Y-108211080D03*
X144960000Y-111248920D03*
X144960000Y-108211080D03*
X147500000Y-111248920D03*
X147500000Y-108211080D03*
D22*
X151100000Y-109800000D03*
X151100000Y-107900000D03*
D29*
X126450000Y-85250000D03*
X126450000Y-82350000D03*
M02*
