G04 #@! TF.FileFunction,Soldermask,Bot*
%FSLAX46Y46*%
G04 Gerber Fmt 4.6, Leading zero omitted, Abs format (unit mm)*
G04 Created by KiCad (PCBNEW no-vcs-found-product) date Mo 14 Sep 2015 21:18:45 CEST*
%MOMM*%
G01*
G04 APERTURE LIST*
%ADD10C,0.100000*%
%ADD11C,1.901140*%
%ADD12C,3.900120*%
%ADD13R,1.924000X2.398980*%
%ADD14O,1.924000X2.398980*%
%ADD15R,2.398980X1.924000*%
%ADD16O,2.398980X1.924000*%
%ADD17R,2.599640X1.924000*%
%ADD18O,2.599640X1.924000*%
G04 APERTURE END LIST*
D10*
D11*
X118893800Y-86910800D03*
X118893800Y-89400000D03*
X120900400Y-89400000D03*
X120900400Y-86910800D03*
D12*
X116176000Y-82135600D03*
X116176000Y-94175200D03*
D13*
X145900000Y-80388920D03*
D14*
X145900000Y-77351080D03*
X148440000Y-80388920D03*
X148440000Y-77351080D03*
X150980000Y-80388920D03*
X150980000Y-77351080D03*
D15*
X179031080Y-79080000D03*
D16*
X182068920Y-79080000D03*
X179031080Y-81620000D03*
X182068920Y-81620000D03*
X179031080Y-84160000D03*
X182068920Y-84160000D03*
X179031080Y-86700000D03*
X182068920Y-86700000D03*
X179031080Y-89240000D03*
X182068920Y-89240000D03*
X179031080Y-91780000D03*
X182068920Y-91780000D03*
X179031080Y-94320000D03*
X182068920Y-94320000D03*
X179031080Y-96860000D03*
X182068920Y-96860000D03*
X179031080Y-99400000D03*
X182068920Y-99400000D03*
X179031080Y-101940000D03*
X182068920Y-101940000D03*
X179031080Y-104480000D03*
X182068920Y-104480000D03*
X179031080Y-107020000D03*
X182068920Y-107020000D03*
D13*
X142420000Y-111248920D03*
D14*
X142420000Y-108211080D03*
X144960000Y-111248920D03*
X144960000Y-108211080D03*
X147500000Y-111248920D03*
X147500000Y-108211080D03*
D17*
X154000000Y-77660000D03*
D18*
X154000000Y-80200000D03*
M02*
