G04 #@! TF.FileFunction,Legend,Top*
%FSLAX46Y46*%
G04 Gerber Fmt 4.6, Leading zero omitted, Abs format (unit mm)*
G04 Created by KiCad (PCBNEW no-vcs-found-product) date Mi 14 Okt 2015 21:54:47 CEST*
%MOMM*%
G01*
G04 APERTURE LIST*
%ADD10C,0.100000*%
%ADD11C,0.400000*%
%ADD12C,0.150000*%
%ADD13C,0.254000*%
%ADD14C,0.304800*%
%ADD15C,0.203200*%
G04 APERTURE END LIST*
D10*
D11*
X171020000Y-107970000D02*
G75*
G03X171020000Y-107970000I-190000J0D01*
G01*
X171255183Y-92900000D02*
G75*
G03X171255183Y-92900000I-205183J0D01*
G01*
X121489317Y-102890000D02*
G75*
G03X121489317Y-102890000I-219317J0D01*
G01*
X139310000Y-85380000D02*
G75*
G03X139310000Y-85380000I-280000J0D01*
G01*
D12*
X131114000Y-109715000D02*
X131114000Y-111112000D01*
X131241000Y-109461000D02*
X131241000Y-111239000D01*
X131368000Y-109080000D02*
X131368000Y-111620000D01*
X131495000Y-111747000D02*
X131495000Y-108953000D01*
X131622000Y-108826000D02*
X131622000Y-111874000D01*
X131749000Y-112001000D02*
X131749000Y-108699000D01*
X131876000Y-108572000D02*
X131876000Y-112128000D01*
X130733000Y-107683000D02*
X135305000Y-107683000D01*
X135305000Y-107683000D02*
X136067000Y-108445000D01*
X136067000Y-108445000D02*
X136067000Y-112255000D01*
X136067000Y-112255000D02*
X135305000Y-113017000D01*
X135305000Y-113017000D02*
X130733000Y-113017000D01*
X130733000Y-113017000D02*
X130733000Y-107683000D01*
X135559000Y-110350000D02*
X134797000Y-110350000D01*
X135178000Y-109969000D02*
X135178000Y-110731000D01*
X135813000Y-110350000D02*
G75*
G03X135813000Y-110350000I-2413000J0D01*
G01*
X129100000Y-106100000D02*
X128100000Y-106100000D01*
X128100000Y-107800000D02*
X129100000Y-107800000D01*
X156820000Y-110860000D02*
X155820000Y-110860000D01*
X155820000Y-112560000D02*
X156820000Y-112560000D01*
X165460000Y-78470000D02*
X166460000Y-78470000D01*
X166460000Y-76770000D02*
X165460000Y-76770000D01*
X134680000Y-102260000D02*
X134680000Y-101260000D01*
X132980000Y-101260000D02*
X132980000Y-102260000D01*
X137030000Y-102150000D02*
X137030000Y-101150000D01*
X135330000Y-101150000D02*
X135330000Y-102150000D01*
X136060000Y-82890000D02*
X136060000Y-83890000D01*
X137760000Y-83890000D02*
X137760000Y-82890000D01*
X148265000Y-112095000D02*
X148265000Y-111095000D01*
X146565000Y-111095000D02*
X146565000Y-112095000D01*
X144815000Y-111945000D02*
X144815000Y-110945000D01*
X143115000Y-110945000D02*
X143115000Y-111945000D01*
X141065000Y-111995000D02*
X141065000Y-110995000D01*
X139365000Y-110995000D02*
X139365000Y-111995000D01*
D13*
X118052600Y-98200000D02*
X116300000Y-99952600D01*
X116300000Y-99952600D02*
X114547400Y-98200000D01*
X118052600Y-86160400D02*
X116300000Y-84407800D01*
X116300000Y-84407800D02*
X114547400Y-86160400D01*
X116300000Y-86160400D02*
X105987600Y-86160400D01*
X105987600Y-86160400D02*
X105987600Y-98200000D01*
X105987600Y-98200000D02*
X116300000Y-98200000D01*
X116300000Y-98200000D02*
X122015000Y-98200000D01*
X122015000Y-98200000D02*
X122015000Y-86160400D01*
X122015000Y-86160400D02*
X116300000Y-86160400D01*
D14*
X177280000Y-109310000D02*
X177280000Y-78830000D01*
X182360000Y-78830000D02*
X182360000Y-109310000D01*
X179820000Y-78830000D02*
X179820000Y-81370000D01*
X179820000Y-81370000D02*
X177280000Y-81370000D01*
X182360000Y-78830000D02*
X177280000Y-78830000D01*
X177280000Y-109310000D02*
X182360000Y-109310000D01*
D12*
X124650000Y-109025000D02*
X125850000Y-109025000D01*
X125850000Y-110775000D02*
X124650000Y-110775000D01*
X117350000Y-107475000D02*
X116150000Y-107475000D01*
X116150000Y-105725000D02*
X117350000Y-105725000D01*
X117250000Y-104025000D02*
X116050000Y-104025000D01*
X116050000Y-102275000D02*
X117250000Y-102275000D01*
X126250000Y-99825000D02*
X127450000Y-99825000D01*
X127450000Y-101575000D02*
X126250000Y-101575000D01*
X126250000Y-97575000D02*
X127450000Y-97575000D01*
X127450000Y-99325000D02*
X126250000Y-99325000D01*
X126250000Y-92975000D02*
X127450000Y-92975000D01*
X127450000Y-94725000D02*
X126250000Y-94725000D01*
X126250000Y-95225000D02*
X127450000Y-95225000D01*
X127450000Y-96975000D02*
X126250000Y-96975000D01*
X146540000Y-108595000D02*
X146540000Y-107395000D01*
X148290000Y-107395000D02*
X148290000Y-108595000D01*
X143090000Y-108545000D02*
X143090000Y-107345000D01*
X144840000Y-107345000D02*
X144840000Y-108545000D01*
X139340000Y-108595000D02*
X139340000Y-107395000D01*
X141090000Y-107395000D02*
X141090000Y-108595000D01*
X141925000Y-80050000D02*
X141925000Y-81250000D01*
X140175000Y-81250000D02*
X140175000Y-80050000D01*
X125475000Y-102625000D02*
X125475000Y-103400000D01*
X121175000Y-106925000D02*
X121175000Y-106150000D01*
X125475000Y-106925000D02*
X125475000Y-106150000D01*
X121175000Y-102625000D02*
X121950000Y-102625000D01*
X121175000Y-106925000D02*
X121950000Y-106925000D01*
X125475000Y-106925000D02*
X124700000Y-106925000D01*
X125475000Y-102625000D02*
X124700000Y-102625000D01*
X139625000Y-86025000D02*
X139625000Y-86625000D01*
X153875000Y-86025000D02*
X153875000Y-86625000D01*
X153875000Y-100275000D02*
X153875000Y-99675000D01*
X139625000Y-100275000D02*
X139625000Y-99675000D01*
X139625000Y-86025000D02*
X140225000Y-86025000D01*
X139625000Y-100275000D02*
X140225000Y-100275000D01*
X153875000Y-100275000D02*
X153275000Y-100275000D01*
X153875000Y-86025000D02*
X153275000Y-86025000D01*
X139625000Y-86625000D02*
X138100000Y-86625000D01*
X170115000Y-92575000D02*
X170115000Y-92240000D01*
X162365000Y-92575000D02*
X162365000Y-92240000D01*
X162365000Y-79425000D02*
X162365000Y-79760000D01*
X170115000Y-79425000D02*
X170115000Y-79760000D01*
X170115000Y-92575000D02*
X162365000Y-92575000D01*
X170115000Y-79425000D02*
X162365000Y-79425000D01*
X170115000Y-92240000D02*
X171915000Y-92240000D01*
X169975000Y-107475000D02*
X169975000Y-107140000D01*
X162225000Y-107475000D02*
X162225000Y-107140000D01*
X162225000Y-94325000D02*
X162225000Y-94660000D01*
X169975000Y-94325000D02*
X169975000Y-94660000D01*
X169975000Y-107475000D02*
X162225000Y-107475000D01*
X169975000Y-94325000D02*
X162225000Y-94325000D01*
X169975000Y-107140000D02*
X171775000Y-107140000D01*
D14*
X135340000Y-88490000D02*
X135340000Y-96110000D01*
X135340000Y-96110000D02*
X130260000Y-96110000D01*
X130260000Y-96110000D02*
X130260000Y-88490000D01*
X132800000Y-88490000D02*
X132800000Y-91030000D01*
X132800000Y-91030000D02*
X130260000Y-91030000D01*
X135340000Y-88490000D02*
X130260000Y-88490000D01*
D12*
X152725000Y-109500000D02*
X152725000Y-110700000D01*
X150975000Y-110700000D02*
X150975000Y-109500000D01*
X127025000Y-85300000D02*
X127025000Y-87300000D01*
X124075000Y-87300000D02*
X124075000Y-85300000D01*
D14*
X142850000Y-76160000D02*
X155550000Y-76160000D01*
X155550000Y-76160000D02*
X155550000Y-81240000D01*
X155550000Y-81240000D02*
X142850000Y-81240000D01*
X142850000Y-78700000D02*
X145390000Y-78700000D01*
X145390000Y-78700000D02*
X145390000Y-81240000D01*
X142850000Y-76160000D02*
X142850000Y-81240000D01*
D12*
X166620000Y-109180000D02*
X165620000Y-109180000D01*
X165620000Y-110880000D02*
X166620000Y-110880000D01*
X130585000Y-83096000D02*
X131982000Y-83096000D01*
X130331000Y-82969000D02*
X132109000Y-82969000D01*
X129950000Y-82842000D02*
X132490000Y-82842000D01*
X132617000Y-82715000D02*
X129823000Y-82715000D01*
X129696000Y-82588000D02*
X132744000Y-82588000D01*
X132871000Y-82461000D02*
X129569000Y-82461000D01*
X129442000Y-82334000D02*
X132998000Y-82334000D01*
X128553000Y-83477000D02*
X128553000Y-78905000D01*
X128553000Y-78905000D02*
X129315000Y-78143000D01*
X129315000Y-78143000D02*
X133125000Y-78143000D01*
X133125000Y-78143000D02*
X133887000Y-78905000D01*
X133887000Y-78905000D02*
X133887000Y-83477000D01*
X133887000Y-83477000D02*
X128553000Y-83477000D01*
X131220000Y-78651000D02*
X131220000Y-79413000D01*
X130839000Y-79032000D02*
X131601000Y-79032000D01*
X133633000Y-80810000D02*
G75*
G03X133633000Y-80810000I-2413000J0D01*
G01*
X133233334Y-106897143D02*
X133185715Y-106944762D01*
X133042858Y-106992381D01*
X132947620Y-106992381D01*
X132804762Y-106944762D01*
X132709524Y-106849524D01*
X132661905Y-106754286D01*
X132614286Y-106563810D01*
X132614286Y-106420952D01*
X132661905Y-106230476D01*
X132709524Y-106135238D01*
X132804762Y-106040000D01*
X132947620Y-105992381D01*
X133042858Y-105992381D01*
X133185715Y-106040000D01*
X133233334Y-106087619D01*
X134185715Y-106992381D02*
X133614286Y-106992381D01*
X133900000Y-106992381D02*
X133900000Y-105992381D01*
X133804762Y-106135238D01*
X133709524Y-106230476D01*
X133614286Y-106278095D01*
X128433334Y-105207143D02*
X128385715Y-105254762D01*
X128242858Y-105302381D01*
X128147620Y-105302381D01*
X128004762Y-105254762D01*
X127909524Y-105159524D01*
X127861905Y-105064286D01*
X127814286Y-104873810D01*
X127814286Y-104730952D01*
X127861905Y-104540476D01*
X127909524Y-104445238D01*
X128004762Y-104350000D01*
X128147620Y-104302381D01*
X128242858Y-104302381D01*
X128385715Y-104350000D01*
X128433334Y-104397619D01*
X128814286Y-104397619D02*
X128861905Y-104350000D01*
X128957143Y-104302381D01*
X129195239Y-104302381D01*
X129290477Y-104350000D01*
X129338096Y-104397619D01*
X129385715Y-104492857D01*
X129385715Y-104588095D01*
X129338096Y-104730952D01*
X128766667Y-105302381D01*
X129385715Y-105302381D01*
X156153334Y-109967143D02*
X156105715Y-110014762D01*
X155962858Y-110062381D01*
X155867620Y-110062381D01*
X155724762Y-110014762D01*
X155629524Y-109919524D01*
X155581905Y-109824286D01*
X155534286Y-109633810D01*
X155534286Y-109490952D01*
X155581905Y-109300476D01*
X155629524Y-109205238D01*
X155724762Y-109110000D01*
X155867620Y-109062381D01*
X155962858Y-109062381D01*
X156105715Y-109110000D01*
X156153334Y-109157619D01*
X156486667Y-109062381D02*
X157105715Y-109062381D01*
X156772381Y-109443333D01*
X156915239Y-109443333D01*
X157010477Y-109490952D01*
X157058096Y-109538571D01*
X157105715Y-109633810D01*
X157105715Y-109871905D01*
X157058096Y-109967143D01*
X157010477Y-110014762D01*
X156915239Y-110062381D01*
X156629524Y-110062381D01*
X156534286Y-110014762D01*
X156486667Y-109967143D01*
X165793334Y-80077143D02*
X165745715Y-80124762D01*
X165602858Y-80172381D01*
X165507620Y-80172381D01*
X165364762Y-80124762D01*
X165269524Y-80029524D01*
X165221905Y-79934286D01*
X165174286Y-79743810D01*
X165174286Y-79600952D01*
X165221905Y-79410476D01*
X165269524Y-79315238D01*
X165364762Y-79220000D01*
X165507620Y-79172381D01*
X165602858Y-79172381D01*
X165745715Y-79220000D01*
X165793334Y-79267619D01*
X166698096Y-79172381D02*
X166221905Y-79172381D01*
X166174286Y-79648571D01*
X166221905Y-79600952D01*
X166317143Y-79553333D01*
X166555239Y-79553333D01*
X166650477Y-79600952D01*
X166698096Y-79648571D01*
X166745715Y-79743810D01*
X166745715Y-79981905D01*
X166698096Y-80077143D01*
X166650477Y-80124762D01*
X166555239Y-80172381D01*
X166317143Y-80172381D01*
X166221905Y-80124762D01*
X166174286Y-80077143D01*
X136287143Y-101926666D02*
X136334762Y-101974285D01*
X136382381Y-102117142D01*
X136382381Y-102212380D01*
X136334762Y-102355238D01*
X136239524Y-102450476D01*
X136144286Y-102498095D01*
X135953810Y-102545714D01*
X135810952Y-102545714D01*
X135620476Y-102498095D01*
X135525238Y-102450476D01*
X135430000Y-102355238D01*
X135382381Y-102212380D01*
X135382381Y-102117142D01*
X135430000Y-101974285D01*
X135477619Y-101926666D01*
X135382381Y-101069523D02*
X135382381Y-101260000D01*
X135430000Y-101355238D01*
X135477619Y-101402857D01*
X135620476Y-101498095D01*
X135810952Y-101545714D01*
X136191905Y-101545714D01*
X136287143Y-101498095D01*
X136334762Y-101450476D01*
X136382381Y-101355238D01*
X136382381Y-101164761D01*
X136334762Y-101069523D01*
X136287143Y-101021904D01*
X136191905Y-100974285D01*
X135953810Y-100974285D01*
X135858571Y-101021904D01*
X135810952Y-101069523D01*
X135763333Y-101164761D01*
X135763333Y-101355238D01*
X135810952Y-101450476D01*
X135858571Y-101498095D01*
X135953810Y-101545714D01*
X138637143Y-101816666D02*
X138684762Y-101864285D01*
X138732381Y-102007142D01*
X138732381Y-102102380D01*
X138684762Y-102245238D01*
X138589524Y-102340476D01*
X138494286Y-102388095D01*
X138303810Y-102435714D01*
X138160952Y-102435714D01*
X137970476Y-102388095D01*
X137875238Y-102340476D01*
X137780000Y-102245238D01*
X137732381Y-102102380D01*
X137732381Y-102007142D01*
X137780000Y-101864285D01*
X137827619Y-101816666D01*
X137732381Y-101483333D02*
X137732381Y-100816666D01*
X138732381Y-101245238D01*
X135167143Y-83556666D02*
X135214762Y-83604285D01*
X135262381Y-83747142D01*
X135262381Y-83842380D01*
X135214762Y-83985238D01*
X135119524Y-84080476D01*
X135024286Y-84128095D01*
X134833810Y-84175714D01*
X134690952Y-84175714D01*
X134500476Y-84128095D01*
X134405238Y-84080476D01*
X134310000Y-83985238D01*
X134262381Y-83842380D01*
X134262381Y-83747142D01*
X134310000Y-83604285D01*
X134357619Y-83556666D01*
X134690952Y-82985238D02*
X134643333Y-83080476D01*
X134595714Y-83128095D01*
X134500476Y-83175714D01*
X134452857Y-83175714D01*
X134357619Y-83128095D01*
X134310000Y-83080476D01*
X134262381Y-82985238D01*
X134262381Y-82794761D01*
X134310000Y-82699523D01*
X134357619Y-82651904D01*
X134452857Y-82604285D01*
X134500476Y-82604285D01*
X134595714Y-82651904D01*
X134643333Y-82699523D01*
X134690952Y-82794761D01*
X134690952Y-82985238D01*
X134738571Y-83080476D01*
X134786190Y-83128095D01*
X134881429Y-83175714D01*
X135071905Y-83175714D01*
X135167143Y-83128095D01*
X135214762Y-83080476D01*
X135262381Y-82985238D01*
X135262381Y-82794761D01*
X135214762Y-82699523D01*
X135167143Y-82651904D01*
X135071905Y-82604285D01*
X134881429Y-82604285D01*
X134786190Y-82651904D01*
X134738571Y-82699523D01*
X134690952Y-82794761D01*
X149967381Y-112333095D02*
X148967381Y-112333095D01*
X148967381Y-112095000D01*
X149015000Y-111952142D01*
X149110238Y-111856904D01*
X149205476Y-111809285D01*
X149395952Y-111761666D01*
X149538810Y-111761666D01*
X149729286Y-111809285D01*
X149824524Y-111856904D01*
X149919762Y-111952142D01*
X149967381Y-112095000D01*
X149967381Y-112333095D01*
X149967381Y-110809285D02*
X149967381Y-111380714D01*
X149967381Y-111095000D02*
X148967381Y-111095000D01*
X149110238Y-111190238D01*
X149205476Y-111285476D01*
X149253095Y-111380714D01*
X146517381Y-112183095D02*
X145517381Y-112183095D01*
X145517381Y-111945000D01*
X145565000Y-111802142D01*
X145660238Y-111706904D01*
X145755476Y-111659285D01*
X145945952Y-111611666D01*
X146088810Y-111611666D01*
X146279286Y-111659285D01*
X146374524Y-111706904D01*
X146469762Y-111802142D01*
X146517381Y-111945000D01*
X146517381Y-112183095D01*
X145612619Y-111230714D02*
X145565000Y-111183095D01*
X145517381Y-111087857D01*
X145517381Y-110849761D01*
X145565000Y-110754523D01*
X145612619Y-110706904D01*
X145707857Y-110659285D01*
X145803095Y-110659285D01*
X145945952Y-110706904D01*
X146517381Y-111278333D01*
X146517381Y-110659285D01*
X142767381Y-112233095D02*
X141767381Y-112233095D01*
X141767381Y-111995000D01*
X141815000Y-111852142D01*
X141910238Y-111756904D01*
X142005476Y-111709285D01*
X142195952Y-111661666D01*
X142338810Y-111661666D01*
X142529286Y-111709285D01*
X142624524Y-111756904D01*
X142719762Y-111852142D01*
X142767381Y-111995000D01*
X142767381Y-112233095D01*
X141767381Y-111328333D02*
X141767381Y-110709285D01*
X142148333Y-111042619D01*
X142148333Y-110899761D01*
X142195952Y-110804523D01*
X142243571Y-110756904D01*
X142338810Y-110709285D01*
X142576905Y-110709285D01*
X142672143Y-110756904D01*
X142719762Y-110804523D01*
X142767381Y-110899761D01*
X142767381Y-111185476D01*
X142719762Y-111280714D01*
X142672143Y-111328333D01*
D14*
X105302889Y-93305057D02*
X103778889Y-93305057D01*
X103778889Y-92724485D01*
X103851460Y-92579343D01*
X103924031Y-92506771D01*
X104069174Y-92434200D01*
X104286889Y-92434200D01*
X104432031Y-92506771D01*
X104504603Y-92579343D01*
X104577174Y-92724485D01*
X104577174Y-93305057D01*
X103924031Y-91853628D02*
X103851460Y-91781057D01*
X103778889Y-91635914D01*
X103778889Y-91273057D01*
X103851460Y-91127914D01*
X103924031Y-91055343D01*
X104069174Y-90982771D01*
X104214317Y-90982771D01*
X104432031Y-91055343D01*
X105302889Y-91926200D01*
X105302889Y-90982771D01*
X122280249Y-94103343D02*
X123513963Y-94103343D01*
X123659106Y-94030771D01*
X123731677Y-93958200D01*
X123804249Y-93813057D01*
X123804249Y-93522771D01*
X123731677Y-93377629D01*
X123659106Y-93305057D01*
X123513963Y-93232486D01*
X122280249Y-93232486D01*
X123731677Y-92579343D02*
X123804249Y-92361629D01*
X123804249Y-91998772D01*
X123731677Y-91853629D01*
X123659106Y-91781058D01*
X123513963Y-91708486D01*
X123368820Y-91708486D01*
X123223677Y-91781058D01*
X123151106Y-91853629D01*
X123078534Y-91998772D01*
X123005963Y-92289058D01*
X122933391Y-92434200D01*
X122860820Y-92506772D01*
X122715677Y-92579343D01*
X122570534Y-92579343D01*
X122425391Y-92506772D01*
X122352820Y-92434200D01*
X122280249Y-92289058D01*
X122280249Y-91926200D01*
X122352820Y-91708486D01*
X123005963Y-90547343D02*
X123078534Y-90329629D01*
X123151106Y-90257057D01*
X123296249Y-90184486D01*
X123513963Y-90184486D01*
X123659106Y-90257057D01*
X123731677Y-90329629D01*
X123804249Y-90474771D01*
X123804249Y-91055343D01*
X122280249Y-91055343D01*
X122280249Y-90547343D01*
X122352820Y-90402200D01*
X122425391Y-90329629D01*
X122570534Y-90257057D01*
X122715677Y-90257057D01*
X122860820Y-90329629D01*
X122933391Y-90402200D01*
X123005963Y-90547343D01*
X123005963Y-91055343D01*
D15*
X184089619Y-94819904D02*
X183073619Y-94819904D01*
X183073619Y-94432857D01*
X183122000Y-94336095D01*
X183170381Y-94287714D01*
X183267143Y-94239333D01*
X183412286Y-94239333D01*
X183509048Y-94287714D01*
X183557429Y-94336095D01*
X183605810Y-94432857D01*
X183605810Y-94819904D01*
X183073619Y-93320095D02*
X183073619Y-93803904D01*
X183557429Y-93852285D01*
X183509048Y-93803904D01*
X183460667Y-93707142D01*
X183460667Y-93465238D01*
X183509048Y-93368476D01*
X183557429Y-93320095D01*
X183654190Y-93271714D01*
X183896095Y-93271714D01*
X183992857Y-93320095D01*
X184041238Y-93368476D01*
X184089619Y-93465238D01*
X184089619Y-93707142D01*
X184041238Y-93803904D01*
X183992857Y-93852285D01*
D12*
X125083334Y-112452381D02*
X124750000Y-111976190D01*
X124511905Y-112452381D02*
X124511905Y-111452381D01*
X124892858Y-111452381D01*
X124988096Y-111500000D01*
X125035715Y-111547619D01*
X125083334Y-111642857D01*
X125083334Y-111785714D01*
X125035715Y-111880952D01*
X124988096Y-111928571D01*
X124892858Y-111976190D01*
X124511905Y-111976190D01*
X126035715Y-112452381D02*
X125464286Y-112452381D01*
X125750000Y-112452381D02*
X125750000Y-111452381D01*
X125654762Y-111595238D01*
X125559524Y-111690476D01*
X125464286Y-111738095D01*
X116583334Y-104952381D02*
X116250000Y-104476190D01*
X116011905Y-104952381D02*
X116011905Y-103952381D01*
X116392858Y-103952381D01*
X116488096Y-104000000D01*
X116535715Y-104047619D01*
X116583334Y-104142857D01*
X116583334Y-104285714D01*
X116535715Y-104380952D01*
X116488096Y-104428571D01*
X116392858Y-104476190D01*
X116011905Y-104476190D01*
X116964286Y-104047619D02*
X117011905Y-104000000D01*
X117107143Y-103952381D01*
X117345239Y-103952381D01*
X117440477Y-104000000D01*
X117488096Y-104047619D01*
X117535715Y-104142857D01*
X117535715Y-104238095D01*
X117488096Y-104380952D01*
X116916667Y-104952381D01*
X117535715Y-104952381D01*
X116483334Y-101502381D02*
X116150000Y-101026190D01*
X115911905Y-101502381D02*
X115911905Y-100502381D01*
X116292858Y-100502381D01*
X116388096Y-100550000D01*
X116435715Y-100597619D01*
X116483334Y-100692857D01*
X116483334Y-100835714D01*
X116435715Y-100930952D01*
X116388096Y-100978571D01*
X116292858Y-101026190D01*
X115911905Y-101026190D01*
X116816667Y-100502381D02*
X117435715Y-100502381D01*
X117102381Y-100883333D01*
X117245239Y-100883333D01*
X117340477Y-100930952D01*
X117388096Y-100978571D01*
X117435715Y-101073810D01*
X117435715Y-101311905D01*
X117388096Y-101407143D01*
X117340477Y-101454762D01*
X117245239Y-101502381D01*
X116959524Y-101502381D01*
X116864286Y-101454762D01*
X116816667Y-101407143D01*
X126683334Y-103252381D02*
X126350000Y-102776190D01*
X126111905Y-103252381D02*
X126111905Y-102252381D01*
X126492858Y-102252381D01*
X126588096Y-102300000D01*
X126635715Y-102347619D01*
X126683334Y-102442857D01*
X126683334Y-102585714D01*
X126635715Y-102680952D01*
X126588096Y-102728571D01*
X126492858Y-102776190D01*
X126111905Y-102776190D01*
X127540477Y-102585714D02*
X127540477Y-103252381D01*
X127302381Y-102204762D02*
X127064286Y-102919048D01*
X127683334Y-102919048D01*
X126683334Y-101002381D02*
X126350000Y-100526190D01*
X126111905Y-101002381D02*
X126111905Y-100002381D01*
X126492858Y-100002381D01*
X126588096Y-100050000D01*
X126635715Y-100097619D01*
X126683334Y-100192857D01*
X126683334Y-100335714D01*
X126635715Y-100430952D01*
X126588096Y-100478571D01*
X126492858Y-100526190D01*
X126111905Y-100526190D01*
X127588096Y-100002381D02*
X127111905Y-100002381D01*
X127064286Y-100478571D01*
X127111905Y-100430952D01*
X127207143Y-100383333D01*
X127445239Y-100383333D01*
X127540477Y-100430952D01*
X127588096Y-100478571D01*
X127635715Y-100573810D01*
X127635715Y-100811905D01*
X127588096Y-100907143D01*
X127540477Y-100954762D01*
X127445239Y-101002381D01*
X127207143Y-101002381D01*
X127111905Y-100954762D01*
X127064286Y-100907143D01*
X126683334Y-96402381D02*
X126350000Y-95926190D01*
X126111905Y-96402381D02*
X126111905Y-95402381D01*
X126492858Y-95402381D01*
X126588096Y-95450000D01*
X126635715Y-95497619D01*
X126683334Y-95592857D01*
X126683334Y-95735714D01*
X126635715Y-95830952D01*
X126588096Y-95878571D01*
X126492858Y-95926190D01*
X126111905Y-95926190D01*
X127016667Y-95402381D02*
X127683334Y-95402381D01*
X127254762Y-96402381D01*
X126683334Y-98652381D02*
X126350000Y-98176190D01*
X126111905Y-98652381D02*
X126111905Y-97652381D01*
X126492858Y-97652381D01*
X126588096Y-97700000D01*
X126635715Y-97747619D01*
X126683334Y-97842857D01*
X126683334Y-97985714D01*
X126635715Y-98080952D01*
X126588096Y-98128571D01*
X126492858Y-98176190D01*
X126111905Y-98176190D01*
X127254762Y-98080952D02*
X127159524Y-98033333D01*
X127111905Y-97985714D01*
X127064286Y-97890476D01*
X127064286Y-97842857D01*
X127111905Y-97747619D01*
X127159524Y-97700000D01*
X127254762Y-97652381D01*
X127445239Y-97652381D01*
X127540477Y-97700000D01*
X127588096Y-97747619D01*
X127635715Y-97842857D01*
X127635715Y-97890476D01*
X127588096Y-97985714D01*
X127540477Y-98033333D01*
X127445239Y-98080952D01*
X127254762Y-98080952D01*
X127159524Y-98128571D01*
X127111905Y-98176190D01*
X127064286Y-98271429D01*
X127064286Y-98461905D01*
X127111905Y-98557143D01*
X127159524Y-98604762D01*
X127254762Y-98652381D01*
X127445239Y-98652381D01*
X127540477Y-98604762D01*
X127588096Y-98557143D01*
X127635715Y-98461905D01*
X127635715Y-98271429D01*
X127588096Y-98176190D01*
X127540477Y-98128571D01*
X127445239Y-98080952D01*
X149967381Y-108637857D02*
X149491190Y-108971191D01*
X149967381Y-109209286D02*
X148967381Y-109209286D01*
X148967381Y-108828333D01*
X149015000Y-108733095D01*
X149062619Y-108685476D01*
X149157857Y-108637857D01*
X149300714Y-108637857D01*
X149395952Y-108685476D01*
X149443571Y-108733095D01*
X149491190Y-108828333D01*
X149491190Y-109209286D01*
X149062619Y-108256905D02*
X149015000Y-108209286D01*
X148967381Y-108114048D01*
X148967381Y-107875952D01*
X149015000Y-107780714D01*
X149062619Y-107733095D01*
X149157857Y-107685476D01*
X149253095Y-107685476D01*
X149395952Y-107733095D01*
X149967381Y-108304524D01*
X149967381Y-107685476D01*
X149967381Y-106733095D02*
X149967381Y-107304524D01*
X149967381Y-107018810D02*
X148967381Y-107018810D01*
X149110238Y-107114048D01*
X149205476Y-107209286D01*
X149253095Y-107304524D01*
X146517381Y-108587857D02*
X146041190Y-108921191D01*
X146517381Y-109159286D02*
X145517381Y-109159286D01*
X145517381Y-108778333D01*
X145565000Y-108683095D01*
X145612619Y-108635476D01*
X145707857Y-108587857D01*
X145850714Y-108587857D01*
X145945952Y-108635476D01*
X145993571Y-108683095D01*
X146041190Y-108778333D01*
X146041190Y-109159286D01*
X145612619Y-108206905D02*
X145565000Y-108159286D01*
X145517381Y-108064048D01*
X145517381Y-107825952D01*
X145565000Y-107730714D01*
X145612619Y-107683095D01*
X145707857Y-107635476D01*
X145803095Y-107635476D01*
X145945952Y-107683095D01*
X146517381Y-108254524D01*
X146517381Y-107635476D01*
X145612619Y-107254524D02*
X145565000Y-107206905D01*
X145517381Y-107111667D01*
X145517381Y-106873571D01*
X145565000Y-106778333D01*
X145612619Y-106730714D01*
X145707857Y-106683095D01*
X145803095Y-106683095D01*
X145945952Y-106730714D01*
X146517381Y-107302143D01*
X146517381Y-106683095D01*
X142767381Y-108637857D02*
X142291190Y-108971191D01*
X142767381Y-109209286D02*
X141767381Y-109209286D01*
X141767381Y-108828333D01*
X141815000Y-108733095D01*
X141862619Y-108685476D01*
X141957857Y-108637857D01*
X142100714Y-108637857D01*
X142195952Y-108685476D01*
X142243571Y-108733095D01*
X142291190Y-108828333D01*
X142291190Y-109209286D01*
X141862619Y-108256905D02*
X141815000Y-108209286D01*
X141767381Y-108114048D01*
X141767381Y-107875952D01*
X141815000Y-107780714D01*
X141862619Y-107733095D01*
X141957857Y-107685476D01*
X142053095Y-107685476D01*
X142195952Y-107733095D01*
X142767381Y-108304524D01*
X142767381Y-107685476D01*
X141767381Y-107352143D02*
X141767381Y-106733095D01*
X142148333Y-107066429D01*
X142148333Y-106923571D01*
X142195952Y-106828333D01*
X142243571Y-106780714D01*
X142338810Y-106733095D01*
X142576905Y-106733095D01*
X142672143Y-106780714D01*
X142719762Y-106828333D01*
X142767381Y-106923571D01*
X142767381Y-107209286D01*
X142719762Y-107304524D01*
X142672143Y-107352143D01*
X139652381Y-81342857D02*
X139176190Y-81676191D01*
X139652381Y-81914286D02*
X138652381Y-81914286D01*
X138652381Y-81533333D01*
X138700000Y-81438095D01*
X138747619Y-81390476D01*
X138842857Y-81342857D01*
X138985714Y-81342857D01*
X139080952Y-81390476D01*
X139128571Y-81438095D01*
X139176190Y-81533333D01*
X139176190Y-81914286D01*
X138747619Y-80961905D02*
X138700000Y-80914286D01*
X138652381Y-80819048D01*
X138652381Y-80580952D01*
X138700000Y-80485714D01*
X138747619Y-80438095D01*
X138842857Y-80390476D01*
X138938095Y-80390476D01*
X139080952Y-80438095D01*
X139652381Y-81009524D01*
X139652381Y-80390476D01*
X138985714Y-79533333D02*
X139652381Y-79533333D01*
X138604762Y-79771429D02*
X139319048Y-80009524D01*
X139319048Y-79390476D01*
X122563095Y-100827381D02*
X122563095Y-101636905D01*
X122610714Y-101732143D01*
X122658333Y-101779762D01*
X122753571Y-101827381D01*
X122944048Y-101827381D01*
X123039286Y-101779762D01*
X123086905Y-101732143D01*
X123134524Y-101636905D01*
X123134524Y-100827381D01*
X123515476Y-100827381D02*
X124134524Y-100827381D01*
X123801190Y-101208333D01*
X123944048Y-101208333D01*
X124039286Y-101255952D01*
X124086905Y-101303571D01*
X124134524Y-101398810D01*
X124134524Y-101636905D01*
X124086905Y-101732143D01*
X124039286Y-101779762D01*
X123944048Y-101827381D01*
X123658333Y-101827381D01*
X123563095Y-101779762D01*
X123515476Y-101732143D01*
X145988095Y-82952381D02*
X145988095Y-83761905D01*
X146035714Y-83857143D01*
X146083333Y-83904762D01*
X146178571Y-83952381D01*
X146369048Y-83952381D01*
X146464286Y-83904762D01*
X146511905Y-83857143D01*
X146559524Y-83761905D01*
X146559524Y-82952381D01*
X147464286Y-83285714D02*
X147464286Y-83952381D01*
X147226190Y-82904762D02*
X146988095Y-83619048D01*
X147607143Y-83619048D01*
X165478095Y-92952381D02*
X165478095Y-93761905D01*
X165525714Y-93857143D01*
X165573333Y-93904762D01*
X165668571Y-93952381D01*
X165859048Y-93952381D01*
X165954286Y-93904762D01*
X166001905Y-93857143D01*
X166049524Y-93761905D01*
X166049524Y-92952381D01*
X167049524Y-93952381D02*
X166478095Y-93952381D01*
X166763809Y-93952381D02*
X166763809Y-92952381D01*
X166668571Y-93095238D01*
X166573333Y-93190476D01*
X166478095Y-93238095D01*
X165338095Y-107852381D02*
X165338095Y-108661905D01*
X165385714Y-108757143D01*
X165433333Y-108804762D01*
X165528571Y-108852381D01*
X165719048Y-108852381D01*
X165814286Y-108804762D01*
X165861905Y-108757143D01*
X165909524Y-108661905D01*
X165909524Y-107852381D01*
X166338095Y-107947619D02*
X166385714Y-107900000D01*
X166480952Y-107852381D01*
X166719048Y-107852381D01*
X166814286Y-107900000D01*
X166861905Y-107947619D01*
X166909524Y-108042857D01*
X166909524Y-108138095D01*
X166861905Y-108280952D01*
X166290476Y-108852381D01*
X166909524Y-108852381D01*
D15*
X136972857Y-93533714D02*
X137021238Y-93582095D01*
X137069619Y-93727238D01*
X137069619Y-93824000D01*
X137021238Y-93969142D01*
X136924476Y-94065904D01*
X136827714Y-94114285D01*
X136634190Y-94162666D01*
X136489048Y-94162666D01*
X136295524Y-94114285D01*
X136198762Y-94065904D01*
X136102000Y-93969142D01*
X136053619Y-93824000D01*
X136053619Y-93727238D01*
X136102000Y-93582095D01*
X136150381Y-93533714D01*
X136053619Y-92904761D02*
X136053619Y-92711238D01*
X136102000Y-92614476D01*
X136198762Y-92517714D01*
X136392286Y-92469333D01*
X136730952Y-92469333D01*
X136924476Y-92517714D01*
X137021238Y-92614476D01*
X137069619Y-92711238D01*
X137069619Y-92904761D01*
X137021238Y-93001523D01*
X136924476Y-93098285D01*
X136730952Y-93146666D01*
X136392286Y-93146666D01*
X136198762Y-93098285D01*
X136102000Y-93001523D01*
X136053619Y-92904761D01*
X137069619Y-92033904D02*
X136053619Y-92033904D01*
X137069619Y-91453333D01*
X136053619Y-91453333D01*
X137069619Y-90437333D02*
X137069619Y-91017904D01*
X137069619Y-90727618D02*
X136053619Y-90727618D01*
X136198762Y-90824380D01*
X136295524Y-90921142D01*
X136343905Y-91017904D01*
D12*
X150202381Y-110742857D02*
X149726190Y-111076191D01*
X150202381Y-111314286D02*
X149202381Y-111314286D01*
X149202381Y-110933333D01*
X149250000Y-110838095D01*
X149297619Y-110790476D01*
X149392857Y-110742857D01*
X149535714Y-110742857D01*
X149630952Y-110790476D01*
X149678571Y-110838095D01*
X149726190Y-110933333D01*
X149726190Y-111314286D01*
X149297619Y-110361905D02*
X149250000Y-110314286D01*
X149202381Y-110219048D01*
X149202381Y-109980952D01*
X149250000Y-109885714D01*
X149297619Y-109838095D01*
X149392857Y-109790476D01*
X149488095Y-109790476D01*
X149630952Y-109838095D01*
X150202381Y-110409524D01*
X150202381Y-109790476D01*
X149202381Y-108885714D02*
X149202381Y-109361905D01*
X149678571Y-109409524D01*
X149630952Y-109361905D01*
X149583333Y-109266667D01*
X149583333Y-109028571D01*
X149630952Y-108933333D01*
X149678571Y-108885714D01*
X149773810Y-108838095D01*
X150011905Y-108838095D01*
X150107143Y-108885714D01*
X150154762Y-108933333D01*
X150202381Y-109028571D01*
X150202381Y-109266667D01*
X150154762Y-109361905D01*
X150107143Y-109409524D01*
X123302381Y-86466666D02*
X122826190Y-86800000D01*
X123302381Y-87038095D02*
X122302381Y-87038095D01*
X122302381Y-86657142D01*
X122350000Y-86561904D01*
X122397619Y-86514285D01*
X122492857Y-86466666D01*
X122635714Y-86466666D01*
X122730952Y-86514285D01*
X122778571Y-86561904D01*
X122826190Y-86657142D01*
X122826190Y-87038095D01*
X122302381Y-85609523D02*
X122302381Y-85800000D01*
X122350000Y-85895238D01*
X122397619Y-85942857D01*
X122540476Y-86038095D01*
X122730952Y-86085714D01*
X123111905Y-86085714D01*
X123207143Y-86038095D01*
X123254762Y-85990476D01*
X123302381Y-85895238D01*
X123302381Y-85704761D01*
X123254762Y-85609523D01*
X123207143Y-85561904D01*
X123111905Y-85514285D01*
X122873810Y-85514285D01*
X122778571Y-85561904D01*
X122730952Y-85609523D01*
X122683333Y-85704761D01*
X122683333Y-85895238D01*
X122730952Y-85990476D01*
X122778571Y-86038095D01*
X122873810Y-86085714D01*
D15*
X148861333Y-74333619D02*
X148861333Y-75059333D01*
X148812953Y-75204476D01*
X148716191Y-75301238D01*
X148571048Y-75349619D01*
X148474286Y-75349619D01*
X149877333Y-75349619D02*
X149296762Y-75349619D01*
X149587048Y-75349619D02*
X149587048Y-74333619D01*
X149490286Y-74478762D01*
X149393524Y-74575524D01*
X149296762Y-74623905D01*
D12*
X165953334Y-108287143D02*
X165905715Y-108334762D01*
X165762858Y-108382381D01*
X165667620Y-108382381D01*
X165524762Y-108334762D01*
X165429524Y-108239524D01*
X165381905Y-108144286D01*
X165334286Y-107953810D01*
X165334286Y-107810952D01*
X165381905Y-107620476D01*
X165429524Y-107525238D01*
X165524762Y-107430000D01*
X165667620Y-107382381D01*
X165762858Y-107382381D01*
X165905715Y-107430000D01*
X165953334Y-107477619D01*
X166810477Y-107715714D02*
X166810477Y-108382381D01*
X166572381Y-107334762D02*
X166334286Y-108049048D01*
X166953334Y-108049048D01*
X127767143Y-80976666D02*
X127814762Y-81024285D01*
X127862381Y-81167142D01*
X127862381Y-81262380D01*
X127814762Y-81405238D01*
X127719524Y-81500476D01*
X127624286Y-81548095D01*
X127433810Y-81595714D01*
X127290952Y-81595714D01*
X127100476Y-81548095D01*
X127005238Y-81500476D01*
X126910000Y-81405238D01*
X126862381Y-81262380D01*
X126862381Y-81167142D01*
X126910000Y-81024285D01*
X126957619Y-80976666D01*
X127862381Y-80500476D02*
X127862381Y-80310000D01*
X127814762Y-80214761D01*
X127767143Y-80167142D01*
X127624286Y-80071904D01*
X127433810Y-80024285D01*
X127052857Y-80024285D01*
X126957619Y-80071904D01*
X126910000Y-80119523D01*
X126862381Y-80214761D01*
X126862381Y-80405238D01*
X126910000Y-80500476D01*
X126957619Y-80548095D01*
X127052857Y-80595714D01*
X127290952Y-80595714D01*
X127386190Y-80548095D01*
X127433810Y-80500476D01*
X127481429Y-80405238D01*
X127481429Y-80214761D01*
X127433810Y-80119523D01*
X127386190Y-80071904D01*
X127290952Y-80024285D01*
X114506667Y-74721501D02*
X114173333Y-74245310D01*
X113935238Y-74721501D02*
X113935238Y-73721501D01*
X114316191Y-73721501D01*
X114411429Y-73769120D01*
X114459048Y-73816739D01*
X114506667Y-73911977D01*
X114506667Y-74054834D01*
X114459048Y-74150072D01*
X114411429Y-74197691D01*
X114316191Y-74245310D01*
X113935238Y-74245310D01*
X114935238Y-74197691D02*
X115268572Y-74197691D01*
X115411429Y-74721501D02*
X114935238Y-74721501D01*
X114935238Y-73721501D01*
X115411429Y-73721501D01*
X116173334Y-74197691D02*
X115840000Y-74197691D01*
X115840000Y-74721501D02*
X115840000Y-73721501D01*
X116316191Y-73721501D01*
X116840000Y-73721501D02*
X116840000Y-73959596D01*
X116601905Y-73864358D02*
X116840000Y-73959596D01*
X117078096Y-73864358D01*
X116697143Y-74150072D02*
X116840000Y-73959596D01*
X116982858Y-74150072D01*
X117601905Y-73721501D02*
X117601905Y-73959596D01*
X117363810Y-73864358D02*
X117601905Y-73959596D01*
X117840001Y-73864358D01*
X117459048Y-74150072D02*
X117601905Y-73959596D01*
X117744763Y-74150072D01*
X114276667Y-107251501D02*
X113943333Y-106775310D01*
X113705238Y-107251501D02*
X113705238Y-106251501D01*
X114086191Y-106251501D01*
X114181429Y-106299120D01*
X114229048Y-106346739D01*
X114276667Y-106441977D01*
X114276667Y-106584834D01*
X114229048Y-106680072D01*
X114181429Y-106727691D01*
X114086191Y-106775310D01*
X113705238Y-106775310D01*
X114705238Y-106727691D02*
X115038572Y-106727691D01*
X115181429Y-107251501D02*
X114705238Y-107251501D01*
X114705238Y-106251501D01*
X115181429Y-106251501D01*
X115943334Y-106727691D02*
X115610000Y-106727691D01*
X115610000Y-107251501D02*
X115610000Y-106251501D01*
X116086191Y-106251501D01*
X116610000Y-106251501D02*
X116610000Y-106489596D01*
X116371905Y-106394358D02*
X116610000Y-106489596D01*
X116848096Y-106394358D01*
X116467143Y-106680072D02*
X116610000Y-106489596D01*
X116752858Y-106680072D01*
X117371905Y-106251501D02*
X117371905Y-106489596D01*
X117133810Y-106394358D02*
X117371905Y-106489596D01*
X117610001Y-106394358D01*
X117229048Y-106680072D02*
X117371905Y-106489596D01*
X117514763Y-106680072D01*
X178856667Y-108201501D02*
X178523333Y-107725310D01*
X178285238Y-108201501D02*
X178285238Y-107201501D01*
X178666191Y-107201501D01*
X178761429Y-107249120D01*
X178809048Y-107296739D01*
X178856667Y-107391977D01*
X178856667Y-107534834D01*
X178809048Y-107630072D01*
X178761429Y-107677691D01*
X178666191Y-107725310D01*
X178285238Y-107725310D01*
X179285238Y-107677691D02*
X179618572Y-107677691D01*
X179761429Y-108201501D02*
X179285238Y-108201501D01*
X179285238Y-107201501D01*
X179761429Y-107201501D01*
X180523334Y-107677691D02*
X180190000Y-107677691D01*
X180190000Y-108201501D02*
X180190000Y-107201501D01*
X180666191Y-107201501D01*
X181190000Y-107201501D02*
X181190000Y-107439596D01*
X180951905Y-107344358D02*
X181190000Y-107439596D01*
X181428096Y-107344358D01*
X181047143Y-107630072D02*
X181190000Y-107439596D01*
X181332858Y-107630072D01*
X181951905Y-107201501D02*
X181951905Y-107439596D01*
X181713810Y-107344358D02*
X181951905Y-107439596D01*
X182190001Y-107344358D01*
X181809048Y-107630072D02*
X181951905Y-107439596D01*
X182094763Y-107630072D01*
M02*
