G04 #@! TF.FileFunction,Copper,L2,Bot,Signal*
%FSLAX46Y46*%
G04 Gerber Fmt 4.6, Leading zero omitted, Abs format (unit mm)*
G04 Created by KiCad (PCBNEW no-vcs-found-product) date Mo 14 Sep 2015 21:18:45 CEST*
%MOMM*%
G01*
G04 APERTURE LIST*
%ADD10C,0.100000*%
%ADD11C,1.501140*%
%ADD12C,3.500120*%
%ADD13R,1.524000X1.998980*%
%ADD14O,1.524000X1.998980*%
%ADD15R,1.998980X1.524000*%
%ADD16O,1.998980X1.524000*%
%ADD17R,2.199640X1.524000*%
%ADD18O,2.199640X1.524000*%
%ADD19C,0.600000*%
%ADD20C,0.250000*%
%ADD21C,0.254000*%
G04 APERTURE END LIST*
D10*
D11*
X118893800Y-86910800D03*
X118893800Y-89400000D03*
X120900400Y-89400000D03*
X120900400Y-86910800D03*
D12*
X116176000Y-82135600D03*
X116176000Y-94175200D03*
D13*
X145900000Y-80388920D03*
D14*
X145900000Y-77351080D03*
X148440000Y-80388920D03*
X148440000Y-77351080D03*
X150980000Y-80388920D03*
X150980000Y-77351080D03*
D15*
X179031080Y-79080000D03*
D16*
X182068920Y-79080000D03*
X179031080Y-81620000D03*
X182068920Y-81620000D03*
X179031080Y-84160000D03*
X182068920Y-84160000D03*
X179031080Y-86700000D03*
X182068920Y-86700000D03*
X179031080Y-89240000D03*
X182068920Y-89240000D03*
X179031080Y-91780000D03*
X182068920Y-91780000D03*
X179031080Y-94320000D03*
X182068920Y-94320000D03*
X179031080Y-96860000D03*
X182068920Y-96860000D03*
X179031080Y-99400000D03*
X182068920Y-99400000D03*
X179031080Y-101940000D03*
X182068920Y-101940000D03*
X179031080Y-104480000D03*
X182068920Y-104480000D03*
X179031080Y-107020000D03*
X182068920Y-107020000D03*
D13*
X142420000Y-111248920D03*
D14*
X142420000Y-108211080D03*
X144960000Y-111248920D03*
X144960000Y-108211080D03*
X147500000Y-111248920D03*
X147500000Y-108211080D03*
D17*
X154000000Y-77660000D03*
D18*
X154000000Y-80200000D03*
D19*
X153550000Y-105450000D03*
X138250000Y-108000000D03*
X143050000Y-99600000D03*
X134050000Y-103100000D03*
X128050000Y-105950000D03*
X124350000Y-96700000D03*
X118400000Y-98450000D03*
X139450000Y-83600000D03*
X182100000Y-76650000D03*
X167850000Y-76900000D03*
X118450000Y-107200000D03*
X121500000Y-77350000D03*
X127000000Y-80450000D03*
X161150000Y-92650000D03*
X167700000Y-109500000D03*
X159700000Y-106700000D03*
X158500000Y-109400000D03*
X144103500Y-81776800D03*
X137051000Y-111017900D03*
X140780000Y-99440000D03*
X141450000Y-102780000D03*
X138429400Y-94400000D03*
X135890500Y-97600000D03*
X139054300Y-98400000D03*
X138430000Y-99190000D03*
X139239500Y-99835200D03*
X147219800Y-99787300D03*
X149843100Y-98679400D03*
X167650000Y-102900000D03*
X168150000Y-101600000D03*
X168800000Y-100300000D03*
X172450000Y-99050000D03*
X172700000Y-97750000D03*
X173225000Y-86675000D03*
X166700000Y-105275000D03*
X172650000Y-104100000D03*
X120569700Y-97502700D03*
X123650000Y-102078900D03*
X135244800Y-88800000D03*
X135800000Y-108287000D03*
X131850500Y-89100000D03*
X129475000Y-78860700D03*
X134079500Y-90400000D03*
X134157400Y-78885500D03*
X119717500Y-100150000D03*
X127807300Y-90754000D03*
X131550400Y-108122700D03*
X132663400Y-93381600D03*
X132012200Y-95536100D03*
X129272400Y-108096200D03*
X126900000Y-104450000D03*
X130050000Y-98700000D03*
X121005900Y-101175000D03*
X129907500Y-97715900D03*
X133900000Y-95900000D03*
X133250000Y-84750000D03*
X159850000Y-95250000D03*
X154348900Y-100024700D03*
X167975000Y-91625000D03*
X151550000Y-104850000D03*
D20*
X147500000Y-108211080D02*
X150788920Y-108211080D01*
X150788920Y-108211080D02*
X153550000Y-105450000D01*
X181820000Y-99400000D02*
X182575000Y-99400000D01*
X182575000Y-99400000D02*
X183675000Y-98300000D01*
X183675000Y-93635000D02*
X181820000Y-91780000D01*
X183675000Y-98300000D02*
X183675000Y-93635000D01*
X138250000Y-108000000D02*
X138300000Y-108000000D01*
X139450000Y-82900000D02*
X139450000Y-83600000D01*
X127000000Y-80450000D02*
X126950000Y-80400000D01*
X179280000Y-107020000D02*
X179280000Y-104480000D01*
X181820000Y-107020000D02*
X181820000Y-104480000D01*
X181820000Y-104480000D02*
X181820000Y-101940000D01*
X179280000Y-101940000D02*
X179280000Y-104480000D01*
X181820000Y-101940000D02*
X181820000Y-99400000D01*
X136788700Y-110755600D02*
X137051000Y-111017900D01*
X136788700Y-97655400D02*
X136788700Y-110755600D01*
X144103500Y-90340600D02*
X136788700Y-97655400D01*
X144103500Y-81776800D02*
X144103500Y-90340600D01*
X144960000Y-108460000D02*
X144960000Y-106760000D01*
X140780000Y-103480000D02*
X140780000Y-99440000D01*
X142110000Y-104810000D02*
X140780000Y-103480000D01*
X143640000Y-104810000D02*
X142110000Y-104810000D01*
X144960000Y-106130000D02*
X143640000Y-104810000D01*
X144960000Y-106760000D02*
X144960000Y-106130000D01*
X147500000Y-111000000D02*
X147420000Y-111000000D01*
X147420000Y-111000000D02*
X146220000Y-109800000D01*
X141450000Y-103270000D02*
X141450000Y-102780000D01*
X142480000Y-104300000D02*
X141450000Y-103270000D01*
X143840000Y-104300000D02*
X142480000Y-104300000D01*
X146220000Y-106680000D02*
X143840000Y-104300000D01*
X146220000Y-109800000D02*
X146220000Y-106680000D01*
X145900000Y-80140000D02*
X144812700Y-80140000D01*
X138429400Y-86523300D02*
X138429400Y-94400000D01*
X144812700Y-80140000D02*
X138429400Y-86523300D01*
X135890500Y-97600000D02*
X135890500Y-95929500D01*
X137910000Y-93910000D02*
X137910000Y-86032428D01*
X135890500Y-95929500D02*
X137910000Y-93910000D01*
X137910000Y-86032428D02*
X142430000Y-81512428D01*
X142430000Y-81512428D02*
X142430000Y-79720000D01*
X142430000Y-79720000D02*
X144798920Y-77351080D01*
X144798920Y-77351080D02*
X145900000Y-77351080D01*
X148440000Y-89014300D02*
X139054300Y-98400000D01*
X148440000Y-80140000D02*
X148440000Y-89014300D01*
X147160000Y-78880000D02*
X148440000Y-77600000D01*
X147160000Y-88540000D02*
X147160000Y-78880000D01*
X138410000Y-97290000D02*
X147160000Y-88540000D01*
X138410000Y-99170000D02*
X138410000Y-97290000D01*
X138430000Y-99190000D02*
X138410000Y-99170000D01*
X150980000Y-88094700D02*
X139239500Y-99835200D01*
X150980000Y-80140000D02*
X150980000Y-88094700D01*
X154000000Y-77660000D02*
X154000000Y-78203700D01*
X154000000Y-78203700D02*
X153456400Y-78747300D01*
X152380800Y-94626300D02*
X147219800Y-99787300D01*
X152380800Y-79822900D02*
X152380800Y-94626300D01*
X153456400Y-78747300D02*
X152380800Y-79822900D01*
X154000000Y-94522500D02*
X149843100Y-98679400D01*
X154000000Y-80200000D02*
X154000000Y-94522500D01*
X177340000Y-84160000D02*
X179280000Y-84160000D01*
X172800000Y-88700000D02*
X177340000Y-84160000D01*
X172800000Y-91050000D02*
X172800000Y-88700000D01*
X167500000Y-96350000D02*
X172800000Y-91050000D01*
X167500000Y-102750000D02*
X167500000Y-96350000D01*
X167650000Y-102900000D02*
X167500000Y-102750000D01*
X181820000Y-84160000D02*
X181820000Y-84430000D01*
X181820000Y-84430000D02*
X180800000Y-85450000D01*
X180800000Y-85450000D02*
X177800000Y-85450000D01*
X177800000Y-85450000D02*
X173300000Y-89950000D01*
X173300000Y-89950000D02*
X173300000Y-91300000D01*
X173300000Y-91300000D02*
X168150000Y-96450000D01*
X168150000Y-96450000D02*
X168150000Y-101600000D01*
X179280000Y-86700000D02*
X178650000Y-86700000D01*
X178650000Y-86700000D02*
X168800000Y-96550000D01*
X168800000Y-96550000D02*
X168800000Y-100300000D01*
X181820000Y-86700000D02*
X181700000Y-86700000D01*
X181700000Y-86700000D02*
X180550000Y-87850000D01*
X180550000Y-87850000D02*
X180550000Y-90150000D01*
X180550000Y-90150000D02*
X180200000Y-90500000D01*
X180200000Y-90500000D02*
X178000000Y-90500000D01*
X178000000Y-90500000D02*
X173700000Y-94800000D01*
X173700000Y-94800000D02*
X173700000Y-97800000D01*
X173700000Y-97800000D02*
X172450000Y-99050000D01*
X179280000Y-89240000D02*
X178260000Y-89240000D01*
X178260000Y-89240000D02*
X172700000Y-94800000D01*
X172700000Y-94800000D02*
X172700000Y-97750000D01*
X179046200Y-89240000D02*
X179280000Y-89240000D01*
X172275000Y-87625000D02*
X173225000Y-86675000D01*
X172275000Y-89875000D02*
X172275000Y-87625000D01*
X166700000Y-95450000D02*
X172275000Y-89875000D01*
X166700000Y-105275000D02*
X166700000Y-95450000D01*
X179280000Y-91780000D02*
X179380000Y-91780000D01*
X179380000Y-91780000D02*
X180500000Y-92900000D01*
X180500000Y-92900000D02*
X180500000Y-100150000D01*
X180500000Y-100150000D02*
X179950000Y-100700000D01*
X179950000Y-100700000D02*
X176700000Y-100700000D01*
X176700000Y-100700000D02*
X173300000Y-104100000D01*
X173300000Y-104100000D02*
X172650000Y-104100000D01*
X119068100Y-99004300D02*
X120569700Y-97502700D01*
X119068100Y-100445600D02*
X119068100Y-99004300D01*
X120701400Y-102078900D02*
X119068100Y-100445600D01*
X123650000Y-102078900D02*
X120701400Y-102078900D01*
X135244800Y-107731800D02*
X135244800Y-88800000D01*
X135800000Y-108287000D02*
X135244800Y-107731800D01*
X129475000Y-86724500D02*
X131850500Y-89100000D01*
X129475000Y-78860700D02*
X129475000Y-86724500D01*
X134079500Y-78963400D02*
X134079500Y-90400000D01*
X134157400Y-78885500D02*
X134079500Y-78963400D01*
X127807300Y-92060200D02*
X127807300Y-90754000D01*
X119717500Y-100150000D02*
X127807300Y-92060200D01*
X132663400Y-107009700D02*
X131550400Y-108122700D01*
X132663400Y-93381600D02*
X132663400Y-107009700D01*
X132012200Y-105356400D02*
X132012200Y-95536100D01*
X129272400Y-108096200D02*
X132012200Y-105356400D01*
X126900000Y-104450000D02*
X126900000Y-101900000D01*
X126900000Y-101900000D02*
X130050000Y-98750000D01*
X130050000Y-98750000D02*
X130050000Y-98700000D01*
X126448400Y-101175000D02*
X121005900Y-101175000D01*
X129907500Y-97715900D02*
X126448400Y-101175000D01*
X133250000Y-84750000D02*
X133250000Y-92650000D01*
X133900000Y-93300000D02*
X133900000Y-95900000D01*
X133250000Y-92650000D02*
X133900000Y-93300000D01*
X133250000Y-84750000D02*
X133200000Y-84750000D01*
X154348900Y-100024700D02*
X155100000Y-100000000D01*
X155100000Y-100000000D02*
X159850000Y-95250000D01*
X164775000Y-91625000D02*
X167975000Y-91625000D01*
X151550000Y-104850000D02*
X164775000Y-91625000D01*
D21*
G36*
X183690000Y-78851597D02*
X183629092Y-78545391D01*
X183326260Y-78092172D01*
X182873041Y-77789340D01*
X182338432Y-77683000D01*
X181799408Y-77683000D01*
X181264799Y-77789340D01*
X180811580Y-78092172D01*
X180674112Y-78297907D01*
X180631033Y-78075877D01*
X180491243Y-77863073D01*
X180280210Y-77720623D01*
X180030570Y-77670560D01*
X178031590Y-77670560D01*
X177789467Y-77717537D01*
X177576663Y-77857327D01*
X177434213Y-78068360D01*
X177384150Y-78318000D01*
X177384150Y-79842000D01*
X177431127Y-80084123D01*
X177570917Y-80296927D01*
X177781950Y-80439377D01*
X177997565Y-80482617D01*
X177773740Y-80632172D01*
X177470908Y-81085391D01*
X177364568Y-81620000D01*
X177470908Y-82154609D01*
X177773740Y-82607828D01*
X178196039Y-82890000D01*
X177773740Y-83172172D01*
X177621510Y-83400000D01*
X177340000Y-83400000D01*
X177049161Y-83457852D01*
X176802599Y-83622599D01*
X174094436Y-86330762D01*
X174018117Y-86146057D01*
X173755327Y-85882808D01*
X173411799Y-85740162D01*
X173039833Y-85739838D01*
X172696057Y-85881883D01*
X172432808Y-86144673D01*
X172290162Y-86488201D01*
X172290121Y-86535077D01*
X171737599Y-87087599D01*
X171572852Y-87334161D01*
X171515000Y-87625000D01*
X171515000Y-89560198D01*
X166162599Y-94912599D01*
X165997852Y-95159161D01*
X165940000Y-95450000D01*
X165940000Y-104712537D01*
X165907808Y-104744673D01*
X165765162Y-105088201D01*
X165764838Y-105460167D01*
X165906883Y-105803943D01*
X166169673Y-106067192D01*
X166513201Y-106209838D01*
X166885167Y-106210162D01*
X167228943Y-106068117D01*
X167492192Y-105805327D01*
X167634838Y-105461799D01*
X167635162Y-105089833D01*
X167493117Y-104746057D01*
X167460000Y-104712882D01*
X167460000Y-103833509D01*
X167463201Y-103834838D01*
X167835167Y-103835162D01*
X168178943Y-103693117D01*
X168442192Y-103430327D01*
X168584838Y-103086799D01*
X168585162Y-102714833D01*
X168485293Y-102473131D01*
X168678943Y-102393117D01*
X168942192Y-102130327D01*
X169084838Y-101786799D01*
X169085162Y-101414833D01*
X169007168Y-101226072D01*
X169328943Y-101093117D01*
X169592192Y-100830327D01*
X169734838Y-100486799D01*
X169735162Y-100114833D01*
X169593117Y-99771057D01*
X169560000Y-99737882D01*
X169560000Y-96864802D01*
X177409204Y-89015598D01*
X177409106Y-89016092D01*
X172162599Y-94262599D01*
X171997852Y-94509161D01*
X171940000Y-94800000D01*
X171940000Y-97187537D01*
X171907808Y-97219673D01*
X171765162Y-97563201D01*
X171764838Y-97935167D01*
X171904569Y-98273342D01*
X171657808Y-98519673D01*
X171515162Y-98863201D01*
X171514838Y-99235167D01*
X171656883Y-99578943D01*
X171919673Y-99842192D01*
X172263201Y-99984838D01*
X172635167Y-99985162D01*
X172978943Y-99843117D01*
X173242192Y-99580327D01*
X173384838Y-99236799D01*
X173384879Y-99189923D01*
X174237401Y-98337401D01*
X174402148Y-98090839D01*
X174460000Y-97800000D01*
X174460000Y-95114802D01*
X177435948Y-92138854D01*
X177470908Y-92314609D01*
X177773740Y-92767828D01*
X178196039Y-93050000D01*
X177773740Y-93332172D01*
X177470908Y-93785391D01*
X177364568Y-94320000D01*
X177470908Y-94854609D01*
X177773740Y-95307828D01*
X178196039Y-95590000D01*
X177773740Y-95872172D01*
X177470908Y-96325391D01*
X177364568Y-96860000D01*
X177470908Y-97394609D01*
X177773740Y-97847828D01*
X178196039Y-98130000D01*
X177773740Y-98412172D01*
X177470908Y-98865391D01*
X177364568Y-99400000D01*
X177470908Y-99934609D01*
X177474510Y-99940000D01*
X176700000Y-99940000D01*
X176409161Y-99997852D01*
X176162599Y-100162599D01*
X173065197Y-103260001D01*
X172836799Y-103165162D01*
X172464833Y-103164838D01*
X172121057Y-103306883D01*
X171857808Y-103569673D01*
X171715162Y-103913201D01*
X171714838Y-104285167D01*
X171856883Y-104628943D01*
X172119673Y-104892192D01*
X172463201Y-105034838D01*
X172835167Y-105035162D01*
X173178943Y-104893117D01*
X173212118Y-104860000D01*
X173300000Y-104860000D01*
X173485657Y-104823070D01*
X177439370Y-104823070D01*
X177456118Y-104914728D01*
X177724290Y-105393465D01*
X178155253Y-105733135D01*
X178215076Y-105750000D01*
X178155253Y-105766865D01*
X177724290Y-106106535D01*
X177456118Y-106585272D01*
X177439370Y-106676930D01*
X177561870Y-106893000D01*
X178904080Y-106893000D01*
X178904080Y-105776746D01*
X178866905Y-105750000D01*
X178904080Y-105723254D01*
X178904080Y-104607000D01*
X179158080Y-104607000D01*
X179158080Y-105723254D01*
X179195255Y-105750000D01*
X179158080Y-105776746D01*
X179158080Y-106893000D01*
X180500290Y-106893000D01*
X180550000Y-106805320D01*
X180599710Y-106893000D01*
X181941920Y-106893000D01*
X181941920Y-105776746D01*
X181904745Y-105750000D01*
X181941920Y-105723254D01*
X181941920Y-104607000D01*
X180599710Y-104607000D01*
X180550000Y-104694680D01*
X180500290Y-104607000D01*
X179158080Y-104607000D01*
X178904080Y-104607000D01*
X178904080Y-104607000D01*
X177561870Y-104607000D01*
X177439370Y-104823070D01*
X173485657Y-104823070D01*
X173590839Y-104802148D01*
X173837401Y-104637401D01*
X176191732Y-102283070D01*
X177439370Y-102283070D01*
X177456118Y-102374728D01*
X177724290Y-102853465D01*
X178155253Y-103193135D01*
X178215076Y-103210000D01*
X178155253Y-103226865D01*
X177724290Y-103566535D01*
X177456118Y-104045272D01*
X177439370Y-104136930D01*
X177561870Y-104353000D01*
X178904080Y-104353000D01*
X178904080Y-103236746D01*
X178866905Y-103210000D01*
X178904080Y-103183254D01*
X178904080Y-102067000D01*
X179158080Y-102067000D01*
X179158080Y-103183254D01*
X179195255Y-103210000D01*
X179158080Y-103236746D01*
X179158080Y-104353000D01*
X180500290Y-104353000D01*
X180550000Y-104265320D01*
X180599710Y-104353000D01*
X181941920Y-104353000D01*
X181941920Y-103236746D01*
X181904745Y-103210000D01*
X181941920Y-103183254D01*
X181941920Y-102067000D01*
X180599710Y-102067000D01*
X180550000Y-102154680D01*
X180500290Y-102067000D01*
X179158080Y-102067000D01*
X178904080Y-102067000D01*
X178904080Y-102067000D01*
X177561870Y-102067000D01*
X177439370Y-102283070D01*
X176191732Y-102283070D01*
X177014802Y-101460000D01*
X177481478Y-101460000D01*
X177456118Y-101505272D01*
X177439370Y-101596930D01*
X177561870Y-101813000D01*
X178904080Y-101813000D01*
X178904080Y-101793000D01*
X179158080Y-101793000D01*
X179158080Y-101813000D01*
X180500290Y-101813000D01*
X180550000Y-101725320D01*
X180599710Y-101813000D01*
X181941920Y-101813000D01*
X181941920Y-100696746D01*
X181904745Y-100670000D01*
X181941920Y-100643254D01*
X181941920Y-99527000D01*
X181921920Y-99527000D01*
X181921920Y-99273000D01*
X181941920Y-99273000D01*
X181941920Y-99253000D01*
X182195920Y-99253000D01*
X182195920Y-99273000D01*
X182215920Y-99273000D01*
X182215920Y-99527000D01*
X182195920Y-99527000D01*
X182195920Y-100643254D01*
X182233095Y-100670000D01*
X182195920Y-100696746D01*
X182195920Y-101813000D01*
X182215920Y-101813000D01*
X182215920Y-102067000D01*
X182195920Y-102067000D01*
X182195920Y-103183254D01*
X182233095Y-103210000D01*
X182195920Y-103236746D01*
X182195920Y-104353000D01*
X182215920Y-104353000D01*
X182215920Y-104607000D01*
X182195920Y-104607000D01*
X182195920Y-105723254D01*
X182233095Y-105750000D01*
X182195920Y-105776746D01*
X182195920Y-106893000D01*
X182215920Y-106893000D01*
X182215920Y-107147000D01*
X182195920Y-107147000D01*
X182195920Y-108263254D01*
X182416602Y-108422027D01*
X182944747Y-108273135D01*
X183375710Y-107933465D01*
X183643882Y-107454728D01*
X183660630Y-107363070D01*
X183538131Y-107147002D01*
X183690000Y-107147002D01*
X183690000Y-114490000D01*
X112110000Y-114490000D01*
X112110000Y-112432325D01*
X112114587Y-112432325D01*
X112476916Y-113309229D01*
X113147242Y-113980726D01*
X114023513Y-114344585D01*
X114972325Y-114345413D01*
X115849229Y-113983084D01*
X116520726Y-113312758D01*
X116884585Y-112436487D01*
X116885413Y-111487675D01*
X116523084Y-110610771D01*
X115852758Y-109939274D01*
X114976487Y-109575415D01*
X114027675Y-109574587D01*
X113150771Y-109936916D01*
X112479274Y-110607242D01*
X112115415Y-111483513D01*
X112114587Y-112432325D01*
X112110000Y-112432325D01*
X112110000Y-108281367D01*
X128337238Y-108281367D01*
X128479283Y-108625143D01*
X128742073Y-108888392D01*
X129085601Y-109031038D01*
X129457567Y-109031362D01*
X129801343Y-108889317D01*
X130064592Y-108626527D01*
X130207238Y-108282999D01*
X130207279Y-108236123D01*
X130692296Y-107751106D01*
X130615562Y-107935901D01*
X130615238Y-108307867D01*
X130757283Y-108651643D01*
X131020073Y-108914892D01*
X131363601Y-109057538D01*
X131735567Y-109057862D01*
X132079343Y-108915817D01*
X132342592Y-108653027D01*
X132485238Y-108309499D01*
X132485279Y-108262623D01*
X133200801Y-107547101D01*
X133365548Y-107300539D01*
X133423400Y-107009700D01*
X133423400Y-96714502D01*
X133713201Y-96834838D01*
X134085167Y-96835162D01*
X134428943Y-96693117D01*
X134484800Y-96637357D01*
X134484800Y-107731800D01*
X134542652Y-108022639D01*
X134707399Y-108269201D01*
X134864878Y-108426680D01*
X134864838Y-108472167D01*
X135006883Y-108815943D01*
X135269673Y-109079192D01*
X135613201Y-109221838D01*
X135985167Y-109222162D01*
X136028700Y-109204175D01*
X136028700Y-110755600D01*
X136086552Y-111046439D01*
X136115936Y-111090416D01*
X136115838Y-111203067D01*
X136257883Y-111546843D01*
X136520673Y-111810092D01*
X136864201Y-111952738D01*
X137236167Y-111953062D01*
X137579943Y-111811017D01*
X137843192Y-111548227D01*
X137985838Y-111204699D01*
X137986162Y-110832733D01*
X137844117Y-110488957D01*
X137581327Y-110225708D01*
X137548700Y-110212160D01*
X137548700Y-99505523D01*
X137636883Y-99718943D01*
X137899673Y-99982192D01*
X138243201Y-100124838D01*
X138347542Y-100124929D01*
X138446383Y-100364143D01*
X138709173Y-100627392D01*
X139052701Y-100770038D01*
X139424667Y-100770362D01*
X139768443Y-100628317D01*
X140020000Y-100377199D01*
X140020000Y-103480000D01*
X140077852Y-103770839D01*
X140242599Y-104017401D01*
X141572599Y-105347401D01*
X141819161Y-105512148D01*
X142110000Y-105570000D01*
X143325198Y-105570000D01*
X144200000Y-106444802D01*
X144200000Y-106801510D01*
X143972172Y-106953740D01*
X143690000Y-107376039D01*
X143407828Y-106953740D01*
X142954609Y-106650908D01*
X142420000Y-106544568D01*
X141885391Y-106650908D01*
X141432172Y-106953740D01*
X141129340Y-107406959D01*
X141023000Y-107941568D01*
X141023000Y-108480592D01*
X141129340Y-109015201D01*
X141432172Y-109468420D01*
X141637907Y-109605888D01*
X141415877Y-109648967D01*
X141203073Y-109788757D01*
X141060623Y-109999790D01*
X141010560Y-110249430D01*
X141010560Y-112248410D01*
X141057537Y-112490533D01*
X141197327Y-112703337D01*
X141408360Y-112845787D01*
X141658000Y-112895850D01*
X143182000Y-112895850D01*
X143424123Y-112848873D01*
X143636927Y-112709083D01*
X143779377Y-112498050D01*
X143822617Y-112282435D01*
X143972172Y-112506260D01*
X144425391Y-112809092D01*
X144960000Y-112915432D01*
X145494609Y-112809092D01*
X145947828Y-112506260D01*
X146230000Y-112083961D01*
X146512172Y-112506260D01*
X146965391Y-112809092D01*
X147500000Y-112915432D01*
X148034609Y-112809092D01*
X148487828Y-112506260D01*
X148790660Y-112053041D01*
X148844508Y-111782325D01*
X171294587Y-111782325D01*
X171656916Y-112659229D01*
X172327242Y-113330726D01*
X173203513Y-113694585D01*
X174152325Y-113695413D01*
X175029229Y-113333084D01*
X175700726Y-112662758D01*
X176064585Y-111786487D01*
X176065413Y-110837675D01*
X175703084Y-109960771D01*
X175032758Y-109289274D01*
X174156487Y-108925415D01*
X173207675Y-108924587D01*
X172330771Y-109286916D01*
X171659274Y-109957242D01*
X171295415Y-110833513D01*
X171294587Y-111782325D01*
X148844508Y-111782325D01*
X148897000Y-111518432D01*
X148897000Y-110979408D01*
X148790660Y-110444799D01*
X148487828Y-109991580D01*
X148068267Y-109711238D01*
X148413465Y-109517870D01*
X148753135Y-109086907D01*
X148902027Y-108558762D01*
X148743254Y-108338080D01*
X147627000Y-108338080D01*
X147627000Y-108358080D01*
X147373000Y-108358080D01*
X147373000Y-108338080D01*
X147353000Y-108338080D01*
X147353000Y-108084080D01*
X147373000Y-108084080D01*
X147373000Y-106741870D01*
X147627000Y-106741870D01*
X147627000Y-108084080D01*
X148743254Y-108084080D01*
X148902027Y-107863398D01*
X148760978Y-107363070D01*
X177439370Y-107363070D01*
X177456118Y-107454728D01*
X177724290Y-107933465D01*
X178155253Y-108273135D01*
X178683398Y-108422027D01*
X178904080Y-108263254D01*
X178904080Y-107147000D01*
X179158080Y-107147000D01*
X179158080Y-108263254D01*
X179378762Y-108422027D01*
X179906907Y-108273135D01*
X180337870Y-107933465D01*
X180550000Y-107554773D01*
X180762130Y-107933465D01*
X181193093Y-108273135D01*
X181721238Y-108422027D01*
X181941920Y-108263254D01*
X181941920Y-107147000D01*
X180599710Y-107147000D01*
X180550000Y-107234680D01*
X180500290Y-107147000D01*
X179158080Y-107147000D01*
X178904080Y-107147000D01*
X178904080Y-107147000D01*
X177561870Y-107147000D01*
X177439370Y-107363070D01*
X148760978Y-107363070D01*
X148753135Y-107335253D01*
X148413465Y-106904290D01*
X147934728Y-106636118D01*
X147843070Y-106619370D01*
X147627000Y-106741870D01*
X147373000Y-106741870D01*
X147373000Y-106741870D01*
X147156930Y-106619370D01*
X147065272Y-106636118D01*
X146980000Y-106683884D01*
X146980000Y-106680000D01*
X146922148Y-106389161D01*
X146922148Y-106389160D01*
X146757401Y-106142599D01*
X145649969Y-105035167D01*
X150614838Y-105035167D01*
X150756883Y-105378943D01*
X151019673Y-105642192D01*
X151363201Y-105784838D01*
X151735167Y-105785162D01*
X152078943Y-105643117D01*
X152342192Y-105380327D01*
X152484838Y-105036799D01*
X152484879Y-104989923D01*
X165089802Y-92385000D01*
X167412537Y-92385000D01*
X167444673Y-92417192D01*
X167788201Y-92559838D01*
X168160167Y-92560162D01*
X168503943Y-92418117D01*
X168767192Y-92155327D01*
X168909838Y-91811799D01*
X168910162Y-91439833D01*
X168768117Y-91096057D01*
X168505327Y-90832808D01*
X168161799Y-90690162D01*
X167789833Y-90689838D01*
X167446057Y-90831883D01*
X167412882Y-90865000D01*
X164775000Y-90865000D01*
X164484160Y-90922852D01*
X164237599Y-91087599D01*
X160623646Y-94701552D01*
X160380327Y-94457808D01*
X160036799Y-94315162D01*
X159664833Y-94314838D01*
X159321057Y-94456883D01*
X159057808Y-94719673D01*
X158915162Y-95063201D01*
X158915121Y-95110077D01*
X154818080Y-99207118D01*
X154535699Y-99089862D01*
X154163733Y-99089538D01*
X153819957Y-99231583D01*
X153556708Y-99494373D01*
X153414062Y-99837901D01*
X153413738Y-100209867D01*
X153555783Y-100553643D01*
X153818573Y-100816892D01*
X154162101Y-100959538D01*
X154365483Y-100959715D01*
X151410320Y-103914878D01*
X151364833Y-103914838D01*
X151021057Y-104056883D01*
X150757808Y-104319673D01*
X150615162Y-104663201D01*
X150614838Y-105035167D01*
X145649969Y-105035167D01*
X144377401Y-103762599D01*
X144130839Y-103597852D01*
X143840000Y-103540000D01*
X142794802Y-103540000D01*
X142336943Y-103082141D01*
X142384838Y-102966799D01*
X142385162Y-102594833D01*
X142243117Y-102251057D01*
X141980327Y-101987808D01*
X141636799Y-101845162D01*
X141540000Y-101845078D01*
X141540000Y-100002463D01*
X141572192Y-99970327D01*
X141714838Y-99626799D01*
X141715162Y-99254833D01*
X141573117Y-98911057D01*
X141405927Y-98743575D01*
X151517401Y-88632101D01*
X151620800Y-88477354D01*
X151620800Y-94311498D01*
X147080120Y-98852178D01*
X147034633Y-98852138D01*
X146690857Y-98994183D01*
X146427608Y-99256973D01*
X146284962Y-99600501D01*
X146284638Y-99972467D01*
X146426683Y-100316243D01*
X146689473Y-100579492D01*
X147033001Y-100722138D01*
X147404967Y-100722462D01*
X147748743Y-100580417D01*
X148011992Y-100317627D01*
X148154638Y-99974099D01*
X148154679Y-99927223D01*
X148998400Y-99083502D01*
X149049983Y-99208343D01*
X149312773Y-99471592D01*
X149656301Y-99614238D01*
X150028267Y-99614562D01*
X150372043Y-99472517D01*
X150635292Y-99209727D01*
X150777938Y-98866199D01*
X150777979Y-98819323D01*
X154537401Y-95059901D01*
X154702148Y-94813340D01*
X154760000Y-94522500D01*
X154760000Y-81519784D01*
X154906416Y-81490660D01*
X155359635Y-81187828D01*
X155662467Y-80734609D01*
X155768807Y-80200000D01*
X155662467Y-79665391D01*
X155359635Y-79212172D01*
X155135625Y-79062493D01*
X155341943Y-79022463D01*
X155554747Y-78882673D01*
X155697197Y-78671640D01*
X155747260Y-78422000D01*
X155747260Y-77862325D01*
X171404587Y-77862325D01*
X171766916Y-78739229D01*
X172437242Y-79410726D01*
X173313513Y-79774585D01*
X174262325Y-79775413D01*
X175139229Y-79413084D01*
X175810726Y-78742758D01*
X176174585Y-77866487D01*
X176175413Y-76917675D01*
X175813084Y-76040771D01*
X175142758Y-75369274D01*
X174266487Y-75005415D01*
X173317675Y-75004587D01*
X172440771Y-75366916D01*
X171769274Y-76037242D01*
X171405415Y-76913513D01*
X171404587Y-77862325D01*
X155747260Y-77862325D01*
X155747260Y-76898000D01*
X155700283Y-76655877D01*
X155560493Y-76443073D01*
X155349460Y-76300623D01*
X155099820Y-76250560D01*
X152900180Y-76250560D01*
X152658057Y-76297537D01*
X152445253Y-76437327D01*
X152302803Y-76648360D01*
X152294129Y-76691611D01*
X152233135Y-76475253D01*
X151893465Y-76044290D01*
X151414728Y-75776118D01*
X151323070Y-75759370D01*
X151107000Y-75881870D01*
X151107000Y-77224080D01*
X151127000Y-77224080D01*
X151127000Y-77478080D01*
X151107000Y-77478080D01*
X151107000Y-77498080D01*
X150853000Y-77498080D01*
X150853000Y-77478080D01*
X150833000Y-77478080D01*
X150833000Y-77224080D01*
X150853000Y-77224080D01*
X150853000Y-75881870D01*
X150636930Y-75759370D01*
X150545272Y-75776118D01*
X150066535Y-76044290D01*
X149726865Y-76475253D01*
X149713774Y-76521688D01*
X149427828Y-76093740D01*
X148974609Y-75790908D01*
X148440000Y-75684568D01*
X147905391Y-75790908D01*
X147452172Y-76093740D01*
X147170000Y-76516039D01*
X146887828Y-76093740D01*
X146434609Y-75790908D01*
X145900000Y-75684568D01*
X145365391Y-75790908D01*
X144912172Y-76093740D01*
X144609340Y-76546959D01*
X144592392Y-76632161D01*
X144508081Y-76648932D01*
X144261519Y-76813679D01*
X141892599Y-79182599D01*
X141727852Y-79429161D01*
X141670000Y-79720000D01*
X141670000Y-81197626D01*
X137372599Y-85495027D01*
X137207852Y-85741589D01*
X137150000Y-86032428D01*
X137150000Y-93595198D01*
X136004800Y-94740398D01*
X136004800Y-89362463D01*
X136036992Y-89330327D01*
X136179638Y-88986799D01*
X136179962Y-88614833D01*
X136037917Y-88271057D01*
X135775127Y-88007808D01*
X135431599Y-87865162D01*
X135059633Y-87864838D01*
X134839500Y-87955795D01*
X134839500Y-79525727D01*
X134949592Y-79415827D01*
X135092238Y-79072299D01*
X135092562Y-78700333D01*
X134950517Y-78356557D01*
X134687727Y-78093308D01*
X134344199Y-77950662D01*
X133972233Y-77950338D01*
X133628457Y-78092383D01*
X133365208Y-78355173D01*
X133222562Y-78698701D01*
X133222238Y-79070667D01*
X133319500Y-79306060D01*
X133319500Y-83815060D01*
X133064833Y-83814838D01*
X132721057Y-83956883D01*
X132457808Y-84219673D01*
X132315162Y-84563201D01*
X132314838Y-84935167D01*
X132456883Y-85278943D01*
X132490000Y-85312118D01*
X132490000Y-88417172D01*
X132380827Y-88307808D01*
X132037299Y-88165162D01*
X131990423Y-88165121D01*
X130235000Y-86409698D01*
X130235000Y-79423163D01*
X130267192Y-79391027D01*
X130409838Y-79047499D01*
X130410162Y-78675533D01*
X130268117Y-78331757D01*
X130005327Y-78068508D01*
X129661799Y-77925862D01*
X129289833Y-77925538D01*
X128946057Y-78067583D01*
X128682808Y-78330373D01*
X128540162Y-78673901D01*
X128539838Y-79045867D01*
X128681883Y-79389643D01*
X128715000Y-79422818D01*
X128715000Y-86724500D01*
X128772852Y-87015339D01*
X128937599Y-87261901D01*
X130915378Y-89239680D01*
X130915338Y-89285167D01*
X131057383Y-89628943D01*
X131320173Y-89892192D01*
X131663701Y-90034838D01*
X132035667Y-90035162D01*
X132379443Y-89893117D01*
X132490000Y-89782753D01*
X132490000Y-92446448D01*
X132478233Y-92446438D01*
X132134457Y-92588483D01*
X131871208Y-92851273D01*
X131728562Y-93194801D01*
X131728238Y-93566767D01*
X131870283Y-93910543D01*
X131903400Y-93943718D01*
X131903400Y-94601005D01*
X131827033Y-94600938D01*
X131483257Y-94742983D01*
X131220008Y-95005773D01*
X131077362Y-95349301D01*
X131077038Y-95721267D01*
X131219083Y-96065043D01*
X131252200Y-96098218D01*
X131252200Y-105041598D01*
X129132720Y-107161078D01*
X129087233Y-107161038D01*
X128743457Y-107303083D01*
X128480208Y-107565873D01*
X128337562Y-107909401D01*
X128337238Y-108281367D01*
X112110000Y-108281367D01*
X112110000Y-99004300D01*
X118308100Y-99004300D01*
X118308100Y-100445600D01*
X118365952Y-100736439D01*
X118530699Y-100983001D01*
X120163999Y-102616301D01*
X120410561Y-102781048D01*
X120701400Y-102838900D01*
X123087537Y-102838900D01*
X123119673Y-102871092D01*
X123463201Y-103013738D01*
X123835167Y-103014062D01*
X124178943Y-102872017D01*
X124442192Y-102609227D01*
X124584838Y-102265699D01*
X124585126Y-101935000D01*
X126140000Y-101935000D01*
X126140000Y-103887537D01*
X126107808Y-103919673D01*
X125965162Y-104263201D01*
X125964838Y-104635167D01*
X126106883Y-104978943D01*
X126369673Y-105242192D01*
X126713201Y-105384838D01*
X127085167Y-105385162D01*
X127428943Y-105243117D01*
X127692192Y-104980327D01*
X127834838Y-104636799D01*
X127835162Y-104264833D01*
X127693117Y-103921057D01*
X127660000Y-103887882D01*
X127660000Y-102214802D01*
X130242790Y-99632012D01*
X130578943Y-99493117D01*
X130842192Y-99230327D01*
X130984838Y-98886799D01*
X130985162Y-98514833D01*
X130843117Y-98171057D01*
X130763870Y-98091671D01*
X130842338Y-97902699D01*
X130842662Y-97530733D01*
X130700617Y-97186957D01*
X130437827Y-96923708D01*
X130094299Y-96781062D01*
X129722333Y-96780738D01*
X129378557Y-96922783D01*
X129115308Y-97185573D01*
X128972662Y-97529101D01*
X128972621Y-97575977D01*
X126133598Y-100415000D01*
X121568363Y-100415000D01*
X121536227Y-100382808D01*
X121192699Y-100240162D01*
X120820733Y-100239838D01*
X120652362Y-100309407D01*
X120652379Y-100289923D01*
X128344701Y-92597601D01*
X128509448Y-92351039D01*
X128567300Y-92060200D01*
X128567300Y-91316463D01*
X128599492Y-91284327D01*
X128742138Y-90940799D01*
X128742462Y-90568833D01*
X128600417Y-90225057D01*
X128337627Y-89961808D01*
X127994099Y-89819162D01*
X127622133Y-89818838D01*
X127278357Y-89960883D01*
X127015108Y-90223673D01*
X126872462Y-90567201D01*
X126872138Y-90939167D01*
X127014183Y-91282943D01*
X127047300Y-91316118D01*
X127047300Y-91745398D01*
X121496179Y-97296519D01*
X121362817Y-96973757D01*
X121100027Y-96710508D01*
X120756499Y-96567862D01*
X120384533Y-96567538D01*
X120040757Y-96709583D01*
X119777508Y-96972373D01*
X119634862Y-97315901D01*
X119634821Y-97362777D01*
X118530699Y-98466899D01*
X118365952Y-98713461D01*
X118308100Y-99004300D01*
X112110000Y-99004300D01*
X112110000Y-94647536D01*
X113790527Y-94647536D01*
X114152866Y-95524463D01*
X114823208Y-96195976D01*
X115699501Y-96559845D01*
X116648336Y-96560673D01*
X117525263Y-96198334D01*
X118196776Y-95527992D01*
X118560645Y-94651699D01*
X118561473Y-93702864D01*
X118199134Y-92825937D01*
X117528792Y-92154424D01*
X116652499Y-91790555D01*
X115703664Y-91789727D01*
X114826737Y-92152066D01*
X114155224Y-92822408D01*
X113791355Y-93698701D01*
X113790527Y-94647536D01*
X112110000Y-94647536D01*
X112110000Y-90371930D01*
X118101475Y-90371930D01*
X118169535Y-90612931D01*
X118688834Y-90797767D01*
X119239338Y-90769805D01*
X119618065Y-90612931D01*
X119686125Y-90371930D01*
X118893800Y-89579605D01*
X118101475Y-90371930D01*
X112110000Y-90371930D01*
X112110000Y-89195034D01*
X117496033Y-89195034D01*
X117523995Y-89745538D01*
X117680869Y-90124265D01*
X117921870Y-90192325D01*
X118714195Y-89400000D01*
X117921870Y-88607675D01*
X117680869Y-88675735D01*
X117496033Y-89195034D01*
X112110000Y-89195034D01*
X112110000Y-87185198D01*
X117507990Y-87185198D01*
X117718486Y-87694637D01*
X118107913Y-88084744D01*
X118262051Y-88148748D01*
X118169535Y-88187069D01*
X118101475Y-88428070D01*
X118893800Y-89220395D01*
X119686125Y-88428070D01*
X119618065Y-88187069D01*
X119518809Y-88151740D01*
X119677637Y-88086114D01*
X119897141Y-87866993D01*
X120114513Y-88084744D01*
X120284460Y-88155312D01*
X120116563Y-88224686D01*
X119726456Y-88614113D01*
X119632130Y-88841275D01*
X119073405Y-89400000D01*
X119632030Y-89958625D01*
X119725086Y-90183837D01*
X120114513Y-90573944D01*
X120623584Y-90785329D01*
X121174798Y-90785810D01*
X121684237Y-90575314D01*
X122074344Y-90185887D01*
X122285729Y-89676816D01*
X122286210Y-89125602D01*
X122075714Y-88616163D01*
X121686287Y-88226056D01*
X121516340Y-88155488D01*
X121684237Y-88086114D01*
X122074344Y-87696687D01*
X122285729Y-87187616D01*
X122286210Y-86636402D01*
X122075714Y-86126963D01*
X121686287Y-85736856D01*
X121177216Y-85525471D01*
X120626002Y-85524990D01*
X120116563Y-85735486D01*
X119897059Y-85954607D01*
X119679687Y-85736856D01*
X119170616Y-85525471D01*
X118619402Y-85524990D01*
X118109963Y-85735486D01*
X117719856Y-86124913D01*
X117508471Y-86633984D01*
X117507990Y-87185198D01*
X112110000Y-87185198D01*
X112110000Y-83830171D01*
X114661034Y-83830171D01*
X114851328Y-84174919D01*
X115732576Y-84526615D01*
X116681332Y-84514301D01*
X117500672Y-84174919D01*
X117690966Y-83830171D01*
X116176000Y-82315205D01*
X114661034Y-83830171D01*
X112110000Y-83830171D01*
X112110000Y-81692176D01*
X113784985Y-81692176D01*
X113797299Y-82640932D01*
X114136681Y-83460272D01*
X114481429Y-83650566D01*
X115996395Y-82135600D01*
X116355605Y-82135600D01*
X117870571Y-83650566D01*
X118215319Y-83460272D01*
X118567015Y-82579024D01*
X118554701Y-81630268D01*
X118215319Y-80810928D01*
X117870571Y-80620634D01*
X116355605Y-82135600D01*
X115996395Y-82135600D01*
X115996395Y-82135600D01*
X114481429Y-80620634D01*
X114136681Y-80810928D01*
X113784985Y-81692176D01*
X112110000Y-81692176D01*
X112110000Y-78082325D01*
X112294587Y-78082325D01*
X112656916Y-78959229D01*
X113327242Y-79630726D01*
X114203513Y-79994585D01*
X115094966Y-79995363D01*
X114851328Y-80096281D01*
X114661034Y-80441029D01*
X116176000Y-81955995D01*
X117690966Y-80441029D01*
X117500672Y-80096281D01*
X116619424Y-79744585D01*
X115731484Y-79756110D01*
X116029229Y-79633084D01*
X116700726Y-78962758D01*
X117064585Y-78086487D01*
X117065413Y-77137675D01*
X116703084Y-76260771D01*
X116032758Y-75589274D01*
X115156487Y-75225415D01*
X114207675Y-75224587D01*
X113330771Y-75586916D01*
X112659274Y-76257242D01*
X112295415Y-77133513D01*
X112294587Y-78082325D01*
X112110000Y-78082325D01*
X112110000Y-74910000D01*
X183690000Y-74910000D01*
X183690000Y-78851597D01*
X183690000Y-78851597D01*
G37*
X183690000Y-78851597D02*
X183629092Y-78545391D01*
X183326260Y-78092172D01*
X182873041Y-77789340D01*
X182338432Y-77683000D01*
X181799408Y-77683000D01*
X181264799Y-77789340D01*
X180811580Y-78092172D01*
X180674112Y-78297907D01*
X180631033Y-78075877D01*
X180491243Y-77863073D01*
X180280210Y-77720623D01*
X180030570Y-77670560D01*
X178031590Y-77670560D01*
X177789467Y-77717537D01*
X177576663Y-77857327D01*
X177434213Y-78068360D01*
X177384150Y-78318000D01*
X177384150Y-79842000D01*
X177431127Y-80084123D01*
X177570917Y-80296927D01*
X177781950Y-80439377D01*
X177997565Y-80482617D01*
X177773740Y-80632172D01*
X177470908Y-81085391D01*
X177364568Y-81620000D01*
X177470908Y-82154609D01*
X177773740Y-82607828D01*
X178196039Y-82890000D01*
X177773740Y-83172172D01*
X177621510Y-83400000D01*
X177340000Y-83400000D01*
X177049161Y-83457852D01*
X176802599Y-83622599D01*
X174094436Y-86330762D01*
X174018117Y-86146057D01*
X173755327Y-85882808D01*
X173411799Y-85740162D01*
X173039833Y-85739838D01*
X172696057Y-85881883D01*
X172432808Y-86144673D01*
X172290162Y-86488201D01*
X172290121Y-86535077D01*
X171737599Y-87087599D01*
X171572852Y-87334161D01*
X171515000Y-87625000D01*
X171515000Y-89560198D01*
X166162599Y-94912599D01*
X165997852Y-95159161D01*
X165940000Y-95450000D01*
X165940000Y-104712537D01*
X165907808Y-104744673D01*
X165765162Y-105088201D01*
X165764838Y-105460167D01*
X165906883Y-105803943D01*
X166169673Y-106067192D01*
X166513201Y-106209838D01*
X166885167Y-106210162D01*
X167228943Y-106068117D01*
X167492192Y-105805327D01*
X167634838Y-105461799D01*
X167635162Y-105089833D01*
X167493117Y-104746057D01*
X167460000Y-104712882D01*
X167460000Y-103833509D01*
X167463201Y-103834838D01*
X167835167Y-103835162D01*
X168178943Y-103693117D01*
X168442192Y-103430327D01*
X168584838Y-103086799D01*
X168585162Y-102714833D01*
X168485293Y-102473131D01*
X168678943Y-102393117D01*
X168942192Y-102130327D01*
X169084838Y-101786799D01*
X169085162Y-101414833D01*
X169007168Y-101226072D01*
X169328943Y-101093117D01*
X169592192Y-100830327D01*
X169734838Y-100486799D01*
X169735162Y-100114833D01*
X169593117Y-99771057D01*
X169560000Y-99737882D01*
X169560000Y-96864802D01*
X177409204Y-89015598D01*
X177409106Y-89016092D01*
X172162599Y-94262599D01*
X171997852Y-94509161D01*
X171940000Y-94800000D01*
X171940000Y-97187537D01*
X171907808Y-97219673D01*
X171765162Y-97563201D01*
X171764838Y-97935167D01*
X171904569Y-98273342D01*
X171657808Y-98519673D01*
X171515162Y-98863201D01*
X171514838Y-99235167D01*
X171656883Y-99578943D01*
X171919673Y-99842192D01*
X172263201Y-99984838D01*
X172635167Y-99985162D01*
X172978943Y-99843117D01*
X173242192Y-99580327D01*
X173384838Y-99236799D01*
X173384879Y-99189923D01*
X174237401Y-98337401D01*
X174402148Y-98090839D01*
X174460000Y-97800000D01*
X174460000Y-95114802D01*
X177435948Y-92138854D01*
X177470908Y-92314609D01*
X177773740Y-92767828D01*
X178196039Y-93050000D01*
X177773740Y-93332172D01*
X177470908Y-93785391D01*
X177364568Y-94320000D01*
X177470908Y-94854609D01*
X177773740Y-95307828D01*
X178196039Y-95590000D01*
X177773740Y-95872172D01*
X177470908Y-96325391D01*
X177364568Y-96860000D01*
X177470908Y-97394609D01*
X177773740Y-97847828D01*
X178196039Y-98130000D01*
X177773740Y-98412172D01*
X177470908Y-98865391D01*
X177364568Y-99400000D01*
X177470908Y-99934609D01*
X177474510Y-99940000D01*
X176700000Y-99940000D01*
X176409161Y-99997852D01*
X176162599Y-100162599D01*
X173065197Y-103260001D01*
X172836799Y-103165162D01*
X172464833Y-103164838D01*
X172121057Y-103306883D01*
X171857808Y-103569673D01*
X171715162Y-103913201D01*
X171714838Y-104285167D01*
X171856883Y-104628943D01*
X172119673Y-104892192D01*
X172463201Y-105034838D01*
X172835167Y-105035162D01*
X173178943Y-104893117D01*
X173212118Y-104860000D01*
X173300000Y-104860000D01*
X173485657Y-104823070D01*
X177439370Y-104823070D01*
X177456118Y-104914728D01*
X177724290Y-105393465D01*
X178155253Y-105733135D01*
X178215076Y-105750000D01*
X178155253Y-105766865D01*
X177724290Y-106106535D01*
X177456118Y-106585272D01*
X177439370Y-106676930D01*
X177561870Y-106893000D01*
X178904080Y-106893000D01*
X178904080Y-105776746D01*
X178866905Y-105750000D01*
X178904080Y-105723254D01*
X178904080Y-104607000D01*
X179158080Y-104607000D01*
X179158080Y-105723254D01*
X179195255Y-105750000D01*
X179158080Y-105776746D01*
X179158080Y-106893000D01*
X180500290Y-106893000D01*
X180550000Y-106805320D01*
X180599710Y-106893000D01*
X181941920Y-106893000D01*
X181941920Y-105776746D01*
X181904745Y-105750000D01*
X181941920Y-105723254D01*
X181941920Y-104607000D01*
X180599710Y-104607000D01*
X180550000Y-104694680D01*
X180500290Y-104607000D01*
X179158080Y-104607000D01*
X178904080Y-104607000D01*
X178904080Y-104607000D01*
X177561870Y-104607000D01*
X177439370Y-104823070D01*
X173485657Y-104823070D01*
X173590839Y-104802148D01*
X173837401Y-104637401D01*
X176191732Y-102283070D01*
X177439370Y-102283070D01*
X177456118Y-102374728D01*
X177724290Y-102853465D01*
X178155253Y-103193135D01*
X178215076Y-103210000D01*
X178155253Y-103226865D01*
X177724290Y-103566535D01*
X177456118Y-104045272D01*
X177439370Y-104136930D01*
X177561870Y-104353000D01*
X178904080Y-104353000D01*
X178904080Y-103236746D01*
X178866905Y-103210000D01*
X178904080Y-103183254D01*
X178904080Y-102067000D01*
X179158080Y-102067000D01*
X179158080Y-103183254D01*
X179195255Y-103210000D01*
X179158080Y-103236746D01*
X179158080Y-104353000D01*
X180500290Y-104353000D01*
X180550000Y-104265320D01*
X180599710Y-104353000D01*
X181941920Y-104353000D01*
X181941920Y-103236746D01*
X181904745Y-103210000D01*
X181941920Y-103183254D01*
X181941920Y-102067000D01*
X180599710Y-102067000D01*
X180550000Y-102154680D01*
X180500290Y-102067000D01*
X179158080Y-102067000D01*
X178904080Y-102067000D01*
X178904080Y-102067000D01*
X177561870Y-102067000D01*
X177439370Y-102283070D01*
X176191732Y-102283070D01*
X177014802Y-101460000D01*
X177481478Y-101460000D01*
X177456118Y-101505272D01*
X177439370Y-101596930D01*
X177561870Y-101813000D01*
X178904080Y-101813000D01*
X178904080Y-101793000D01*
X179158080Y-101793000D01*
X179158080Y-101813000D01*
X180500290Y-101813000D01*
X180550000Y-101725320D01*
X180599710Y-101813000D01*
X181941920Y-101813000D01*
X181941920Y-100696746D01*
X181904745Y-100670000D01*
X181941920Y-100643254D01*
X181941920Y-99527000D01*
X181921920Y-99527000D01*
X181921920Y-99273000D01*
X181941920Y-99273000D01*
X181941920Y-99253000D01*
X182195920Y-99253000D01*
X182195920Y-99273000D01*
X182215920Y-99273000D01*
X182215920Y-99527000D01*
X182195920Y-99527000D01*
X182195920Y-100643254D01*
X182233095Y-100670000D01*
X182195920Y-100696746D01*
X182195920Y-101813000D01*
X182215920Y-101813000D01*
X182215920Y-102067000D01*
X182195920Y-102067000D01*
X182195920Y-103183254D01*
X182233095Y-103210000D01*
X182195920Y-103236746D01*
X182195920Y-104353000D01*
X182215920Y-104353000D01*
X182215920Y-104607000D01*
X182195920Y-104607000D01*
X182195920Y-105723254D01*
X182233095Y-105750000D01*
X182195920Y-105776746D01*
X182195920Y-106893000D01*
X182215920Y-106893000D01*
X182215920Y-107147000D01*
X182195920Y-107147000D01*
X182195920Y-108263254D01*
X182416602Y-108422027D01*
X182944747Y-108273135D01*
X183375710Y-107933465D01*
X183643882Y-107454728D01*
X183660630Y-107363070D01*
X183538131Y-107147002D01*
X183690000Y-107147002D01*
X183690000Y-114490000D01*
X112110000Y-114490000D01*
X112110000Y-112432325D01*
X112114587Y-112432325D01*
X112476916Y-113309229D01*
X113147242Y-113980726D01*
X114023513Y-114344585D01*
X114972325Y-114345413D01*
X115849229Y-113983084D01*
X116520726Y-113312758D01*
X116884585Y-112436487D01*
X116885413Y-111487675D01*
X116523084Y-110610771D01*
X115852758Y-109939274D01*
X114976487Y-109575415D01*
X114027675Y-109574587D01*
X113150771Y-109936916D01*
X112479274Y-110607242D01*
X112115415Y-111483513D01*
X112114587Y-112432325D01*
X112110000Y-112432325D01*
X112110000Y-108281367D01*
X128337238Y-108281367D01*
X128479283Y-108625143D01*
X128742073Y-108888392D01*
X129085601Y-109031038D01*
X129457567Y-109031362D01*
X129801343Y-108889317D01*
X130064592Y-108626527D01*
X130207238Y-108282999D01*
X130207279Y-108236123D01*
X130692296Y-107751106D01*
X130615562Y-107935901D01*
X130615238Y-108307867D01*
X130757283Y-108651643D01*
X131020073Y-108914892D01*
X131363601Y-109057538D01*
X131735567Y-109057862D01*
X132079343Y-108915817D01*
X132342592Y-108653027D01*
X132485238Y-108309499D01*
X132485279Y-108262623D01*
X133200801Y-107547101D01*
X133365548Y-107300539D01*
X133423400Y-107009700D01*
X133423400Y-96714502D01*
X133713201Y-96834838D01*
X134085167Y-96835162D01*
X134428943Y-96693117D01*
X134484800Y-96637357D01*
X134484800Y-107731800D01*
X134542652Y-108022639D01*
X134707399Y-108269201D01*
X134864878Y-108426680D01*
X134864838Y-108472167D01*
X135006883Y-108815943D01*
X135269673Y-109079192D01*
X135613201Y-109221838D01*
X135985167Y-109222162D01*
X136028700Y-109204175D01*
X136028700Y-110755600D01*
X136086552Y-111046439D01*
X136115936Y-111090416D01*
X136115838Y-111203067D01*
X136257883Y-111546843D01*
X136520673Y-111810092D01*
X136864201Y-111952738D01*
X137236167Y-111953062D01*
X137579943Y-111811017D01*
X137843192Y-111548227D01*
X137985838Y-111204699D01*
X137986162Y-110832733D01*
X137844117Y-110488957D01*
X137581327Y-110225708D01*
X137548700Y-110212160D01*
X137548700Y-99505523D01*
X137636883Y-99718943D01*
X137899673Y-99982192D01*
X138243201Y-100124838D01*
X138347542Y-100124929D01*
X138446383Y-100364143D01*
X138709173Y-100627392D01*
X139052701Y-100770038D01*
X139424667Y-100770362D01*
X139768443Y-100628317D01*
X140020000Y-100377199D01*
X140020000Y-103480000D01*
X140077852Y-103770839D01*
X140242599Y-104017401D01*
X141572599Y-105347401D01*
X141819161Y-105512148D01*
X142110000Y-105570000D01*
X143325198Y-105570000D01*
X144200000Y-106444802D01*
X144200000Y-106801510D01*
X143972172Y-106953740D01*
X143690000Y-107376039D01*
X143407828Y-106953740D01*
X142954609Y-106650908D01*
X142420000Y-106544568D01*
X141885391Y-106650908D01*
X141432172Y-106953740D01*
X141129340Y-107406959D01*
X141023000Y-107941568D01*
X141023000Y-108480592D01*
X141129340Y-109015201D01*
X141432172Y-109468420D01*
X141637907Y-109605888D01*
X141415877Y-109648967D01*
X141203073Y-109788757D01*
X141060623Y-109999790D01*
X141010560Y-110249430D01*
X141010560Y-112248410D01*
X141057537Y-112490533D01*
X141197327Y-112703337D01*
X141408360Y-112845787D01*
X141658000Y-112895850D01*
X143182000Y-112895850D01*
X143424123Y-112848873D01*
X143636927Y-112709083D01*
X143779377Y-112498050D01*
X143822617Y-112282435D01*
X143972172Y-112506260D01*
X144425391Y-112809092D01*
X144960000Y-112915432D01*
X145494609Y-112809092D01*
X145947828Y-112506260D01*
X146230000Y-112083961D01*
X146512172Y-112506260D01*
X146965391Y-112809092D01*
X147500000Y-112915432D01*
X148034609Y-112809092D01*
X148487828Y-112506260D01*
X148790660Y-112053041D01*
X148844508Y-111782325D01*
X171294587Y-111782325D01*
X171656916Y-112659229D01*
X172327242Y-113330726D01*
X173203513Y-113694585D01*
X174152325Y-113695413D01*
X175029229Y-113333084D01*
X175700726Y-112662758D01*
X176064585Y-111786487D01*
X176065413Y-110837675D01*
X175703084Y-109960771D01*
X175032758Y-109289274D01*
X174156487Y-108925415D01*
X173207675Y-108924587D01*
X172330771Y-109286916D01*
X171659274Y-109957242D01*
X171295415Y-110833513D01*
X171294587Y-111782325D01*
X148844508Y-111782325D01*
X148897000Y-111518432D01*
X148897000Y-110979408D01*
X148790660Y-110444799D01*
X148487828Y-109991580D01*
X148068267Y-109711238D01*
X148413465Y-109517870D01*
X148753135Y-109086907D01*
X148902027Y-108558762D01*
X148743254Y-108338080D01*
X147627000Y-108338080D01*
X147627000Y-108358080D01*
X147373000Y-108358080D01*
X147373000Y-108338080D01*
X147353000Y-108338080D01*
X147353000Y-108084080D01*
X147373000Y-108084080D01*
X147373000Y-106741870D01*
X147627000Y-106741870D01*
X147627000Y-108084080D01*
X148743254Y-108084080D01*
X148902027Y-107863398D01*
X148760978Y-107363070D01*
X177439370Y-107363070D01*
X177456118Y-107454728D01*
X177724290Y-107933465D01*
X178155253Y-108273135D01*
X178683398Y-108422027D01*
X178904080Y-108263254D01*
X178904080Y-107147000D01*
X179158080Y-107147000D01*
X179158080Y-108263254D01*
X179378762Y-108422027D01*
X179906907Y-108273135D01*
X180337870Y-107933465D01*
X180550000Y-107554773D01*
X180762130Y-107933465D01*
X181193093Y-108273135D01*
X181721238Y-108422027D01*
X181941920Y-108263254D01*
X181941920Y-107147000D01*
X180599710Y-107147000D01*
X180550000Y-107234680D01*
X180500290Y-107147000D01*
X179158080Y-107147000D01*
X178904080Y-107147000D01*
X178904080Y-107147000D01*
X177561870Y-107147000D01*
X177439370Y-107363070D01*
X148760978Y-107363070D01*
X148753135Y-107335253D01*
X148413465Y-106904290D01*
X147934728Y-106636118D01*
X147843070Y-106619370D01*
X147627000Y-106741870D01*
X147373000Y-106741870D01*
X147373000Y-106741870D01*
X147156930Y-106619370D01*
X147065272Y-106636118D01*
X146980000Y-106683884D01*
X146980000Y-106680000D01*
X146922148Y-106389161D01*
X146922148Y-106389160D01*
X146757401Y-106142599D01*
X145649969Y-105035167D01*
X150614838Y-105035167D01*
X150756883Y-105378943D01*
X151019673Y-105642192D01*
X151363201Y-105784838D01*
X151735167Y-105785162D01*
X152078943Y-105643117D01*
X152342192Y-105380327D01*
X152484838Y-105036799D01*
X152484879Y-104989923D01*
X165089802Y-92385000D01*
X167412537Y-92385000D01*
X167444673Y-92417192D01*
X167788201Y-92559838D01*
X168160167Y-92560162D01*
X168503943Y-92418117D01*
X168767192Y-92155327D01*
X168909838Y-91811799D01*
X168910162Y-91439833D01*
X168768117Y-91096057D01*
X168505327Y-90832808D01*
X168161799Y-90690162D01*
X167789833Y-90689838D01*
X167446057Y-90831883D01*
X167412882Y-90865000D01*
X164775000Y-90865000D01*
X164484160Y-90922852D01*
X164237599Y-91087599D01*
X160623646Y-94701552D01*
X160380327Y-94457808D01*
X160036799Y-94315162D01*
X159664833Y-94314838D01*
X159321057Y-94456883D01*
X159057808Y-94719673D01*
X158915162Y-95063201D01*
X158915121Y-95110077D01*
X154818080Y-99207118D01*
X154535699Y-99089862D01*
X154163733Y-99089538D01*
X153819957Y-99231583D01*
X153556708Y-99494373D01*
X153414062Y-99837901D01*
X153413738Y-100209867D01*
X153555783Y-100553643D01*
X153818573Y-100816892D01*
X154162101Y-100959538D01*
X154365483Y-100959715D01*
X151410320Y-103914878D01*
X151364833Y-103914838D01*
X151021057Y-104056883D01*
X150757808Y-104319673D01*
X150615162Y-104663201D01*
X150614838Y-105035167D01*
X145649969Y-105035167D01*
X144377401Y-103762599D01*
X144130839Y-103597852D01*
X143840000Y-103540000D01*
X142794802Y-103540000D01*
X142336943Y-103082141D01*
X142384838Y-102966799D01*
X142385162Y-102594833D01*
X142243117Y-102251057D01*
X141980327Y-101987808D01*
X141636799Y-101845162D01*
X141540000Y-101845078D01*
X141540000Y-100002463D01*
X141572192Y-99970327D01*
X141714838Y-99626799D01*
X141715162Y-99254833D01*
X141573117Y-98911057D01*
X141405927Y-98743575D01*
X151517401Y-88632101D01*
X151620800Y-88477354D01*
X151620800Y-94311498D01*
X147080120Y-98852178D01*
X147034633Y-98852138D01*
X146690857Y-98994183D01*
X146427608Y-99256973D01*
X146284962Y-99600501D01*
X146284638Y-99972467D01*
X146426683Y-100316243D01*
X146689473Y-100579492D01*
X147033001Y-100722138D01*
X147404967Y-100722462D01*
X147748743Y-100580417D01*
X148011992Y-100317627D01*
X148154638Y-99974099D01*
X148154679Y-99927223D01*
X148998400Y-99083502D01*
X149049983Y-99208343D01*
X149312773Y-99471592D01*
X149656301Y-99614238D01*
X150028267Y-99614562D01*
X150372043Y-99472517D01*
X150635292Y-99209727D01*
X150777938Y-98866199D01*
X150777979Y-98819323D01*
X154537401Y-95059901D01*
X154702148Y-94813340D01*
X154760000Y-94522500D01*
X154760000Y-81519784D01*
X154906416Y-81490660D01*
X155359635Y-81187828D01*
X155662467Y-80734609D01*
X155768807Y-80200000D01*
X155662467Y-79665391D01*
X155359635Y-79212172D01*
X155135625Y-79062493D01*
X155341943Y-79022463D01*
X155554747Y-78882673D01*
X155697197Y-78671640D01*
X155747260Y-78422000D01*
X155747260Y-77862325D01*
X171404587Y-77862325D01*
X171766916Y-78739229D01*
X172437242Y-79410726D01*
X173313513Y-79774585D01*
X174262325Y-79775413D01*
X175139229Y-79413084D01*
X175810726Y-78742758D01*
X176174585Y-77866487D01*
X176175413Y-76917675D01*
X175813084Y-76040771D01*
X175142758Y-75369274D01*
X174266487Y-75005415D01*
X173317675Y-75004587D01*
X172440771Y-75366916D01*
X171769274Y-76037242D01*
X171405415Y-76913513D01*
X171404587Y-77862325D01*
X155747260Y-77862325D01*
X155747260Y-76898000D01*
X155700283Y-76655877D01*
X155560493Y-76443073D01*
X155349460Y-76300623D01*
X155099820Y-76250560D01*
X152900180Y-76250560D01*
X152658057Y-76297537D01*
X152445253Y-76437327D01*
X152302803Y-76648360D01*
X152294129Y-76691611D01*
X152233135Y-76475253D01*
X151893465Y-76044290D01*
X151414728Y-75776118D01*
X151323070Y-75759370D01*
X151107000Y-75881870D01*
X151107000Y-77224080D01*
X151127000Y-77224080D01*
X151127000Y-77478080D01*
X151107000Y-77478080D01*
X151107000Y-77498080D01*
X150853000Y-77498080D01*
X150853000Y-77478080D01*
X150833000Y-77478080D01*
X150833000Y-77224080D01*
X150853000Y-77224080D01*
X150853000Y-75881870D01*
X150636930Y-75759370D01*
X150545272Y-75776118D01*
X150066535Y-76044290D01*
X149726865Y-76475253D01*
X149713774Y-76521688D01*
X149427828Y-76093740D01*
X148974609Y-75790908D01*
X148440000Y-75684568D01*
X147905391Y-75790908D01*
X147452172Y-76093740D01*
X147170000Y-76516039D01*
X146887828Y-76093740D01*
X146434609Y-75790908D01*
X145900000Y-75684568D01*
X145365391Y-75790908D01*
X144912172Y-76093740D01*
X144609340Y-76546959D01*
X144592392Y-76632161D01*
X144508081Y-76648932D01*
X144261519Y-76813679D01*
X141892599Y-79182599D01*
X141727852Y-79429161D01*
X141670000Y-79720000D01*
X141670000Y-81197626D01*
X137372599Y-85495027D01*
X137207852Y-85741589D01*
X137150000Y-86032428D01*
X137150000Y-93595198D01*
X136004800Y-94740398D01*
X136004800Y-89362463D01*
X136036992Y-89330327D01*
X136179638Y-88986799D01*
X136179962Y-88614833D01*
X136037917Y-88271057D01*
X135775127Y-88007808D01*
X135431599Y-87865162D01*
X135059633Y-87864838D01*
X134839500Y-87955795D01*
X134839500Y-79525727D01*
X134949592Y-79415827D01*
X135092238Y-79072299D01*
X135092562Y-78700333D01*
X134950517Y-78356557D01*
X134687727Y-78093308D01*
X134344199Y-77950662D01*
X133972233Y-77950338D01*
X133628457Y-78092383D01*
X133365208Y-78355173D01*
X133222562Y-78698701D01*
X133222238Y-79070667D01*
X133319500Y-79306060D01*
X133319500Y-83815060D01*
X133064833Y-83814838D01*
X132721057Y-83956883D01*
X132457808Y-84219673D01*
X132315162Y-84563201D01*
X132314838Y-84935167D01*
X132456883Y-85278943D01*
X132490000Y-85312118D01*
X132490000Y-88417172D01*
X132380827Y-88307808D01*
X132037299Y-88165162D01*
X131990423Y-88165121D01*
X130235000Y-86409698D01*
X130235000Y-79423163D01*
X130267192Y-79391027D01*
X130409838Y-79047499D01*
X130410162Y-78675533D01*
X130268117Y-78331757D01*
X130005327Y-78068508D01*
X129661799Y-77925862D01*
X129289833Y-77925538D01*
X128946057Y-78067583D01*
X128682808Y-78330373D01*
X128540162Y-78673901D01*
X128539838Y-79045867D01*
X128681883Y-79389643D01*
X128715000Y-79422818D01*
X128715000Y-86724500D01*
X128772852Y-87015339D01*
X128937599Y-87261901D01*
X130915378Y-89239680D01*
X130915338Y-89285167D01*
X131057383Y-89628943D01*
X131320173Y-89892192D01*
X131663701Y-90034838D01*
X132035667Y-90035162D01*
X132379443Y-89893117D01*
X132490000Y-89782753D01*
X132490000Y-92446448D01*
X132478233Y-92446438D01*
X132134457Y-92588483D01*
X131871208Y-92851273D01*
X131728562Y-93194801D01*
X131728238Y-93566767D01*
X131870283Y-93910543D01*
X131903400Y-93943718D01*
X131903400Y-94601005D01*
X131827033Y-94600938D01*
X131483257Y-94742983D01*
X131220008Y-95005773D01*
X131077362Y-95349301D01*
X131077038Y-95721267D01*
X131219083Y-96065043D01*
X131252200Y-96098218D01*
X131252200Y-105041598D01*
X129132720Y-107161078D01*
X129087233Y-107161038D01*
X128743457Y-107303083D01*
X128480208Y-107565873D01*
X128337562Y-107909401D01*
X128337238Y-108281367D01*
X112110000Y-108281367D01*
X112110000Y-99004300D01*
X118308100Y-99004300D01*
X118308100Y-100445600D01*
X118365952Y-100736439D01*
X118530699Y-100983001D01*
X120163999Y-102616301D01*
X120410561Y-102781048D01*
X120701400Y-102838900D01*
X123087537Y-102838900D01*
X123119673Y-102871092D01*
X123463201Y-103013738D01*
X123835167Y-103014062D01*
X124178943Y-102872017D01*
X124442192Y-102609227D01*
X124584838Y-102265699D01*
X124585126Y-101935000D01*
X126140000Y-101935000D01*
X126140000Y-103887537D01*
X126107808Y-103919673D01*
X125965162Y-104263201D01*
X125964838Y-104635167D01*
X126106883Y-104978943D01*
X126369673Y-105242192D01*
X126713201Y-105384838D01*
X127085167Y-105385162D01*
X127428943Y-105243117D01*
X127692192Y-104980327D01*
X127834838Y-104636799D01*
X127835162Y-104264833D01*
X127693117Y-103921057D01*
X127660000Y-103887882D01*
X127660000Y-102214802D01*
X130242790Y-99632012D01*
X130578943Y-99493117D01*
X130842192Y-99230327D01*
X130984838Y-98886799D01*
X130985162Y-98514833D01*
X130843117Y-98171057D01*
X130763870Y-98091671D01*
X130842338Y-97902699D01*
X130842662Y-97530733D01*
X130700617Y-97186957D01*
X130437827Y-96923708D01*
X130094299Y-96781062D01*
X129722333Y-96780738D01*
X129378557Y-96922783D01*
X129115308Y-97185573D01*
X128972662Y-97529101D01*
X128972621Y-97575977D01*
X126133598Y-100415000D01*
X121568363Y-100415000D01*
X121536227Y-100382808D01*
X121192699Y-100240162D01*
X120820733Y-100239838D01*
X120652362Y-100309407D01*
X120652379Y-100289923D01*
X128344701Y-92597601D01*
X128509448Y-92351039D01*
X128567300Y-92060200D01*
X128567300Y-91316463D01*
X128599492Y-91284327D01*
X128742138Y-90940799D01*
X128742462Y-90568833D01*
X128600417Y-90225057D01*
X128337627Y-89961808D01*
X127994099Y-89819162D01*
X127622133Y-89818838D01*
X127278357Y-89960883D01*
X127015108Y-90223673D01*
X126872462Y-90567201D01*
X126872138Y-90939167D01*
X127014183Y-91282943D01*
X127047300Y-91316118D01*
X127047300Y-91745398D01*
X121496179Y-97296519D01*
X121362817Y-96973757D01*
X121100027Y-96710508D01*
X120756499Y-96567862D01*
X120384533Y-96567538D01*
X120040757Y-96709583D01*
X119777508Y-96972373D01*
X119634862Y-97315901D01*
X119634821Y-97362777D01*
X118530699Y-98466899D01*
X118365952Y-98713461D01*
X118308100Y-99004300D01*
X112110000Y-99004300D01*
X112110000Y-94647536D01*
X113790527Y-94647536D01*
X114152866Y-95524463D01*
X114823208Y-96195976D01*
X115699501Y-96559845D01*
X116648336Y-96560673D01*
X117525263Y-96198334D01*
X118196776Y-95527992D01*
X118560645Y-94651699D01*
X118561473Y-93702864D01*
X118199134Y-92825937D01*
X117528792Y-92154424D01*
X116652499Y-91790555D01*
X115703664Y-91789727D01*
X114826737Y-92152066D01*
X114155224Y-92822408D01*
X113791355Y-93698701D01*
X113790527Y-94647536D01*
X112110000Y-94647536D01*
X112110000Y-90371930D01*
X118101475Y-90371930D01*
X118169535Y-90612931D01*
X118688834Y-90797767D01*
X119239338Y-90769805D01*
X119618065Y-90612931D01*
X119686125Y-90371930D01*
X118893800Y-89579605D01*
X118101475Y-90371930D01*
X112110000Y-90371930D01*
X112110000Y-89195034D01*
X117496033Y-89195034D01*
X117523995Y-89745538D01*
X117680869Y-90124265D01*
X117921870Y-90192325D01*
X118714195Y-89400000D01*
X117921870Y-88607675D01*
X117680869Y-88675735D01*
X117496033Y-89195034D01*
X112110000Y-89195034D01*
X112110000Y-87185198D01*
X117507990Y-87185198D01*
X117718486Y-87694637D01*
X118107913Y-88084744D01*
X118262051Y-88148748D01*
X118169535Y-88187069D01*
X118101475Y-88428070D01*
X118893800Y-89220395D01*
X119686125Y-88428070D01*
X119618065Y-88187069D01*
X119518809Y-88151740D01*
X119677637Y-88086114D01*
X119897141Y-87866993D01*
X120114513Y-88084744D01*
X120284460Y-88155312D01*
X120116563Y-88224686D01*
X119726456Y-88614113D01*
X119632130Y-88841275D01*
X119073405Y-89400000D01*
X119632030Y-89958625D01*
X119725086Y-90183837D01*
X120114513Y-90573944D01*
X120623584Y-90785329D01*
X121174798Y-90785810D01*
X121684237Y-90575314D01*
X122074344Y-90185887D01*
X122285729Y-89676816D01*
X122286210Y-89125602D01*
X122075714Y-88616163D01*
X121686287Y-88226056D01*
X121516340Y-88155488D01*
X121684237Y-88086114D01*
X122074344Y-87696687D01*
X122285729Y-87187616D01*
X122286210Y-86636402D01*
X122075714Y-86126963D01*
X121686287Y-85736856D01*
X121177216Y-85525471D01*
X120626002Y-85524990D01*
X120116563Y-85735486D01*
X119897059Y-85954607D01*
X119679687Y-85736856D01*
X119170616Y-85525471D01*
X118619402Y-85524990D01*
X118109963Y-85735486D01*
X117719856Y-86124913D01*
X117508471Y-86633984D01*
X117507990Y-87185198D01*
X112110000Y-87185198D01*
X112110000Y-83830171D01*
X114661034Y-83830171D01*
X114851328Y-84174919D01*
X115732576Y-84526615D01*
X116681332Y-84514301D01*
X117500672Y-84174919D01*
X117690966Y-83830171D01*
X116176000Y-82315205D01*
X114661034Y-83830171D01*
X112110000Y-83830171D01*
X112110000Y-81692176D01*
X113784985Y-81692176D01*
X113797299Y-82640932D01*
X114136681Y-83460272D01*
X114481429Y-83650566D01*
X115996395Y-82135600D01*
X116355605Y-82135600D01*
X117870571Y-83650566D01*
X118215319Y-83460272D01*
X118567015Y-82579024D01*
X118554701Y-81630268D01*
X118215319Y-80810928D01*
X117870571Y-80620634D01*
X116355605Y-82135600D01*
X115996395Y-82135600D01*
X115996395Y-82135600D01*
X114481429Y-80620634D01*
X114136681Y-80810928D01*
X113784985Y-81692176D01*
X112110000Y-81692176D01*
X112110000Y-78082325D01*
X112294587Y-78082325D01*
X112656916Y-78959229D01*
X113327242Y-79630726D01*
X114203513Y-79994585D01*
X115094966Y-79995363D01*
X114851328Y-80096281D01*
X114661034Y-80441029D01*
X116176000Y-81955995D01*
X117690966Y-80441029D01*
X117500672Y-80096281D01*
X116619424Y-79744585D01*
X115731484Y-79756110D01*
X116029229Y-79633084D01*
X116700726Y-78962758D01*
X117064585Y-78086487D01*
X117065413Y-77137675D01*
X116703084Y-76260771D01*
X116032758Y-75589274D01*
X115156487Y-75225415D01*
X114207675Y-75224587D01*
X113330771Y-75586916D01*
X112659274Y-76257242D01*
X112295415Y-77133513D01*
X112294587Y-78082325D01*
X112110000Y-78082325D01*
X112110000Y-74910000D01*
X183690000Y-74910000D01*
X183690000Y-78851597D01*
G36*
X183690000Y-99272998D02*
X183538131Y-99272998D01*
X183660630Y-99056930D01*
X183643882Y-98965272D01*
X183375710Y-98486535D01*
X182944747Y-98146865D01*
X182898312Y-98133774D01*
X183326260Y-97847828D01*
X183629092Y-97394609D01*
X183690000Y-97088403D01*
X183690000Y-99272998D01*
X183690000Y-99272998D01*
G37*
X183690000Y-99272998D02*
X183538131Y-99272998D01*
X183660630Y-99056930D01*
X183643882Y-98965272D01*
X183375710Y-98486535D01*
X182944747Y-98146865D01*
X182898312Y-98133774D01*
X183326260Y-97847828D01*
X183629092Y-97394609D01*
X183690000Y-97088403D01*
X183690000Y-99272998D01*
G36*
X183690000Y-94091597D02*
X183629092Y-93785391D01*
X183326260Y-93332172D01*
X182898312Y-93046226D01*
X182944747Y-93033135D01*
X183375710Y-92693465D01*
X183643882Y-92214728D01*
X183660630Y-92123070D01*
X183538131Y-91907002D01*
X183690000Y-91907002D01*
X183690000Y-94091597D01*
X183690000Y-94091597D01*
G37*
X183690000Y-94091597D02*
X183629092Y-93785391D01*
X183326260Y-93332172D01*
X182898312Y-93046226D01*
X182944747Y-93033135D01*
X183375710Y-92693465D01*
X183643882Y-92214728D01*
X183660630Y-92123070D01*
X183538131Y-91907002D01*
X183690000Y-91907002D01*
X183690000Y-94091597D01*
M02*
