G04 #@! TF.FileFunction,Legend,Bot*
%FSLAX46Y46*%
G04 Gerber Fmt 4.6, Leading zero omitted, Abs format (unit mm)*
G04 Created by KiCad (PCBNEW no-vcs-found-product) date Mi 14 Okt 2015 21:54:47 CEST*
%MOMM*%
G01*
G04 APERTURE LIST*
%ADD10C,0.100000*%
%ADD11C,0.300000*%
G04 APERTURE END LIST*
D10*
D11*
X144039284Y-103850000D02*
X144182141Y-103778571D01*
X144396427Y-103778571D01*
X144610712Y-103850000D01*
X144753570Y-103992857D01*
X144824998Y-104135714D01*
X144896427Y-104421429D01*
X144896427Y-104635714D01*
X144824998Y-104921429D01*
X144753570Y-105064286D01*
X144610712Y-105207143D01*
X144396427Y-105278571D01*
X144253570Y-105278571D01*
X144039284Y-105207143D01*
X143967855Y-105135714D01*
X143967855Y-104635714D01*
X144253570Y-104635714D01*
X143324998Y-105278571D02*
X143324998Y-103778571D01*
X142753570Y-103778571D01*
X142610712Y-103850000D01*
X142539284Y-103921429D01*
X142467855Y-104064286D01*
X142467855Y-104278571D01*
X142539284Y-104421429D01*
X142610712Y-104492857D01*
X142753570Y-104564286D01*
X143324998Y-104564286D01*
X141824998Y-105278571D02*
X141824998Y-103778571D01*
X140610712Y-104492857D02*
X140396426Y-104564286D01*
X140324998Y-104635714D01*
X140253569Y-104778571D01*
X140253569Y-104992857D01*
X140324998Y-105135714D01*
X140396426Y-105207143D01*
X140539284Y-105278571D01*
X141110712Y-105278571D01*
X141110712Y-103778571D01*
X140610712Y-103778571D01*
X140467855Y-103850000D01*
X140396426Y-103921429D01*
X140324998Y-104064286D01*
X140324998Y-104207143D01*
X140396426Y-104350000D01*
X140467855Y-104421429D01*
X140610712Y-104492857D01*
X141110712Y-104492857D01*
X139610712Y-104707143D02*
X138467855Y-104707143D01*
X137753569Y-103778571D02*
X137753569Y-104992857D01*
X137682141Y-105135714D01*
X137610712Y-105207143D01*
X137467855Y-105278571D01*
X137182141Y-105278571D01*
X137039283Y-105207143D01*
X136967855Y-105135714D01*
X136896426Y-104992857D01*
X136896426Y-103778571D01*
X136253569Y-105207143D02*
X136039283Y-105278571D01*
X135682140Y-105278571D01*
X135539283Y-105207143D01*
X135467854Y-105135714D01*
X135396426Y-104992857D01*
X135396426Y-104850000D01*
X135467854Y-104707143D01*
X135539283Y-104635714D01*
X135682140Y-104564286D01*
X135967854Y-104492857D01*
X136110712Y-104421429D01*
X136182140Y-104350000D01*
X136253569Y-104207143D01*
X136253569Y-104064286D01*
X136182140Y-103921429D01*
X136110712Y-103850000D01*
X135967854Y-103778571D01*
X135610712Y-103778571D01*
X135396426Y-103850000D01*
X134253569Y-104492857D02*
X134039283Y-104564286D01*
X133967855Y-104635714D01*
X133896426Y-104778571D01*
X133896426Y-104992857D01*
X133967855Y-105135714D01*
X134039283Y-105207143D01*
X134182141Y-105278571D01*
X134753569Y-105278571D01*
X134753569Y-103778571D01*
X134253569Y-103778571D01*
X134110712Y-103850000D01*
X134039283Y-103921429D01*
X133967855Y-104064286D01*
X133967855Y-104207143D01*
X134039283Y-104350000D01*
X134110712Y-104421429D01*
X134253569Y-104492857D01*
X134753569Y-104492857D01*
X131253569Y-105135714D02*
X131324998Y-105207143D01*
X131539284Y-105278571D01*
X131682141Y-105278571D01*
X131896426Y-105207143D01*
X132039284Y-105064286D01*
X132110712Y-104921429D01*
X132182141Y-104635714D01*
X132182141Y-104421429D01*
X132110712Y-104135714D01*
X132039284Y-103992857D01*
X131896426Y-103850000D01*
X131682141Y-103778571D01*
X131539284Y-103778571D01*
X131324998Y-103850000D01*
X131253569Y-103921429D01*
X130396426Y-105278571D02*
X130539284Y-105207143D01*
X130610712Y-105135714D01*
X130682141Y-104992857D01*
X130682141Y-104564286D01*
X130610712Y-104421429D01*
X130539284Y-104350000D01*
X130396426Y-104278571D01*
X130182141Y-104278571D01*
X130039284Y-104350000D01*
X129967855Y-104421429D01*
X129896426Y-104564286D01*
X129896426Y-104992857D01*
X129967855Y-105135714D01*
X130039284Y-105207143D01*
X130182141Y-105278571D01*
X130396426Y-105278571D01*
X129253569Y-104278571D02*
X129253569Y-105278571D01*
X129253569Y-104421429D02*
X129182141Y-104350000D01*
X129039283Y-104278571D01*
X128824998Y-104278571D01*
X128682141Y-104350000D01*
X128610712Y-104492857D01*
X128610712Y-105278571D01*
X128039283Y-104278571D02*
X127682140Y-105278571D01*
X127324998Y-104278571D01*
X126182141Y-105207143D02*
X126324998Y-105278571D01*
X126610712Y-105278571D01*
X126753569Y-105207143D01*
X126824998Y-105064286D01*
X126824998Y-104492857D01*
X126753569Y-104350000D01*
X126610712Y-104278571D01*
X126324998Y-104278571D01*
X126182141Y-104350000D01*
X126110712Y-104492857D01*
X126110712Y-104635714D01*
X126824998Y-104778571D01*
X125467855Y-105278571D02*
X125467855Y-104278571D01*
X125467855Y-104564286D02*
X125396427Y-104421429D01*
X125324998Y-104350000D01*
X125182141Y-104278571D01*
X125039284Y-104278571D01*
X124753570Y-104278571D02*
X124182141Y-104278571D01*
X124539284Y-103778571D02*
X124539284Y-105064286D01*
X124467856Y-105207143D01*
X124324998Y-105278571D01*
X124182141Y-105278571D01*
X123110713Y-105207143D02*
X123253570Y-105278571D01*
X123539284Y-105278571D01*
X123682141Y-105207143D01*
X123753570Y-105064286D01*
X123753570Y-104492857D01*
X123682141Y-104350000D01*
X123539284Y-104278571D01*
X123253570Y-104278571D01*
X123110713Y-104350000D01*
X123039284Y-104492857D01*
X123039284Y-104635714D01*
X123753570Y-104778571D01*
X122396427Y-105278571D02*
X122396427Y-104278571D01*
X122396427Y-104564286D02*
X122324999Y-104421429D01*
X122253570Y-104350000D01*
X122110713Y-104278571D01*
X121967856Y-104278571D01*
X120539285Y-103778571D02*
X120039285Y-105278571D01*
X119539285Y-103778571D01*
X118253571Y-105278571D02*
X119110714Y-105278571D01*
X118682142Y-105278571D02*
X118682142Y-103778571D01*
X118824999Y-103992857D01*
X118967857Y-104135714D01*
X119110714Y-104207143D01*
X117610714Y-105135714D02*
X117539286Y-105207143D01*
X117610714Y-105278571D01*
X117682143Y-105207143D01*
X117610714Y-105135714D01*
X117610714Y-105278571D01*
X116110714Y-105278571D02*
X116967857Y-105278571D01*
X116539285Y-105278571D02*
X116539285Y-103778571D01*
X116682142Y-103992857D01*
X116825000Y-104135714D01*
X116967857Y-104207143D01*
X127539283Y-107678571D02*
X128396426Y-107678571D01*
X127967854Y-107678571D02*
X127967854Y-106178571D01*
X128110711Y-106392857D01*
X128253569Y-106535714D01*
X128396426Y-106607143D01*
X126253569Y-106678571D02*
X126253569Y-107678571D01*
X126610712Y-106107143D02*
X126967855Y-107178571D01*
X126039283Y-107178571D01*
X125467855Y-107535714D02*
X125396427Y-107607143D01*
X125467855Y-107678571D01*
X125539284Y-107607143D01*
X125467855Y-107535714D01*
X125467855Y-107678571D01*
X123967855Y-107678571D02*
X124824998Y-107678571D01*
X124396426Y-107678571D02*
X124396426Y-106178571D01*
X124539283Y-106392857D01*
X124682141Y-106535714D01*
X124824998Y-106607143D01*
X123039284Y-106178571D02*
X122896427Y-106178571D01*
X122753570Y-106250000D01*
X122682141Y-106321429D01*
X122610712Y-106464286D01*
X122539284Y-106750000D01*
X122539284Y-107107143D01*
X122610712Y-107392857D01*
X122682141Y-107535714D01*
X122753570Y-107607143D01*
X122896427Y-107678571D01*
X123039284Y-107678571D01*
X123182141Y-107607143D01*
X123253570Y-107535714D01*
X123324998Y-107392857D01*
X123396427Y-107107143D01*
X123396427Y-106750000D01*
X123324998Y-106464286D01*
X123253570Y-106321429D01*
X123182141Y-106250000D01*
X123039284Y-106178571D01*
X121896427Y-107535714D02*
X121824999Y-107607143D01*
X121896427Y-107678571D01*
X121967856Y-107607143D01*
X121896427Y-107535714D01*
X121896427Y-107678571D01*
X121253570Y-106321429D02*
X121182141Y-106250000D01*
X121039284Y-106178571D01*
X120682141Y-106178571D01*
X120539284Y-106250000D01*
X120467855Y-106321429D01*
X120396427Y-106464286D01*
X120396427Y-106607143D01*
X120467855Y-106821429D01*
X121324998Y-107678571D01*
X120396427Y-107678571D01*
X119467856Y-106178571D02*
X119324999Y-106178571D01*
X119182142Y-106250000D01*
X119110713Y-106321429D01*
X119039284Y-106464286D01*
X118967856Y-106750000D01*
X118967856Y-107107143D01*
X119039284Y-107392857D01*
X119110713Y-107535714D01*
X119182142Y-107607143D01*
X119324999Y-107678571D01*
X119467856Y-107678571D01*
X119610713Y-107607143D01*
X119682142Y-107535714D01*
X119753570Y-107392857D01*
X119824999Y-107107143D01*
X119824999Y-106750000D01*
X119753570Y-106464286D01*
X119682142Y-106321429D01*
X119610713Y-106250000D01*
X119467856Y-106178571D01*
X117539285Y-107678571D02*
X118396428Y-107678571D01*
X117967856Y-107678571D02*
X117967856Y-106178571D01*
X118110713Y-106392857D01*
X118253571Y-106535714D01*
X118396428Y-106607143D01*
X116182142Y-106178571D02*
X116896428Y-106178571D01*
X116967857Y-106892857D01*
X116896428Y-106821429D01*
X116753571Y-106750000D01*
X116396428Y-106750000D01*
X116253571Y-106821429D01*
X116182142Y-106892857D01*
X116110714Y-107035714D01*
X116110714Y-107392857D01*
X116182142Y-107535714D01*
X116253571Y-107607143D01*
X116396428Y-107678571D01*
X116753571Y-107678571D01*
X116896428Y-107607143D01*
X116967857Y-107535714D01*
M02*
