G04 #@! TF.FileFunction,Copper,L2,Bot,Signal*
%FSLAX46Y46*%
G04 Gerber Fmt 4.6, Leading zero omitted, Abs format (unit mm)*
G04 Created by KiCad (PCBNEW no-vcs-found-product) date Sa 10 Okt 2015 23:31:38 CEST*
%MOMM*%
G01*
G04 APERTURE LIST*
%ADD10C,0.100000*%
%ADD11C,1.501140*%
%ADD12C,3.500120*%
%ADD13R,1.524000X1.998980*%
%ADD14O,1.524000X1.998980*%
%ADD15R,1.998980X1.524000*%
%ADD16O,1.998980X1.524000*%
%ADD17C,0.600000*%
%ADD18C,0.250000*%
%ADD19C,0.254000*%
G04 APERTURE END LIST*
D10*
D11*
X118893800Y-86910800D03*
X118893800Y-89400000D03*
X120900400Y-89400000D03*
X120900400Y-86910800D03*
D12*
X116176000Y-82135600D03*
X116176000Y-94175200D03*
D13*
X149660000Y-79868920D03*
D14*
X149660000Y-76831080D03*
X152200000Y-79868920D03*
X152200000Y-76831080D03*
X154740000Y-79868920D03*
X154740000Y-76831080D03*
D15*
X179031080Y-79080000D03*
D16*
X182068920Y-79080000D03*
X179031080Y-81620000D03*
X182068920Y-81620000D03*
X179031080Y-84160000D03*
X182068920Y-84160000D03*
X179031080Y-86700000D03*
X182068920Y-86700000D03*
X179031080Y-89240000D03*
X182068920Y-89240000D03*
X179031080Y-91780000D03*
X182068920Y-91780000D03*
X179031080Y-94320000D03*
X182068920Y-94320000D03*
X179031080Y-96860000D03*
X182068920Y-96860000D03*
X179031080Y-99400000D03*
X182068920Y-99400000D03*
X179031080Y-101940000D03*
X182068920Y-101940000D03*
X179031080Y-104480000D03*
X182068920Y-104480000D03*
X179031080Y-107020000D03*
X182068920Y-107020000D03*
D13*
X142420000Y-111248920D03*
D14*
X142420000Y-108211080D03*
X144960000Y-111248920D03*
X144960000Y-108211080D03*
X147500000Y-111248920D03*
X147500000Y-108211080D03*
D17*
X123900000Y-94900000D03*
X144900000Y-104000000D03*
X143100000Y-99800000D03*
X139800000Y-86600000D03*
X147300000Y-82700000D03*
X161100000Y-92600000D03*
X161300000Y-107600000D03*
X159500000Y-110800000D03*
X168800000Y-110600000D03*
X167800000Y-76900000D03*
X143100000Y-76300000D03*
X140300000Y-76300000D03*
X129600000Y-79400000D03*
X116300000Y-108800000D03*
X153550000Y-105450000D03*
X135000000Y-88800000D03*
X135700000Y-88000000D03*
X146900000Y-89100000D03*
X147700000Y-89600000D03*
X148500000Y-88800000D03*
X149200000Y-88000000D03*
X150000000Y-87200000D03*
X132000000Y-86400000D03*
X147300000Y-98200000D03*
X125400000Y-90400000D03*
X147000000Y-99100000D03*
X172300000Y-101600000D03*
X172400000Y-86500000D03*
X172400000Y-87800000D03*
X172300000Y-89100000D03*
X120700000Y-97300000D03*
X125300000Y-103800000D03*
X119973129Y-100426425D03*
X127807300Y-90925020D03*
X121005900Y-101175000D03*
X129907500Y-97715900D03*
X159850000Y-95250000D03*
X154348900Y-100024700D03*
X167975000Y-91625000D03*
X151550000Y-104850000D03*
D18*
X129600000Y-79400000D02*
X136000000Y-79400000D01*
X147500000Y-108211080D02*
X150788920Y-108211080D01*
X150788920Y-108211080D02*
X153550000Y-105450000D01*
X181820000Y-99400000D02*
X182575000Y-99400000D01*
X142420000Y-111248920D02*
X142420000Y-109999430D01*
X142420000Y-109999430D02*
X135000000Y-102579430D01*
X135000000Y-102579430D02*
X135000000Y-88800000D01*
X142420000Y-111248920D02*
X142420000Y-111011430D01*
X139700000Y-105900000D02*
X135700000Y-101900000D01*
X135700000Y-101900000D02*
X135700000Y-88000000D01*
X143898410Y-105900000D02*
X139700000Y-105900000D01*
X144960000Y-108211080D02*
X144960000Y-106961590D01*
X144960000Y-106961590D02*
X143898410Y-105900000D01*
X147500000Y-111000000D02*
X147420000Y-111000000D01*
X146900000Y-84600000D02*
X149660000Y-81840000D01*
X149660000Y-81840000D02*
X149660000Y-79868920D01*
X146900000Y-89100000D02*
X146900000Y-84600000D01*
X150900000Y-82200000D02*
X150900000Y-78308570D01*
X150900000Y-78308570D02*
X149660000Y-77068570D01*
X149660000Y-77068570D02*
X149660000Y-76831080D01*
X147700000Y-85400000D02*
X150900000Y-82200000D01*
X147700000Y-89600000D02*
X147700000Y-85400000D01*
X152200000Y-82100000D02*
X152200000Y-79868920D01*
X148500000Y-85800000D02*
X152200000Y-82100000D01*
X148500000Y-88800000D02*
X148500000Y-85800000D01*
X149200000Y-88000000D02*
X149200000Y-86000000D01*
X149200000Y-86000000D02*
X153500000Y-81700000D01*
X153500000Y-81700000D02*
X153500000Y-77119080D01*
X153500000Y-77119080D02*
X153212000Y-76831080D01*
X153212000Y-76831080D02*
X152200000Y-76831080D01*
X150000000Y-86300000D02*
X154740000Y-81560000D01*
X154740000Y-81560000D02*
X154740000Y-79868920D01*
X150000000Y-87200000D02*
X150000000Y-86300000D01*
X137900000Y-87400000D02*
X136900000Y-86400000D01*
X136900000Y-86400000D02*
X132000000Y-86400000D01*
X137900000Y-88800000D02*
X137900000Y-87400000D01*
X147300000Y-98200000D02*
X137900000Y-88800000D01*
X129300000Y-87100000D02*
X126000000Y-90400000D01*
X126000000Y-90400000D02*
X125400000Y-90400000D01*
X136600000Y-87100000D02*
X129300000Y-87100000D01*
X137200000Y-87700000D02*
X136600000Y-87100000D01*
X137200000Y-89300000D02*
X137200000Y-87700000D01*
X147000000Y-99100000D02*
X137200000Y-89300000D01*
X179280000Y-86700000D02*
X178650000Y-86700000D01*
X179280000Y-89240000D02*
X178260000Y-89240000D01*
X179046200Y-89240000D02*
X179280000Y-89240000D01*
X176800000Y-92800000D02*
X177773590Y-92800000D01*
X177773590Y-92800000D02*
X178793590Y-91780000D01*
X178793590Y-91780000D02*
X179031080Y-91780000D01*
X175200000Y-94400000D02*
X176800000Y-92800000D01*
X175200000Y-98700000D02*
X175200000Y-94400000D01*
X172300000Y-101600000D02*
X175200000Y-98700000D01*
X179280000Y-91780000D02*
X179380000Y-91780000D01*
X178000000Y-80300000D02*
X180611430Y-80300000D01*
X180611430Y-80300000D02*
X181831430Y-79080000D01*
X181831430Y-79080000D02*
X182068920Y-79080000D01*
X172699999Y-85600001D02*
X178000000Y-80300000D01*
X172400000Y-86500000D02*
X172699999Y-86200001D01*
X172699999Y-86200001D02*
X172699999Y-85600001D01*
X172400000Y-87800000D02*
X177300000Y-82900000D01*
X180551430Y-82900000D02*
X181831430Y-81620000D01*
X177300000Y-82900000D02*
X180551430Y-82900000D01*
X181831430Y-81620000D02*
X182068920Y-81620000D01*
X172300000Y-89100000D02*
X176000000Y-85400000D01*
X176000000Y-85400000D02*
X180591430Y-85400000D01*
X180591430Y-85400000D02*
X181831430Y-84160000D01*
X181831430Y-84160000D02*
X182068920Y-84160000D01*
X181820000Y-84160000D02*
X181820000Y-84430000D01*
X181820000Y-86700000D02*
X181700000Y-86700000D01*
X120700000Y-97300000D02*
X118700000Y-97300000D01*
X121700000Y-103800000D02*
X125300000Y-103800000D01*
X118400000Y-100500000D02*
X121700000Y-103800000D01*
X118400000Y-97600000D02*
X118400000Y-100500000D01*
X118700000Y-97300000D02*
X118400000Y-97600000D01*
X120273128Y-100126426D02*
X119973129Y-100426425D01*
X127807300Y-92592254D02*
X120273128Y-100126426D01*
X127807300Y-90925020D02*
X127807300Y-92592254D01*
X126448400Y-101175000D02*
X121005900Y-101175000D01*
X129907500Y-97715900D02*
X126448400Y-101175000D01*
X154348900Y-100024700D02*
X155100000Y-100000000D01*
X155100000Y-100000000D02*
X159850000Y-95250000D01*
X164775000Y-91625000D02*
X167975000Y-91625000D01*
X151550000Y-104850000D02*
X164775000Y-91625000D01*
D19*
G36*
X183690000Y-78851597D02*
X183629092Y-78545391D01*
X183326260Y-78092172D01*
X182873041Y-77789340D01*
X182338432Y-77683000D01*
X181799408Y-77683000D01*
X181264799Y-77789340D01*
X180811580Y-78092172D01*
X180674112Y-78297907D01*
X180631033Y-78075877D01*
X180491243Y-77863073D01*
X180280210Y-77720623D01*
X180030570Y-77670560D01*
X178031590Y-77670560D01*
X177789467Y-77717537D01*
X177576663Y-77857327D01*
X177434213Y-78068360D01*
X177384150Y-78318000D01*
X177384150Y-79841048D01*
X172162598Y-85062600D01*
X171997851Y-85309162D01*
X171939999Y-85600001D01*
X171939999Y-85678397D01*
X171871057Y-85706883D01*
X171607808Y-85969673D01*
X171465162Y-86313201D01*
X171464838Y-86685167D01*
X171606883Y-87028943D01*
X171727710Y-87149981D01*
X171607808Y-87269673D01*
X171465162Y-87613201D01*
X171464838Y-87985167D01*
X171606883Y-88328943D01*
X171677797Y-88399981D01*
X171507808Y-88569673D01*
X171365162Y-88913201D01*
X171364838Y-89285167D01*
X171506883Y-89628943D01*
X171769673Y-89892192D01*
X172113201Y-90034838D01*
X172485167Y-90035162D01*
X172828943Y-89893117D01*
X173092192Y-89630327D01*
X173234838Y-89286799D01*
X173234879Y-89239923D01*
X176314802Y-86160000D01*
X177474510Y-86160000D01*
X177470908Y-86165391D01*
X177364568Y-86700000D01*
X177470908Y-87234609D01*
X177773740Y-87687828D01*
X178196039Y-87970000D01*
X177773740Y-88252172D01*
X177470908Y-88705391D01*
X177364568Y-89240000D01*
X177470908Y-89774609D01*
X177773740Y-90227828D01*
X178196039Y-90510000D01*
X177773740Y-90792172D01*
X177470908Y-91245391D01*
X177364568Y-91780000D01*
X177416285Y-92040000D01*
X176800000Y-92040000D01*
X176509161Y-92097852D01*
X176262599Y-92262599D01*
X174662599Y-93862599D01*
X174497852Y-94109161D01*
X174440000Y-94400000D01*
X174440000Y-98385198D01*
X172160320Y-100664878D01*
X172114833Y-100664838D01*
X171771057Y-100806883D01*
X171507808Y-101069673D01*
X171365162Y-101413201D01*
X171364838Y-101785167D01*
X171506883Y-102128943D01*
X171769673Y-102392192D01*
X172113201Y-102534838D01*
X172485167Y-102535162D01*
X172828943Y-102393117D01*
X173092192Y-102130327D01*
X173234838Y-101786799D01*
X173234879Y-101739923D01*
X175737401Y-99237401D01*
X175902148Y-98990840D01*
X175960000Y-98700000D01*
X175960000Y-94714802D01*
X177114802Y-93560000D01*
X177621510Y-93560000D01*
X177470908Y-93785391D01*
X177364568Y-94320000D01*
X177470908Y-94854609D01*
X177773740Y-95307828D01*
X178196039Y-95590000D01*
X177773740Y-95872172D01*
X177470908Y-96325391D01*
X177364568Y-96860000D01*
X177470908Y-97394609D01*
X177773740Y-97847828D01*
X178196039Y-98130000D01*
X177773740Y-98412172D01*
X177470908Y-98865391D01*
X177364568Y-99400000D01*
X177470908Y-99934609D01*
X177773740Y-100387828D01*
X178196039Y-100670000D01*
X177773740Y-100952172D01*
X177470908Y-101405391D01*
X177364568Y-101940000D01*
X177470908Y-102474609D01*
X177773740Y-102927828D01*
X178196039Y-103210000D01*
X177773740Y-103492172D01*
X177470908Y-103945391D01*
X177364568Y-104480000D01*
X177470908Y-105014609D01*
X177773740Y-105467828D01*
X178201688Y-105753774D01*
X178155253Y-105766865D01*
X177724290Y-106106535D01*
X177456118Y-106585272D01*
X177439370Y-106676930D01*
X177561870Y-106893000D01*
X178904080Y-106893000D01*
X178904080Y-106873000D01*
X179158080Y-106873000D01*
X179158080Y-106893000D01*
X180500290Y-106893000D01*
X180550000Y-106805320D01*
X180599710Y-106893000D01*
X181941920Y-106893000D01*
X181941920Y-105776746D01*
X181904745Y-105750000D01*
X181941920Y-105723254D01*
X181941920Y-104607000D01*
X181921920Y-104607000D01*
X181921920Y-104353000D01*
X181941920Y-104353000D01*
X181941920Y-103236746D01*
X181904745Y-103210000D01*
X181941920Y-103183254D01*
X181941920Y-102067000D01*
X181921920Y-102067000D01*
X181921920Y-101813000D01*
X181941920Y-101813000D01*
X181941920Y-100696746D01*
X181904745Y-100670000D01*
X181941920Y-100643254D01*
X181941920Y-99527000D01*
X181921920Y-99527000D01*
X181921920Y-99273000D01*
X181941920Y-99273000D01*
X181941920Y-98156746D01*
X181904745Y-98130000D01*
X181941920Y-98103254D01*
X181941920Y-96987000D01*
X181921920Y-96987000D01*
X181921920Y-96733000D01*
X181941920Y-96733000D01*
X181941920Y-95616746D01*
X181904745Y-95590000D01*
X181941920Y-95563254D01*
X181941920Y-94447000D01*
X181921920Y-94447000D01*
X181921920Y-94193000D01*
X181941920Y-94193000D01*
X181941920Y-93076746D01*
X181904745Y-93050000D01*
X181941920Y-93023254D01*
X181941920Y-91907000D01*
X181921920Y-91907000D01*
X181921920Y-91653000D01*
X181941920Y-91653000D01*
X181941920Y-91633000D01*
X182195920Y-91633000D01*
X182195920Y-91653000D01*
X182215920Y-91653000D01*
X182215920Y-91907000D01*
X182195920Y-91907000D01*
X182195920Y-93023254D01*
X182233095Y-93050000D01*
X182195920Y-93076746D01*
X182195920Y-94193000D01*
X182215920Y-94193000D01*
X182215920Y-94447000D01*
X182195920Y-94447000D01*
X182195920Y-95563254D01*
X182233095Y-95590000D01*
X182195920Y-95616746D01*
X182195920Y-96733000D01*
X182215920Y-96733000D01*
X182215920Y-96987000D01*
X182195920Y-96987000D01*
X182195920Y-98103254D01*
X182233095Y-98130000D01*
X182195920Y-98156746D01*
X182195920Y-99273000D01*
X182215920Y-99273000D01*
X182215920Y-99527000D01*
X182195920Y-99527000D01*
X182195920Y-100643254D01*
X182233095Y-100670000D01*
X182195920Y-100696746D01*
X182195920Y-101813000D01*
X182215920Y-101813000D01*
X182215920Y-102067000D01*
X182195920Y-102067000D01*
X182195920Y-103183254D01*
X182233095Y-103210000D01*
X182195920Y-103236746D01*
X182195920Y-104353000D01*
X182215920Y-104353000D01*
X182215920Y-104607000D01*
X182195920Y-104607000D01*
X182195920Y-105723254D01*
X182233095Y-105750000D01*
X182195920Y-105776746D01*
X182195920Y-106893000D01*
X182215920Y-106893000D01*
X182215920Y-107147000D01*
X182195920Y-107147000D01*
X182195920Y-108263254D01*
X182416602Y-108422027D01*
X182944747Y-108273135D01*
X183375710Y-107933465D01*
X183643882Y-107454728D01*
X183660630Y-107363070D01*
X183538131Y-107147002D01*
X183690000Y-107147002D01*
X183690000Y-114490000D01*
X112110000Y-114490000D01*
X112110000Y-97600000D01*
X117640000Y-97600000D01*
X117640000Y-100500000D01*
X117697852Y-100790839D01*
X117862599Y-101037401D01*
X121162599Y-104337401D01*
X121409161Y-104502148D01*
X121700000Y-104560000D01*
X124737537Y-104560000D01*
X124769673Y-104592192D01*
X125113201Y-104734838D01*
X125485167Y-104735162D01*
X125828943Y-104593117D01*
X126092192Y-104330327D01*
X126234838Y-103986799D01*
X126235162Y-103614833D01*
X126093117Y-103271057D01*
X125830327Y-103007808D01*
X125486799Y-102865162D01*
X125114833Y-102864838D01*
X124771057Y-103006883D01*
X124737882Y-103040000D01*
X122014802Y-103040000D01*
X121084871Y-102110069D01*
X121191067Y-102110162D01*
X121534843Y-101968117D01*
X121568018Y-101935000D01*
X126448400Y-101935000D01*
X126739239Y-101877148D01*
X126985801Y-101712401D01*
X130047180Y-98651022D01*
X130092667Y-98651062D01*
X130436443Y-98509017D01*
X130699692Y-98246227D01*
X130842338Y-97902699D01*
X130842662Y-97530733D01*
X130700617Y-97186957D01*
X130437827Y-96923708D01*
X130094299Y-96781062D01*
X129722333Y-96780738D01*
X129378557Y-96922783D01*
X129115308Y-97185573D01*
X128972662Y-97529101D01*
X128972621Y-97575977D01*
X126133598Y-100415000D01*
X121568363Y-100415000D01*
X121536227Y-100382808D01*
X121222019Y-100252337D01*
X128344701Y-93129655D01*
X128509448Y-92883094D01*
X128567300Y-92592254D01*
X128567300Y-91487483D01*
X128599492Y-91455347D01*
X128742138Y-91111819D01*
X128742462Y-90739853D01*
X128600417Y-90396077D01*
X128337627Y-90132828D01*
X127994099Y-89990182D01*
X127622133Y-89989858D01*
X127388345Y-90086457D01*
X129614802Y-87860000D01*
X134765121Y-87860000D01*
X134765099Y-87885388D01*
X134471057Y-88006883D01*
X134207808Y-88269673D01*
X134065162Y-88613201D01*
X134064838Y-88985167D01*
X134206883Y-89328943D01*
X134240000Y-89362118D01*
X134240000Y-102579430D01*
X134297852Y-102870269D01*
X134462599Y-103116831D01*
X141175449Y-109829681D01*
X141060623Y-109999790D01*
X141010560Y-110249430D01*
X141010560Y-112248410D01*
X141057537Y-112490533D01*
X141197327Y-112703337D01*
X141408360Y-112845787D01*
X141658000Y-112895850D01*
X143182000Y-112895850D01*
X143424123Y-112848873D01*
X143636927Y-112709083D01*
X143779377Y-112498050D01*
X143822617Y-112282435D01*
X143972172Y-112506260D01*
X144425391Y-112809092D01*
X144960000Y-112915432D01*
X145494609Y-112809092D01*
X145947828Y-112506260D01*
X146230000Y-112083961D01*
X146512172Y-112506260D01*
X146965391Y-112809092D01*
X147500000Y-112915432D01*
X148034609Y-112809092D01*
X148487828Y-112506260D01*
X148790660Y-112053041D01*
X148897000Y-111518432D01*
X148897000Y-110979408D01*
X148790660Y-110444799D01*
X148487828Y-109991580D01*
X148068267Y-109711238D01*
X148413465Y-109517870D01*
X148753135Y-109086907D01*
X148902027Y-108558762D01*
X148743254Y-108338080D01*
X147627000Y-108338080D01*
X147627000Y-108358080D01*
X147373000Y-108358080D01*
X147373000Y-108338080D01*
X147353000Y-108338080D01*
X147353000Y-108084080D01*
X147373000Y-108084080D01*
X147373000Y-106741870D01*
X147627000Y-106741870D01*
X147627000Y-108084080D01*
X148743254Y-108084080D01*
X148902027Y-107863398D01*
X148760978Y-107363070D01*
X177439370Y-107363070D01*
X177456118Y-107454728D01*
X177724290Y-107933465D01*
X178155253Y-108273135D01*
X178683398Y-108422027D01*
X178904080Y-108263254D01*
X178904080Y-107147000D01*
X179158080Y-107147000D01*
X179158080Y-108263254D01*
X179378762Y-108422027D01*
X179906907Y-108273135D01*
X180337870Y-107933465D01*
X180550000Y-107554773D01*
X180762130Y-107933465D01*
X181193093Y-108273135D01*
X181721238Y-108422027D01*
X181941920Y-108263254D01*
X181941920Y-107147000D01*
X180599710Y-107147000D01*
X180550000Y-107234680D01*
X180500290Y-107147000D01*
X179158080Y-107147000D01*
X178904080Y-107147000D01*
X178904080Y-107147000D01*
X177561870Y-107147000D01*
X177439370Y-107363070D01*
X148760978Y-107363070D01*
X148753135Y-107335253D01*
X148413465Y-106904290D01*
X147934728Y-106636118D01*
X147843070Y-106619370D01*
X147627000Y-106741870D01*
X147373000Y-106741870D01*
X147373000Y-106741870D01*
X147156930Y-106619370D01*
X147065272Y-106636118D01*
X146586535Y-106904290D01*
X146246865Y-107335253D01*
X146233774Y-107381688D01*
X145947828Y-106953740D01*
X145683277Y-106776972D01*
X145662148Y-106670751D01*
X145497401Y-106424189D01*
X144435811Y-105362599D01*
X144189249Y-105197852D01*
X143898410Y-105140000D01*
X140014802Y-105140000D01*
X139909969Y-105035167D01*
X150614838Y-105035167D01*
X150756883Y-105378943D01*
X151019673Y-105642192D01*
X151363201Y-105784838D01*
X151735167Y-105785162D01*
X152078943Y-105643117D01*
X152342192Y-105380327D01*
X152484838Y-105036799D01*
X152484879Y-104989923D01*
X165089802Y-92385000D01*
X167412537Y-92385000D01*
X167444673Y-92417192D01*
X167788201Y-92559838D01*
X168160167Y-92560162D01*
X168503943Y-92418117D01*
X168767192Y-92155327D01*
X168909838Y-91811799D01*
X168910162Y-91439833D01*
X168768117Y-91096057D01*
X168505327Y-90832808D01*
X168161799Y-90690162D01*
X167789833Y-90689838D01*
X167446057Y-90831883D01*
X167412882Y-90865000D01*
X164775000Y-90865000D01*
X164484160Y-90922852D01*
X164237599Y-91087599D01*
X160623646Y-94701552D01*
X160380327Y-94457808D01*
X160036799Y-94315162D01*
X159664833Y-94314838D01*
X159321057Y-94456883D01*
X159057808Y-94719673D01*
X158915162Y-95063201D01*
X158915121Y-95110077D01*
X154818080Y-99207118D01*
X154535699Y-99089862D01*
X154163733Y-99089538D01*
X153819957Y-99231583D01*
X153556708Y-99494373D01*
X153414062Y-99837901D01*
X153413738Y-100209867D01*
X153555783Y-100553643D01*
X153818573Y-100816892D01*
X154162101Y-100959538D01*
X154365483Y-100959715D01*
X151410320Y-103914878D01*
X151364833Y-103914838D01*
X151021057Y-104056883D01*
X150757808Y-104319673D01*
X150615162Y-104663201D01*
X150614838Y-105035167D01*
X139909969Y-105035167D01*
X136460000Y-101585198D01*
X136460000Y-89400546D01*
X136497852Y-89590839D01*
X136662599Y-89837401D01*
X146064878Y-99239680D01*
X146064838Y-99285167D01*
X146206883Y-99628943D01*
X146469673Y-99892192D01*
X146813201Y-100034838D01*
X147185167Y-100035162D01*
X147528943Y-99893117D01*
X147792192Y-99630327D01*
X147934838Y-99286799D01*
X147935162Y-98914833D01*
X147927044Y-98895187D01*
X148092192Y-98730327D01*
X148234838Y-98386799D01*
X148235162Y-98014833D01*
X148093117Y-97671057D01*
X147830327Y-97407808D01*
X147486799Y-97265162D01*
X147439923Y-97265121D01*
X139459969Y-89285167D01*
X145964838Y-89285167D01*
X146106883Y-89628943D01*
X146369673Y-89892192D01*
X146713201Y-90034838D01*
X146868055Y-90034973D01*
X146906883Y-90128943D01*
X147169673Y-90392192D01*
X147513201Y-90534838D01*
X147885167Y-90535162D01*
X148228943Y-90393117D01*
X148492192Y-90130327D01*
X148634838Y-89786799D01*
X148634883Y-89735118D01*
X148685167Y-89735162D01*
X149028943Y-89593117D01*
X149292192Y-89330327D01*
X149434838Y-88986799D01*
X149434901Y-88914612D01*
X149728943Y-88793117D01*
X149992192Y-88530327D01*
X150134838Y-88186799D01*
X150134883Y-88135118D01*
X150185167Y-88135162D01*
X150528943Y-87993117D01*
X150792192Y-87730327D01*
X150934838Y-87386799D01*
X150935162Y-87014833D01*
X150793117Y-86671057D01*
X150760000Y-86637882D01*
X150760000Y-86614802D01*
X155277401Y-82097401D01*
X155442148Y-81850840D01*
X155500000Y-81560000D01*
X155500000Y-81278490D01*
X155727828Y-81126260D01*
X156030660Y-80673041D01*
X156137000Y-80138432D01*
X156137000Y-79599408D01*
X156030660Y-79064799D01*
X155727828Y-78611580D01*
X155308267Y-78331238D01*
X155653465Y-78137870D01*
X155993135Y-77706907D01*
X156142027Y-77178762D01*
X155983254Y-76958080D01*
X154867000Y-76958080D01*
X154867000Y-76978080D01*
X154613000Y-76978080D01*
X154613000Y-76958080D01*
X154593000Y-76958080D01*
X154593000Y-76704080D01*
X154613000Y-76704080D01*
X154613000Y-75361870D01*
X154867000Y-75361870D01*
X154867000Y-76704080D01*
X155983254Y-76704080D01*
X156142027Y-76483398D01*
X155993135Y-75955253D01*
X155653465Y-75524290D01*
X155174728Y-75256118D01*
X155083070Y-75239370D01*
X154867000Y-75361870D01*
X154613000Y-75361870D01*
X154613000Y-75361870D01*
X154396930Y-75239370D01*
X154305272Y-75256118D01*
X153826535Y-75524290D01*
X153486865Y-75955253D01*
X153473774Y-76001688D01*
X153187828Y-75573740D01*
X152734609Y-75270908D01*
X152200000Y-75164568D01*
X151665391Y-75270908D01*
X151212172Y-75573740D01*
X150930000Y-75996039D01*
X150647828Y-75573740D01*
X150194609Y-75270908D01*
X149660000Y-75164568D01*
X149125391Y-75270908D01*
X148672172Y-75573740D01*
X148369340Y-76026959D01*
X148263000Y-76561568D01*
X148263000Y-77100592D01*
X148369340Y-77635201D01*
X148672172Y-78088420D01*
X148877907Y-78225888D01*
X148655877Y-78268967D01*
X148443073Y-78408757D01*
X148300623Y-78619790D01*
X148250560Y-78869430D01*
X148250560Y-80868410D01*
X148297537Y-81110533D01*
X148437327Y-81323337D01*
X148648360Y-81465787D01*
X148898000Y-81515850D01*
X148900000Y-81515850D01*
X148900000Y-81525198D01*
X146362599Y-84062599D01*
X146197852Y-84309161D01*
X146140000Y-84600000D01*
X146140000Y-88537537D01*
X146107808Y-88569673D01*
X145965162Y-88913201D01*
X145964838Y-89285167D01*
X139459969Y-89285167D01*
X138660000Y-88485198D01*
X138660000Y-87400000D01*
X138602148Y-87109161D01*
X138437401Y-86862599D01*
X137437401Y-85862599D01*
X137190839Y-85697852D01*
X136900000Y-85640000D01*
X132562463Y-85640000D01*
X132530327Y-85607808D01*
X132186799Y-85465162D01*
X131814833Y-85464838D01*
X131471057Y-85606883D01*
X131207808Y-85869673D01*
X131065162Y-86213201D01*
X131065052Y-86340000D01*
X129300000Y-86340000D01*
X129009161Y-86397852D01*
X128762599Y-86562599D01*
X125779867Y-89545331D01*
X125586799Y-89465162D01*
X125214833Y-89464838D01*
X124871057Y-89606883D01*
X124607808Y-89869673D01*
X124465162Y-90213201D01*
X124464838Y-90585167D01*
X124606883Y-90928943D01*
X124869673Y-91192192D01*
X125213201Y-91334838D01*
X125585167Y-91335162D01*
X125928943Y-91193117D01*
X125962118Y-91160000D01*
X126000000Y-91160000D01*
X126290839Y-91102148D01*
X126537401Y-90937401D01*
X126968951Y-90505851D01*
X126872462Y-90738221D01*
X126872138Y-91110187D01*
X127014183Y-91453963D01*
X127047300Y-91487138D01*
X127047300Y-92277452D01*
X119833449Y-99491303D01*
X119787962Y-99491263D01*
X119444186Y-99633308D01*
X119180937Y-99896098D01*
X119160000Y-99946520D01*
X119160000Y-98060000D01*
X120137537Y-98060000D01*
X120169673Y-98092192D01*
X120513201Y-98234838D01*
X120885167Y-98235162D01*
X121228943Y-98093117D01*
X121492192Y-97830327D01*
X121634838Y-97486799D01*
X121635162Y-97114833D01*
X121493117Y-96771057D01*
X121230327Y-96507808D01*
X120886799Y-96365162D01*
X120514833Y-96364838D01*
X120171057Y-96506883D01*
X120137882Y-96540000D01*
X118700000Y-96540000D01*
X118409161Y-96597852D01*
X118162599Y-96762599D01*
X117862599Y-97062599D01*
X117697852Y-97309161D01*
X117640000Y-97600000D01*
X112110000Y-97600000D01*
X112110000Y-94647536D01*
X113790527Y-94647536D01*
X114152866Y-95524463D01*
X114823208Y-96195976D01*
X115699501Y-96559845D01*
X116648336Y-96560673D01*
X117525263Y-96198334D01*
X118196776Y-95527992D01*
X118560645Y-94651699D01*
X118561473Y-93702864D01*
X118199134Y-92825937D01*
X117528792Y-92154424D01*
X116652499Y-91790555D01*
X115703664Y-91789727D01*
X114826737Y-92152066D01*
X114155224Y-92822408D01*
X113791355Y-93698701D01*
X113790527Y-94647536D01*
X112110000Y-94647536D01*
X112110000Y-90371930D01*
X118101475Y-90371930D01*
X118169535Y-90612931D01*
X118688834Y-90797767D01*
X119239338Y-90769805D01*
X119618065Y-90612931D01*
X119686125Y-90371930D01*
X118893800Y-89579605D01*
X118101475Y-90371930D01*
X112110000Y-90371930D01*
X112110000Y-89195034D01*
X117496033Y-89195034D01*
X117523995Y-89745538D01*
X117680869Y-90124265D01*
X117921870Y-90192325D01*
X118714195Y-89400000D01*
X117921870Y-88607675D01*
X117680869Y-88675735D01*
X117496033Y-89195034D01*
X112110000Y-89195034D01*
X112110000Y-87185198D01*
X117507990Y-87185198D01*
X117718486Y-87694637D01*
X118107913Y-88084744D01*
X118262051Y-88148748D01*
X118169535Y-88187069D01*
X118101475Y-88428070D01*
X118893800Y-89220395D01*
X119686125Y-88428070D01*
X119618065Y-88187069D01*
X119518809Y-88151740D01*
X119677637Y-88086114D01*
X119897141Y-87866993D01*
X120114513Y-88084744D01*
X120284460Y-88155312D01*
X120116563Y-88224686D01*
X119726456Y-88614113D01*
X119632130Y-88841275D01*
X119073405Y-89400000D01*
X119632030Y-89958625D01*
X119725086Y-90183837D01*
X120114513Y-90573944D01*
X120623584Y-90785329D01*
X121174798Y-90785810D01*
X121684237Y-90575314D01*
X122074344Y-90185887D01*
X122285729Y-89676816D01*
X122286210Y-89125602D01*
X122075714Y-88616163D01*
X121686287Y-88226056D01*
X121516340Y-88155488D01*
X121684237Y-88086114D01*
X122074344Y-87696687D01*
X122285729Y-87187616D01*
X122286210Y-86636402D01*
X122075714Y-86126963D01*
X121686287Y-85736856D01*
X121177216Y-85525471D01*
X120626002Y-85524990D01*
X120116563Y-85735486D01*
X119897059Y-85954607D01*
X119679687Y-85736856D01*
X119170616Y-85525471D01*
X118619402Y-85524990D01*
X118109963Y-85735486D01*
X117719856Y-86124913D01*
X117508471Y-86633984D01*
X117507990Y-87185198D01*
X112110000Y-87185198D01*
X112110000Y-83830171D01*
X114661034Y-83830171D01*
X114851328Y-84174919D01*
X115732576Y-84526615D01*
X116681332Y-84514301D01*
X117500672Y-84174919D01*
X117690966Y-83830171D01*
X116176000Y-82315205D01*
X114661034Y-83830171D01*
X112110000Y-83830171D01*
X112110000Y-81692176D01*
X113784985Y-81692176D01*
X113797299Y-82640932D01*
X114136681Y-83460272D01*
X114481429Y-83650566D01*
X115996395Y-82135600D01*
X116355605Y-82135600D01*
X117870571Y-83650566D01*
X118215319Y-83460272D01*
X118567015Y-82579024D01*
X118554701Y-81630268D01*
X118215319Y-80810928D01*
X117870571Y-80620634D01*
X116355605Y-82135600D01*
X115996395Y-82135600D01*
X115996395Y-82135600D01*
X114481429Y-80620634D01*
X114136681Y-80810928D01*
X113784985Y-81692176D01*
X112110000Y-81692176D01*
X112110000Y-80441029D01*
X114661034Y-80441029D01*
X116176000Y-81955995D01*
X117690966Y-80441029D01*
X117500672Y-80096281D01*
X116619424Y-79744585D01*
X115670668Y-79756899D01*
X114851328Y-80096281D01*
X114661034Y-80441029D01*
X112110000Y-80441029D01*
X112110000Y-74910000D01*
X183690000Y-74910000D01*
X183690000Y-78851597D01*
X183690000Y-78851597D01*
G37*
X183690000Y-78851597D02*
X183629092Y-78545391D01*
X183326260Y-78092172D01*
X182873041Y-77789340D01*
X182338432Y-77683000D01*
X181799408Y-77683000D01*
X181264799Y-77789340D01*
X180811580Y-78092172D01*
X180674112Y-78297907D01*
X180631033Y-78075877D01*
X180491243Y-77863073D01*
X180280210Y-77720623D01*
X180030570Y-77670560D01*
X178031590Y-77670560D01*
X177789467Y-77717537D01*
X177576663Y-77857327D01*
X177434213Y-78068360D01*
X177384150Y-78318000D01*
X177384150Y-79841048D01*
X172162598Y-85062600D01*
X171997851Y-85309162D01*
X171939999Y-85600001D01*
X171939999Y-85678397D01*
X171871057Y-85706883D01*
X171607808Y-85969673D01*
X171465162Y-86313201D01*
X171464838Y-86685167D01*
X171606883Y-87028943D01*
X171727710Y-87149981D01*
X171607808Y-87269673D01*
X171465162Y-87613201D01*
X171464838Y-87985167D01*
X171606883Y-88328943D01*
X171677797Y-88399981D01*
X171507808Y-88569673D01*
X171365162Y-88913201D01*
X171364838Y-89285167D01*
X171506883Y-89628943D01*
X171769673Y-89892192D01*
X172113201Y-90034838D01*
X172485167Y-90035162D01*
X172828943Y-89893117D01*
X173092192Y-89630327D01*
X173234838Y-89286799D01*
X173234879Y-89239923D01*
X176314802Y-86160000D01*
X177474510Y-86160000D01*
X177470908Y-86165391D01*
X177364568Y-86700000D01*
X177470908Y-87234609D01*
X177773740Y-87687828D01*
X178196039Y-87970000D01*
X177773740Y-88252172D01*
X177470908Y-88705391D01*
X177364568Y-89240000D01*
X177470908Y-89774609D01*
X177773740Y-90227828D01*
X178196039Y-90510000D01*
X177773740Y-90792172D01*
X177470908Y-91245391D01*
X177364568Y-91780000D01*
X177416285Y-92040000D01*
X176800000Y-92040000D01*
X176509161Y-92097852D01*
X176262599Y-92262599D01*
X174662599Y-93862599D01*
X174497852Y-94109161D01*
X174440000Y-94400000D01*
X174440000Y-98385198D01*
X172160320Y-100664878D01*
X172114833Y-100664838D01*
X171771057Y-100806883D01*
X171507808Y-101069673D01*
X171365162Y-101413201D01*
X171364838Y-101785167D01*
X171506883Y-102128943D01*
X171769673Y-102392192D01*
X172113201Y-102534838D01*
X172485167Y-102535162D01*
X172828943Y-102393117D01*
X173092192Y-102130327D01*
X173234838Y-101786799D01*
X173234879Y-101739923D01*
X175737401Y-99237401D01*
X175902148Y-98990840D01*
X175960000Y-98700000D01*
X175960000Y-94714802D01*
X177114802Y-93560000D01*
X177621510Y-93560000D01*
X177470908Y-93785391D01*
X177364568Y-94320000D01*
X177470908Y-94854609D01*
X177773740Y-95307828D01*
X178196039Y-95590000D01*
X177773740Y-95872172D01*
X177470908Y-96325391D01*
X177364568Y-96860000D01*
X177470908Y-97394609D01*
X177773740Y-97847828D01*
X178196039Y-98130000D01*
X177773740Y-98412172D01*
X177470908Y-98865391D01*
X177364568Y-99400000D01*
X177470908Y-99934609D01*
X177773740Y-100387828D01*
X178196039Y-100670000D01*
X177773740Y-100952172D01*
X177470908Y-101405391D01*
X177364568Y-101940000D01*
X177470908Y-102474609D01*
X177773740Y-102927828D01*
X178196039Y-103210000D01*
X177773740Y-103492172D01*
X177470908Y-103945391D01*
X177364568Y-104480000D01*
X177470908Y-105014609D01*
X177773740Y-105467828D01*
X178201688Y-105753774D01*
X178155253Y-105766865D01*
X177724290Y-106106535D01*
X177456118Y-106585272D01*
X177439370Y-106676930D01*
X177561870Y-106893000D01*
X178904080Y-106893000D01*
X178904080Y-106873000D01*
X179158080Y-106873000D01*
X179158080Y-106893000D01*
X180500290Y-106893000D01*
X180550000Y-106805320D01*
X180599710Y-106893000D01*
X181941920Y-106893000D01*
X181941920Y-105776746D01*
X181904745Y-105750000D01*
X181941920Y-105723254D01*
X181941920Y-104607000D01*
X181921920Y-104607000D01*
X181921920Y-104353000D01*
X181941920Y-104353000D01*
X181941920Y-103236746D01*
X181904745Y-103210000D01*
X181941920Y-103183254D01*
X181941920Y-102067000D01*
X181921920Y-102067000D01*
X181921920Y-101813000D01*
X181941920Y-101813000D01*
X181941920Y-100696746D01*
X181904745Y-100670000D01*
X181941920Y-100643254D01*
X181941920Y-99527000D01*
X181921920Y-99527000D01*
X181921920Y-99273000D01*
X181941920Y-99273000D01*
X181941920Y-98156746D01*
X181904745Y-98130000D01*
X181941920Y-98103254D01*
X181941920Y-96987000D01*
X181921920Y-96987000D01*
X181921920Y-96733000D01*
X181941920Y-96733000D01*
X181941920Y-95616746D01*
X181904745Y-95590000D01*
X181941920Y-95563254D01*
X181941920Y-94447000D01*
X181921920Y-94447000D01*
X181921920Y-94193000D01*
X181941920Y-94193000D01*
X181941920Y-93076746D01*
X181904745Y-93050000D01*
X181941920Y-93023254D01*
X181941920Y-91907000D01*
X181921920Y-91907000D01*
X181921920Y-91653000D01*
X181941920Y-91653000D01*
X181941920Y-91633000D01*
X182195920Y-91633000D01*
X182195920Y-91653000D01*
X182215920Y-91653000D01*
X182215920Y-91907000D01*
X182195920Y-91907000D01*
X182195920Y-93023254D01*
X182233095Y-93050000D01*
X182195920Y-93076746D01*
X182195920Y-94193000D01*
X182215920Y-94193000D01*
X182215920Y-94447000D01*
X182195920Y-94447000D01*
X182195920Y-95563254D01*
X182233095Y-95590000D01*
X182195920Y-95616746D01*
X182195920Y-96733000D01*
X182215920Y-96733000D01*
X182215920Y-96987000D01*
X182195920Y-96987000D01*
X182195920Y-98103254D01*
X182233095Y-98130000D01*
X182195920Y-98156746D01*
X182195920Y-99273000D01*
X182215920Y-99273000D01*
X182215920Y-99527000D01*
X182195920Y-99527000D01*
X182195920Y-100643254D01*
X182233095Y-100670000D01*
X182195920Y-100696746D01*
X182195920Y-101813000D01*
X182215920Y-101813000D01*
X182215920Y-102067000D01*
X182195920Y-102067000D01*
X182195920Y-103183254D01*
X182233095Y-103210000D01*
X182195920Y-103236746D01*
X182195920Y-104353000D01*
X182215920Y-104353000D01*
X182215920Y-104607000D01*
X182195920Y-104607000D01*
X182195920Y-105723254D01*
X182233095Y-105750000D01*
X182195920Y-105776746D01*
X182195920Y-106893000D01*
X182215920Y-106893000D01*
X182215920Y-107147000D01*
X182195920Y-107147000D01*
X182195920Y-108263254D01*
X182416602Y-108422027D01*
X182944747Y-108273135D01*
X183375710Y-107933465D01*
X183643882Y-107454728D01*
X183660630Y-107363070D01*
X183538131Y-107147002D01*
X183690000Y-107147002D01*
X183690000Y-114490000D01*
X112110000Y-114490000D01*
X112110000Y-97600000D01*
X117640000Y-97600000D01*
X117640000Y-100500000D01*
X117697852Y-100790839D01*
X117862599Y-101037401D01*
X121162599Y-104337401D01*
X121409161Y-104502148D01*
X121700000Y-104560000D01*
X124737537Y-104560000D01*
X124769673Y-104592192D01*
X125113201Y-104734838D01*
X125485167Y-104735162D01*
X125828943Y-104593117D01*
X126092192Y-104330327D01*
X126234838Y-103986799D01*
X126235162Y-103614833D01*
X126093117Y-103271057D01*
X125830327Y-103007808D01*
X125486799Y-102865162D01*
X125114833Y-102864838D01*
X124771057Y-103006883D01*
X124737882Y-103040000D01*
X122014802Y-103040000D01*
X121084871Y-102110069D01*
X121191067Y-102110162D01*
X121534843Y-101968117D01*
X121568018Y-101935000D01*
X126448400Y-101935000D01*
X126739239Y-101877148D01*
X126985801Y-101712401D01*
X130047180Y-98651022D01*
X130092667Y-98651062D01*
X130436443Y-98509017D01*
X130699692Y-98246227D01*
X130842338Y-97902699D01*
X130842662Y-97530733D01*
X130700617Y-97186957D01*
X130437827Y-96923708D01*
X130094299Y-96781062D01*
X129722333Y-96780738D01*
X129378557Y-96922783D01*
X129115308Y-97185573D01*
X128972662Y-97529101D01*
X128972621Y-97575977D01*
X126133598Y-100415000D01*
X121568363Y-100415000D01*
X121536227Y-100382808D01*
X121222019Y-100252337D01*
X128344701Y-93129655D01*
X128509448Y-92883094D01*
X128567300Y-92592254D01*
X128567300Y-91487483D01*
X128599492Y-91455347D01*
X128742138Y-91111819D01*
X128742462Y-90739853D01*
X128600417Y-90396077D01*
X128337627Y-90132828D01*
X127994099Y-89990182D01*
X127622133Y-89989858D01*
X127388345Y-90086457D01*
X129614802Y-87860000D01*
X134765121Y-87860000D01*
X134765099Y-87885388D01*
X134471057Y-88006883D01*
X134207808Y-88269673D01*
X134065162Y-88613201D01*
X134064838Y-88985167D01*
X134206883Y-89328943D01*
X134240000Y-89362118D01*
X134240000Y-102579430D01*
X134297852Y-102870269D01*
X134462599Y-103116831D01*
X141175449Y-109829681D01*
X141060623Y-109999790D01*
X141010560Y-110249430D01*
X141010560Y-112248410D01*
X141057537Y-112490533D01*
X141197327Y-112703337D01*
X141408360Y-112845787D01*
X141658000Y-112895850D01*
X143182000Y-112895850D01*
X143424123Y-112848873D01*
X143636927Y-112709083D01*
X143779377Y-112498050D01*
X143822617Y-112282435D01*
X143972172Y-112506260D01*
X144425391Y-112809092D01*
X144960000Y-112915432D01*
X145494609Y-112809092D01*
X145947828Y-112506260D01*
X146230000Y-112083961D01*
X146512172Y-112506260D01*
X146965391Y-112809092D01*
X147500000Y-112915432D01*
X148034609Y-112809092D01*
X148487828Y-112506260D01*
X148790660Y-112053041D01*
X148897000Y-111518432D01*
X148897000Y-110979408D01*
X148790660Y-110444799D01*
X148487828Y-109991580D01*
X148068267Y-109711238D01*
X148413465Y-109517870D01*
X148753135Y-109086907D01*
X148902027Y-108558762D01*
X148743254Y-108338080D01*
X147627000Y-108338080D01*
X147627000Y-108358080D01*
X147373000Y-108358080D01*
X147373000Y-108338080D01*
X147353000Y-108338080D01*
X147353000Y-108084080D01*
X147373000Y-108084080D01*
X147373000Y-106741870D01*
X147627000Y-106741870D01*
X147627000Y-108084080D01*
X148743254Y-108084080D01*
X148902027Y-107863398D01*
X148760978Y-107363070D01*
X177439370Y-107363070D01*
X177456118Y-107454728D01*
X177724290Y-107933465D01*
X178155253Y-108273135D01*
X178683398Y-108422027D01*
X178904080Y-108263254D01*
X178904080Y-107147000D01*
X179158080Y-107147000D01*
X179158080Y-108263254D01*
X179378762Y-108422027D01*
X179906907Y-108273135D01*
X180337870Y-107933465D01*
X180550000Y-107554773D01*
X180762130Y-107933465D01*
X181193093Y-108273135D01*
X181721238Y-108422027D01*
X181941920Y-108263254D01*
X181941920Y-107147000D01*
X180599710Y-107147000D01*
X180550000Y-107234680D01*
X180500290Y-107147000D01*
X179158080Y-107147000D01*
X178904080Y-107147000D01*
X178904080Y-107147000D01*
X177561870Y-107147000D01*
X177439370Y-107363070D01*
X148760978Y-107363070D01*
X148753135Y-107335253D01*
X148413465Y-106904290D01*
X147934728Y-106636118D01*
X147843070Y-106619370D01*
X147627000Y-106741870D01*
X147373000Y-106741870D01*
X147373000Y-106741870D01*
X147156930Y-106619370D01*
X147065272Y-106636118D01*
X146586535Y-106904290D01*
X146246865Y-107335253D01*
X146233774Y-107381688D01*
X145947828Y-106953740D01*
X145683277Y-106776972D01*
X145662148Y-106670751D01*
X145497401Y-106424189D01*
X144435811Y-105362599D01*
X144189249Y-105197852D01*
X143898410Y-105140000D01*
X140014802Y-105140000D01*
X139909969Y-105035167D01*
X150614838Y-105035167D01*
X150756883Y-105378943D01*
X151019673Y-105642192D01*
X151363201Y-105784838D01*
X151735167Y-105785162D01*
X152078943Y-105643117D01*
X152342192Y-105380327D01*
X152484838Y-105036799D01*
X152484879Y-104989923D01*
X165089802Y-92385000D01*
X167412537Y-92385000D01*
X167444673Y-92417192D01*
X167788201Y-92559838D01*
X168160167Y-92560162D01*
X168503943Y-92418117D01*
X168767192Y-92155327D01*
X168909838Y-91811799D01*
X168910162Y-91439833D01*
X168768117Y-91096057D01*
X168505327Y-90832808D01*
X168161799Y-90690162D01*
X167789833Y-90689838D01*
X167446057Y-90831883D01*
X167412882Y-90865000D01*
X164775000Y-90865000D01*
X164484160Y-90922852D01*
X164237599Y-91087599D01*
X160623646Y-94701552D01*
X160380327Y-94457808D01*
X160036799Y-94315162D01*
X159664833Y-94314838D01*
X159321057Y-94456883D01*
X159057808Y-94719673D01*
X158915162Y-95063201D01*
X158915121Y-95110077D01*
X154818080Y-99207118D01*
X154535699Y-99089862D01*
X154163733Y-99089538D01*
X153819957Y-99231583D01*
X153556708Y-99494373D01*
X153414062Y-99837901D01*
X153413738Y-100209867D01*
X153555783Y-100553643D01*
X153818573Y-100816892D01*
X154162101Y-100959538D01*
X154365483Y-100959715D01*
X151410320Y-103914878D01*
X151364833Y-103914838D01*
X151021057Y-104056883D01*
X150757808Y-104319673D01*
X150615162Y-104663201D01*
X150614838Y-105035167D01*
X139909969Y-105035167D01*
X136460000Y-101585198D01*
X136460000Y-89400546D01*
X136497852Y-89590839D01*
X136662599Y-89837401D01*
X146064878Y-99239680D01*
X146064838Y-99285167D01*
X146206883Y-99628943D01*
X146469673Y-99892192D01*
X146813201Y-100034838D01*
X147185167Y-100035162D01*
X147528943Y-99893117D01*
X147792192Y-99630327D01*
X147934838Y-99286799D01*
X147935162Y-98914833D01*
X147927044Y-98895187D01*
X148092192Y-98730327D01*
X148234838Y-98386799D01*
X148235162Y-98014833D01*
X148093117Y-97671057D01*
X147830327Y-97407808D01*
X147486799Y-97265162D01*
X147439923Y-97265121D01*
X139459969Y-89285167D01*
X145964838Y-89285167D01*
X146106883Y-89628943D01*
X146369673Y-89892192D01*
X146713201Y-90034838D01*
X146868055Y-90034973D01*
X146906883Y-90128943D01*
X147169673Y-90392192D01*
X147513201Y-90534838D01*
X147885167Y-90535162D01*
X148228943Y-90393117D01*
X148492192Y-90130327D01*
X148634838Y-89786799D01*
X148634883Y-89735118D01*
X148685167Y-89735162D01*
X149028943Y-89593117D01*
X149292192Y-89330327D01*
X149434838Y-88986799D01*
X149434901Y-88914612D01*
X149728943Y-88793117D01*
X149992192Y-88530327D01*
X150134838Y-88186799D01*
X150134883Y-88135118D01*
X150185167Y-88135162D01*
X150528943Y-87993117D01*
X150792192Y-87730327D01*
X150934838Y-87386799D01*
X150935162Y-87014833D01*
X150793117Y-86671057D01*
X150760000Y-86637882D01*
X150760000Y-86614802D01*
X155277401Y-82097401D01*
X155442148Y-81850840D01*
X155500000Y-81560000D01*
X155500000Y-81278490D01*
X155727828Y-81126260D01*
X156030660Y-80673041D01*
X156137000Y-80138432D01*
X156137000Y-79599408D01*
X156030660Y-79064799D01*
X155727828Y-78611580D01*
X155308267Y-78331238D01*
X155653465Y-78137870D01*
X155993135Y-77706907D01*
X156142027Y-77178762D01*
X155983254Y-76958080D01*
X154867000Y-76958080D01*
X154867000Y-76978080D01*
X154613000Y-76978080D01*
X154613000Y-76958080D01*
X154593000Y-76958080D01*
X154593000Y-76704080D01*
X154613000Y-76704080D01*
X154613000Y-75361870D01*
X154867000Y-75361870D01*
X154867000Y-76704080D01*
X155983254Y-76704080D01*
X156142027Y-76483398D01*
X155993135Y-75955253D01*
X155653465Y-75524290D01*
X155174728Y-75256118D01*
X155083070Y-75239370D01*
X154867000Y-75361870D01*
X154613000Y-75361870D01*
X154613000Y-75361870D01*
X154396930Y-75239370D01*
X154305272Y-75256118D01*
X153826535Y-75524290D01*
X153486865Y-75955253D01*
X153473774Y-76001688D01*
X153187828Y-75573740D01*
X152734609Y-75270908D01*
X152200000Y-75164568D01*
X151665391Y-75270908D01*
X151212172Y-75573740D01*
X150930000Y-75996039D01*
X150647828Y-75573740D01*
X150194609Y-75270908D01*
X149660000Y-75164568D01*
X149125391Y-75270908D01*
X148672172Y-75573740D01*
X148369340Y-76026959D01*
X148263000Y-76561568D01*
X148263000Y-77100592D01*
X148369340Y-77635201D01*
X148672172Y-78088420D01*
X148877907Y-78225888D01*
X148655877Y-78268967D01*
X148443073Y-78408757D01*
X148300623Y-78619790D01*
X148250560Y-78869430D01*
X148250560Y-80868410D01*
X148297537Y-81110533D01*
X148437327Y-81323337D01*
X148648360Y-81465787D01*
X148898000Y-81515850D01*
X148900000Y-81515850D01*
X148900000Y-81525198D01*
X146362599Y-84062599D01*
X146197852Y-84309161D01*
X146140000Y-84600000D01*
X146140000Y-88537537D01*
X146107808Y-88569673D01*
X145965162Y-88913201D01*
X145964838Y-89285167D01*
X139459969Y-89285167D01*
X138660000Y-88485198D01*
X138660000Y-87400000D01*
X138602148Y-87109161D01*
X138437401Y-86862599D01*
X137437401Y-85862599D01*
X137190839Y-85697852D01*
X136900000Y-85640000D01*
X132562463Y-85640000D01*
X132530327Y-85607808D01*
X132186799Y-85465162D01*
X131814833Y-85464838D01*
X131471057Y-85606883D01*
X131207808Y-85869673D01*
X131065162Y-86213201D01*
X131065052Y-86340000D01*
X129300000Y-86340000D01*
X129009161Y-86397852D01*
X128762599Y-86562599D01*
X125779867Y-89545331D01*
X125586799Y-89465162D01*
X125214833Y-89464838D01*
X124871057Y-89606883D01*
X124607808Y-89869673D01*
X124465162Y-90213201D01*
X124464838Y-90585167D01*
X124606883Y-90928943D01*
X124869673Y-91192192D01*
X125213201Y-91334838D01*
X125585167Y-91335162D01*
X125928943Y-91193117D01*
X125962118Y-91160000D01*
X126000000Y-91160000D01*
X126290839Y-91102148D01*
X126537401Y-90937401D01*
X126968951Y-90505851D01*
X126872462Y-90738221D01*
X126872138Y-91110187D01*
X127014183Y-91453963D01*
X127047300Y-91487138D01*
X127047300Y-92277452D01*
X119833449Y-99491303D01*
X119787962Y-99491263D01*
X119444186Y-99633308D01*
X119180937Y-99896098D01*
X119160000Y-99946520D01*
X119160000Y-98060000D01*
X120137537Y-98060000D01*
X120169673Y-98092192D01*
X120513201Y-98234838D01*
X120885167Y-98235162D01*
X121228943Y-98093117D01*
X121492192Y-97830327D01*
X121634838Y-97486799D01*
X121635162Y-97114833D01*
X121493117Y-96771057D01*
X121230327Y-96507808D01*
X120886799Y-96365162D01*
X120514833Y-96364838D01*
X120171057Y-96506883D01*
X120137882Y-96540000D01*
X118700000Y-96540000D01*
X118409161Y-96597852D01*
X118162599Y-96762599D01*
X117862599Y-97062599D01*
X117697852Y-97309161D01*
X117640000Y-97600000D01*
X112110000Y-97600000D01*
X112110000Y-94647536D01*
X113790527Y-94647536D01*
X114152866Y-95524463D01*
X114823208Y-96195976D01*
X115699501Y-96559845D01*
X116648336Y-96560673D01*
X117525263Y-96198334D01*
X118196776Y-95527992D01*
X118560645Y-94651699D01*
X118561473Y-93702864D01*
X118199134Y-92825937D01*
X117528792Y-92154424D01*
X116652499Y-91790555D01*
X115703664Y-91789727D01*
X114826737Y-92152066D01*
X114155224Y-92822408D01*
X113791355Y-93698701D01*
X113790527Y-94647536D01*
X112110000Y-94647536D01*
X112110000Y-90371930D01*
X118101475Y-90371930D01*
X118169535Y-90612931D01*
X118688834Y-90797767D01*
X119239338Y-90769805D01*
X119618065Y-90612931D01*
X119686125Y-90371930D01*
X118893800Y-89579605D01*
X118101475Y-90371930D01*
X112110000Y-90371930D01*
X112110000Y-89195034D01*
X117496033Y-89195034D01*
X117523995Y-89745538D01*
X117680869Y-90124265D01*
X117921870Y-90192325D01*
X118714195Y-89400000D01*
X117921870Y-88607675D01*
X117680869Y-88675735D01*
X117496033Y-89195034D01*
X112110000Y-89195034D01*
X112110000Y-87185198D01*
X117507990Y-87185198D01*
X117718486Y-87694637D01*
X118107913Y-88084744D01*
X118262051Y-88148748D01*
X118169535Y-88187069D01*
X118101475Y-88428070D01*
X118893800Y-89220395D01*
X119686125Y-88428070D01*
X119618065Y-88187069D01*
X119518809Y-88151740D01*
X119677637Y-88086114D01*
X119897141Y-87866993D01*
X120114513Y-88084744D01*
X120284460Y-88155312D01*
X120116563Y-88224686D01*
X119726456Y-88614113D01*
X119632130Y-88841275D01*
X119073405Y-89400000D01*
X119632030Y-89958625D01*
X119725086Y-90183837D01*
X120114513Y-90573944D01*
X120623584Y-90785329D01*
X121174798Y-90785810D01*
X121684237Y-90575314D01*
X122074344Y-90185887D01*
X122285729Y-89676816D01*
X122286210Y-89125602D01*
X122075714Y-88616163D01*
X121686287Y-88226056D01*
X121516340Y-88155488D01*
X121684237Y-88086114D01*
X122074344Y-87696687D01*
X122285729Y-87187616D01*
X122286210Y-86636402D01*
X122075714Y-86126963D01*
X121686287Y-85736856D01*
X121177216Y-85525471D01*
X120626002Y-85524990D01*
X120116563Y-85735486D01*
X119897059Y-85954607D01*
X119679687Y-85736856D01*
X119170616Y-85525471D01*
X118619402Y-85524990D01*
X118109963Y-85735486D01*
X117719856Y-86124913D01*
X117508471Y-86633984D01*
X117507990Y-87185198D01*
X112110000Y-87185198D01*
X112110000Y-83830171D01*
X114661034Y-83830171D01*
X114851328Y-84174919D01*
X115732576Y-84526615D01*
X116681332Y-84514301D01*
X117500672Y-84174919D01*
X117690966Y-83830171D01*
X116176000Y-82315205D01*
X114661034Y-83830171D01*
X112110000Y-83830171D01*
X112110000Y-81692176D01*
X113784985Y-81692176D01*
X113797299Y-82640932D01*
X114136681Y-83460272D01*
X114481429Y-83650566D01*
X115996395Y-82135600D01*
X116355605Y-82135600D01*
X117870571Y-83650566D01*
X118215319Y-83460272D01*
X118567015Y-82579024D01*
X118554701Y-81630268D01*
X118215319Y-80810928D01*
X117870571Y-80620634D01*
X116355605Y-82135600D01*
X115996395Y-82135600D01*
X115996395Y-82135600D01*
X114481429Y-80620634D01*
X114136681Y-80810928D01*
X113784985Y-81692176D01*
X112110000Y-81692176D01*
X112110000Y-80441029D01*
X114661034Y-80441029D01*
X116176000Y-81955995D01*
X117690966Y-80441029D01*
X117500672Y-80096281D01*
X116619424Y-79744585D01*
X115670668Y-79756899D01*
X114851328Y-80096281D01*
X114661034Y-80441029D01*
X112110000Y-80441029D01*
X112110000Y-74910000D01*
X183690000Y-74910000D01*
X183690000Y-78851597D01*
M02*
