G04 #@! TF.FileFunction,Legend,Bot*
%FSLAX46Y46*%
G04 Gerber Fmt 4.6, Leading zero omitted, Abs format (unit mm)*
G04 Created by KiCad (PCBNEW 4.1.0-alpha+201606210816+6944~45~ubuntu16.04.1-product) date Sat Jun 25 00:11:40 2016*
%MOMM*%
%LPD*%
G01*
G04 APERTURE LIST*
%ADD10C,0.100000*%
%ADD11C,0.300000*%
G04 APERTURE END LIST*
D10*
D11*
X142064500Y-95523928D02*
X141993071Y-95452500D01*
X141850214Y-95381071D01*
X141493071Y-95381071D01*
X141350214Y-95452500D01*
X141278785Y-95523928D01*
X141207357Y-95666785D01*
X141207357Y-95809642D01*
X141278785Y-96023928D01*
X142135928Y-96881071D01*
X141207357Y-96881071D01*
X139921642Y-95881071D02*
X139921642Y-96881071D01*
X140278785Y-95309642D02*
X140635928Y-96381071D01*
X139707357Y-96381071D01*
X138064500Y-95309642D02*
X139350214Y-97238214D01*
X137278785Y-95381071D02*
X137135928Y-95381071D01*
X136993071Y-95452500D01*
X136921642Y-95523928D01*
X136850214Y-95666785D01*
X136778785Y-95952500D01*
X136778785Y-96309642D01*
X136850214Y-96595357D01*
X136921642Y-96738214D01*
X136993071Y-96809642D01*
X137135928Y-96881071D01*
X137278785Y-96881071D01*
X137421642Y-96809642D01*
X137493071Y-96738214D01*
X137564500Y-96595357D01*
X137635928Y-96309642D01*
X137635928Y-95952500D01*
X137564500Y-95666785D01*
X137493071Y-95523928D01*
X137421642Y-95452500D01*
X137278785Y-95381071D01*
X135493071Y-95381071D02*
X135778785Y-95381071D01*
X135921642Y-95452500D01*
X135993071Y-95523928D01*
X136135928Y-95738214D01*
X136207357Y-96023928D01*
X136207357Y-96595357D01*
X136135928Y-96738214D01*
X136064500Y-96809642D01*
X135921642Y-96881071D01*
X135635928Y-96881071D01*
X135493071Y-96809642D01*
X135421642Y-96738214D01*
X135350214Y-96595357D01*
X135350214Y-96238214D01*
X135421642Y-96095357D01*
X135493071Y-96023928D01*
X135635928Y-95952500D01*
X135921642Y-95952500D01*
X136064500Y-96023928D01*
X136135928Y-96095357D01*
X136207357Y-96238214D01*
X133635928Y-95309642D02*
X134921642Y-97238214D01*
X133207357Y-95523928D02*
X133135928Y-95452500D01*
X132993071Y-95381071D01*
X132635928Y-95381071D01*
X132493071Y-95452500D01*
X132421642Y-95523928D01*
X132350214Y-95666785D01*
X132350214Y-95809642D01*
X132421642Y-96023928D01*
X133278785Y-96881071D01*
X132350214Y-96881071D01*
X131421642Y-95381071D02*
X131278785Y-95381071D01*
X131135928Y-95452500D01*
X131064500Y-95523928D01*
X130993071Y-95666785D01*
X130921642Y-95952500D01*
X130921642Y-96309642D01*
X130993071Y-96595357D01*
X131064500Y-96738214D01*
X131135928Y-96809642D01*
X131278785Y-96881071D01*
X131421642Y-96881071D01*
X131564500Y-96809642D01*
X131635928Y-96738214D01*
X131707357Y-96595357D01*
X131778785Y-96309642D01*
X131778785Y-95952500D01*
X131707357Y-95666785D01*
X131635928Y-95523928D01*
X131564500Y-95452500D01*
X131421642Y-95381071D01*
X129493071Y-96881071D02*
X130350214Y-96881071D01*
X129921642Y-96881071D02*
X129921642Y-95381071D01*
X130064500Y-95595357D01*
X130207357Y-95738214D01*
X130350214Y-95809642D01*
X128207357Y-95381071D02*
X128493071Y-95381071D01*
X128635928Y-95452500D01*
X128707357Y-95523928D01*
X128850214Y-95738214D01*
X128921642Y-96023928D01*
X128921642Y-96595357D01*
X128850214Y-96738214D01*
X128778785Y-96809642D01*
X128635928Y-96881071D01*
X128350214Y-96881071D01*
X128207357Y-96809642D01*
X128135928Y-96738214D01*
X128064500Y-96595357D01*
X128064500Y-96238214D01*
X128135928Y-96095357D01*
X128207357Y-96023928D01*
X128350214Y-95952500D01*
X128635928Y-95952500D01*
X128778785Y-96023928D01*
X128850214Y-96095357D01*
X128921642Y-96238214D01*
X168462857Y-74402071D02*
X168462857Y-72902071D01*
X167820000Y-74402071D02*
X167820000Y-73616357D01*
X167891428Y-73473500D01*
X168034285Y-73402071D01*
X168248571Y-73402071D01*
X168391428Y-73473500D01*
X168462857Y-73544928D01*
X167320000Y-73402071D02*
X166748571Y-73402071D01*
X167105714Y-72902071D02*
X167105714Y-74187785D01*
X167034285Y-74330642D01*
X166891428Y-74402071D01*
X166748571Y-74402071D01*
X166462857Y-73402071D02*
X165891428Y-73402071D01*
X166248571Y-72902071D02*
X166248571Y-74187785D01*
X166177142Y-74330642D01*
X166034285Y-74402071D01*
X165891428Y-74402071D01*
X165391428Y-73402071D02*
X165391428Y-74902071D01*
X165391428Y-73473500D02*
X165248571Y-73402071D01*
X164962857Y-73402071D01*
X164820000Y-73473500D01*
X164748571Y-73544928D01*
X164677142Y-73687785D01*
X164677142Y-74116357D01*
X164748571Y-74259214D01*
X164820000Y-74330642D01*
X164962857Y-74402071D01*
X165248571Y-74402071D01*
X165391428Y-74330642D01*
X164105714Y-74330642D02*
X163962857Y-74402071D01*
X163677142Y-74402071D01*
X163534285Y-74330642D01*
X163462857Y-74187785D01*
X163462857Y-74116357D01*
X163534285Y-73973500D01*
X163677142Y-73902071D01*
X163891428Y-73902071D01*
X164034285Y-73830642D01*
X164105714Y-73687785D01*
X164105714Y-73616357D01*
X164034285Y-73473500D01*
X163891428Y-73402071D01*
X163677142Y-73402071D01*
X163534285Y-73473500D01*
X162820000Y-74259214D02*
X162748571Y-74330642D01*
X162820000Y-74402071D01*
X162891428Y-74330642D01*
X162820000Y-74259214D01*
X162820000Y-74402071D01*
X162820000Y-73473500D02*
X162748571Y-73544928D01*
X162820000Y-73616357D01*
X162891428Y-73544928D01*
X162820000Y-73473500D01*
X162820000Y-73616357D01*
X161034285Y-72830642D02*
X162320000Y-74759214D01*
X159462857Y-72830642D02*
X160748571Y-74759214D01*
X158320000Y-73402071D02*
X158320000Y-74616357D01*
X158391428Y-74759214D01*
X158462857Y-74830642D01*
X158605714Y-74902071D01*
X158820000Y-74902071D01*
X158962857Y-74830642D01*
X158320000Y-74330642D02*
X158462857Y-74402071D01*
X158748571Y-74402071D01*
X158891428Y-74330642D01*
X158962857Y-74259214D01*
X159034285Y-74116357D01*
X159034285Y-73687785D01*
X158962857Y-73544928D01*
X158891428Y-73473500D01*
X158748571Y-73402071D01*
X158462857Y-73402071D01*
X158320000Y-73473500D01*
X157605714Y-74402071D02*
X157605714Y-73402071D01*
X157605714Y-72902071D02*
X157677142Y-72973500D01*
X157605714Y-73044928D01*
X157534285Y-72973500D01*
X157605714Y-72902071D01*
X157605714Y-73044928D01*
X157105714Y-73402071D02*
X156534285Y-73402071D01*
X156891428Y-72902071D02*
X156891428Y-74187785D01*
X156820000Y-74330642D01*
X156677142Y-74402071D01*
X156534285Y-74402071D01*
X156034285Y-74402071D02*
X156034285Y-72902071D01*
X155391428Y-74402071D02*
X155391428Y-73616357D01*
X155462857Y-73473500D01*
X155605714Y-73402071D01*
X155820000Y-73402071D01*
X155962857Y-73473500D01*
X156034285Y-73544928D01*
X154034285Y-73402071D02*
X154034285Y-74402071D01*
X154677142Y-73402071D02*
X154677142Y-74187785D01*
X154605714Y-74330642D01*
X154462857Y-74402071D01*
X154248571Y-74402071D01*
X154105714Y-74330642D01*
X154034285Y-74259214D01*
X153320000Y-74402071D02*
X153320000Y-72902071D01*
X153320000Y-73473500D02*
X153177142Y-73402071D01*
X152891428Y-73402071D01*
X152748571Y-73473500D01*
X152677142Y-73544928D01*
X152605714Y-73687785D01*
X152605714Y-74116357D01*
X152677142Y-74259214D01*
X152748571Y-74330642D01*
X152891428Y-74402071D01*
X153177142Y-74402071D01*
X153320000Y-74330642D01*
X151962857Y-74259214D02*
X151891428Y-74330642D01*
X151962857Y-74402071D01*
X152034285Y-74330642D01*
X151962857Y-74259214D01*
X151962857Y-74402071D01*
X150605714Y-74330642D02*
X150748571Y-74402071D01*
X151034285Y-74402071D01*
X151177142Y-74330642D01*
X151248571Y-74259214D01*
X151320000Y-74116357D01*
X151320000Y-73687785D01*
X151248571Y-73544928D01*
X151177142Y-73473500D01*
X151034285Y-73402071D01*
X150748571Y-73402071D01*
X150605714Y-73473500D01*
X149748571Y-74402071D02*
X149891428Y-74330642D01*
X149962857Y-74259214D01*
X150034285Y-74116357D01*
X150034285Y-73687785D01*
X149962857Y-73544928D01*
X149891428Y-73473500D01*
X149748571Y-73402071D01*
X149534285Y-73402071D01*
X149391428Y-73473500D01*
X149320000Y-73544928D01*
X149248571Y-73687785D01*
X149248571Y-74116357D01*
X149320000Y-74259214D01*
X149391428Y-74330642D01*
X149534285Y-74402071D01*
X149748571Y-74402071D01*
X148605714Y-74402071D02*
X148605714Y-73402071D01*
X148605714Y-73544928D02*
X148534285Y-73473500D01*
X148391428Y-73402071D01*
X148177142Y-73402071D01*
X148034285Y-73473500D01*
X147962857Y-73616357D01*
X147962857Y-74402071D01*
X147962857Y-73616357D02*
X147891428Y-73473500D01*
X147748571Y-73402071D01*
X147534285Y-73402071D01*
X147391428Y-73473500D01*
X147320000Y-73616357D01*
X147320000Y-74402071D01*
X145534285Y-72830642D02*
X146820000Y-74759214D01*
X144391428Y-74402071D02*
X144391428Y-73616357D01*
X144462857Y-73473500D01*
X144605714Y-73402071D01*
X144891428Y-73402071D01*
X145034285Y-73473500D01*
X144391428Y-74330642D02*
X144534285Y-74402071D01*
X144891428Y-74402071D01*
X145034285Y-74330642D01*
X145105714Y-74187785D01*
X145105714Y-74044928D01*
X145034285Y-73902071D01*
X144891428Y-73830642D01*
X144534285Y-73830642D01*
X144391428Y-73759214D01*
X143748571Y-74330642D02*
X143605714Y-74402071D01*
X143320000Y-74402071D01*
X143177142Y-74330642D01*
X143105714Y-74187785D01*
X143105714Y-74116357D01*
X143177142Y-73973500D01*
X143320000Y-73902071D01*
X143534285Y-73902071D01*
X143677142Y-73830642D01*
X143748571Y-73687785D01*
X143748571Y-73616357D01*
X143677142Y-73473500D01*
X143534285Y-73402071D01*
X143320000Y-73402071D01*
X143177142Y-73473500D01*
X141820000Y-74402071D02*
X141820000Y-73616357D01*
X141891428Y-73473500D01*
X142034285Y-73402071D01*
X142320000Y-73402071D01*
X142462857Y-73473500D01*
X141820000Y-74330642D02*
X141962857Y-74402071D01*
X142320000Y-74402071D01*
X142462857Y-74330642D01*
X142534285Y-74187785D01*
X142534285Y-74044928D01*
X142462857Y-73902071D01*
X142320000Y-73830642D01*
X141962857Y-73830642D01*
X141820000Y-73759214D01*
X141105714Y-73402071D02*
X141105714Y-74402071D01*
X141105714Y-73544928D02*
X141034285Y-73473500D01*
X140891428Y-73402071D01*
X140677142Y-73402071D01*
X140534285Y-73473500D01*
X140462857Y-73616357D01*
X140462857Y-74402071D01*
X139891428Y-73402071D02*
X139105714Y-73402071D01*
X139891428Y-74402071D01*
X139105714Y-74402071D01*
X137891428Y-74402071D02*
X137891428Y-73616357D01*
X137962857Y-73473500D01*
X138105714Y-73402071D01*
X138391428Y-73402071D01*
X138534285Y-73473500D01*
X137891428Y-74330642D02*
X138034285Y-74402071D01*
X138391428Y-74402071D01*
X138534285Y-74330642D01*
X138605714Y-74187785D01*
X138605714Y-74044928D01*
X138534285Y-73902071D01*
X138391428Y-73830642D01*
X138034285Y-73830642D01*
X137891428Y-73759214D01*
X136105714Y-72830642D02*
X137391428Y-74759214D01*
X134962857Y-73402071D02*
X134962857Y-74616357D01*
X135034285Y-74759214D01*
X135105714Y-74830642D01*
X135248571Y-74902071D01*
X135462857Y-74902071D01*
X135605714Y-74830642D01*
X134962857Y-74330642D02*
X135105714Y-74402071D01*
X135391428Y-74402071D01*
X135534285Y-74330642D01*
X135605714Y-74259214D01*
X135677142Y-74116357D01*
X135677142Y-73687785D01*
X135605714Y-73544928D01*
X135534285Y-73473500D01*
X135391428Y-73402071D01*
X135105714Y-73402071D01*
X134962857Y-73473500D01*
X134248571Y-73402071D02*
X134248571Y-74902071D01*
X134248571Y-73473500D02*
X134105714Y-73402071D01*
X133820000Y-73402071D01*
X133677142Y-73473500D01*
X133605714Y-73544928D01*
X133534285Y-73687785D01*
X133534285Y-74116357D01*
X133605714Y-74259214D01*
X133677142Y-74330642D01*
X133820000Y-74402071D01*
X134105714Y-74402071D01*
X134248571Y-74330642D01*
X132891428Y-74402071D02*
X132891428Y-73402071D01*
X132891428Y-72902071D02*
X132962857Y-72973500D01*
X132891428Y-73044928D01*
X132820000Y-72973500D01*
X132891428Y-72902071D01*
X132891428Y-73044928D01*
X132177142Y-74402071D02*
X132177142Y-72902071D01*
X132177142Y-73473500D02*
X132034285Y-73402071D01*
X131748571Y-73402071D01*
X131605714Y-73473500D01*
X131534285Y-73544928D01*
X131462857Y-73687785D01*
X131462857Y-74116357D01*
X131534285Y-74259214D01*
X131605714Y-74330642D01*
X131748571Y-74402071D01*
X132034285Y-74402071D01*
X132177142Y-74330642D01*
X130891428Y-73044928D02*
X130820000Y-72973500D01*
X130677142Y-72902071D01*
X130320000Y-72902071D01*
X130177142Y-72973500D01*
X130105714Y-73044928D01*
X130034285Y-73187785D01*
X130034285Y-73330642D01*
X130105714Y-73544928D01*
X130962857Y-74402071D01*
X130034285Y-74402071D01*
X128748571Y-73402071D02*
X128748571Y-74402071D01*
X129391428Y-73402071D02*
X129391428Y-74187785D01*
X129320000Y-74330642D01*
X129177142Y-74402071D01*
X128962857Y-74402071D01*
X128820000Y-74330642D01*
X128748571Y-74259214D01*
X128105714Y-74330642D02*
X127962857Y-74402071D01*
X127677142Y-74402071D01*
X127534285Y-74330642D01*
X127462857Y-74187785D01*
X127462857Y-74116357D01*
X127534285Y-73973500D01*
X127677142Y-73902071D01*
X127891428Y-73902071D01*
X128034285Y-73830642D01*
X128105714Y-73687785D01*
X128105714Y-73616357D01*
X128034285Y-73473500D01*
X127891428Y-73402071D01*
X127677142Y-73402071D01*
X127534285Y-73473500D01*
X126820000Y-74402071D02*
X126820000Y-72902071D01*
X126820000Y-73473500D02*
X126677142Y-73402071D01*
X126391428Y-73402071D01*
X126248571Y-73473500D01*
X126177142Y-73544928D01*
X126105714Y-73687785D01*
X126105714Y-74116357D01*
X126177142Y-74259214D01*
X126248571Y-74330642D01*
X126391428Y-74402071D01*
X126677142Y-74402071D01*
X126820000Y-74330642D01*
X141413571Y-93039500D02*
X141556428Y-92968071D01*
X141770714Y-92968071D01*
X141985000Y-93039500D01*
X142127857Y-93182357D01*
X142199285Y-93325214D01*
X142270714Y-93610928D01*
X142270714Y-93825214D01*
X142199285Y-94110928D01*
X142127857Y-94253785D01*
X141985000Y-94396642D01*
X141770714Y-94468071D01*
X141627857Y-94468071D01*
X141413571Y-94396642D01*
X141342142Y-94325214D01*
X141342142Y-93825214D01*
X141627857Y-93825214D01*
X140699285Y-94468071D02*
X140699285Y-92968071D01*
X140127857Y-92968071D01*
X139985000Y-93039500D01*
X139913571Y-93110928D01*
X139842142Y-93253785D01*
X139842142Y-93468071D01*
X139913571Y-93610928D01*
X139985000Y-93682357D01*
X140127857Y-93753785D01*
X140699285Y-93753785D01*
X139199285Y-94468071D02*
X139199285Y-92968071D01*
X137985000Y-93682357D02*
X137770714Y-93753785D01*
X137699285Y-93825214D01*
X137627857Y-93968071D01*
X137627857Y-94182357D01*
X137699285Y-94325214D01*
X137770714Y-94396642D01*
X137913571Y-94468071D01*
X138485000Y-94468071D01*
X138485000Y-92968071D01*
X137985000Y-92968071D01*
X137842142Y-93039500D01*
X137770714Y-93110928D01*
X137699285Y-93253785D01*
X137699285Y-93396642D01*
X137770714Y-93539500D01*
X137842142Y-93610928D01*
X137985000Y-93682357D01*
X138485000Y-93682357D01*
X137056428Y-93110928D02*
X136985000Y-93039500D01*
X136842142Y-92968071D01*
X136485000Y-92968071D01*
X136342142Y-93039500D01*
X136270714Y-93110928D01*
X136199285Y-93253785D01*
X136199285Y-93396642D01*
X136270714Y-93610928D01*
X137127857Y-94468071D01*
X136199285Y-94468071D01*
X135556428Y-92968071D02*
X135556428Y-94182357D01*
X135485000Y-94325214D01*
X135413571Y-94396642D01*
X135270714Y-94468071D01*
X134985000Y-94468071D01*
X134842142Y-94396642D01*
X134770714Y-94325214D01*
X134699285Y-94182357D01*
X134699285Y-92968071D01*
X134056428Y-94396642D02*
X133842142Y-94468071D01*
X133485000Y-94468071D01*
X133342142Y-94396642D01*
X133270714Y-94325214D01*
X133199285Y-94182357D01*
X133199285Y-94039500D01*
X133270714Y-93896642D01*
X133342142Y-93825214D01*
X133485000Y-93753785D01*
X133770714Y-93682357D01*
X133913571Y-93610928D01*
X133985000Y-93539500D01*
X134056428Y-93396642D01*
X134056428Y-93253785D01*
X133985000Y-93110928D01*
X133913571Y-93039500D01*
X133770714Y-92968071D01*
X133413571Y-92968071D01*
X133199285Y-93039500D01*
X132056428Y-93682357D02*
X131842142Y-93753785D01*
X131770714Y-93825214D01*
X131699285Y-93968071D01*
X131699285Y-94182357D01*
X131770714Y-94325214D01*
X131842142Y-94396642D01*
X131985000Y-94468071D01*
X132556428Y-94468071D01*
X132556428Y-92968071D01*
X132056428Y-92968071D01*
X131913571Y-93039500D01*
X131842142Y-93110928D01*
X131770714Y-93253785D01*
X131770714Y-93396642D01*
X131842142Y-93539500D01*
X131913571Y-93610928D01*
X132056428Y-93682357D01*
X132556428Y-93682357D01*
X130127857Y-92968071D02*
X129627857Y-94468071D01*
X129127857Y-92968071D01*
X128699285Y-93110928D02*
X128627857Y-93039500D01*
X128485000Y-92968071D01*
X128127857Y-92968071D01*
X127985000Y-93039500D01*
X127913571Y-93110928D01*
X127842142Y-93253785D01*
X127842142Y-93396642D01*
X127913571Y-93610928D01*
X128770714Y-94468071D01*
X127842142Y-94468071D01*
X127199285Y-94325214D02*
X127127857Y-94396642D01*
X127199285Y-94468071D01*
X127270714Y-94396642D01*
X127199285Y-94325214D01*
X127199285Y-94468071D01*
X126199285Y-92968071D02*
X126056428Y-92968071D01*
X125913571Y-93039500D01*
X125842142Y-93110928D01*
X125770714Y-93253785D01*
X125699285Y-93539500D01*
X125699285Y-93896642D01*
X125770714Y-94182357D01*
X125842142Y-94325214D01*
X125913571Y-94396642D01*
X126056428Y-94468071D01*
X126199285Y-94468071D01*
X126342142Y-94396642D01*
X126413571Y-94325214D01*
X126485000Y-94182357D01*
X126556428Y-93896642D01*
X126556428Y-93539500D01*
X126485000Y-93253785D01*
X126413571Y-93110928D01*
X126342142Y-93039500D01*
X126199285Y-92968071D01*
M02*
