M48
;DRILL file {KiCad no-vcs-found-product} date Mo 14 Sep 2015 21:18:50 CEST
;FORMAT={-:-/ absolute / inch / decimal}
FMAT,2
INCH,TZ
T1C0.016
T2C0.037
T3C0.039
T4C0.091
T5C0.138
%
G90
G05
M72
T1
X4.6614Y-3.876
X4.6634Y-4.2205
X4.7133Y-3.9429
X4.7468Y-3.8387
X4.764Y-3.9833
X4.7835Y-3.0453
X4.8681Y-4.0189
X4.8957Y-3.8071
X4.9961Y-4.1122
X5.Y-3.1673
X5.0318Y-3.573
X5.0413Y-4.1713
X5.0895Y-4.2558
X5.0974Y-3.1048
X5.1145Y-3.8471
X5.1201Y-3.8858
X5.1791Y-4.2568
X5.191Y-3.5079
X5.1973Y-3.7613
X5.223Y-3.6764
X5.2461Y-3.3366
X5.2717Y-3.7756
X5.2776Y-4.0591
X5.2787Y-3.5591
X5.2818Y-3.1057
X5.3246Y-3.4961
X5.3465Y-4.2633
X5.35Y-3.8425
X5.3957Y-4.3708
X5.4429Y-4.252
X5.45Y-3.7165
X5.45Y-3.9051
X5.4746Y-3.874
X5.4819Y-3.9305
X5.4902Y-3.2913
X5.5425Y-3.915
X5.5689Y-4.0465
X5.6319Y-3.9213
X5.6734Y-3.2196
X5.7961Y-3.9286
X5.8993Y-3.885
X5.9665Y-4.128
X6.0453Y-4.1516
X6.0767Y-3.938
X6.2402Y-4.3071
X6.2874Y-4.2008
X6.2933Y-3.75
X6.3445Y-3.6476
X6.563Y-4.1447
X6.6004Y-4.0512
X6.6024Y-4.311
X6.6083Y-3.0276
X6.6132Y-3.6073
X6.6201Y-4.
X6.6457Y-3.9488
X6.7894Y-3.8996
X6.7972Y-4.0984
X6.7992Y-3.8484
X6.8199Y-3.4124
X7.1693Y-3.0177
T2
X4.6809Y-3.4217
X4.6809Y-3.5197
X4.7599Y-3.4217
X4.7599Y-3.5197
T3
X5.6071Y-4.2701
X5.6071Y-4.3701
X5.7071Y-4.2701
X5.7071Y-4.3701
X5.7441Y-3.0551
X5.7441Y-3.1551
X5.8071Y-4.2701
X5.8071Y-4.3701
X5.8441Y-3.0551
X5.8441Y-3.1551
X5.9441Y-3.0551
X5.9441Y-3.1551
X6.063Y-3.0575
X6.063Y-3.1575
X7.0583Y-3.1134
X7.0583Y-3.2134
X7.0583Y-3.3134
X7.0583Y-3.4134
X7.0583Y-3.5134
X7.0583Y-3.6134
X7.0583Y-3.7134
X7.0583Y-3.8134
X7.0583Y-3.9134
X7.0583Y-4.0134
X7.0583Y-4.1134
X7.0583Y-4.2134
X7.1583Y-3.1134
X7.1583Y-3.2134
X7.1583Y-3.3134
X7.1583Y-3.4134
X7.1583Y-3.5134
X7.1583Y-3.6134
X7.1583Y-3.7134
X7.1583Y-3.8134
X7.1583Y-3.9134
X7.1583Y-4.0134
X7.1583Y-4.1134
X7.1583Y-4.2134
T4
X4.5739Y-3.2337
X4.5739Y-3.7077
T5
X4.5079Y-4.4079
X4.515Y-3.0555
X6.8378Y-4.3823
X6.8421Y-3.0469
T0
M30
