G04 #@! TF.FileFunction,Copper,L1,Top,Signal*
%FSLAX46Y46*%
G04 Gerber Fmt 4.6, Leading zero omitted, Abs format (unit mm)*
G04 Created by KiCad (PCBNEW 4.1.0-alpha+201606210816+6944~45~ubuntu16.04.1-product) date Sat Jun 25 00:11:40 2016*
%MOMM*%
%LPD*%
G01*
G04 APERTURE LIST*
%ADD10C,0.100000*%
%ADD11C,1.397000*%
%ADD12C,3.200400*%
%ADD13R,1.000000X1.250000*%
%ADD14R,1.250000X1.000000*%
%ADD15R,0.700000X1.300000*%
%ADD16R,0.600000X1.950000*%
%ADD17C,0.784860*%
%ADD18R,1.000000X0.600000*%
%ADD19R,0.600000X0.600000*%
%ADD20R,2.500000X0.900000*%
%ADD21R,1.900000X2.000000*%
%ADD22C,1.900000*%
%ADD23R,1.500000X0.550000*%
%ADD24R,0.550000X1.500000*%
%ADD25R,1.300000X2.000000*%
%ADD26R,1.000000X1.600000*%
%ADD27R,0.900000X1.700000*%
%ADD28C,1.524000*%
%ADD29C,2.700020*%
%ADD30C,0.600000*%
%ADD31C,0.250000*%
%ADD32C,0.800000*%
%ADD33C,0.254000*%
G04 APERTURE END LIST*
D10*
D11*
X145224500Y-79298800D03*
X147383500Y-79298800D03*
X140906500Y-79298800D03*
X143065500Y-79298800D03*
X145224500Y-75006200D03*
X143065500Y-75006200D03*
X140906500Y-75006200D03*
X147383500Y-75006200D03*
X138747500Y-79298800D03*
X136588500Y-79298800D03*
X134429500Y-79298800D03*
X132270500Y-79298800D03*
X138747500Y-75006200D03*
X136588500Y-75006200D03*
X134429500Y-75006200D03*
X132270500Y-75006200D03*
X149542500Y-79298800D03*
X151701500Y-79298800D03*
X153860500Y-79298800D03*
X156019500Y-79298800D03*
X149542500Y-75006200D03*
X151701500Y-75006200D03*
X153860500Y-75006200D03*
X156019500Y-75006200D03*
D12*
X167551100Y-77152500D03*
X120738900Y-77152500D03*
D13*
X138303000Y-117221000D03*
X136303000Y-117221000D03*
X136287000Y-107569000D03*
X138287000Y-107569000D03*
D14*
X132207000Y-105315000D03*
X132207000Y-107315000D03*
X126733300Y-97062800D03*
X126733300Y-95062800D03*
D15*
X145857000Y-90551000D03*
X143957000Y-90551000D03*
X151384000Y-121412000D03*
X149484000Y-121412000D03*
X151384000Y-123825000D03*
X149484000Y-123825000D03*
X127127000Y-119888000D03*
X129027000Y-119888000D03*
X126431000Y-109093000D03*
X128331000Y-109093000D03*
D16*
X162560000Y-90296000D03*
X161290000Y-90296000D03*
X160020000Y-90296000D03*
X158750000Y-90296000D03*
X157480000Y-90296000D03*
X156210000Y-90296000D03*
X154940000Y-90296000D03*
X153670000Y-90296000D03*
X152400000Y-90296000D03*
X151130000Y-90296000D03*
X151130000Y-99696000D03*
X152400000Y-99696000D03*
X153670000Y-99696000D03*
X154940000Y-99696000D03*
X156210000Y-99696000D03*
X157480000Y-99696000D03*
X158750000Y-99696000D03*
X160020000Y-99696000D03*
X161290000Y-99696000D03*
X162560000Y-99696000D03*
X142240000Y-90296000D03*
X140970000Y-90296000D03*
X139700000Y-90296000D03*
X138430000Y-90296000D03*
X137160000Y-90296000D03*
X135890000Y-90296000D03*
X134620000Y-90296000D03*
X133350000Y-90296000D03*
X132080000Y-90296000D03*
X130810000Y-90296000D03*
X130810000Y-99696000D03*
X132080000Y-99696000D03*
X133350000Y-99696000D03*
X134620000Y-99696000D03*
X135890000Y-99696000D03*
X137160000Y-99696000D03*
X138430000Y-99696000D03*
X139700000Y-99696000D03*
X140970000Y-99696000D03*
X142240000Y-99696000D03*
D17*
X145923000Y-94615000D03*
X147193000Y-94615000D03*
X145923000Y-95885000D03*
X147193000Y-95885000D03*
X145923000Y-97155000D03*
X147193000Y-97155000D03*
D18*
X145300000Y-124267000D03*
D19*
X147000000Y-124267000D03*
X147000000Y-122367000D03*
X145100000Y-122367000D03*
D20*
X168148000Y-114988000D03*
X168148000Y-112088000D03*
D15*
X125796000Y-102108000D03*
X127696000Y-102108000D03*
D21*
X123063000Y-102489000D03*
D22*
X120523000Y-102489000D03*
D21*
X123444000Y-119888000D03*
D22*
X120904000Y-119888000D03*
D21*
X123190000Y-111125000D03*
D22*
X120650000Y-111125000D03*
D23*
X153020000Y-114490000D03*
X153020000Y-113690000D03*
X153020000Y-112890000D03*
X153020000Y-112090000D03*
X153020000Y-111290000D03*
X153020000Y-110490000D03*
X153020000Y-109690000D03*
X153020000Y-108890000D03*
X153020000Y-108090000D03*
X153020000Y-107290000D03*
X153020000Y-106490000D03*
D24*
X151320000Y-104790000D03*
X150520000Y-104790000D03*
X149720000Y-104790000D03*
X148920000Y-104790000D03*
X148120000Y-104790000D03*
X147320000Y-104790000D03*
X146520000Y-104790000D03*
X145720000Y-104790000D03*
X144920000Y-104790000D03*
X144120000Y-104790000D03*
X143320000Y-104790000D03*
D23*
X141620000Y-106490000D03*
X141620000Y-107290000D03*
X141620000Y-108090000D03*
X141620000Y-108890000D03*
X141620000Y-109690000D03*
X141620000Y-110490000D03*
X141620000Y-111290000D03*
X141620000Y-112090000D03*
X141620000Y-112890000D03*
X141620000Y-113690000D03*
X141620000Y-114490000D03*
D24*
X143320000Y-116190000D03*
X144120000Y-116190000D03*
X144920000Y-116190000D03*
X145720000Y-116190000D03*
X146520000Y-116190000D03*
X147320000Y-116190000D03*
X148120000Y-116190000D03*
X148920000Y-116190000D03*
X149720000Y-116190000D03*
X150520000Y-116190000D03*
X151320000Y-116190000D03*
D25*
X138544000Y-114363000D03*
X138544000Y-110363000D03*
X136144000Y-110363000D03*
X136144000Y-114363000D03*
D13*
X145415000Y-119888000D03*
X143415000Y-119888000D03*
X134398000Y-123063000D03*
X136398000Y-123063000D03*
D14*
X158115000Y-108315000D03*
X158115000Y-106315000D03*
D13*
X139446000Y-122936000D03*
X141446000Y-122936000D03*
D14*
X167005000Y-101473000D03*
X167005000Y-99473000D03*
D26*
X127460000Y-91821000D03*
X124460000Y-91821000D03*
D27*
X127942000Y-88773000D03*
X125042000Y-88773000D03*
D28*
X159669480Y-119253000D03*
X162209480Y-119253000D03*
X162209480Y-121251980D03*
X159669480Y-121251980D03*
D29*
X154940000Y-123952000D03*
X166938960Y-123952000D03*
D30*
X144399000Y-124333000D03*
X145161000Y-95885000D03*
X142367000Y-119888000D03*
X151828500Y-110553500D03*
X158115000Y-105346500D03*
X151130000Y-88900000D03*
X130810000Y-91630500D03*
X125666500Y-95059500D03*
X124460000Y-93091000D03*
X124142500Y-88773000D03*
X167005000Y-98425000D03*
X137287000Y-123063000D03*
X142303500Y-122936000D03*
X132207000Y-108204000D03*
X138544000Y-108775500D03*
X136303000Y-115951000D03*
X142748000Y-111315500D03*
X150050500Y-94043500D03*
X152273000Y-104965500D03*
X152400000Y-101219000D03*
X146519997Y-114935000D03*
X153670000Y-101219000D03*
X147320000Y-114935000D03*
X154940000Y-101219000D03*
X148170997Y-114935000D03*
X156210000Y-101219000D03*
X148971000Y-114935000D03*
X151130000Y-98171000D03*
X154432000Y-108775500D03*
X130810000Y-101219000D03*
X147066000Y-100457000D03*
X147691010Y-101319815D03*
X147320000Y-106045000D03*
D31*
X162560000Y-99696000D02*
X162560000Y-106426000D01*
X160671000Y-108315000D02*
X158115000Y-108315000D01*
X162560000Y-106426000D02*
X160671000Y-108315000D01*
X153020000Y-109690000D02*
X148056500Y-109690000D01*
X147256500Y-110490000D02*
X141620000Y-110490000D01*
X148056500Y-109690000D02*
X147256500Y-110490000D01*
X153020000Y-109690000D02*
X157772000Y-109690000D01*
X158115000Y-109347000D02*
X158115000Y-108315000D01*
X157772000Y-109690000D02*
X158115000Y-109347000D01*
X145300000Y-124267000D02*
X144465000Y-124267000D01*
X144465000Y-124267000D02*
X144399000Y-124333000D01*
X145923000Y-95885000D02*
X145161000Y-95885000D01*
X143415000Y-119888000D02*
X142367000Y-119888000D01*
X151828500Y-110553500D02*
X151574500Y-110299500D01*
X151892000Y-110490000D02*
X151828500Y-110553500D01*
X153020000Y-110490000D02*
X151892000Y-110490000D01*
X158115000Y-106315000D02*
X158115000Y-105346500D01*
X151130000Y-90296000D02*
X151130000Y-88900000D01*
X130810000Y-90296000D02*
X130810000Y-91630500D01*
X126733300Y-95062800D02*
X125669800Y-95062800D01*
X125669800Y-95062800D02*
X125666500Y-95059500D01*
X124460000Y-93091000D02*
X124460000Y-93027500D01*
X124460000Y-93027500D02*
X124269500Y-92837000D01*
X124460000Y-91821000D02*
X124460000Y-93091000D01*
X125042000Y-88773000D02*
X124142500Y-88773000D01*
X167005000Y-99473000D02*
X167005000Y-98425000D01*
X136398000Y-123063000D02*
X137287000Y-123063000D01*
X141446000Y-122936000D02*
X142303500Y-122936000D01*
X132207000Y-107315000D02*
X132207000Y-108204000D01*
X138544000Y-108775500D02*
X138544000Y-107826000D01*
X138544000Y-110363000D02*
X138544000Y-108775500D01*
X136303000Y-115951000D02*
X136303000Y-114522000D01*
X136303000Y-117221000D02*
X136303000Y-115951000D01*
X141620000Y-111290000D02*
X142722500Y-111290000D01*
X142722500Y-111290000D02*
X142748000Y-111315500D01*
X138544000Y-107826000D02*
X138287000Y-107569000D01*
X136303000Y-114522000D02*
X136144000Y-114363000D01*
X123444000Y-119888000D02*
X124644000Y-119888000D01*
X124644000Y-119888000D02*
X127127000Y-119888000D01*
X123190000Y-111125000D02*
X124699000Y-111125000D01*
X124699000Y-111125000D02*
X126431000Y-109393000D01*
X126431000Y-109393000D02*
X126431000Y-109093000D01*
X123063000Y-102489000D02*
X125415000Y-102489000D01*
X125415000Y-102489000D02*
X125796000Y-102108000D01*
X152400000Y-90296000D02*
X152400000Y-85661500D01*
X156019500Y-82042000D02*
X156019500Y-79298800D01*
X152400000Y-85661500D02*
X156019500Y-82042000D01*
X153670000Y-90296000D02*
X153670000Y-91757500D01*
X153860500Y-82931000D02*
X153860500Y-79298800D01*
X151765000Y-85026500D02*
X153860500Y-82931000D01*
X151765000Y-91630500D02*
X151765000Y-85026500D01*
X152463500Y-92329000D02*
X151765000Y-91630500D01*
X153098500Y-92329000D02*
X152463500Y-92329000D01*
X153670000Y-91757500D02*
X153098500Y-92329000D01*
X153670000Y-90971000D02*
X153670000Y-90296000D01*
X151003001Y-79997299D02*
X151701500Y-79298800D01*
X150241000Y-80759300D02*
X151003001Y-79997299D01*
X151187989Y-92831489D02*
X150241000Y-91884500D01*
X153629511Y-92831489D02*
X151187989Y-92831489D01*
X154940000Y-91521000D02*
X153629511Y-92831489D01*
X154940000Y-90296000D02*
X154940000Y-91521000D01*
X150241000Y-91884500D02*
X150241000Y-80759300D01*
X156210000Y-90296000D02*
X156210000Y-91521000D01*
X149098000Y-91948000D02*
X149098000Y-85090000D01*
X156210000Y-91521000D02*
X154449500Y-93281500D01*
X154449500Y-93281500D02*
X150431500Y-93281500D01*
X150431500Y-93281500D02*
X149098000Y-91948000D01*
X149098000Y-85090000D02*
X149542500Y-84645500D01*
X149542500Y-84645500D02*
X149542500Y-79298800D01*
X156210000Y-90296000D02*
X156210000Y-90971000D01*
X134620000Y-90296000D02*
X134620000Y-82105500D01*
X147383500Y-78041500D02*
X147383500Y-79298800D01*
X146298498Y-76956498D02*
X147383500Y-78041500D01*
X134562002Y-76956498D02*
X146298498Y-76956498D01*
X133350000Y-78168500D02*
X134562002Y-76956498D01*
X133350000Y-80835500D02*
X133350000Y-78168500D01*
X134620000Y-82105500D02*
X133350000Y-80835500D01*
X135890000Y-90296000D02*
X135890000Y-81343500D01*
X143954500Y-77406500D02*
X145224500Y-78676500D01*
X136588500Y-77406500D02*
X143954500Y-77406500D01*
X135509000Y-78486000D02*
X136588500Y-77406500D01*
X135509000Y-80962500D02*
X135509000Y-78486000D01*
X135890000Y-81343500D02*
X135509000Y-80962500D01*
X145224500Y-78676500D02*
X145224500Y-79298800D01*
X137160000Y-90296000D02*
X137160000Y-85661500D01*
X143065500Y-78486000D02*
X143065500Y-79298800D01*
X142557500Y-77978000D02*
X143065500Y-78486000D01*
X138239500Y-77978000D02*
X142557500Y-77978000D01*
X137668000Y-78549500D02*
X138239500Y-77978000D01*
X137668000Y-85153500D02*
X137668000Y-78549500D01*
X137160000Y-85661500D02*
X137668000Y-85153500D01*
X137287000Y-90423000D02*
X137287000Y-91098000D01*
X138430000Y-90296000D02*
X138430000Y-91757500D01*
X140906500Y-81978500D02*
X140906500Y-79298800D01*
X140335000Y-82550000D02*
X140906500Y-81978500D01*
X140335000Y-91757500D02*
X140335000Y-82550000D01*
X139890500Y-92202000D02*
X140335000Y-91757500D01*
X138874500Y-92202000D02*
X139890500Y-92202000D01*
X138430000Y-91757500D02*
X138874500Y-92202000D01*
X139700000Y-90296000D02*
X139700000Y-80251300D01*
X139700000Y-80251300D02*
X138747500Y-79298800D01*
X132080000Y-90296000D02*
X132080000Y-91503500D01*
X136525000Y-91948000D02*
X136525000Y-79362300D01*
X135826500Y-92646500D02*
X136525000Y-91948000D01*
X133223000Y-92646500D02*
X135826500Y-92646500D01*
X132080000Y-91503500D02*
X133223000Y-92646500D01*
X136525000Y-79362300D02*
X136588500Y-79298800D01*
X133350000Y-90296000D02*
X133350000Y-91694000D01*
X134429500Y-80772000D02*
X134429500Y-79298800D01*
X135255000Y-81597500D02*
X134429500Y-80772000D01*
X135255000Y-91630500D02*
X135255000Y-81597500D01*
X134810500Y-92075000D02*
X135255000Y-91630500D01*
X133731000Y-92075000D02*
X134810500Y-92075000D01*
X133350000Y-91694000D02*
X133731000Y-92075000D01*
X157480000Y-90296000D02*
X157480000Y-76466700D01*
X157480000Y-76466700D02*
X156019500Y-75006200D01*
X154558999Y-74307701D02*
X153860500Y-75006200D01*
X154884001Y-73982699D02*
X154558999Y-74307701D01*
X156977199Y-73982699D02*
X154884001Y-73982699D01*
X158750000Y-75755500D02*
X156977199Y-73982699D01*
X158750000Y-90296000D02*
X158750000Y-75755500D01*
X158750000Y-90296000D02*
X158750000Y-89621000D01*
X153175012Y-73532688D02*
X152399999Y-74307701D01*
X160020000Y-75628500D02*
X157924188Y-73532688D01*
X152399999Y-74307701D02*
X151701500Y-75006200D01*
X157924188Y-73532688D02*
X153175012Y-73532688D01*
X160020000Y-90296000D02*
X160020000Y-75628500D01*
X161290000Y-90296000D02*
X161290000Y-75946000D01*
X158426677Y-73082677D02*
X150310323Y-73082677D01*
X161290000Y-75946000D02*
X158426677Y-73082677D01*
X150310323Y-73082677D02*
X149542500Y-73850500D01*
X149542500Y-73850500D02*
X149542500Y-75006200D01*
X140970000Y-90296000D02*
X140970000Y-88900000D01*
X148463000Y-76085700D02*
X147383500Y-75006200D01*
X148463000Y-81407000D02*
X148463000Y-76085700D01*
X140970000Y-88900000D02*
X148463000Y-81407000D01*
X140970000Y-90296000D02*
X140970000Y-89621000D01*
X148209000Y-89535000D02*
X148209000Y-92202000D01*
X148209000Y-92202000D02*
X150050500Y-94043500D01*
X147383500Y-88709500D02*
X148209000Y-89535000D01*
X142601500Y-88709500D02*
X147383500Y-88709500D01*
X142240000Y-89071000D02*
X142601500Y-88709500D01*
X142240000Y-90296000D02*
X142240000Y-89071000D01*
X159678000Y-93853000D02*
X150241000Y-93853000D01*
X150050500Y-94043500D02*
X150241000Y-93853000D01*
X153020000Y-106490000D02*
X153020000Y-105712500D01*
X153020000Y-105712500D02*
X152273000Y-104965500D01*
X162560000Y-90296000D02*
X162560000Y-90971000D01*
X162560000Y-90971000D02*
X159678000Y-93853000D01*
X152400000Y-99696000D02*
X152400000Y-101219000D01*
X146520000Y-116190000D02*
X146520000Y-114935003D01*
X146520000Y-114935003D02*
X146519997Y-114935000D01*
X153670000Y-99696000D02*
X153670000Y-101219000D01*
X147320000Y-116190000D02*
X147320000Y-114935000D01*
X154940000Y-99696000D02*
X154940000Y-101219000D01*
X148120000Y-116190000D02*
X148120000Y-114985997D01*
X148120000Y-114985997D02*
X148170997Y-114935000D01*
X156210000Y-99696000D02*
X156210000Y-101219000D01*
X148920000Y-116190000D02*
X148920000Y-114986000D01*
X148920000Y-114986000D02*
X148971000Y-114935000D01*
X164608531Y-97675299D02*
X163436700Y-96503467D01*
X159997533Y-96503467D02*
X157480000Y-99021000D01*
X164608531Y-107556700D02*
X164608531Y-97675299D01*
X157480000Y-99021000D02*
X157480000Y-99696000D01*
X159088831Y-113076397D02*
X164608531Y-107556700D01*
X158475228Y-113690000D02*
X159088831Y-113076397D01*
X153020000Y-113690000D02*
X158475228Y-113690000D01*
X163436700Y-96503467D02*
X159997533Y-96503467D01*
X160817522Y-96953478D02*
X163250300Y-96953478D01*
X163250300Y-96953478D02*
X164158520Y-97861699D01*
X164158520Y-107370300D02*
X158638820Y-112890000D01*
X158750000Y-99021000D02*
X160817522Y-96953478D01*
X158750000Y-99696000D02*
X158750000Y-99021000D01*
X158638820Y-112890000D02*
X154305000Y-112890000D01*
X164158520Y-97861699D02*
X164158520Y-107370300D01*
X153020000Y-112890000D02*
X154305000Y-112890000D01*
X154305000Y-112890000D02*
X154447820Y-112890000D01*
X160020000Y-98471000D02*
X160020000Y-99696000D01*
X161024011Y-97466989D02*
X160020000Y-98471000D01*
X163127400Y-97466989D02*
X161024011Y-97466989D01*
X163703000Y-102743000D02*
X163702999Y-98042589D01*
X163702999Y-98042589D02*
X163127400Y-97466989D01*
X154432000Y-112090000D02*
X154611410Y-112090000D01*
X153020000Y-112090000D02*
X154432000Y-112090000D01*
X163703000Y-102997000D02*
X163703000Y-102743000D01*
X154432000Y-112090000D02*
X158802410Y-112090000D01*
X158802410Y-112090000D02*
X163703000Y-107189410D01*
X163703000Y-107189410D02*
X163703000Y-102743000D01*
X153020000Y-111290000D02*
X158966000Y-111290000D01*
X158966000Y-111290000D02*
X163252990Y-107003010D01*
X163252990Y-107003010D02*
X163252990Y-98228990D01*
X163252990Y-98228990D02*
X162941000Y-97917000D01*
X161480500Y-97917000D02*
X161290000Y-98107500D01*
X162941000Y-97917000D02*
X161480500Y-97917000D01*
X161290000Y-98107500D02*
X161290000Y-99696000D01*
X151130000Y-98171000D02*
X151130000Y-99696000D01*
X153020000Y-108890000D02*
X154317500Y-108890000D01*
X154317500Y-108890000D02*
X154432000Y-108775500D01*
X142240000Y-102235000D02*
X140970000Y-100965000D01*
X140970000Y-100965000D02*
X140970000Y-99696000D01*
X144165000Y-102235000D02*
X142240000Y-102235000D01*
X145720000Y-104790000D02*
X145720000Y-103790000D01*
X145720000Y-103790000D02*
X144165000Y-102235000D01*
X144920000Y-103626410D02*
X143978600Y-102685010D01*
X143978600Y-102685010D02*
X142014009Y-102685009D01*
X142014009Y-102685009D02*
X139700000Y-100371000D01*
X139700000Y-100371000D02*
X139700000Y-99696000D01*
X144920000Y-104790000D02*
X144920000Y-103626410D01*
X140600019Y-103135019D02*
X138430000Y-100965000D01*
X138430000Y-100965000D02*
X138430000Y-99696000D01*
X143394019Y-103135019D02*
X140600019Y-103135019D01*
X144120000Y-104790000D02*
X144120000Y-103861000D01*
X144120000Y-103861000D02*
X143394019Y-103135019D01*
X143320000Y-104790000D02*
X141579000Y-104790000D01*
X141579000Y-104790000D02*
X137160000Y-100371000D01*
X137160000Y-100371000D02*
X137160000Y-99696000D01*
X136652000Y-101727000D02*
X135890000Y-100965000D01*
X135890000Y-100965000D02*
X135890000Y-99696000D01*
X137382000Y-101727000D02*
X136652000Y-101727000D01*
X141620000Y-106490000D02*
X141620000Y-105965000D01*
X141620000Y-105965000D02*
X137382000Y-101727000D01*
X135705010Y-102177010D02*
X134620000Y-101092000D01*
X134620000Y-101092000D02*
X134620000Y-99696000D01*
X140335000Y-105316410D02*
X137195600Y-102177010D01*
X137195600Y-102177010D02*
X135705010Y-102177010D01*
X140335000Y-106815002D02*
X140335000Y-105316410D01*
X141620000Y-107290000D02*
X140809998Y-107290000D01*
X140809998Y-107290000D02*
X140335000Y-106815002D01*
X141620000Y-108090000D02*
X140809998Y-108090000D01*
X140809998Y-108090000D02*
X139884990Y-107164992D01*
X139884990Y-107164992D02*
X139884990Y-105848990D01*
X139884990Y-105848990D02*
X136663020Y-102627020D01*
X136663020Y-102627020D02*
X134885020Y-102627020D01*
X134885020Y-102627020D02*
X133350000Y-101092000D01*
X133350000Y-101092000D02*
X133350000Y-99696000D01*
X133684030Y-103077030D02*
X132080000Y-101473000D01*
X132080000Y-101473000D02*
X132080000Y-99696000D01*
X139434981Y-106035391D02*
X136476620Y-103077030D01*
X136476620Y-103077030D02*
X133684030Y-103077030D01*
X141620000Y-108890000D02*
X140620000Y-108890000D01*
X140620000Y-108890000D02*
X139434981Y-107704981D01*
X139434981Y-107704981D02*
X139434981Y-106035391D01*
X130810000Y-101219000D02*
X130810000Y-99696000D01*
X147066000Y-101854000D02*
X147066000Y-100457000D01*
X148336000Y-103124000D02*
X147066000Y-101854000D01*
X149054000Y-103124000D02*
X148336000Y-103124000D01*
X149720000Y-104790000D02*
X149720000Y-103790000D01*
X149720000Y-103790000D02*
X149054000Y-103124000D01*
X151384000Y-123825000D02*
X151384000Y-123525000D01*
X151384000Y-123525000D02*
X153712900Y-121196100D01*
X153712900Y-121196100D02*
X158450534Y-121196100D01*
X158450534Y-121196100D02*
X159512000Y-121196100D01*
D32*
X162001200Y-119189500D02*
X166433500Y-119189500D01*
X168275000Y-117348000D02*
X168275000Y-115115000D01*
X166433500Y-119189500D02*
X168275000Y-117348000D01*
X168275000Y-115115000D02*
X168148000Y-114988000D01*
D31*
X153370000Y-119126000D02*
X153433500Y-119189500D01*
X153433500Y-119189500D02*
X159512000Y-119189500D01*
X151384000Y-121412000D02*
X151384000Y-121112000D01*
X151384000Y-121112000D02*
X153370000Y-119126000D01*
X148844000Y-121412000D02*
X147889000Y-122367000D01*
X147889000Y-122367000D02*
X147000000Y-122367000D01*
X149484000Y-121412000D02*
X148844000Y-121412000D01*
X149164000Y-121732000D02*
X149484000Y-121412000D01*
X149484000Y-121412000D02*
X149484000Y-120512000D01*
X149484000Y-120512000D02*
X149720000Y-120276000D01*
X149720000Y-120276000D02*
X149720000Y-117190000D01*
X149720000Y-117190000D02*
X149720000Y-116190000D01*
X149484000Y-123825000D02*
X147442000Y-123825000D01*
X147442000Y-123825000D02*
X147000000Y-124267000D01*
X149291000Y-123632000D02*
X149484000Y-123825000D01*
X149484000Y-123825000D02*
X149484000Y-123525000D01*
X149484000Y-123525000D02*
X150520000Y-122489000D01*
X150520000Y-122489000D02*
X150520000Y-117190000D01*
X150520000Y-117190000D02*
X150520000Y-116190000D01*
X139573000Y-117661002D02*
X139573000Y-117094000D01*
X139573000Y-117094000D02*
X139573000Y-114300000D01*
X138684000Y-119888000D02*
X139573000Y-118999000D01*
X139573000Y-118999000D02*
X139573000Y-117094000D01*
X133731000Y-119888000D02*
X138684000Y-119888000D01*
X132842000Y-118999000D02*
X133731000Y-119888000D01*
X132842000Y-111506000D02*
X132842000Y-118999000D01*
X129413000Y-108077000D02*
X132842000Y-111506000D01*
X129413000Y-104725000D02*
X129413000Y-108077000D01*
X127696000Y-102108000D02*
X127696000Y-103008000D01*
X127696000Y-103008000D02*
X129413000Y-104725000D01*
X139573000Y-114300000D02*
X140183000Y-113690000D01*
X140183000Y-113690000D02*
X141620000Y-113690000D01*
X143383000Y-118491000D02*
X144120000Y-117754000D01*
X144120000Y-117754000D02*
X144120000Y-116190000D01*
X142494000Y-118491000D02*
X143383000Y-118491000D01*
X140335000Y-120650000D02*
X142494000Y-118491000D01*
X133350000Y-120650000D02*
X140335000Y-120650000D01*
X132334000Y-119634000D02*
X133350000Y-120650000D01*
X132334000Y-111887000D02*
X132334000Y-119634000D01*
X130810000Y-110363000D02*
X132334000Y-111887000D01*
X129301000Y-110363000D02*
X130810000Y-110363000D01*
X128331000Y-109093000D02*
X128331000Y-109393000D01*
X128331000Y-109393000D02*
X129301000Y-110363000D01*
X144363002Y-120650000D02*
X144363002Y-119229996D01*
X144363002Y-119229996D02*
X144920000Y-118672998D01*
X144920000Y-118672998D02*
X144920000Y-117190000D01*
X144920000Y-117190000D02*
X144920000Y-116190000D01*
X131151000Y-121412000D02*
X143601002Y-121412000D01*
X143601002Y-121412000D02*
X144363002Y-120650000D01*
X129027000Y-119888000D02*
X129627000Y-119888000D01*
X129627000Y-119888000D02*
X131151000Y-121412000D01*
X143957000Y-90551000D02*
X143957000Y-92649000D01*
X143957000Y-92649000D02*
X145368021Y-94060021D01*
X145368021Y-94060021D02*
X145368021Y-94615000D01*
X145368021Y-94615000D02*
X145923000Y-94615000D01*
X144535998Y-96185002D02*
X144535998Y-95447023D01*
X144535998Y-95447023D02*
X145368021Y-94615000D01*
X144724239Y-96373243D02*
X144535998Y-96185002D01*
X144724239Y-101994239D02*
X144724239Y-96373243D01*
X146520000Y-103790000D02*
X144724239Y-101994239D01*
X146520000Y-104790000D02*
X146520000Y-103790000D01*
X147991009Y-101019816D02*
X147691010Y-101319815D01*
X147193000Y-95885000D02*
X148391761Y-97083761D01*
X148391761Y-97083761D02*
X148391761Y-100619064D01*
X148391761Y-100619064D02*
X147991009Y-101019816D01*
X147320000Y-106045000D02*
X147320000Y-104790000D01*
X148120000Y-104790000D02*
X148120000Y-103790000D01*
X148120000Y-103790000D02*
X148113000Y-103790000D01*
X146315429Y-97547429D02*
X145923000Y-97155000D01*
X148113000Y-103790000D02*
X146359761Y-102036761D01*
X146359761Y-102036761D02*
X146359761Y-97591761D01*
X146359761Y-97591761D02*
X146315429Y-97547429D01*
X136287000Y-107569000D02*
X136287000Y-110220000D01*
X136287000Y-110220000D02*
X136144000Y-110363000D01*
X141620000Y-112090000D02*
X137521000Y-112090000D01*
X137521000Y-112090000D02*
X136144000Y-110713000D01*
X136144000Y-110713000D02*
X136144000Y-110363000D01*
X138544000Y-114363000D02*
X138544000Y-116980000D01*
X138544000Y-116980000D02*
X138303000Y-117221000D01*
X141620000Y-112890000D02*
X139667000Y-112890000D01*
X139667000Y-112890000D02*
X138544000Y-114013000D01*
X138544000Y-114013000D02*
X138544000Y-114363000D01*
X145720000Y-116190000D02*
X145720000Y-119583000D01*
X145720000Y-119583000D02*
X145415000Y-119888000D01*
X127942000Y-88773000D02*
X127942000Y-88720000D01*
X127942000Y-88720000D02*
X132270500Y-84391500D01*
X132270500Y-84391500D02*
X132270500Y-79298800D01*
X127460000Y-91821000D02*
X127460000Y-89255000D01*
X127460000Y-89255000D02*
X127942000Y-88773000D01*
D33*
G36*
X171567448Y-88120400D02*
X168946822Y-88120400D01*
X168880652Y-88133562D01*
X167544172Y-88385984D01*
X167297243Y-88488265D01*
X166221428Y-89207103D01*
X166032436Y-89396095D01*
X165313597Y-90471912D01*
X165313597Y-90471913D01*
X165211315Y-90718842D01*
X164958893Y-91987854D01*
X164958894Y-92121491D01*
X164958893Y-92255128D01*
X165211315Y-93524140D01*
X165254502Y-93628401D01*
X165313597Y-93771070D01*
X166032434Y-94846885D01*
X166221426Y-95035877D01*
X167297243Y-95754717D01*
X167544172Y-95856998D01*
X168813185Y-96109420D01*
X168880647Y-96109420D01*
X168946822Y-96122583D01*
X171567448Y-96122583D01*
X171567448Y-127598457D01*
X116326195Y-127598457D01*
X116326195Y-123348750D01*
X133263000Y-123348750D01*
X133263000Y-123814310D01*
X133359673Y-124047699D01*
X133538302Y-124226327D01*
X133771691Y-124323000D01*
X134112250Y-124323000D01*
X134271000Y-124164250D01*
X134271000Y-123190000D01*
X133421750Y-123190000D01*
X133263000Y-123348750D01*
X116326195Y-123348750D01*
X116326195Y-102802893D01*
X118937725Y-102802893D01*
X119178519Y-103385657D01*
X119623997Y-103831914D01*
X120206341Y-104073724D01*
X120836893Y-104074275D01*
X121419657Y-103833481D01*
X121515523Y-103737782D01*
X121655191Y-103946809D01*
X121865235Y-104087157D01*
X122113000Y-104136440D01*
X124013000Y-104136440D01*
X124260765Y-104087157D01*
X124470809Y-103946809D01*
X124611157Y-103736765D01*
X124660440Y-103489000D01*
X124660440Y-103249000D01*
X125037864Y-103249000D01*
X125198235Y-103356157D01*
X125446000Y-103405440D01*
X126146000Y-103405440D01*
X126393765Y-103356157D01*
X126603809Y-103215809D01*
X126744157Y-103005765D01*
X126746000Y-102996500D01*
X126747843Y-103005765D01*
X126888191Y-103215809D01*
X126991001Y-103284505D01*
X126993852Y-103298839D01*
X127158599Y-103545401D01*
X128653000Y-105039802D01*
X128653000Y-107795560D01*
X127981000Y-107795560D01*
X127733235Y-107844843D01*
X127523191Y-107985191D01*
X127382843Y-108195235D01*
X127381000Y-108204500D01*
X127379157Y-108195235D01*
X127238809Y-107985191D01*
X127028765Y-107844843D01*
X126781000Y-107795560D01*
X126081000Y-107795560D01*
X125833235Y-107844843D01*
X125623191Y-107985191D01*
X125482843Y-108195235D01*
X125433560Y-108443000D01*
X125433560Y-109315638D01*
X124760357Y-109988841D01*
X124738157Y-109877235D01*
X124597809Y-109667191D01*
X124387765Y-109526843D01*
X124140000Y-109477560D01*
X122240000Y-109477560D01*
X121992235Y-109526843D01*
X121782191Y-109667191D01*
X121642702Y-109875949D01*
X121549003Y-109782086D01*
X120966659Y-109540276D01*
X120336107Y-109539725D01*
X119753343Y-109780519D01*
X119307086Y-110225997D01*
X119065276Y-110808341D01*
X119064725Y-111438893D01*
X119305519Y-112021657D01*
X119750997Y-112467914D01*
X120333341Y-112709724D01*
X120963893Y-112710275D01*
X121546657Y-112469481D01*
X121642523Y-112373782D01*
X121782191Y-112582809D01*
X121992235Y-112723157D01*
X122240000Y-112772440D01*
X124140000Y-112772440D01*
X124387765Y-112723157D01*
X124597809Y-112582809D01*
X124738157Y-112372765D01*
X124787440Y-112125000D01*
X124787440Y-111867408D01*
X124989839Y-111827148D01*
X125236401Y-111662401D01*
X126508362Y-110390440D01*
X126781000Y-110390440D01*
X127028765Y-110341157D01*
X127238809Y-110200809D01*
X127379157Y-109990765D01*
X127381000Y-109981500D01*
X127382843Y-109990765D01*
X127523191Y-110200809D01*
X127733235Y-110341157D01*
X127981000Y-110390440D01*
X128253638Y-110390440D01*
X128763599Y-110900401D01*
X128942811Y-111020146D01*
X128940486Y-111020609D01*
X128087713Y-111590413D01*
X127517909Y-112443186D01*
X127317820Y-113449100D01*
X127517909Y-114455014D01*
X128087713Y-115307787D01*
X128940486Y-115877591D01*
X129946400Y-116077680D01*
X130952314Y-115877591D01*
X131574000Y-115462194D01*
X131574000Y-119634000D01*
X131631852Y-119924839D01*
X131796599Y-120171401D01*
X132277198Y-120652000D01*
X131465802Y-120652000D01*
X130164401Y-119350599D01*
X130024440Y-119257080D01*
X130024440Y-119238000D01*
X129975157Y-118990235D01*
X129834809Y-118780191D01*
X129624765Y-118639843D01*
X129377000Y-118590560D01*
X128677000Y-118590560D01*
X128429235Y-118639843D01*
X128219191Y-118780191D01*
X128078843Y-118990235D01*
X128077000Y-118999500D01*
X128075157Y-118990235D01*
X127934809Y-118780191D01*
X127724765Y-118639843D01*
X127477000Y-118590560D01*
X126777000Y-118590560D01*
X126529235Y-118639843D01*
X126319191Y-118780191D01*
X126178843Y-118990235D01*
X126151440Y-119128000D01*
X125041440Y-119128000D01*
X125041440Y-118888000D01*
X124992157Y-118640235D01*
X124851809Y-118430191D01*
X124641765Y-118289843D01*
X124394000Y-118240560D01*
X122494000Y-118240560D01*
X122246235Y-118289843D01*
X122036191Y-118430191D01*
X121896702Y-118638949D01*
X121803003Y-118545086D01*
X121220659Y-118303276D01*
X120590107Y-118302725D01*
X120007343Y-118543519D01*
X119561086Y-118988997D01*
X119319276Y-119571341D01*
X119318725Y-120201893D01*
X119559519Y-120784657D01*
X120004997Y-121230914D01*
X120587341Y-121472724D01*
X121217893Y-121473275D01*
X121800657Y-121232481D01*
X121896523Y-121136782D01*
X122036191Y-121345809D01*
X122246235Y-121486157D01*
X122494000Y-121535440D01*
X124394000Y-121535440D01*
X124641765Y-121486157D01*
X124851809Y-121345809D01*
X124992157Y-121135765D01*
X125041440Y-120888000D01*
X125041440Y-120648000D01*
X126151440Y-120648000D01*
X126178843Y-120785765D01*
X126319191Y-120995809D01*
X126529235Y-121136157D01*
X126777000Y-121185440D01*
X127477000Y-121185440D01*
X127724765Y-121136157D01*
X127934809Y-120995809D01*
X128075157Y-120785765D01*
X128077000Y-120776500D01*
X128078843Y-120785765D01*
X128219191Y-120995809D01*
X128429235Y-121136157D01*
X128677000Y-121185440D01*
X129377000Y-121185440D01*
X129624765Y-121136157D01*
X129730023Y-121065825D01*
X130613599Y-121949401D01*
X130860160Y-122114148D01*
X130908414Y-122123746D01*
X131151000Y-122172000D01*
X133320862Y-122172000D01*
X133263000Y-122311690D01*
X133263000Y-122777250D01*
X133421750Y-122936000D01*
X134271000Y-122936000D01*
X134271000Y-122916000D01*
X134525000Y-122916000D01*
X134525000Y-122936000D01*
X134545000Y-122936000D01*
X134545000Y-123190000D01*
X134525000Y-123190000D01*
X134525000Y-124164250D01*
X134683750Y-124323000D01*
X135024309Y-124323000D01*
X135257698Y-124226327D01*
X135399346Y-124084680D01*
X135440191Y-124145809D01*
X135650235Y-124286157D01*
X135898000Y-124335440D01*
X136898000Y-124335440D01*
X137145765Y-124286157D01*
X137355809Y-124145809D01*
X137454475Y-123998147D01*
X137472167Y-123998162D01*
X137815943Y-123856117D01*
X138079192Y-123593327D01*
X138221838Y-123249799D01*
X138221862Y-123221750D01*
X138311000Y-123221750D01*
X138311000Y-123687310D01*
X138407673Y-123920699D01*
X138586302Y-124099327D01*
X138819691Y-124196000D01*
X139160250Y-124196000D01*
X139319000Y-124037250D01*
X139319000Y-123063000D01*
X138469750Y-123063000D01*
X138311000Y-123221750D01*
X138221862Y-123221750D01*
X138222162Y-122877833D01*
X138080117Y-122534057D01*
X137817327Y-122270808D01*
X137579372Y-122172000D01*
X138316256Y-122172000D01*
X138311000Y-122184690D01*
X138311000Y-122650250D01*
X138469750Y-122809000D01*
X139319000Y-122809000D01*
X139319000Y-122789000D01*
X139573000Y-122789000D01*
X139573000Y-122809000D01*
X139593000Y-122809000D01*
X139593000Y-123063000D01*
X139573000Y-123063000D01*
X139573000Y-124037250D01*
X139731750Y-124196000D01*
X140072309Y-124196000D01*
X140305698Y-124099327D01*
X140447346Y-123957680D01*
X140488191Y-124018809D01*
X140698235Y-124159157D01*
X140946000Y-124208440D01*
X141946000Y-124208440D01*
X142193765Y-124159157D01*
X142403809Y-124018809D01*
X142507726Y-123863287D01*
X142832443Y-123729117D01*
X143095692Y-123466327D01*
X143238338Y-123122799D01*
X143238662Y-122750833D01*
X143096617Y-122407057D01*
X142861970Y-122172000D01*
X143601002Y-122172000D01*
X143891841Y-122114148D01*
X144138403Y-121949401D01*
X144177647Y-121910157D01*
X144165000Y-121940690D01*
X144165000Y-122081250D01*
X144323750Y-122240000D01*
X144973000Y-122240000D01*
X144973000Y-121590750D01*
X145227000Y-121590750D01*
X145227000Y-122240000D01*
X145876250Y-122240000D01*
X146035000Y-122081250D01*
X146035000Y-121940690D01*
X145938327Y-121707301D01*
X145759698Y-121528673D01*
X145526309Y-121432000D01*
X145385750Y-121432000D01*
X145227000Y-121590750D01*
X144973000Y-121590750D01*
X144814250Y-121432000D01*
X144673691Y-121432000D01*
X144643156Y-121444648D01*
X144900403Y-121187401D01*
X144918418Y-121160440D01*
X145915000Y-121160440D01*
X146162765Y-121111157D01*
X146372809Y-120970809D01*
X146513157Y-120760765D01*
X146562440Y-120513000D01*
X146562440Y-119263000D01*
X146513157Y-119015235D01*
X146480000Y-118965612D01*
X146480000Y-117587440D01*
X146795000Y-117587440D01*
X146920000Y-117562576D01*
X147045000Y-117587440D01*
X147595000Y-117587440D01*
X147720000Y-117562576D01*
X147845000Y-117587440D01*
X148395000Y-117587440D01*
X148520000Y-117562576D01*
X148645000Y-117587440D01*
X148960000Y-117587440D01*
X148960000Y-119961198D01*
X148946599Y-119974599D01*
X148781852Y-120221161D01*
X148779001Y-120235495D01*
X148676191Y-120304191D01*
X148535843Y-120514235D01*
X148488314Y-120753181D01*
X148306599Y-120874599D01*
X147646429Y-121534769D01*
X147547765Y-121468843D01*
X147300000Y-121419560D01*
X146700000Y-121419560D01*
X146452235Y-121468843D01*
X146242191Y-121609191D01*
X146101843Y-121819235D01*
X146052560Y-122067000D01*
X146052560Y-122667000D01*
X146101843Y-122914765D01*
X146242191Y-123124809D01*
X146452235Y-123265157D01*
X146700000Y-123314440D01*
X146877758Y-123314440D01*
X146872638Y-123319560D01*
X146700000Y-123319560D01*
X146452235Y-123368843D01*
X146250000Y-123503973D01*
X146047765Y-123368843D01*
X145800000Y-123319560D01*
X144962215Y-123319560D01*
X144895915Y-123220335D01*
X144973000Y-123143250D01*
X144973000Y-122494000D01*
X145227000Y-122494000D01*
X145227000Y-123143250D01*
X145385750Y-123302000D01*
X145526309Y-123302000D01*
X145759698Y-123205327D01*
X145938327Y-123026699D01*
X146035000Y-122793310D01*
X146035000Y-122652750D01*
X145876250Y-122494000D01*
X145227000Y-122494000D01*
X144973000Y-122494000D01*
X144323750Y-122494000D01*
X144165000Y-122652750D01*
X144165000Y-122793310D01*
X144203449Y-122886133D01*
X143983661Y-122929852D01*
X143737099Y-123094599D01*
X143734599Y-123097099D01*
X143569852Y-123343661D01*
X143512000Y-123634500D01*
X143565324Y-123902577D01*
X143464162Y-124146201D01*
X143463838Y-124518167D01*
X143605883Y-124861943D01*
X143868673Y-125125192D01*
X144212201Y-125267838D01*
X144584167Y-125268162D01*
X144742071Y-125202917D01*
X144800000Y-125214440D01*
X145800000Y-125214440D01*
X146047765Y-125165157D01*
X146250000Y-125030027D01*
X146452235Y-125165157D01*
X146700000Y-125214440D01*
X147300000Y-125214440D01*
X147547765Y-125165157D01*
X147757809Y-125024809D01*
X147898157Y-124814765D01*
X147943860Y-124585000D01*
X148508440Y-124585000D01*
X148535843Y-124722765D01*
X148676191Y-124932809D01*
X148886235Y-125073157D01*
X149134000Y-125122440D01*
X149834000Y-125122440D01*
X150081765Y-125073157D01*
X150291809Y-124932809D01*
X150432157Y-124722765D01*
X150434000Y-124713500D01*
X150435843Y-124722765D01*
X150576191Y-124932809D01*
X150786235Y-125073157D01*
X151034000Y-125122440D01*
X151734000Y-125122440D01*
X151981765Y-125073157D01*
X152191809Y-124932809D01*
X152332157Y-124722765D01*
X152381440Y-124475000D01*
X152381440Y-124345111D01*
X152954646Y-124345111D01*
X153256209Y-125074949D01*
X153814114Y-125633829D01*
X154543425Y-125936665D01*
X155333111Y-125937354D01*
X156062949Y-125635791D01*
X156621829Y-125077886D01*
X156924665Y-124348575D01*
X156924668Y-124345111D01*
X164953606Y-124345111D01*
X165255169Y-125074949D01*
X165813074Y-125633829D01*
X166542385Y-125936665D01*
X167332071Y-125937354D01*
X168061909Y-125635791D01*
X168620789Y-125077886D01*
X168923625Y-124348575D01*
X168924314Y-123558889D01*
X168622751Y-122829051D01*
X168064846Y-122270171D01*
X167335535Y-121967335D01*
X166545849Y-121966646D01*
X165816011Y-122268209D01*
X165257131Y-122826114D01*
X164954295Y-123555425D01*
X164953606Y-124345111D01*
X156924668Y-124345111D01*
X156925354Y-123558889D01*
X156623791Y-122829051D01*
X156065886Y-122270171D01*
X155336575Y-121967335D01*
X154546889Y-121966646D01*
X153817051Y-122268209D01*
X153258171Y-122826114D01*
X152955335Y-123555425D01*
X152954646Y-124345111D01*
X152381440Y-124345111D01*
X152381440Y-123602362D01*
X154027702Y-121956100D01*
X158448860Y-121956100D01*
X158484470Y-122042283D01*
X158877110Y-122435609D01*
X159390380Y-122648737D01*
X159946141Y-122649222D01*
X160459783Y-122436990D01*
X160853109Y-122044350D01*
X160939429Y-121836468D01*
X161024470Y-122042283D01*
X161417110Y-122435609D01*
X161930380Y-122648737D01*
X162486141Y-122649222D01*
X162999783Y-122436990D01*
X163393109Y-122044350D01*
X163606237Y-121531080D01*
X163606722Y-120975319D01*
X163394490Y-120461677D01*
X163185648Y-120252470D01*
X163213666Y-120224500D01*
X166433495Y-120224500D01*
X166433500Y-120224501D01*
X166829577Y-120145715D01*
X167165356Y-119921356D01*
X169006853Y-118079858D01*
X169006856Y-118079856D01*
X169163113Y-117846000D01*
X169231215Y-117744078D01*
X169310000Y-117348000D01*
X169310000Y-116085440D01*
X169398000Y-116085440D01*
X169645765Y-116036157D01*
X169855809Y-115895809D01*
X169996157Y-115685765D01*
X170045440Y-115438000D01*
X170045440Y-114538000D01*
X169996157Y-114290235D01*
X169855809Y-114080191D01*
X169645765Y-113939843D01*
X169398000Y-113890560D01*
X166898000Y-113890560D01*
X166650235Y-113939843D01*
X166440191Y-114080191D01*
X166299843Y-114290235D01*
X166250560Y-114538000D01*
X166250560Y-115438000D01*
X166299843Y-115685765D01*
X166440191Y-115895809D01*
X166650235Y-116036157D01*
X166898000Y-116085440D01*
X167240000Y-116085440D01*
X167240000Y-116919289D01*
X166004788Y-118154500D01*
X163086831Y-118154500D01*
X163001850Y-118069371D01*
X162488580Y-117856243D01*
X161932819Y-117855758D01*
X161419177Y-118067990D01*
X161025851Y-118460630D01*
X160939531Y-118668512D01*
X160854490Y-118462697D01*
X160461850Y-118069371D01*
X159948580Y-117856243D01*
X159392819Y-117855758D01*
X158879177Y-118067990D01*
X158517035Y-118429500D01*
X153669292Y-118429500D01*
X153660839Y-118423852D01*
X153370000Y-118366000D01*
X153079161Y-118423852D01*
X152832599Y-118588599D01*
X151306638Y-120114560D01*
X151280000Y-120114560D01*
X151280000Y-117587440D01*
X151595000Y-117587440D01*
X151842765Y-117538157D01*
X152052809Y-117397809D01*
X152193157Y-117187765D01*
X152242440Y-116940000D01*
X152242440Y-115440000D01*
X152235597Y-115405597D01*
X152270000Y-115412440D01*
X153770000Y-115412440D01*
X154017765Y-115363157D01*
X154227809Y-115222809D01*
X154368157Y-115012765D01*
X154417440Y-114765000D01*
X154417440Y-114450000D01*
X158475228Y-114450000D01*
X158766067Y-114392148D01*
X159012629Y-114227401D01*
X159626232Y-113613798D01*
X160866280Y-112373750D01*
X166263000Y-112373750D01*
X166263000Y-112664309D01*
X166359673Y-112897698D01*
X166538301Y-113076327D01*
X166771690Y-113173000D01*
X167862250Y-113173000D01*
X168021000Y-113014250D01*
X168021000Y-112215000D01*
X168275000Y-112215000D01*
X168275000Y-113014250D01*
X168433750Y-113173000D01*
X169524310Y-113173000D01*
X169757699Y-113076327D01*
X169936327Y-112897698D01*
X170033000Y-112664309D01*
X170033000Y-112373750D01*
X169874250Y-112215000D01*
X168275000Y-112215000D01*
X168021000Y-112215000D01*
X166421750Y-112215000D01*
X166263000Y-112373750D01*
X160866280Y-112373750D01*
X161728339Y-111511691D01*
X166263000Y-111511691D01*
X166263000Y-111802250D01*
X166421750Y-111961000D01*
X168021000Y-111961000D01*
X168021000Y-111161750D01*
X168275000Y-111161750D01*
X168275000Y-111961000D01*
X169874250Y-111961000D01*
X170033000Y-111802250D01*
X170033000Y-111511691D01*
X169936327Y-111278302D01*
X169757699Y-111099673D01*
X169524310Y-111003000D01*
X168433750Y-111003000D01*
X168275000Y-111161750D01*
X168021000Y-111161750D01*
X167862250Y-111003000D01*
X166771690Y-111003000D01*
X166538301Y-111099673D01*
X166359673Y-111278302D01*
X166263000Y-111511691D01*
X161728339Y-111511691D01*
X165145932Y-108094102D01*
X165270480Y-107907701D01*
X165310679Y-107847539D01*
X165368531Y-107556700D01*
X165368531Y-101758750D01*
X165745000Y-101758750D01*
X165745000Y-102099309D01*
X165841673Y-102332698D01*
X166020301Y-102511327D01*
X166253690Y-102608000D01*
X166719250Y-102608000D01*
X166878000Y-102449250D01*
X166878000Y-101600000D01*
X167132000Y-101600000D01*
X167132000Y-102449250D01*
X167290750Y-102608000D01*
X167756310Y-102608000D01*
X167989699Y-102511327D01*
X168168327Y-102332698D01*
X168265000Y-102099309D01*
X168265000Y-101758750D01*
X168106250Y-101600000D01*
X167132000Y-101600000D01*
X166878000Y-101600000D01*
X165903750Y-101600000D01*
X165745000Y-101758750D01*
X165368531Y-101758750D01*
X165368531Y-98973000D01*
X165732560Y-98973000D01*
X165732560Y-99973000D01*
X165781843Y-100220765D01*
X165922191Y-100430809D01*
X165983320Y-100471654D01*
X165841673Y-100613302D01*
X165745000Y-100846691D01*
X165745000Y-101187250D01*
X165903750Y-101346000D01*
X166878000Y-101346000D01*
X166878000Y-101326000D01*
X167132000Y-101326000D01*
X167132000Y-101346000D01*
X168106250Y-101346000D01*
X168265000Y-101187250D01*
X168265000Y-100846691D01*
X168168327Y-100613302D01*
X168026680Y-100471654D01*
X168087809Y-100430809D01*
X168228157Y-100220765D01*
X168277440Y-99973000D01*
X168277440Y-98973000D01*
X168228157Y-98725235D01*
X168087809Y-98515191D01*
X167940008Y-98416433D01*
X167940162Y-98239833D01*
X167798117Y-97896057D01*
X167535327Y-97632808D01*
X167191799Y-97490162D01*
X166819833Y-97489838D01*
X166476057Y-97631883D01*
X166212808Y-97894673D01*
X166070162Y-98238201D01*
X166070007Y-98416423D01*
X165922191Y-98515191D01*
X165781843Y-98725235D01*
X165732560Y-98973000D01*
X165368531Y-98973000D01*
X165368531Y-97675299D01*
X165310679Y-97384460D01*
X165145932Y-97137898D01*
X163974101Y-95966066D01*
X163727540Y-95801319D01*
X163436700Y-95743467D01*
X159997533Y-95743467D01*
X159706693Y-95801319D01*
X159460132Y-95966066D01*
X157352638Y-98073560D01*
X157180000Y-98073560D01*
X156932235Y-98122843D01*
X156845000Y-98181132D01*
X156757765Y-98122843D01*
X156510000Y-98073560D01*
X155910000Y-98073560D01*
X155662235Y-98122843D01*
X155575000Y-98181132D01*
X155487765Y-98122843D01*
X155240000Y-98073560D01*
X154640000Y-98073560D01*
X154392235Y-98122843D01*
X154305000Y-98181132D01*
X154217765Y-98122843D01*
X153970000Y-98073560D01*
X153370000Y-98073560D01*
X153122235Y-98122843D01*
X153035000Y-98181132D01*
X152947765Y-98122843D01*
X152700000Y-98073560D01*
X152100000Y-98073560D01*
X152065080Y-98080506D01*
X152065162Y-97985833D01*
X151923117Y-97642057D01*
X151660327Y-97378808D01*
X151316799Y-97236162D01*
X150944833Y-97235838D01*
X150601057Y-97377883D01*
X150337808Y-97640673D01*
X150195162Y-97984201D01*
X150194838Y-98356167D01*
X150238866Y-98462724D01*
X150231843Y-98473235D01*
X150182560Y-98721000D01*
X150182560Y-100671000D01*
X150231843Y-100918765D01*
X150372191Y-101128809D01*
X150582235Y-101269157D01*
X150830000Y-101318440D01*
X151430000Y-101318440D01*
X151464919Y-101311494D01*
X151464838Y-101404167D01*
X151606883Y-101747943D01*
X151869673Y-102011192D01*
X152213201Y-102153838D01*
X152585167Y-102154162D01*
X152928943Y-102012117D01*
X153034954Y-101906290D01*
X153139673Y-102011192D01*
X153483201Y-102153838D01*
X153855167Y-102154162D01*
X154198943Y-102012117D01*
X154304954Y-101906290D01*
X154409673Y-102011192D01*
X154753201Y-102153838D01*
X155125167Y-102154162D01*
X155468943Y-102012117D01*
X155574954Y-101906290D01*
X155679673Y-102011192D01*
X156023201Y-102153838D01*
X156395167Y-102154162D01*
X156738943Y-102012117D01*
X157002192Y-101749327D01*
X157144838Y-101405799D01*
X157144920Y-101311462D01*
X157180000Y-101318440D01*
X157780000Y-101318440D01*
X158027765Y-101269157D01*
X158115000Y-101210868D01*
X158202235Y-101269157D01*
X158450000Y-101318440D01*
X159050000Y-101318440D01*
X159297765Y-101269157D01*
X159385000Y-101210868D01*
X159472235Y-101269157D01*
X159720000Y-101318440D01*
X160320000Y-101318440D01*
X160567765Y-101269157D01*
X160655000Y-101210868D01*
X160742235Y-101269157D01*
X160990000Y-101318440D01*
X161590000Y-101318440D01*
X161837765Y-101269157D01*
X161916972Y-101216232D01*
X162133690Y-101306000D01*
X162274250Y-101306000D01*
X162432998Y-101147252D01*
X162432998Y-101306000D01*
X162492990Y-101306000D01*
X162492990Y-106688208D01*
X158651198Y-110530000D01*
X154417440Y-110530000D01*
X154417440Y-110215000D01*
X154396783Y-110111148D01*
X154405000Y-110091310D01*
X154405000Y-109975750D01*
X154311112Y-109881862D01*
X154267774Y-109817002D01*
X154405000Y-109817002D01*
X154405000Y-109710477D01*
X154617167Y-109710662D01*
X154960943Y-109568617D01*
X155224192Y-109305827D01*
X155366838Y-108962299D01*
X155367152Y-108600750D01*
X156855000Y-108600750D01*
X156855000Y-108941309D01*
X156951673Y-109174698D01*
X157130301Y-109353327D01*
X157363690Y-109450000D01*
X157829250Y-109450000D01*
X157988000Y-109291250D01*
X157988000Y-108442000D01*
X158242000Y-108442000D01*
X158242000Y-109291250D01*
X158400750Y-109450000D01*
X158866310Y-109450000D01*
X159099699Y-109353327D01*
X159278327Y-109174698D01*
X159375000Y-108941309D01*
X159375000Y-108600750D01*
X159216250Y-108442000D01*
X158242000Y-108442000D01*
X157988000Y-108442000D01*
X157013750Y-108442000D01*
X156855000Y-108600750D01*
X155367152Y-108600750D01*
X155367162Y-108590333D01*
X155225117Y-108246557D01*
X154962327Y-107983308D01*
X154618799Y-107840662D01*
X154417440Y-107840487D01*
X154417440Y-107815000D01*
X154392576Y-107690000D01*
X154417440Y-107565000D01*
X154417440Y-107015000D01*
X154392576Y-106890000D01*
X154417440Y-106765000D01*
X154417440Y-106215000D01*
X154368157Y-105967235D01*
X154266437Y-105815000D01*
X156842560Y-105815000D01*
X156842560Y-106815000D01*
X156891843Y-107062765D01*
X157032191Y-107272809D01*
X157093320Y-107313654D01*
X156951673Y-107455302D01*
X156855000Y-107688691D01*
X156855000Y-108029250D01*
X157013750Y-108188000D01*
X157988000Y-108188000D01*
X157988000Y-108168000D01*
X158242000Y-108168000D01*
X158242000Y-108188000D01*
X159216250Y-108188000D01*
X159375000Y-108029250D01*
X159375000Y-107688691D01*
X159278327Y-107455302D01*
X159136680Y-107313654D01*
X159197809Y-107272809D01*
X159338157Y-107062765D01*
X159387440Y-106815000D01*
X159387440Y-105815000D01*
X159338157Y-105567235D01*
X159197809Y-105357191D01*
X159050077Y-105258479D01*
X159050162Y-105161333D01*
X158908117Y-104817557D01*
X158645327Y-104554308D01*
X158301799Y-104411662D01*
X157929833Y-104411338D01*
X157586057Y-104553383D01*
X157322808Y-104816173D01*
X157180162Y-105159701D01*
X157180076Y-105258377D01*
X157032191Y-105357191D01*
X156891843Y-105567235D01*
X156842560Y-105815000D01*
X154266437Y-105815000D01*
X154227809Y-105757191D01*
X154017765Y-105616843D01*
X153770000Y-105567560D01*
X153751169Y-105567560D01*
X153722148Y-105421661D01*
X153557401Y-105175099D01*
X153208122Y-104825820D01*
X153208162Y-104780333D01*
X153066117Y-104436557D01*
X152803327Y-104173308D01*
X152459799Y-104030662D01*
X152240545Y-104030471D01*
X152193157Y-103792235D01*
X152052809Y-103582191D01*
X151842765Y-103441843D01*
X151595000Y-103392560D01*
X151045000Y-103392560D01*
X150920000Y-103417424D01*
X150795000Y-103392560D01*
X150350920Y-103392560D01*
X150257401Y-103252599D01*
X149591401Y-102586599D01*
X149344839Y-102421852D01*
X149054000Y-102364000D01*
X148650802Y-102364000D01*
X148309922Y-102023120D01*
X148483202Y-101850142D01*
X148625848Y-101506614D01*
X148625889Y-101459738D01*
X148929162Y-101156465D01*
X149093909Y-100909903D01*
X149151761Y-100619064D01*
X149151761Y-97083761D01*
X149093909Y-96792922D01*
X148929162Y-96546360D01*
X148220472Y-95837670D01*
X148220608Y-95681528D01*
X148064521Y-95303768D01*
X147907900Y-95146874D01*
X148108891Y-95123453D01*
X148233749Y-94734253D01*
X148200163Y-94326899D01*
X148108891Y-94106547D01*
X147904837Y-94082769D01*
X147372605Y-94615000D01*
X147386748Y-94629142D01*
X147207143Y-94808748D01*
X147193000Y-94794605D01*
X147178858Y-94808748D01*
X146999253Y-94629143D01*
X147013395Y-94615000D01*
X146999253Y-94600858D01*
X147178858Y-94421253D01*
X147193000Y-94435395D01*
X147725231Y-93903163D01*
X147701453Y-93699109D01*
X147641450Y-93679860D01*
X147686834Y-93570563D01*
X147687226Y-93121407D01*
X147515703Y-92706291D01*
X147198379Y-92388413D01*
X146783563Y-92216166D01*
X146334407Y-92215774D01*
X145919291Y-92387297D01*
X145601413Y-92704621D01*
X145450606Y-93067804D01*
X144717000Y-92334198D01*
X144717000Y-91690754D01*
X144764809Y-91658809D01*
X144905157Y-91448765D01*
X144910721Y-91420791D01*
X144968673Y-91560699D01*
X145147302Y-91739327D01*
X145380691Y-91836000D01*
X145571250Y-91836000D01*
X145730000Y-91677250D01*
X145730000Y-90678000D01*
X145984000Y-90678000D01*
X145984000Y-91677250D01*
X146142750Y-91836000D01*
X146333309Y-91836000D01*
X146566698Y-91739327D01*
X146745327Y-91560699D01*
X146842000Y-91327310D01*
X146842000Y-90836750D01*
X146683250Y-90678000D01*
X145984000Y-90678000D01*
X145730000Y-90678000D01*
X145710000Y-90678000D01*
X145710000Y-90424000D01*
X145730000Y-90424000D01*
X145730000Y-90404000D01*
X145984000Y-90404000D01*
X145984000Y-90424000D01*
X146683250Y-90424000D01*
X146842000Y-90265250D01*
X146842000Y-89774690D01*
X146745327Y-89541301D01*
X146673526Y-89469500D01*
X147068698Y-89469500D01*
X147449000Y-89849802D01*
X147449000Y-92202000D01*
X147506852Y-92492839D01*
X147671599Y-92739401D01*
X149115378Y-94183180D01*
X149115338Y-94228667D01*
X149257383Y-94572443D01*
X149520173Y-94835692D01*
X149863701Y-94978338D01*
X150235667Y-94978662D01*
X150579443Y-94836617D01*
X150803451Y-94613000D01*
X159678000Y-94613000D01*
X159968839Y-94555148D01*
X160215401Y-94390401D01*
X162687362Y-91918440D01*
X162860000Y-91918440D01*
X163107765Y-91869157D01*
X163317809Y-91728809D01*
X163458157Y-91518765D01*
X163507440Y-91271000D01*
X163507440Y-89321000D01*
X163458157Y-89073235D01*
X163317809Y-88863191D01*
X163107765Y-88722843D01*
X162860000Y-88673560D01*
X162260000Y-88673560D01*
X162050000Y-88715331D01*
X162050000Y-77595158D01*
X165315513Y-77595158D01*
X165655085Y-78416985D01*
X166283308Y-79046305D01*
X167104541Y-79387311D01*
X167993758Y-79388087D01*
X168815585Y-79048515D01*
X169444905Y-78420292D01*
X169785911Y-77599059D01*
X169786687Y-76709842D01*
X169447115Y-75888015D01*
X168818892Y-75258695D01*
X167997659Y-74917689D01*
X167108442Y-74916913D01*
X166286615Y-75256485D01*
X165657295Y-75884708D01*
X165316289Y-76705941D01*
X165315513Y-77595158D01*
X162050000Y-77595158D01*
X162050000Y-75946000D01*
X162014235Y-75766200D01*
X161992148Y-75655160D01*
X161827401Y-75408599D01*
X158964078Y-72545276D01*
X158717516Y-72380529D01*
X158426677Y-72322677D01*
X150310323Y-72322677D01*
X150019484Y-72380529D01*
X149772922Y-72545276D01*
X149005099Y-73313099D01*
X148840352Y-73559661D01*
X148782500Y-73850500D01*
X148782500Y-73880664D01*
X148462762Y-74199845D01*
X148139853Y-73876373D01*
X147649913Y-73672932D01*
X147119414Y-73672469D01*
X146629120Y-73875054D01*
X146303762Y-74199845D01*
X145980853Y-73876373D01*
X145490913Y-73672932D01*
X144960414Y-73672469D01*
X144470120Y-73875054D01*
X144144762Y-74199845D01*
X143821853Y-73876373D01*
X143331913Y-73672932D01*
X142801414Y-73672469D01*
X142311120Y-73875054D01*
X141985762Y-74199845D01*
X141662853Y-73876373D01*
X141172913Y-73672932D01*
X140642414Y-73672469D01*
X140152120Y-73875054D01*
X139826762Y-74199845D01*
X139503853Y-73876373D01*
X139013913Y-73672932D01*
X138483414Y-73672469D01*
X137993120Y-73875054D01*
X137667762Y-74199845D01*
X137344853Y-73876373D01*
X136854913Y-73672932D01*
X136324414Y-73672469D01*
X135834120Y-73875054D01*
X135508762Y-74199845D01*
X135185853Y-73876373D01*
X134695913Y-73672932D01*
X134165414Y-73672469D01*
X133675120Y-73875054D01*
X133349762Y-74199845D01*
X133026853Y-73876373D01*
X132536913Y-73672932D01*
X132006414Y-73672469D01*
X131516120Y-73875054D01*
X131140673Y-74249847D01*
X130937232Y-74739787D01*
X130936769Y-75270286D01*
X131139354Y-75760580D01*
X131514147Y-76136027D01*
X132004087Y-76339468D01*
X132534586Y-76339931D01*
X133024880Y-76137346D01*
X133350238Y-75812555D01*
X133673147Y-76136027D01*
X134151176Y-76334522D01*
X134024601Y-76419097D01*
X132812599Y-77631099D01*
X132647852Y-77877661D01*
X132623243Y-78001379D01*
X132536913Y-77965532D01*
X132006414Y-77965069D01*
X131516120Y-78167654D01*
X131140673Y-78542447D01*
X130937232Y-79032387D01*
X130936769Y-79562886D01*
X131139354Y-80053180D01*
X131510500Y-80424974D01*
X131510500Y-84076698D01*
X128311638Y-87275560D01*
X127492000Y-87275560D01*
X127244235Y-87324843D01*
X127034191Y-87465191D01*
X126893843Y-87675235D01*
X126844560Y-87923000D01*
X126844560Y-88834393D01*
X126757852Y-88964161D01*
X126700000Y-89255000D01*
X126700000Y-90431018D01*
X126502191Y-90563191D01*
X126361843Y-90773235D01*
X126312560Y-91021000D01*
X126312560Y-92621000D01*
X126361843Y-92868765D01*
X126502191Y-93078809D01*
X126712235Y-93219157D01*
X126960000Y-93268440D01*
X127960000Y-93268440D01*
X128207765Y-93219157D01*
X128417809Y-93078809D01*
X128558157Y-92868765D01*
X128607440Y-92621000D01*
X128607440Y-91021000D01*
X128558157Y-90773235D01*
X128417809Y-90563191D01*
X128220000Y-90431018D01*
X128220000Y-90270440D01*
X128392000Y-90270440D01*
X128639765Y-90221157D01*
X128849809Y-90080809D01*
X128990157Y-89870765D01*
X129039440Y-89623000D01*
X129039440Y-88697362D01*
X132807901Y-84928901D01*
X132972648Y-84682340D01*
X133018594Y-84451353D01*
X133030500Y-84391500D01*
X133030500Y-81590802D01*
X133860000Y-82420302D01*
X133860000Y-88715331D01*
X133650000Y-88673560D01*
X133050000Y-88673560D01*
X132802235Y-88722843D01*
X132715000Y-88781132D01*
X132627765Y-88722843D01*
X132380000Y-88673560D01*
X131780000Y-88673560D01*
X131532235Y-88722843D01*
X131445000Y-88781132D01*
X131357765Y-88722843D01*
X131110000Y-88673560D01*
X130510000Y-88673560D01*
X130262235Y-88722843D01*
X130052191Y-88863191D01*
X129911843Y-89073235D01*
X129862560Y-89321000D01*
X129862560Y-91271000D01*
X129889868Y-91408286D01*
X129875162Y-91443701D01*
X129874838Y-91815667D01*
X130016883Y-92159443D01*
X130279673Y-92422692D01*
X130623201Y-92565338D01*
X130995167Y-92565662D01*
X131338943Y-92423617D01*
X131602192Y-92160827D01*
X131619894Y-92118196D01*
X132685599Y-93183901D01*
X132932161Y-93348648D01*
X133223000Y-93406500D01*
X135826500Y-93406500D01*
X136117339Y-93348648D01*
X136363901Y-93183901D01*
X137062401Y-92485401D01*
X137227148Y-92238840D01*
X137285000Y-91948000D01*
X137285000Y-91918440D01*
X137460000Y-91918440D01*
X137692802Y-91872133D01*
X137727852Y-92048339D01*
X137892599Y-92294901D01*
X138337099Y-92739401D01*
X138583661Y-92904148D01*
X138874500Y-92962000D01*
X139890500Y-92962000D01*
X140181339Y-92904148D01*
X140427901Y-92739401D01*
X140872401Y-92294901D01*
X141037148Y-92048339D01*
X141062987Y-91918440D01*
X141270000Y-91918440D01*
X141517765Y-91869157D01*
X141605000Y-91810868D01*
X141692235Y-91869157D01*
X141940000Y-91918440D01*
X142540000Y-91918440D01*
X142787765Y-91869157D01*
X142997809Y-91728809D01*
X143096886Y-91580530D01*
X143149191Y-91658809D01*
X143197000Y-91690754D01*
X143197000Y-92649000D01*
X143254852Y-92939839D01*
X143419599Y-93186401D01*
X144570709Y-94337511D01*
X143998597Y-94909622D01*
X143833850Y-95156184D01*
X143775998Y-95447023D01*
X143775998Y-96185002D01*
X143833850Y-96475841D01*
X143964239Y-96670982D01*
X143964239Y-101475000D01*
X142554802Y-101475000D01*
X142367002Y-101287200D01*
X142367002Y-101147252D01*
X142525750Y-101306000D01*
X142666310Y-101306000D01*
X142899699Y-101209327D01*
X143078327Y-101030698D01*
X143175000Y-100797309D01*
X143175000Y-99981750D01*
X143016250Y-99823000D01*
X142367000Y-99823000D01*
X142367000Y-99843000D01*
X142113000Y-99843000D01*
X142113000Y-99823000D01*
X142093000Y-99823000D01*
X142093000Y-99569000D01*
X142113000Y-99569000D01*
X142113000Y-98244750D01*
X142367000Y-98244750D01*
X142367000Y-99569000D01*
X143016250Y-99569000D01*
X143175000Y-99410250D01*
X143175000Y-98594691D01*
X143078327Y-98361302D01*
X142899699Y-98182673D01*
X142666310Y-98086000D01*
X142525750Y-98086000D01*
X142367000Y-98244750D01*
X142113000Y-98244750D01*
X141954250Y-98086000D01*
X141813690Y-98086000D01*
X141596972Y-98175768D01*
X141517765Y-98122843D01*
X141270000Y-98073560D01*
X140670000Y-98073560D01*
X140422235Y-98122843D01*
X140335000Y-98181132D01*
X140247765Y-98122843D01*
X140000000Y-98073560D01*
X139400000Y-98073560D01*
X139152235Y-98122843D01*
X139065000Y-98181132D01*
X138977765Y-98122843D01*
X138730000Y-98073560D01*
X138130000Y-98073560D01*
X137882235Y-98122843D01*
X137795000Y-98181132D01*
X137707765Y-98122843D01*
X137460000Y-98073560D01*
X136860000Y-98073560D01*
X136612235Y-98122843D01*
X136525000Y-98181132D01*
X136437765Y-98122843D01*
X136190000Y-98073560D01*
X135590000Y-98073560D01*
X135342235Y-98122843D01*
X135255000Y-98181132D01*
X135167765Y-98122843D01*
X134920000Y-98073560D01*
X134320000Y-98073560D01*
X134072235Y-98122843D01*
X133985000Y-98181132D01*
X133897765Y-98122843D01*
X133650000Y-98073560D01*
X133050000Y-98073560D01*
X132802235Y-98122843D01*
X132715000Y-98181132D01*
X132627765Y-98122843D01*
X132380000Y-98073560D01*
X131780000Y-98073560D01*
X131532235Y-98122843D01*
X131445000Y-98181132D01*
X131357765Y-98122843D01*
X131110000Y-98073560D01*
X130510000Y-98073560D01*
X130262235Y-98122843D01*
X130052191Y-98263191D01*
X129911843Y-98473235D01*
X129862560Y-98721000D01*
X129862560Y-100671000D01*
X129911843Y-100918765D01*
X129918271Y-100928384D01*
X129875162Y-101032201D01*
X129874838Y-101404167D01*
X130016883Y-101747943D01*
X130279673Y-102011192D01*
X130623201Y-102153838D01*
X130995167Y-102154162D01*
X131338943Y-102012117D01*
X131461799Y-101889475D01*
X131542599Y-102010401D01*
X133146629Y-103614431D01*
X133393191Y-103779178D01*
X133684030Y-103837030D01*
X136161818Y-103837030D01*
X138621348Y-106296560D01*
X137787000Y-106296560D01*
X137539235Y-106345843D01*
X137329191Y-106486191D01*
X137287000Y-106549334D01*
X137244809Y-106486191D01*
X137034765Y-106345843D01*
X136787000Y-106296560D01*
X135787000Y-106296560D01*
X135539235Y-106345843D01*
X135329191Y-106486191D01*
X135188843Y-106696235D01*
X135139560Y-106944000D01*
X135139560Y-108194000D01*
X135188843Y-108441765D01*
X135329191Y-108651809D01*
X135440521Y-108726198D01*
X135246235Y-108764843D01*
X135036191Y-108905191D01*
X134895843Y-109115235D01*
X134846560Y-109363000D01*
X134846560Y-111363000D01*
X134895843Y-111610765D01*
X135036191Y-111820809D01*
X135246235Y-111961157D01*
X135494000Y-112010440D01*
X136366638Y-112010440D01*
X136983599Y-112627401D01*
X137230161Y-112792148D01*
X137519297Y-112849661D01*
X137436191Y-112905191D01*
X137344000Y-113043164D01*
X137251809Y-112905191D01*
X137041765Y-112764843D01*
X136794000Y-112715560D01*
X135494000Y-112715560D01*
X135246235Y-112764843D01*
X135036191Y-112905191D01*
X134895843Y-113115235D01*
X134846560Y-113363000D01*
X134846560Y-115363000D01*
X134895843Y-115610765D01*
X135036191Y-115820809D01*
X135246235Y-115961157D01*
X135367969Y-115985371D01*
X135367849Y-116123051D01*
X135345191Y-116138191D01*
X135204843Y-116348235D01*
X135155560Y-116596000D01*
X135155560Y-117846000D01*
X135204843Y-118093765D01*
X135345191Y-118303809D01*
X135555235Y-118444157D01*
X135803000Y-118493440D01*
X136803000Y-118493440D01*
X137050765Y-118444157D01*
X137260809Y-118303809D01*
X137303000Y-118240666D01*
X137345191Y-118303809D01*
X137555235Y-118444157D01*
X137803000Y-118493440D01*
X138803000Y-118493440D01*
X138813000Y-118491451D01*
X138813000Y-118684198D01*
X138369198Y-119128000D01*
X134045802Y-119128000D01*
X133602000Y-118684198D01*
X133602000Y-111506000D01*
X133589202Y-111441659D01*
X133544148Y-111215160D01*
X133379401Y-110968599D01*
X130173000Y-107762198D01*
X130173000Y-106815000D01*
X130934560Y-106815000D01*
X130934560Y-107815000D01*
X130983843Y-108062765D01*
X131124191Y-108272809D01*
X131271853Y-108371475D01*
X131271838Y-108389167D01*
X131413883Y-108732943D01*
X131676673Y-108996192D01*
X132020201Y-109138838D01*
X132392167Y-109139162D01*
X132735943Y-108997117D01*
X132999192Y-108734327D01*
X133141838Y-108390799D01*
X133141855Y-108371670D01*
X133289809Y-108272809D01*
X133430157Y-108062765D01*
X133479440Y-107815000D01*
X133479440Y-106815000D01*
X133430157Y-106567235D01*
X133289809Y-106357191D01*
X133228680Y-106316346D01*
X133370327Y-106174698D01*
X133467000Y-105941309D01*
X133467000Y-105600750D01*
X133308250Y-105442000D01*
X132334000Y-105442000D01*
X132334000Y-105462000D01*
X132080000Y-105462000D01*
X132080000Y-105442000D01*
X131105750Y-105442000D01*
X130947000Y-105600750D01*
X130947000Y-105941309D01*
X131043673Y-106174698D01*
X131185320Y-106316346D01*
X131124191Y-106357191D01*
X130983843Y-106567235D01*
X130934560Y-106815000D01*
X130173000Y-106815000D01*
X130173000Y-104725000D01*
X130165778Y-104688691D01*
X130947000Y-104688691D01*
X130947000Y-105029250D01*
X131105750Y-105188000D01*
X132080000Y-105188000D01*
X132080000Y-104338750D01*
X132334000Y-104338750D01*
X132334000Y-105188000D01*
X133308250Y-105188000D01*
X133467000Y-105029250D01*
X133467000Y-104688691D01*
X133370327Y-104455302D01*
X133191699Y-104276673D01*
X132958310Y-104180000D01*
X132492750Y-104180000D01*
X132334000Y-104338750D01*
X132080000Y-104338750D01*
X131921250Y-104180000D01*
X131455690Y-104180000D01*
X131222301Y-104276673D01*
X131043673Y-104455302D01*
X130947000Y-104688691D01*
X130165778Y-104688691D01*
X130115148Y-104434161D01*
X129950401Y-104187599D01*
X128664798Y-102901996D01*
X128693440Y-102758000D01*
X128693440Y-101458000D01*
X128644157Y-101210235D01*
X128503809Y-101000191D01*
X128293765Y-100859843D01*
X128046000Y-100810560D01*
X127346000Y-100810560D01*
X127098235Y-100859843D01*
X126888191Y-101000191D01*
X126747843Y-101210235D01*
X126746000Y-101219500D01*
X126744157Y-101210235D01*
X126603809Y-101000191D01*
X126393765Y-100859843D01*
X126146000Y-100810560D01*
X125446000Y-100810560D01*
X125198235Y-100859843D01*
X124988191Y-101000191D01*
X124847843Y-101210235D01*
X124798560Y-101458000D01*
X124798560Y-101729000D01*
X124660440Y-101729000D01*
X124660440Y-101489000D01*
X124611157Y-101241235D01*
X124470809Y-101031191D01*
X124260765Y-100890843D01*
X124013000Y-100841560D01*
X122113000Y-100841560D01*
X121865235Y-100890843D01*
X121655191Y-101031191D01*
X121515702Y-101239949D01*
X121422003Y-101146086D01*
X120839659Y-100904276D01*
X120209107Y-100903725D01*
X119626343Y-101144519D01*
X119180086Y-101589997D01*
X118938276Y-102172341D01*
X118937725Y-102802893D01*
X116326195Y-102802893D01*
X116326195Y-97348550D01*
X125473300Y-97348550D01*
X125473300Y-97689109D01*
X125569973Y-97922498D01*
X125748601Y-98101127D01*
X125981990Y-98197800D01*
X126447550Y-98197800D01*
X126606300Y-98039050D01*
X126606300Y-97189800D01*
X126860300Y-97189800D01*
X126860300Y-98039050D01*
X127019050Y-98197800D01*
X127484610Y-98197800D01*
X127717999Y-98101127D01*
X127896627Y-97922498D01*
X127993300Y-97689109D01*
X127993300Y-97348550D01*
X127834550Y-97189800D01*
X126860300Y-97189800D01*
X126606300Y-97189800D01*
X125632050Y-97189800D01*
X125473300Y-97348550D01*
X116326195Y-97348550D01*
X116326195Y-96122583D01*
X118946822Y-96122583D01*
X119012992Y-96109421D01*
X119080459Y-96109421D01*
X120349471Y-95856999D01*
X120443265Y-95818148D01*
X120596401Y-95754718D01*
X121359744Y-95244667D01*
X124731338Y-95244667D01*
X124873383Y-95588443D01*
X125136173Y-95851692D01*
X125479701Y-95994338D01*
X125633026Y-95994472D01*
X125650491Y-96020609D01*
X125711620Y-96061454D01*
X125569973Y-96203102D01*
X125473300Y-96436491D01*
X125473300Y-96777050D01*
X125632050Y-96935800D01*
X126606300Y-96935800D01*
X126606300Y-96915800D01*
X126860300Y-96915800D01*
X126860300Y-96935800D01*
X127834550Y-96935800D01*
X127993300Y-96777050D01*
X127993300Y-96436491D01*
X127896627Y-96203102D01*
X127754980Y-96061454D01*
X127816109Y-96020609D01*
X127956457Y-95810565D01*
X128005740Y-95562800D01*
X128005740Y-94562800D01*
X127956457Y-94315035D01*
X127816109Y-94104991D01*
X127606065Y-93964643D01*
X127358300Y-93915360D01*
X126108300Y-93915360D01*
X125860535Y-93964643D01*
X125650491Y-94104991D01*
X125637473Y-94124474D01*
X125481333Y-94124338D01*
X125137557Y-94266383D01*
X124874308Y-94529173D01*
X124731662Y-94872701D01*
X124731338Y-95244667D01*
X121359744Y-95244667D01*
X121672219Y-95035878D01*
X121804996Y-94903101D01*
X121861210Y-94846888D01*
X122580049Y-93771069D01*
X122682330Y-93524141D01*
X122682330Y-93524140D01*
X122934752Y-92255128D01*
X122934752Y-91987854D01*
X122742434Y-91021000D01*
X123312560Y-91021000D01*
X123312560Y-92621000D01*
X123361843Y-92868765D01*
X123502191Y-93078809D01*
X123524997Y-93094047D01*
X123524838Y-93276167D01*
X123666883Y-93619943D01*
X123929673Y-93883192D01*
X124273201Y-94025838D01*
X124645167Y-94026162D01*
X124988943Y-93884117D01*
X125252192Y-93621327D01*
X125394838Y-93277799D01*
X125394998Y-93094051D01*
X125417809Y-93078809D01*
X125558157Y-92868765D01*
X125607440Y-92621000D01*
X125607440Y-91021000D01*
X125558157Y-90773235D01*
X125417809Y-90563191D01*
X125207765Y-90422843D01*
X124960000Y-90373560D01*
X123960000Y-90373560D01*
X123712235Y-90422843D01*
X123502191Y-90563191D01*
X123361843Y-90773235D01*
X123312560Y-91021000D01*
X122742434Y-91021000D01*
X122682330Y-90718841D01*
X122665413Y-90678000D01*
X122580049Y-90471913D01*
X121861210Y-89396094D01*
X121720115Y-89255000D01*
X121672219Y-89207104D01*
X121299660Y-88958167D01*
X123207338Y-88958167D01*
X123349383Y-89301943D01*
X123612173Y-89565192D01*
X123955701Y-89707838D01*
X123961436Y-89707843D01*
X123993843Y-89870765D01*
X124134191Y-90080809D01*
X124344235Y-90221157D01*
X124592000Y-90270440D01*
X125492000Y-90270440D01*
X125739765Y-90221157D01*
X125949809Y-90080809D01*
X126090157Y-89870765D01*
X126139440Y-89623000D01*
X126139440Y-87923000D01*
X126090157Y-87675235D01*
X125949809Y-87465191D01*
X125739765Y-87324843D01*
X125492000Y-87275560D01*
X124592000Y-87275560D01*
X124344235Y-87324843D01*
X124134191Y-87465191D01*
X123993843Y-87675235D01*
X123961499Y-87837842D01*
X123957333Y-87837838D01*
X123613557Y-87979883D01*
X123350308Y-88242673D01*
X123207662Y-88586201D01*
X123207338Y-88958167D01*
X121299660Y-88958167D01*
X120596401Y-88488264D01*
X120421796Y-88415941D01*
X120349471Y-88385983D01*
X119080459Y-88133561D01*
X119012987Y-88133561D01*
X118946822Y-88120400D01*
X116326195Y-88120400D01*
X116326195Y-77595158D01*
X118503313Y-77595158D01*
X118842885Y-78416985D01*
X119471108Y-79046305D01*
X120292341Y-79387311D01*
X121181558Y-79388087D01*
X122003385Y-79048515D01*
X122632705Y-78420292D01*
X122973711Y-77599059D01*
X122974487Y-76709842D01*
X122634915Y-75888015D01*
X122006692Y-75258695D01*
X121185459Y-74917689D01*
X120296242Y-74916913D01*
X119474415Y-75256485D01*
X118845095Y-75884708D01*
X118504089Y-76705941D01*
X118503313Y-77595158D01*
X116326195Y-77595158D01*
X116326195Y-71306491D01*
X171567448Y-71306491D01*
X171567448Y-88120400D01*
X171567448Y-88120400D01*
G37*
X171567448Y-88120400D02*
X168946822Y-88120400D01*
X168880652Y-88133562D01*
X167544172Y-88385984D01*
X167297243Y-88488265D01*
X166221428Y-89207103D01*
X166032436Y-89396095D01*
X165313597Y-90471912D01*
X165313597Y-90471913D01*
X165211315Y-90718842D01*
X164958893Y-91987854D01*
X164958894Y-92121491D01*
X164958893Y-92255128D01*
X165211315Y-93524140D01*
X165254502Y-93628401D01*
X165313597Y-93771070D01*
X166032434Y-94846885D01*
X166221426Y-95035877D01*
X167297243Y-95754717D01*
X167544172Y-95856998D01*
X168813185Y-96109420D01*
X168880647Y-96109420D01*
X168946822Y-96122583D01*
X171567448Y-96122583D01*
X171567448Y-127598457D01*
X116326195Y-127598457D01*
X116326195Y-123348750D01*
X133263000Y-123348750D01*
X133263000Y-123814310D01*
X133359673Y-124047699D01*
X133538302Y-124226327D01*
X133771691Y-124323000D01*
X134112250Y-124323000D01*
X134271000Y-124164250D01*
X134271000Y-123190000D01*
X133421750Y-123190000D01*
X133263000Y-123348750D01*
X116326195Y-123348750D01*
X116326195Y-102802893D01*
X118937725Y-102802893D01*
X119178519Y-103385657D01*
X119623997Y-103831914D01*
X120206341Y-104073724D01*
X120836893Y-104074275D01*
X121419657Y-103833481D01*
X121515523Y-103737782D01*
X121655191Y-103946809D01*
X121865235Y-104087157D01*
X122113000Y-104136440D01*
X124013000Y-104136440D01*
X124260765Y-104087157D01*
X124470809Y-103946809D01*
X124611157Y-103736765D01*
X124660440Y-103489000D01*
X124660440Y-103249000D01*
X125037864Y-103249000D01*
X125198235Y-103356157D01*
X125446000Y-103405440D01*
X126146000Y-103405440D01*
X126393765Y-103356157D01*
X126603809Y-103215809D01*
X126744157Y-103005765D01*
X126746000Y-102996500D01*
X126747843Y-103005765D01*
X126888191Y-103215809D01*
X126991001Y-103284505D01*
X126993852Y-103298839D01*
X127158599Y-103545401D01*
X128653000Y-105039802D01*
X128653000Y-107795560D01*
X127981000Y-107795560D01*
X127733235Y-107844843D01*
X127523191Y-107985191D01*
X127382843Y-108195235D01*
X127381000Y-108204500D01*
X127379157Y-108195235D01*
X127238809Y-107985191D01*
X127028765Y-107844843D01*
X126781000Y-107795560D01*
X126081000Y-107795560D01*
X125833235Y-107844843D01*
X125623191Y-107985191D01*
X125482843Y-108195235D01*
X125433560Y-108443000D01*
X125433560Y-109315638D01*
X124760357Y-109988841D01*
X124738157Y-109877235D01*
X124597809Y-109667191D01*
X124387765Y-109526843D01*
X124140000Y-109477560D01*
X122240000Y-109477560D01*
X121992235Y-109526843D01*
X121782191Y-109667191D01*
X121642702Y-109875949D01*
X121549003Y-109782086D01*
X120966659Y-109540276D01*
X120336107Y-109539725D01*
X119753343Y-109780519D01*
X119307086Y-110225997D01*
X119065276Y-110808341D01*
X119064725Y-111438893D01*
X119305519Y-112021657D01*
X119750997Y-112467914D01*
X120333341Y-112709724D01*
X120963893Y-112710275D01*
X121546657Y-112469481D01*
X121642523Y-112373782D01*
X121782191Y-112582809D01*
X121992235Y-112723157D01*
X122240000Y-112772440D01*
X124140000Y-112772440D01*
X124387765Y-112723157D01*
X124597809Y-112582809D01*
X124738157Y-112372765D01*
X124787440Y-112125000D01*
X124787440Y-111867408D01*
X124989839Y-111827148D01*
X125236401Y-111662401D01*
X126508362Y-110390440D01*
X126781000Y-110390440D01*
X127028765Y-110341157D01*
X127238809Y-110200809D01*
X127379157Y-109990765D01*
X127381000Y-109981500D01*
X127382843Y-109990765D01*
X127523191Y-110200809D01*
X127733235Y-110341157D01*
X127981000Y-110390440D01*
X128253638Y-110390440D01*
X128763599Y-110900401D01*
X128942811Y-111020146D01*
X128940486Y-111020609D01*
X128087713Y-111590413D01*
X127517909Y-112443186D01*
X127317820Y-113449100D01*
X127517909Y-114455014D01*
X128087713Y-115307787D01*
X128940486Y-115877591D01*
X129946400Y-116077680D01*
X130952314Y-115877591D01*
X131574000Y-115462194D01*
X131574000Y-119634000D01*
X131631852Y-119924839D01*
X131796599Y-120171401D01*
X132277198Y-120652000D01*
X131465802Y-120652000D01*
X130164401Y-119350599D01*
X130024440Y-119257080D01*
X130024440Y-119238000D01*
X129975157Y-118990235D01*
X129834809Y-118780191D01*
X129624765Y-118639843D01*
X129377000Y-118590560D01*
X128677000Y-118590560D01*
X128429235Y-118639843D01*
X128219191Y-118780191D01*
X128078843Y-118990235D01*
X128077000Y-118999500D01*
X128075157Y-118990235D01*
X127934809Y-118780191D01*
X127724765Y-118639843D01*
X127477000Y-118590560D01*
X126777000Y-118590560D01*
X126529235Y-118639843D01*
X126319191Y-118780191D01*
X126178843Y-118990235D01*
X126151440Y-119128000D01*
X125041440Y-119128000D01*
X125041440Y-118888000D01*
X124992157Y-118640235D01*
X124851809Y-118430191D01*
X124641765Y-118289843D01*
X124394000Y-118240560D01*
X122494000Y-118240560D01*
X122246235Y-118289843D01*
X122036191Y-118430191D01*
X121896702Y-118638949D01*
X121803003Y-118545086D01*
X121220659Y-118303276D01*
X120590107Y-118302725D01*
X120007343Y-118543519D01*
X119561086Y-118988997D01*
X119319276Y-119571341D01*
X119318725Y-120201893D01*
X119559519Y-120784657D01*
X120004997Y-121230914D01*
X120587341Y-121472724D01*
X121217893Y-121473275D01*
X121800657Y-121232481D01*
X121896523Y-121136782D01*
X122036191Y-121345809D01*
X122246235Y-121486157D01*
X122494000Y-121535440D01*
X124394000Y-121535440D01*
X124641765Y-121486157D01*
X124851809Y-121345809D01*
X124992157Y-121135765D01*
X125041440Y-120888000D01*
X125041440Y-120648000D01*
X126151440Y-120648000D01*
X126178843Y-120785765D01*
X126319191Y-120995809D01*
X126529235Y-121136157D01*
X126777000Y-121185440D01*
X127477000Y-121185440D01*
X127724765Y-121136157D01*
X127934809Y-120995809D01*
X128075157Y-120785765D01*
X128077000Y-120776500D01*
X128078843Y-120785765D01*
X128219191Y-120995809D01*
X128429235Y-121136157D01*
X128677000Y-121185440D01*
X129377000Y-121185440D01*
X129624765Y-121136157D01*
X129730023Y-121065825D01*
X130613599Y-121949401D01*
X130860160Y-122114148D01*
X130908414Y-122123746D01*
X131151000Y-122172000D01*
X133320862Y-122172000D01*
X133263000Y-122311690D01*
X133263000Y-122777250D01*
X133421750Y-122936000D01*
X134271000Y-122936000D01*
X134271000Y-122916000D01*
X134525000Y-122916000D01*
X134525000Y-122936000D01*
X134545000Y-122936000D01*
X134545000Y-123190000D01*
X134525000Y-123190000D01*
X134525000Y-124164250D01*
X134683750Y-124323000D01*
X135024309Y-124323000D01*
X135257698Y-124226327D01*
X135399346Y-124084680D01*
X135440191Y-124145809D01*
X135650235Y-124286157D01*
X135898000Y-124335440D01*
X136898000Y-124335440D01*
X137145765Y-124286157D01*
X137355809Y-124145809D01*
X137454475Y-123998147D01*
X137472167Y-123998162D01*
X137815943Y-123856117D01*
X138079192Y-123593327D01*
X138221838Y-123249799D01*
X138221862Y-123221750D01*
X138311000Y-123221750D01*
X138311000Y-123687310D01*
X138407673Y-123920699D01*
X138586302Y-124099327D01*
X138819691Y-124196000D01*
X139160250Y-124196000D01*
X139319000Y-124037250D01*
X139319000Y-123063000D01*
X138469750Y-123063000D01*
X138311000Y-123221750D01*
X138221862Y-123221750D01*
X138222162Y-122877833D01*
X138080117Y-122534057D01*
X137817327Y-122270808D01*
X137579372Y-122172000D01*
X138316256Y-122172000D01*
X138311000Y-122184690D01*
X138311000Y-122650250D01*
X138469750Y-122809000D01*
X139319000Y-122809000D01*
X139319000Y-122789000D01*
X139573000Y-122789000D01*
X139573000Y-122809000D01*
X139593000Y-122809000D01*
X139593000Y-123063000D01*
X139573000Y-123063000D01*
X139573000Y-124037250D01*
X139731750Y-124196000D01*
X140072309Y-124196000D01*
X140305698Y-124099327D01*
X140447346Y-123957680D01*
X140488191Y-124018809D01*
X140698235Y-124159157D01*
X140946000Y-124208440D01*
X141946000Y-124208440D01*
X142193765Y-124159157D01*
X142403809Y-124018809D01*
X142507726Y-123863287D01*
X142832443Y-123729117D01*
X143095692Y-123466327D01*
X143238338Y-123122799D01*
X143238662Y-122750833D01*
X143096617Y-122407057D01*
X142861970Y-122172000D01*
X143601002Y-122172000D01*
X143891841Y-122114148D01*
X144138403Y-121949401D01*
X144177647Y-121910157D01*
X144165000Y-121940690D01*
X144165000Y-122081250D01*
X144323750Y-122240000D01*
X144973000Y-122240000D01*
X144973000Y-121590750D01*
X145227000Y-121590750D01*
X145227000Y-122240000D01*
X145876250Y-122240000D01*
X146035000Y-122081250D01*
X146035000Y-121940690D01*
X145938327Y-121707301D01*
X145759698Y-121528673D01*
X145526309Y-121432000D01*
X145385750Y-121432000D01*
X145227000Y-121590750D01*
X144973000Y-121590750D01*
X144814250Y-121432000D01*
X144673691Y-121432000D01*
X144643156Y-121444648D01*
X144900403Y-121187401D01*
X144918418Y-121160440D01*
X145915000Y-121160440D01*
X146162765Y-121111157D01*
X146372809Y-120970809D01*
X146513157Y-120760765D01*
X146562440Y-120513000D01*
X146562440Y-119263000D01*
X146513157Y-119015235D01*
X146480000Y-118965612D01*
X146480000Y-117587440D01*
X146795000Y-117587440D01*
X146920000Y-117562576D01*
X147045000Y-117587440D01*
X147595000Y-117587440D01*
X147720000Y-117562576D01*
X147845000Y-117587440D01*
X148395000Y-117587440D01*
X148520000Y-117562576D01*
X148645000Y-117587440D01*
X148960000Y-117587440D01*
X148960000Y-119961198D01*
X148946599Y-119974599D01*
X148781852Y-120221161D01*
X148779001Y-120235495D01*
X148676191Y-120304191D01*
X148535843Y-120514235D01*
X148488314Y-120753181D01*
X148306599Y-120874599D01*
X147646429Y-121534769D01*
X147547765Y-121468843D01*
X147300000Y-121419560D01*
X146700000Y-121419560D01*
X146452235Y-121468843D01*
X146242191Y-121609191D01*
X146101843Y-121819235D01*
X146052560Y-122067000D01*
X146052560Y-122667000D01*
X146101843Y-122914765D01*
X146242191Y-123124809D01*
X146452235Y-123265157D01*
X146700000Y-123314440D01*
X146877758Y-123314440D01*
X146872638Y-123319560D01*
X146700000Y-123319560D01*
X146452235Y-123368843D01*
X146250000Y-123503973D01*
X146047765Y-123368843D01*
X145800000Y-123319560D01*
X144962215Y-123319560D01*
X144895915Y-123220335D01*
X144973000Y-123143250D01*
X144973000Y-122494000D01*
X145227000Y-122494000D01*
X145227000Y-123143250D01*
X145385750Y-123302000D01*
X145526309Y-123302000D01*
X145759698Y-123205327D01*
X145938327Y-123026699D01*
X146035000Y-122793310D01*
X146035000Y-122652750D01*
X145876250Y-122494000D01*
X145227000Y-122494000D01*
X144973000Y-122494000D01*
X144323750Y-122494000D01*
X144165000Y-122652750D01*
X144165000Y-122793310D01*
X144203449Y-122886133D01*
X143983661Y-122929852D01*
X143737099Y-123094599D01*
X143734599Y-123097099D01*
X143569852Y-123343661D01*
X143512000Y-123634500D01*
X143565324Y-123902577D01*
X143464162Y-124146201D01*
X143463838Y-124518167D01*
X143605883Y-124861943D01*
X143868673Y-125125192D01*
X144212201Y-125267838D01*
X144584167Y-125268162D01*
X144742071Y-125202917D01*
X144800000Y-125214440D01*
X145800000Y-125214440D01*
X146047765Y-125165157D01*
X146250000Y-125030027D01*
X146452235Y-125165157D01*
X146700000Y-125214440D01*
X147300000Y-125214440D01*
X147547765Y-125165157D01*
X147757809Y-125024809D01*
X147898157Y-124814765D01*
X147943860Y-124585000D01*
X148508440Y-124585000D01*
X148535843Y-124722765D01*
X148676191Y-124932809D01*
X148886235Y-125073157D01*
X149134000Y-125122440D01*
X149834000Y-125122440D01*
X150081765Y-125073157D01*
X150291809Y-124932809D01*
X150432157Y-124722765D01*
X150434000Y-124713500D01*
X150435843Y-124722765D01*
X150576191Y-124932809D01*
X150786235Y-125073157D01*
X151034000Y-125122440D01*
X151734000Y-125122440D01*
X151981765Y-125073157D01*
X152191809Y-124932809D01*
X152332157Y-124722765D01*
X152381440Y-124475000D01*
X152381440Y-124345111D01*
X152954646Y-124345111D01*
X153256209Y-125074949D01*
X153814114Y-125633829D01*
X154543425Y-125936665D01*
X155333111Y-125937354D01*
X156062949Y-125635791D01*
X156621829Y-125077886D01*
X156924665Y-124348575D01*
X156924668Y-124345111D01*
X164953606Y-124345111D01*
X165255169Y-125074949D01*
X165813074Y-125633829D01*
X166542385Y-125936665D01*
X167332071Y-125937354D01*
X168061909Y-125635791D01*
X168620789Y-125077886D01*
X168923625Y-124348575D01*
X168924314Y-123558889D01*
X168622751Y-122829051D01*
X168064846Y-122270171D01*
X167335535Y-121967335D01*
X166545849Y-121966646D01*
X165816011Y-122268209D01*
X165257131Y-122826114D01*
X164954295Y-123555425D01*
X164953606Y-124345111D01*
X156924668Y-124345111D01*
X156925354Y-123558889D01*
X156623791Y-122829051D01*
X156065886Y-122270171D01*
X155336575Y-121967335D01*
X154546889Y-121966646D01*
X153817051Y-122268209D01*
X153258171Y-122826114D01*
X152955335Y-123555425D01*
X152954646Y-124345111D01*
X152381440Y-124345111D01*
X152381440Y-123602362D01*
X154027702Y-121956100D01*
X158448860Y-121956100D01*
X158484470Y-122042283D01*
X158877110Y-122435609D01*
X159390380Y-122648737D01*
X159946141Y-122649222D01*
X160459783Y-122436990D01*
X160853109Y-122044350D01*
X160939429Y-121836468D01*
X161024470Y-122042283D01*
X161417110Y-122435609D01*
X161930380Y-122648737D01*
X162486141Y-122649222D01*
X162999783Y-122436990D01*
X163393109Y-122044350D01*
X163606237Y-121531080D01*
X163606722Y-120975319D01*
X163394490Y-120461677D01*
X163185648Y-120252470D01*
X163213666Y-120224500D01*
X166433495Y-120224500D01*
X166433500Y-120224501D01*
X166829577Y-120145715D01*
X167165356Y-119921356D01*
X169006853Y-118079858D01*
X169006856Y-118079856D01*
X169163113Y-117846000D01*
X169231215Y-117744078D01*
X169310000Y-117348000D01*
X169310000Y-116085440D01*
X169398000Y-116085440D01*
X169645765Y-116036157D01*
X169855809Y-115895809D01*
X169996157Y-115685765D01*
X170045440Y-115438000D01*
X170045440Y-114538000D01*
X169996157Y-114290235D01*
X169855809Y-114080191D01*
X169645765Y-113939843D01*
X169398000Y-113890560D01*
X166898000Y-113890560D01*
X166650235Y-113939843D01*
X166440191Y-114080191D01*
X166299843Y-114290235D01*
X166250560Y-114538000D01*
X166250560Y-115438000D01*
X166299843Y-115685765D01*
X166440191Y-115895809D01*
X166650235Y-116036157D01*
X166898000Y-116085440D01*
X167240000Y-116085440D01*
X167240000Y-116919289D01*
X166004788Y-118154500D01*
X163086831Y-118154500D01*
X163001850Y-118069371D01*
X162488580Y-117856243D01*
X161932819Y-117855758D01*
X161419177Y-118067990D01*
X161025851Y-118460630D01*
X160939531Y-118668512D01*
X160854490Y-118462697D01*
X160461850Y-118069371D01*
X159948580Y-117856243D01*
X159392819Y-117855758D01*
X158879177Y-118067990D01*
X158517035Y-118429500D01*
X153669292Y-118429500D01*
X153660839Y-118423852D01*
X153370000Y-118366000D01*
X153079161Y-118423852D01*
X152832599Y-118588599D01*
X151306638Y-120114560D01*
X151280000Y-120114560D01*
X151280000Y-117587440D01*
X151595000Y-117587440D01*
X151842765Y-117538157D01*
X152052809Y-117397809D01*
X152193157Y-117187765D01*
X152242440Y-116940000D01*
X152242440Y-115440000D01*
X152235597Y-115405597D01*
X152270000Y-115412440D01*
X153770000Y-115412440D01*
X154017765Y-115363157D01*
X154227809Y-115222809D01*
X154368157Y-115012765D01*
X154417440Y-114765000D01*
X154417440Y-114450000D01*
X158475228Y-114450000D01*
X158766067Y-114392148D01*
X159012629Y-114227401D01*
X159626232Y-113613798D01*
X160866280Y-112373750D01*
X166263000Y-112373750D01*
X166263000Y-112664309D01*
X166359673Y-112897698D01*
X166538301Y-113076327D01*
X166771690Y-113173000D01*
X167862250Y-113173000D01*
X168021000Y-113014250D01*
X168021000Y-112215000D01*
X168275000Y-112215000D01*
X168275000Y-113014250D01*
X168433750Y-113173000D01*
X169524310Y-113173000D01*
X169757699Y-113076327D01*
X169936327Y-112897698D01*
X170033000Y-112664309D01*
X170033000Y-112373750D01*
X169874250Y-112215000D01*
X168275000Y-112215000D01*
X168021000Y-112215000D01*
X166421750Y-112215000D01*
X166263000Y-112373750D01*
X160866280Y-112373750D01*
X161728339Y-111511691D01*
X166263000Y-111511691D01*
X166263000Y-111802250D01*
X166421750Y-111961000D01*
X168021000Y-111961000D01*
X168021000Y-111161750D01*
X168275000Y-111161750D01*
X168275000Y-111961000D01*
X169874250Y-111961000D01*
X170033000Y-111802250D01*
X170033000Y-111511691D01*
X169936327Y-111278302D01*
X169757699Y-111099673D01*
X169524310Y-111003000D01*
X168433750Y-111003000D01*
X168275000Y-111161750D01*
X168021000Y-111161750D01*
X167862250Y-111003000D01*
X166771690Y-111003000D01*
X166538301Y-111099673D01*
X166359673Y-111278302D01*
X166263000Y-111511691D01*
X161728339Y-111511691D01*
X165145932Y-108094102D01*
X165270480Y-107907701D01*
X165310679Y-107847539D01*
X165368531Y-107556700D01*
X165368531Y-101758750D01*
X165745000Y-101758750D01*
X165745000Y-102099309D01*
X165841673Y-102332698D01*
X166020301Y-102511327D01*
X166253690Y-102608000D01*
X166719250Y-102608000D01*
X166878000Y-102449250D01*
X166878000Y-101600000D01*
X167132000Y-101600000D01*
X167132000Y-102449250D01*
X167290750Y-102608000D01*
X167756310Y-102608000D01*
X167989699Y-102511327D01*
X168168327Y-102332698D01*
X168265000Y-102099309D01*
X168265000Y-101758750D01*
X168106250Y-101600000D01*
X167132000Y-101600000D01*
X166878000Y-101600000D01*
X165903750Y-101600000D01*
X165745000Y-101758750D01*
X165368531Y-101758750D01*
X165368531Y-98973000D01*
X165732560Y-98973000D01*
X165732560Y-99973000D01*
X165781843Y-100220765D01*
X165922191Y-100430809D01*
X165983320Y-100471654D01*
X165841673Y-100613302D01*
X165745000Y-100846691D01*
X165745000Y-101187250D01*
X165903750Y-101346000D01*
X166878000Y-101346000D01*
X166878000Y-101326000D01*
X167132000Y-101326000D01*
X167132000Y-101346000D01*
X168106250Y-101346000D01*
X168265000Y-101187250D01*
X168265000Y-100846691D01*
X168168327Y-100613302D01*
X168026680Y-100471654D01*
X168087809Y-100430809D01*
X168228157Y-100220765D01*
X168277440Y-99973000D01*
X168277440Y-98973000D01*
X168228157Y-98725235D01*
X168087809Y-98515191D01*
X167940008Y-98416433D01*
X167940162Y-98239833D01*
X167798117Y-97896057D01*
X167535327Y-97632808D01*
X167191799Y-97490162D01*
X166819833Y-97489838D01*
X166476057Y-97631883D01*
X166212808Y-97894673D01*
X166070162Y-98238201D01*
X166070007Y-98416423D01*
X165922191Y-98515191D01*
X165781843Y-98725235D01*
X165732560Y-98973000D01*
X165368531Y-98973000D01*
X165368531Y-97675299D01*
X165310679Y-97384460D01*
X165145932Y-97137898D01*
X163974101Y-95966066D01*
X163727540Y-95801319D01*
X163436700Y-95743467D01*
X159997533Y-95743467D01*
X159706693Y-95801319D01*
X159460132Y-95966066D01*
X157352638Y-98073560D01*
X157180000Y-98073560D01*
X156932235Y-98122843D01*
X156845000Y-98181132D01*
X156757765Y-98122843D01*
X156510000Y-98073560D01*
X155910000Y-98073560D01*
X155662235Y-98122843D01*
X155575000Y-98181132D01*
X155487765Y-98122843D01*
X155240000Y-98073560D01*
X154640000Y-98073560D01*
X154392235Y-98122843D01*
X154305000Y-98181132D01*
X154217765Y-98122843D01*
X153970000Y-98073560D01*
X153370000Y-98073560D01*
X153122235Y-98122843D01*
X153035000Y-98181132D01*
X152947765Y-98122843D01*
X152700000Y-98073560D01*
X152100000Y-98073560D01*
X152065080Y-98080506D01*
X152065162Y-97985833D01*
X151923117Y-97642057D01*
X151660327Y-97378808D01*
X151316799Y-97236162D01*
X150944833Y-97235838D01*
X150601057Y-97377883D01*
X150337808Y-97640673D01*
X150195162Y-97984201D01*
X150194838Y-98356167D01*
X150238866Y-98462724D01*
X150231843Y-98473235D01*
X150182560Y-98721000D01*
X150182560Y-100671000D01*
X150231843Y-100918765D01*
X150372191Y-101128809D01*
X150582235Y-101269157D01*
X150830000Y-101318440D01*
X151430000Y-101318440D01*
X151464919Y-101311494D01*
X151464838Y-101404167D01*
X151606883Y-101747943D01*
X151869673Y-102011192D01*
X152213201Y-102153838D01*
X152585167Y-102154162D01*
X152928943Y-102012117D01*
X153034954Y-101906290D01*
X153139673Y-102011192D01*
X153483201Y-102153838D01*
X153855167Y-102154162D01*
X154198943Y-102012117D01*
X154304954Y-101906290D01*
X154409673Y-102011192D01*
X154753201Y-102153838D01*
X155125167Y-102154162D01*
X155468943Y-102012117D01*
X155574954Y-101906290D01*
X155679673Y-102011192D01*
X156023201Y-102153838D01*
X156395167Y-102154162D01*
X156738943Y-102012117D01*
X157002192Y-101749327D01*
X157144838Y-101405799D01*
X157144920Y-101311462D01*
X157180000Y-101318440D01*
X157780000Y-101318440D01*
X158027765Y-101269157D01*
X158115000Y-101210868D01*
X158202235Y-101269157D01*
X158450000Y-101318440D01*
X159050000Y-101318440D01*
X159297765Y-101269157D01*
X159385000Y-101210868D01*
X159472235Y-101269157D01*
X159720000Y-101318440D01*
X160320000Y-101318440D01*
X160567765Y-101269157D01*
X160655000Y-101210868D01*
X160742235Y-101269157D01*
X160990000Y-101318440D01*
X161590000Y-101318440D01*
X161837765Y-101269157D01*
X161916972Y-101216232D01*
X162133690Y-101306000D01*
X162274250Y-101306000D01*
X162432998Y-101147252D01*
X162432998Y-101306000D01*
X162492990Y-101306000D01*
X162492990Y-106688208D01*
X158651198Y-110530000D01*
X154417440Y-110530000D01*
X154417440Y-110215000D01*
X154396783Y-110111148D01*
X154405000Y-110091310D01*
X154405000Y-109975750D01*
X154311112Y-109881862D01*
X154267774Y-109817002D01*
X154405000Y-109817002D01*
X154405000Y-109710477D01*
X154617167Y-109710662D01*
X154960943Y-109568617D01*
X155224192Y-109305827D01*
X155366838Y-108962299D01*
X155367152Y-108600750D01*
X156855000Y-108600750D01*
X156855000Y-108941309D01*
X156951673Y-109174698D01*
X157130301Y-109353327D01*
X157363690Y-109450000D01*
X157829250Y-109450000D01*
X157988000Y-109291250D01*
X157988000Y-108442000D01*
X158242000Y-108442000D01*
X158242000Y-109291250D01*
X158400750Y-109450000D01*
X158866310Y-109450000D01*
X159099699Y-109353327D01*
X159278327Y-109174698D01*
X159375000Y-108941309D01*
X159375000Y-108600750D01*
X159216250Y-108442000D01*
X158242000Y-108442000D01*
X157988000Y-108442000D01*
X157013750Y-108442000D01*
X156855000Y-108600750D01*
X155367152Y-108600750D01*
X155367162Y-108590333D01*
X155225117Y-108246557D01*
X154962327Y-107983308D01*
X154618799Y-107840662D01*
X154417440Y-107840487D01*
X154417440Y-107815000D01*
X154392576Y-107690000D01*
X154417440Y-107565000D01*
X154417440Y-107015000D01*
X154392576Y-106890000D01*
X154417440Y-106765000D01*
X154417440Y-106215000D01*
X154368157Y-105967235D01*
X154266437Y-105815000D01*
X156842560Y-105815000D01*
X156842560Y-106815000D01*
X156891843Y-107062765D01*
X157032191Y-107272809D01*
X157093320Y-107313654D01*
X156951673Y-107455302D01*
X156855000Y-107688691D01*
X156855000Y-108029250D01*
X157013750Y-108188000D01*
X157988000Y-108188000D01*
X157988000Y-108168000D01*
X158242000Y-108168000D01*
X158242000Y-108188000D01*
X159216250Y-108188000D01*
X159375000Y-108029250D01*
X159375000Y-107688691D01*
X159278327Y-107455302D01*
X159136680Y-107313654D01*
X159197809Y-107272809D01*
X159338157Y-107062765D01*
X159387440Y-106815000D01*
X159387440Y-105815000D01*
X159338157Y-105567235D01*
X159197809Y-105357191D01*
X159050077Y-105258479D01*
X159050162Y-105161333D01*
X158908117Y-104817557D01*
X158645327Y-104554308D01*
X158301799Y-104411662D01*
X157929833Y-104411338D01*
X157586057Y-104553383D01*
X157322808Y-104816173D01*
X157180162Y-105159701D01*
X157180076Y-105258377D01*
X157032191Y-105357191D01*
X156891843Y-105567235D01*
X156842560Y-105815000D01*
X154266437Y-105815000D01*
X154227809Y-105757191D01*
X154017765Y-105616843D01*
X153770000Y-105567560D01*
X153751169Y-105567560D01*
X153722148Y-105421661D01*
X153557401Y-105175099D01*
X153208122Y-104825820D01*
X153208162Y-104780333D01*
X153066117Y-104436557D01*
X152803327Y-104173308D01*
X152459799Y-104030662D01*
X152240545Y-104030471D01*
X152193157Y-103792235D01*
X152052809Y-103582191D01*
X151842765Y-103441843D01*
X151595000Y-103392560D01*
X151045000Y-103392560D01*
X150920000Y-103417424D01*
X150795000Y-103392560D01*
X150350920Y-103392560D01*
X150257401Y-103252599D01*
X149591401Y-102586599D01*
X149344839Y-102421852D01*
X149054000Y-102364000D01*
X148650802Y-102364000D01*
X148309922Y-102023120D01*
X148483202Y-101850142D01*
X148625848Y-101506614D01*
X148625889Y-101459738D01*
X148929162Y-101156465D01*
X149093909Y-100909903D01*
X149151761Y-100619064D01*
X149151761Y-97083761D01*
X149093909Y-96792922D01*
X148929162Y-96546360D01*
X148220472Y-95837670D01*
X148220608Y-95681528D01*
X148064521Y-95303768D01*
X147907900Y-95146874D01*
X148108891Y-95123453D01*
X148233749Y-94734253D01*
X148200163Y-94326899D01*
X148108891Y-94106547D01*
X147904837Y-94082769D01*
X147372605Y-94615000D01*
X147386748Y-94629142D01*
X147207143Y-94808748D01*
X147193000Y-94794605D01*
X147178858Y-94808748D01*
X146999253Y-94629143D01*
X147013395Y-94615000D01*
X146999253Y-94600858D01*
X147178858Y-94421253D01*
X147193000Y-94435395D01*
X147725231Y-93903163D01*
X147701453Y-93699109D01*
X147641450Y-93679860D01*
X147686834Y-93570563D01*
X147687226Y-93121407D01*
X147515703Y-92706291D01*
X147198379Y-92388413D01*
X146783563Y-92216166D01*
X146334407Y-92215774D01*
X145919291Y-92387297D01*
X145601413Y-92704621D01*
X145450606Y-93067804D01*
X144717000Y-92334198D01*
X144717000Y-91690754D01*
X144764809Y-91658809D01*
X144905157Y-91448765D01*
X144910721Y-91420791D01*
X144968673Y-91560699D01*
X145147302Y-91739327D01*
X145380691Y-91836000D01*
X145571250Y-91836000D01*
X145730000Y-91677250D01*
X145730000Y-90678000D01*
X145984000Y-90678000D01*
X145984000Y-91677250D01*
X146142750Y-91836000D01*
X146333309Y-91836000D01*
X146566698Y-91739327D01*
X146745327Y-91560699D01*
X146842000Y-91327310D01*
X146842000Y-90836750D01*
X146683250Y-90678000D01*
X145984000Y-90678000D01*
X145730000Y-90678000D01*
X145710000Y-90678000D01*
X145710000Y-90424000D01*
X145730000Y-90424000D01*
X145730000Y-90404000D01*
X145984000Y-90404000D01*
X145984000Y-90424000D01*
X146683250Y-90424000D01*
X146842000Y-90265250D01*
X146842000Y-89774690D01*
X146745327Y-89541301D01*
X146673526Y-89469500D01*
X147068698Y-89469500D01*
X147449000Y-89849802D01*
X147449000Y-92202000D01*
X147506852Y-92492839D01*
X147671599Y-92739401D01*
X149115378Y-94183180D01*
X149115338Y-94228667D01*
X149257383Y-94572443D01*
X149520173Y-94835692D01*
X149863701Y-94978338D01*
X150235667Y-94978662D01*
X150579443Y-94836617D01*
X150803451Y-94613000D01*
X159678000Y-94613000D01*
X159968839Y-94555148D01*
X160215401Y-94390401D01*
X162687362Y-91918440D01*
X162860000Y-91918440D01*
X163107765Y-91869157D01*
X163317809Y-91728809D01*
X163458157Y-91518765D01*
X163507440Y-91271000D01*
X163507440Y-89321000D01*
X163458157Y-89073235D01*
X163317809Y-88863191D01*
X163107765Y-88722843D01*
X162860000Y-88673560D01*
X162260000Y-88673560D01*
X162050000Y-88715331D01*
X162050000Y-77595158D01*
X165315513Y-77595158D01*
X165655085Y-78416985D01*
X166283308Y-79046305D01*
X167104541Y-79387311D01*
X167993758Y-79388087D01*
X168815585Y-79048515D01*
X169444905Y-78420292D01*
X169785911Y-77599059D01*
X169786687Y-76709842D01*
X169447115Y-75888015D01*
X168818892Y-75258695D01*
X167997659Y-74917689D01*
X167108442Y-74916913D01*
X166286615Y-75256485D01*
X165657295Y-75884708D01*
X165316289Y-76705941D01*
X165315513Y-77595158D01*
X162050000Y-77595158D01*
X162050000Y-75946000D01*
X162014235Y-75766200D01*
X161992148Y-75655160D01*
X161827401Y-75408599D01*
X158964078Y-72545276D01*
X158717516Y-72380529D01*
X158426677Y-72322677D01*
X150310323Y-72322677D01*
X150019484Y-72380529D01*
X149772922Y-72545276D01*
X149005099Y-73313099D01*
X148840352Y-73559661D01*
X148782500Y-73850500D01*
X148782500Y-73880664D01*
X148462762Y-74199845D01*
X148139853Y-73876373D01*
X147649913Y-73672932D01*
X147119414Y-73672469D01*
X146629120Y-73875054D01*
X146303762Y-74199845D01*
X145980853Y-73876373D01*
X145490913Y-73672932D01*
X144960414Y-73672469D01*
X144470120Y-73875054D01*
X144144762Y-74199845D01*
X143821853Y-73876373D01*
X143331913Y-73672932D01*
X142801414Y-73672469D01*
X142311120Y-73875054D01*
X141985762Y-74199845D01*
X141662853Y-73876373D01*
X141172913Y-73672932D01*
X140642414Y-73672469D01*
X140152120Y-73875054D01*
X139826762Y-74199845D01*
X139503853Y-73876373D01*
X139013913Y-73672932D01*
X138483414Y-73672469D01*
X137993120Y-73875054D01*
X137667762Y-74199845D01*
X137344853Y-73876373D01*
X136854913Y-73672932D01*
X136324414Y-73672469D01*
X135834120Y-73875054D01*
X135508762Y-74199845D01*
X135185853Y-73876373D01*
X134695913Y-73672932D01*
X134165414Y-73672469D01*
X133675120Y-73875054D01*
X133349762Y-74199845D01*
X133026853Y-73876373D01*
X132536913Y-73672932D01*
X132006414Y-73672469D01*
X131516120Y-73875054D01*
X131140673Y-74249847D01*
X130937232Y-74739787D01*
X130936769Y-75270286D01*
X131139354Y-75760580D01*
X131514147Y-76136027D01*
X132004087Y-76339468D01*
X132534586Y-76339931D01*
X133024880Y-76137346D01*
X133350238Y-75812555D01*
X133673147Y-76136027D01*
X134151176Y-76334522D01*
X134024601Y-76419097D01*
X132812599Y-77631099D01*
X132647852Y-77877661D01*
X132623243Y-78001379D01*
X132536913Y-77965532D01*
X132006414Y-77965069D01*
X131516120Y-78167654D01*
X131140673Y-78542447D01*
X130937232Y-79032387D01*
X130936769Y-79562886D01*
X131139354Y-80053180D01*
X131510500Y-80424974D01*
X131510500Y-84076698D01*
X128311638Y-87275560D01*
X127492000Y-87275560D01*
X127244235Y-87324843D01*
X127034191Y-87465191D01*
X126893843Y-87675235D01*
X126844560Y-87923000D01*
X126844560Y-88834393D01*
X126757852Y-88964161D01*
X126700000Y-89255000D01*
X126700000Y-90431018D01*
X126502191Y-90563191D01*
X126361843Y-90773235D01*
X126312560Y-91021000D01*
X126312560Y-92621000D01*
X126361843Y-92868765D01*
X126502191Y-93078809D01*
X126712235Y-93219157D01*
X126960000Y-93268440D01*
X127960000Y-93268440D01*
X128207765Y-93219157D01*
X128417809Y-93078809D01*
X128558157Y-92868765D01*
X128607440Y-92621000D01*
X128607440Y-91021000D01*
X128558157Y-90773235D01*
X128417809Y-90563191D01*
X128220000Y-90431018D01*
X128220000Y-90270440D01*
X128392000Y-90270440D01*
X128639765Y-90221157D01*
X128849809Y-90080809D01*
X128990157Y-89870765D01*
X129039440Y-89623000D01*
X129039440Y-88697362D01*
X132807901Y-84928901D01*
X132972648Y-84682340D01*
X133018594Y-84451353D01*
X133030500Y-84391500D01*
X133030500Y-81590802D01*
X133860000Y-82420302D01*
X133860000Y-88715331D01*
X133650000Y-88673560D01*
X133050000Y-88673560D01*
X132802235Y-88722843D01*
X132715000Y-88781132D01*
X132627765Y-88722843D01*
X132380000Y-88673560D01*
X131780000Y-88673560D01*
X131532235Y-88722843D01*
X131445000Y-88781132D01*
X131357765Y-88722843D01*
X131110000Y-88673560D01*
X130510000Y-88673560D01*
X130262235Y-88722843D01*
X130052191Y-88863191D01*
X129911843Y-89073235D01*
X129862560Y-89321000D01*
X129862560Y-91271000D01*
X129889868Y-91408286D01*
X129875162Y-91443701D01*
X129874838Y-91815667D01*
X130016883Y-92159443D01*
X130279673Y-92422692D01*
X130623201Y-92565338D01*
X130995167Y-92565662D01*
X131338943Y-92423617D01*
X131602192Y-92160827D01*
X131619894Y-92118196D01*
X132685599Y-93183901D01*
X132932161Y-93348648D01*
X133223000Y-93406500D01*
X135826500Y-93406500D01*
X136117339Y-93348648D01*
X136363901Y-93183901D01*
X137062401Y-92485401D01*
X137227148Y-92238840D01*
X137285000Y-91948000D01*
X137285000Y-91918440D01*
X137460000Y-91918440D01*
X137692802Y-91872133D01*
X137727852Y-92048339D01*
X137892599Y-92294901D01*
X138337099Y-92739401D01*
X138583661Y-92904148D01*
X138874500Y-92962000D01*
X139890500Y-92962000D01*
X140181339Y-92904148D01*
X140427901Y-92739401D01*
X140872401Y-92294901D01*
X141037148Y-92048339D01*
X141062987Y-91918440D01*
X141270000Y-91918440D01*
X141517765Y-91869157D01*
X141605000Y-91810868D01*
X141692235Y-91869157D01*
X141940000Y-91918440D01*
X142540000Y-91918440D01*
X142787765Y-91869157D01*
X142997809Y-91728809D01*
X143096886Y-91580530D01*
X143149191Y-91658809D01*
X143197000Y-91690754D01*
X143197000Y-92649000D01*
X143254852Y-92939839D01*
X143419599Y-93186401D01*
X144570709Y-94337511D01*
X143998597Y-94909622D01*
X143833850Y-95156184D01*
X143775998Y-95447023D01*
X143775998Y-96185002D01*
X143833850Y-96475841D01*
X143964239Y-96670982D01*
X143964239Y-101475000D01*
X142554802Y-101475000D01*
X142367002Y-101287200D01*
X142367002Y-101147252D01*
X142525750Y-101306000D01*
X142666310Y-101306000D01*
X142899699Y-101209327D01*
X143078327Y-101030698D01*
X143175000Y-100797309D01*
X143175000Y-99981750D01*
X143016250Y-99823000D01*
X142367000Y-99823000D01*
X142367000Y-99843000D01*
X142113000Y-99843000D01*
X142113000Y-99823000D01*
X142093000Y-99823000D01*
X142093000Y-99569000D01*
X142113000Y-99569000D01*
X142113000Y-98244750D01*
X142367000Y-98244750D01*
X142367000Y-99569000D01*
X143016250Y-99569000D01*
X143175000Y-99410250D01*
X143175000Y-98594691D01*
X143078327Y-98361302D01*
X142899699Y-98182673D01*
X142666310Y-98086000D01*
X142525750Y-98086000D01*
X142367000Y-98244750D01*
X142113000Y-98244750D01*
X141954250Y-98086000D01*
X141813690Y-98086000D01*
X141596972Y-98175768D01*
X141517765Y-98122843D01*
X141270000Y-98073560D01*
X140670000Y-98073560D01*
X140422235Y-98122843D01*
X140335000Y-98181132D01*
X140247765Y-98122843D01*
X140000000Y-98073560D01*
X139400000Y-98073560D01*
X139152235Y-98122843D01*
X139065000Y-98181132D01*
X138977765Y-98122843D01*
X138730000Y-98073560D01*
X138130000Y-98073560D01*
X137882235Y-98122843D01*
X137795000Y-98181132D01*
X137707765Y-98122843D01*
X137460000Y-98073560D01*
X136860000Y-98073560D01*
X136612235Y-98122843D01*
X136525000Y-98181132D01*
X136437765Y-98122843D01*
X136190000Y-98073560D01*
X135590000Y-98073560D01*
X135342235Y-98122843D01*
X135255000Y-98181132D01*
X135167765Y-98122843D01*
X134920000Y-98073560D01*
X134320000Y-98073560D01*
X134072235Y-98122843D01*
X133985000Y-98181132D01*
X133897765Y-98122843D01*
X133650000Y-98073560D01*
X133050000Y-98073560D01*
X132802235Y-98122843D01*
X132715000Y-98181132D01*
X132627765Y-98122843D01*
X132380000Y-98073560D01*
X131780000Y-98073560D01*
X131532235Y-98122843D01*
X131445000Y-98181132D01*
X131357765Y-98122843D01*
X131110000Y-98073560D01*
X130510000Y-98073560D01*
X130262235Y-98122843D01*
X130052191Y-98263191D01*
X129911843Y-98473235D01*
X129862560Y-98721000D01*
X129862560Y-100671000D01*
X129911843Y-100918765D01*
X129918271Y-100928384D01*
X129875162Y-101032201D01*
X129874838Y-101404167D01*
X130016883Y-101747943D01*
X130279673Y-102011192D01*
X130623201Y-102153838D01*
X130995167Y-102154162D01*
X131338943Y-102012117D01*
X131461799Y-101889475D01*
X131542599Y-102010401D01*
X133146629Y-103614431D01*
X133393191Y-103779178D01*
X133684030Y-103837030D01*
X136161818Y-103837030D01*
X138621348Y-106296560D01*
X137787000Y-106296560D01*
X137539235Y-106345843D01*
X137329191Y-106486191D01*
X137287000Y-106549334D01*
X137244809Y-106486191D01*
X137034765Y-106345843D01*
X136787000Y-106296560D01*
X135787000Y-106296560D01*
X135539235Y-106345843D01*
X135329191Y-106486191D01*
X135188843Y-106696235D01*
X135139560Y-106944000D01*
X135139560Y-108194000D01*
X135188843Y-108441765D01*
X135329191Y-108651809D01*
X135440521Y-108726198D01*
X135246235Y-108764843D01*
X135036191Y-108905191D01*
X134895843Y-109115235D01*
X134846560Y-109363000D01*
X134846560Y-111363000D01*
X134895843Y-111610765D01*
X135036191Y-111820809D01*
X135246235Y-111961157D01*
X135494000Y-112010440D01*
X136366638Y-112010440D01*
X136983599Y-112627401D01*
X137230161Y-112792148D01*
X137519297Y-112849661D01*
X137436191Y-112905191D01*
X137344000Y-113043164D01*
X137251809Y-112905191D01*
X137041765Y-112764843D01*
X136794000Y-112715560D01*
X135494000Y-112715560D01*
X135246235Y-112764843D01*
X135036191Y-112905191D01*
X134895843Y-113115235D01*
X134846560Y-113363000D01*
X134846560Y-115363000D01*
X134895843Y-115610765D01*
X135036191Y-115820809D01*
X135246235Y-115961157D01*
X135367969Y-115985371D01*
X135367849Y-116123051D01*
X135345191Y-116138191D01*
X135204843Y-116348235D01*
X135155560Y-116596000D01*
X135155560Y-117846000D01*
X135204843Y-118093765D01*
X135345191Y-118303809D01*
X135555235Y-118444157D01*
X135803000Y-118493440D01*
X136803000Y-118493440D01*
X137050765Y-118444157D01*
X137260809Y-118303809D01*
X137303000Y-118240666D01*
X137345191Y-118303809D01*
X137555235Y-118444157D01*
X137803000Y-118493440D01*
X138803000Y-118493440D01*
X138813000Y-118491451D01*
X138813000Y-118684198D01*
X138369198Y-119128000D01*
X134045802Y-119128000D01*
X133602000Y-118684198D01*
X133602000Y-111506000D01*
X133589202Y-111441659D01*
X133544148Y-111215160D01*
X133379401Y-110968599D01*
X130173000Y-107762198D01*
X130173000Y-106815000D01*
X130934560Y-106815000D01*
X130934560Y-107815000D01*
X130983843Y-108062765D01*
X131124191Y-108272809D01*
X131271853Y-108371475D01*
X131271838Y-108389167D01*
X131413883Y-108732943D01*
X131676673Y-108996192D01*
X132020201Y-109138838D01*
X132392167Y-109139162D01*
X132735943Y-108997117D01*
X132999192Y-108734327D01*
X133141838Y-108390799D01*
X133141855Y-108371670D01*
X133289809Y-108272809D01*
X133430157Y-108062765D01*
X133479440Y-107815000D01*
X133479440Y-106815000D01*
X133430157Y-106567235D01*
X133289809Y-106357191D01*
X133228680Y-106316346D01*
X133370327Y-106174698D01*
X133467000Y-105941309D01*
X133467000Y-105600750D01*
X133308250Y-105442000D01*
X132334000Y-105442000D01*
X132334000Y-105462000D01*
X132080000Y-105462000D01*
X132080000Y-105442000D01*
X131105750Y-105442000D01*
X130947000Y-105600750D01*
X130947000Y-105941309D01*
X131043673Y-106174698D01*
X131185320Y-106316346D01*
X131124191Y-106357191D01*
X130983843Y-106567235D01*
X130934560Y-106815000D01*
X130173000Y-106815000D01*
X130173000Y-104725000D01*
X130165778Y-104688691D01*
X130947000Y-104688691D01*
X130947000Y-105029250D01*
X131105750Y-105188000D01*
X132080000Y-105188000D01*
X132080000Y-104338750D01*
X132334000Y-104338750D01*
X132334000Y-105188000D01*
X133308250Y-105188000D01*
X133467000Y-105029250D01*
X133467000Y-104688691D01*
X133370327Y-104455302D01*
X133191699Y-104276673D01*
X132958310Y-104180000D01*
X132492750Y-104180000D01*
X132334000Y-104338750D01*
X132080000Y-104338750D01*
X131921250Y-104180000D01*
X131455690Y-104180000D01*
X131222301Y-104276673D01*
X131043673Y-104455302D01*
X130947000Y-104688691D01*
X130165778Y-104688691D01*
X130115148Y-104434161D01*
X129950401Y-104187599D01*
X128664798Y-102901996D01*
X128693440Y-102758000D01*
X128693440Y-101458000D01*
X128644157Y-101210235D01*
X128503809Y-101000191D01*
X128293765Y-100859843D01*
X128046000Y-100810560D01*
X127346000Y-100810560D01*
X127098235Y-100859843D01*
X126888191Y-101000191D01*
X126747843Y-101210235D01*
X126746000Y-101219500D01*
X126744157Y-101210235D01*
X126603809Y-101000191D01*
X126393765Y-100859843D01*
X126146000Y-100810560D01*
X125446000Y-100810560D01*
X125198235Y-100859843D01*
X124988191Y-101000191D01*
X124847843Y-101210235D01*
X124798560Y-101458000D01*
X124798560Y-101729000D01*
X124660440Y-101729000D01*
X124660440Y-101489000D01*
X124611157Y-101241235D01*
X124470809Y-101031191D01*
X124260765Y-100890843D01*
X124013000Y-100841560D01*
X122113000Y-100841560D01*
X121865235Y-100890843D01*
X121655191Y-101031191D01*
X121515702Y-101239949D01*
X121422003Y-101146086D01*
X120839659Y-100904276D01*
X120209107Y-100903725D01*
X119626343Y-101144519D01*
X119180086Y-101589997D01*
X118938276Y-102172341D01*
X118937725Y-102802893D01*
X116326195Y-102802893D01*
X116326195Y-97348550D01*
X125473300Y-97348550D01*
X125473300Y-97689109D01*
X125569973Y-97922498D01*
X125748601Y-98101127D01*
X125981990Y-98197800D01*
X126447550Y-98197800D01*
X126606300Y-98039050D01*
X126606300Y-97189800D01*
X126860300Y-97189800D01*
X126860300Y-98039050D01*
X127019050Y-98197800D01*
X127484610Y-98197800D01*
X127717999Y-98101127D01*
X127896627Y-97922498D01*
X127993300Y-97689109D01*
X127993300Y-97348550D01*
X127834550Y-97189800D01*
X126860300Y-97189800D01*
X126606300Y-97189800D01*
X125632050Y-97189800D01*
X125473300Y-97348550D01*
X116326195Y-97348550D01*
X116326195Y-96122583D01*
X118946822Y-96122583D01*
X119012992Y-96109421D01*
X119080459Y-96109421D01*
X120349471Y-95856999D01*
X120443265Y-95818148D01*
X120596401Y-95754718D01*
X121359744Y-95244667D01*
X124731338Y-95244667D01*
X124873383Y-95588443D01*
X125136173Y-95851692D01*
X125479701Y-95994338D01*
X125633026Y-95994472D01*
X125650491Y-96020609D01*
X125711620Y-96061454D01*
X125569973Y-96203102D01*
X125473300Y-96436491D01*
X125473300Y-96777050D01*
X125632050Y-96935800D01*
X126606300Y-96935800D01*
X126606300Y-96915800D01*
X126860300Y-96915800D01*
X126860300Y-96935800D01*
X127834550Y-96935800D01*
X127993300Y-96777050D01*
X127993300Y-96436491D01*
X127896627Y-96203102D01*
X127754980Y-96061454D01*
X127816109Y-96020609D01*
X127956457Y-95810565D01*
X128005740Y-95562800D01*
X128005740Y-94562800D01*
X127956457Y-94315035D01*
X127816109Y-94104991D01*
X127606065Y-93964643D01*
X127358300Y-93915360D01*
X126108300Y-93915360D01*
X125860535Y-93964643D01*
X125650491Y-94104991D01*
X125637473Y-94124474D01*
X125481333Y-94124338D01*
X125137557Y-94266383D01*
X124874308Y-94529173D01*
X124731662Y-94872701D01*
X124731338Y-95244667D01*
X121359744Y-95244667D01*
X121672219Y-95035878D01*
X121804996Y-94903101D01*
X121861210Y-94846888D01*
X122580049Y-93771069D01*
X122682330Y-93524141D01*
X122682330Y-93524140D01*
X122934752Y-92255128D01*
X122934752Y-91987854D01*
X122742434Y-91021000D01*
X123312560Y-91021000D01*
X123312560Y-92621000D01*
X123361843Y-92868765D01*
X123502191Y-93078809D01*
X123524997Y-93094047D01*
X123524838Y-93276167D01*
X123666883Y-93619943D01*
X123929673Y-93883192D01*
X124273201Y-94025838D01*
X124645167Y-94026162D01*
X124988943Y-93884117D01*
X125252192Y-93621327D01*
X125394838Y-93277799D01*
X125394998Y-93094051D01*
X125417809Y-93078809D01*
X125558157Y-92868765D01*
X125607440Y-92621000D01*
X125607440Y-91021000D01*
X125558157Y-90773235D01*
X125417809Y-90563191D01*
X125207765Y-90422843D01*
X124960000Y-90373560D01*
X123960000Y-90373560D01*
X123712235Y-90422843D01*
X123502191Y-90563191D01*
X123361843Y-90773235D01*
X123312560Y-91021000D01*
X122742434Y-91021000D01*
X122682330Y-90718841D01*
X122665413Y-90678000D01*
X122580049Y-90471913D01*
X121861210Y-89396094D01*
X121720115Y-89255000D01*
X121672219Y-89207104D01*
X121299660Y-88958167D01*
X123207338Y-88958167D01*
X123349383Y-89301943D01*
X123612173Y-89565192D01*
X123955701Y-89707838D01*
X123961436Y-89707843D01*
X123993843Y-89870765D01*
X124134191Y-90080809D01*
X124344235Y-90221157D01*
X124592000Y-90270440D01*
X125492000Y-90270440D01*
X125739765Y-90221157D01*
X125949809Y-90080809D01*
X126090157Y-89870765D01*
X126139440Y-89623000D01*
X126139440Y-87923000D01*
X126090157Y-87675235D01*
X125949809Y-87465191D01*
X125739765Y-87324843D01*
X125492000Y-87275560D01*
X124592000Y-87275560D01*
X124344235Y-87324843D01*
X124134191Y-87465191D01*
X123993843Y-87675235D01*
X123961499Y-87837842D01*
X123957333Y-87837838D01*
X123613557Y-87979883D01*
X123350308Y-88242673D01*
X123207662Y-88586201D01*
X123207338Y-88958167D01*
X121299660Y-88958167D01*
X120596401Y-88488264D01*
X120421796Y-88415941D01*
X120349471Y-88385983D01*
X119080459Y-88133561D01*
X119012987Y-88133561D01*
X118946822Y-88120400D01*
X116326195Y-88120400D01*
X116326195Y-77595158D01*
X118503313Y-77595158D01*
X118842885Y-78416985D01*
X119471108Y-79046305D01*
X120292341Y-79387311D01*
X121181558Y-79388087D01*
X122003385Y-79048515D01*
X122632705Y-78420292D01*
X122973711Y-77599059D01*
X122974487Y-76709842D01*
X122634915Y-75888015D01*
X122006692Y-75258695D01*
X121185459Y-74917689D01*
X120296242Y-74916913D01*
X119474415Y-75256485D01*
X118845095Y-75884708D01*
X118504089Y-76705941D01*
X118503313Y-77595158D01*
X116326195Y-77595158D01*
X116326195Y-71306491D01*
X171567448Y-71306491D01*
X171567448Y-88120400D01*
G36*
X151045000Y-106187440D02*
X151595000Y-106187440D01*
X151629403Y-106180597D01*
X151622560Y-106215000D01*
X151622560Y-106765000D01*
X151647424Y-106890000D01*
X151622560Y-107015000D01*
X151622560Y-107565000D01*
X151647424Y-107690000D01*
X151622560Y-107815000D01*
X151622560Y-108365000D01*
X151647424Y-108490000D01*
X151622560Y-108615000D01*
X151622560Y-109165000D01*
X151643217Y-109268852D01*
X151635000Y-109288690D01*
X151635000Y-109404250D01*
X151728888Y-109498138D01*
X151772227Y-109562998D01*
X151692633Y-109562998D01*
X151574500Y-109539500D01*
X151283661Y-109597352D01*
X151037099Y-109762099D01*
X150872352Y-110008661D01*
X150814500Y-110299500D01*
X150872352Y-110590339D01*
X150893440Y-110621899D01*
X150893338Y-110738667D01*
X151035383Y-111082443D01*
X151298173Y-111345692D01*
X151622560Y-111480390D01*
X151622560Y-111565000D01*
X151647424Y-111690000D01*
X151622560Y-111815000D01*
X151622560Y-112365000D01*
X151647424Y-112490000D01*
X151622560Y-112615000D01*
X151622560Y-113165000D01*
X151647424Y-113290000D01*
X151622560Y-113415000D01*
X151622560Y-113965000D01*
X151647424Y-114090000D01*
X151622560Y-114215000D01*
X151622560Y-114765000D01*
X151629403Y-114799403D01*
X151595000Y-114792560D01*
X151045000Y-114792560D01*
X150920000Y-114817424D01*
X150795000Y-114792560D01*
X150245000Y-114792560D01*
X150120000Y-114817424D01*
X149995000Y-114792560D01*
X149906125Y-114792560D01*
X149906162Y-114749833D01*
X149764117Y-114406057D01*
X149501327Y-114142808D01*
X149157799Y-114000162D01*
X148785833Y-113999838D01*
X148570894Y-114088649D01*
X148357796Y-114000162D01*
X147985830Y-113999838D01*
X147745331Y-114099210D01*
X147506799Y-114000162D01*
X147134833Y-113999838D01*
X146919894Y-114088649D01*
X146706796Y-114000162D01*
X146334830Y-113999838D01*
X145991054Y-114141883D01*
X145727805Y-114404673D01*
X145585159Y-114748201D01*
X145585120Y-114792560D01*
X145445000Y-114792560D01*
X145320000Y-114817424D01*
X145195000Y-114792560D01*
X144645000Y-114792560D01*
X144520000Y-114817424D01*
X144395000Y-114792560D01*
X143845000Y-114792560D01*
X143720000Y-114817424D01*
X143595000Y-114792560D01*
X143045000Y-114792560D01*
X143010597Y-114799403D01*
X143017440Y-114765000D01*
X143017440Y-114215000D01*
X142992576Y-114090000D01*
X143017440Y-113965000D01*
X143017440Y-113415000D01*
X142992576Y-113290000D01*
X143017440Y-113165000D01*
X143017440Y-112615000D01*
X142992576Y-112490000D01*
X143017440Y-112365000D01*
X143017440Y-112215841D01*
X143276943Y-112108617D01*
X143540192Y-111845827D01*
X143682838Y-111502299D01*
X143683162Y-111130333D01*
X143541117Y-110786557D01*
X143278327Y-110523308D01*
X143005000Y-110409812D01*
X143005000Y-110362998D01*
X142867774Y-110362998D01*
X142911112Y-110298138D01*
X143005000Y-110204250D01*
X143005000Y-110088690D01*
X142996783Y-110068852D01*
X143017440Y-109965000D01*
X143017440Y-109415000D01*
X142992576Y-109290000D01*
X143017440Y-109165000D01*
X143017440Y-108615000D01*
X142992576Y-108490000D01*
X143017440Y-108365000D01*
X143017440Y-107815000D01*
X142992576Y-107690000D01*
X143017440Y-107565000D01*
X143017440Y-107015000D01*
X142992576Y-106890000D01*
X143017440Y-106765000D01*
X143017440Y-106215000D01*
X143010597Y-106180597D01*
X143045000Y-106187440D01*
X143595000Y-106187440D01*
X143720000Y-106162576D01*
X143845000Y-106187440D01*
X144395000Y-106187440D01*
X144520000Y-106162576D01*
X144645000Y-106187440D01*
X145195000Y-106187440D01*
X145320000Y-106162576D01*
X145445000Y-106187440D01*
X145995000Y-106187440D01*
X146120000Y-106162576D01*
X146245000Y-106187440D01*
X146384875Y-106187440D01*
X146384838Y-106230167D01*
X146526883Y-106573943D01*
X146789673Y-106837192D01*
X147133201Y-106979838D01*
X147505167Y-106980162D01*
X147848943Y-106838117D01*
X148112192Y-106575327D01*
X148254838Y-106231799D01*
X148254877Y-106187440D01*
X148395000Y-106187440D01*
X148520000Y-106162576D01*
X148645000Y-106187440D01*
X149195000Y-106187440D01*
X149320000Y-106162576D01*
X149445000Y-106187440D01*
X149995000Y-106187440D01*
X150120000Y-106162576D01*
X150245000Y-106187440D01*
X150795000Y-106187440D01*
X150920000Y-106162576D01*
X151045000Y-106187440D01*
X151045000Y-106187440D01*
G37*
X151045000Y-106187440D02*
X151595000Y-106187440D01*
X151629403Y-106180597D01*
X151622560Y-106215000D01*
X151622560Y-106765000D01*
X151647424Y-106890000D01*
X151622560Y-107015000D01*
X151622560Y-107565000D01*
X151647424Y-107690000D01*
X151622560Y-107815000D01*
X151622560Y-108365000D01*
X151647424Y-108490000D01*
X151622560Y-108615000D01*
X151622560Y-109165000D01*
X151643217Y-109268852D01*
X151635000Y-109288690D01*
X151635000Y-109404250D01*
X151728888Y-109498138D01*
X151772227Y-109562998D01*
X151692633Y-109562998D01*
X151574500Y-109539500D01*
X151283661Y-109597352D01*
X151037099Y-109762099D01*
X150872352Y-110008661D01*
X150814500Y-110299500D01*
X150872352Y-110590339D01*
X150893440Y-110621899D01*
X150893338Y-110738667D01*
X151035383Y-111082443D01*
X151298173Y-111345692D01*
X151622560Y-111480390D01*
X151622560Y-111565000D01*
X151647424Y-111690000D01*
X151622560Y-111815000D01*
X151622560Y-112365000D01*
X151647424Y-112490000D01*
X151622560Y-112615000D01*
X151622560Y-113165000D01*
X151647424Y-113290000D01*
X151622560Y-113415000D01*
X151622560Y-113965000D01*
X151647424Y-114090000D01*
X151622560Y-114215000D01*
X151622560Y-114765000D01*
X151629403Y-114799403D01*
X151595000Y-114792560D01*
X151045000Y-114792560D01*
X150920000Y-114817424D01*
X150795000Y-114792560D01*
X150245000Y-114792560D01*
X150120000Y-114817424D01*
X149995000Y-114792560D01*
X149906125Y-114792560D01*
X149906162Y-114749833D01*
X149764117Y-114406057D01*
X149501327Y-114142808D01*
X149157799Y-114000162D01*
X148785833Y-113999838D01*
X148570894Y-114088649D01*
X148357796Y-114000162D01*
X147985830Y-113999838D01*
X147745331Y-114099210D01*
X147506799Y-114000162D01*
X147134833Y-113999838D01*
X146919894Y-114088649D01*
X146706796Y-114000162D01*
X146334830Y-113999838D01*
X145991054Y-114141883D01*
X145727805Y-114404673D01*
X145585159Y-114748201D01*
X145585120Y-114792560D01*
X145445000Y-114792560D01*
X145320000Y-114817424D01*
X145195000Y-114792560D01*
X144645000Y-114792560D01*
X144520000Y-114817424D01*
X144395000Y-114792560D01*
X143845000Y-114792560D01*
X143720000Y-114817424D01*
X143595000Y-114792560D01*
X143045000Y-114792560D01*
X143010597Y-114799403D01*
X143017440Y-114765000D01*
X143017440Y-114215000D01*
X142992576Y-114090000D01*
X143017440Y-113965000D01*
X143017440Y-113415000D01*
X142992576Y-113290000D01*
X143017440Y-113165000D01*
X143017440Y-112615000D01*
X142992576Y-112490000D01*
X143017440Y-112365000D01*
X143017440Y-112215841D01*
X143276943Y-112108617D01*
X143540192Y-111845827D01*
X143682838Y-111502299D01*
X143683162Y-111130333D01*
X143541117Y-110786557D01*
X143278327Y-110523308D01*
X143005000Y-110409812D01*
X143005000Y-110362998D01*
X142867774Y-110362998D01*
X142911112Y-110298138D01*
X143005000Y-110204250D01*
X143005000Y-110088690D01*
X142996783Y-110068852D01*
X143017440Y-109965000D01*
X143017440Y-109415000D01*
X142992576Y-109290000D01*
X143017440Y-109165000D01*
X143017440Y-108615000D01*
X142992576Y-108490000D01*
X143017440Y-108365000D01*
X143017440Y-107815000D01*
X142992576Y-107690000D01*
X143017440Y-107565000D01*
X143017440Y-107015000D01*
X142992576Y-106890000D01*
X143017440Y-106765000D01*
X143017440Y-106215000D01*
X143010597Y-106180597D01*
X143045000Y-106187440D01*
X143595000Y-106187440D01*
X143720000Y-106162576D01*
X143845000Y-106187440D01*
X144395000Y-106187440D01*
X144520000Y-106162576D01*
X144645000Y-106187440D01*
X145195000Y-106187440D01*
X145320000Y-106162576D01*
X145445000Y-106187440D01*
X145995000Y-106187440D01*
X146120000Y-106162576D01*
X146245000Y-106187440D01*
X146384875Y-106187440D01*
X146384838Y-106230167D01*
X146526883Y-106573943D01*
X146789673Y-106837192D01*
X147133201Y-106979838D01*
X147505167Y-106980162D01*
X147848943Y-106838117D01*
X148112192Y-106575327D01*
X148254838Y-106231799D01*
X148254877Y-106187440D01*
X148395000Y-106187440D01*
X148520000Y-106162576D01*
X148645000Y-106187440D01*
X149195000Y-106187440D01*
X149320000Y-106162576D01*
X149445000Y-106187440D01*
X149995000Y-106187440D01*
X150120000Y-106162576D01*
X150245000Y-106187440D01*
X150795000Y-106187440D01*
X150920000Y-106162576D01*
X151045000Y-106187440D01*
M02*
