G04 #@! TF.FileFunction,Legend,Top*
%FSLAX46Y46*%
G04 Gerber Fmt 4.6, Leading zero omitted, Abs format (unit mm)*
G04 Created by KiCad (PCBNEW no-vcs-found-product) date Sa 10 Okt 2015 23:31:38 CEST*
%MOMM*%
G01*
G04 APERTURE LIST*
%ADD10C,0.100000*%
%ADD11C,0.150000*%
%ADD12C,0.254000*%
%ADD13C,0.304800*%
%ADD14C,0.203200*%
G04 APERTURE END LIST*
D10*
D11*
X118414000Y-108165000D02*
X118414000Y-109562000D01*
X118541000Y-107911000D02*
X118541000Y-109689000D01*
X118668000Y-107530000D02*
X118668000Y-110070000D01*
X118795000Y-110197000D02*
X118795000Y-107403000D01*
X118922000Y-107276000D02*
X118922000Y-110324000D01*
X119049000Y-110451000D02*
X119049000Y-107149000D01*
X119176000Y-107022000D02*
X119176000Y-110578000D01*
X118033000Y-106133000D02*
X122605000Y-106133000D01*
X122605000Y-106133000D02*
X123367000Y-106895000D01*
X123367000Y-106895000D02*
X123367000Y-110705000D01*
X123367000Y-110705000D02*
X122605000Y-111467000D01*
X122605000Y-111467000D02*
X118033000Y-111467000D01*
X118033000Y-111467000D02*
X118033000Y-106133000D01*
X122859000Y-108800000D02*
X122097000Y-108800000D01*
X122478000Y-108419000D02*
X122478000Y-109181000D01*
X123113000Y-108800000D02*
G75*
G03X123113000Y-108800000I-2413000J0D01*
G01*
X129750000Y-106850000D02*
X130750000Y-106850000D01*
X130750000Y-105150000D02*
X129750000Y-105150000D01*
X167200000Y-109850000D02*
X166200000Y-109850000D01*
X166200000Y-111550000D02*
X167200000Y-111550000D01*
X158000000Y-109775000D02*
X156000000Y-109775000D01*
X156000000Y-111825000D02*
X158000000Y-111825000D01*
X166200000Y-76050000D02*
X165200000Y-76050000D01*
X165200000Y-77750000D02*
X166200000Y-77750000D01*
X128150000Y-78550000D02*
X127150000Y-78550000D01*
X127150000Y-80250000D02*
X128150000Y-80250000D01*
X143300000Y-103250000D02*
X142300000Y-103250000D01*
X142300000Y-104950000D02*
X143300000Y-104950000D01*
X154050000Y-105950000D02*
X154050000Y-106950000D01*
X155750000Y-106950000D02*
X155750000Y-105950000D01*
X138200000Y-76800000D02*
X138200000Y-77800000D01*
X139900000Y-77800000D02*
X139900000Y-76800000D01*
X140800000Y-76850000D02*
X140800000Y-77850000D01*
X142500000Y-77850000D02*
X142500000Y-76850000D01*
X144000000Y-76850000D02*
X144000000Y-77850000D01*
X145700000Y-77850000D02*
X145700000Y-76850000D01*
D12*
X117928600Y-94175200D02*
X116176000Y-95927800D01*
X116176000Y-95927800D02*
X114423400Y-94175200D01*
X117928600Y-82135600D02*
X116176000Y-80383000D01*
X116176000Y-80383000D02*
X114423400Y-82135600D01*
X116176000Y-82135600D02*
X105863600Y-82135600D01*
X105863600Y-82135600D02*
X105863600Y-94175200D01*
X105863600Y-94175200D02*
X116176000Y-94175200D01*
X116176000Y-94175200D02*
X121891000Y-94175200D01*
X121891000Y-94175200D02*
X121891000Y-82135600D01*
X121891000Y-82135600D02*
X116176000Y-82135600D01*
D13*
X148390000Y-75810000D02*
X156010000Y-75810000D01*
X156010000Y-75810000D02*
X156010000Y-80890000D01*
X156010000Y-80890000D02*
X148390000Y-80890000D01*
X148390000Y-78350000D02*
X150930000Y-78350000D01*
X150930000Y-78350000D02*
X150930000Y-80890000D01*
X148390000Y-75810000D02*
X148390000Y-80890000D01*
X178010000Y-108290000D02*
X178010000Y-77810000D01*
X183090000Y-77810000D02*
X183090000Y-108290000D01*
X180550000Y-77810000D02*
X180550000Y-80350000D01*
X180550000Y-80350000D02*
X178010000Y-80350000D01*
X183090000Y-77810000D02*
X178010000Y-77810000D01*
X178010000Y-108290000D02*
X183090000Y-108290000D01*
D11*
X129650000Y-102925000D02*
X130850000Y-102925000D01*
X130850000Y-104675000D02*
X129650000Y-104675000D01*
X117350000Y-104775000D02*
X116150000Y-104775000D01*
X116150000Y-103025000D02*
X117350000Y-103025000D01*
X117350000Y-102575000D02*
X116150000Y-102575000D01*
X116150000Y-100825000D02*
X117350000Y-100825000D01*
X123025000Y-91950000D02*
X123025000Y-90750000D01*
X124775000Y-90750000D02*
X124775000Y-91950000D01*
X129417000Y-86103400D02*
X130617000Y-86103400D01*
X130617000Y-87853400D02*
X129417000Y-87853400D01*
X129450000Y-88225000D02*
X130650000Y-88225000D01*
X130650000Y-89975000D02*
X129450000Y-89975000D01*
X129417000Y-90403400D02*
X130617000Y-90403400D01*
X130617000Y-92153400D02*
X129417000Y-92153400D01*
X129421000Y-92511100D02*
X130621000Y-92511100D01*
X130621000Y-94261100D02*
X129421000Y-94261100D01*
X129421000Y-94661100D02*
X130621000Y-94661100D01*
X130621000Y-96411100D02*
X129421000Y-96411100D01*
X129405000Y-96789200D02*
X130605000Y-96789200D01*
X130605000Y-98539200D02*
X129405000Y-98539200D01*
X129405000Y-98939200D02*
X130605000Y-98939200D01*
X130605000Y-100689200D02*
X129405000Y-100689200D01*
X139925000Y-80300000D02*
X139925000Y-81500000D01*
X138175000Y-81500000D02*
X138175000Y-80300000D01*
X142525000Y-80300000D02*
X142525000Y-81500000D01*
X140775000Y-81500000D02*
X140775000Y-80300000D01*
X145725000Y-80250000D02*
X145725000Y-81450000D01*
X143975000Y-81450000D02*
X143975000Y-80250000D01*
X137825000Y-80250000D02*
X137825000Y-81450000D01*
X136075000Y-81450000D02*
X136075000Y-80250000D01*
X124825000Y-97025000D02*
X124825000Y-97800000D01*
X120525000Y-101325000D02*
X120525000Y-100550000D01*
X124825000Y-101325000D02*
X124825000Y-100550000D01*
X120525000Y-97025000D02*
X121300000Y-97025000D01*
X120525000Y-101325000D02*
X121300000Y-101325000D01*
X124825000Y-101325000D02*
X124050000Y-101325000D01*
X124825000Y-97025000D02*
X124050000Y-97025000D01*
X137925000Y-86075000D02*
X137925000Y-86675000D01*
X152175000Y-86075000D02*
X152175000Y-86675000D01*
X152175000Y-100325000D02*
X152175000Y-99725000D01*
X137925000Y-100325000D02*
X137925000Y-99725000D01*
X137925000Y-86075000D02*
X138525000Y-86075000D01*
X137925000Y-100325000D02*
X138525000Y-100325000D01*
X152175000Y-100325000D02*
X151575000Y-100325000D01*
X152175000Y-86075000D02*
X151575000Y-86075000D01*
X137925000Y-86675000D02*
X136400000Y-86675000D01*
X161975000Y-79375000D02*
X161975000Y-79710000D01*
X169725000Y-79375000D02*
X169725000Y-79710000D01*
X169725000Y-92525000D02*
X169725000Y-92190000D01*
X161975000Y-92525000D02*
X161975000Y-92190000D01*
X161975000Y-79375000D02*
X169725000Y-79375000D01*
X161975000Y-92525000D02*
X169725000Y-92525000D01*
X161975000Y-79710000D02*
X160175000Y-79710000D01*
X162125000Y-94375000D02*
X162125000Y-94710000D01*
X169875000Y-94375000D02*
X169875000Y-94710000D01*
X169875000Y-107525000D02*
X169875000Y-107190000D01*
X162125000Y-107525000D02*
X162125000Y-107190000D01*
X162125000Y-94375000D02*
X169875000Y-94375000D01*
X162125000Y-107525000D02*
X169875000Y-107525000D01*
X162125000Y-94710000D02*
X160325000Y-94710000D01*
D13*
X141150000Y-107190000D02*
X148770000Y-107190000D01*
X148770000Y-107190000D02*
X148770000Y-112270000D01*
X148770000Y-112270000D02*
X141150000Y-112270000D01*
X141150000Y-109730000D02*
X143690000Y-109730000D01*
X143690000Y-109730000D02*
X143690000Y-112270000D01*
X141150000Y-107190000D02*
X141150000Y-112270000D01*
D11*
X151975000Y-108250000D02*
X151975000Y-109450000D01*
X150225000Y-109450000D02*
X150225000Y-108250000D01*
X127925000Y-82800000D02*
X127925000Y-84800000D01*
X124975000Y-84800000D02*
X124975000Y-82800000D01*
X120533334Y-105347143D02*
X120485715Y-105394762D01*
X120342858Y-105442381D01*
X120247620Y-105442381D01*
X120104762Y-105394762D01*
X120009524Y-105299524D01*
X119961905Y-105204286D01*
X119914286Y-105013810D01*
X119914286Y-104870952D01*
X119961905Y-104680476D01*
X120009524Y-104585238D01*
X120104762Y-104490000D01*
X120247620Y-104442381D01*
X120342858Y-104442381D01*
X120485715Y-104490000D01*
X120533334Y-104537619D01*
X121485715Y-105442381D02*
X120914286Y-105442381D01*
X121200000Y-105442381D02*
X121200000Y-104442381D01*
X121104762Y-104585238D01*
X121009524Y-104680476D01*
X120914286Y-104728095D01*
X130083334Y-108457143D02*
X130035715Y-108504762D01*
X129892858Y-108552381D01*
X129797620Y-108552381D01*
X129654762Y-108504762D01*
X129559524Y-108409524D01*
X129511905Y-108314286D01*
X129464286Y-108123810D01*
X129464286Y-107980952D01*
X129511905Y-107790476D01*
X129559524Y-107695238D01*
X129654762Y-107600000D01*
X129797620Y-107552381D01*
X129892858Y-107552381D01*
X130035715Y-107600000D01*
X130083334Y-107647619D01*
X130464286Y-107647619D02*
X130511905Y-107600000D01*
X130607143Y-107552381D01*
X130845239Y-107552381D01*
X130940477Y-107600000D01*
X130988096Y-107647619D01*
X131035715Y-107742857D01*
X131035715Y-107838095D01*
X130988096Y-107980952D01*
X130416667Y-108552381D01*
X131035715Y-108552381D01*
X166533334Y-108957143D02*
X166485715Y-109004762D01*
X166342858Y-109052381D01*
X166247620Y-109052381D01*
X166104762Y-109004762D01*
X166009524Y-108909524D01*
X165961905Y-108814286D01*
X165914286Y-108623810D01*
X165914286Y-108480952D01*
X165961905Y-108290476D01*
X166009524Y-108195238D01*
X166104762Y-108100000D01*
X166247620Y-108052381D01*
X166342858Y-108052381D01*
X166485715Y-108100000D01*
X166533334Y-108147619D01*
X166866667Y-108052381D02*
X167485715Y-108052381D01*
X167152381Y-108433333D01*
X167295239Y-108433333D01*
X167390477Y-108480952D01*
X167438096Y-108528571D01*
X167485715Y-108623810D01*
X167485715Y-108861905D01*
X167438096Y-108957143D01*
X167390477Y-109004762D01*
X167295239Y-109052381D01*
X167009524Y-109052381D01*
X166914286Y-109004762D01*
X166866667Y-108957143D01*
X156833334Y-108857143D02*
X156785715Y-108904762D01*
X156642858Y-108952381D01*
X156547620Y-108952381D01*
X156404762Y-108904762D01*
X156309524Y-108809524D01*
X156261905Y-108714286D01*
X156214286Y-108523810D01*
X156214286Y-108380952D01*
X156261905Y-108190476D01*
X156309524Y-108095238D01*
X156404762Y-108000000D01*
X156547620Y-107952381D01*
X156642858Y-107952381D01*
X156785715Y-108000000D01*
X156833334Y-108047619D01*
X157690477Y-108285714D02*
X157690477Y-108952381D01*
X157452381Y-107904762D02*
X157214286Y-108619048D01*
X157833334Y-108619048D01*
X165533334Y-75157143D02*
X165485715Y-75204762D01*
X165342858Y-75252381D01*
X165247620Y-75252381D01*
X165104762Y-75204762D01*
X165009524Y-75109524D01*
X164961905Y-75014286D01*
X164914286Y-74823810D01*
X164914286Y-74680952D01*
X164961905Y-74490476D01*
X165009524Y-74395238D01*
X165104762Y-74300000D01*
X165247620Y-74252381D01*
X165342858Y-74252381D01*
X165485715Y-74300000D01*
X165533334Y-74347619D01*
X166438096Y-74252381D02*
X165961905Y-74252381D01*
X165914286Y-74728571D01*
X165961905Y-74680952D01*
X166057143Y-74633333D01*
X166295239Y-74633333D01*
X166390477Y-74680952D01*
X166438096Y-74728571D01*
X166485715Y-74823810D01*
X166485715Y-75061905D01*
X166438096Y-75157143D01*
X166390477Y-75204762D01*
X166295239Y-75252381D01*
X166057143Y-75252381D01*
X165961905Y-75204762D01*
X165914286Y-75157143D01*
X127483334Y-77657143D02*
X127435715Y-77704762D01*
X127292858Y-77752381D01*
X127197620Y-77752381D01*
X127054762Y-77704762D01*
X126959524Y-77609524D01*
X126911905Y-77514286D01*
X126864286Y-77323810D01*
X126864286Y-77180952D01*
X126911905Y-76990476D01*
X126959524Y-76895238D01*
X127054762Y-76800000D01*
X127197620Y-76752381D01*
X127292858Y-76752381D01*
X127435715Y-76800000D01*
X127483334Y-76847619D01*
X128340477Y-76752381D02*
X128150000Y-76752381D01*
X128054762Y-76800000D01*
X128007143Y-76847619D01*
X127911905Y-76990476D01*
X127864286Y-77180952D01*
X127864286Y-77561905D01*
X127911905Y-77657143D01*
X127959524Y-77704762D01*
X128054762Y-77752381D01*
X128245239Y-77752381D01*
X128340477Y-77704762D01*
X128388096Y-77657143D01*
X128435715Y-77561905D01*
X128435715Y-77323810D01*
X128388096Y-77228571D01*
X128340477Y-77180952D01*
X128245239Y-77133333D01*
X128054762Y-77133333D01*
X127959524Y-77180952D01*
X127911905Y-77228571D01*
X127864286Y-77323810D01*
X142633334Y-102357143D02*
X142585715Y-102404762D01*
X142442858Y-102452381D01*
X142347620Y-102452381D01*
X142204762Y-102404762D01*
X142109524Y-102309524D01*
X142061905Y-102214286D01*
X142014286Y-102023810D01*
X142014286Y-101880952D01*
X142061905Y-101690476D01*
X142109524Y-101595238D01*
X142204762Y-101500000D01*
X142347620Y-101452381D01*
X142442858Y-101452381D01*
X142585715Y-101500000D01*
X142633334Y-101547619D01*
X142966667Y-101452381D02*
X143633334Y-101452381D01*
X143204762Y-102452381D01*
X153157143Y-106616666D02*
X153204762Y-106664285D01*
X153252381Y-106807142D01*
X153252381Y-106902380D01*
X153204762Y-107045238D01*
X153109524Y-107140476D01*
X153014286Y-107188095D01*
X152823810Y-107235714D01*
X152680952Y-107235714D01*
X152490476Y-107188095D01*
X152395238Y-107140476D01*
X152300000Y-107045238D01*
X152252381Y-106902380D01*
X152252381Y-106807142D01*
X152300000Y-106664285D01*
X152347619Y-106616666D01*
X152680952Y-106045238D02*
X152633333Y-106140476D01*
X152585714Y-106188095D01*
X152490476Y-106235714D01*
X152442857Y-106235714D01*
X152347619Y-106188095D01*
X152300000Y-106140476D01*
X152252381Y-106045238D01*
X152252381Y-105854761D01*
X152300000Y-105759523D01*
X152347619Y-105711904D01*
X152442857Y-105664285D01*
X152490476Y-105664285D01*
X152585714Y-105711904D01*
X152633333Y-105759523D01*
X152680952Y-105854761D01*
X152680952Y-106045238D01*
X152728571Y-106140476D01*
X152776190Y-106188095D01*
X152871429Y-106235714D01*
X153061905Y-106235714D01*
X153157143Y-106188095D01*
X153204762Y-106140476D01*
X153252381Y-106045238D01*
X153252381Y-105854761D01*
X153204762Y-105759523D01*
X153157143Y-105711904D01*
X153061905Y-105664285D01*
X152871429Y-105664285D01*
X152776190Y-105711904D01*
X152728571Y-105759523D01*
X152680952Y-105854761D01*
X137402381Y-78038095D02*
X136402381Y-78038095D01*
X136402381Y-77800000D01*
X136450000Y-77657142D01*
X136545238Y-77561904D01*
X136640476Y-77514285D01*
X136830952Y-77466666D01*
X136973810Y-77466666D01*
X137164286Y-77514285D01*
X137259524Y-77561904D01*
X137354762Y-77657142D01*
X137402381Y-77800000D01*
X137402381Y-78038095D01*
X137402381Y-76514285D02*
X137402381Y-77085714D01*
X137402381Y-76800000D02*
X136402381Y-76800000D01*
X136545238Y-76895238D01*
X136640476Y-76990476D01*
X136688095Y-77085714D01*
X140002381Y-78088095D02*
X139002381Y-78088095D01*
X139002381Y-77850000D01*
X139050000Y-77707142D01*
X139145238Y-77611904D01*
X139240476Y-77564285D01*
X139430952Y-77516666D01*
X139573810Y-77516666D01*
X139764286Y-77564285D01*
X139859524Y-77611904D01*
X139954762Y-77707142D01*
X140002381Y-77850000D01*
X140002381Y-78088095D01*
X139097619Y-77135714D02*
X139050000Y-77088095D01*
X139002381Y-76992857D01*
X139002381Y-76754761D01*
X139050000Y-76659523D01*
X139097619Y-76611904D01*
X139192857Y-76564285D01*
X139288095Y-76564285D01*
X139430952Y-76611904D01*
X140002381Y-77183333D01*
X140002381Y-76564285D01*
X143202381Y-78088095D02*
X142202381Y-78088095D01*
X142202381Y-77850000D01*
X142250000Y-77707142D01*
X142345238Y-77611904D01*
X142440476Y-77564285D01*
X142630952Y-77516666D01*
X142773810Y-77516666D01*
X142964286Y-77564285D01*
X143059524Y-77611904D01*
X143154762Y-77707142D01*
X143202381Y-77850000D01*
X143202381Y-78088095D01*
X142202381Y-77183333D02*
X142202381Y-76564285D01*
X142583333Y-76897619D01*
X142583333Y-76754761D01*
X142630952Y-76659523D01*
X142678571Y-76611904D01*
X142773810Y-76564285D01*
X143011905Y-76564285D01*
X143107143Y-76611904D01*
X143154762Y-76659523D01*
X143202381Y-76754761D01*
X143202381Y-77040476D01*
X143154762Y-77135714D01*
X143107143Y-77183333D01*
D13*
X105178889Y-89280257D02*
X103654889Y-89280257D01*
X103654889Y-88699685D01*
X103727460Y-88554543D01*
X103800031Y-88481971D01*
X103945174Y-88409400D01*
X104162889Y-88409400D01*
X104308031Y-88481971D01*
X104380603Y-88554543D01*
X104453174Y-88699685D01*
X104453174Y-89280257D01*
X103800031Y-87828828D02*
X103727460Y-87756257D01*
X103654889Y-87611114D01*
X103654889Y-87248257D01*
X103727460Y-87103114D01*
X103800031Y-87030543D01*
X103945174Y-86957971D01*
X104090317Y-86957971D01*
X104308031Y-87030543D01*
X105178889Y-87901400D01*
X105178889Y-86957971D01*
X122156249Y-90078543D02*
X123389963Y-90078543D01*
X123535106Y-90005971D01*
X123607677Y-89933400D01*
X123680249Y-89788257D01*
X123680249Y-89497971D01*
X123607677Y-89352829D01*
X123535106Y-89280257D01*
X123389963Y-89207686D01*
X122156249Y-89207686D01*
X123607677Y-88554543D02*
X123680249Y-88336829D01*
X123680249Y-87973972D01*
X123607677Y-87828829D01*
X123535106Y-87756258D01*
X123389963Y-87683686D01*
X123244820Y-87683686D01*
X123099677Y-87756258D01*
X123027106Y-87828829D01*
X122954534Y-87973972D01*
X122881963Y-88264258D01*
X122809391Y-88409400D01*
X122736820Y-88481972D01*
X122591677Y-88554543D01*
X122446534Y-88554543D01*
X122301391Y-88481972D01*
X122228820Y-88409400D01*
X122156249Y-88264258D01*
X122156249Y-87901400D01*
X122228820Y-87683686D01*
X122881963Y-86522543D02*
X122954534Y-86304829D01*
X123027106Y-86232257D01*
X123172249Y-86159686D01*
X123389963Y-86159686D01*
X123535106Y-86232257D01*
X123607677Y-86304829D01*
X123680249Y-86449971D01*
X123680249Y-87030543D01*
X122156249Y-87030543D01*
X122156249Y-86522543D01*
X122228820Y-86377400D01*
X122301391Y-86304829D01*
X122446534Y-86232257D01*
X122591677Y-86232257D01*
X122736820Y-86304829D01*
X122809391Y-86377400D01*
X122881963Y-86522543D01*
X122881963Y-87030543D01*
D14*
X151450096Y-74999619D02*
X151450096Y-73983619D01*
X151837143Y-73983619D01*
X151933905Y-74032000D01*
X151982286Y-74080381D01*
X152030667Y-74177143D01*
X152030667Y-74322286D01*
X151982286Y-74419048D01*
X151933905Y-74467429D01*
X151837143Y-74515810D01*
X151450096Y-74515810D01*
X152369334Y-73983619D02*
X152998286Y-73983619D01*
X152659620Y-74370667D01*
X152804762Y-74370667D01*
X152901524Y-74419048D01*
X152949905Y-74467429D01*
X152998286Y-74564190D01*
X152998286Y-74806095D01*
X152949905Y-74902857D01*
X152901524Y-74951238D01*
X152804762Y-74999619D01*
X152514477Y-74999619D01*
X152417715Y-74951238D01*
X152369334Y-74902857D01*
X184819619Y-93799904D02*
X183803619Y-93799904D01*
X183803619Y-93412857D01*
X183852000Y-93316095D01*
X183900381Y-93267714D01*
X183997143Y-93219333D01*
X184142286Y-93219333D01*
X184239048Y-93267714D01*
X184287429Y-93316095D01*
X184335810Y-93412857D01*
X184335810Y-93799904D01*
X183803619Y-92300095D02*
X183803619Y-92783904D01*
X184287429Y-92832285D01*
X184239048Y-92783904D01*
X184190667Y-92687142D01*
X184190667Y-92445238D01*
X184239048Y-92348476D01*
X184287429Y-92300095D01*
X184384190Y-92251714D01*
X184626095Y-92251714D01*
X184722857Y-92300095D01*
X184771238Y-92348476D01*
X184819619Y-92445238D01*
X184819619Y-92687142D01*
X184771238Y-92783904D01*
X184722857Y-92832285D01*
D11*
X130083334Y-106352381D02*
X129750000Y-105876190D01*
X129511905Y-106352381D02*
X129511905Y-105352381D01*
X129892858Y-105352381D01*
X129988096Y-105400000D01*
X130035715Y-105447619D01*
X130083334Y-105542857D01*
X130083334Y-105685714D01*
X130035715Y-105780952D01*
X129988096Y-105828571D01*
X129892858Y-105876190D01*
X129511905Y-105876190D01*
X131035715Y-106352381D02*
X130464286Y-106352381D01*
X130750000Y-106352381D02*
X130750000Y-105352381D01*
X130654762Y-105495238D01*
X130559524Y-105590476D01*
X130464286Y-105638095D01*
X116583334Y-102252381D02*
X116250000Y-101776190D01*
X116011905Y-102252381D02*
X116011905Y-101252381D01*
X116392858Y-101252381D01*
X116488096Y-101300000D01*
X116535715Y-101347619D01*
X116583334Y-101442857D01*
X116583334Y-101585714D01*
X116535715Y-101680952D01*
X116488096Y-101728571D01*
X116392858Y-101776190D01*
X116011905Y-101776190D01*
X116964286Y-101347619D02*
X117011905Y-101300000D01*
X117107143Y-101252381D01*
X117345239Y-101252381D01*
X117440477Y-101300000D01*
X117488096Y-101347619D01*
X117535715Y-101442857D01*
X117535715Y-101538095D01*
X117488096Y-101680952D01*
X116916667Y-102252381D01*
X117535715Y-102252381D01*
X116583334Y-100052381D02*
X116250000Y-99576190D01*
X116011905Y-100052381D02*
X116011905Y-99052381D01*
X116392858Y-99052381D01*
X116488096Y-99100000D01*
X116535715Y-99147619D01*
X116583334Y-99242857D01*
X116583334Y-99385714D01*
X116535715Y-99480952D01*
X116488096Y-99528571D01*
X116392858Y-99576190D01*
X116011905Y-99576190D01*
X116916667Y-99052381D02*
X117535715Y-99052381D01*
X117202381Y-99433333D01*
X117345239Y-99433333D01*
X117440477Y-99480952D01*
X117488096Y-99528571D01*
X117535715Y-99623810D01*
X117535715Y-99861905D01*
X117488096Y-99957143D01*
X117440477Y-100004762D01*
X117345239Y-100052381D01*
X117059524Y-100052381D01*
X116964286Y-100004762D01*
X116916667Y-99957143D01*
X126452381Y-91516666D02*
X125976190Y-91850000D01*
X126452381Y-92088095D02*
X125452381Y-92088095D01*
X125452381Y-91707142D01*
X125500000Y-91611904D01*
X125547619Y-91564285D01*
X125642857Y-91516666D01*
X125785714Y-91516666D01*
X125880952Y-91564285D01*
X125928571Y-91611904D01*
X125976190Y-91707142D01*
X125976190Y-92088095D01*
X125785714Y-90659523D02*
X126452381Y-90659523D01*
X125404762Y-90897619D02*
X126119048Y-91135714D01*
X126119048Y-90516666D01*
X129850334Y-89530781D02*
X129517000Y-89054590D01*
X129278905Y-89530781D02*
X129278905Y-88530781D01*
X129659858Y-88530781D01*
X129755096Y-88578400D01*
X129802715Y-88626019D01*
X129850334Y-88721257D01*
X129850334Y-88864114D01*
X129802715Y-88959352D01*
X129755096Y-89006971D01*
X129659858Y-89054590D01*
X129278905Y-89054590D01*
X130755096Y-88530781D02*
X130278905Y-88530781D01*
X130231286Y-89006971D01*
X130278905Y-88959352D01*
X130374143Y-88911733D01*
X130612239Y-88911733D01*
X130707477Y-88959352D01*
X130755096Y-89006971D01*
X130802715Y-89102210D01*
X130802715Y-89340305D01*
X130755096Y-89435543D01*
X130707477Y-89483162D01*
X130612239Y-89530781D01*
X130374143Y-89530781D01*
X130278905Y-89483162D01*
X130231286Y-89435543D01*
X129883334Y-91652381D02*
X129550000Y-91176190D01*
X129311905Y-91652381D02*
X129311905Y-90652381D01*
X129692858Y-90652381D01*
X129788096Y-90700000D01*
X129835715Y-90747619D01*
X129883334Y-90842857D01*
X129883334Y-90985714D01*
X129835715Y-91080952D01*
X129788096Y-91128571D01*
X129692858Y-91176190D01*
X129311905Y-91176190D01*
X130216667Y-90652381D02*
X130883334Y-90652381D01*
X130454762Y-91652381D01*
X129850334Y-93830781D02*
X129517000Y-93354590D01*
X129278905Y-93830781D02*
X129278905Y-92830781D01*
X129659858Y-92830781D01*
X129755096Y-92878400D01*
X129802715Y-92926019D01*
X129850334Y-93021257D01*
X129850334Y-93164114D01*
X129802715Y-93259352D01*
X129755096Y-93306971D01*
X129659858Y-93354590D01*
X129278905Y-93354590D01*
X130421762Y-93259352D02*
X130326524Y-93211733D01*
X130278905Y-93164114D01*
X130231286Y-93068876D01*
X130231286Y-93021257D01*
X130278905Y-92926019D01*
X130326524Y-92878400D01*
X130421762Y-92830781D01*
X130612239Y-92830781D01*
X130707477Y-92878400D01*
X130755096Y-92926019D01*
X130802715Y-93021257D01*
X130802715Y-93068876D01*
X130755096Y-93164114D01*
X130707477Y-93211733D01*
X130612239Y-93259352D01*
X130421762Y-93259352D01*
X130326524Y-93306971D01*
X130278905Y-93354590D01*
X130231286Y-93449829D01*
X130231286Y-93640305D01*
X130278905Y-93735543D01*
X130326524Y-93783162D01*
X130421762Y-93830781D01*
X130612239Y-93830781D01*
X130707477Y-93783162D01*
X130755096Y-93735543D01*
X130802715Y-93640305D01*
X130802715Y-93449829D01*
X130755096Y-93354590D01*
X130707477Y-93306971D01*
X130612239Y-93259352D01*
X129854334Y-95938481D02*
X129521000Y-95462290D01*
X129282905Y-95938481D02*
X129282905Y-94938481D01*
X129663858Y-94938481D01*
X129759096Y-94986100D01*
X129806715Y-95033719D01*
X129854334Y-95128957D01*
X129854334Y-95271814D01*
X129806715Y-95367052D01*
X129759096Y-95414671D01*
X129663858Y-95462290D01*
X129282905Y-95462290D01*
X130330524Y-95938481D02*
X130521000Y-95938481D01*
X130616239Y-95890862D01*
X130663858Y-95843243D01*
X130759096Y-95700386D01*
X130806715Y-95509910D01*
X130806715Y-95128957D01*
X130759096Y-95033719D01*
X130711477Y-94986100D01*
X130616239Y-94938481D01*
X130425762Y-94938481D01*
X130330524Y-94986100D01*
X130282905Y-95033719D01*
X130235286Y-95128957D01*
X130235286Y-95367052D01*
X130282905Y-95462290D01*
X130330524Y-95509910D01*
X130425762Y-95557529D01*
X130616239Y-95557529D01*
X130711477Y-95509910D01*
X130759096Y-95462290D01*
X130806715Y-95367052D01*
X129378143Y-98088481D02*
X129044809Y-97612290D01*
X128806714Y-98088481D02*
X128806714Y-97088481D01*
X129187667Y-97088481D01*
X129282905Y-97136100D01*
X129330524Y-97183719D01*
X129378143Y-97278957D01*
X129378143Y-97421814D01*
X129330524Y-97517052D01*
X129282905Y-97564671D01*
X129187667Y-97612290D01*
X128806714Y-97612290D01*
X130330524Y-98088481D02*
X129759095Y-98088481D01*
X130044809Y-98088481D02*
X130044809Y-97088481D01*
X129949571Y-97231338D01*
X129854333Y-97326576D01*
X129759095Y-97374195D01*
X130949571Y-97088481D02*
X131044810Y-97088481D01*
X131140048Y-97136100D01*
X131187667Y-97183719D01*
X131235286Y-97278957D01*
X131282905Y-97469433D01*
X131282905Y-97707529D01*
X131235286Y-97898005D01*
X131187667Y-97993243D01*
X131140048Y-98040862D01*
X131044810Y-98088481D01*
X130949571Y-98088481D01*
X130854333Y-98040862D01*
X130806714Y-97993243D01*
X130759095Y-97898005D01*
X130711476Y-97707529D01*
X130711476Y-97469433D01*
X130759095Y-97278957D01*
X130806714Y-97183719D01*
X130854333Y-97136100D01*
X130949571Y-97088481D01*
X129362143Y-100216581D02*
X129028809Y-99740390D01*
X128790714Y-100216581D02*
X128790714Y-99216581D01*
X129171667Y-99216581D01*
X129266905Y-99264200D01*
X129314524Y-99311819D01*
X129362143Y-99407057D01*
X129362143Y-99549914D01*
X129314524Y-99645152D01*
X129266905Y-99692771D01*
X129171667Y-99740390D01*
X128790714Y-99740390D01*
X130314524Y-100216581D02*
X129743095Y-100216581D01*
X130028809Y-100216581D02*
X130028809Y-99216581D01*
X129933571Y-99359438D01*
X129838333Y-99454676D01*
X129743095Y-99502295D01*
X131266905Y-100216581D02*
X130695476Y-100216581D01*
X130981190Y-100216581D02*
X130981190Y-99216581D01*
X130885952Y-99359438D01*
X130790714Y-99454676D01*
X130695476Y-99502295D01*
X129362143Y-102366581D02*
X129028809Y-101890390D01*
X128790714Y-102366581D02*
X128790714Y-101366581D01*
X129171667Y-101366581D01*
X129266905Y-101414200D01*
X129314524Y-101461819D01*
X129362143Y-101557057D01*
X129362143Y-101699914D01*
X129314524Y-101795152D01*
X129266905Y-101842771D01*
X129171667Y-101890390D01*
X128790714Y-101890390D01*
X130314524Y-102366581D02*
X129743095Y-102366581D01*
X130028809Y-102366581D02*
X130028809Y-101366581D01*
X129933571Y-101509438D01*
X129838333Y-101604676D01*
X129743095Y-101652295D01*
X130695476Y-101461819D02*
X130743095Y-101414200D01*
X130838333Y-101366581D01*
X131076429Y-101366581D01*
X131171667Y-101414200D01*
X131219286Y-101461819D01*
X131266905Y-101557057D01*
X131266905Y-101652295D01*
X131219286Y-101795152D01*
X130647857Y-102366581D01*
X131266905Y-102366581D01*
X137402381Y-81542857D02*
X136926190Y-81876191D01*
X137402381Y-82114286D02*
X136402381Y-82114286D01*
X136402381Y-81733333D01*
X136450000Y-81638095D01*
X136497619Y-81590476D01*
X136592857Y-81542857D01*
X136735714Y-81542857D01*
X136830952Y-81590476D01*
X136878571Y-81638095D01*
X136926190Y-81733333D01*
X136926190Y-82114286D01*
X136497619Y-81161905D02*
X136450000Y-81114286D01*
X136402381Y-81019048D01*
X136402381Y-80780952D01*
X136450000Y-80685714D01*
X136497619Y-80638095D01*
X136592857Y-80590476D01*
X136688095Y-80590476D01*
X136830952Y-80638095D01*
X137402381Y-81209524D01*
X137402381Y-80590476D01*
X137402381Y-79638095D02*
X137402381Y-80209524D01*
X137402381Y-79923810D02*
X136402381Y-79923810D01*
X136545238Y-80019048D01*
X136640476Y-80114286D01*
X136688095Y-80209524D01*
X140002381Y-81542857D02*
X139526190Y-81876191D01*
X140002381Y-82114286D02*
X139002381Y-82114286D01*
X139002381Y-81733333D01*
X139050000Y-81638095D01*
X139097619Y-81590476D01*
X139192857Y-81542857D01*
X139335714Y-81542857D01*
X139430952Y-81590476D01*
X139478571Y-81638095D01*
X139526190Y-81733333D01*
X139526190Y-82114286D01*
X139097619Y-81161905D02*
X139050000Y-81114286D01*
X139002381Y-81019048D01*
X139002381Y-80780952D01*
X139050000Y-80685714D01*
X139097619Y-80638095D01*
X139192857Y-80590476D01*
X139288095Y-80590476D01*
X139430952Y-80638095D01*
X140002381Y-81209524D01*
X140002381Y-80590476D01*
X139097619Y-80209524D02*
X139050000Y-80161905D01*
X139002381Y-80066667D01*
X139002381Y-79828571D01*
X139050000Y-79733333D01*
X139097619Y-79685714D01*
X139192857Y-79638095D01*
X139288095Y-79638095D01*
X139430952Y-79685714D01*
X140002381Y-80257143D01*
X140002381Y-79638095D01*
X143202381Y-81492857D02*
X142726190Y-81826191D01*
X143202381Y-82064286D02*
X142202381Y-82064286D01*
X142202381Y-81683333D01*
X142250000Y-81588095D01*
X142297619Y-81540476D01*
X142392857Y-81492857D01*
X142535714Y-81492857D01*
X142630952Y-81540476D01*
X142678571Y-81588095D01*
X142726190Y-81683333D01*
X142726190Y-82064286D01*
X142297619Y-81111905D02*
X142250000Y-81064286D01*
X142202381Y-80969048D01*
X142202381Y-80730952D01*
X142250000Y-80635714D01*
X142297619Y-80588095D01*
X142392857Y-80540476D01*
X142488095Y-80540476D01*
X142630952Y-80588095D01*
X143202381Y-81159524D01*
X143202381Y-80540476D01*
X142202381Y-80207143D02*
X142202381Y-79588095D01*
X142583333Y-79921429D01*
X142583333Y-79778571D01*
X142630952Y-79683333D01*
X142678571Y-79635714D01*
X142773810Y-79588095D01*
X143011905Y-79588095D01*
X143107143Y-79635714D01*
X143154762Y-79683333D01*
X143202381Y-79778571D01*
X143202381Y-80064286D01*
X143154762Y-80159524D01*
X143107143Y-80207143D01*
X135552381Y-81542857D02*
X135076190Y-81876191D01*
X135552381Y-82114286D02*
X134552381Y-82114286D01*
X134552381Y-81733333D01*
X134600000Y-81638095D01*
X134647619Y-81590476D01*
X134742857Y-81542857D01*
X134885714Y-81542857D01*
X134980952Y-81590476D01*
X135028571Y-81638095D01*
X135076190Y-81733333D01*
X135076190Y-82114286D01*
X134647619Y-81161905D02*
X134600000Y-81114286D01*
X134552381Y-81019048D01*
X134552381Y-80780952D01*
X134600000Y-80685714D01*
X134647619Y-80638095D01*
X134742857Y-80590476D01*
X134838095Y-80590476D01*
X134980952Y-80638095D01*
X135552381Y-81209524D01*
X135552381Y-80590476D01*
X134885714Y-79733333D02*
X135552381Y-79733333D01*
X134504762Y-79971429D02*
X135219048Y-80209524D01*
X135219048Y-79590476D01*
X121913095Y-95227381D02*
X121913095Y-96036905D01*
X121960714Y-96132143D01*
X122008333Y-96179762D01*
X122103571Y-96227381D01*
X122294048Y-96227381D01*
X122389286Y-96179762D01*
X122436905Y-96132143D01*
X122484524Y-96036905D01*
X122484524Y-95227381D01*
X122865476Y-95227381D02*
X123484524Y-95227381D01*
X123151190Y-95608333D01*
X123294048Y-95608333D01*
X123389286Y-95655952D01*
X123436905Y-95703571D01*
X123484524Y-95798810D01*
X123484524Y-96036905D01*
X123436905Y-96132143D01*
X123389286Y-96179762D01*
X123294048Y-96227381D01*
X123008333Y-96227381D01*
X122913095Y-96179762D01*
X122865476Y-96132143D01*
X144288095Y-83002381D02*
X144288095Y-83811905D01*
X144335714Y-83907143D01*
X144383333Y-83954762D01*
X144478571Y-84002381D01*
X144669048Y-84002381D01*
X144764286Y-83954762D01*
X144811905Y-83907143D01*
X144859524Y-83811905D01*
X144859524Y-83002381D01*
X145764286Y-83335714D02*
X145764286Y-84002381D01*
X145526190Y-82954762D02*
X145288095Y-83669048D01*
X145907143Y-83669048D01*
X165088095Y-77902381D02*
X165088095Y-78711905D01*
X165135714Y-78807143D01*
X165183333Y-78854762D01*
X165278571Y-78902381D01*
X165469048Y-78902381D01*
X165564286Y-78854762D01*
X165611905Y-78807143D01*
X165659524Y-78711905D01*
X165659524Y-77902381D01*
X166659524Y-78902381D02*
X166088095Y-78902381D01*
X166373809Y-78902381D02*
X166373809Y-77902381D01*
X166278571Y-78045238D01*
X166183333Y-78140476D01*
X166088095Y-78188095D01*
X165238095Y-92902381D02*
X165238095Y-93711905D01*
X165285714Y-93807143D01*
X165333333Y-93854762D01*
X165428571Y-93902381D01*
X165619048Y-93902381D01*
X165714286Y-93854762D01*
X165761905Y-93807143D01*
X165809524Y-93711905D01*
X165809524Y-92902381D01*
X166238095Y-92997619D02*
X166285714Y-92950000D01*
X166380952Y-92902381D01*
X166619048Y-92902381D01*
X166714286Y-92950000D01*
X166761905Y-92997619D01*
X166809524Y-93092857D01*
X166809524Y-93188095D01*
X166761905Y-93330952D01*
X166190476Y-93902381D01*
X166809524Y-93902381D01*
D14*
X143726286Y-106282857D02*
X143677905Y-106331238D01*
X143532762Y-106379619D01*
X143436000Y-106379619D01*
X143290858Y-106331238D01*
X143194096Y-106234476D01*
X143145715Y-106137714D01*
X143097334Y-105944190D01*
X143097334Y-105799048D01*
X143145715Y-105605524D01*
X143194096Y-105508762D01*
X143290858Y-105412000D01*
X143436000Y-105363619D01*
X143532762Y-105363619D01*
X143677905Y-105412000D01*
X143726286Y-105460381D01*
X144355239Y-105363619D02*
X144548762Y-105363619D01*
X144645524Y-105412000D01*
X144742286Y-105508762D01*
X144790667Y-105702286D01*
X144790667Y-106040952D01*
X144742286Y-106234476D01*
X144645524Y-106331238D01*
X144548762Y-106379619D01*
X144355239Y-106379619D01*
X144258477Y-106331238D01*
X144161715Y-106234476D01*
X144113334Y-106040952D01*
X144113334Y-105702286D01*
X144161715Y-105508762D01*
X144258477Y-105412000D01*
X144355239Y-105363619D01*
X145226096Y-106379619D02*
X145226096Y-105363619D01*
X145806667Y-106379619D01*
X145806667Y-105363619D01*
X146822667Y-106379619D02*
X146242096Y-106379619D01*
X146532382Y-106379619D02*
X146532382Y-105363619D01*
X146435620Y-105508762D01*
X146338858Y-105605524D01*
X146242096Y-105653905D01*
D11*
X149452381Y-109492857D02*
X148976190Y-109826191D01*
X149452381Y-110064286D02*
X148452381Y-110064286D01*
X148452381Y-109683333D01*
X148500000Y-109588095D01*
X148547619Y-109540476D01*
X148642857Y-109492857D01*
X148785714Y-109492857D01*
X148880952Y-109540476D01*
X148928571Y-109588095D01*
X148976190Y-109683333D01*
X148976190Y-110064286D01*
X148547619Y-109111905D02*
X148500000Y-109064286D01*
X148452381Y-108969048D01*
X148452381Y-108730952D01*
X148500000Y-108635714D01*
X148547619Y-108588095D01*
X148642857Y-108540476D01*
X148738095Y-108540476D01*
X148880952Y-108588095D01*
X149452381Y-109159524D01*
X149452381Y-108540476D01*
X148452381Y-107635714D02*
X148452381Y-108111905D01*
X148928571Y-108159524D01*
X148880952Y-108111905D01*
X148833333Y-108016667D01*
X148833333Y-107778571D01*
X148880952Y-107683333D01*
X148928571Y-107635714D01*
X149023810Y-107588095D01*
X149261905Y-107588095D01*
X149357143Y-107635714D01*
X149404762Y-107683333D01*
X149452381Y-107778571D01*
X149452381Y-108016667D01*
X149404762Y-108111905D01*
X149357143Y-108159524D01*
X124202381Y-83966666D02*
X123726190Y-84300000D01*
X124202381Y-84538095D02*
X123202381Y-84538095D01*
X123202381Y-84157142D01*
X123250000Y-84061904D01*
X123297619Y-84014285D01*
X123392857Y-83966666D01*
X123535714Y-83966666D01*
X123630952Y-84014285D01*
X123678571Y-84061904D01*
X123726190Y-84157142D01*
X123726190Y-84538095D01*
X123202381Y-83109523D02*
X123202381Y-83300000D01*
X123250000Y-83395238D01*
X123297619Y-83442857D01*
X123440476Y-83538095D01*
X123630952Y-83585714D01*
X124011905Y-83585714D01*
X124107143Y-83538095D01*
X124154762Y-83490476D01*
X124202381Y-83395238D01*
X124202381Y-83204761D01*
X124154762Y-83109523D01*
X124107143Y-83061904D01*
X124011905Y-83014285D01*
X123773810Y-83014285D01*
X123678571Y-83061904D01*
X123630952Y-83109523D01*
X123583333Y-83204761D01*
X123583333Y-83395238D01*
X123630952Y-83490476D01*
X123678571Y-83538095D01*
X123773810Y-83585714D01*
M02*
