G04 #@! TF.FileFunction,Copper,L1,Top,Signal*
%FSLAX46Y46*%
G04 Gerber Fmt 4.6, Leading zero omitted, Abs format (unit mm)*
G04 Created by KiCad (PCBNEW no-vcs-found-product) date Mo 14 Sep 2015 21:18:45 CEST*
%MOMM*%
G01*
G04 APERTURE LIST*
%ADD10C,0.100000*%
%ADD11R,2.999740X1.600200*%
%ADD12R,1.000000X1.250000*%
%ADD13R,1.000000X1.600000*%
%ADD14R,1.250000X1.000000*%
%ADD15C,1.501140*%
%ADD16C,3.500120*%
%ADD17R,1.524000X1.998980*%
%ADD18O,1.524000X1.998980*%
%ADD19R,1.998980X1.524000*%
%ADD20O,1.998980X1.524000*%
%ADD21R,0.700000X1.300000*%
%ADD22R,1.300000X0.700000*%
%ADD23R,0.800000X0.350000*%
%ADD24R,0.350000X0.800000*%
%ADD25R,1.250000X1.250000*%
%ADD26R,1.500000X0.600000*%
%ADD27R,0.600000X1.500000*%
%ADD28R,1.950000X0.600000*%
%ADD29R,2.199640X1.524000*%
%ADD30O,2.199640X1.524000*%
%ADD31R,2.500000X1.000000*%
%ADD32C,0.600000*%
%ADD33C,0.250000*%
%ADD34C,0.254000*%
G04 APERTURE END LIST*
D10*
D11*
X122899640Y-108800000D03*
X118500360Y-108800000D03*
D12*
X131250000Y-106000000D03*
X129250000Y-106000000D03*
X165700000Y-110700000D03*
X167700000Y-110700000D03*
D13*
X155500000Y-110800000D03*
X158500000Y-110800000D03*
D12*
X164700000Y-76900000D03*
X166700000Y-76900000D03*
D14*
X123000000Y-79300000D03*
X123000000Y-77300000D03*
X134300000Y-106100000D03*
X134300000Y-104100000D03*
X154900000Y-107450000D03*
X154900000Y-105450000D03*
X127000000Y-77200000D03*
X127000000Y-79200000D03*
D12*
X179100000Y-76650000D03*
X181100000Y-76650000D03*
D14*
X138300000Y-111100000D03*
X138300000Y-109100000D03*
D15*
X118893800Y-86910800D03*
X118893800Y-89400000D03*
X120900400Y-89400000D03*
X120900400Y-86910800D03*
D16*
X116176000Y-82135600D03*
X116176000Y-94175200D03*
D17*
X145900000Y-80388920D03*
D18*
X145900000Y-77351080D03*
X148440000Y-80388920D03*
X148440000Y-77351080D03*
X150980000Y-80388920D03*
X150980000Y-77351080D03*
D19*
X179031080Y-79080000D03*
D20*
X182068920Y-79080000D03*
X179031080Y-81620000D03*
X182068920Y-81620000D03*
X179031080Y-84160000D03*
X182068920Y-84160000D03*
X179031080Y-86700000D03*
X182068920Y-86700000D03*
X179031080Y-89240000D03*
X182068920Y-89240000D03*
X179031080Y-91780000D03*
X182068920Y-91780000D03*
X179031080Y-94320000D03*
X182068920Y-94320000D03*
X179031080Y-96860000D03*
X182068920Y-96860000D03*
X179031080Y-99400000D03*
X182068920Y-99400000D03*
X179031080Y-101940000D03*
X182068920Y-101940000D03*
X179031080Y-104480000D03*
X182068920Y-104480000D03*
X179031080Y-107020000D03*
X182068920Y-107020000D03*
D21*
X131200000Y-103800000D03*
X129300000Y-103800000D03*
X115800000Y-103900000D03*
X117700000Y-103900000D03*
X115800000Y-101700000D03*
X117700000Y-101700000D03*
D22*
X123900000Y-90400000D03*
X123900000Y-92300000D03*
D21*
X130967000Y-86978400D03*
X129067000Y-86978400D03*
X131000000Y-89100000D03*
X129100000Y-89100000D03*
X130967000Y-91278400D03*
X129067000Y-91278400D03*
X130971000Y-93386100D03*
X129071000Y-93386100D03*
X130971000Y-95536100D03*
X129071000Y-95536100D03*
X130955000Y-97664200D03*
X129055000Y-97664200D03*
X130955000Y-99814200D03*
X129055000Y-99814200D03*
X133300000Y-83300000D03*
X135200000Y-83300000D03*
D22*
X126954000Y-108982000D03*
X126954000Y-110882000D03*
X129054000Y-108982000D03*
X129054000Y-110882000D03*
X131200000Y-109000000D03*
X131200000Y-110900000D03*
X133000000Y-78900000D03*
X133000000Y-77000000D03*
X130732000Y-78819600D03*
X130732000Y-76919600D03*
X135800000Y-109150000D03*
X135800000Y-111050000D03*
D21*
X130950000Y-84900000D03*
X129050000Y-84900000D03*
D22*
X138532000Y-78719600D03*
X138532000Y-76819600D03*
X140782000Y-78719600D03*
X140782000Y-76819600D03*
X143082000Y-78719600D03*
X143082000Y-76819600D03*
X136382000Y-78719600D03*
X136382000Y-76819600D03*
D23*
X120675000Y-98200000D03*
X120675000Y-98850000D03*
X120675000Y-99500000D03*
X120675000Y-100150000D03*
D24*
X121700000Y-101175000D03*
X122350000Y-101175000D03*
X123000000Y-101175000D03*
X123650000Y-101175000D03*
D23*
X124675000Y-100150000D03*
X124675000Y-99500000D03*
X124675000Y-98850000D03*
X124675000Y-98200000D03*
D24*
X123650000Y-97175000D03*
X123000000Y-97175000D03*
X122350000Y-97175000D03*
X121700000Y-97175000D03*
D25*
X123300000Y-99800000D03*
X123300000Y-98550000D03*
X122050000Y-99800000D03*
X122050000Y-98550000D03*
D26*
X137150000Y-87200000D03*
X137150000Y-88000000D03*
X137150000Y-88800000D03*
X137150000Y-89600000D03*
X137150000Y-90400000D03*
X137150000Y-91200000D03*
X137150000Y-92000000D03*
X137150000Y-92800000D03*
X137150000Y-93600000D03*
X137150000Y-94400000D03*
X137150000Y-95200000D03*
X137150000Y-96000000D03*
X137150000Y-96800000D03*
X137150000Y-97600000D03*
X137150000Y-98400000D03*
X137150000Y-99200000D03*
D27*
X139050000Y-101100000D03*
X139850000Y-101100000D03*
X140650000Y-101100000D03*
X141450000Y-101100000D03*
X142250000Y-101100000D03*
X143050000Y-101100000D03*
X143850000Y-101100000D03*
X144650000Y-101100000D03*
X145450000Y-101100000D03*
X146250000Y-101100000D03*
X147050000Y-101100000D03*
X147850000Y-101100000D03*
X148650000Y-101100000D03*
X149450000Y-101100000D03*
X150250000Y-101100000D03*
X151050000Y-101100000D03*
D26*
X152950000Y-99200000D03*
X152950000Y-98400000D03*
X152950000Y-97600000D03*
X152950000Y-96800000D03*
X152950000Y-96000000D03*
X152950000Y-95200000D03*
X152950000Y-94400000D03*
X152950000Y-93600000D03*
X152950000Y-92800000D03*
X152950000Y-92000000D03*
X152950000Y-91200000D03*
X152950000Y-90400000D03*
X152950000Y-89600000D03*
X152950000Y-88800000D03*
X152950000Y-88000000D03*
X152950000Y-87200000D03*
D27*
X151050000Y-85300000D03*
X150250000Y-85300000D03*
X149450000Y-85300000D03*
X148650000Y-85300000D03*
X147850000Y-85300000D03*
X147050000Y-85300000D03*
X146250000Y-85300000D03*
X145450000Y-85300000D03*
X144650000Y-85300000D03*
X143850000Y-85300000D03*
X143050000Y-85300000D03*
X142250000Y-85300000D03*
X141450000Y-85300000D03*
X140650000Y-85300000D03*
X139850000Y-85300000D03*
X139050000Y-85300000D03*
D28*
X161150000Y-80235000D03*
X161150000Y-81505000D03*
X161150000Y-82775000D03*
X161150000Y-84045000D03*
X161150000Y-85315000D03*
X161150000Y-86585000D03*
X161150000Y-87855000D03*
X161150000Y-89125000D03*
X161150000Y-90395000D03*
X161150000Y-91665000D03*
X170550000Y-91665000D03*
X170550000Y-90395000D03*
X170550000Y-89125000D03*
X170550000Y-87855000D03*
X170550000Y-86585000D03*
X170550000Y-85315000D03*
X170550000Y-84045000D03*
X170550000Y-82775000D03*
X170550000Y-81505000D03*
X170550000Y-80235000D03*
X161300000Y-95235000D03*
X161300000Y-96505000D03*
X161300000Y-97775000D03*
X161300000Y-99045000D03*
X161300000Y-100315000D03*
X161300000Y-101585000D03*
X161300000Y-102855000D03*
X161300000Y-104125000D03*
X161300000Y-105395000D03*
X161300000Y-106665000D03*
X170700000Y-106665000D03*
X170700000Y-105395000D03*
X170700000Y-104125000D03*
X170700000Y-102855000D03*
X170700000Y-101585000D03*
X170700000Y-100315000D03*
X170700000Y-99045000D03*
X170700000Y-97775000D03*
X170700000Y-96505000D03*
X170700000Y-95235000D03*
D17*
X142420000Y-111248920D03*
D18*
X142420000Y-108211080D03*
X144960000Y-111248920D03*
X144960000Y-108211080D03*
X147500000Y-111248920D03*
X147500000Y-108211080D03*
D29*
X154000000Y-77660000D03*
D30*
X154000000Y-80200000D03*
D22*
X151100000Y-109800000D03*
X151100000Y-107900000D03*
D31*
X124700000Y-87900000D03*
X124700000Y-83000000D03*
D32*
X153550000Y-105450000D03*
X138250000Y-108000000D03*
X143050000Y-99600000D03*
X134050000Y-103100000D03*
X128050000Y-105950000D03*
X124350000Y-96700000D03*
X118400000Y-98450000D03*
X139450000Y-83600000D03*
X182100000Y-76650000D03*
X167850000Y-76900000D03*
X118450000Y-107200000D03*
X121500000Y-77350000D03*
X127000000Y-80450000D03*
X161150000Y-92650000D03*
X167700000Y-109500000D03*
X159700000Y-106700000D03*
X158500000Y-109400000D03*
X144103500Y-81776800D03*
X137051000Y-111017900D03*
X140780000Y-99440000D03*
X141450000Y-102780000D03*
X138429400Y-94400000D03*
X135890500Y-97600000D03*
X139054300Y-98400000D03*
X138430000Y-99190000D03*
X139239500Y-99835200D03*
X147219800Y-99787300D03*
X149843100Y-98679400D03*
X167650000Y-102900000D03*
X168150000Y-101600000D03*
X168800000Y-100300000D03*
X172450000Y-99050000D03*
X172700000Y-97750000D03*
X173225000Y-86675000D03*
X166700000Y-105275000D03*
X172650000Y-104100000D03*
X120569700Y-97502700D03*
X123650000Y-102078900D03*
X135244800Y-88800000D03*
X135800000Y-108287000D03*
X131850500Y-89100000D03*
X129475000Y-78860700D03*
X134079500Y-90400000D03*
X134157400Y-78885500D03*
X119717500Y-100150000D03*
X127807300Y-90754000D03*
X131550400Y-108122700D03*
X132663400Y-93381600D03*
X132012200Y-95536100D03*
X129272400Y-108096200D03*
X126900000Y-104450000D03*
X130050000Y-98700000D03*
X121005900Y-101175000D03*
X129907500Y-97715900D03*
X133900000Y-95900000D03*
X133250000Y-84750000D03*
X159850000Y-95250000D03*
X154348900Y-100024700D03*
X167975000Y-91625000D03*
X151550000Y-104850000D03*
D33*
X142420000Y-108211080D02*
X142420000Y-106961590D01*
X142420000Y-106961590D02*
X142880000Y-106501590D01*
X142880000Y-106501590D02*
X142880000Y-102870000D01*
X142250000Y-101100000D02*
X142250000Y-102240000D01*
X142250000Y-102240000D02*
X142880000Y-102870000D01*
X142250000Y-101100000D02*
X142250000Y-98860000D01*
X142250000Y-98860000D02*
X142110000Y-98720000D01*
X148650000Y-85300000D02*
X148650000Y-83550000D01*
X160850000Y-76900000D02*
X164700000Y-76900000D01*
X155880602Y-81869398D02*
X160850000Y-76900000D01*
X150330602Y-81869398D02*
X155880602Y-81869398D01*
X148650000Y-83550000D02*
X150330602Y-81869398D01*
X139050000Y-85300000D02*
X136775000Y-85300000D01*
X136775000Y-85300000D02*
X135200000Y-83725000D01*
X135200000Y-83725000D02*
X135200000Y-83300000D01*
X136382000Y-76819600D02*
X135455400Y-76819600D01*
X135175000Y-77100000D02*
X135175000Y-83275000D01*
X135455400Y-76819600D02*
X135175000Y-77100000D01*
X135175000Y-83275000D02*
X135200000Y-83300000D01*
X124675000Y-99500000D02*
X127114298Y-99500000D01*
X128964298Y-101350000D02*
X130550000Y-101350000D01*
X127114298Y-99500000D02*
X128964298Y-101350000D01*
X148650000Y-85300000D02*
X148650000Y-87400000D01*
X139050000Y-86900000D02*
X139050000Y-85300000D01*
X139950000Y-87800000D02*
X139050000Y-86900000D01*
X148250000Y-87800000D02*
X139950000Y-87800000D01*
X148650000Y-87400000D02*
X148250000Y-87800000D01*
X148650000Y-84874900D02*
X148650000Y-85300000D01*
X142250000Y-100562300D02*
X142250000Y-101100000D01*
X151100000Y-107900000D02*
X151587700Y-107900000D01*
X135800000Y-111050000D02*
X135800000Y-110737600D01*
X181820000Y-91780000D02*
X182730000Y-91780000D01*
X182730000Y-91780000D02*
X183675000Y-92725000D01*
X183675000Y-92725000D02*
X183675000Y-98725000D01*
X183675000Y-98725000D02*
X183000000Y-99400000D01*
X183000000Y-99400000D02*
X181820000Y-99400000D01*
X147850000Y-85300000D02*
X147850000Y-86525000D01*
X139850000Y-86400000D02*
X139850000Y-85300000D01*
X140675000Y-87225000D02*
X139850000Y-86400000D01*
X147150000Y-87225000D02*
X140675000Y-87225000D01*
X147850000Y-86525000D02*
X147150000Y-87225000D01*
X154900000Y-105450000D02*
X153550000Y-105450000D01*
X138300000Y-109100000D02*
X138300000Y-108050000D01*
X138300000Y-108050000D02*
X138250000Y-108000000D01*
X143050000Y-101100000D02*
X143050000Y-99600000D01*
X134300000Y-104100000D02*
X134300000Y-103350000D01*
X134300000Y-103350000D02*
X134050000Y-103100000D01*
X129250000Y-106000000D02*
X128100000Y-106000000D01*
X128100000Y-106000000D02*
X128050000Y-105950000D01*
X123650000Y-97175000D02*
X123875000Y-97175000D01*
X123875000Y-97175000D02*
X124350000Y-96700000D01*
X120675000Y-99500000D02*
X119450000Y-99500000D01*
X119450000Y-99500000D02*
X118400000Y-98450000D01*
X139850000Y-84000000D02*
X139850000Y-85300000D01*
X139850000Y-84000000D02*
X139450000Y-83600000D01*
X181100000Y-76650000D02*
X182100000Y-76650000D01*
X166700000Y-76900000D02*
X167850000Y-76900000D01*
X118500360Y-108800000D02*
X118500360Y-107250360D01*
X118500360Y-107250360D02*
X118450000Y-107200000D01*
X123000000Y-77300000D02*
X121550000Y-77300000D01*
X121550000Y-77300000D02*
X121500000Y-77350000D01*
X127000000Y-79200000D02*
X127000000Y-80450000D01*
X161150000Y-91665000D02*
X161150000Y-92650000D01*
X167700000Y-110700000D02*
X167700000Y-109500000D01*
X161300000Y-106665000D02*
X159735000Y-106665000D01*
X159735000Y-106665000D02*
X159700000Y-106700000D01*
X158500000Y-110800000D02*
X158500000Y-109400000D01*
X121037700Y-99500000D02*
X121400300Y-99500000D01*
X121037700Y-99500000D02*
X120675000Y-99500000D01*
X121700300Y-99800000D02*
X122050000Y-99800000D01*
X121400300Y-99500000D02*
X121700300Y-99800000D01*
X122050000Y-99800000D02*
X123300000Y-99800000D01*
X122050000Y-98850300D02*
X121400300Y-99500000D01*
X122050000Y-98550000D02*
X122050000Y-98850300D01*
X122050000Y-98550000D02*
X122349700Y-98550000D01*
X122824900Y-98550000D02*
X122975000Y-98550000D01*
X122824900Y-98550000D02*
X122349700Y-98550000D01*
X123300000Y-98550000D02*
X122975000Y-98550000D01*
X123624700Y-97900300D02*
X123650000Y-97900300D01*
X122975000Y-98550000D02*
X123624700Y-97900300D01*
X123650000Y-97175000D02*
X123650000Y-97900300D01*
X181820000Y-107020000D02*
X181820000Y-107563600D01*
X181820000Y-107563600D02*
X181700000Y-107563600D01*
X148043700Y-108460000D02*
X147500000Y-108460000D01*
X127000000Y-79200000D02*
X127000000Y-78787300D01*
X131200000Y-103800000D02*
X131200000Y-105950000D01*
X131200000Y-105950000D02*
X131250000Y-106000000D01*
X131200000Y-103800000D02*
X130600000Y-103800000D01*
X124675000Y-101125000D02*
X124675000Y-100150000D01*
X126150000Y-102600000D02*
X124675000Y-101125000D01*
X129700000Y-102600000D02*
X126150000Y-102600000D01*
X130150000Y-103050000D02*
X129700000Y-102600000D01*
X130150000Y-103350000D02*
X130150000Y-103050000D01*
X130600000Y-103800000D02*
X130150000Y-103350000D01*
X131200000Y-103800000D02*
X130862400Y-103800000D01*
X138532000Y-76819600D02*
X138532000Y-76144300D01*
X127000000Y-77200000D02*
X127000000Y-76374700D01*
X127708000Y-75666700D02*
X127000000Y-76374700D01*
X138054400Y-75666700D02*
X127708000Y-75666700D01*
X138532000Y-76144300D02*
X138054400Y-75666700D01*
X140782000Y-76819600D02*
X140782000Y-76768000D01*
X140782000Y-76768000D02*
X142475000Y-75075000D01*
X142475000Y-75075000D02*
X177425000Y-75075000D01*
X177425000Y-75075000D02*
X179000000Y-76650000D01*
X179000000Y-76650000D02*
X179100000Y-76650000D01*
X137267600Y-111017900D02*
X137349700Y-111100000D01*
X137051000Y-111017900D02*
X137267600Y-111017900D01*
X138300000Y-111100000D02*
X137349700Y-111100000D01*
X143082000Y-76819600D02*
X143082000Y-77494900D01*
X144103500Y-78273300D02*
X144103500Y-81776800D01*
X143325100Y-77494900D02*
X144103500Y-78273300D01*
X143082000Y-77494900D02*
X143325100Y-77494900D01*
X142420000Y-111000000D02*
X142420000Y-109924100D01*
X135788200Y-96800000D02*
X137150000Y-96800000D01*
X135265100Y-97323100D02*
X135788200Y-96800000D01*
X135265100Y-99535300D02*
X135265100Y-97323100D01*
X140956000Y-105226200D02*
X135265100Y-99535300D01*
X140956000Y-108594600D02*
X140956000Y-105226200D01*
X142285500Y-109924100D02*
X140956000Y-108594600D01*
X142420000Y-109924100D02*
X142285500Y-109924100D01*
X143872700Y-112087300D02*
X143872700Y-111000000D01*
X143386200Y-112573800D02*
X143872700Y-112087300D01*
X141499500Y-112573800D02*
X143386200Y-112573800D01*
X139774900Y-110849200D02*
X141499500Y-112573800D01*
X139774900Y-105764100D02*
X139774900Y-110849200D01*
X134814700Y-100803900D02*
X139774900Y-105764100D01*
X134814700Y-96460000D02*
X134814700Y-100803900D01*
X136074700Y-95200000D02*
X134814700Y-96460000D01*
X137150000Y-95200000D02*
X136074700Y-95200000D01*
X144960000Y-111000000D02*
X143872700Y-111000000D01*
X139200000Y-96000000D02*
X137150000Y-96000000D01*
X140770000Y-97570000D02*
X139200000Y-96000000D01*
X140770000Y-99430000D02*
X140770000Y-97570000D01*
X140780000Y-99440000D02*
X140770000Y-99430000D01*
X141450000Y-102780000D02*
X141450000Y-101100000D01*
X151100000Y-109800000D02*
X151100000Y-112450000D01*
X151100000Y-112450000D02*
X151310000Y-112660000D01*
X147500000Y-111000000D02*
X147500000Y-111530000D01*
X147500000Y-111530000D02*
X148630000Y-112660000D01*
X165700000Y-111670000D02*
X165700000Y-110700000D01*
X164710000Y-112660000D02*
X165700000Y-111670000D01*
X148630000Y-112660000D02*
X151310000Y-112660000D01*
X151310000Y-112660000D02*
X164710000Y-112660000D01*
X115800000Y-101700000D02*
X115420000Y-101700000D01*
X117240000Y-86920000D02*
X118884600Y-86920000D01*
X113870000Y-90290000D02*
X117240000Y-86920000D01*
X113870000Y-100150000D02*
X113870000Y-90290000D01*
X115420000Y-101700000D02*
X113870000Y-100150000D01*
X118884600Y-86920000D02*
X118893800Y-86910800D01*
X122400400Y-87900000D02*
X120900400Y-89400000D01*
X124700000Y-87900000D02*
X122400400Y-87900000D01*
X115800000Y-103900000D02*
X115580000Y-103900000D01*
X115580000Y-103900000D02*
X113419998Y-101739998D01*
X113419998Y-101739998D02*
X113419998Y-88390002D01*
X113419998Y-88390002D02*
X116920000Y-84890000D01*
X116920000Y-84890000D02*
X120090000Y-84890000D01*
X120090000Y-84890000D02*
X120900400Y-85700400D01*
X120900400Y-85700400D02*
X120900400Y-86910800D01*
X137150000Y-94400000D02*
X138225300Y-94400000D01*
X138225300Y-94400000D02*
X138429400Y-94400000D01*
X137150000Y-97600000D02*
X136074700Y-97600000D01*
X136074700Y-97600000D02*
X135890500Y-97600000D01*
X137150000Y-98400000D02*
X139054300Y-98400000D01*
X137150000Y-99200000D02*
X138420000Y-99200000D01*
X138420000Y-99200000D02*
X138430000Y-99190000D01*
X139050000Y-101100000D02*
X139050000Y-100024700D01*
X139050000Y-100024700D02*
X139239500Y-99835200D01*
X147050000Y-101100000D02*
X147050000Y-100024700D01*
X147219800Y-99854900D02*
X147050000Y-100024700D01*
X147219800Y-99787300D02*
X147219800Y-99854900D01*
X147850000Y-101100000D02*
X147850000Y-100024700D01*
X149195300Y-98679400D02*
X149843100Y-98679400D01*
X147850000Y-100024700D02*
X149195300Y-98679400D01*
X170550000Y-81505000D02*
X174205000Y-81505000D01*
X176630000Y-79080000D02*
X179280000Y-79080000D01*
X174205000Y-81505000D02*
X176630000Y-79080000D01*
X170550000Y-82775000D02*
X174225000Y-82775000D01*
X180550000Y-80350000D02*
X181820000Y-79080000D01*
X176650000Y-80350000D02*
X180550000Y-80350000D01*
X174225000Y-82775000D02*
X176650000Y-80350000D01*
X179280000Y-81620000D02*
X176830000Y-81620000D01*
X174405000Y-84045000D02*
X170550000Y-84045000D01*
X176830000Y-81620000D02*
X174405000Y-84045000D01*
X170550000Y-85315000D02*
X174435000Y-85315000D01*
X180540000Y-82900000D02*
X181820000Y-81620000D01*
X176850000Y-82900000D02*
X180540000Y-82900000D01*
X174435000Y-85315000D02*
X176850000Y-82900000D01*
X170700000Y-102855000D02*
X167695000Y-102855000D01*
X167695000Y-102855000D02*
X167650000Y-102900000D01*
X168150000Y-101600000D02*
X168165000Y-101585000D01*
X168165000Y-101585000D02*
X170700000Y-101585000D01*
X168800000Y-100300000D02*
X168815000Y-100315000D01*
X168815000Y-100315000D02*
X170700000Y-100315000D01*
X172450000Y-99050000D02*
X172445000Y-99045000D01*
X172445000Y-99045000D02*
X170700000Y-99045000D01*
X172675000Y-97775000D02*
X170700000Y-97775000D01*
X172700000Y-97750000D02*
X172675000Y-97775000D01*
X170700000Y-105395000D02*
X166820000Y-105395000D01*
X180580000Y-88000000D02*
X181820000Y-89240000D01*
X174550000Y-88000000D02*
X180580000Y-88000000D01*
X173225000Y-86675000D02*
X174550000Y-88000000D01*
X166820000Y-105395000D02*
X166700000Y-105275000D01*
X181820000Y-89240000D02*
X181640000Y-89240000D01*
X181540000Y-89240000D02*
X181820000Y-89240000D01*
X172650000Y-104100000D02*
X172625000Y-104125000D01*
X172625000Y-104125000D02*
X170700000Y-104125000D01*
X170550000Y-86585000D02*
X169065000Y-86585000D01*
X177570000Y-94320000D02*
X179280000Y-94320000D01*
X171743199Y-88493199D02*
X177570000Y-94320000D01*
X169143199Y-88493199D02*
X171743199Y-88493199D01*
X168600000Y-87950000D02*
X169143199Y-88493199D01*
X168600000Y-87050000D02*
X168600000Y-87950000D01*
X169065000Y-86585000D02*
X168600000Y-87050000D01*
X170550000Y-87855000D02*
X171755000Y-87855000D01*
X180550000Y-93050000D02*
X181820000Y-94320000D01*
X176950000Y-93050000D02*
X180550000Y-93050000D01*
X171755000Y-87855000D02*
X176950000Y-93050000D01*
X168550000Y-89500000D02*
X168925000Y-89125000D01*
X168925000Y-89125000D02*
X170550000Y-89125000D01*
X168550000Y-90700000D02*
X168550000Y-89500000D01*
X168889999Y-91039999D02*
X168550000Y-90700000D01*
X171785001Y-91039999D02*
X168889999Y-91039999D01*
X179031080Y-96860000D02*
X177605002Y-96860000D01*
X177605002Y-96860000D02*
X171785001Y-91039999D01*
X181820000Y-96860000D02*
X181410000Y-96860000D01*
X181410000Y-96860000D02*
X180150000Y-95600000D01*
X180150000Y-95600000D02*
X177350000Y-95600000D01*
X177350000Y-95600000D02*
X172145000Y-90395000D01*
X172145000Y-90395000D02*
X170550000Y-90395000D01*
X170700000Y-96505000D02*
X173955000Y-96505000D01*
X176850000Y-99400000D02*
X179280000Y-99400000D01*
X173955000Y-96505000D02*
X176850000Y-99400000D01*
X123650000Y-102078900D02*
X123650000Y-101175000D01*
X125371100Y-103800000D02*
X129300000Y-103800000D01*
X123650000Y-102078900D02*
X125371100Y-103800000D01*
X120569700Y-98094700D02*
X120569700Y-97502700D01*
X120675000Y-98200000D02*
X120569700Y-98094700D01*
X123000000Y-101175000D02*
X123000000Y-101900300D01*
X117700000Y-103900000D02*
X118375300Y-103900000D01*
X121000300Y-103900000D02*
X123000000Y-101900300D01*
X118375300Y-103900000D02*
X121000300Y-103900000D01*
X118575600Y-101900300D02*
X118375300Y-101700000D01*
X122350000Y-101900300D02*
X118575600Y-101900300D01*
X122350000Y-101175000D02*
X122350000Y-101900300D01*
X117700000Y-101700000D02*
X118375300Y-101700000D01*
X125978400Y-90400000D02*
X123900000Y-90400000D01*
X128424600Y-87953800D02*
X125978400Y-90400000D01*
X129573400Y-87953800D02*
X128424600Y-87953800D01*
X130291600Y-87235600D02*
X129573400Y-87953800D01*
X130291600Y-86122100D02*
X130291600Y-87235600D01*
X130538400Y-85875300D02*
X130291600Y-86122100D01*
X130950000Y-85875300D02*
X130538400Y-85875300D01*
X130950000Y-84900000D02*
X130950000Y-85875300D01*
X132496900Y-85875300D02*
X130950000Y-85875300D01*
X134621600Y-88000000D02*
X132496900Y-85875300D01*
X137150000Y-88000000D02*
X134621600Y-88000000D01*
X122350000Y-94525300D02*
X123900000Y-92975300D01*
X122350000Y-97175000D02*
X122350000Y-94525300D01*
X123900000Y-92300000D02*
X123900000Y-92975300D01*
X130967000Y-86978400D02*
X131642300Y-86978400D01*
X135800000Y-108287000D02*
X135800000Y-109150000D01*
X137150000Y-88800000D02*
X135244800Y-88800000D01*
X133463900Y-88800000D02*
X135244800Y-88800000D01*
X131642300Y-86978400D02*
X133463900Y-88800000D01*
X120675000Y-98850000D02*
X120100000Y-98850000D01*
X128150000Y-87250000D02*
X128795400Y-87250000D01*
X126000000Y-89400000D02*
X128150000Y-87250000D01*
X122950000Y-89400000D02*
X126000000Y-89400000D01*
X119750000Y-92600000D02*
X122950000Y-89400000D01*
X119750000Y-98500000D02*
X119750000Y-92600000D01*
X120100000Y-98850000D02*
X119750000Y-98500000D01*
X128795400Y-87250000D02*
X129067000Y-86978400D01*
X131000000Y-89100000D02*
X131546200Y-89100000D01*
X129715600Y-78860700D02*
X129756700Y-78819600D01*
X129475000Y-78860700D02*
X129715600Y-78860700D01*
X130732000Y-78819600D02*
X129756700Y-78819600D01*
X131546200Y-89100000D02*
X131850500Y-89100000D01*
X137150000Y-89600000D02*
X136074700Y-89600000D01*
X132350500Y-89600000D02*
X136074700Y-89600000D01*
X131850500Y-89100000D02*
X132350500Y-89600000D01*
X129100000Y-89100000D02*
X128424700Y-89100000D01*
X126246300Y-91278400D02*
X128424700Y-89100000D01*
X123402800Y-91278400D02*
X126246300Y-91278400D01*
X121700000Y-92981200D02*
X123402800Y-91278400D01*
X121700000Y-97175000D02*
X121700000Y-92981200D01*
X130967000Y-91278400D02*
X131642300Y-91278400D01*
X132520700Y-90400000D02*
X134079500Y-90400000D01*
X131642300Y-91278400D02*
X132520700Y-90400000D01*
X134079500Y-90400000D02*
X137150000Y-90400000D01*
X133000000Y-78900000D02*
X133975300Y-78900000D01*
X133989800Y-78885500D02*
X134157400Y-78885500D01*
X133975300Y-78900000D02*
X133989800Y-78885500D01*
X127867300Y-90754000D02*
X128391700Y-91278400D01*
X127807300Y-90754000D02*
X127867300Y-90754000D01*
X129067000Y-91278400D02*
X128391700Y-91278400D01*
X120675000Y-100150000D02*
X119717500Y-100150000D01*
X130971000Y-93386100D02*
X131646300Y-93386100D01*
X131650800Y-93381600D02*
X131646300Y-93386100D01*
X132663400Y-93381600D02*
X131650800Y-93381600D01*
X134845000Y-91200000D02*
X132663400Y-93381600D01*
X137150000Y-91200000D02*
X134845000Y-91200000D01*
X131348400Y-108324700D02*
X131550400Y-108122700D01*
X131200000Y-108324700D02*
X131348400Y-108324700D01*
X131200000Y-109000000D02*
X131200000Y-108324700D01*
X124675000Y-98200000D02*
X124675000Y-97275000D01*
X128563900Y-93386100D02*
X129071000Y-93386100D01*
X124675000Y-97275000D02*
X128563900Y-93386100D01*
X137150000Y-92000000D02*
X136074700Y-92000000D01*
X130971000Y-95536100D02*
X131646300Y-95536100D01*
X129061900Y-108306700D02*
X129054000Y-108306700D01*
X129272400Y-108096200D02*
X129061900Y-108306700D01*
X129054000Y-108982000D02*
X129054000Y-108306700D01*
X132012200Y-95536100D02*
X131646300Y-95536100D01*
X135548300Y-92000000D02*
X132012200Y-95536100D01*
X136074700Y-92000000D02*
X135548300Y-92000000D01*
X124675000Y-98850000D02*
X125200000Y-98850000D01*
X128513900Y-95536100D02*
X129071000Y-95536100D01*
X125200000Y-98850000D02*
X128513900Y-95536100D01*
X130955000Y-97664200D02*
X130955000Y-97795000D01*
X130955000Y-97795000D02*
X130050000Y-98700000D01*
X126954000Y-104504000D02*
X126900000Y-104450000D01*
X126954000Y-108982000D02*
X126954000Y-104504000D01*
X130955000Y-97664200D02*
X131185800Y-97664200D01*
X131185800Y-97664200D02*
X136050000Y-92800000D01*
X136050000Y-92800000D02*
X137150000Y-92800000D01*
X129055000Y-97664200D02*
X129730300Y-97664200D01*
X129782000Y-97715900D02*
X129730300Y-97664200D01*
X129907500Y-97715900D02*
X129782000Y-97715900D01*
X121700000Y-101175000D02*
X121005900Y-101175000D01*
X133300000Y-83300000D02*
X133300000Y-84700000D01*
X133300000Y-84700000D02*
X133250000Y-84750000D01*
X130955000Y-99814200D02*
X132285800Y-99814200D01*
X132285800Y-99814200D02*
X133900000Y-98200000D01*
X133900000Y-98200000D02*
X133900000Y-95900000D01*
X136200000Y-93600000D02*
X137150000Y-93600000D01*
X133900000Y-95900000D02*
X136200000Y-93600000D01*
X136612400Y-93600000D02*
X137150000Y-93600000D01*
X129055000Y-99814200D02*
X128364200Y-99814200D01*
X123000000Y-95900000D02*
X123000000Y-97175000D01*
X126600000Y-92300000D02*
X123000000Y-95900000D01*
X129750000Y-92300000D02*
X126600000Y-92300000D01*
X130050000Y-92600000D02*
X129750000Y-92300000D01*
X130050000Y-96300000D02*
X130050000Y-92600000D01*
X129750000Y-96600000D02*
X130050000Y-96300000D01*
X128400000Y-96600000D02*
X129750000Y-96600000D01*
X127900000Y-97100000D02*
X128400000Y-96600000D01*
X127900000Y-99350000D02*
X127900000Y-97100000D01*
X128364200Y-99814200D02*
X127900000Y-99350000D01*
X141450000Y-82312900D02*
X138532000Y-79394900D01*
X141450000Y-85300000D02*
X141450000Y-82312900D01*
X138532000Y-78719600D02*
X138532000Y-79394900D01*
X142250000Y-80862900D02*
X140782000Y-79394900D01*
X142250000Y-85300000D02*
X142250000Y-80862900D01*
X140782000Y-78719600D02*
X140782000Y-79394900D01*
X143082000Y-78719600D02*
X143082000Y-79394900D01*
X143050000Y-79426900D02*
X143050000Y-85300000D01*
X143082000Y-79394900D02*
X143050000Y-79426900D01*
X140650000Y-83662900D02*
X136382000Y-79394900D01*
X140650000Y-85300000D02*
X140650000Y-83662900D01*
X136382000Y-78719600D02*
X136382000Y-79394900D01*
X148650000Y-101100000D02*
X148650000Y-100020000D01*
X151794700Y-100024700D02*
X154348900Y-100024700D01*
X148650000Y-100020000D02*
X149140000Y-99530000D01*
X149140000Y-99530000D02*
X151300000Y-99530000D01*
X151300000Y-99530000D02*
X151794700Y-100024700D01*
X161150000Y-80235000D02*
X162535000Y-80235000D01*
X162465000Y-95235000D02*
X161300000Y-95235000D01*
X163400000Y-94300000D02*
X162465000Y-95235000D01*
X163400000Y-81100000D02*
X163400000Y-94300000D01*
X162535000Y-80235000D02*
X163400000Y-81100000D01*
X159999700Y-95235000D02*
X159829200Y-95405500D01*
X159829200Y-95405500D02*
X159850000Y-95250000D01*
X160112300Y-95235000D02*
X159999700Y-95235000D01*
X161300000Y-95235000D02*
X160112300Y-95235000D01*
X161150000Y-81505000D02*
X159849700Y-81505000D01*
X149450000Y-85300000D02*
X149450000Y-84224700D01*
X159035300Y-82319400D02*
X159849700Y-81505000D01*
X151355300Y-82319400D02*
X159035300Y-82319400D01*
X149450000Y-84224700D02*
X151355300Y-82319400D01*
X150250000Y-85300000D02*
X150250000Y-84224700D01*
X161150000Y-82775000D02*
X159849700Y-82775000D01*
X151699700Y-82775000D02*
X159849700Y-82775000D01*
X150250000Y-84224700D02*
X151699700Y-82775000D01*
X151229700Y-84045000D02*
X151050000Y-84224700D01*
X161150000Y-84045000D02*
X151229700Y-84045000D01*
X151050000Y-85300000D02*
X151050000Y-84224700D01*
X155910300Y-85315000D02*
X154025300Y-87200000D01*
X161150000Y-85315000D02*
X155910300Y-85315000D01*
X152950000Y-87200000D02*
X154025300Y-87200000D01*
X156618600Y-88000000D02*
X152950000Y-88000000D01*
X158033600Y-86585000D02*
X156618600Y-88000000D01*
X161150000Y-86585000D02*
X158033600Y-86585000D01*
X158904700Y-88800000D02*
X152950000Y-88800000D01*
X159849700Y-87855000D02*
X158904700Y-88800000D01*
X161150000Y-87855000D02*
X159849700Y-87855000D01*
X159374700Y-89600000D02*
X152950000Y-89600000D01*
X159849700Y-89125000D02*
X159374700Y-89600000D01*
X161150000Y-89125000D02*
X159849700Y-89125000D01*
X154030300Y-90395000D02*
X154025300Y-90400000D01*
X161150000Y-90395000D02*
X154030300Y-90395000D01*
X152950000Y-90400000D02*
X154025300Y-90400000D01*
X146250000Y-101100000D02*
X146250000Y-102475000D01*
X168015000Y-91665000D02*
X170550000Y-91665000D01*
X167975000Y-91625000D02*
X168015000Y-91665000D01*
X148625000Y-104850000D02*
X151550000Y-104850000D01*
X146250000Y-102475000D02*
X148625000Y-104850000D01*
X170550000Y-91665000D02*
X170035000Y-91665000D01*
X161300000Y-96505000D02*
X159999700Y-96505000D01*
X159648400Y-96505000D02*
X159999700Y-96505000D01*
X155143400Y-92000000D02*
X159648400Y-96505000D01*
X152950000Y-92000000D02*
X155143400Y-92000000D01*
X155024700Y-92800000D02*
X159999700Y-97775000D01*
X152950000Y-92800000D02*
X155024700Y-92800000D01*
X161300000Y-97775000D02*
X159999700Y-97775000D01*
X154554700Y-93600000D02*
X152950000Y-93600000D01*
X159999700Y-99045000D02*
X154554700Y-93600000D01*
X161300000Y-99045000D02*
X159999700Y-99045000D01*
X154084700Y-94400000D02*
X159999700Y-100315000D01*
X152950000Y-94400000D02*
X154084700Y-94400000D01*
X161300000Y-100315000D02*
X159999700Y-100315000D01*
X154247800Y-95200000D02*
X152950000Y-95200000D01*
X160632800Y-101585000D02*
X154247800Y-95200000D01*
X161300000Y-101585000D02*
X160632800Y-101585000D01*
X152950000Y-96000000D02*
X154210000Y-96000000D01*
X154210000Y-96000000D02*
X156550000Y-98340000D01*
X156550000Y-98340000D02*
X156550000Y-98780000D01*
X156550000Y-98780000D02*
X160625000Y-102855000D01*
X160625000Y-102855000D02*
X161300000Y-102855000D01*
X155779300Y-98554000D02*
X155779300Y-99294600D01*
X155779300Y-99294600D02*
X160609700Y-104125000D01*
X154025300Y-96800000D02*
X155779300Y-98554000D01*
X152950000Y-96800000D02*
X154025300Y-96800000D01*
X160609700Y-104125000D02*
X161300000Y-104125000D01*
X145450000Y-101100000D02*
X145450000Y-100024700D01*
X152950000Y-96800000D02*
X151874700Y-96800000D01*
X148674700Y-96800000D02*
X145450000Y-100024700D01*
X151874700Y-96800000D02*
X148674700Y-96800000D01*
X155200000Y-98790000D02*
X154010000Y-97600000D01*
X154010000Y-97600000D02*
X152950000Y-97600000D01*
X155200000Y-100520000D02*
X155200000Y-98790000D01*
X161300000Y-105395000D02*
X160075000Y-105395000D01*
X160075000Y-105395000D02*
X155200000Y-100520000D01*
X170700000Y-106665000D02*
X163565000Y-106665000D01*
X149450000Y-102800000D02*
X149450000Y-101100000D01*
X150550000Y-103900000D02*
X149450000Y-102800000D01*
X157175000Y-103900000D02*
X150550000Y-103900000D01*
X159300000Y-106025000D02*
X157175000Y-103900000D01*
X162925000Y-106025000D02*
X159300000Y-106025000D01*
X163565000Y-106665000D02*
X162925000Y-106025000D01*
D34*
G36*
X127417160Y-74964552D02*
X127170599Y-75129299D01*
X126462599Y-75837299D01*
X126310391Y-76065096D01*
X126132877Y-76099537D01*
X125920073Y-76239327D01*
X125777623Y-76450360D01*
X125727560Y-76700000D01*
X125727560Y-77700000D01*
X125774537Y-77942123D01*
X125914327Y-78154927D01*
X125980529Y-78199614D01*
X125920073Y-78239327D01*
X125777623Y-78450360D01*
X125727560Y-78700000D01*
X125727560Y-79700000D01*
X125774537Y-79942123D01*
X125914327Y-80154927D01*
X126067257Y-80258157D01*
X126065162Y-80263201D01*
X126064838Y-80635167D01*
X126206883Y-80978943D01*
X126469673Y-81242192D01*
X126813201Y-81384838D01*
X127185167Y-81385162D01*
X127528943Y-81243117D01*
X127792192Y-80980327D01*
X127934838Y-80636799D01*
X127935162Y-80264833D01*
X127932216Y-80257704D01*
X128079927Y-80160673D01*
X128222377Y-79949640D01*
X128272440Y-79700000D01*
X128272440Y-78700000D01*
X128225463Y-78457877D01*
X128085673Y-78245073D01*
X128019471Y-78200386D01*
X128079927Y-78160673D01*
X128222377Y-77949640D01*
X128272440Y-77700000D01*
X128272440Y-76700000D01*
X128225463Y-76457877D01*
X128204983Y-76426700D01*
X129453872Y-76426700D01*
X129447000Y-76443291D01*
X129447000Y-76633850D01*
X129605750Y-76792600D01*
X130605000Y-76792600D01*
X130605000Y-76772600D01*
X130859000Y-76772600D01*
X130859000Y-76792600D01*
X131793350Y-76792600D01*
X131873750Y-76873000D01*
X132873000Y-76873000D01*
X132873000Y-76853000D01*
X133127000Y-76853000D01*
X133127000Y-76873000D01*
X134126250Y-76873000D01*
X134285000Y-76714250D01*
X134285000Y-76523691D01*
X134244825Y-76426700D01*
X135097000Y-76426700D01*
X135097000Y-76533850D01*
X135255750Y-76692600D01*
X136255000Y-76692600D01*
X136255000Y-76672600D01*
X136509000Y-76672600D01*
X136509000Y-76692600D01*
X136529000Y-76692600D01*
X136529000Y-76946600D01*
X136509000Y-76946600D01*
X136509000Y-76966600D01*
X136255000Y-76966600D01*
X136255000Y-76946600D01*
X135255750Y-76946600D01*
X135097000Y-77105350D01*
X135097000Y-77295909D01*
X135193673Y-77529298D01*
X135372301Y-77707927D01*
X135510442Y-77765147D01*
X135489877Y-77769137D01*
X135277073Y-77908927D01*
X135134623Y-78119960D01*
X135084560Y-78369600D01*
X135084560Y-78680967D01*
X134950517Y-78356557D01*
X134687727Y-78093308D01*
X134344199Y-77950662D01*
X133972233Y-77950338D01*
X133925104Y-77969811D01*
X133899640Y-77952623D01*
X133869208Y-77946520D01*
X134009699Y-77888327D01*
X134188327Y-77709698D01*
X134285000Y-77476309D01*
X134285000Y-77285750D01*
X134126250Y-77127000D01*
X133127000Y-77127000D01*
X133127000Y-77147000D01*
X132873000Y-77147000D01*
X132873000Y-77127000D01*
X131938650Y-77127000D01*
X131858250Y-77046600D01*
X130859000Y-77046600D01*
X130859000Y-77066600D01*
X130605000Y-77066600D01*
X130605000Y-77046600D01*
X129605750Y-77046600D01*
X129447000Y-77205350D01*
X129447000Y-77395909D01*
X129543673Y-77629298D01*
X129722301Y-77807927D01*
X129860442Y-77865147D01*
X129839877Y-77869137D01*
X129717999Y-77949198D01*
X129661799Y-77925862D01*
X129289833Y-77925538D01*
X128946057Y-78067583D01*
X128682808Y-78330373D01*
X128540162Y-78673901D01*
X128539838Y-79045867D01*
X128681883Y-79389643D01*
X128944673Y-79652892D01*
X129288201Y-79795538D01*
X129660167Y-79795862D01*
X129793522Y-79740761D01*
X129832360Y-79766977D01*
X130082000Y-79817040D01*
X131382000Y-79817040D01*
X131624123Y-79770063D01*
X131836927Y-79630273D01*
X131838630Y-79627750D01*
X131889327Y-79704927D01*
X132100360Y-79847377D01*
X132350000Y-79897440D01*
X133650000Y-79897440D01*
X133892123Y-79850463D01*
X133950616Y-79812039D01*
X133970601Y-79820338D01*
X134342567Y-79820662D01*
X134686343Y-79678617D01*
X134949592Y-79415827D01*
X135087362Y-79084042D01*
X135131537Y-79311723D01*
X135271327Y-79524527D01*
X135482360Y-79666977D01*
X135695934Y-79709807D01*
X135844599Y-79932301D01*
X138820031Y-82907733D01*
X138657808Y-83069673D01*
X138515162Y-83413201D01*
X138514838Y-83785167D01*
X138576551Y-83934525D01*
X138390301Y-84011673D01*
X138211673Y-84190302D01*
X138115000Y-84423691D01*
X138115000Y-85014250D01*
X138273750Y-85173000D01*
X138902560Y-85173000D01*
X138902560Y-85427000D01*
X138273750Y-85427000D01*
X138115000Y-85585750D01*
X138115000Y-86176309D01*
X138174183Y-86319190D01*
X138149640Y-86302623D01*
X137900000Y-86252560D01*
X136400000Y-86252560D01*
X136157877Y-86299537D01*
X135945073Y-86439327D01*
X135802623Y-86650360D01*
X135752560Y-86900000D01*
X135752560Y-87240000D01*
X134936402Y-87240000D01*
X133381517Y-85685115D01*
X133435167Y-85685162D01*
X133778943Y-85543117D01*
X134042192Y-85280327D01*
X134184838Y-84936799D01*
X134185162Y-84564833D01*
X134115185Y-84395476D01*
X134247377Y-84199640D01*
X134253480Y-84169208D01*
X134311673Y-84309699D01*
X134490302Y-84488327D01*
X134723691Y-84585000D01*
X134914250Y-84585000D01*
X135073000Y-84426250D01*
X135073000Y-83427000D01*
X135327000Y-83427000D01*
X135327000Y-84426250D01*
X135485750Y-84585000D01*
X135676309Y-84585000D01*
X135909698Y-84488327D01*
X136088327Y-84309699D01*
X136185000Y-84076310D01*
X136185000Y-83585750D01*
X136026250Y-83427000D01*
X135327000Y-83427000D01*
X135073000Y-83427000D01*
X135073000Y-83427000D01*
X135053000Y-83427000D01*
X135053000Y-83173000D01*
X135073000Y-83173000D01*
X135073000Y-82173750D01*
X135327000Y-82173750D01*
X135327000Y-83173000D01*
X136026250Y-83173000D01*
X136185000Y-83014250D01*
X136185000Y-82523690D01*
X136088327Y-82290301D01*
X135909698Y-82111673D01*
X135676309Y-82015000D01*
X135485750Y-82015000D01*
X135327000Y-82173750D01*
X135073000Y-82173750D01*
X135073000Y-82173750D01*
X134914250Y-82015000D01*
X134723691Y-82015000D01*
X134490302Y-82111673D01*
X134311673Y-82290301D01*
X134254453Y-82428442D01*
X134250463Y-82407877D01*
X134110673Y-82195073D01*
X133899640Y-82052623D01*
X133650000Y-82002560D01*
X132950000Y-82002560D01*
X132707877Y-82049537D01*
X132495073Y-82189327D01*
X132352623Y-82400360D01*
X132302560Y-82650000D01*
X132302560Y-83950000D01*
X132349537Y-84192123D01*
X132422884Y-84303780D01*
X132315162Y-84563201D01*
X132314838Y-84935167D01*
X132389267Y-85115300D01*
X131947440Y-85115300D01*
X131947440Y-84250000D01*
X131900463Y-84007877D01*
X131760673Y-83795073D01*
X131549640Y-83652623D01*
X131300000Y-83602560D01*
X130600000Y-83602560D01*
X130357877Y-83649537D01*
X130145073Y-83789327D01*
X130002623Y-84000360D01*
X129996520Y-84030792D01*
X129938327Y-83890301D01*
X129759698Y-83711673D01*
X129526309Y-83615000D01*
X129335750Y-83615000D01*
X129177000Y-83773750D01*
X129177000Y-84773000D01*
X129197000Y-84773000D01*
X129197000Y-85027000D01*
X129177000Y-85027000D01*
X129177000Y-85047000D01*
X128923000Y-85047000D01*
X128923000Y-85027000D01*
X128223750Y-85027000D01*
X128065000Y-85185750D01*
X128065000Y-85676310D01*
X128161673Y-85909699D01*
X128204699Y-85952724D01*
X128119623Y-86078760D01*
X128069560Y-86328400D01*
X128069560Y-86506001D01*
X127859161Y-86547852D01*
X127612599Y-86712599D01*
X126597440Y-87727758D01*
X126597440Y-87400000D01*
X126550463Y-87157877D01*
X126410673Y-86945073D01*
X126199640Y-86802623D01*
X125950000Y-86752560D01*
X123450000Y-86752560D01*
X123207877Y-86799537D01*
X122995073Y-86939327D01*
X122859616Y-87140000D01*
X122400400Y-87140000D01*
X122285751Y-87162805D01*
X122286210Y-86636402D01*
X122075714Y-86126963D01*
X121686287Y-85736856D01*
X121660400Y-85726107D01*
X121660400Y-85700400D01*
X121602548Y-85409561D01*
X121437801Y-85162999D01*
X120627401Y-84352599D01*
X120380839Y-84187852D01*
X120090000Y-84130000D01*
X117554047Y-84130000D01*
X118196776Y-83488392D01*
X118280920Y-83285750D01*
X122815000Y-83285750D01*
X122815000Y-83626309D01*
X122911673Y-83859698D01*
X123090301Y-84038327D01*
X123323690Y-84135000D01*
X124414250Y-84135000D01*
X124573000Y-83976250D01*
X124573000Y-83127000D01*
X124827000Y-83127000D01*
X124827000Y-83976250D01*
X124985750Y-84135000D01*
X126076310Y-84135000D01*
X126103614Y-84123690D01*
X128065000Y-84123690D01*
X128065000Y-84614250D01*
X128223750Y-84773000D01*
X128923000Y-84773000D01*
X128923000Y-83773750D01*
X128764250Y-83615000D01*
X128573691Y-83615000D01*
X128340302Y-83711673D01*
X128161673Y-83890301D01*
X128065000Y-84123690D01*
X126103614Y-84123690D01*
X126309699Y-84038327D01*
X126488327Y-83859698D01*
X126585000Y-83626309D01*
X126585000Y-83285750D01*
X126426250Y-83127000D01*
X124827000Y-83127000D01*
X124573000Y-83127000D01*
X124573000Y-83127000D01*
X122973750Y-83127000D01*
X122815000Y-83285750D01*
X118280920Y-83285750D01*
X118560645Y-82612099D01*
X118560853Y-82373691D01*
X122815000Y-82373691D01*
X122815000Y-82714250D01*
X122973750Y-82873000D01*
X124573000Y-82873000D01*
X124573000Y-82023750D01*
X124827000Y-82023750D01*
X124827000Y-82873000D01*
X126426250Y-82873000D01*
X126585000Y-82714250D01*
X126585000Y-82373691D01*
X126488327Y-82140302D01*
X126309699Y-81961673D01*
X126076310Y-81865000D01*
X124985750Y-81865000D01*
X124827000Y-82023750D01*
X124573000Y-82023750D01*
X124573000Y-82023750D01*
X124414250Y-81865000D01*
X123323690Y-81865000D01*
X123090301Y-81961673D01*
X122911673Y-82140302D01*
X122815000Y-82373691D01*
X118560853Y-82373691D01*
X118561473Y-81663264D01*
X118199134Y-80786337D01*
X117528792Y-80114824D01*
X116652499Y-79750955D01*
X115745874Y-79750164D01*
X116029229Y-79633084D01*
X116076645Y-79585750D01*
X121740000Y-79585750D01*
X121740000Y-79926309D01*
X121836673Y-80159698D01*
X122015301Y-80338327D01*
X122248690Y-80435000D01*
X122714250Y-80435000D01*
X122873000Y-80276250D01*
X122873000Y-79427000D01*
X123127000Y-79427000D01*
X123127000Y-80276250D01*
X123285750Y-80435000D01*
X123751310Y-80435000D01*
X123984699Y-80338327D01*
X124163327Y-80159698D01*
X124260000Y-79926309D01*
X124260000Y-79585750D01*
X124101250Y-79427000D01*
X123127000Y-79427000D01*
X122873000Y-79427000D01*
X122873000Y-79427000D01*
X121898750Y-79427000D01*
X121740000Y-79585750D01*
X116076645Y-79585750D01*
X116700726Y-78962758D01*
X117064585Y-78086487D01*
X117065066Y-77535167D01*
X120564838Y-77535167D01*
X120706883Y-77878943D01*
X120969673Y-78142192D01*
X121313201Y-78284838D01*
X121685167Y-78285162D01*
X121881027Y-78204234D01*
X121914327Y-78254927D01*
X121978637Y-78298337D01*
X121836673Y-78440302D01*
X121740000Y-78673691D01*
X121740000Y-79014250D01*
X121898750Y-79173000D01*
X122873000Y-79173000D01*
X122873000Y-79153000D01*
X123127000Y-79153000D01*
X123127000Y-79173000D01*
X124101250Y-79173000D01*
X124260000Y-79014250D01*
X124260000Y-78673691D01*
X124163327Y-78440302D01*
X124021850Y-78298824D01*
X124079927Y-78260673D01*
X124222377Y-78049640D01*
X124272440Y-77800000D01*
X124272440Y-76800000D01*
X124225463Y-76557877D01*
X124085673Y-76345073D01*
X123874640Y-76202623D01*
X123625000Y-76152560D01*
X122375000Y-76152560D01*
X122132877Y-76199537D01*
X121920073Y-76339327D01*
X121829020Y-76474218D01*
X121686799Y-76415162D01*
X121314833Y-76414838D01*
X120971057Y-76556883D01*
X120707808Y-76819673D01*
X120565162Y-77163201D01*
X120564838Y-77535167D01*
X117065066Y-77535167D01*
X117065413Y-77137675D01*
X116703084Y-76260771D01*
X116032758Y-75589274D01*
X115156487Y-75225415D01*
X114207675Y-75224587D01*
X113330771Y-75586916D01*
X112659274Y-76257242D01*
X112295415Y-77133513D01*
X112294587Y-78082325D01*
X112656916Y-78959229D01*
X113327242Y-79630726D01*
X114203513Y-79994585D01*
X115110116Y-79995376D01*
X114826737Y-80112466D01*
X114155224Y-80782808D01*
X113791355Y-81659101D01*
X113790527Y-82607936D01*
X114152866Y-83484863D01*
X114823208Y-84156376D01*
X115699501Y-84520245D01*
X116214504Y-84520694D01*
X112882597Y-87852601D01*
X112717850Y-88099163D01*
X112659998Y-88390002D01*
X112659998Y-101739998D01*
X112717850Y-102030837D01*
X112882597Y-102277399D01*
X114802560Y-104197362D01*
X114802560Y-104550000D01*
X114849537Y-104792123D01*
X114989327Y-105004927D01*
X115200360Y-105147377D01*
X115450000Y-105197440D01*
X116150000Y-105197440D01*
X116392123Y-105150463D01*
X116604927Y-105010673D01*
X116747377Y-104799640D01*
X116749216Y-104790469D01*
X116749537Y-104792123D01*
X116889327Y-105004927D01*
X117100360Y-105147377D01*
X117350000Y-105197440D01*
X118050000Y-105197440D01*
X118292123Y-105150463D01*
X118504927Y-105010673D01*
X118647377Y-104799640D01*
X118675381Y-104660000D01*
X121000300Y-104660000D01*
X121291139Y-104602148D01*
X121537701Y-104437401D01*
X123111848Y-102863254D01*
X123119673Y-102871092D01*
X123463201Y-103013738D01*
X123510077Y-103013779D01*
X124833699Y-104337401D01*
X125080261Y-104502148D01*
X125371100Y-104560000D01*
X125964903Y-104560000D01*
X125964838Y-104635167D01*
X126106883Y-104978943D01*
X126194000Y-105066212D01*
X126194000Y-108005902D01*
X126061877Y-108031537D01*
X125849073Y-108171327D01*
X125706623Y-108382360D01*
X125656560Y-108632000D01*
X125656560Y-109332000D01*
X125703537Y-109574123D01*
X125843327Y-109786927D01*
X126054360Y-109929377D01*
X126084792Y-109935480D01*
X125944301Y-109993673D01*
X125765673Y-110172302D01*
X125669000Y-110405691D01*
X125669000Y-110596250D01*
X125827750Y-110755000D01*
X126827000Y-110755000D01*
X126827000Y-110735000D01*
X127081000Y-110735000D01*
X127081000Y-110755000D01*
X128927000Y-110755000D01*
X128927000Y-110735000D01*
X129181000Y-110735000D01*
X129181000Y-110755000D01*
X130055750Y-110755000D01*
X130073750Y-110773000D01*
X131073000Y-110773000D01*
X131073000Y-110753000D01*
X131327000Y-110753000D01*
X131327000Y-110773000D01*
X132326250Y-110773000D01*
X132485000Y-110614250D01*
X132485000Y-110423691D01*
X132388327Y-110190302D01*
X132209699Y-110011673D01*
X132071558Y-109954453D01*
X132092123Y-109950463D01*
X132304927Y-109810673D01*
X132447377Y-109599640D01*
X132497440Y-109350000D01*
X132497440Y-108650000D01*
X132450463Y-108407877D01*
X132446741Y-108402210D01*
X132485238Y-108309499D01*
X132485562Y-107937533D01*
X132343517Y-107593757D01*
X132080727Y-107330508D01*
X131880096Y-107247199D01*
X131992123Y-107225463D01*
X132204927Y-107085673D01*
X132347377Y-106874640D01*
X132397440Y-106625000D01*
X132397440Y-106385750D01*
X133040000Y-106385750D01*
X133040000Y-106726309D01*
X133136673Y-106959698D01*
X133315301Y-107138327D01*
X133548690Y-107235000D01*
X134014250Y-107235000D01*
X134173000Y-107076250D01*
X134173000Y-106227000D01*
X134427000Y-106227000D01*
X134427000Y-107076250D01*
X134585750Y-107235000D01*
X135051310Y-107235000D01*
X135284699Y-107138327D01*
X135463327Y-106959698D01*
X135560000Y-106726309D01*
X135560000Y-106385750D01*
X135401250Y-106227000D01*
X134427000Y-106227000D01*
X134173000Y-106227000D01*
X134173000Y-106227000D01*
X133198750Y-106227000D01*
X133040000Y-106385750D01*
X132397440Y-106385750D01*
X132397440Y-105375000D01*
X132350463Y-105132877D01*
X132210673Y-104920073D01*
X132064970Y-104821722D01*
X132147377Y-104699640D01*
X132197440Y-104450000D01*
X132197440Y-103600000D01*
X133027560Y-103600000D01*
X133027560Y-104600000D01*
X133074537Y-104842123D01*
X133214327Y-105054927D01*
X133278637Y-105098337D01*
X133136673Y-105240302D01*
X133040000Y-105473691D01*
X133040000Y-105814250D01*
X133198750Y-105973000D01*
X134173000Y-105973000D01*
X134173000Y-105953000D01*
X134427000Y-105953000D01*
X134427000Y-105973000D01*
X135401250Y-105973000D01*
X135560000Y-105814250D01*
X135560000Y-105473691D01*
X135463327Y-105240302D01*
X135321850Y-105098824D01*
X135379927Y-105060673D01*
X135522377Y-104849640D01*
X135572440Y-104600000D01*
X135572440Y-103600000D01*
X135525463Y-103357877D01*
X135385673Y-103145073D01*
X135174640Y-103002623D01*
X134985119Y-102964616D01*
X134985162Y-102914833D01*
X134843117Y-102571057D01*
X134580327Y-102307808D01*
X134236799Y-102165162D01*
X133864833Y-102164838D01*
X133521057Y-102306883D01*
X133257808Y-102569673D01*
X133115162Y-102913201D01*
X133114838Y-103285167D01*
X133117417Y-103291408D01*
X133077623Y-103350360D01*
X133027560Y-103600000D01*
X132197440Y-103600000D01*
X132197440Y-103150000D01*
X132150463Y-102907877D01*
X132010673Y-102695073D01*
X131799640Y-102552623D01*
X131550000Y-102502560D01*
X130850000Y-102502560D01*
X130700123Y-102531639D01*
X130687401Y-102512599D01*
X130237401Y-102062599D01*
X129990839Y-101897852D01*
X129700000Y-101840000D01*
X126464802Y-101840000D01*
X125457833Y-100833031D01*
X125529927Y-100785673D01*
X125672377Y-100574640D01*
X125722440Y-100325000D01*
X125722440Y-99975000D01*
X125695522Y-99836263D01*
X125710000Y-99801310D01*
X125710000Y-99746250D01*
X125634943Y-99671193D01*
X125536640Y-99521545D01*
X125737401Y-99387401D01*
X127140000Y-97984802D01*
X127140000Y-99350000D01*
X127197852Y-99640839D01*
X127362599Y-99887401D01*
X127826799Y-100351601D01*
X128066831Y-100511985D01*
X128104537Y-100706323D01*
X128244327Y-100919127D01*
X128455360Y-101061577D01*
X128705000Y-101111640D01*
X129405000Y-101111640D01*
X129647123Y-101064663D01*
X129859927Y-100924873D01*
X130002377Y-100713840D01*
X130004216Y-100704669D01*
X130004537Y-100706323D01*
X130144327Y-100919127D01*
X130355360Y-101061577D01*
X130605000Y-101111640D01*
X131305000Y-101111640D01*
X131547123Y-101064663D01*
X131759927Y-100924873D01*
X131902377Y-100713840D01*
X131930381Y-100574200D01*
X132285800Y-100574200D01*
X132576639Y-100516348D01*
X132823201Y-100351601D01*
X134054700Y-99120102D01*
X134054700Y-100803900D01*
X134112552Y-101094739D01*
X134277299Y-101341301D01*
X139014900Y-106078902D01*
X139014900Y-107442791D01*
X138780327Y-107207808D01*
X138436799Y-107065162D01*
X138064833Y-107064838D01*
X137721057Y-107206883D01*
X137457808Y-107469673D01*
X137315162Y-107813201D01*
X137314932Y-108077014D01*
X137220073Y-108139327D01*
X137077623Y-108350360D01*
X137039388Y-108541018D01*
X136910673Y-108345073D01*
X136735053Y-108226527D01*
X136735162Y-108101833D01*
X136593117Y-107758057D01*
X136330327Y-107494808D01*
X135986799Y-107352162D01*
X135614833Y-107351838D01*
X135271057Y-107493883D01*
X135007808Y-107756673D01*
X134865162Y-108100201D01*
X134865051Y-108227669D01*
X134695073Y-108339327D01*
X134552623Y-108550360D01*
X134502560Y-108800000D01*
X134502560Y-109500000D01*
X134549537Y-109742123D01*
X134689327Y-109954927D01*
X134900360Y-110097377D01*
X134930792Y-110103480D01*
X134790301Y-110161673D01*
X134611673Y-110340302D01*
X134515000Y-110573691D01*
X134515000Y-110764250D01*
X134673750Y-110923000D01*
X135673000Y-110923000D01*
X135673000Y-110903000D01*
X135927000Y-110903000D01*
X135927000Y-110923000D01*
X135947000Y-110923000D01*
X135947000Y-111177000D01*
X135927000Y-111177000D01*
X135927000Y-111876250D01*
X136085750Y-112035000D01*
X136576310Y-112035000D01*
X136809699Y-111938327D01*
X136815507Y-111932519D01*
X136864201Y-111952738D01*
X137147362Y-111952985D01*
X137214327Y-112054927D01*
X137425360Y-112197377D01*
X137675000Y-112247440D01*
X138925000Y-112247440D01*
X139167123Y-112200463D01*
X139379927Y-112060673D01*
X139522377Y-111849640D01*
X139552137Y-111701239D01*
X140962099Y-113111201D01*
X141208661Y-113275948D01*
X141499500Y-113333800D01*
X143386200Y-113333800D01*
X143677039Y-113275948D01*
X143923601Y-113111201D01*
X144305691Y-112729111D01*
X144425391Y-112809092D01*
X144960000Y-112915432D01*
X145494609Y-112809092D01*
X145947828Y-112506260D01*
X146230000Y-112083961D01*
X146512172Y-112506260D01*
X146965391Y-112809092D01*
X147500000Y-112915432D01*
X147759093Y-112863895D01*
X148092599Y-113197401D01*
X148339160Y-113362148D01*
X148630000Y-113420000D01*
X164710000Y-113420000D01*
X165000839Y-113362148D01*
X165247401Y-113197401D01*
X166237401Y-112207401D01*
X166402148Y-111960840D01*
X166407863Y-111932110D01*
X166442123Y-111925463D01*
X166654927Y-111785673D01*
X166699614Y-111719471D01*
X166739327Y-111779927D01*
X166950360Y-111922377D01*
X167200000Y-111972440D01*
X168200000Y-111972440D01*
X168442123Y-111925463D01*
X168654927Y-111785673D01*
X168657186Y-111782325D01*
X171294587Y-111782325D01*
X171656916Y-112659229D01*
X172327242Y-113330726D01*
X173203513Y-113694585D01*
X174152325Y-113695413D01*
X175029229Y-113333084D01*
X175700726Y-112662758D01*
X176064585Y-111786487D01*
X176065413Y-110837675D01*
X175703084Y-109960771D01*
X175032758Y-109289274D01*
X174156487Y-108925415D01*
X173207675Y-108924587D01*
X172330771Y-109286916D01*
X171659274Y-109957242D01*
X171295415Y-110833513D01*
X171294587Y-111782325D01*
X168657186Y-111782325D01*
X168797377Y-111574640D01*
X168847440Y-111325000D01*
X168847440Y-110075000D01*
X168800463Y-109832877D01*
X168660673Y-109620073D01*
X168634911Y-109602683D01*
X168635162Y-109314833D01*
X168493117Y-108971057D01*
X168230327Y-108707808D01*
X167886799Y-108565162D01*
X167514833Y-108564838D01*
X167171057Y-108706883D01*
X166907808Y-108969673D01*
X166765162Y-109313201D01*
X166764911Y-109601295D01*
X166745073Y-109614327D01*
X166700386Y-109680529D01*
X166660673Y-109620073D01*
X166449640Y-109477623D01*
X166200000Y-109427560D01*
X165200000Y-109427560D01*
X164957877Y-109474537D01*
X164745073Y-109614327D01*
X164602623Y-109825360D01*
X164552560Y-110075000D01*
X164552560Y-111325000D01*
X164599537Y-111567123D01*
X164650497Y-111644701D01*
X164395198Y-111900000D01*
X159563383Y-111900000D01*
X159597377Y-111849640D01*
X159647440Y-111600000D01*
X159647440Y-110000000D01*
X159600463Y-109757877D01*
X159460673Y-109545073D01*
X159434890Y-109527669D01*
X159435162Y-109214833D01*
X159293117Y-108871057D01*
X159030327Y-108607808D01*
X158686799Y-108465162D01*
X158314833Y-108464838D01*
X157971057Y-108606883D01*
X157707808Y-108869673D01*
X157565162Y-109213201D01*
X157564889Y-109526310D01*
X157545073Y-109539327D01*
X157402623Y-109750360D01*
X157352560Y-110000000D01*
X157352560Y-111600000D01*
X157399537Y-111842123D01*
X157437556Y-111900000D01*
X156563055Y-111900000D01*
X156635000Y-111726310D01*
X156635000Y-111085750D01*
X156476250Y-110927000D01*
X155627000Y-110927000D01*
X155627000Y-110947000D01*
X155373000Y-110947000D01*
X155373000Y-110927000D01*
X154523750Y-110927000D01*
X154365000Y-111085750D01*
X154365000Y-111726310D01*
X154436945Y-111900000D01*
X151860000Y-111900000D01*
X151860000Y-110776098D01*
X151992123Y-110750463D01*
X152204927Y-110610673D01*
X152347377Y-110399640D01*
X152397440Y-110150000D01*
X152397440Y-109873690D01*
X154365000Y-109873690D01*
X154365000Y-110514250D01*
X154523750Y-110673000D01*
X155373000Y-110673000D01*
X155373000Y-109523750D01*
X155627000Y-109523750D01*
X155627000Y-110673000D01*
X156476250Y-110673000D01*
X156635000Y-110514250D01*
X156635000Y-109873690D01*
X156538327Y-109640301D01*
X156359698Y-109461673D01*
X156126309Y-109365000D01*
X155785750Y-109365000D01*
X155627000Y-109523750D01*
X155373000Y-109523750D01*
X155373000Y-109523750D01*
X155214250Y-109365000D01*
X154873691Y-109365000D01*
X154640302Y-109461673D01*
X154461673Y-109640301D01*
X154365000Y-109873690D01*
X152397440Y-109873690D01*
X152397440Y-109450000D01*
X152350463Y-109207877D01*
X152210673Y-108995073D01*
X151999640Y-108852623D01*
X151969208Y-108846520D01*
X152109699Y-108788327D01*
X152288327Y-108609698D01*
X152385000Y-108376309D01*
X152385000Y-108185750D01*
X152226250Y-108027000D01*
X151227000Y-108027000D01*
X151227000Y-108047000D01*
X150973000Y-108047000D01*
X150973000Y-108027000D01*
X149973750Y-108027000D01*
X149815000Y-108185750D01*
X149815000Y-108376309D01*
X149911673Y-108609698D01*
X150090301Y-108788327D01*
X150228442Y-108845547D01*
X150207877Y-108849537D01*
X149995073Y-108989327D01*
X149852623Y-109200360D01*
X149802560Y-109450000D01*
X149802560Y-110150000D01*
X149849537Y-110392123D01*
X149989327Y-110604927D01*
X150200360Y-110747377D01*
X150340000Y-110775381D01*
X150340000Y-111900000D01*
X148944802Y-111900000D01*
X148841625Y-111796823D01*
X148897000Y-111518432D01*
X148897000Y-110979408D01*
X148790660Y-110444799D01*
X148487828Y-109991580D01*
X148096347Y-109730000D01*
X148487828Y-109468420D01*
X148790660Y-109015201D01*
X148897000Y-108480592D01*
X148897000Y-107941568D01*
X148793989Y-107423691D01*
X149815000Y-107423691D01*
X149815000Y-107614250D01*
X149973750Y-107773000D01*
X150973000Y-107773000D01*
X150973000Y-107073750D01*
X151227000Y-107073750D01*
X151227000Y-107773000D01*
X152226250Y-107773000D01*
X152263500Y-107735750D01*
X153640000Y-107735750D01*
X153640000Y-108076309D01*
X153736673Y-108309698D01*
X153915301Y-108488327D01*
X154148690Y-108585000D01*
X154614250Y-108585000D01*
X154773000Y-108426250D01*
X154773000Y-107577000D01*
X155027000Y-107577000D01*
X155027000Y-108426250D01*
X155185750Y-108585000D01*
X155651310Y-108585000D01*
X155884699Y-108488327D01*
X156063327Y-108309698D01*
X156160000Y-108076309D01*
X156160000Y-107735750D01*
X156001250Y-107577000D01*
X155027000Y-107577000D01*
X154773000Y-107577000D01*
X154773000Y-107577000D01*
X153798750Y-107577000D01*
X153640000Y-107735750D01*
X152263500Y-107735750D01*
X152385000Y-107614250D01*
X152385000Y-107423691D01*
X152288327Y-107190302D01*
X152109699Y-107011673D01*
X151876310Y-106915000D01*
X151385750Y-106915000D01*
X151227000Y-107073750D01*
X150973000Y-107073750D01*
X150973000Y-107073750D01*
X150814250Y-106915000D01*
X150323690Y-106915000D01*
X150090301Y-107011673D01*
X149911673Y-107190302D01*
X149815000Y-107423691D01*
X148793989Y-107423691D01*
X148790660Y-107406959D01*
X148487828Y-106953740D01*
X148034609Y-106650908D01*
X147500000Y-106544568D01*
X146965391Y-106650908D01*
X146512172Y-106953740D01*
X146230000Y-107376039D01*
X145947828Y-106953740D01*
X145494609Y-106650908D01*
X144960000Y-106544568D01*
X144425391Y-106650908D01*
X143972172Y-106953740D01*
X143686226Y-107381688D01*
X143673135Y-107335253D01*
X143333465Y-106904290D01*
X142854728Y-106636118D01*
X142763070Y-106619370D01*
X142547000Y-106741870D01*
X142547000Y-108084080D01*
X142567000Y-108084080D01*
X142567000Y-108338080D01*
X142547000Y-108338080D01*
X142547000Y-108358080D01*
X142293000Y-108358080D01*
X142293000Y-108338080D01*
X142273000Y-108338080D01*
X142273000Y-108084080D01*
X142293000Y-108084080D01*
X142293000Y-106741870D01*
X142076930Y-106619370D01*
X141985272Y-106636118D01*
X141716000Y-106786955D01*
X141716000Y-105226200D01*
X141658148Y-104935361D01*
X141493401Y-104688799D01*
X139302042Y-102497440D01*
X139350000Y-102497440D01*
X139451652Y-102477717D01*
X139550000Y-102497440D01*
X140150000Y-102497440D01*
X140251652Y-102477717D01*
X140350000Y-102497440D01*
X140554926Y-102497440D01*
X140515162Y-102593201D01*
X140514838Y-102965167D01*
X140656883Y-103308943D01*
X140919673Y-103572192D01*
X141263201Y-103714838D01*
X141635167Y-103715162D01*
X141978943Y-103573117D01*
X142242192Y-103310327D01*
X142384838Y-102966799D01*
X142385162Y-102594833D01*
X142339780Y-102485000D01*
X142377002Y-102485000D01*
X142377002Y-102364109D01*
X142493489Y-102442739D01*
X142535750Y-102485000D01*
X142676310Y-102485000D01*
X142680113Y-102483425D01*
X142750000Y-102497440D01*
X143350000Y-102497440D01*
X143451652Y-102477717D01*
X143550000Y-102497440D01*
X144150000Y-102497440D01*
X144251652Y-102477717D01*
X144350000Y-102497440D01*
X144950000Y-102497440D01*
X145051652Y-102477717D01*
X145150000Y-102497440D01*
X145494464Y-102497440D01*
X145547852Y-102765839D01*
X145712599Y-103012401D01*
X148087599Y-105387401D01*
X148334160Y-105552148D01*
X148625000Y-105610000D01*
X150987537Y-105610000D01*
X151019673Y-105642192D01*
X151363201Y-105784838D01*
X151735167Y-105785162D01*
X152078943Y-105643117D01*
X152342192Y-105380327D01*
X152484838Y-105036799D01*
X152485162Y-104664833D01*
X152483165Y-104660000D01*
X153017935Y-104660000D01*
X152757808Y-104919673D01*
X152615162Y-105263201D01*
X152614838Y-105635167D01*
X152756883Y-105978943D01*
X153019673Y-106242192D01*
X153363201Y-106384838D01*
X153735167Y-106385162D01*
X153787216Y-106363656D01*
X153814327Y-106404927D01*
X153878637Y-106448337D01*
X153736673Y-106590302D01*
X153640000Y-106823691D01*
X153640000Y-107164250D01*
X153798750Y-107323000D01*
X154773000Y-107323000D01*
X154773000Y-107303000D01*
X155027000Y-107303000D01*
X155027000Y-107323000D01*
X156001250Y-107323000D01*
X156160000Y-107164250D01*
X156160000Y-106823691D01*
X156063327Y-106590302D01*
X155921850Y-106448824D01*
X155979927Y-106410673D01*
X156122377Y-106199640D01*
X156172440Y-105950000D01*
X156172440Y-104950000D01*
X156125463Y-104707877D01*
X156094013Y-104660000D01*
X156860198Y-104660000D01*
X158762599Y-106562401D01*
X158765118Y-106564084D01*
X158764838Y-106885167D01*
X158906883Y-107228943D01*
X159169673Y-107492192D01*
X159513201Y-107634838D01*
X159885167Y-107635162D01*
X160070029Y-107558779D01*
X160075360Y-107562377D01*
X160325000Y-107612440D01*
X162275000Y-107612440D01*
X162517123Y-107565463D01*
X162729927Y-107425673D01*
X162872377Y-107214640D01*
X162900350Y-107075152D01*
X163027599Y-107202401D01*
X163274161Y-107367148D01*
X163565000Y-107425000D01*
X169271842Y-107425000D01*
X169475360Y-107562377D01*
X169725000Y-107612440D01*
X171675000Y-107612440D01*
X171917123Y-107565463D01*
X172129927Y-107425673D01*
X172272377Y-107214640D01*
X172322440Y-106965000D01*
X172322440Y-106365000D01*
X172275463Y-106122877D01*
X172214603Y-106030229D01*
X172272377Y-105944640D01*
X172322440Y-105695000D01*
X172322440Y-105095000D01*
X172297410Y-104965995D01*
X172463201Y-105034838D01*
X172835167Y-105035162D01*
X173178943Y-104893117D01*
X173442192Y-104630327D01*
X173584838Y-104286799D01*
X173585162Y-103914833D01*
X173443117Y-103571057D01*
X173180327Y-103307808D01*
X172836799Y-103165162D01*
X172464833Y-103164838D01*
X172307424Y-103229878D01*
X172322440Y-103155000D01*
X172322440Y-102555000D01*
X172275463Y-102312877D01*
X172214603Y-102220229D01*
X172272377Y-102134640D01*
X172322440Y-101885000D01*
X172322440Y-101285000D01*
X172275463Y-101042877D01*
X172214603Y-100950229D01*
X172272377Y-100864640D01*
X172322440Y-100615000D01*
X172322440Y-100015000D01*
X172316597Y-99984885D01*
X172635167Y-99985162D01*
X172978943Y-99843117D01*
X173242192Y-99580327D01*
X173384838Y-99236799D01*
X173385162Y-98864833D01*
X173245431Y-98526658D01*
X173492192Y-98280327D01*
X173634838Y-97936799D01*
X173635162Y-97564833D01*
X173511274Y-97265000D01*
X173640198Y-97265000D01*
X176312599Y-99937401D01*
X176559160Y-100102148D01*
X176850000Y-100160000D01*
X177621510Y-100160000D01*
X177773740Y-100387828D01*
X178196039Y-100670000D01*
X177773740Y-100952172D01*
X177470908Y-101405391D01*
X177364568Y-101940000D01*
X177470908Y-102474609D01*
X177773740Y-102927828D01*
X178196039Y-103210000D01*
X177773740Y-103492172D01*
X177470908Y-103945391D01*
X177364568Y-104480000D01*
X177470908Y-105014609D01*
X177773740Y-105467828D01*
X178196039Y-105750000D01*
X177773740Y-106032172D01*
X177470908Y-106485391D01*
X177364568Y-107020000D01*
X177470908Y-107554609D01*
X177773740Y-108007828D01*
X178226959Y-108310660D01*
X178761568Y-108417000D01*
X179300592Y-108417000D01*
X179835201Y-108310660D01*
X180288420Y-108007828D01*
X180550000Y-107616347D01*
X180811580Y-108007828D01*
X181264799Y-108310660D01*
X181799408Y-108417000D01*
X182338432Y-108417000D01*
X182873041Y-108310660D01*
X183326260Y-108007828D01*
X183629092Y-107554609D01*
X183690000Y-107248403D01*
X183690000Y-114490000D01*
X112110000Y-114490000D01*
X112110000Y-112432325D01*
X112114587Y-112432325D01*
X112476916Y-113309229D01*
X113147242Y-113980726D01*
X114023513Y-114344585D01*
X114972325Y-114345413D01*
X115849229Y-113983084D01*
X116520726Y-113312758D01*
X116884585Y-112436487D01*
X116885413Y-111487675D01*
X116753223Y-111167750D01*
X125669000Y-111167750D01*
X125669000Y-111358309D01*
X125765673Y-111591698D01*
X125944301Y-111770327D01*
X126177690Y-111867000D01*
X126668250Y-111867000D01*
X126827000Y-111708250D01*
X126827000Y-111009000D01*
X127081000Y-111009000D01*
X127081000Y-111708250D01*
X127239750Y-111867000D01*
X127730310Y-111867000D01*
X127963699Y-111770327D01*
X128004000Y-111730026D01*
X128044301Y-111770327D01*
X128277690Y-111867000D01*
X128768250Y-111867000D01*
X128927000Y-111708250D01*
X128927000Y-111009000D01*
X129181000Y-111009000D01*
X129181000Y-111708250D01*
X129339750Y-111867000D01*
X129830310Y-111867000D01*
X130063699Y-111770327D01*
X130118000Y-111716026D01*
X130190301Y-111788327D01*
X130423690Y-111885000D01*
X130914250Y-111885000D01*
X131073000Y-111726250D01*
X131073000Y-111027000D01*
X131327000Y-111027000D01*
X131327000Y-111726250D01*
X131485750Y-111885000D01*
X131976310Y-111885000D01*
X132209699Y-111788327D01*
X132388327Y-111609698D01*
X132485000Y-111376309D01*
X132485000Y-111335750D01*
X134515000Y-111335750D01*
X134515000Y-111526309D01*
X134611673Y-111759698D01*
X134790301Y-111938327D01*
X135023690Y-112035000D01*
X135514250Y-112035000D01*
X135673000Y-111876250D01*
X135673000Y-111177000D01*
X134673750Y-111177000D01*
X134515000Y-111335750D01*
X132485000Y-111335750D01*
X132485000Y-111185750D01*
X132326250Y-111027000D01*
X131327000Y-111027000D01*
X131073000Y-111027000D01*
X131073000Y-111027000D01*
X130198250Y-111027000D01*
X130180250Y-111009000D01*
X129181000Y-111009000D01*
X128927000Y-111009000D01*
X128927000Y-111009000D01*
X127081000Y-111009000D01*
X126827000Y-111009000D01*
X126827000Y-111009000D01*
X125827750Y-111009000D01*
X125669000Y-111167750D01*
X116753223Y-111167750D01*
X116523084Y-110610771D01*
X115852758Y-109939274D01*
X114976487Y-109575415D01*
X114027675Y-109574587D01*
X113150771Y-109936916D01*
X112479274Y-110607242D01*
X112115415Y-111483513D01*
X112114587Y-112432325D01*
X112110000Y-112432325D01*
X112110000Y-107999900D01*
X116353050Y-107999900D01*
X116353050Y-109600100D01*
X116400027Y-109842223D01*
X116539817Y-110055027D01*
X116750850Y-110197477D01*
X117000490Y-110247540D01*
X120000230Y-110247540D01*
X120242353Y-110200563D01*
X120455157Y-110060773D01*
X120597607Y-109849740D01*
X120647670Y-109600100D01*
X120647670Y-109085750D01*
X120764770Y-109085750D01*
X120764770Y-109726410D01*
X120861443Y-109959799D01*
X121040072Y-110138427D01*
X121273461Y-110235100D01*
X122613890Y-110235100D01*
X122772640Y-110076350D01*
X122772640Y-108927000D01*
X123026640Y-108927000D01*
X123026640Y-110076350D01*
X123185390Y-110235100D01*
X124525819Y-110235100D01*
X124759208Y-110138427D01*
X124937837Y-109959799D01*
X125034510Y-109726410D01*
X125034510Y-109085750D01*
X124875760Y-108927000D01*
X123026640Y-108927000D01*
X122772640Y-108927000D01*
X122772640Y-108927000D01*
X120923520Y-108927000D01*
X120764770Y-109085750D01*
X120647670Y-109085750D01*
X120647670Y-107999900D01*
X120623164Y-107873590D01*
X120764770Y-107873590D01*
X120764770Y-108514250D01*
X120923520Y-108673000D01*
X122772640Y-108673000D01*
X122772640Y-107523650D01*
X123026640Y-107523650D01*
X123026640Y-108673000D01*
X124875760Y-108673000D01*
X125034510Y-108514250D01*
X125034510Y-107873590D01*
X124937837Y-107640201D01*
X124759208Y-107461573D01*
X124525819Y-107364900D01*
X123185390Y-107364900D01*
X123026640Y-107523650D01*
X122772640Y-107523650D01*
X122772640Y-107523650D01*
X122613890Y-107364900D01*
X121273461Y-107364900D01*
X121040072Y-107461573D01*
X120861443Y-107640201D01*
X120764770Y-107873590D01*
X120623164Y-107873590D01*
X120600693Y-107757777D01*
X120460903Y-107544973D01*
X120249870Y-107402523D01*
X120000230Y-107352460D01*
X119384868Y-107352460D01*
X119385162Y-107014833D01*
X119243117Y-106671057D01*
X118980327Y-106407808D01*
X118636799Y-106265162D01*
X118264833Y-106264838D01*
X117921057Y-106406883D01*
X117657808Y-106669673D01*
X117515162Y-107013201D01*
X117514866Y-107352460D01*
X117000490Y-107352460D01*
X116758367Y-107399437D01*
X116545563Y-107539227D01*
X116403113Y-107750260D01*
X116353050Y-107999900D01*
X112110000Y-107999900D01*
X112110000Y-74910000D01*
X127691410Y-74910000D01*
X127417160Y-74964552D01*
X127417160Y-74964552D01*
G37*
X127417160Y-74964552D02*
X127170599Y-75129299D01*
X126462599Y-75837299D01*
X126310391Y-76065096D01*
X126132877Y-76099537D01*
X125920073Y-76239327D01*
X125777623Y-76450360D01*
X125727560Y-76700000D01*
X125727560Y-77700000D01*
X125774537Y-77942123D01*
X125914327Y-78154927D01*
X125980529Y-78199614D01*
X125920073Y-78239327D01*
X125777623Y-78450360D01*
X125727560Y-78700000D01*
X125727560Y-79700000D01*
X125774537Y-79942123D01*
X125914327Y-80154927D01*
X126067257Y-80258157D01*
X126065162Y-80263201D01*
X126064838Y-80635167D01*
X126206883Y-80978943D01*
X126469673Y-81242192D01*
X126813201Y-81384838D01*
X127185167Y-81385162D01*
X127528943Y-81243117D01*
X127792192Y-80980327D01*
X127934838Y-80636799D01*
X127935162Y-80264833D01*
X127932216Y-80257704D01*
X128079927Y-80160673D01*
X128222377Y-79949640D01*
X128272440Y-79700000D01*
X128272440Y-78700000D01*
X128225463Y-78457877D01*
X128085673Y-78245073D01*
X128019471Y-78200386D01*
X128079927Y-78160673D01*
X128222377Y-77949640D01*
X128272440Y-77700000D01*
X128272440Y-76700000D01*
X128225463Y-76457877D01*
X128204983Y-76426700D01*
X129453872Y-76426700D01*
X129447000Y-76443291D01*
X129447000Y-76633850D01*
X129605750Y-76792600D01*
X130605000Y-76792600D01*
X130605000Y-76772600D01*
X130859000Y-76772600D01*
X130859000Y-76792600D01*
X131793350Y-76792600D01*
X131873750Y-76873000D01*
X132873000Y-76873000D01*
X132873000Y-76853000D01*
X133127000Y-76853000D01*
X133127000Y-76873000D01*
X134126250Y-76873000D01*
X134285000Y-76714250D01*
X134285000Y-76523691D01*
X134244825Y-76426700D01*
X135097000Y-76426700D01*
X135097000Y-76533850D01*
X135255750Y-76692600D01*
X136255000Y-76692600D01*
X136255000Y-76672600D01*
X136509000Y-76672600D01*
X136509000Y-76692600D01*
X136529000Y-76692600D01*
X136529000Y-76946600D01*
X136509000Y-76946600D01*
X136509000Y-76966600D01*
X136255000Y-76966600D01*
X136255000Y-76946600D01*
X135255750Y-76946600D01*
X135097000Y-77105350D01*
X135097000Y-77295909D01*
X135193673Y-77529298D01*
X135372301Y-77707927D01*
X135510442Y-77765147D01*
X135489877Y-77769137D01*
X135277073Y-77908927D01*
X135134623Y-78119960D01*
X135084560Y-78369600D01*
X135084560Y-78680967D01*
X134950517Y-78356557D01*
X134687727Y-78093308D01*
X134344199Y-77950662D01*
X133972233Y-77950338D01*
X133925104Y-77969811D01*
X133899640Y-77952623D01*
X133869208Y-77946520D01*
X134009699Y-77888327D01*
X134188327Y-77709698D01*
X134285000Y-77476309D01*
X134285000Y-77285750D01*
X134126250Y-77127000D01*
X133127000Y-77127000D01*
X133127000Y-77147000D01*
X132873000Y-77147000D01*
X132873000Y-77127000D01*
X131938650Y-77127000D01*
X131858250Y-77046600D01*
X130859000Y-77046600D01*
X130859000Y-77066600D01*
X130605000Y-77066600D01*
X130605000Y-77046600D01*
X129605750Y-77046600D01*
X129447000Y-77205350D01*
X129447000Y-77395909D01*
X129543673Y-77629298D01*
X129722301Y-77807927D01*
X129860442Y-77865147D01*
X129839877Y-77869137D01*
X129717999Y-77949198D01*
X129661799Y-77925862D01*
X129289833Y-77925538D01*
X128946057Y-78067583D01*
X128682808Y-78330373D01*
X128540162Y-78673901D01*
X128539838Y-79045867D01*
X128681883Y-79389643D01*
X128944673Y-79652892D01*
X129288201Y-79795538D01*
X129660167Y-79795862D01*
X129793522Y-79740761D01*
X129832360Y-79766977D01*
X130082000Y-79817040D01*
X131382000Y-79817040D01*
X131624123Y-79770063D01*
X131836927Y-79630273D01*
X131838630Y-79627750D01*
X131889327Y-79704927D01*
X132100360Y-79847377D01*
X132350000Y-79897440D01*
X133650000Y-79897440D01*
X133892123Y-79850463D01*
X133950616Y-79812039D01*
X133970601Y-79820338D01*
X134342567Y-79820662D01*
X134686343Y-79678617D01*
X134949592Y-79415827D01*
X135087362Y-79084042D01*
X135131537Y-79311723D01*
X135271327Y-79524527D01*
X135482360Y-79666977D01*
X135695934Y-79709807D01*
X135844599Y-79932301D01*
X138820031Y-82907733D01*
X138657808Y-83069673D01*
X138515162Y-83413201D01*
X138514838Y-83785167D01*
X138576551Y-83934525D01*
X138390301Y-84011673D01*
X138211673Y-84190302D01*
X138115000Y-84423691D01*
X138115000Y-85014250D01*
X138273750Y-85173000D01*
X138902560Y-85173000D01*
X138902560Y-85427000D01*
X138273750Y-85427000D01*
X138115000Y-85585750D01*
X138115000Y-86176309D01*
X138174183Y-86319190D01*
X138149640Y-86302623D01*
X137900000Y-86252560D01*
X136400000Y-86252560D01*
X136157877Y-86299537D01*
X135945073Y-86439327D01*
X135802623Y-86650360D01*
X135752560Y-86900000D01*
X135752560Y-87240000D01*
X134936402Y-87240000D01*
X133381517Y-85685115D01*
X133435167Y-85685162D01*
X133778943Y-85543117D01*
X134042192Y-85280327D01*
X134184838Y-84936799D01*
X134185162Y-84564833D01*
X134115185Y-84395476D01*
X134247377Y-84199640D01*
X134253480Y-84169208D01*
X134311673Y-84309699D01*
X134490302Y-84488327D01*
X134723691Y-84585000D01*
X134914250Y-84585000D01*
X135073000Y-84426250D01*
X135073000Y-83427000D01*
X135327000Y-83427000D01*
X135327000Y-84426250D01*
X135485750Y-84585000D01*
X135676309Y-84585000D01*
X135909698Y-84488327D01*
X136088327Y-84309699D01*
X136185000Y-84076310D01*
X136185000Y-83585750D01*
X136026250Y-83427000D01*
X135327000Y-83427000D01*
X135073000Y-83427000D01*
X135073000Y-83427000D01*
X135053000Y-83427000D01*
X135053000Y-83173000D01*
X135073000Y-83173000D01*
X135073000Y-82173750D01*
X135327000Y-82173750D01*
X135327000Y-83173000D01*
X136026250Y-83173000D01*
X136185000Y-83014250D01*
X136185000Y-82523690D01*
X136088327Y-82290301D01*
X135909698Y-82111673D01*
X135676309Y-82015000D01*
X135485750Y-82015000D01*
X135327000Y-82173750D01*
X135073000Y-82173750D01*
X135073000Y-82173750D01*
X134914250Y-82015000D01*
X134723691Y-82015000D01*
X134490302Y-82111673D01*
X134311673Y-82290301D01*
X134254453Y-82428442D01*
X134250463Y-82407877D01*
X134110673Y-82195073D01*
X133899640Y-82052623D01*
X133650000Y-82002560D01*
X132950000Y-82002560D01*
X132707877Y-82049537D01*
X132495073Y-82189327D01*
X132352623Y-82400360D01*
X132302560Y-82650000D01*
X132302560Y-83950000D01*
X132349537Y-84192123D01*
X132422884Y-84303780D01*
X132315162Y-84563201D01*
X132314838Y-84935167D01*
X132389267Y-85115300D01*
X131947440Y-85115300D01*
X131947440Y-84250000D01*
X131900463Y-84007877D01*
X131760673Y-83795073D01*
X131549640Y-83652623D01*
X131300000Y-83602560D01*
X130600000Y-83602560D01*
X130357877Y-83649537D01*
X130145073Y-83789327D01*
X130002623Y-84000360D01*
X129996520Y-84030792D01*
X129938327Y-83890301D01*
X129759698Y-83711673D01*
X129526309Y-83615000D01*
X129335750Y-83615000D01*
X129177000Y-83773750D01*
X129177000Y-84773000D01*
X129197000Y-84773000D01*
X129197000Y-85027000D01*
X129177000Y-85027000D01*
X129177000Y-85047000D01*
X128923000Y-85047000D01*
X128923000Y-85027000D01*
X128223750Y-85027000D01*
X128065000Y-85185750D01*
X128065000Y-85676310D01*
X128161673Y-85909699D01*
X128204699Y-85952724D01*
X128119623Y-86078760D01*
X128069560Y-86328400D01*
X128069560Y-86506001D01*
X127859161Y-86547852D01*
X127612599Y-86712599D01*
X126597440Y-87727758D01*
X126597440Y-87400000D01*
X126550463Y-87157877D01*
X126410673Y-86945073D01*
X126199640Y-86802623D01*
X125950000Y-86752560D01*
X123450000Y-86752560D01*
X123207877Y-86799537D01*
X122995073Y-86939327D01*
X122859616Y-87140000D01*
X122400400Y-87140000D01*
X122285751Y-87162805D01*
X122286210Y-86636402D01*
X122075714Y-86126963D01*
X121686287Y-85736856D01*
X121660400Y-85726107D01*
X121660400Y-85700400D01*
X121602548Y-85409561D01*
X121437801Y-85162999D01*
X120627401Y-84352599D01*
X120380839Y-84187852D01*
X120090000Y-84130000D01*
X117554047Y-84130000D01*
X118196776Y-83488392D01*
X118280920Y-83285750D01*
X122815000Y-83285750D01*
X122815000Y-83626309D01*
X122911673Y-83859698D01*
X123090301Y-84038327D01*
X123323690Y-84135000D01*
X124414250Y-84135000D01*
X124573000Y-83976250D01*
X124573000Y-83127000D01*
X124827000Y-83127000D01*
X124827000Y-83976250D01*
X124985750Y-84135000D01*
X126076310Y-84135000D01*
X126103614Y-84123690D01*
X128065000Y-84123690D01*
X128065000Y-84614250D01*
X128223750Y-84773000D01*
X128923000Y-84773000D01*
X128923000Y-83773750D01*
X128764250Y-83615000D01*
X128573691Y-83615000D01*
X128340302Y-83711673D01*
X128161673Y-83890301D01*
X128065000Y-84123690D01*
X126103614Y-84123690D01*
X126309699Y-84038327D01*
X126488327Y-83859698D01*
X126585000Y-83626309D01*
X126585000Y-83285750D01*
X126426250Y-83127000D01*
X124827000Y-83127000D01*
X124573000Y-83127000D01*
X124573000Y-83127000D01*
X122973750Y-83127000D01*
X122815000Y-83285750D01*
X118280920Y-83285750D01*
X118560645Y-82612099D01*
X118560853Y-82373691D01*
X122815000Y-82373691D01*
X122815000Y-82714250D01*
X122973750Y-82873000D01*
X124573000Y-82873000D01*
X124573000Y-82023750D01*
X124827000Y-82023750D01*
X124827000Y-82873000D01*
X126426250Y-82873000D01*
X126585000Y-82714250D01*
X126585000Y-82373691D01*
X126488327Y-82140302D01*
X126309699Y-81961673D01*
X126076310Y-81865000D01*
X124985750Y-81865000D01*
X124827000Y-82023750D01*
X124573000Y-82023750D01*
X124573000Y-82023750D01*
X124414250Y-81865000D01*
X123323690Y-81865000D01*
X123090301Y-81961673D01*
X122911673Y-82140302D01*
X122815000Y-82373691D01*
X118560853Y-82373691D01*
X118561473Y-81663264D01*
X118199134Y-80786337D01*
X117528792Y-80114824D01*
X116652499Y-79750955D01*
X115745874Y-79750164D01*
X116029229Y-79633084D01*
X116076645Y-79585750D01*
X121740000Y-79585750D01*
X121740000Y-79926309D01*
X121836673Y-80159698D01*
X122015301Y-80338327D01*
X122248690Y-80435000D01*
X122714250Y-80435000D01*
X122873000Y-80276250D01*
X122873000Y-79427000D01*
X123127000Y-79427000D01*
X123127000Y-80276250D01*
X123285750Y-80435000D01*
X123751310Y-80435000D01*
X123984699Y-80338327D01*
X124163327Y-80159698D01*
X124260000Y-79926309D01*
X124260000Y-79585750D01*
X124101250Y-79427000D01*
X123127000Y-79427000D01*
X122873000Y-79427000D01*
X122873000Y-79427000D01*
X121898750Y-79427000D01*
X121740000Y-79585750D01*
X116076645Y-79585750D01*
X116700726Y-78962758D01*
X117064585Y-78086487D01*
X117065066Y-77535167D01*
X120564838Y-77535167D01*
X120706883Y-77878943D01*
X120969673Y-78142192D01*
X121313201Y-78284838D01*
X121685167Y-78285162D01*
X121881027Y-78204234D01*
X121914327Y-78254927D01*
X121978637Y-78298337D01*
X121836673Y-78440302D01*
X121740000Y-78673691D01*
X121740000Y-79014250D01*
X121898750Y-79173000D01*
X122873000Y-79173000D01*
X122873000Y-79153000D01*
X123127000Y-79153000D01*
X123127000Y-79173000D01*
X124101250Y-79173000D01*
X124260000Y-79014250D01*
X124260000Y-78673691D01*
X124163327Y-78440302D01*
X124021850Y-78298824D01*
X124079927Y-78260673D01*
X124222377Y-78049640D01*
X124272440Y-77800000D01*
X124272440Y-76800000D01*
X124225463Y-76557877D01*
X124085673Y-76345073D01*
X123874640Y-76202623D01*
X123625000Y-76152560D01*
X122375000Y-76152560D01*
X122132877Y-76199537D01*
X121920073Y-76339327D01*
X121829020Y-76474218D01*
X121686799Y-76415162D01*
X121314833Y-76414838D01*
X120971057Y-76556883D01*
X120707808Y-76819673D01*
X120565162Y-77163201D01*
X120564838Y-77535167D01*
X117065066Y-77535167D01*
X117065413Y-77137675D01*
X116703084Y-76260771D01*
X116032758Y-75589274D01*
X115156487Y-75225415D01*
X114207675Y-75224587D01*
X113330771Y-75586916D01*
X112659274Y-76257242D01*
X112295415Y-77133513D01*
X112294587Y-78082325D01*
X112656916Y-78959229D01*
X113327242Y-79630726D01*
X114203513Y-79994585D01*
X115110116Y-79995376D01*
X114826737Y-80112466D01*
X114155224Y-80782808D01*
X113791355Y-81659101D01*
X113790527Y-82607936D01*
X114152866Y-83484863D01*
X114823208Y-84156376D01*
X115699501Y-84520245D01*
X116214504Y-84520694D01*
X112882597Y-87852601D01*
X112717850Y-88099163D01*
X112659998Y-88390002D01*
X112659998Y-101739998D01*
X112717850Y-102030837D01*
X112882597Y-102277399D01*
X114802560Y-104197362D01*
X114802560Y-104550000D01*
X114849537Y-104792123D01*
X114989327Y-105004927D01*
X115200360Y-105147377D01*
X115450000Y-105197440D01*
X116150000Y-105197440D01*
X116392123Y-105150463D01*
X116604927Y-105010673D01*
X116747377Y-104799640D01*
X116749216Y-104790469D01*
X116749537Y-104792123D01*
X116889327Y-105004927D01*
X117100360Y-105147377D01*
X117350000Y-105197440D01*
X118050000Y-105197440D01*
X118292123Y-105150463D01*
X118504927Y-105010673D01*
X118647377Y-104799640D01*
X118675381Y-104660000D01*
X121000300Y-104660000D01*
X121291139Y-104602148D01*
X121537701Y-104437401D01*
X123111848Y-102863254D01*
X123119673Y-102871092D01*
X123463201Y-103013738D01*
X123510077Y-103013779D01*
X124833699Y-104337401D01*
X125080261Y-104502148D01*
X125371100Y-104560000D01*
X125964903Y-104560000D01*
X125964838Y-104635167D01*
X126106883Y-104978943D01*
X126194000Y-105066212D01*
X126194000Y-108005902D01*
X126061877Y-108031537D01*
X125849073Y-108171327D01*
X125706623Y-108382360D01*
X125656560Y-108632000D01*
X125656560Y-109332000D01*
X125703537Y-109574123D01*
X125843327Y-109786927D01*
X126054360Y-109929377D01*
X126084792Y-109935480D01*
X125944301Y-109993673D01*
X125765673Y-110172302D01*
X125669000Y-110405691D01*
X125669000Y-110596250D01*
X125827750Y-110755000D01*
X126827000Y-110755000D01*
X126827000Y-110735000D01*
X127081000Y-110735000D01*
X127081000Y-110755000D01*
X128927000Y-110755000D01*
X128927000Y-110735000D01*
X129181000Y-110735000D01*
X129181000Y-110755000D01*
X130055750Y-110755000D01*
X130073750Y-110773000D01*
X131073000Y-110773000D01*
X131073000Y-110753000D01*
X131327000Y-110753000D01*
X131327000Y-110773000D01*
X132326250Y-110773000D01*
X132485000Y-110614250D01*
X132485000Y-110423691D01*
X132388327Y-110190302D01*
X132209699Y-110011673D01*
X132071558Y-109954453D01*
X132092123Y-109950463D01*
X132304927Y-109810673D01*
X132447377Y-109599640D01*
X132497440Y-109350000D01*
X132497440Y-108650000D01*
X132450463Y-108407877D01*
X132446741Y-108402210D01*
X132485238Y-108309499D01*
X132485562Y-107937533D01*
X132343517Y-107593757D01*
X132080727Y-107330508D01*
X131880096Y-107247199D01*
X131992123Y-107225463D01*
X132204927Y-107085673D01*
X132347377Y-106874640D01*
X132397440Y-106625000D01*
X132397440Y-106385750D01*
X133040000Y-106385750D01*
X133040000Y-106726309D01*
X133136673Y-106959698D01*
X133315301Y-107138327D01*
X133548690Y-107235000D01*
X134014250Y-107235000D01*
X134173000Y-107076250D01*
X134173000Y-106227000D01*
X134427000Y-106227000D01*
X134427000Y-107076250D01*
X134585750Y-107235000D01*
X135051310Y-107235000D01*
X135284699Y-107138327D01*
X135463327Y-106959698D01*
X135560000Y-106726309D01*
X135560000Y-106385750D01*
X135401250Y-106227000D01*
X134427000Y-106227000D01*
X134173000Y-106227000D01*
X134173000Y-106227000D01*
X133198750Y-106227000D01*
X133040000Y-106385750D01*
X132397440Y-106385750D01*
X132397440Y-105375000D01*
X132350463Y-105132877D01*
X132210673Y-104920073D01*
X132064970Y-104821722D01*
X132147377Y-104699640D01*
X132197440Y-104450000D01*
X132197440Y-103600000D01*
X133027560Y-103600000D01*
X133027560Y-104600000D01*
X133074537Y-104842123D01*
X133214327Y-105054927D01*
X133278637Y-105098337D01*
X133136673Y-105240302D01*
X133040000Y-105473691D01*
X133040000Y-105814250D01*
X133198750Y-105973000D01*
X134173000Y-105973000D01*
X134173000Y-105953000D01*
X134427000Y-105953000D01*
X134427000Y-105973000D01*
X135401250Y-105973000D01*
X135560000Y-105814250D01*
X135560000Y-105473691D01*
X135463327Y-105240302D01*
X135321850Y-105098824D01*
X135379927Y-105060673D01*
X135522377Y-104849640D01*
X135572440Y-104600000D01*
X135572440Y-103600000D01*
X135525463Y-103357877D01*
X135385673Y-103145073D01*
X135174640Y-103002623D01*
X134985119Y-102964616D01*
X134985162Y-102914833D01*
X134843117Y-102571057D01*
X134580327Y-102307808D01*
X134236799Y-102165162D01*
X133864833Y-102164838D01*
X133521057Y-102306883D01*
X133257808Y-102569673D01*
X133115162Y-102913201D01*
X133114838Y-103285167D01*
X133117417Y-103291408D01*
X133077623Y-103350360D01*
X133027560Y-103600000D01*
X132197440Y-103600000D01*
X132197440Y-103150000D01*
X132150463Y-102907877D01*
X132010673Y-102695073D01*
X131799640Y-102552623D01*
X131550000Y-102502560D01*
X130850000Y-102502560D01*
X130700123Y-102531639D01*
X130687401Y-102512599D01*
X130237401Y-102062599D01*
X129990839Y-101897852D01*
X129700000Y-101840000D01*
X126464802Y-101840000D01*
X125457833Y-100833031D01*
X125529927Y-100785673D01*
X125672377Y-100574640D01*
X125722440Y-100325000D01*
X125722440Y-99975000D01*
X125695522Y-99836263D01*
X125710000Y-99801310D01*
X125710000Y-99746250D01*
X125634943Y-99671193D01*
X125536640Y-99521545D01*
X125737401Y-99387401D01*
X127140000Y-97984802D01*
X127140000Y-99350000D01*
X127197852Y-99640839D01*
X127362599Y-99887401D01*
X127826799Y-100351601D01*
X128066831Y-100511985D01*
X128104537Y-100706323D01*
X128244327Y-100919127D01*
X128455360Y-101061577D01*
X128705000Y-101111640D01*
X129405000Y-101111640D01*
X129647123Y-101064663D01*
X129859927Y-100924873D01*
X130002377Y-100713840D01*
X130004216Y-100704669D01*
X130004537Y-100706323D01*
X130144327Y-100919127D01*
X130355360Y-101061577D01*
X130605000Y-101111640D01*
X131305000Y-101111640D01*
X131547123Y-101064663D01*
X131759927Y-100924873D01*
X131902377Y-100713840D01*
X131930381Y-100574200D01*
X132285800Y-100574200D01*
X132576639Y-100516348D01*
X132823201Y-100351601D01*
X134054700Y-99120102D01*
X134054700Y-100803900D01*
X134112552Y-101094739D01*
X134277299Y-101341301D01*
X139014900Y-106078902D01*
X139014900Y-107442791D01*
X138780327Y-107207808D01*
X138436799Y-107065162D01*
X138064833Y-107064838D01*
X137721057Y-107206883D01*
X137457808Y-107469673D01*
X137315162Y-107813201D01*
X137314932Y-108077014D01*
X137220073Y-108139327D01*
X137077623Y-108350360D01*
X137039388Y-108541018D01*
X136910673Y-108345073D01*
X136735053Y-108226527D01*
X136735162Y-108101833D01*
X136593117Y-107758057D01*
X136330327Y-107494808D01*
X135986799Y-107352162D01*
X135614833Y-107351838D01*
X135271057Y-107493883D01*
X135007808Y-107756673D01*
X134865162Y-108100201D01*
X134865051Y-108227669D01*
X134695073Y-108339327D01*
X134552623Y-108550360D01*
X134502560Y-108800000D01*
X134502560Y-109500000D01*
X134549537Y-109742123D01*
X134689327Y-109954927D01*
X134900360Y-110097377D01*
X134930792Y-110103480D01*
X134790301Y-110161673D01*
X134611673Y-110340302D01*
X134515000Y-110573691D01*
X134515000Y-110764250D01*
X134673750Y-110923000D01*
X135673000Y-110923000D01*
X135673000Y-110903000D01*
X135927000Y-110903000D01*
X135927000Y-110923000D01*
X135947000Y-110923000D01*
X135947000Y-111177000D01*
X135927000Y-111177000D01*
X135927000Y-111876250D01*
X136085750Y-112035000D01*
X136576310Y-112035000D01*
X136809699Y-111938327D01*
X136815507Y-111932519D01*
X136864201Y-111952738D01*
X137147362Y-111952985D01*
X137214327Y-112054927D01*
X137425360Y-112197377D01*
X137675000Y-112247440D01*
X138925000Y-112247440D01*
X139167123Y-112200463D01*
X139379927Y-112060673D01*
X139522377Y-111849640D01*
X139552137Y-111701239D01*
X140962099Y-113111201D01*
X141208661Y-113275948D01*
X141499500Y-113333800D01*
X143386200Y-113333800D01*
X143677039Y-113275948D01*
X143923601Y-113111201D01*
X144305691Y-112729111D01*
X144425391Y-112809092D01*
X144960000Y-112915432D01*
X145494609Y-112809092D01*
X145947828Y-112506260D01*
X146230000Y-112083961D01*
X146512172Y-112506260D01*
X146965391Y-112809092D01*
X147500000Y-112915432D01*
X147759093Y-112863895D01*
X148092599Y-113197401D01*
X148339160Y-113362148D01*
X148630000Y-113420000D01*
X164710000Y-113420000D01*
X165000839Y-113362148D01*
X165247401Y-113197401D01*
X166237401Y-112207401D01*
X166402148Y-111960840D01*
X166407863Y-111932110D01*
X166442123Y-111925463D01*
X166654927Y-111785673D01*
X166699614Y-111719471D01*
X166739327Y-111779927D01*
X166950360Y-111922377D01*
X167200000Y-111972440D01*
X168200000Y-111972440D01*
X168442123Y-111925463D01*
X168654927Y-111785673D01*
X168657186Y-111782325D01*
X171294587Y-111782325D01*
X171656916Y-112659229D01*
X172327242Y-113330726D01*
X173203513Y-113694585D01*
X174152325Y-113695413D01*
X175029229Y-113333084D01*
X175700726Y-112662758D01*
X176064585Y-111786487D01*
X176065413Y-110837675D01*
X175703084Y-109960771D01*
X175032758Y-109289274D01*
X174156487Y-108925415D01*
X173207675Y-108924587D01*
X172330771Y-109286916D01*
X171659274Y-109957242D01*
X171295415Y-110833513D01*
X171294587Y-111782325D01*
X168657186Y-111782325D01*
X168797377Y-111574640D01*
X168847440Y-111325000D01*
X168847440Y-110075000D01*
X168800463Y-109832877D01*
X168660673Y-109620073D01*
X168634911Y-109602683D01*
X168635162Y-109314833D01*
X168493117Y-108971057D01*
X168230327Y-108707808D01*
X167886799Y-108565162D01*
X167514833Y-108564838D01*
X167171057Y-108706883D01*
X166907808Y-108969673D01*
X166765162Y-109313201D01*
X166764911Y-109601295D01*
X166745073Y-109614327D01*
X166700386Y-109680529D01*
X166660673Y-109620073D01*
X166449640Y-109477623D01*
X166200000Y-109427560D01*
X165200000Y-109427560D01*
X164957877Y-109474537D01*
X164745073Y-109614327D01*
X164602623Y-109825360D01*
X164552560Y-110075000D01*
X164552560Y-111325000D01*
X164599537Y-111567123D01*
X164650497Y-111644701D01*
X164395198Y-111900000D01*
X159563383Y-111900000D01*
X159597377Y-111849640D01*
X159647440Y-111600000D01*
X159647440Y-110000000D01*
X159600463Y-109757877D01*
X159460673Y-109545073D01*
X159434890Y-109527669D01*
X159435162Y-109214833D01*
X159293117Y-108871057D01*
X159030327Y-108607808D01*
X158686799Y-108465162D01*
X158314833Y-108464838D01*
X157971057Y-108606883D01*
X157707808Y-108869673D01*
X157565162Y-109213201D01*
X157564889Y-109526310D01*
X157545073Y-109539327D01*
X157402623Y-109750360D01*
X157352560Y-110000000D01*
X157352560Y-111600000D01*
X157399537Y-111842123D01*
X157437556Y-111900000D01*
X156563055Y-111900000D01*
X156635000Y-111726310D01*
X156635000Y-111085750D01*
X156476250Y-110927000D01*
X155627000Y-110927000D01*
X155627000Y-110947000D01*
X155373000Y-110947000D01*
X155373000Y-110927000D01*
X154523750Y-110927000D01*
X154365000Y-111085750D01*
X154365000Y-111726310D01*
X154436945Y-111900000D01*
X151860000Y-111900000D01*
X151860000Y-110776098D01*
X151992123Y-110750463D01*
X152204927Y-110610673D01*
X152347377Y-110399640D01*
X152397440Y-110150000D01*
X152397440Y-109873690D01*
X154365000Y-109873690D01*
X154365000Y-110514250D01*
X154523750Y-110673000D01*
X155373000Y-110673000D01*
X155373000Y-109523750D01*
X155627000Y-109523750D01*
X155627000Y-110673000D01*
X156476250Y-110673000D01*
X156635000Y-110514250D01*
X156635000Y-109873690D01*
X156538327Y-109640301D01*
X156359698Y-109461673D01*
X156126309Y-109365000D01*
X155785750Y-109365000D01*
X155627000Y-109523750D01*
X155373000Y-109523750D01*
X155373000Y-109523750D01*
X155214250Y-109365000D01*
X154873691Y-109365000D01*
X154640302Y-109461673D01*
X154461673Y-109640301D01*
X154365000Y-109873690D01*
X152397440Y-109873690D01*
X152397440Y-109450000D01*
X152350463Y-109207877D01*
X152210673Y-108995073D01*
X151999640Y-108852623D01*
X151969208Y-108846520D01*
X152109699Y-108788327D01*
X152288327Y-108609698D01*
X152385000Y-108376309D01*
X152385000Y-108185750D01*
X152226250Y-108027000D01*
X151227000Y-108027000D01*
X151227000Y-108047000D01*
X150973000Y-108047000D01*
X150973000Y-108027000D01*
X149973750Y-108027000D01*
X149815000Y-108185750D01*
X149815000Y-108376309D01*
X149911673Y-108609698D01*
X150090301Y-108788327D01*
X150228442Y-108845547D01*
X150207877Y-108849537D01*
X149995073Y-108989327D01*
X149852623Y-109200360D01*
X149802560Y-109450000D01*
X149802560Y-110150000D01*
X149849537Y-110392123D01*
X149989327Y-110604927D01*
X150200360Y-110747377D01*
X150340000Y-110775381D01*
X150340000Y-111900000D01*
X148944802Y-111900000D01*
X148841625Y-111796823D01*
X148897000Y-111518432D01*
X148897000Y-110979408D01*
X148790660Y-110444799D01*
X148487828Y-109991580D01*
X148096347Y-109730000D01*
X148487828Y-109468420D01*
X148790660Y-109015201D01*
X148897000Y-108480592D01*
X148897000Y-107941568D01*
X148793989Y-107423691D01*
X149815000Y-107423691D01*
X149815000Y-107614250D01*
X149973750Y-107773000D01*
X150973000Y-107773000D01*
X150973000Y-107073750D01*
X151227000Y-107073750D01*
X151227000Y-107773000D01*
X152226250Y-107773000D01*
X152263500Y-107735750D01*
X153640000Y-107735750D01*
X153640000Y-108076309D01*
X153736673Y-108309698D01*
X153915301Y-108488327D01*
X154148690Y-108585000D01*
X154614250Y-108585000D01*
X154773000Y-108426250D01*
X154773000Y-107577000D01*
X155027000Y-107577000D01*
X155027000Y-108426250D01*
X155185750Y-108585000D01*
X155651310Y-108585000D01*
X155884699Y-108488327D01*
X156063327Y-108309698D01*
X156160000Y-108076309D01*
X156160000Y-107735750D01*
X156001250Y-107577000D01*
X155027000Y-107577000D01*
X154773000Y-107577000D01*
X154773000Y-107577000D01*
X153798750Y-107577000D01*
X153640000Y-107735750D01*
X152263500Y-107735750D01*
X152385000Y-107614250D01*
X152385000Y-107423691D01*
X152288327Y-107190302D01*
X152109699Y-107011673D01*
X151876310Y-106915000D01*
X151385750Y-106915000D01*
X151227000Y-107073750D01*
X150973000Y-107073750D01*
X150973000Y-107073750D01*
X150814250Y-106915000D01*
X150323690Y-106915000D01*
X150090301Y-107011673D01*
X149911673Y-107190302D01*
X149815000Y-107423691D01*
X148793989Y-107423691D01*
X148790660Y-107406959D01*
X148487828Y-106953740D01*
X148034609Y-106650908D01*
X147500000Y-106544568D01*
X146965391Y-106650908D01*
X146512172Y-106953740D01*
X146230000Y-107376039D01*
X145947828Y-106953740D01*
X145494609Y-106650908D01*
X144960000Y-106544568D01*
X144425391Y-106650908D01*
X143972172Y-106953740D01*
X143686226Y-107381688D01*
X143673135Y-107335253D01*
X143333465Y-106904290D01*
X142854728Y-106636118D01*
X142763070Y-106619370D01*
X142547000Y-106741870D01*
X142547000Y-108084080D01*
X142567000Y-108084080D01*
X142567000Y-108338080D01*
X142547000Y-108338080D01*
X142547000Y-108358080D01*
X142293000Y-108358080D01*
X142293000Y-108338080D01*
X142273000Y-108338080D01*
X142273000Y-108084080D01*
X142293000Y-108084080D01*
X142293000Y-106741870D01*
X142076930Y-106619370D01*
X141985272Y-106636118D01*
X141716000Y-106786955D01*
X141716000Y-105226200D01*
X141658148Y-104935361D01*
X141493401Y-104688799D01*
X139302042Y-102497440D01*
X139350000Y-102497440D01*
X139451652Y-102477717D01*
X139550000Y-102497440D01*
X140150000Y-102497440D01*
X140251652Y-102477717D01*
X140350000Y-102497440D01*
X140554926Y-102497440D01*
X140515162Y-102593201D01*
X140514838Y-102965167D01*
X140656883Y-103308943D01*
X140919673Y-103572192D01*
X141263201Y-103714838D01*
X141635167Y-103715162D01*
X141978943Y-103573117D01*
X142242192Y-103310327D01*
X142384838Y-102966799D01*
X142385162Y-102594833D01*
X142339780Y-102485000D01*
X142377002Y-102485000D01*
X142377002Y-102364109D01*
X142493489Y-102442739D01*
X142535750Y-102485000D01*
X142676310Y-102485000D01*
X142680113Y-102483425D01*
X142750000Y-102497440D01*
X143350000Y-102497440D01*
X143451652Y-102477717D01*
X143550000Y-102497440D01*
X144150000Y-102497440D01*
X144251652Y-102477717D01*
X144350000Y-102497440D01*
X144950000Y-102497440D01*
X145051652Y-102477717D01*
X145150000Y-102497440D01*
X145494464Y-102497440D01*
X145547852Y-102765839D01*
X145712599Y-103012401D01*
X148087599Y-105387401D01*
X148334160Y-105552148D01*
X148625000Y-105610000D01*
X150987537Y-105610000D01*
X151019673Y-105642192D01*
X151363201Y-105784838D01*
X151735167Y-105785162D01*
X152078943Y-105643117D01*
X152342192Y-105380327D01*
X152484838Y-105036799D01*
X152485162Y-104664833D01*
X152483165Y-104660000D01*
X153017935Y-104660000D01*
X152757808Y-104919673D01*
X152615162Y-105263201D01*
X152614838Y-105635167D01*
X152756883Y-105978943D01*
X153019673Y-106242192D01*
X153363201Y-106384838D01*
X153735167Y-106385162D01*
X153787216Y-106363656D01*
X153814327Y-106404927D01*
X153878637Y-106448337D01*
X153736673Y-106590302D01*
X153640000Y-106823691D01*
X153640000Y-107164250D01*
X153798750Y-107323000D01*
X154773000Y-107323000D01*
X154773000Y-107303000D01*
X155027000Y-107303000D01*
X155027000Y-107323000D01*
X156001250Y-107323000D01*
X156160000Y-107164250D01*
X156160000Y-106823691D01*
X156063327Y-106590302D01*
X155921850Y-106448824D01*
X155979927Y-106410673D01*
X156122377Y-106199640D01*
X156172440Y-105950000D01*
X156172440Y-104950000D01*
X156125463Y-104707877D01*
X156094013Y-104660000D01*
X156860198Y-104660000D01*
X158762599Y-106562401D01*
X158765118Y-106564084D01*
X158764838Y-106885167D01*
X158906883Y-107228943D01*
X159169673Y-107492192D01*
X159513201Y-107634838D01*
X159885167Y-107635162D01*
X160070029Y-107558779D01*
X160075360Y-107562377D01*
X160325000Y-107612440D01*
X162275000Y-107612440D01*
X162517123Y-107565463D01*
X162729927Y-107425673D01*
X162872377Y-107214640D01*
X162900350Y-107075152D01*
X163027599Y-107202401D01*
X163274161Y-107367148D01*
X163565000Y-107425000D01*
X169271842Y-107425000D01*
X169475360Y-107562377D01*
X169725000Y-107612440D01*
X171675000Y-107612440D01*
X171917123Y-107565463D01*
X172129927Y-107425673D01*
X172272377Y-107214640D01*
X172322440Y-106965000D01*
X172322440Y-106365000D01*
X172275463Y-106122877D01*
X172214603Y-106030229D01*
X172272377Y-105944640D01*
X172322440Y-105695000D01*
X172322440Y-105095000D01*
X172297410Y-104965995D01*
X172463201Y-105034838D01*
X172835167Y-105035162D01*
X173178943Y-104893117D01*
X173442192Y-104630327D01*
X173584838Y-104286799D01*
X173585162Y-103914833D01*
X173443117Y-103571057D01*
X173180327Y-103307808D01*
X172836799Y-103165162D01*
X172464833Y-103164838D01*
X172307424Y-103229878D01*
X172322440Y-103155000D01*
X172322440Y-102555000D01*
X172275463Y-102312877D01*
X172214603Y-102220229D01*
X172272377Y-102134640D01*
X172322440Y-101885000D01*
X172322440Y-101285000D01*
X172275463Y-101042877D01*
X172214603Y-100950229D01*
X172272377Y-100864640D01*
X172322440Y-100615000D01*
X172322440Y-100015000D01*
X172316597Y-99984885D01*
X172635167Y-99985162D01*
X172978943Y-99843117D01*
X173242192Y-99580327D01*
X173384838Y-99236799D01*
X173385162Y-98864833D01*
X173245431Y-98526658D01*
X173492192Y-98280327D01*
X173634838Y-97936799D01*
X173635162Y-97564833D01*
X173511274Y-97265000D01*
X173640198Y-97265000D01*
X176312599Y-99937401D01*
X176559160Y-100102148D01*
X176850000Y-100160000D01*
X177621510Y-100160000D01*
X177773740Y-100387828D01*
X178196039Y-100670000D01*
X177773740Y-100952172D01*
X177470908Y-101405391D01*
X177364568Y-101940000D01*
X177470908Y-102474609D01*
X177773740Y-102927828D01*
X178196039Y-103210000D01*
X177773740Y-103492172D01*
X177470908Y-103945391D01*
X177364568Y-104480000D01*
X177470908Y-105014609D01*
X177773740Y-105467828D01*
X178196039Y-105750000D01*
X177773740Y-106032172D01*
X177470908Y-106485391D01*
X177364568Y-107020000D01*
X177470908Y-107554609D01*
X177773740Y-108007828D01*
X178226959Y-108310660D01*
X178761568Y-108417000D01*
X179300592Y-108417000D01*
X179835201Y-108310660D01*
X180288420Y-108007828D01*
X180550000Y-107616347D01*
X180811580Y-108007828D01*
X181264799Y-108310660D01*
X181799408Y-108417000D01*
X182338432Y-108417000D01*
X182873041Y-108310660D01*
X183326260Y-108007828D01*
X183629092Y-107554609D01*
X183690000Y-107248403D01*
X183690000Y-114490000D01*
X112110000Y-114490000D01*
X112110000Y-112432325D01*
X112114587Y-112432325D01*
X112476916Y-113309229D01*
X113147242Y-113980726D01*
X114023513Y-114344585D01*
X114972325Y-114345413D01*
X115849229Y-113983084D01*
X116520726Y-113312758D01*
X116884585Y-112436487D01*
X116885413Y-111487675D01*
X116753223Y-111167750D01*
X125669000Y-111167750D01*
X125669000Y-111358309D01*
X125765673Y-111591698D01*
X125944301Y-111770327D01*
X126177690Y-111867000D01*
X126668250Y-111867000D01*
X126827000Y-111708250D01*
X126827000Y-111009000D01*
X127081000Y-111009000D01*
X127081000Y-111708250D01*
X127239750Y-111867000D01*
X127730310Y-111867000D01*
X127963699Y-111770327D01*
X128004000Y-111730026D01*
X128044301Y-111770327D01*
X128277690Y-111867000D01*
X128768250Y-111867000D01*
X128927000Y-111708250D01*
X128927000Y-111009000D01*
X129181000Y-111009000D01*
X129181000Y-111708250D01*
X129339750Y-111867000D01*
X129830310Y-111867000D01*
X130063699Y-111770327D01*
X130118000Y-111716026D01*
X130190301Y-111788327D01*
X130423690Y-111885000D01*
X130914250Y-111885000D01*
X131073000Y-111726250D01*
X131073000Y-111027000D01*
X131327000Y-111027000D01*
X131327000Y-111726250D01*
X131485750Y-111885000D01*
X131976310Y-111885000D01*
X132209699Y-111788327D01*
X132388327Y-111609698D01*
X132485000Y-111376309D01*
X132485000Y-111335750D01*
X134515000Y-111335750D01*
X134515000Y-111526309D01*
X134611673Y-111759698D01*
X134790301Y-111938327D01*
X135023690Y-112035000D01*
X135514250Y-112035000D01*
X135673000Y-111876250D01*
X135673000Y-111177000D01*
X134673750Y-111177000D01*
X134515000Y-111335750D01*
X132485000Y-111335750D01*
X132485000Y-111185750D01*
X132326250Y-111027000D01*
X131327000Y-111027000D01*
X131073000Y-111027000D01*
X131073000Y-111027000D01*
X130198250Y-111027000D01*
X130180250Y-111009000D01*
X129181000Y-111009000D01*
X128927000Y-111009000D01*
X128927000Y-111009000D01*
X127081000Y-111009000D01*
X126827000Y-111009000D01*
X126827000Y-111009000D01*
X125827750Y-111009000D01*
X125669000Y-111167750D01*
X116753223Y-111167750D01*
X116523084Y-110610771D01*
X115852758Y-109939274D01*
X114976487Y-109575415D01*
X114027675Y-109574587D01*
X113150771Y-109936916D01*
X112479274Y-110607242D01*
X112115415Y-111483513D01*
X112114587Y-112432325D01*
X112110000Y-112432325D01*
X112110000Y-107999900D01*
X116353050Y-107999900D01*
X116353050Y-109600100D01*
X116400027Y-109842223D01*
X116539817Y-110055027D01*
X116750850Y-110197477D01*
X117000490Y-110247540D01*
X120000230Y-110247540D01*
X120242353Y-110200563D01*
X120455157Y-110060773D01*
X120597607Y-109849740D01*
X120647670Y-109600100D01*
X120647670Y-109085750D01*
X120764770Y-109085750D01*
X120764770Y-109726410D01*
X120861443Y-109959799D01*
X121040072Y-110138427D01*
X121273461Y-110235100D01*
X122613890Y-110235100D01*
X122772640Y-110076350D01*
X122772640Y-108927000D01*
X123026640Y-108927000D01*
X123026640Y-110076350D01*
X123185390Y-110235100D01*
X124525819Y-110235100D01*
X124759208Y-110138427D01*
X124937837Y-109959799D01*
X125034510Y-109726410D01*
X125034510Y-109085750D01*
X124875760Y-108927000D01*
X123026640Y-108927000D01*
X122772640Y-108927000D01*
X122772640Y-108927000D01*
X120923520Y-108927000D01*
X120764770Y-109085750D01*
X120647670Y-109085750D01*
X120647670Y-107999900D01*
X120623164Y-107873590D01*
X120764770Y-107873590D01*
X120764770Y-108514250D01*
X120923520Y-108673000D01*
X122772640Y-108673000D01*
X122772640Y-107523650D01*
X123026640Y-107523650D01*
X123026640Y-108673000D01*
X124875760Y-108673000D01*
X125034510Y-108514250D01*
X125034510Y-107873590D01*
X124937837Y-107640201D01*
X124759208Y-107461573D01*
X124525819Y-107364900D01*
X123185390Y-107364900D01*
X123026640Y-107523650D01*
X122772640Y-107523650D01*
X122772640Y-107523650D01*
X122613890Y-107364900D01*
X121273461Y-107364900D01*
X121040072Y-107461573D01*
X120861443Y-107640201D01*
X120764770Y-107873590D01*
X120623164Y-107873590D01*
X120600693Y-107757777D01*
X120460903Y-107544973D01*
X120249870Y-107402523D01*
X120000230Y-107352460D01*
X119384868Y-107352460D01*
X119385162Y-107014833D01*
X119243117Y-106671057D01*
X118980327Y-106407808D01*
X118636799Y-106265162D01*
X118264833Y-106264838D01*
X117921057Y-106406883D01*
X117657808Y-106669673D01*
X117515162Y-107013201D01*
X117514866Y-107352460D01*
X117000490Y-107352460D01*
X116758367Y-107399437D01*
X116545563Y-107539227D01*
X116403113Y-107750260D01*
X116353050Y-107999900D01*
X112110000Y-107999900D01*
X112110000Y-74910000D01*
X127691410Y-74910000D01*
X127417160Y-74964552D01*
G36*
X163661673Y-75915301D02*
X163565000Y-76148690D01*
X163565000Y-76614250D01*
X163723750Y-76773000D01*
X164573000Y-76773000D01*
X164573000Y-76753000D01*
X164827000Y-76753000D01*
X164827000Y-76773000D01*
X164847000Y-76773000D01*
X164847000Y-77027000D01*
X164827000Y-77027000D01*
X164827000Y-78001250D01*
X164985750Y-78160000D01*
X165326309Y-78160000D01*
X165559698Y-78063327D01*
X165701176Y-77921850D01*
X165739327Y-77979927D01*
X165950360Y-78122377D01*
X166200000Y-78172440D01*
X167200000Y-78172440D01*
X167442123Y-78125463D01*
X167654927Y-77985673D01*
X167756688Y-77834919D01*
X168035167Y-77835162D01*
X168378943Y-77693117D01*
X168642192Y-77430327D01*
X168784838Y-77086799D01*
X168785162Y-76714833D01*
X168643117Y-76371057D01*
X168380327Y-76107808D01*
X168036799Y-75965162D01*
X167755821Y-75964917D01*
X167670478Y-75835000D01*
X171971869Y-75835000D01*
X171769274Y-76037242D01*
X171405415Y-76913513D01*
X171404587Y-77862325D01*
X171766916Y-78739229D01*
X172437242Y-79410726D01*
X173313513Y-79774585D01*
X174262325Y-79775413D01*
X175139229Y-79413084D01*
X175810726Y-78742758D01*
X176174585Y-77866487D01*
X176175413Y-76917675D01*
X175813084Y-76040771D01*
X175607672Y-75835000D01*
X177110198Y-75835000D01*
X177952560Y-76677362D01*
X177952560Y-77275000D01*
X177999537Y-77517123D01*
X178100329Y-77670560D01*
X178031590Y-77670560D01*
X177789467Y-77717537D01*
X177576663Y-77857327D01*
X177434213Y-78068360D01*
X177384150Y-78318000D01*
X177384150Y-78320000D01*
X176630000Y-78320000D01*
X176339161Y-78377852D01*
X176092599Y-78542599D01*
X173890198Y-80745000D01*
X172125334Y-80745000D01*
X172160000Y-80661310D01*
X172160000Y-80520750D01*
X172001250Y-80362000D01*
X170677000Y-80362000D01*
X170677000Y-80382000D01*
X170423000Y-80382000D01*
X170423000Y-80362000D01*
X169098750Y-80362000D01*
X168940000Y-80520750D01*
X168940000Y-80661310D01*
X169029789Y-80878079D01*
X168977623Y-80955360D01*
X168927560Y-81205000D01*
X168927560Y-81805000D01*
X168974537Y-82047123D01*
X169035397Y-82139771D01*
X168977623Y-82225360D01*
X168927560Y-82475000D01*
X168927560Y-83075000D01*
X168974537Y-83317123D01*
X169035397Y-83409771D01*
X168977623Y-83495360D01*
X168927560Y-83745000D01*
X168927560Y-84345000D01*
X168974537Y-84587123D01*
X169035397Y-84679771D01*
X168977623Y-84765360D01*
X168927560Y-85015000D01*
X168927560Y-85615000D01*
X168971898Y-85843519D01*
X168774160Y-85882852D01*
X168527599Y-86047599D01*
X168062599Y-86512599D01*
X167897852Y-86759161D01*
X167840000Y-87050000D01*
X167840000Y-87950000D01*
X167897852Y-88240839D01*
X168062599Y-88487401D01*
X168275198Y-88700000D01*
X168012599Y-88962599D01*
X167847852Y-89209161D01*
X167790000Y-89500000D01*
X167790000Y-90689838D01*
X167789833Y-90689838D01*
X167446057Y-90831883D01*
X167182808Y-91094673D01*
X167040162Y-91438201D01*
X167039838Y-91810167D01*
X167181883Y-92153943D01*
X167444673Y-92417192D01*
X167788201Y-92559838D01*
X168160167Y-92560162D01*
X168487285Y-92425000D01*
X169121842Y-92425000D01*
X169325360Y-92562377D01*
X169575000Y-92612440D01*
X171525000Y-92612440D01*
X171767123Y-92565463D01*
X171979927Y-92425673D01*
X172026652Y-92356452D01*
X177067601Y-97397401D01*
X177314162Y-97562148D01*
X177605002Y-97620000D01*
X177621510Y-97620000D01*
X177773740Y-97847828D01*
X178196039Y-98130000D01*
X177773740Y-98412172D01*
X177621510Y-98640000D01*
X177164802Y-98640000D01*
X174492401Y-95967599D01*
X174245839Y-95802852D01*
X173955000Y-95745000D01*
X172275334Y-95745000D01*
X172310000Y-95661310D01*
X172310000Y-95520750D01*
X172151250Y-95362000D01*
X170827000Y-95362000D01*
X170827000Y-95382000D01*
X170573000Y-95382000D01*
X170573000Y-95362000D01*
X169248750Y-95362000D01*
X169090000Y-95520750D01*
X169090000Y-95661310D01*
X169179789Y-95878079D01*
X169127623Y-95955360D01*
X169077560Y-96205000D01*
X169077560Y-96805000D01*
X169124537Y-97047123D01*
X169185397Y-97139771D01*
X169127623Y-97225360D01*
X169077560Y-97475000D01*
X169077560Y-98075000D01*
X169124537Y-98317123D01*
X169185397Y-98409771D01*
X169127623Y-98495360D01*
X169077560Y-98745000D01*
X169077560Y-99345000D01*
X169089768Y-99407918D01*
X168986799Y-99365162D01*
X168614833Y-99364838D01*
X168271057Y-99506883D01*
X168007808Y-99769673D01*
X167865162Y-100113201D01*
X167864838Y-100485167D01*
X167942832Y-100673928D01*
X167621057Y-100806883D01*
X167357808Y-101069673D01*
X167215162Y-101413201D01*
X167214838Y-101785167D01*
X167314707Y-102026869D01*
X167121057Y-102106883D01*
X166857808Y-102369673D01*
X166715162Y-102713201D01*
X166714838Y-103085167D01*
X166856883Y-103428943D01*
X167119673Y-103692192D01*
X167463201Y-103834838D01*
X167835167Y-103835162D01*
X168178943Y-103693117D01*
X168257196Y-103615000D01*
X169119674Y-103615000D01*
X169077560Y-103825000D01*
X169077560Y-104425000D01*
X169118304Y-104635000D01*
X167382254Y-104635000D01*
X167230327Y-104482808D01*
X166886799Y-104340162D01*
X166514833Y-104339838D01*
X166171057Y-104481883D01*
X165907808Y-104744673D01*
X165765162Y-105088201D01*
X165764838Y-105460167D01*
X165906883Y-105803943D01*
X166007764Y-105905000D01*
X163879802Y-105905000D01*
X163462401Y-105487599D01*
X163215839Y-105322852D01*
X162925000Y-105265000D01*
X162922440Y-105265000D01*
X162922440Y-105095000D01*
X162875463Y-104852877D01*
X162814603Y-104760229D01*
X162872377Y-104674640D01*
X162922440Y-104425000D01*
X162922440Y-103825000D01*
X162875463Y-103582877D01*
X162814603Y-103490229D01*
X162872377Y-103404640D01*
X162922440Y-103155000D01*
X162922440Y-102555000D01*
X162875463Y-102312877D01*
X162814603Y-102220229D01*
X162872377Y-102134640D01*
X162922440Y-101885000D01*
X162922440Y-101285000D01*
X162875463Y-101042877D01*
X162814603Y-100950229D01*
X162872377Y-100864640D01*
X162922440Y-100615000D01*
X162922440Y-100015000D01*
X162875463Y-99772877D01*
X162814603Y-99680229D01*
X162872377Y-99594640D01*
X162922440Y-99345000D01*
X162922440Y-98745000D01*
X162875463Y-98502877D01*
X162814603Y-98410229D01*
X162872377Y-98324640D01*
X162922440Y-98075000D01*
X162922440Y-97475000D01*
X162875463Y-97232877D01*
X162814603Y-97140229D01*
X162872377Y-97054640D01*
X162922440Y-96805000D01*
X162922440Y-96205000D01*
X162875463Y-95962877D01*
X162827228Y-95889448D01*
X163002401Y-95772401D01*
X163937401Y-94837401D01*
X163956585Y-94808690D01*
X169090000Y-94808690D01*
X169090000Y-94949250D01*
X169248750Y-95108000D01*
X170573000Y-95108000D01*
X170573000Y-94458750D01*
X170827000Y-94458750D01*
X170827000Y-95108000D01*
X172151250Y-95108000D01*
X172310000Y-94949250D01*
X172310000Y-94808690D01*
X172213327Y-94575301D01*
X172034698Y-94396673D01*
X171801309Y-94300000D01*
X170985750Y-94300000D01*
X170827000Y-94458750D01*
X170573000Y-94458750D01*
X170573000Y-94458750D01*
X170414250Y-94300000D01*
X169598691Y-94300000D01*
X169365302Y-94396673D01*
X169186673Y-94575301D01*
X169090000Y-94808690D01*
X163956585Y-94808690D01*
X164102148Y-94590839D01*
X164160000Y-94300000D01*
X164160000Y-81100000D01*
X164102148Y-80809161D01*
X163937401Y-80562599D01*
X163183492Y-79808690D01*
X168940000Y-79808690D01*
X168940000Y-79949250D01*
X169098750Y-80108000D01*
X170423000Y-80108000D01*
X170423000Y-79458750D01*
X170677000Y-79458750D01*
X170677000Y-80108000D01*
X172001250Y-80108000D01*
X172160000Y-79949250D01*
X172160000Y-79808690D01*
X172063327Y-79575301D01*
X171884698Y-79396673D01*
X171651309Y-79300000D01*
X170835750Y-79300000D01*
X170677000Y-79458750D01*
X170423000Y-79458750D01*
X170423000Y-79458750D01*
X170264250Y-79300000D01*
X169448691Y-79300000D01*
X169215302Y-79396673D01*
X169036673Y-79575301D01*
X168940000Y-79808690D01*
X163183492Y-79808690D01*
X163072401Y-79697599D01*
X162825839Y-79532852D01*
X162589456Y-79485832D01*
X162585673Y-79480073D01*
X162374640Y-79337623D01*
X162125000Y-79287560D01*
X160175000Y-79287560D01*
X159932877Y-79334537D01*
X159720073Y-79474327D01*
X159577623Y-79685360D01*
X159527560Y-79935000D01*
X159527560Y-80535000D01*
X159574537Y-80777123D01*
X159587673Y-80797121D01*
X159558861Y-80802852D01*
X159312299Y-80967599D01*
X158720498Y-81559400D01*
X154560836Y-81559400D01*
X154906416Y-81490660D01*
X155359635Y-81187828D01*
X155662467Y-80734609D01*
X155768807Y-80200000D01*
X155662467Y-79665391D01*
X155359635Y-79212172D01*
X155135625Y-79062493D01*
X155341943Y-79022463D01*
X155554747Y-78882673D01*
X155697197Y-78671640D01*
X155747260Y-78422000D01*
X155747260Y-77185750D01*
X163565000Y-77185750D01*
X163565000Y-77651310D01*
X163661673Y-77884699D01*
X163840302Y-78063327D01*
X164073691Y-78160000D01*
X164414250Y-78160000D01*
X164573000Y-78001250D01*
X164573000Y-77027000D01*
X163723750Y-77027000D01*
X163565000Y-77185750D01*
X155747260Y-77185750D01*
X155747260Y-76898000D01*
X155700283Y-76655877D01*
X155560493Y-76443073D01*
X155349460Y-76300623D01*
X155099820Y-76250560D01*
X152900180Y-76250560D01*
X152658057Y-76297537D01*
X152445253Y-76437327D01*
X152302803Y-76648360D01*
X152296792Y-76678334D01*
X152270660Y-76546959D01*
X151967828Y-76093740D01*
X151580597Y-75835000D01*
X163741974Y-75835000D01*
X163661673Y-75915301D01*
X163661673Y-75915301D01*
G37*
X163661673Y-75915301D02*
X163565000Y-76148690D01*
X163565000Y-76614250D01*
X163723750Y-76773000D01*
X164573000Y-76773000D01*
X164573000Y-76753000D01*
X164827000Y-76753000D01*
X164827000Y-76773000D01*
X164847000Y-76773000D01*
X164847000Y-77027000D01*
X164827000Y-77027000D01*
X164827000Y-78001250D01*
X164985750Y-78160000D01*
X165326309Y-78160000D01*
X165559698Y-78063327D01*
X165701176Y-77921850D01*
X165739327Y-77979927D01*
X165950360Y-78122377D01*
X166200000Y-78172440D01*
X167200000Y-78172440D01*
X167442123Y-78125463D01*
X167654927Y-77985673D01*
X167756688Y-77834919D01*
X168035167Y-77835162D01*
X168378943Y-77693117D01*
X168642192Y-77430327D01*
X168784838Y-77086799D01*
X168785162Y-76714833D01*
X168643117Y-76371057D01*
X168380327Y-76107808D01*
X168036799Y-75965162D01*
X167755821Y-75964917D01*
X167670478Y-75835000D01*
X171971869Y-75835000D01*
X171769274Y-76037242D01*
X171405415Y-76913513D01*
X171404587Y-77862325D01*
X171766916Y-78739229D01*
X172437242Y-79410726D01*
X173313513Y-79774585D01*
X174262325Y-79775413D01*
X175139229Y-79413084D01*
X175810726Y-78742758D01*
X176174585Y-77866487D01*
X176175413Y-76917675D01*
X175813084Y-76040771D01*
X175607672Y-75835000D01*
X177110198Y-75835000D01*
X177952560Y-76677362D01*
X177952560Y-77275000D01*
X177999537Y-77517123D01*
X178100329Y-77670560D01*
X178031590Y-77670560D01*
X177789467Y-77717537D01*
X177576663Y-77857327D01*
X177434213Y-78068360D01*
X177384150Y-78318000D01*
X177384150Y-78320000D01*
X176630000Y-78320000D01*
X176339161Y-78377852D01*
X176092599Y-78542599D01*
X173890198Y-80745000D01*
X172125334Y-80745000D01*
X172160000Y-80661310D01*
X172160000Y-80520750D01*
X172001250Y-80362000D01*
X170677000Y-80362000D01*
X170677000Y-80382000D01*
X170423000Y-80382000D01*
X170423000Y-80362000D01*
X169098750Y-80362000D01*
X168940000Y-80520750D01*
X168940000Y-80661310D01*
X169029789Y-80878079D01*
X168977623Y-80955360D01*
X168927560Y-81205000D01*
X168927560Y-81805000D01*
X168974537Y-82047123D01*
X169035397Y-82139771D01*
X168977623Y-82225360D01*
X168927560Y-82475000D01*
X168927560Y-83075000D01*
X168974537Y-83317123D01*
X169035397Y-83409771D01*
X168977623Y-83495360D01*
X168927560Y-83745000D01*
X168927560Y-84345000D01*
X168974537Y-84587123D01*
X169035397Y-84679771D01*
X168977623Y-84765360D01*
X168927560Y-85015000D01*
X168927560Y-85615000D01*
X168971898Y-85843519D01*
X168774160Y-85882852D01*
X168527599Y-86047599D01*
X168062599Y-86512599D01*
X167897852Y-86759161D01*
X167840000Y-87050000D01*
X167840000Y-87950000D01*
X167897852Y-88240839D01*
X168062599Y-88487401D01*
X168275198Y-88700000D01*
X168012599Y-88962599D01*
X167847852Y-89209161D01*
X167790000Y-89500000D01*
X167790000Y-90689838D01*
X167789833Y-90689838D01*
X167446057Y-90831883D01*
X167182808Y-91094673D01*
X167040162Y-91438201D01*
X167039838Y-91810167D01*
X167181883Y-92153943D01*
X167444673Y-92417192D01*
X167788201Y-92559838D01*
X168160167Y-92560162D01*
X168487285Y-92425000D01*
X169121842Y-92425000D01*
X169325360Y-92562377D01*
X169575000Y-92612440D01*
X171525000Y-92612440D01*
X171767123Y-92565463D01*
X171979927Y-92425673D01*
X172026652Y-92356452D01*
X177067601Y-97397401D01*
X177314162Y-97562148D01*
X177605002Y-97620000D01*
X177621510Y-97620000D01*
X177773740Y-97847828D01*
X178196039Y-98130000D01*
X177773740Y-98412172D01*
X177621510Y-98640000D01*
X177164802Y-98640000D01*
X174492401Y-95967599D01*
X174245839Y-95802852D01*
X173955000Y-95745000D01*
X172275334Y-95745000D01*
X172310000Y-95661310D01*
X172310000Y-95520750D01*
X172151250Y-95362000D01*
X170827000Y-95362000D01*
X170827000Y-95382000D01*
X170573000Y-95382000D01*
X170573000Y-95362000D01*
X169248750Y-95362000D01*
X169090000Y-95520750D01*
X169090000Y-95661310D01*
X169179789Y-95878079D01*
X169127623Y-95955360D01*
X169077560Y-96205000D01*
X169077560Y-96805000D01*
X169124537Y-97047123D01*
X169185397Y-97139771D01*
X169127623Y-97225360D01*
X169077560Y-97475000D01*
X169077560Y-98075000D01*
X169124537Y-98317123D01*
X169185397Y-98409771D01*
X169127623Y-98495360D01*
X169077560Y-98745000D01*
X169077560Y-99345000D01*
X169089768Y-99407918D01*
X168986799Y-99365162D01*
X168614833Y-99364838D01*
X168271057Y-99506883D01*
X168007808Y-99769673D01*
X167865162Y-100113201D01*
X167864838Y-100485167D01*
X167942832Y-100673928D01*
X167621057Y-100806883D01*
X167357808Y-101069673D01*
X167215162Y-101413201D01*
X167214838Y-101785167D01*
X167314707Y-102026869D01*
X167121057Y-102106883D01*
X166857808Y-102369673D01*
X166715162Y-102713201D01*
X166714838Y-103085167D01*
X166856883Y-103428943D01*
X167119673Y-103692192D01*
X167463201Y-103834838D01*
X167835167Y-103835162D01*
X168178943Y-103693117D01*
X168257196Y-103615000D01*
X169119674Y-103615000D01*
X169077560Y-103825000D01*
X169077560Y-104425000D01*
X169118304Y-104635000D01*
X167382254Y-104635000D01*
X167230327Y-104482808D01*
X166886799Y-104340162D01*
X166514833Y-104339838D01*
X166171057Y-104481883D01*
X165907808Y-104744673D01*
X165765162Y-105088201D01*
X165764838Y-105460167D01*
X165906883Y-105803943D01*
X166007764Y-105905000D01*
X163879802Y-105905000D01*
X163462401Y-105487599D01*
X163215839Y-105322852D01*
X162925000Y-105265000D01*
X162922440Y-105265000D01*
X162922440Y-105095000D01*
X162875463Y-104852877D01*
X162814603Y-104760229D01*
X162872377Y-104674640D01*
X162922440Y-104425000D01*
X162922440Y-103825000D01*
X162875463Y-103582877D01*
X162814603Y-103490229D01*
X162872377Y-103404640D01*
X162922440Y-103155000D01*
X162922440Y-102555000D01*
X162875463Y-102312877D01*
X162814603Y-102220229D01*
X162872377Y-102134640D01*
X162922440Y-101885000D01*
X162922440Y-101285000D01*
X162875463Y-101042877D01*
X162814603Y-100950229D01*
X162872377Y-100864640D01*
X162922440Y-100615000D01*
X162922440Y-100015000D01*
X162875463Y-99772877D01*
X162814603Y-99680229D01*
X162872377Y-99594640D01*
X162922440Y-99345000D01*
X162922440Y-98745000D01*
X162875463Y-98502877D01*
X162814603Y-98410229D01*
X162872377Y-98324640D01*
X162922440Y-98075000D01*
X162922440Y-97475000D01*
X162875463Y-97232877D01*
X162814603Y-97140229D01*
X162872377Y-97054640D01*
X162922440Y-96805000D01*
X162922440Y-96205000D01*
X162875463Y-95962877D01*
X162827228Y-95889448D01*
X163002401Y-95772401D01*
X163937401Y-94837401D01*
X163956585Y-94808690D01*
X169090000Y-94808690D01*
X169090000Y-94949250D01*
X169248750Y-95108000D01*
X170573000Y-95108000D01*
X170573000Y-94458750D01*
X170827000Y-94458750D01*
X170827000Y-95108000D01*
X172151250Y-95108000D01*
X172310000Y-94949250D01*
X172310000Y-94808690D01*
X172213327Y-94575301D01*
X172034698Y-94396673D01*
X171801309Y-94300000D01*
X170985750Y-94300000D01*
X170827000Y-94458750D01*
X170573000Y-94458750D01*
X170573000Y-94458750D01*
X170414250Y-94300000D01*
X169598691Y-94300000D01*
X169365302Y-94396673D01*
X169186673Y-94575301D01*
X169090000Y-94808690D01*
X163956585Y-94808690D01*
X164102148Y-94590839D01*
X164160000Y-94300000D01*
X164160000Y-81100000D01*
X164102148Y-80809161D01*
X163937401Y-80562599D01*
X163183492Y-79808690D01*
X168940000Y-79808690D01*
X168940000Y-79949250D01*
X169098750Y-80108000D01*
X170423000Y-80108000D01*
X170423000Y-79458750D01*
X170677000Y-79458750D01*
X170677000Y-80108000D01*
X172001250Y-80108000D01*
X172160000Y-79949250D01*
X172160000Y-79808690D01*
X172063327Y-79575301D01*
X171884698Y-79396673D01*
X171651309Y-79300000D01*
X170835750Y-79300000D01*
X170677000Y-79458750D01*
X170423000Y-79458750D01*
X170423000Y-79458750D01*
X170264250Y-79300000D01*
X169448691Y-79300000D01*
X169215302Y-79396673D01*
X169036673Y-79575301D01*
X168940000Y-79808690D01*
X163183492Y-79808690D01*
X163072401Y-79697599D01*
X162825839Y-79532852D01*
X162589456Y-79485832D01*
X162585673Y-79480073D01*
X162374640Y-79337623D01*
X162125000Y-79287560D01*
X160175000Y-79287560D01*
X159932877Y-79334537D01*
X159720073Y-79474327D01*
X159577623Y-79685360D01*
X159527560Y-79935000D01*
X159527560Y-80535000D01*
X159574537Y-80777123D01*
X159587673Y-80797121D01*
X159558861Y-80802852D01*
X159312299Y-80967599D01*
X158720498Y-81559400D01*
X154560836Y-81559400D01*
X154906416Y-81490660D01*
X155359635Y-81187828D01*
X155662467Y-80734609D01*
X155768807Y-80200000D01*
X155662467Y-79665391D01*
X155359635Y-79212172D01*
X155135625Y-79062493D01*
X155341943Y-79022463D01*
X155554747Y-78882673D01*
X155697197Y-78671640D01*
X155747260Y-78422000D01*
X155747260Y-77185750D01*
X163565000Y-77185750D01*
X163565000Y-77651310D01*
X163661673Y-77884699D01*
X163840302Y-78063327D01*
X164073691Y-78160000D01*
X164414250Y-78160000D01*
X164573000Y-78001250D01*
X164573000Y-77027000D01*
X163723750Y-77027000D01*
X163565000Y-77185750D01*
X155747260Y-77185750D01*
X155747260Y-76898000D01*
X155700283Y-76655877D01*
X155560493Y-76443073D01*
X155349460Y-76300623D01*
X155099820Y-76250560D01*
X152900180Y-76250560D01*
X152658057Y-76297537D01*
X152445253Y-76437327D01*
X152302803Y-76648360D01*
X152296792Y-76678334D01*
X152270660Y-76546959D01*
X151967828Y-76093740D01*
X151580597Y-75835000D01*
X163741974Y-75835000D01*
X163661673Y-75915301D01*
G36*
X138949537Y-86292123D02*
X139089327Y-86504927D01*
X139114213Y-86521725D01*
X139147852Y-86690839D01*
X139312599Y-86937401D01*
X140137599Y-87762401D01*
X140384160Y-87927148D01*
X140675000Y-87985000D01*
X147150000Y-87985000D01*
X147440839Y-87927148D01*
X147687401Y-87762401D01*
X148387401Y-87062402D01*
X148512057Y-86875839D01*
X148552148Y-86815839D01*
X148610000Y-86525000D01*
X148610000Y-86503158D01*
X148649614Y-86444471D01*
X148689327Y-86504927D01*
X148893489Y-86642739D01*
X148935750Y-86685000D01*
X149076310Y-86685000D01*
X149080113Y-86683425D01*
X149150000Y-86697440D01*
X149750000Y-86697440D01*
X149851652Y-86677717D01*
X149950000Y-86697440D01*
X150550000Y-86697440D01*
X150651652Y-86677717D01*
X150750000Y-86697440D01*
X151350000Y-86697440D01*
X151592123Y-86650463D01*
X151610863Y-86638153D01*
X151602623Y-86650360D01*
X151552560Y-86900000D01*
X151552560Y-87500000D01*
X151572283Y-87601652D01*
X151552560Y-87700000D01*
X151552560Y-88300000D01*
X151572283Y-88401652D01*
X151552560Y-88500000D01*
X151552560Y-89100000D01*
X151572283Y-89201652D01*
X151552560Y-89300000D01*
X151552560Y-89900000D01*
X151572283Y-90001652D01*
X151552560Y-90100000D01*
X151552560Y-90700000D01*
X151572283Y-90801652D01*
X151552560Y-90900000D01*
X151552560Y-91500000D01*
X151572283Y-91601652D01*
X151552560Y-91700000D01*
X151552560Y-92300000D01*
X151572283Y-92401652D01*
X151552560Y-92500000D01*
X151552560Y-93100000D01*
X151572283Y-93201652D01*
X151552560Y-93300000D01*
X151552560Y-93900000D01*
X151572283Y-94001652D01*
X151552560Y-94100000D01*
X151552560Y-94700000D01*
X151572283Y-94801652D01*
X151552560Y-94900000D01*
X151552560Y-95500000D01*
X151572283Y-95601652D01*
X151552560Y-95700000D01*
X151552560Y-96040000D01*
X148674700Y-96040000D01*
X148439428Y-96086799D01*
X148383860Y-96097852D01*
X148137299Y-96262599D01*
X144912599Y-99487299D01*
X144768767Y-99702560D01*
X144350000Y-99702560D01*
X144248348Y-99722283D01*
X144150000Y-99702560D01*
X143984911Y-99702560D01*
X143985162Y-99414833D01*
X143843117Y-99071057D01*
X143580327Y-98807808D01*
X143236799Y-98665162D01*
X142864833Y-98664838D01*
X142521057Y-98806883D01*
X142257808Y-99069673D01*
X142115162Y-99413201D01*
X142114838Y-99785167D01*
X142122998Y-99804916D01*
X142122998Y-99835891D01*
X142006511Y-99757261D01*
X141964250Y-99715000D01*
X141823690Y-99715000D01*
X141819887Y-99716575D01*
X141750000Y-99702560D01*
X141683379Y-99702560D01*
X141714838Y-99626799D01*
X141715162Y-99254833D01*
X141573117Y-98911057D01*
X141530000Y-98867865D01*
X141530000Y-97570000D01*
X141519092Y-97515162D01*
X141472148Y-97279160D01*
X141307401Y-97032599D01*
X139737401Y-95462599D01*
X139490839Y-95297852D01*
X139200000Y-95240000D01*
X138844877Y-95240000D01*
X138958343Y-95193117D01*
X139221592Y-94930327D01*
X139364238Y-94586799D01*
X139364562Y-94214833D01*
X139222517Y-93871057D01*
X138959727Y-93607808D01*
X138616199Y-93465162D01*
X138547440Y-93465102D01*
X138547440Y-93300000D01*
X138527717Y-93198348D01*
X138547440Y-93100000D01*
X138547440Y-92500000D01*
X138527717Y-92398348D01*
X138547440Y-92300000D01*
X138547440Y-91700000D01*
X138527717Y-91598348D01*
X138547440Y-91500000D01*
X138547440Y-90900000D01*
X138527717Y-90798348D01*
X138547440Y-90700000D01*
X138547440Y-90100000D01*
X138527717Y-89998348D01*
X138547440Y-89900000D01*
X138547440Y-89300000D01*
X138527717Y-89198348D01*
X138547440Y-89100000D01*
X138547440Y-88500000D01*
X138527717Y-88398348D01*
X138547440Y-88300000D01*
X138547440Y-87700000D01*
X138527717Y-87598348D01*
X138547440Y-87500000D01*
X138547440Y-86900000D01*
X138500463Y-86657877D01*
X138478877Y-86625016D01*
X138623690Y-86685000D01*
X138764250Y-86685000D01*
X138923000Y-86526250D01*
X138923000Y-86155349D01*
X138949537Y-86292123D01*
X138949537Y-86292123D01*
G37*
X138949537Y-86292123D02*
X139089327Y-86504927D01*
X139114213Y-86521725D01*
X139147852Y-86690839D01*
X139312599Y-86937401D01*
X140137599Y-87762401D01*
X140384160Y-87927148D01*
X140675000Y-87985000D01*
X147150000Y-87985000D01*
X147440839Y-87927148D01*
X147687401Y-87762401D01*
X148387401Y-87062402D01*
X148512057Y-86875839D01*
X148552148Y-86815839D01*
X148610000Y-86525000D01*
X148610000Y-86503158D01*
X148649614Y-86444471D01*
X148689327Y-86504927D01*
X148893489Y-86642739D01*
X148935750Y-86685000D01*
X149076310Y-86685000D01*
X149080113Y-86683425D01*
X149150000Y-86697440D01*
X149750000Y-86697440D01*
X149851652Y-86677717D01*
X149950000Y-86697440D01*
X150550000Y-86697440D01*
X150651652Y-86677717D01*
X150750000Y-86697440D01*
X151350000Y-86697440D01*
X151592123Y-86650463D01*
X151610863Y-86638153D01*
X151602623Y-86650360D01*
X151552560Y-86900000D01*
X151552560Y-87500000D01*
X151572283Y-87601652D01*
X151552560Y-87700000D01*
X151552560Y-88300000D01*
X151572283Y-88401652D01*
X151552560Y-88500000D01*
X151552560Y-89100000D01*
X151572283Y-89201652D01*
X151552560Y-89300000D01*
X151552560Y-89900000D01*
X151572283Y-90001652D01*
X151552560Y-90100000D01*
X151552560Y-90700000D01*
X151572283Y-90801652D01*
X151552560Y-90900000D01*
X151552560Y-91500000D01*
X151572283Y-91601652D01*
X151552560Y-91700000D01*
X151552560Y-92300000D01*
X151572283Y-92401652D01*
X151552560Y-92500000D01*
X151552560Y-93100000D01*
X151572283Y-93201652D01*
X151552560Y-93300000D01*
X151552560Y-93900000D01*
X151572283Y-94001652D01*
X151552560Y-94100000D01*
X151552560Y-94700000D01*
X151572283Y-94801652D01*
X151552560Y-94900000D01*
X151552560Y-95500000D01*
X151572283Y-95601652D01*
X151552560Y-95700000D01*
X151552560Y-96040000D01*
X148674700Y-96040000D01*
X148439428Y-96086799D01*
X148383860Y-96097852D01*
X148137299Y-96262599D01*
X144912599Y-99487299D01*
X144768767Y-99702560D01*
X144350000Y-99702560D01*
X144248348Y-99722283D01*
X144150000Y-99702560D01*
X143984911Y-99702560D01*
X143985162Y-99414833D01*
X143843117Y-99071057D01*
X143580327Y-98807808D01*
X143236799Y-98665162D01*
X142864833Y-98664838D01*
X142521057Y-98806883D01*
X142257808Y-99069673D01*
X142115162Y-99413201D01*
X142114838Y-99785167D01*
X142122998Y-99804916D01*
X142122998Y-99835891D01*
X142006511Y-99757261D01*
X141964250Y-99715000D01*
X141823690Y-99715000D01*
X141819887Y-99716575D01*
X141750000Y-99702560D01*
X141683379Y-99702560D01*
X141714838Y-99626799D01*
X141715162Y-99254833D01*
X141573117Y-98911057D01*
X141530000Y-98867865D01*
X141530000Y-97570000D01*
X141519092Y-97515162D01*
X141472148Y-97279160D01*
X141307401Y-97032599D01*
X139737401Y-95462599D01*
X139490839Y-95297852D01*
X139200000Y-95240000D01*
X138844877Y-95240000D01*
X138958343Y-95193117D01*
X139221592Y-94930327D01*
X139364238Y-94586799D01*
X139364562Y-94214833D01*
X139222517Y-93871057D01*
X138959727Y-93607808D01*
X138616199Y-93465162D01*
X138547440Y-93465102D01*
X138547440Y-93300000D01*
X138527717Y-93198348D01*
X138547440Y-93100000D01*
X138547440Y-92500000D01*
X138527717Y-92398348D01*
X138547440Y-92300000D01*
X138547440Y-91700000D01*
X138527717Y-91598348D01*
X138547440Y-91500000D01*
X138547440Y-90900000D01*
X138527717Y-90798348D01*
X138547440Y-90700000D01*
X138547440Y-90100000D01*
X138527717Y-89998348D01*
X138547440Y-89900000D01*
X138547440Y-89300000D01*
X138527717Y-89198348D01*
X138547440Y-89100000D01*
X138547440Y-88500000D01*
X138527717Y-88398348D01*
X138547440Y-88300000D01*
X138547440Y-87700000D01*
X138527717Y-87598348D01*
X138547440Y-87500000D01*
X138547440Y-86900000D01*
X138500463Y-86657877D01*
X138478877Y-86625016D01*
X138623690Y-86685000D01*
X138764250Y-86685000D01*
X138923000Y-86526250D01*
X138923000Y-86155349D01*
X138949537Y-86292123D01*
G36*
X149992172Y-81646260D02*
X150445391Y-81949092D01*
X150616726Y-81983172D01*
X148912599Y-83687299D01*
X148747852Y-83933861D01*
X148720212Y-84072813D01*
X148695073Y-84089327D01*
X148650386Y-84155529D01*
X148610673Y-84095073D01*
X148406511Y-83957261D01*
X148364250Y-83915000D01*
X148223690Y-83915000D01*
X148219887Y-83916575D01*
X148150000Y-83902560D01*
X147550000Y-83902560D01*
X147448348Y-83922283D01*
X147350000Y-83902560D01*
X146750000Y-83902560D01*
X146648348Y-83922283D01*
X146550000Y-83902560D01*
X145950000Y-83902560D01*
X145848348Y-83922283D01*
X145750000Y-83902560D01*
X145150000Y-83902560D01*
X145048348Y-83922283D01*
X144950000Y-83902560D01*
X144350000Y-83902560D01*
X144248348Y-83922283D01*
X144150000Y-83902560D01*
X143810000Y-83902560D01*
X143810000Y-82667332D01*
X143916701Y-82711638D01*
X144288667Y-82711962D01*
X144632443Y-82569917D01*
X144895692Y-82307127D01*
X145018304Y-82011846D01*
X145138000Y-82035850D01*
X146662000Y-82035850D01*
X146904123Y-81988873D01*
X147116927Y-81849083D01*
X147259377Y-81638050D01*
X147302617Y-81422435D01*
X147452172Y-81646260D01*
X147905391Y-81949092D01*
X148440000Y-82055432D01*
X148974609Y-81949092D01*
X149427828Y-81646260D01*
X149710000Y-81223961D01*
X149992172Y-81646260D01*
X149992172Y-81646260D01*
G37*
X149992172Y-81646260D02*
X150445391Y-81949092D01*
X150616726Y-81983172D01*
X148912599Y-83687299D01*
X148747852Y-83933861D01*
X148720212Y-84072813D01*
X148695073Y-84089327D01*
X148650386Y-84155529D01*
X148610673Y-84095073D01*
X148406511Y-83957261D01*
X148364250Y-83915000D01*
X148223690Y-83915000D01*
X148219887Y-83916575D01*
X148150000Y-83902560D01*
X147550000Y-83902560D01*
X147448348Y-83922283D01*
X147350000Y-83902560D01*
X146750000Y-83902560D01*
X146648348Y-83922283D01*
X146550000Y-83902560D01*
X145950000Y-83902560D01*
X145848348Y-83922283D01*
X145750000Y-83902560D01*
X145150000Y-83902560D01*
X145048348Y-83922283D01*
X144950000Y-83902560D01*
X144350000Y-83902560D01*
X144248348Y-83922283D01*
X144150000Y-83902560D01*
X143810000Y-83902560D01*
X143810000Y-82667332D01*
X143916701Y-82711638D01*
X144288667Y-82711962D01*
X144632443Y-82569917D01*
X144895692Y-82307127D01*
X145018304Y-82011846D01*
X145138000Y-82035850D01*
X146662000Y-82035850D01*
X146904123Y-81988873D01*
X147116927Y-81849083D01*
X147259377Y-81638050D01*
X147302617Y-81422435D01*
X147452172Y-81646260D01*
X147905391Y-81949092D01*
X148440000Y-82055432D01*
X148974609Y-81949092D01*
X149427828Y-81646260D01*
X149710000Y-81223961D01*
X149992172Y-81646260D01*
M02*
