G04 #@! TF.FileFunction,Soldermask,Top*
%FSLAX46Y46*%
G04 Gerber Fmt 4.6, Leading zero omitted, Abs format (unit mm)*
G04 Created by KiCad (PCBNEW 4.1.0-alpha+201606210816+6944~45~ubuntu16.04.1-product) date Sat Jun 25 00:11:40 2016*
%MOMM*%
%LPD*%
G01*
G04 APERTURE LIST*
%ADD10C,0.100000*%
%ADD11C,1.797000*%
%ADD12C,3.600400*%
%ADD13R,1.400000X1.650000*%
%ADD14R,1.650000X1.400000*%
%ADD15R,1.100000X1.700000*%
%ADD16R,1.000000X2.350000*%
%ADD17C,1.184860*%
%ADD18C,1.388060*%
%ADD19C,1.385520*%
%ADD20R,1.400000X1.000000*%
%ADD21R,1.000000X1.000000*%
%ADD22R,2.900000X1.300000*%
%ADD23R,2.300000X2.400000*%
%ADD24C,2.300000*%
%ADD25R,1.900000X0.950000*%
%ADD26R,0.950000X1.900000*%
%ADD27R,1.700000X2.400000*%
%ADD28R,1.400000X2.000000*%
%ADD29R,1.300000X2.100000*%
%ADD30C,1.924000*%
%ADD31C,3.100020*%
G04 APERTURE END LIST*
D10*
D11*
X145224500Y-79298800D03*
X147383500Y-79298800D03*
X140906500Y-79298800D03*
X143065500Y-79298800D03*
X145224500Y-75006200D03*
X143065500Y-75006200D03*
X140906500Y-75006200D03*
X147383500Y-75006200D03*
X138747500Y-79298800D03*
X136588500Y-79298800D03*
X134429500Y-79298800D03*
X132270500Y-79298800D03*
X138747500Y-75006200D03*
X136588500Y-75006200D03*
X134429500Y-75006200D03*
X132270500Y-75006200D03*
X149542500Y-79298800D03*
X151701500Y-79298800D03*
X153860500Y-79298800D03*
X156019500Y-79298800D03*
X149542500Y-75006200D03*
X151701500Y-75006200D03*
X153860500Y-75006200D03*
X156019500Y-75006200D03*
D12*
X167551100Y-77152500D03*
X120738900Y-77152500D03*
D13*
X138303000Y-117221000D03*
X136303000Y-117221000D03*
X136287000Y-107569000D03*
X138287000Y-107569000D03*
D14*
X132207000Y-105315000D03*
X132207000Y-107315000D03*
X126733300Y-97062800D03*
X126733300Y-95062800D03*
D15*
X145857000Y-90551000D03*
X143957000Y-90551000D03*
X151384000Y-121412000D03*
X149484000Y-121412000D03*
X151384000Y-123825000D03*
X149484000Y-123825000D03*
X127127000Y-119888000D03*
X129027000Y-119888000D03*
X126431000Y-109093000D03*
X128331000Y-109093000D03*
D16*
X162560000Y-90296000D03*
X161290000Y-90296000D03*
X160020000Y-90296000D03*
X158750000Y-90296000D03*
X157480000Y-90296000D03*
X156210000Y-90296000D03*
X154940000Y-90296000D03*
X153670000Y-90296000D03*
X152400000Y-90296000D03*
X151130000Y-90296000D03*
X151130000Y-99696000D03*
X152400000Y-99696000D03*
X153670000Y-99696000D03*
X154940000Y-99696000D03*
X156210000Y-99696000D03*
X157480000Y-99696000D03*
X158750000Y-99696000D03*
X160020000Y-99696000D03*
X161290000Y-99696000D03*
X162560000Y-99696000D03*
X142240000Y-90296000D03*
X140970000Y-90296000D03*
X139700000Y-90296000D03*
X138430000Y-90296000D03*
X137160000Y-90296000D03*
X135890000Y-90296000D03*
X134620000Y-90296000D03*
X133350000Y-90296000D03*
X132080000Y-90296000D03*
X130810000Y-90296000D03*
X130810000Y-99696000D03*
X132080000Y-99696000D03*
X133350000Y-99696000D03*
X134620000Y-99696000D03*
X135890000Y-99696000D03*
X137160000Y-99696000D03*
X138430000Y-99696000D03*
X139700000Y-99696000D03*
X140970000Y-99696000D03*
X142240000Y-99696000D03*
D17*
X145923000Y-94615000D03*
X147193000Y-94615000D03*
X145923000Y-95885000D03*
X147193000Y-95885000D03*
X145923000Y-97155000D03*
X147193000Y-97155000D03*
D18*
X146558000Y-93345000D03*
D19*
X147574000Y-98425000D03*
X145542000Y-98425000D03*
D20*
X145300000Y-124267000D03*
D21*
X147000000Y-124267000D03*
X147000000Y-122367000D03*
X145100000Y-122367000D03*
D22*
X168148000Y-114988000D03*
X168148000Y-112088000D03*
D15*
X125796000Y-102108000D03*
X127696000Y-102108000D03*
D23*
X123063000Y-102489000D03*
D24*
X120523000Y-102489000D03*
D23*
X123444000Y-119888000D03*
D24*
X120904000Y-119888000D03*
D23*
X123190000Y-111125000D03*
D24*
X120650000Y-111125000D03*
D25*
X153020000Y-114490000D03*
X153020000Y-113690000D03*
X153020000Y-112890000D03*
X153020000Y-112090000D03*
X153020000Y-111290000D03*
X153020000Y-110490000D03*
X153020000Y-109690000D03*
X153020000Y-108890000D03*
X153020000Y-108090000D03*
X153020000Y-107290000D03*
X153020000Y-106490000D03*
D26*
X151320000Y-104790000D03*
X150520000Y-104790000D03*
X149720000Y-104790000D03*
X148920000Y-104790000D03*
X148120000Y-104790000D03*
X147320000Y-104790000D03*
X146520000Y-104790000D03*
X145720000Y-104790000D03*
X144920000Y-104790000D03*
X144120000Y-104790000D03*
X143320000Y-104790000D03*
D25*
X141620000Y-106490000D03*
X141620000Y-107290000D03*
X141620000Y-108090000D03*
X141620000Y-108890000D03*
X141620000Y-109690000D03*
X141620000Y-110490000D03*
X141620000Y-111290000D03*
X141620000Y-112090000D03*
X141620000Y-112890000D03*
X141620000Y-113690000D03*
X141620000Y-114490000D03*
D26*
X143320000Y-116190000D03*
X144120000Y-116190000D03*
X144920000Y-116190000D03*
X145720000Y-116190000D03*
X146520000Y-116190000D03*
X147320000Y-116190000D03*
X148120000Y-116190000D03*
X148920000Y-116190000D03*
X149720000Y-116190000D03*
X150520000Y-116190000D03*
X151320000Y-116190000D03*
D27*
X138544000Y-114363000D03*
X138544000Y-110363000D03*
X136144000Y-110363000D03*
X136144000Y-114363000D03*
D13*
X145415000Y-119888000D03*
X143415000Y-119888000D03*
X134398000Y-123063000D03*
X136398000Y-123063000D03*
D14*
X158115000Y-108315000D03*
X158115000Y-106315000D03*
D13*
X139446000Y-122936000D03*
X141446000Y-122936000D03*
D14*
X167005000Y-101473000D03*
X167005000Y-99473000D03*
D28*
X127460000Y-91821000D03*
X124460000Y-91821000D03*
D29*
X127942000Y-88773000D03*
X125042000Y-88773000D03*
D30*
X159669480Y-119253000D03*
X162209480Y-119253000D03*
X162209480Y-121251980D03*
X159669480Y-121251980D03*
D31*
X154940000Y-123952000D03*
X166938960Y-123952000D03*
M02*
