G04 #@! TF.FileFunction,Soldermask,Top*
%FSLAX46Y46*%
G04 Gerber Fmt 4.6, Leading zero omitted, Abs format (unit mm)*
G04 Created by KiCad (PCBNEW no-vcs-found-product) date Mi 14 Okt 2015 21:54:47 CEST*
%MOMM*%
G01*
G04 APERTURE LIST*
%ADD10C,0.100000*%
%ADD11R,3.399740X2.000200*%
%ADD12R,1.400000X1.650000*%
%ADD13R,1.650000X1.400000*%
%ADD14C,1.901140*%
%ADD15C,3.900120*%
%ADD16R,2.398980X1.924000*%
%ADD17O,2.398980X1.924000*%
%ADD18R,1.100000X1.700000*%
%ADD19R,1.700000X1.100000*%
%ADD20R,1.200000X0.750000*%
%ADD21R,0.750000X1.200000*%
%ADD22R,1.650000X1.650000*%
%ADD23R,1.900000X1.000000*%
%ADD24R,1.000000X1.900000*%
%ADD25R,2.350000X1.000000*%
%ADD26R,2.900000X1.300000*%
%ADD27R,1.924000X2.398980*%
%ADD28O,1.924000X2.398980*%
%ADD29R,2.000200X3.399740*%
G04 APERTURE END LIST*
D10*
D11*
X135599640Y-110350000D03*
X131200360Y-110350000D03*
D12*
X127600000Y-106950000D03*
X129600000Y-106950000D03*
X155320000Y-111710000D03*
X157320000Y-111710000D03*
X166960000Y-77620000D03*
X164960000Y-77620000D03*
D13*
X133830000Y-100760000D03*
X133830000Y-102760000D03*
X136180000Y-100650000D03*
X136180000Y-102650000D03*
X136910000Y-84390000D03*
X136910000Y-82390000D03*
X147415000Y-110595000D03*
X147415000Y-112595000D03*
X143965000Y-110445000D03*
X143965000Y-112445000D03*
X140215000Y-110495000D03*
X140215000Y-112495000D03*
D14*
X119017800Y-90935600D03*
X119017800Y-93424800D03*
X121024400Y-93424800D03*
X121024400Y-90935600D03*
D15*
X116300000Y-86160400D03*
X116300000Y-98200000D03*
D16*
X178301080Y-80100000D03*
D17*
X181338920Y-80100000D03*
X178301080Y-82640000D03*
X181338920Y-82640000D03*
X178301080Y-85180000D03*
X181338920Y-85180000D03*
X178301080Y-87720000D03*
X181338920Y-87720000D03*
X178301080Y-90260000D03*
X181338920Y-90260000D03*
X178301080Y-92800000D03*
X181338920Y-92800000D03*
X178301080Y-95340000D03*
X181338920Y-95340000D03*
X178301080Y-97880000D03*
X181338920Y-97880000D03*
X178301080Y-100420000D03*
X181338920Y-100420000D03*
X178301080Y-102960000D03*
X181338920Y-102960000D03*
X178301080Y-105500000D03*
X181338920Y-105500000D03*
X178301080Y-108040000D03*
X181338920Y-108040000D03*
D18*
X126200000Y-109900000D03*
X124300000Y-109900000D03*
X115800000Y-106600000D03*
X117700000Y-106600000D03*
X115700000Y-103150000D03*
X117600000Y-103150000D03*
X127800000Y-100700000D03*
X125900000Y-100700000D03*
X127800000Y-98450000D03*
X125900000Y-98450000D03*
X127800000Y-93850000D03*
X125900000Y-93850000D03*
X127800000Y-96100000D03*
X125900000Y-96100000D03*
D19*
X147415000Y-107045000D03*
X147415000Y-108945000D03*
X143965000Y-106995000D03*
X143965000Y-108895000D03*
X140215000Y-107045000D03*
X140215000Y-108945000D03*
X141050000Y-81600000D03*
X141050000Y-79700000D03*
D20*
X121325000Y-103800000D03*
X121325000Y-104450000D03*
X121325000Y-105100000D03*
X121325000Y-105750000D03*
D21*
X122350000Y-106775000D03*
X123000000Y-106775000D03*
X123650000Y-106775000D03*
X124300000Y-106775000D03*
D20*
X125325000Y-105750000D03*
X125325000Y-105100000D03*
X125325000Y-104450000D03*
X125325000Y-103800000D03*
D21*
X124300000Y-102775000D03*
X123650000Y-102775000D03*
X123000000Y-102775000D03*
X122350000Y-102775000D03*
D22*
X123950000Y-105400000D03*
X123950000Y-104150000D03*
X122700000Y-105400000D03*
X122700000Y-104150000D03*
D23*
X138850000Y-87150000D03*
X138850000Y-87950000D03*
X138850000Y-88750000D03*
X138850000Y-89550000D03*
X138850000Y-90350000D03*
X138850000Y-91150000D03*
X138850000Y-91950000D03*
X138850000Y-92750000D03*
X138850000Y-93550000D03*
X138850000Y-94350000D03*
X138850000Y-95150000D03*
X138850000Y-95950000D03*
X138850000Y-96750000D03*
X138850000Y-97550000D03*
X138850000Y-98350000D03*
X138850000Y-99150000D03*
D24*
X140750000Y-101050000D03*
X141550000Y-101050000D03*
X142350000Y-101050000D03*
X143150000Y-101050000D03*
X143950000Y-101050000D03*
X144750000Y-101050000D03*
X145550000Y-101050000D03*
X146350000Y-101050000D03*
X147150000Y-101050000D03*
X147950000Y-101050000D03*
X148750000Y-101050000D03*
X149550000Y-101050000D03*
X150350000Y-101050000D03*
X151150000Y-101050000D03*
X151950000Y-101050000D03*
X152750000Y-101050000D03*
D23*
X154650000Y-99150000D03*
X154650000Y-98350000D03*
X154650000Y-97550000D03*
X154650000Y-96750000D03*
X154650000Y-95950000D03*
X154650000Y-95150000D03*
X154650000Y-94350000D03*
X154650000Y-93550000D03*
X154650000Y-92750000D03*
X154650000Y-91950000D03*
X154650000Y-91150000D03*
X154650000Y-90350000D03*
X154650000Y-89550000D03*
X154650000Y-88750000D03*
X154650000Y-87950000D03*
X154650000Y-87150000D03*
D24*
X152750000Y-85250000D03*
X151950000Y-85250000D03*
X151150000Y-85250000D03*
X150350000Y-85250000D03*
X149550000Y-85250000D03*
X148750000Y-85250000D03*
X147950000Y-85250000D03*
X147150000Y-85250000D03*
X146350000Y-85250000D03*
X145550000Y-85250000D03*
X144750000Y-85250000D03*
X143950000Y-85250000D03*
X143150000Y-85250000D03*
X142350000Y-85250000D03*
X141550000Y-85250000D03*
X140750000Y-85250000D03*
D25*
X170940000Y-91715000D03*
X170940000Y-90445000D03*
X170940000Y-89175000D03*
X170940000Y-87905000D03*
X170940000Y-86635000D03*
X170940000Y-85365000D03*
X170940000Y-84095000D03*
X170940000Y-82825000D03*
X170940000Y-81555000D03*
X170940000Y-80285000D03*
X161540000Y-80285000D03*
X161540000Y-81555000D03*
X161540000Y-82825000D03*
X161540000Y-84095000D03*
X161540000Y-85365000D03*
X161540000Y-86635000D03*
X161540000Y-87905000D03*
X161540000Y-89175000D03*
X161540000Y-90445000D03*
X161540000Y-91715000D03*
X170800000Y-106615000D03*
X170800000Y-105345000D03*
X170800000Y-104075000D03*
X170800000Y-102805000D03*
X170800000Y-101535000D03*
X170800000Y-100265000D03*
X170800000Y-98995000D03*
X170800000Y-97725000D03*
X170800000Y-96455000D03*
X170800000Y-95185000D03*
X161400000Y-95185000D03*
X161400000Y-96455000D03*
X161400000Y-97725000D03*
X161400000Y-98995000D03*
X161400000Y-100265000D03*
X161400000Y-101535000D03*
X161400000Y-102805000D03*
X161400000Y-104075000D03*
X161400000Y-105345000D03*
X161400000Y-106615000D03*
D16*
X131281080Y-89760000D03*
D17*
X134318920Y-89760000D03*
X131281080Y-92300000D03*
X134318920Y-92300000D03*
X131281080Y-94840000D03*
X134318920Y-94840000D03*
D19*
X151850000Y-111050000D03*
X151850000Y-109150000D03*
D26*
X125550000Y-87750000D03*
X125550000Y-84850000D03*
D27*
X144120000Y-80218920D03*
D28*
X144120000Y-77181080D03*
X146660000Y-80218920D03*
X146660000Y-77181080D03*
X149200000Y-80218920D03*
X149200000Y-77181080D03*
X151740000Y-80218920D03*
X151740000Y-77181080D03*
X154280000Y-80218920D03*
X154280000Y-77181080D03*
D12*
X165120000Y-110030000D03*
X167120000Y-110030000D03*
D29*
X131220000Y-78610360D03*
X131220000Y-83009640D03*
M02*
