G04 #@! TF.FileFunction,Legend,Bot*
%FSLAX46Y46*%
G04 Gerber Fmt 4.6, Leading zero omitted, Abs format (unit mm)*
G04 Created by KiCad (PCBNEW 4.1.0-alpha+201606241232+6946~45~ubuntu16.04.1-product) date Wed Jun 29 20:04:26 2016*
%MOMM*%
%LPD*%
G01*
G04 APERTURE LIST*
%ADD10C,0.100000*%
%ADD11C,0.300000*%
G04 APERTURE END LIST*
D10*
D11*
X142064500Y-95523928D02*
X141993071Y-95452500D01*
X141850214Y-95381071D01*
X141493071Y-95381071D01*
X141350214Y-95452500D01*
X141278785Y-95523928D01*
X141207357Y-95666785D01*
X141207357Y-95809642D01*
X141278785Y-96023928D01*
X142135928Y-96881071D01*
X141207357Y-96881071D01*
X139921642Y-95881071D02*
X139921642Y-96881071D01*
X140278785Y-95309642D02*
X140635928Y-96381071D01*
X139707357Y-96381071D01*
X138064500Y-95309642D02*
X139350214Y-97238214D01*
X137278785Y-95381071D02*
X137135928Y-95381071D01*
X136993071Y-95452500D01*
X136921642Y-95523928D01*
X136850214Y-95666785D01*
X136778785Y-95952500D01*
X136778785Y-96309642D01*
X136850214Y-96595357D01*
X136921642Y-96738214D01*
X136993071Y-96809642D01*
X137135928Y-96881071D01*
X137278785Y-96881071D01*
X137421642Y-96809642D01*
X137493071Y-96738214D01*
X137564500Y-96595357D01*
X137635928Y-96309642D01*
X137635928Y-95952500D01*
X137564500Y-95666785D01*
X137493071Y-95523928D01*
X137421642Y-95452500D01*
X137278785Y-95381071D01*
X135493071Y-95381071D02*
X135778785Y-95381071D01*
X135921642Y-95452500D01*
X135993071Y-95523928D01*
X136135928Y-95738214D01*
X136207357Y-96023928D01*
X136207357Y-96595357D01*
X136135928Y-96738214D01*
X136064500Y-96809642D01*
X135921642Y-96881071D01*
X135635928Y-96881071D01*
X135493071Y-96809642D01*
X135421642Y-96738214D01*
X135350214Y-96595357D01*
X135350214Y-96238214D01*
X135421642Y-96095357D01*
X135493071Y-96023928D01*
X135635928Y-95952500D01*
X135921642Y-95952500D01*
X136064500Y-96023928D01*
X136135928Y-96095357D01*
X136207357Y-96238214D01*
X133635928Y-95309642D02*
X134921642Y-97238214D01*
X133207357Y-95523928D02*
X133135928Y-95452500D01*
X132993071Y-95381071D01*
X132635928Y-95381071D01*
X132493071Y-95452500D01*
X132421642Y-95523928D01*
X132350214Y-95666785D01*
X132350214Y-95809642D01*
X132421642Y-96023928D01*
X133278785Y-96881071D01*
X132350214Y-96881071D01*
X131421642Y-95381071D02*
X131278785Y-95381071D01*
X131135928Y-95452500D01*
X131064500Y-95523928D01*
X130993071Y-95666785D01*
X130921642Y-95952500D01*
X130921642Y-96309642D01*
X130993071Y-96595357D01*
X131064500Y-96738214D01*
X131135928Y-96809642D01*
X131278785Y-96881071D01*
X131421642Y-96881071D01*
X131564500Y-96809642D01*
X131635928Y-96738214D01*
X131707357Y-96595357D01*
X131778785Y-96309642D01*
X131778785Y-95952500D01*
X131707357Y-95666785D01*
X131635928Y-95523928D01*
X131564500Y-95452500D01*
X131421642Y-95381071D01*
X129493071Y-96881071D02*
X130350214Y-96881071D01*
X129921642Y-96881071D02*
X129921642Y-95381071D01*
X130064500Y-95595357D01*
X130207357Y-95738214D01*
X130350214Y-95809642D01*
X128207357Y-95381071D02*
X128493071Y-95381071D01*
X128635928Y-95452500D01*
X128707357Y-95523928D01*
X128850214Y-95738214D01*
X128921642Y-96023928D01*
X128921642Y-96595357D01*
X128850214Y-96738214D01*
X128778785Y-96809642D01*
X128635928Y-96881071D01*
X128350214Y-96881071D01*
X128207357Y-96809642D01*
X128135928Y-96738214D01*
X128064500Y-96595357D01*
X128064500Y-96238214D01*
X128135928Y-96095357D01*
X128207357Y-96023928D01*
X128350214Y-95952500D01*
X128635928Y-95952500D01*
X128778785Y-96023928D01*
X128850214Y-96095357D01*
X128921642Y-96238214D01*
X166684857Y-85895571D02*
X166684857Y-84395571D01*
X166042000Y-85895571D02*
X166042000Y-85109857D01*
X166113428Y-84967000D01*
X166256285Y-84895571D01*
X166470571Y-84895571D01*
X166613428Y-84967000D01*
X166684857Y-85038428D01*
X165542000Y-84895571D02*
X164970571Y-84895571D01*
X165327714Y-84395571D02*
X165327714Y-85681285D01*
X165256285Y-85824142D01*
X165113428Y-85895571D01*
X164970571Y-85895571D01*
X164684857Y-84895571D02*
X164113428Y-84895571D01*
X164470571Y-84395571D02*
X164470571Y-85681285D01*
X164399142Y-85824142D01*
X164256285Y-85895571D01*
X164113428Y-85895571D01*
X163613428Y-84895571D02*
X163613428Y-86395571D01*
X163613428Y-84967000D02*
X163470571Y-84895571D01*
X163184857Y-84895571D01*
X163042000Y-84967000D01*
X162970571Y-85038428D01*
X162899142Y-85181285D01*
X162899142Y-85609857D01*
X162970571Y-85752714D01*
X163042000Y-85824142D01*
X163184857Y-85895571D01*
X163470571Y-85895571D01*
X163613428Y-85824142D01*
X162327714Y-85824142D02*
X162184857Y-85895571D01*
X161899142Y-85895571D01*
X161756285Y-85824142D01*
X161684857Y-85681285D01*
X161684857Y-85609857D01*
X161756285Y-85467000D01*
X161899142Y-85395571D01*
X162113428Y-85395571D01*
X162256285Y-85324142D01*
X162327714Y-85181285D01*
X162327714Y-85109857D01*
X162256285Y-84967000D01*
X162113428Y-84895571D01*
X161899142Y-84895571D01*
X161756285Y-84967000D01*
X161042000Y-85752714D02*
X160970571Y-85824142D01*
X161042000Y-85895571D01*
X161113428Y-85824142D01*
X161042000Y-85752714D01*
X161042000Y-85895571D01*
X161042000Y-84967000D02*
X160970571Y-85038428D01*
X161042000Y-85109857D01*
X161113428Y-85038428D01*
X161042000Y-84967000D01*
X161042000Y-85109857D01*
X159256285Y-84324142D02*
X160542000Y-86252714D01*
X157684857Y-84324142D02*
X158970571Y-86252714D01*
X156542000Y-84895571D02*
X156542000Y-86109857D01*
X156613428Y-86252714D01*
X156684857Y-86324142D01*
X156827714Y-86395571D01*
X157042000Y-86395571D01*
X157184857Y-86324142D01*
X156542000Y-85824142D02*
X156684857Y-85895571D01*
X156970571Y-85895571D01*
X157113428Y-85824142D01*
X157184857Y-85752714D01*
X157256285Y-85609857D01*
X157256285Y-85181285D01*
X157184857Y-85038428D01*
X157113428Y-84967000D01*
X156970571Y-84895571D01*
X156684857Y-84895571D01*
X156542000Y-84967000D01*
X155827714Y-85895571D02*
X155827714Y-84895571D01*
X155827714Y-84395571D02*
X155899142Y-84467000D01*
X155827714Y-84538428D01*
X155756285Y-84467000D01*
X155827714Y-84395571D01*
X155827714Y-84538428D01*
X155327714Y-84895571D02*
X154756285Y-84895571D01*
X155113428Y-84395571D02*
X155113428Y-85681285D01*
X155042000Y-85824142D01*
X154899142Y-85895571D01*
X154756285Y-85895571D01*
X154256285Y-85895571D02*
X154256285Y-84395571D01*
X153613428Y-85895571D02*
X153613428Y-85109857D01*
X153684857Y-84967000D01*
X153827714Y-84895571D01*
X154042000Y-84895571D01*
X154184857Y-84967000D01*
X154256285Y-85038428D01*
X152256285Y-84895571D02*
X152256285Y-85895571D01*
X152899142Y-84895571D02*
X152899142Y-85681285D01*
X152827714Y-85824142D01*
X152684857Y-85895571D01*
X152470571Y-85895571D01*
X152327714Y-85824142D01*
X152256285Y-85752714D01*
X151542000Y-85895571D02*
X151542000Y-84395571D01*
X151542000Y-84967000D02*
X151399142Y-84895571D01*
X151113428Y-84895571D01*
X150970571Y-84967000D01*
X150899142Y-85038428D01*
X150827714Y-85181285D01*
X150827714Y-85609857D01*
X150899142Y-85752714D01*
X150970571Y-85824142D01*
X151113428Y-85895571D01*
X151399142Y-85895571D01*
X151542000Y-85824142D01*
X150184857Y-85752714D02*
X150113428Y-85824142D01*
X150184857Y-85895571D01*
X150256285Y-85824142D01*
X150184857Y-85752714D01*
X150184857Y-85895571D01*
X148827714Y-85824142D02*
X148970571Y-85895571D01*
X149256285Y-85895571D01*
X149399142Y-85824142D01*
X149470571Y-85752714D01*
X149542000Y-85609857D01*
X149542000Y-85181285D01*
X149470571Y-85038428D01*
X149399142Y-84967000D01*
X149256285Y-84895571D01*
X148970571Y-84895571D01*
X148827714Y-84967000D01*
X147970571Y-85895571D02*
X148113428Y-85824142D01*
X148184857Y-85752714D01*
X148256285Y-85609857D01*
X148256285Y-85181285D01*
X148184857Y-85038428D01*
X148113428Y-84967000D01*
X147970571Y-84895571D01*
X147756285Y-84895571D01*
X147613428Y-84967000D01*
X147542000Y-85038428D01*
X147470571Y-85181285D01*
X147470571Y-85609857D01*
X147542000Y-85752714D01*
X147613428Y-85824142D01*
X147756285Y-85895571D01*
X147970571Y-85895571D01*
X146827714Y-85895571D02*
X146827714Y-84895571D01*
X146827714Y-85038428D02*
X146756285Y-84967000D01*
X146613428Y-84895571D01*
X146399142Y-84895571D01*
X146256285Y-84967000D01*
X146184857Y-85109857D01*
X146184857Y-85895571D01*
X146184857Y-85109857D02*
X146113428Y-84967000D01*
X145970571Y-84895571D01*
X145756285Y-84895571D01*
X145613428Y-84967000D01*
X145542000Y-85109857D01*
X145542000Y-85895571D01*
X143756285Y-84324142D02*
X145042000Y-86252714D01*
X142613428Y-85895571D02*
X142613428Y-85109857D01*
X142684857Y-84967000D01*
X142827714Y-84895571D01*
X143113428Y-84895571D01*
X143256285Y-84967000D01*
X142613428Y-85824142D02*
X142756285Y-85895571D01*
X143113428Y-85895571D01*
X143256285Y-85824142D01*
X143327714Y-85681285D01*
X143327714Y-85538428D01*
X143256285Y-85395571D01*
X143113428Y-85324142D01*
X142756285Y-85324142D01*
X142613428Y-85252714D01*
X141970571Y-85824142D02*
X141827714Y-85895571D01*
X141542000Y-85895571D01*
X141399142Y-85824142D01*
X141327714Y-85681285D01*
X141327714Y-85609857D01*
X141399142Y-85467000D01*
X141542000Y-85395571D01*
X141756285Y-85395571D01*
X141899142Y-85324142D01*
X141970571Y-85181285D01*
X141970571Y-85109857D01*
X141899142Y-84967000D01*
X141756285Y-84895571D01*
X141542000Y-84895571D01*
X141399142Y-84967000D01*
X140042000Y-85895571D02*
X140042000Y-85109857D01*
X140113428Y-84967000D01*
X140256285Y-84895571D01*
X140542000Y-84895571D01*
X140684857Y-84967000D01*
X140042000Y-85824142D02*
X140184857Y-85895571D01*
X140542000Y-85895571D01*
X140684857Y-85824142D01*
X140756285Y-85681285D01*
X140756285Y-85538428D01*
X140684857Y-85395571D01*
X140542000Y-85324142D01*
X140184857Y-85324142D01*
X140042000Y-85252714D01*
X139327714Y-84895571D02*
X139327714Y-85895571D01*
X139327714Y-85038428D02*
X139256285Y-84967000D01*
X139113428Y-84895571D01*
X138899142Y-84895571D01*
X138756285Y-84967000D01*
X138684857Y-85109857D01*
X138684857Y-85895571D01*
X138113428Y-84895571D02*
X137327714Y-84895571D01*
X138113428Y-85895571D01*
X137327714Y-85895571D01*
X136113428Y-85895571D02*
X136113428Y-85109857D01*
X136184857Y-84967000D01*
X136327714Y-84895571D01*
X136613428Y-84895571D01*
X136756285Y-84967000D01*
X136113428Y-85824142D02*
X136256285Y-85895571D01*
X136613428Y-85895571D01*
X136756285Y-85824142D01*
X136827714Y-85681285D01*
X136827714Y-85538428D01*
X136756285Y-85395571D01*
X136613428Y-85324142D01*
X136256285Y-85324142D01*
X136113428Y-85252714D01*
X134327714Y-84324142D02*
X135613428Y-86252714D01*
X133184857Y-84895571D02*
X133184857Y-86109857D01*
X133256285Y-86252714D01*
X133327714Y-86324142D01*
X133470571Y-86395571D01*
X133684857Y-86395571D01*
X133827714Y-86324142D01*
X133184857Y-85824142D02*
X133327714Y-85895571D01*
X133613428Y-85895571D01*
X133756285Y-85824142D01*
X133827714Y-85752714D01*
X133899142Y-85609857D01*
X133899142Y-85181285D01*
X133827714Y-85038428D01*
X133756285Y-84967000D01*
X133613428Y-84895571D01*
X133327714Y-84895571D01*
X133184857Y-84967000D01*
X132470571Y-84895571D02*
X132470571Y-86395571D01*
X132470571Y-84967000D02*
X132327714Y-84895571D01*
X132042000Y-84895571D01*
X131899142Y-84967000D01*
X131827714Y-85038428D01*
X131756285Y-85181285D01*
X131756285Y-85609857D01*
X131827714Y-85752714D01*
X131899142Y-85824142D01*
X132042000Y-85895571D01*
X132327714Y-85895571D01*
X132470571Y-85824142D01*
X131113428Y-85895571D02*
X131113428Y-84895571D01*
X131113428Y-84395571D02*
X131184857Y-84467000D01*
X131113428Y-84538428D01*
X131042000Y-84467000D01*
X131113428Y-84395571D01*
X131113428Y-84538428D01*
X130399142Y-85895571D02*
X130399142Y-84395571D01*
X130399142Y-84967000D02*
X130256285Y-84895571D01*
X129970571Y-84895571D01*
X129827714Y-84967000D01*
X129756285Y-85038428D01*
X129684857Y-85181285D01*
X129684857Y-85609857D01*
X129756285Y-85752714D01*
X129827714Y-85824142D01*
X129970571Y-85895571D01*
X130256285Y-85895571D01*
X130399142Y-85824142D01*
X129113428Y-84538428D02*
X129042000Y-84467000D01*
X128899142Y-84395571D01*
X128542000Y-84395571D01*
X128399142Y-84467000D01*
X128327714Y-84538428D01*
X128256285Y-84681285D01*
X128256285Y-84824142D01*
X128327714Y-85038428D01*
X129184857Y-85895571D01*
X128256285Y-85895571D01*
X126970571Y-84895571D02*
X126970571Y-85895571D01*
X127613428Y-84895571D02*
X127613428Y-85681285D01*
X127542000Y-85824142D01*
X127399142Y-85895571D01*
X127184857Y-85895571D01*
X127042000Y-85824142D01*
X126970571Y-85752714D01*
X126327714Y-85824142D02*
X126184857Y-85895571D01*
X125899142Y-85895571D01*
X125756285Y-85824142D01*
X125684857Y-85681285D01*
X125684857Y-85609857D01*
X125756285Y-85467000D01*
X125899142Y-85395571D01*
X126113428Y-85395571D01*
X126256285Y-85324142D01*
X126327714Y-85181285D01*
X126327714Y-85109857D01*
X126256285Y-84967000D01*
X126113428Y-84895571D01*
X125899142Y-84895571D01*
X125756285Y-84967000D01*
X125042000Y-85895571D02*
X125042000Y-84395571D01*
X125042000Y-84967000D02*
X124899142Y-84895571D01*
X124613428Y-84895571D01*
X124470571Y-84967000D01*
X124399142Y-85038428D01*
X124327714Y-85181285D01*
X124327714Y-85609857D01*
X124399142Y-85752714D01*
X124470571Y-85824142D01*
X124613428Y-85895571D01*
X124899142Y-85895571D01*
X125042000Y-85824142D01*
X141413571Y-93039500D02*
X141556428Y-92968071D01*
X141770714Y-92968071D01*
X141985000Y-93039500D01*
X142127857Y-93182357D01*
X142199285Y-93325214D01*
X142270714Y-93610928D01*
X142270714Y-93825214D01*
X142199285Y-94110928D01*
X142127857Y-94253785D01*
X141985000Y-94396642D01*
X141770714Y-94468071D01*
X141627857Y-94468071D01*
X141413571Y-94396642D01*
X141342142Y-94325214D01*
X141342142Y-93825214D01*
X141627857Y-93825214D01*
X140699285Y-94468071D02*
X140699285Y-92968071D01*
X140127857Y-92968071D01*
X139985000Y-93039500D01*
X139913571Y-93110928D01*
X139842142Y-93253785D01*
X139842142Y-93468071D01*
X139913571Y-93610928D01*
X139985000Y-93682357D01*
X140127857Y-93753785D01*
X140699285Y-93753785D01*
X139199285Y-94468071D02*
X139199285Y-92968071D01*
X137985000Y-93682357D02*
X137770714Y-93753785D01*
X137699285Y-93825214D01*
X137627857Y-93968071D01*
X137627857Y-94182357D01*
X137699285Y-94325214D01*
X137770714Y-94396642D01*
X137913571Y-94468071D01*
X138485000Y-94468071D01*
X138485000Y-92968071D01*
X137985000Y-92968071D01*
X137842142Y-93039500D01*
X137770714Y-93110928D01*
X137699285Y-93253785D01*
X137699285Y-93396642D01*
X137770714Y-93539500D01*
X137842142Y-93610928D01*
X137985000Y-93682357D01*
X138485000Y-93682357D01*
X137056428Y-93110928D02*
X136985000Y-93039500D01*
X136842142Y-92968071D01*
X136485000Y-92968071D01*
X136342142Y-93039500D01*
X136270714Y-93110928D01*
X136199285Y-93253785D01*
X136199285Y-93396642D01*
X136270714Y-93610928D01*
X137127857Y-94468071D01*
X136199285Y-94468071D01*
X135556428Y-92968071D02*
X135556428Y-94182357D01*
X135485000Y-94325214D01*
X135413571Y-94396642D01*
X135270714Y-94468071D01*
X134985000Y-94468071D01*
X134842142Y-94396642D01*
X134770714Y-94325214D01*
X134699285Y-94182357D01*
X134699285Y-92968071D01*
X134056428Y-94396642D02*
X133842142Y-94468071D01*
X133485000Y-94468071D01*
X133342142Y-94396642D01*
X133270714Y-94325214D01*
X133199285Y-94182357D01*
X133199285Y-94039500D01*
X133270714Y-93896642D01*
X133342142Y-93825214D01*
X133485000Y-93753785D01*
X133770714Y-93682357D01*
X133913571Y-93610928D01*
X133985000Y-93539500D01*
X134056428Y-93396642D01*
X134056428Y-93253785D01*
X133985000Y-93110928D01*
X133913571Y-93039500D01*
X133770714Y-92968071D01*
X133413571Y-92968071D01*
X133199285Y-93039500D01*
X132056428Y-93682357D02*
X131842142Y-93753785D01*
X131770714Y-93825214D01*
X131699285Y-93968071D01*
X131699285Y-94182357D01*
X131770714Y-94325214D01*
X131842142Y-94396642D01*
X131985000Y-94468071D01*
X132556428Y-94468071D01*
X132556428Y-92968071D01*
X132056428Y-92968071D01*
X131913571Y-93039500D01*
X131842142Y-93110928D01*
X131770714Y-93253785D01*
X131770714Y-93396642D01*
X131842142Y-93539500D01*
X131913571Y-93610928D01*
X132056428Y-93682357D01*
X132556428Y-93682357D01*
X130127857Y-92968071D02*
X129627857Y-94468071D01*
X129127857Y-92968071D01*
X128699285Y-93110928D02*
X128627857Y-93039500D01*
X128485000Y-92968071D01*
X128127857Y-92968071D01*
X127985000Y-93039500D01*
X127913571Y-93110928D01*
X127842142Y-93253785D01*
X127842142Y-93396642D01*
X127913571Y-93610928D01*
X128770714Y-94468071D01*
X127842142Y-94468071D01*
X127199285Y-94325214D02*
X127127857Y-94396642D01*
X127199285Y-94468071D01*
X127270714Y-94396642D01*
X127199285Y-94325214D01*
X127199285Y-94468071D01*
X126199285Y-92968071D02*
X126056428Y-92968071D01*
X125913571Y-93039500D01*
X125842142Y-93110928D01*
X125770714Y-93253785D01*
X125699285Y-93539500D01*
X125699285Y-93896642D01*
X125770714Y-94182357D01*
X125842142Y-94325214D01*
X125913571Y-94396642D01*
X126056428Y-94468071D01*
X126199285Y-94468071D01*
X126342142Y-94396642D01*
X126413571Y-94325214D01*
X126485000Y-94182357D01*
X126556428Y-93896642D01*
X126556428Y-93539500D01*
X126485000Y-93253785D01*
X126413571Y-93110928D01*
X126342142Y-93039500D01*
X126199285Y-92968071D01*
M02*
