G04 #@! TF.FileFunction,Legend,Bot*
%FSLAX46Y46*%
G04 Gerber Fmt 4.6, Leading zero omitted, Abs format (unit mm)*
G04 Created by KiCad (PCBNEW no-vcs-found-product) date Sa 10 Okt 2015 23:31:38 CEST*
%MOMM*%
G01*
G04 APERTURE LIST*
%ADD10C,0.100000*%
%ADD11C,0.300000*%
G04 APERTURE END LIST*
D10*
D11*
X145182141Y-103850000D02*
X145324998Y-103778571D01*
X145539284Y-103778571D01*
X145753569Y-103850000D01*
X145896427Y-103992857D01*
X145967855Y-104135714D01*
X146039284Y-104421429D01*
X146039284Y-104635714D01*
X145967855Y-104921429D01*
X145896427Y-105064286D01*
X145753569Y-105207143D01*
X145539284Y-105278571D01*
X145396427Y-105278571D01*
X145182141Y-105207143D01*
X145110712Y-105135714D01*
X145110712Y-104635714D01*
X145396427Y-104635714D01*
X144467855Y-105278571D02*
X144467855Y-103778571D01*
X143896427Y-103778571D01*
X143753569Y-103850000D01*
X143682141Y-103921429D01*
X143610712Y-104064286D01*
X143610712Y-104278571D01*
X143682141Y-104421429D01*
X143753569Y-104492857D01*
X143896427Y-104564286D01*
X144467855Y-104564286D01*
X142967855Y-105278571D02*
X142967855Y-103778571D01*
X141753569Y-104492857D02*
X141539283Y-104564286D01*
X141467855Y-104635714D01*
X141396426Y-104778571D01*
X141396426Y-104992857D01*
X141467855Y-105135714D01*
X141539283Y-105207143D01*
X141682141Y-105278571D01*
X142253569Y-105278571D01*
X142253569Y-103778571D01*
X141753569Y-103778571D01*
X141610712Y-103850000D01*
X141539283Y-103921429D01*
X141467855Y-104064286D01*
X141467855Y-104207143D01*
X141539283Y-104350000D01*
X141610712Y-104421429D01*
X141753569Y-104492857D01*
X142253569Y-104492857D01*
X140753569Y-104707143D02*
X139610712Y-104707143D01*
X138896426Y-103778571D02*
X138896426Y-104992857D01*
X138824998Y-105135714D01*
X138753569Y-105207143D01*
X138610712Y-105278571D01*
X138324998Y-105278571D01*
X138182140Y-105207143D01*
X138110712Y-105135714D01*
X138039283Y-104992857D01*
X138039283Y-103778571D01*
X137396426Y-105207143D02*
X137182140Y-105278571D01*
X136824997Y-105278571D01*
X136682140Y-105207143D01*
X136610711Y-105135714D01*
X136539283Y-104992857D01*
X136539283Y-104850000D01*
X136610711Y-104707143D01*
X136682140Y-104635714D01*
X136824997Y-104564286D01*
X137110711Y-104492857D01*
X137253569Y-104421429D01*
X137324997Y-104350000D01*
X137396426Y-104207143D01*
X137396426Y-104064286D01*
X137324997Y-103921429D01*
X137253569Y-103850000D01*
X137110711Y-103778571D01*
X136753569Y-103778571D01*
X136539283Y-103850000D01*
X135396426Y-104492857D02*
X135182140Y-104564286D01*
X135110712Y-104635714D01*
X135039283Y-104778571D01*
X135039283Y-104992857D01*
X135110712Y-105135714D01*
X135182140Y-105207143D01*
X135324998Y-105278571D01*
X135896426Y-105278571D01*
X135896426Y-103778571D01*
X135396426Y-103778571D01*
X135253569Y-103850000D01*
X135182140Y-103921429D01*
X135110712Y-104064286D01*
X135110712Y-104207143D01*
X135182140Y-104350000D01*
X135253569Y-104421429D01*
X135396426Y-104492857D01*
X135896426Y-104492857D01*
X132396426Y-105135714D02*
X132467855Y-105207143D01*
X132682141Y-105278571D01*
X132824998Y-105278571D01*
X133039283Y-105207143D01*
X133182141Y-105064286D01*
X133253569Y-104921429D01*
X133324998Y-104635714D01*
X133324998Y-104421429D01*
X133253569Y-104135714D01*
X133182141Y-103992857D01*
X133039283Y-103850000D01*
X132824998Y-103778571D01*
X132682141Y-103778571D01*
X132467855Y-103850000D01*
X132396426Y-103921429D01*
X131539283Y-105278571D02*
X131682141Y-105207143D01*
X131753569Y-105135714D01*
X131824998Y-104992857D01*
X131824998Y-104564286D01*
X131753569Y-104421429D01*
X131682141Y-104350000D01*
X131539283Y-104278571D01*
X131324998Y-104278571D01*
X131182141Y-104350000D01*
X131110712Y-104421429D01*
X131039283Y-104564286D01*
X131039283Y-104992857D01*
X131110712Y-105135714D01*
X131182141Y-105207143D01*
X131324998Y-105278571D01*
X131539283Y-105278571D01*
X130396426Y-104278571D02*
X130396426Y-105278571D01*
X130396426Y-104421429D02*
X130324998Y-104350000D01*
X130182140Y-104278571D01*
X129967855Y-104278571D01*
X129824998Y-104350000D01*
X129753569Y-104492857D01*
X129753569Y-105278571D01*
X129182140Y-104278571D02*
X128824997Y-105278571D01*
X128467855Y-104278571D01*
X127324998Y-105207143D02*
X127467855Y-105278571D01*
X127753569Y-105278571D01*
X127896426Y-105207143D01*
X127967855Y-105064286D01*
X127967855Y-104492857D01*
X127896426Y-104350000D01*
X127753569Y-104278571D01*
X127467855Y-104278571D01*
X127324998Y-104350000D01*
X127253569Y-104492857D01*
X127253569Y-104635714D01*
X127967855Y-104778571D01*
X126610712Y-105278571D02*
X126610712Y-104278571D01*
X126610712Y-104564286D02*
X126539284Y-104421429D01*
X126467855Y-104350000D01*
X126324998Y-104278571D01*
X126182141Y-104278571D01*
X125896427Y-104278571D02*
X125324998Y-104278571D01*
X125682141Y-103778571D02*
X125682141Y-105064286D01*
X125610713Y-105207143D01*
X125467855Y-105278571D01*
X125324998Y-105278571D01*
X124253570Y-105207143D02*
X124396427Y-105278571D01*
X124682141Y-105278571D01*
X124824998Y-105207143D01*
X124896427Y-105064286D01*
X124896427Y-104492857D01*
X124824998Y-104350000D01*
X124682141Y-104278571D01*
X124396427Y-104278571D01*
X124253570Y-104350000D01*
X124182141Y-104492857D01*
X124182141Y-104635714D01*
X124896427Y-104778571D01*
X123539284Y-105278571D02*
X123539284Y-104278571D01*
X123539284Y-104564286D02*
X123467856Y-104421429D01*
X123396427Y-104350000D01*
X123253570Y-104278571D01*
X123110713Y-104278571D01*
X121682142Y-103778571D02*
X121182142Y-105278571D01*
X120682142Y-103778571D01*
X119396428Y-105278571D02*
X120253571Y-105278571D01*
X119824999Y-105278571D02*
X119824999Y-103778571D01*
X119967856Y-103992857D01*
X120110714Y-104135714D01*
X120253571Y-104207143D01*
X118753571Y-105135714D02*
X118682143Y-105207143D01*
X118753571Y-105278571D01*
X118825000Y-105207143D01*
X118753571Y-105135714D01*
X118753571Y-105278571D01*
X117753571Y-103778571D02*
X117610714Y-103778571D01*
X117467857Y-103850000D01*
X117396428Y-103921429D01*
X117324999Y-104064286D01*
X117253571Y-104350000D01*
X117253571Y-104707143D01*
X117324999Y-104992857D01*
X117396428Y-105135714D01*
X117467857Y-105207143D01*
X117610714Y-105278571D01*
X117753571Y-105278571D01*
X117896428Y-105207143D01*
X117967857Y-105135714D01*
X118039285Y-104992857D01*
X118110714Y-104707143D01*
X118110714Y-104350000D01*
X118039285Y-104064286D01*
X117967857Y-103921429D01*
X117896428Y-103850000D01*
X117753571Y-103778571D01*
X127539283Y-107678571D02*
X128396426Y-107678571D01*
X127967854Y-107678571D02*
X127967854Y-106178571D01*
X128110711Y-106392857D01*
X128253569Y-106535714D01*
X128396426Y-106607143D01*
X127039283Y-106178571D02*
X126110712Y-106178571D01*
X126610712Y-106750000D01*
X126396426Y-106750000D01*
X126253569Y-106821429D01*
X126182140Y-106892857D01*
X126110712Y-107035714D01*
X126110712Y-107392857D01*
X126182140Y-107535714D01*
X126253569Y-107607143D01*
X126396426Y-107678571D01*
X126824998Y-107678571D01*
X126967855Y-107607143D01*
X127039283Y-107535714D01*
X125467855Y-107535714D02*
X125396427Y-107607143D01*
X125467855Y-107678571D01*
X125539284Y-107607143D01*
X125467855Y-107535714D01*
X125467855Y-107678571D01*
X124467855Y-106178571D02*
X124324998Y-106178571D01*
X124182141Y-106250000D01*
X124110712Y-106321429D01*
X124039283Y-106464286D01*
X123967855Y-106750000D01*
X123967855Y-107107143D01*
X124039283Y-107392857D01*
X124110712Y-107535714D01*
X124182141Y-107607143D01*
X124324998Y-107678571D01*
X124467855Y-107678571D01*
X124610712Y-107607143D01*
X124682141Y-107535714D01*
X124753569Y-107392857D01*
X124824998Y-107107143D01*
X124824998Y-106750000D01*
X124753569Y-106464286D01*
X124682141Y-106321429D01*
X124610712Y-106250000D01*
X124467855Y-106178571D01*
X123253570Y-107678571D02*
X122967855Y-107678571D01*
X122824998Y-107607143D01*
X122753570Y-107535714D01*
X122610712Y-107321429D01*
X122539284Y-107035714D01*
X122539284Y-106464286D01*
X122610712Y-106321429D01*
X122682141Y-106250000D01*
X122824998Y-106178571D01*
X123110712Y-106178571D01*
X123253570Y-106250000D01*
X123324998Y-106321429D01*
X123396427Y-106464286D01*
X123396427Y-106821429D01*
X123324998Y-106964286D01*
X123253570Y-107035714D01*
X123110712Y-107107143D01*
X122824998Y-107107143D01*
X122682141Y-107035714D01*
X122610712Y-106964286D01*
X122539284Y-106821429D01*
X121896427Y-107535714D02*
X121824999Y-107607143D01*
X121896427Y-107678571D01*
X121967856Y-107607143D01*
X121896427Y-107535714D01*
X121896427Y-107678571D01*
X121253570Y-106321429D02*
X121182141Y-106250000D01*
X121039284Y-106178571D01*
X120682141Y-106178571D01*
X120539284Y-106250000D01*
X120467855Y-106321429D01*
X120396427Y-106464286D01*
X120396427Y-106607143D01*
X120467855Y-106821429D01*
X121324998Y-107678571D01*
X120396427Y-107678571D01*
X119467856Y-106178571D02*
X119324999Y-106178571D01*
X119182142Y-106250000D01*
X119110713Y-106321429D01*
X119039284Y-106464286D01*
X118967856Y-106750000D01*
X118967856Y-107107143D01*
X119039284Y-107392857D01*
X119110713Y-107535714D01*
X119182142Y-107607143D01*
X119324999Y-107678571D01*
X119467856Y-107678571D01*
X119610713Y-107607143D01*
X119682142Y-107535714D01*
X119753570Y-107392857D01*
X119824999Y-107107143D01*
X119824999Y-106750000D01*
X119753570Y-106464286D01*
X119682142Y-106321429D01*
X119610713Y-106250000D01*
X119467856Y-106178571D01*
X117539285Y-107678571D02*
X118396428Y-107678571D01*
X117967856Y-107678571D02*
X117967856Y-106178571D01*
X118110713Y-106392857D01*
X118253571Y-106535714D01*
X118396428Y-106607143D01*
X116182142Y-106178571D02*
X116896428Y-106178571D01*
X116967857Y-106892857D01*
X116896428Y-106821429D01*
X116753571Y-106750000D01*
X116396428Y-106750000D01*
X116253571Y-106821429D01*
X116182142Y-106892857D01*
X116110714Y-107035714D01*
X116110714Y-107392857D01*
X116182142Y-107535714D01*
X116253571Y-107607143D01*
X116396428Y-107678571D01*
X116753571Y-107678571D01*
X116896428Y-107607143D01*
X116967857Y-107535714D01*
M02*
