M48
;DRILL file {KiCad no-vcs-found-product} date Mi 14 Okt 2015 21:54:50 CEST
;FORMAT={-:-/ absolute / inch / decimal}
FMAT,2
INCH,TZ
T1C0.016
T2C0.037
T3C0.039
T4C0.091
T5C0.138
%
G90
G05
M72
T1
X4.7378Y-4.1358
X4.773Y-4.0299
X4.9294Y-4.207
X5.0315Y-3.6516
X5.065Y-3.7815
X5.0697Y-3.878
X5.0736Y-3.9598
X5.0819Y-4.3441
X5.1406Y-4.2087
X5.165Y-3.3646
X5.311Y-4.0453
X5.3909Y-3.1949
X5.4016Y-3.8051
X5.4154Y-3.4941
X5.4154Y-3.5256
X5.4213Y-3.5571
X5.5331Y-3.574
X5.5724Y-3.4142
X5.5951Y-4.4289
X5.637Y-4.0419
X5.6996Y-4.0303
X5.7492Y-4.4303
X5.7933Y-3.2913
X5.8559Y-3.2984
X5.8559Y-3.9285
X5.8815Y-3.9039
X5.8878Y-3.4035
X5.9227Y-4.3673
X5.9748Y-3.824
X6.0169Y-3.7937
X6.0177Y-3.7303
X6.2457Y-4.3992
X6.4224Y-3.7504
X6.4362Y-3.5366
X6.4461Y-3.0579
X6.6315Y-4.3335
X6.6398Y-3.7993
X6.7248Y-3.7228
X6.7283Y-3.1213
X6.7815Y-3.7953
X6.7815Y-3.8445
X6.7941Y-3.511
X6.7969Y-3.561
X6.7984Y-3.4614
X6.8039Y-3.4102
T2
X4.6857Y-3.5801
X4.6857Y-3.6781
X4.7647Y-3.5801
X4.7647Y-3.6781
T3
X5.1783Y-3.5339
X5.1783Y-3.6339
X5.1783Y-3.7339
X5.2783Y-3.5339
X5.2783Y-3.6339
X5.2783Y-3.7339
X5.674Y-3.0484
X5.674Y-3.1484
X5.774Y-3.0484
X5.774Y-3.1484
X5.874Y-3.0484
X5.874Y-3.1484
X5.974Y-3.0484
X5.974Y-3.1484
X6.074Y-3.0484
X6.074Y-3.1484
X7.0295Y-3.1535
X7.0295Y-3.2535
X7.0295Y-3.3535
X7.0295Y-3.4535
X7.0295Y-3.5535
X7.0295Y-3.6535
X7.0295Y-3.7535
X7.0295Y-3.8535
X7.0295Y-3.9535
X7.0295Y-4.0535
X7.0295Y-4.1535
X7.0295Y-4.2535
X7.1295Y-3.1535
X7.1295Y-3.2535
X7.1295Y-3.3535
X7.1295Y-3.4535
X7.1295Y-3.5535
X7.1295Y-3.6535
X7.1295Y-3.7535
X7.1295Y-3.8535
X7.1295Y-3.9535
X7.1295Y-4.0535
X7.1295Y-4.1535
X7.1295Y-4.2535
T4
X4.5787Y-3.3921
X4.5787Y-3.8661
T5
X4.5516Y-4.3819
X4.5606Y-3.1012
X7.0941Y-4.4193
T0
M30
